<?xml version="1.0" encoding="UTF-8"?>
<svg xmlns="http://www.w3.org/2000/svg" xmlns:xlink="http://www.w3.org/1999/xlink" version="1.2" >
<font id="Literata Book SemiBold">
<font-face  font-family="Literata Book" units-per-em="1000" ascent="780" descent="-230" font-style="normal" font-weight="600" font-stretch="normal" cap-height="700" x-height="511" underline-position="-75" underline-thickness="50" />
<missing-glyph  horiz-adv-x="495" d="" />
<glyph glyph-name="null" d="" />
<glyph glyph-name="nonmarkingreturn" unicode="&#xd;" horiz-adv-x="250" d="" />
<glyph glyph-name="space" unicode="&#x20;" horiz-adv-x="188" d="" />
<glyph glyph-name="exclam" unicode="&#x21;" horiz-adv-x="340" d="M139 241 Q139 301 132.5 360 Q126 419 118 472.5 Q110 526 103.5 570 Q97 614 97 642 Q97 680 120.5 697 Q144 714 175 714 Q210 714 230.5 696.5 Q251 679 251 644 Q251 615 244 570.5 Q237 526 228 472.5 Q219 419 212 359.5 Q205 300 205 240 L205 190 L139 190 L139 241 Z M173 -15 Q139 -15 117 3 Q95 21 95 59 Q95 97 117 116 Q139 135 173 135 Q208 135 230 116.5 Q252 98 252 60 Q252 22 230 3.5 Q208 -15 173 -15 Z " />
<glyph glyph-name="quotedbl" unicode="&#x22;" horiz-adv-x="402" d="M80 701 Q79 709 78 716 Q77 723 77 727 Q77 751 92.5 768 Q108 785 136 785 Q153 785 169.5 773.5 Q186 762 186 741 Q186 737 185.5 730.5 Q185 724 183 717 L148 543 L107 543 L80 701 Z M235 701 Q233 709 232.5 716 Q232 723 232 727 Q232 751 247.5 768 Q263 785 290 785 Q307 785 323.5 773.5 Q340 762 340 741 Q340 737 339.5 730.5 Q339 724 337 717 L302 543 L262 543 L235 701 Z " />
<glyph glyph-name="numbersign" unicode="&#x23;" horiz-adv-x="678" d="M162 136 L37 136 L49 195 L172 195 L198 364 L72 364 L83 423 L207 423 L227 554 L300 554 L280 423 L440 423 L460 554 L533 554 L513 423 L641 423 L630 364 L503 364 L478 195 L612 195 L601 136 L469 136 L447 -4 L374 -4 L396 136 L235 136 L213 -4 L140 -4 L162 136 Z M406 195 L431 364 L269 364 L245 195 L406 195 Z " />
<glyph glyph-name="dollar" unicode="&#x24;" horiz-adv-x="514" d="M234 -10 Q202 -5 171.5 6 Q141 17 124 33 L111 -10 L57 -10 L42 165 L105 172 Q146 71 234 59 L234 230 Q192 243 158.5 258 Q125 273 102.5 293.5 Q80 314 68 342 Q56 370 56 409 Q56 440 67 468.5 Q78 497 100 519 Q122 541 155.5 555 Q189 569 234 571 L234 665 L295 665 L295 565 Q318 560 339.5 551 Q361 542 378 531 L388 572 L440 572 L455 403 L389 394 Q372 446 348 469.5 Q324 493 295 500 L295 337 Q327 325 358.5 312.5 Q390 300 415 280.5 Q440 261 455 232.5 Q470 204 470 162 Q470 127 457.5 96.5 Q445 66 421.5 43.5 Q398 21 366 6.5 Q334 -8 295 -11 L295 -98 L234 -98 L234 -10 Z M234 503 Q205 498 187.5 481 Q170 464 170 434 Q170 405 187 388.5 Q204 372 234 360 L234 503 Z M295 64 Q325 72 339.5 91 Q354 110 354 135 Q354 163 338 179.5 Q322 196 295 207 L295 64 Z " />
<glyph glyph-name="percent" unicode="&#x25;" horiz-adv-x="844" d="M556 597 L646 597 L283 -14 L192 -14 L556 597 Z M204 274 Q127 274 83.5 316.5 Q40 359 40 427 Q40 473 54.5 505 Q69 537 92.5 557.5 Q116 578 146.5 587 Q177 596 209 596 Q242 596 271 586.5 Q300 577 322 558.5 Q344 540 357 511.5 Q370 483 370 444 Q370 402 357 370.5 Q344 339 321.5 317.5 Q299 296 269 285 Q239 274 204 274 Z M208 334 Q235 334 250.5 356.5 Q266 379 266 434 Q266 489 249 513.5 Q232 538 202 538 Q176 538 159 515.5 Q142 493 142 439 Q142 389 159 361.5 Q176 334 208 334 Z M638 -14 Q561 -14 517.5 28 Q474 70 474 138 Q474 184 488.5 216.5 Q503 249 526.5 269 Q550 289 580.5 298.5 Q611 308 643 308 Q676 308 705 298.5 Q734 289 756.5 270.5 Q779 252 792 223.5 Q805 195 805 156 Q805 114 792 82.5 Q779 51 756 29.5 Q733 8 703 -3 Q673 -14 638 -14 Z M642 46 Q670 46 685.5 68.5 Q701 91 701 146 Q701 201 683.5 225.5 Q666 250 636 250 Q610 250 593 227.5 Q576 205 576 151 Q576 101 593.5 73.5 Q611 46 642 46 Z " />
<glyph glyph-name="ampersand" unicode="&#x26;" horiz-adv-x="819" d="M280 -14 Q237 -14 195.5 -2.5 Q154 9 121 32.5 Q88 56 68 93 Q48 130 48 181 Q48 219 60 250 Q72 281 93 306 Q114 331 142 350 Q170 369 201 382 Q171 414 145 454 Q119 494 119 544 Q119 586 134.5 617.5 Q150 649 176 671 Q202 693 237.5 704 Q273 715 312 715 Q349 715 380 704.5 Q411 694 433 674.5 Q455 655 467 628 Q479 601 479 569 Q479 509 443.5 465.5 Q408 422 351 395 L485 254 Q503 326 527 372 Q551 418 577.5 445 Q604 472 632.5 482.5 Q661 493 688 493 Q722 493 747.5 473 Q773 453 773 418 Q773 392 758 372 Q743 352 719 352 Q691 352 679.5 369.5 Q668 387 655 419 Q640 412 623.5 398.5 Q607 385 591 360 Q575 335 561 296.5 Q547 258 536 202 Q567 172 589.5 152 Q612 132 628.5 119.5 Q645 107 658.5 102 Q672 97 685 97 Q699 97 716 105 Q733 113 759 133 L788 96 Q753 48 721 25.5 Q689 3 652 3 Q614 3 577.5 23 Q541 43 494 91 Q481 71 463 52 Q445 33 419 18.5 Q393 4 359 -5 Q325 -14 280 -14 Z M313 435 Q361 466 378.5 502.5 Q396 539 396 571 Q396 616 371.5 636.5 Q347 657 313 657 Q281 657 255.5 637 Q230 617 230 574 Q230 534 254.5 500.5 Q279 467 313 435 Z M314 60 Q359 60 392 80 Q425 100 442 134 L241 339 Q215 322 195.5 289 Q176 256 176 204 Q176 132 216 96 Q256 60 314 60 Z " />
<glyph glyph-name="quotesingle" unicode="&#x27;" horiz-adv-x="248" d="M80 701 Q79 709 78 716 Q77 723 77 727 Q77 751 92.5 768 Q108 785 136 785 Q153 785 169.5 773.5 Q186 762 186 741 Q186 737 185.5 730.5 Q185 724 183 717 L148 543 L107 543 L80 701 Z " />
<glyph glyph-name="parenleft" unicode="&#x28;" horiz-adv-x="344" d="M264 -209 Q222 -164 185 -107.5 Q148 -51 120.5 15.5 Q93 82 76.5 157 Q60 232 60 314 Q60 395 77.5 470 Q95 545 124.5 610.5 Q154 676 191 730 Q228 784 267 824 L316 795 Q286 746 262 688.5 Q238 631 222 569.5 Q206 508 197.5 444 Q189 380 189 319 Q189 183 221 54.5 Q253 -74 314 -182 L264 -209 Z " />
<glyph glyph-name="parenright" unicode="&#x29;" horiz-adv-x="344" d="M27 -180 Q57 -131 81 -73.5 Q105 -16 121 45.5 Q137 107 145.5 171 Q154 235 154 296 Q154 432 122 560.5 Q90 689 29 797 L79 824 Q121 779 158 722.5 Q195 666 223 599.5 Q251 533 267 457.5 Q283 382 283 301 Q283 220 265.5 145 Q248 70 218.5 4.5 Q189 -61 152 -115 Q115 -169 76 -209 L27 -180 Z " />
<glyph glyph-name="asterisk" unicode="&#x2a;" horiz-adv-x="455" d="M220 405 Q197 405 188.5 420.5 Q180 436 185 458 L208 566 L133 498 Q122 488 109.5 484.5 Q97 481 85.5 483.5 Q74 486 66 494.5 Q58 503 55 516 Q50 533 59.5 543.5 Q69 554 87 561 L190 597 L96 630 Q78 637 67.5 649 Q57 661 62 682 Q66 708 86.5 714 Q107 720 128 701 L209 627 L189 733 Q184 758 196.5 773 Q209 788 232 788 Q253 788 263 774 Q273 760 268 738 L244 625 L323 695 Q350 719 372.5 710 Q395 701 399 678 Q404 659 394 648 Q384 637 366 631 L261 596 L356 562 Q374 555 385.5 542.5 Q397 530 392 509 Q388 482 368.5 476.5 Q349 471 326 490 L244 566 L264 467 Q269 442 258 423.5 Q247 405 220 405 Z " />
<glyph glyph-name="plus" unicode="&#x2b;" horiz-adv-x="582" d="M244 267 L70 267 L70 349 L244 349 L244 528 L336 528 L336 349 L512 349 L512 267 L336 267 L336 81 L244 81 L244 267 Z " />
<glyph glyph-name="comma" unicode="&#x2c;" horiz-adv-x="324" d="M80 -130 Q119 -101 141.5 -69.5 Q164 -38 167 -6 L149 -6 Q116 -6 97 10.5 Q78 27 78 59 Q78 94 99.5 116 Q121 138 159 138 Q206 138 227.5 109 Q249 80 249 40 Q249 13 241 -16.5 Q233 -46 216.5 -74 Q200 -102 174.5 -128 Q149 -154 114 -173 L80 -130 Z " />
<glyph glyph-name="hyphen" unicode="&#x2d;" horiz-adv-x="356" d="M36 329 L321 329 L321 238 L36 238 L36 329 Z " />
<glyph glyph-name="period" unicode="&#x2e;" horiz-adv-x="315" d="M159 -18 Q124 -18 101 1.5 Q78 21 78 60 Q78 99 101 119.5 Q124 140 159 140 Q197 140 220.5 120 Q244 100 244 61 Q244 22 220.5 2 Q197 -18 159 -18 Z " />
<glyph glyph-name="slash" unicode="&#x2f;" horiz-adv-x="458" d="M351 802 L441 802 L104 -110 L14 -110 L351 802 Z " />
<glyph glyph-name="zero" unicode="0" horiz-adv-x="629" d="M310 -14 Q177 -14 107.5 62 Q38 138 38 274 Q38 349 60.5 405 Q83 461 121 498 Q159 535 209 553.5 Q259 572 314 572 Q368 572 418 558.5 Q468 545 506.5 512.5 Q545 480 568 426.5 Q591 373 591 293 Q591 210 567 151.5 Q543 93 504 56.5 Q465 20 414.5 3 Q364 -14 310 -14 Z M313 55 Q382 55 419.5 110.5 Q457 166 457 287 Q457 349 446.5 390 Q436 431 417.5 455.5 Q399 480 373 490.5 Q347 501 317 501 Q245 501 208.5 444.5 Q172 388 172 280 Q172 162 209.5 108.5 Q247 55 313 55 Z " />
<glyph glyph-name="one" unicode="1" horiz-adv-x="414" d="M55 55 L134 66 Q151 68 155.5 77 Q160 86 160 101 L160 435 Q160 458 154.5 470 Q149 482 125 482 L43 482 L50 542 L256 569 L283 553 L283 106 Q283 82 287.5 75.5 Q292 69 311 66 L383 55 L383 0 L55 0 L55 55 Z " />
<glyph glyph-name="two" unicode="2" horiz-adv-x="572" d="M52 68 Q68 78 87.5 91.5 Q107 105 127.5 120 Q148 135 168 150 Q188 165 204 178 Q265 226 304.5 277.5 Q344 329 344 392 Q344 426 336 447.5 Q328 469 314.5 481.5 Q301 494 283 499 Q265 504 245 504 Q219 504 194.5 494.5 Q170 485 153 467 Q168 448 175.5 436 Q183 424 183 413 Q183 393 165 374 Q147 355 115 355 Q79 355 63 374.5 Q47 394 47 421 Q47 451 63.5 478 Q80 505 109 526 Q138 547 179 559.5 Q220 572 268 572 Q363 572 420.5 528.5 Q478 485 478 400 Q478 350 457 310.5 Q436 271 403 238 Q370 205 328.5 177.5 Q287 150 246 123 L196 92 L196 87 L331 87 Q359 87 377.5 90 Q396 93 409.5 103.5 Q423 114 433.5 134 Q444 154 456 188 L519 188 L504 0 L52 0 L52 68 Z " />
<glyph glyph-name="three" unicode="3" horiz-adv-x="550" d="M60 -112 Q205 -96 282.5 -43 Q360 10 360 93 Q360 144 335.5 174.5 Q311 205 274 216 Q251 205 225 197.5 Q199 190 173 183 L162 251 Q250 274 293.5 313 Q337 352 337 412 Q337 454 311 478.5 Q285 503 237 503 Q206 503 181 493 Q156 483 143 466 Q172 431 172 413 Q172 393 153.5 374 Q135 355 104 355 Q67 355 52 375 Q37 395 37 423 Q37 452 54 478.5 Q71 505 101 526 Q131 547 172.5 559.5 Q214 572 264 572 Q355 572 411 533 Q467 494 467 420 Q467 375 439.5 334 Q412 293 348 258 L346 253 Q376 245 404 232.5 Q432 220 453 201 Q474 182 486.5 155 Q499 128 499 91 Q499 33 468.5 -15 Q438 -63 382.5 -97.5 Q327 -132 248 -152.5 Q169 -173 71 -176 L60 -112 Z " />
<glyph glyph-name="four" unicode="4" horiz-adv-x="625" d="M344 0 L22 0 L12 68 L348 554 L440 572 L460 555 L460 85 L495 85 Q509 85 516 89 Q523 93 526 107 L538 155 L590 155 L590 -61 L538 -61 L526 -22 Q523 -9 516.5 -4.5 Q510 0 494 0 L460 0 L460 -164 L344 -164 L344 0 Z M344 85 L344 423 L108 85 L344 85 Z " />
<glyph glyph-name="five" unicode="5" horiz-adv-x="535" d="M49 -112 Q202 -93 276 -39 Q350 15 350 109 Q350 163 317.5 193.5 Q285 224 228 224 Q200 224 170.5 218.5 Q141 213 103 196 L73 240 L100 558 L311 558 Q336 558 352 560.5 Q368 563 378.5 570.5 Q389 578 395.5 592.5 Q402 607 409 632 L470 632 L450 456 L170 456 L152 275 Q183 292 219 302.5 Q255 313 295 313 Q383 313 435.5 261 Q488 209 488 118 Q488 49 457 -4.5 Q426 -58 369.5 -95 Q313 -132 234 -152.5 Q155 -173 59 -176 L49 -112 Z " />
<glyph glyph-name="six" unicode="6" horiz-adv-x="600" d="M300 -14 Q232 -14 184.5 9.5 Q137 33 107.5 72.5 Q78 112 64.5 164.5 Q51 217 51 274 Q51 386 84 468.5 Q117 551 174.5 606 Q232 661 309.5 690.5 Q387 720 475 727 L491 663 Q432 654 381 633.5 Q330 613 289.5 579 Q249 545 220.5 497.5 Q192 450 179 388 L182 385 Q205 415 248.5 436.5 Q292 458 348 458 Q393 458 431.5 443.5 Q470 429 498 401.5 Q526 374 542 333.5 Q558 293 558 241 Q558 180 538.5 132.5 Q519 85 484.5 52.5 Q450 20 403 3 Q356 -14 300 -14 Z M307 56 Q363 56 394.5 98 Q426 140 426 228 Q426 383 310 383 Q286 383 263.5 374 Q241 365 223.5 346.5 Q206 328 195 299 Q184 270 184 231 Q184 193 190.5 161 Q197 129 211.5 105.5 Q226 82 249.5 69 Q273 56 307 56 Z " />
<glyph glyph-name="seven" unicode="7" horiz-adv-x="568" d="M121 -141 Q154 -89 196.5 -21.5 Q239 46 282 123.5 Q325 201 364 286 Q403 371 430 456 L221 456 Q189 456 171 452.5 Q153 449 141.5 438 Q130 427 122.5 407 Q115 387 104 354 L42 354 L61 558 L529 558 L539 495 Q452 269 384 101.5 Q316 -66 268 -163 L134 -163 L121 -141 Z " />
<glyph glyph-name="eight" unicode="8" horiz-adv-x="584" d="M287 -14 Q233 -14 186.5 -2.5 Q140 9 106.5 32.5 Q73 56 53.5 91.5 Q34 127 34 175 Q34 203 42.5 231.5 Q51 260 70 285.5 Q89 311 120 332.5 Q151 354 196 368 Q158 386 133 404.5 Q108 423 93 443.5 Q78 464 72 486.5 Q66 509 66 536 Q66 568 79.5 599.5 Q93 631 121.5 656.5 Q150 682 193 698 Q236 714 295 714 Q406 714 461 670.5 Q516 627 516 560 Q516 499 480.5 456.5 Q445 414 393 390 Q479 353 513.5 303.5 Q548 254 548 198 Q548 146 525.5 106.5 Q503 67 466.5 40 Q430 13 383 -0.5 Q336 -14 287 -14 Z M327 420 Q357 443 376.5 476.5 Q396 510 396 548 Q396 598 365 623 Q334 648 289 648 Q247 648 217 626 Q187 604 187 558 Q187 537 193.5 519.5 Q200 502 216 485.5 Q232 469 259 453.5 Q286 438 327 420 Z M295 54 Q351 54 384.5 86.5 Q418 119 418 179 Q418 239 377 273.5 Q336 308 259 334 Q208 308 184 268 Q160 228 160 184 Q160 124 196 89 Q232 54 295 54 Z " />
<glyph glyph-name="nine" unicode="9" horiz-adv-x="600" d="M117 -108 Q173 -100 223 -80 Q273 -60 312.5 -26.5 Q352 7 379.5 55 Q407 103 419 167 L418 171 Q393 139 353.5 118 Q314 97 259 97 Q213 97 173.5 112 Q134 127 106 155.5 Q78 184 62 225.5 Q46 267 46 321 Q46 381 65.5 427.5 Q85 474 119.5 506 Q154 538 201 555 Q248 572 303 572 Q371 572 418.5 549 Q466 526 495.5 486.5 Q525 447 538.5 394 Q552 341 552 282 Q552 169 519 85.5 Q486 2 429 -54 Q372 -110 294.5 -140 Q217 -170 128 -176 L117 -108 Z M295 174 Q318 174 340 183 Q362 192 379.5 211 Q397 230 408 260 Q419 290 419 333 Q419 369 412.5 400 Q406 431 391.5 453.5 Q377 476 353.5 488.5 Q330 501 295 501 Q240 501 208.5 460 Q177 419 177 334 Q177 174 295 174 Z " />
<glyph glyph-name="colon" unicode="&#x3a;" horiz-adv-x="321" d="M159 366 Q124 366 101 385.5 Q78 405 78 444 Q78 484 101 504.5 Q124 525 159 525 Q197 525 220.5 505 Q244 485 244 446 Q244 406 220.5 386 Q197 366 159 366 Z M159 -18 Q124 -18 101 1.5 Q78 21 78 60 Q78 99 101 119.5 Q124 140 159 140 Q197 140 220.5 120 Q244 100 244 61 Q244 22 220.5 2 Q197 -18 159 -18 Z " />
<glyph glyph-name="semicolon" unicode="&#x3b;" horiz-adv-x="322" d="M157 366 Q121 366 98 385.5 Q75 405 75 444 Q75 484 98 504.5 Q121 525 157 525 Q194 525 217.5 505 Q241 485 241 446 Q241 406 217.5 386 Q194 366 157 366 Z M76 -130 Q115 -101 137.5 -69.5 Q160 -38 163 -6 L145 -6 Q111 -6 92.5 10.5 Q74 27 74 59 Q74 94 95.5 116 Q117 138 155 138 Q202 138 223.5 109 Q245 80 245 40 Q245 13 237 -16.5 Q229 -46 212.5 -74 Q196 -102 170 -128 Q144 -154 109 -173 L76 -130 Z " />
<glyph glyph-name="less" unicode="&#x3c;" horiz-adv-x="582" d="M69 265 L69 322 L453 546 L489 476 L168 295 L490 116 L454 41 L69 265 Z " />
<glyph glyph-name="equal" unicode="&#x3d;" horiz-adv-x="582" d="M73 437 L509 437 L509 355 L73 355 L73 437 Z M73 257 L509 257 L509 175 L73 175 L73 257 Z " />
<glyph glyph-name="greater" unicode="&#x3e;" horiz-adv-x="582" d="M92 116 L414 295 L93 476 L129 546 L513 322 L513 265 L128 41 L92 116 Z " />
<glyph glyph-name="question" unicode="&#x3f;" horiz-adv-x="531" d="M208 320 Q208 341 212.5 357.5 Q217 374 225.5 388 Q234 402 246.5 415.5 Q259 429 275 445 Q301 470 323 496 Q345 522 345 561 Q345 604 318 625.5 Q291 647 247 647 Q216 647 193.5 637.5 Q171 628 157 615 Q167 601 177 586 Q187 571 187 558 Q187 539 170 521 Q153 503 122 503 Q87 503 71.5 522.5 Q56 542 56 568 Q56 597 72 623.5 Q88 650 116 670 Q144 690 182 702 Q220 714 264 714 Q358 714 410.5 671 Q463 628 463 550 Q463 519 452.5 492.5 Q442 466 425.5 443 Q409 420 388 399.5 Q367 379 346 359 Q307 322 289.5 299.5 Q272 277 272 251 L272 190 L208 190 L208 320 Z M241 -15 Q207 -15 185 3 Q163 21 163 59 Q163 97 185 116 Q207 135 241 135 Q276 135 298 116.5 Q320 98 320 60 Q320 22 298 3.5 Q276 -15 241 -15 Z " />
<glyph glyph-name="at" unicode="&#x40;" horiz-adv-x="851" d="M411 -192 Q341 -192 275 -170.5 Q209 -149 158 -104.5 Q107 -60 76 9.5 Q45 79 45 175 Q45 261 72 334.5 Q99 408 150 462 Q201 516 274.5 546.5 Q348 577 441 577 Q522 577 589 556.5 Q656 536 704 494.5 Q752 453 778.5 390.5 Q805 328 805 244 Q805 177 788 128.5 Q771 80 742.5 48 Q714 16 677.5 0.5 Q641 -15 601 -15 Q559 -15 540 5 Q521 25 522 79 L527 185 L521 185 L505 129 Q483 49 444.5 17 Q406 -15 362 -15 Q323 -15 297 -1 Q271 13 255 35.5 Q239 58 232 87.5 Q225 117 225 147 Q225 215 242 263.5 Q259 312 286.5 343 Q314 374 350.5 388 Q387 402 426 402 Q455 402 481.5 396.5 Q508 391 531 378 L583 403 L609 390 L599 94 Q598 65 604.5 55 Q611 45 628 45 Q667 45 694.5 96.5 Q722 148 722 239 Q722 302 705 352.5 Q688 403 653 438.5 Q618 474 565.5 493 Q513 512 441 512 Q376 512 320 490.5 Q264 469 222.5 427 Q181 385 157.5 324 Q134 263 134 185 Q134 97 160.5 39 Q187 -19 227.5 -54 Q268 -89 317 -103.5 Q366 -118 412 -118 Q483 -118 533 -101.5 Q583 -85 625 -50 L661 -96 Q563 -192 411 -192 Z M378 54 Q410 54 435 93.5 Q460 133 483 209 L518 331 Q503 339 479 343.5 Q455 348 437 348 Q406 348 384 330.5 Q362 313 348 285.5 Q334 258 327.5 222.5 Q321 187 321 151 Q321 107 333.5 80.5 Q346 54 378 54 Z " />
<glyph glyph-name="A" unicode="A" horiz-adv-x="738" d="M13 55 L61 63 Q79 67 87 78 Q95 89 105 117 L314 700 L434 700 L641 115 Q650 90 657 79 Q664 68 685 64 L725 56 L725 0 L432 0 L432 55 L483 62 Q503 65 506.5 76 Q510 87 502 112 L466 221 L226 221 L191 116 Q183 92 187.5 80 Q192 68 214 63 L263 55 L263 0 L13 0 L13 55 Z M446 285 L351 577 L347 577 L247 285 L446 285 Z " />
<glyph glyph-name="B" unicode="B" horiz-adv-x="667" d="M54 55 L109 65 Q131 69 135.5 80.5 Q140 92 140 115 L140 589 Q140 612 135 622 Q130 632 107 636 L54 645 L54 700 L352 700 Q480 700 537.5 655 Q595 610 595 530 Q595 502 585.5 476 Q576 450 559 429 Q542 408 518.5 392.5 Q495 377 467 371 L467 366 Q543 361 589 319.5 Q635 278 635 206 Q635 168 622 131 Q609 94 576.5 65 Q544 36 488.5 18 Q433 0 347 0 L54 0 L54 55 Z M315 390 Q390 390 425 423 Q460 456 460 522 Q460 579 426 607.5 Q392 636 315 636 L269 636 L269 392 Q279 390 293 390 Q307 390 315 390 Z M337 65 Q382 65 413 75.5 Q444 86 463.5 104.5 Q483 123 491.5 149 Q500 175 500 206 Q500 241 487 265 Q474 289 451 303 Q428 317 397.5 323 Q367 329 331 329 Q314 329 300 328.5 Q286 328 269 326 L269 70 Q283 67 304.5 66 Q326 65 337 65 Z " />
<glyph glyph-name="C" unicode="C" horiz-adv-x="699" d="M391 -14 Q308 -14 244.5 12.5 Q181 39 138 86 Q95 133 73 199 Q51 265 51 344 Q51 429 74.5 497.5 Q98 566 141 614 Q184 662 243.5 688 Q303 714 376 714 Q443 714 483.5 693.5 Q524 673 545 652 L555 716 L610 716 L649 482 L582 466 Q557 551 510.5 594 Q464 637 386 637 Q336 637 298.5 616.5 Q261 596 236.5 558.5 Q212 521 200 468.5 Q188 416 188 351 Q188 286 204 234 Q220 182 249 146 Q278 110 318.5 90.5 Q359 71 408 71 Q444 71 473 79.5 Q502 88 525.5 103 Q549 118 568.5 137.5 Q588 157 604 179 L660 135 Q643 110 618.5 83.5 Q594 57 561.5 35 Q529 13 486.5 -0.5 Q444 -14 391 -14 Z " />
<glyph glyph-name="D" unicode="D" horiz-adv-x="773" d="M54 55 L111 66 Q131 69 135.5 80.5 Q140 92 140 117 L140 587 Q140 610 136 620 Q132 630 109 634 L54 645 L54 700 L361 700 Q441 700 507.5 681.5 Q574 663 621.5 624 Q669 585 695 523.5 Q721 462 721 376 Q721 292 698 223 Q675 154 626.5 104.5 Q578 55 502 27.5 Q426 0 319 0 L54 0 L54 55 Z M335 65 Q408 65 456 88 Q504 111 532.5 151.5 Q561 192 573 248 Q585 304 585 371 Q585 432 570 481 Q555 530 523.5 564.5 Q492 599 443.5 617.5 Q395 636 327 636 L269 636 L269 70 Q279 68 299 66.5 Q319 65 335 65 Z " />
<glyph glyph-name="E" unicode="E" horiz-adv-x="638" d="M54 55 L106 64 Q128 68 132.5 80 Q137 92 137 115 L137 589 Q137 612 132 622 Q127 632 104 636 L54 645 L54 700 L537 700 L574 534 L514 517 Q500 555 487 578.5 Q474 602 457 614.5 Q440 627 417 631.5 Q394 636 360 636 L266 636 L266 389 L331 389 Q362 389 378 391.5 Q394 394 402 402.5 Q410 411 414 427.5 Q418 444 424 472 L477 479 L477 248 L424 239 Q420 266 416.5 283 Q413 300 405 309 Q397 318 382.5 321 Q368 324 341 324 L266 324 L266 64 L388 64 Q424 64 448 68 Q472 72 487.5 85 Q503 98 514 122 Q525 146 535 186 L599 186 L575 0 L54 0 L54 55 Z " />
<glyph glyph-name="F" unicode="F" horiz-adv-x="611" d="M54 55 L106 64 Q128 68 132.5 80 Q137 92 137 115 L137 589 Q137 612 132 622 Q127 632 104 636 L54 645 L54 700 L540 700 L578 528 L516 509 Q501 551 487 576 Q473 601 455 614.5 Q437 628 412 632 Q387 636 350 636 L266 636 L266 369 L328 369 Q355 369 371 370.5 Q387 372 396 379.5 Q405 387 410 404 Q415 421 421 451 L474 458 L474 208 L421 199 Q415 233 411.5 253.5 Q408 274 400.5 285.5 Q393 297 378.5 301 Q364 305 335 305 L266 305 L266 114 Q266 87 272.5 77.5 Q279 68 303 64 L369 55 L369 0 L54 0 L54 55 Z " />
<glyph glyph-name="G" unicode="G" horiz-adv-x="745" d="M383 -14 Q293 -14 230 16 Q167 46 127.5 95 Q88 144 69.5 207 Q51 270 51 336 Q51 424 74 494 Q97 564 139.5 613 Q182 662 242 688 Q302 714 375 714 Q441 714 483.5 693.5 Q526 673 547 652 L557 715 L614 715 L661 482 L593 467 Q564 555 515.5 596 Q467 637 389 637 Q332 637 293.5 614 Q255 591 231.5 551 Q208 511 198 459 Q188 407 188 348 Q188 281 203 228.5 Q218 176 245.5 139.5 Q273 103 311.5 83.5 Q350 64 396 64 Q447 64 479.5 79.5 Q512 95 532 116 L532 225 Q532 248 527 259 Q522 270 499 274 L445 283 L445 338 L726 338 L726 283 L679 274 Q658 270 653.5 257 Q649 244 649 221 L649 -3 L587 -3 L565 41 Q534 17 488.5 1.5 Q443 -14 383 -14 Z " />
<glyph glyph-name="H" unicode="H" horiz-adv-x="836" d="M54 55 L105 64 Q130 69 135 78.5 Q140 88 140 116 L140 586 Q140 614 135 622.5 Q130 631 104 636 L54 645 L54 700 L355 700 L355 645 L300 635 Q279 631 274 621 Q269 611 269 585 L269 396 L566 396 L566 586 Q566 612 561 621.5 Q556 631 534 635 L480 645 L480 700 L781 700 L781 645 L730 636 Q705 631 700 621.5 Q695 612 695 584 L695 114 Q695 86 700.5 77.5 Q706 69 731 64 L781 55 L781 0 L480 0 L480 55 L534 65 Q556 69 561 79 Q566 89 566 114 L566 322 L269 322 L269 112 Q269 87 274 78 Q279 69 301 65 L355 55 L355 0 L54 0 L54 55 Z " />
<glyph glyph-name="I" unicode="I" horiz-adv-x="410" d="M50 55 L105 64 Q130 69 135 78.5 Q140 88 140 116 L140 586 Q140 614 135 622.5 Q130 631 104 636 L50 645 L50 700 L360 700 L360 645 L300 635 Q279 631 274 621 Q269 611 269 585 L269 112 Q269 87 274 78 Q279 69 301 65 L360 55 L360 0 L50 0 L50 55 Z " />
<glyph glyph-name="J" unicode="J" horiz-adv-x="565" d="M233 -14 Q196 -14 162 -5.5 Q128 3 102.5 19.5 Q77 36 62 60.5 Q47 85 47 116 Q47 151 68 176.5 Q89 202 126 202 Q160 202 176 187 Q192 172 192 152 Q192 138 186 123.5 Q180 109 160 77 Q168 69 188 61 Q208 53 235 53 Q291 53 309.5 89.5 Q328 126 328 192 L328 588 Q328 611 322.5 621 Q317 631 295 635 L229 645 L229 700 L538 700 L538 645 L486 634 Q465 630 461 619 Q457 608 457 585 L457 206 Q457 167 446 128 Q435 89 409 57.5 Q383 26 340 6 Q297 -14 233 -14 Z " />
<glyph glyph-name="K" unicode="K" horiz-adv-x="768" d="M654 -14 Q609 -14 569 5.5 Q529 25 494 82 L346 319 L273 245 L273 112 Q273 89 276 79 Q279 69 301 65 L360 55 L360 0 L54 0 L54 55 L113 65 Q135 69 139.5 79.5 Q144 90 144 113 L144 588 Q144 611 139.5 621 Q135 631 112 635 L54 645 L54 700 L364 700 L364 645 L302 634 Q281 631 277 619 Q273 607 273 584 L273 340 L517 588 Q534 607 528.5 620.5 Q523 634 506 636 L458 644 L468 700 L714 700 L714 643 L680 635 Q661 631 649 622 Q637 613 614 590 L434 406 L601 148 Q618 122 632 106 Q646 90 659.5 81.5 Q673 73 686.5 70.5 Q700 68 715 68 Q722 68 732 69.5 Q742 71 756 76 L768 27 Q751 11 721.5 -1.5 Q692 -14 654 -14 Z " />
<glyph glyph-name="L" unicode="L" horiz-adv-x="632" d="M54 55 L109 65 Q131 69 135.5 79.5 Q140 90 140 116 L140 588 Q140 611 135.5 620.5 Q131 630 108 635 L54 645 L54 700 L367 700 L367 644 L302 635 Q280 631 274.5 622 Q269 613 269 590 L269 64 L366 64 Q400 64 423.5 71.5 Q447 79 464.5 97.5 Q482 116 495.5 146.5 Q509 177 523 222 L591 222 L564 0 L54 0 L54 55 Z " />
<glyph glyph-name="M" unicode="M" horiz-adv-x="978" d="M50 55 L105 65 Q126 69 130 78.5 Q134 88 136 111 L166 587 Q167 610 161.5 620 Q156 630 134 634 L78 645 L78 700 L337 700 L489 242 L492 246 L656 700 L904 700 L904 645 L846 634 Q825 630 820.5 618 Q816 606 817 583 L846 112 Q848 89 852 79 Q856 69 878 65 L934 55 L934 0 L628 0 L628 55 L687 66 Q708 70 712.5 81 Q717 92 715 117 L690 578 L688 581 L516 113 L408 113 L246 577 L244 574 L218 113 Q217 90 222 79.5 Q227 69 249 65 L303 55 L303 0 L50 0 L50 55 Z " />
<glyph glyph-name="N" unicode="N" horiz-adv-x="818" d="M55 55 L111 65 Q132 69 136.5 79.5 Q141 90 141 115 L141 589 Q141 612 136 621.5 Q131 631 109 635 L55 645 L55 700 L287 700 L610 155 L611 158 L611 589 Q611 612 606.5 621.5 Q602 631 580 635 L526 645 L526 700 L779 700 L779 645 L724 635 Q702 631 697.5 619.5 Q693 608 693 585 L693 0 L560 0 L225 560 L223 557 L223 111 Q223 88 228 79 Q233 70 255 65 L308 55 L308 0 L55 0 L55 55 Z " />
<glyph glyph-name="O" unicode="O" horiz-adv-x="775" d="M386 -14 Q303 -14 240 12.5 Q177 39 135 86.5 Q93 134 72 198 Q51 262 51 337 Q51 437 79 508.5 Q107 580 154.5 625.5 Q202 671 264.5 692.5 Q327 714 396 714 Q464 714 523.5 692.5 Q583 671 627.5 627.5 Q672 584 697.5 519.5 Q723 455 723 368 Q723 283 699.5 213 Q676 143 632.5 92.5 Q589 42 526.5 14 Q464 -14 386 -14 Z M396 63 Q484 63 535 132.5 Q586 202 586 350 Q586 417 572 470.5 Q558 524 532 561 Q506 598 467.5 618 Q429 638 381 638 Q292 638 240 569.5 Q188 501 188 357 Q188 291 201 237 Q214 183 240.5 144 Q267 105 306 84 Q345 63 396 63 Z " />
<glyph glyph-name="P" unicode="P" horiz-adv-x="628" d="M55 55 L110 64 Q132 68 136.5 80 Q141 92 141 115 L141 589 Q141 612 136 622 Q131 632 108 636 L55 645 L55 700 L334 700 Q391 700 440 689.5 Q489 679 525.5 654.5 Q562 630 582.5 590.5 Q603 551 603 494 Q603 431 579.5 388 Q556 345 520 319 Q484 293 440 282 Q396 271 355 271 Q326 271 301.5 272.5 Q277 274 270 276 L270 112 Q270 87 276.5 76 Q283 65 307 62 L377 54 L377 0 L55 0 L55 55 Z M317 335 Q395 335 431 380.5 Q467 426 467 497 Q467 569 429.5 602.5 Q392 636 320 636 L270 636 L270 338 Q285 335 317 335 Z " />
<glyph glyph-name="Q" unicode="Q" horiz-adv-x="775" d="M705 -190 Q665 -190 634 -177 Q603 -164 577 -140 Q551 -116 527.5 -81.5 Q504 -47 480 -3 Q434 -14 389 -14 Q306 -14 243 12.5 Q180 39 138 86.5 Q96 134 75 198 Q54 262 54 337 Q54 437 82 508.5 Q110 580 157.5 625.5 Q205 671 267.5 692.5 Q330 714 399 714 Q467 714 526.5 692.5 Q586 671 630.5 627.5 Q675 584 700.5 519.5 Q726 455 726 368 Q726 258 687.5 173.5 Q649 89 579 41 Q602 9 620 -15 Q638 -39 656.5 -55 Q675 -71 696 -79 Q717 -87 744 -87 Q778 -87 806.5 -75.5 Q835 -64 870 -38 L896 -76 Q851 -133 806.5 -161.5 Q762 -190 705 -190 Z M526 118 Q556 153 572.5 210 Q589 267 589 350 Q589 417 575 470.5 Q561 524 535 561 Q509 598 470.5 618 Q432 638 384 638 Q295 638 243 569.5 Q191 501 191 357 Q191 316 196 280 Q201 244 210 213 Q242 238 271.5 248.5 Q301 259 330 259 Q361 259 387 249 Q413 239 436 220.5 Q459 202 481 176 Q503 150 526 118 Z M399 63 Q424 63 441 67 Q413 118 384.5 151 Q356 184 314 184 Q294 184 274.5 178 Q255 172 235 157 Q261 112 301.5 87.5 Q342 63 399 63 Z " />
<glyph glyph-name="R" unicode="R" horiz-adv-x="721" d="M596 -14 Q561 -14 537.5 -5.5 Q514 3 497 19 Q480 35 467.5 59.5 Q455 84 441 115 L392 229 Q382 253 373.5 269 Q365 285 354.5 295 Q344 305 330 309.5 Q316 314 295 314 Q287 314 281 313.5 Q275 313 269 312 L269 114 Q269 89 276 78 Q283 67 307 64 L367 56 L367 0 L54 0 L54 56 L110 65 Q132 69 136.5 81 Q141 93 141 116 L141 588 Q141 611 136 621 Q131 631 108 635 L54 644 L54 700 L351 700 Q403 700 448.5 691.5 Q494 683 527.5 663 Q561 643 580 609 Q599 575 599 525 Q599 482 580.5 449.5 Q562 417 534.5 395.5 Q507 374 476 361.5 Q445 349 420 344 L420 341 Q465 328 488.5 304.5 Q512 281 528 243 L562 163 Q582 117 598.5 89.5 Q615 62 649 62 Q660 62 671 63.5 Q682 65 696 70 L708 27 Q686 7 656 -3.5 Q626 -14 596 -14 Z M307 373 Q349 373 378.5 384 Q408 395 427 414 Q446 433 454.5 458.5 Q463 484 463 514 Q463 583 423.5 609.5 Q384 636 316 636 L270 636 L270 375 Q275 375 285.5 374 Q296 373 307 373 Z " />
<glyph glyph-name="S" unicode="S" horiz-adv-x="600" d="M318 -14 Q264 -14 216.5 4.5 Q169 23 140 47 L126 -6 L69 -6 L51 202 L119 210 Q146 140 193 101.5 Q240 63 305 63 Q338 63 361.5 71.5 Q385 80 399 94.5 Q413 109 419.5 128 Q426 147 426 167 Q426 196 414.5 216 Q403 236 383 250.5 Q363 265 335 276.5 Q307 288 275 298 Q232 312 195 328.5 Q158 345 130.5 369 Q103 393 87.5 427 Q72 461 72 511 Q72 548 85 584 Q98 620 125 649 Q152 678 194.5 696 Q237 714 296 714 Q349 714 386.5 698 Q424 682 447 663 L460 714 L515 714 L537 506 L470 495 Q443 578 400.5 610.5 Q358 643 304 643 Q256 643 225 617.5 Q194 592 194 543 Q194 515 206 496 Q218 477 238.5 462.5 Q259 448 287 436.5 Q315 425 347 413 Q385 399 421.5 383.5 Q458 368 487 345 Q516 322 534 288 Q552 254 552 202 Q552 156 535 116.5 Q518 77 487.5 48 Q457 19 414 2.5 Q371 -14 318 -14 Z " />
<glyph glyph-name="T" unicode="T" horiz-adv-x="732" d="M200 56 L268 67 Q290 70 295.5 82.5 Q301 95 301 118 L301 636 L264 636 Q227 636 202.5 630 Q178 624 160.5 607 Q143 590 129.5 560 Q116 530 100 481 L33 497 L72 700 L661 700 L700 499 L632 483 Q617 531 604 560.5 Q591 590 575 607 Q559 624 536 630 Q513 636 477 636 L430 636 L430 114 Q430 91 436 81 Q442 71 464 67 L531 56 L531 0 L200 0 L200 56 Z " />
<glyph glyph-name="U" unicode="U" horiz-adv-x="798" d="M403 -14 Q325 -14 272.5 6.5 Q220 27 188 63.5 Q156 100 142.5 150.5 Q129 201 129 262 L129 588 Q129 611 124 621 Q119 631 96 635 L41 644 L41 700 L345 700 L345 644 L288 635 Q267 631 262.5 619 Q258 607 258 584 L258 273 Q258 224 265 186 Q272 148 290 122.5 Q308 97 339.5 84 Q371 71 420 71 Q467 71 499 85 Q531 99 551 125.5 Q571 152 580 190 Q589 228 589 275 L589 588 Q589 611 584 621 Q579 631 556 635 L502 644 L502 700 L761 700 L761 644 L705 635 Q683 631 678.5 619 Q674 607 674 584 L674 279 Q674 128 603 57 Q532 -14 403 -14 Z " />
<glyph glyph-name="V" unicode="V" horiz-adv-x="727" d="M94 585 Q84 611 77.5 620.5 Q71 630 49 635 L9 643 L9 700 L308 700 L308 646 L253 639 Q233 636 228.5 625.5 Q224 615 234 589 L384 116 L389 116 L542 583 Q551 609 546 620 Q541 631 520 636 L470 647 L472 700 L720 700 L720 646 L671 638 Q653 634 645 623.5 Q637 613 626 584 L430 0 L296 0 L94 585 Z " />
<glyph glyph-name="W" unicode="W" horiz-adv-x="1086" d="M95 586 Q88 613 80 622.5 Q72 632 50 636 L10 643 L10 700 L303 700 L303 646 L252 639 Q232 637 227.5 627 Q223 617 229 590 L333 119 L337 119 L490 700 L625 700 L788 119 L793 119 L902 584 Q908 610 903.5 621 Q899 632 878 637 L829 647 L829 700 L1079 700 L1079 646 L1032 639 Q1014 637 1003.5 626 Q993 615 985 585 L838 0 L687 0 L533 555 L530 555 L386 0 L238 0 L95 586 Z " />
<glyph glyph-name="X" unicode="X" horiz-adv-x="735" d="M17 56 L53 63 Q76 68 88.5 76 Q101 84 121 108 L296 336 L108 593 Q91 616 78.5 623.5 Q66 631 45 636 L13 644 L24 700 L308 700 L308 644 L256 635 Q239 632 240 621.5 Q241 611 251 599 L373 430 L490 594 Q502 611 502 620 Q502 629 481 634 L434 647 L444 700 L693 700 L693 644 L653 636 Q634 632 621.5 626 Q609 620 589 595 L425 371 L618 107 Q635 84 650 76 Q665 68 687 64 L722 58 L722 0 L412 0 L412 56 L462 64 Q481 66 482 77 Q483 88 469 105 L346 272 L218 100 Q207 87 206.5 78 Q206 69 226 64 L278 53 L278 0 L17 0 L17 56 Z " />
<glyph glyph-name="Y" unicode="Y" horiz-adv-x="696" d="M187 55 L259 65 Q281 69 285.5 80 Q290 91 290 114 L290 275 L105 585 Q91 610 79 620.5 Q67 631 45 636 L10 643 L10 700 L312 700 L312 646 L263 639 Q243 637 236.5 625.5 Q230 614 244 589 L375 359 L380 359 L506 585 Q520 609 515 620 Q510 631 489 636 L439 647 L439 700 L686 700 L686 646 L650 638 Q632 635 620 622.5 Q608 610 592 583 L419 280 L419 112 Q419 89 424 79 Q429 69 451 65 L522 55 L522 0 L187 0 L187 55 Z " />
<glyph glyph-name="Z" unicode="Z" horiz-adv-x="659" d="M50 60 L441 637 L254 637 Q223 637 203 628 Q183 619 169 601.5 Q155 584 145 557 Q135 530 124 494 L59 489 L71 700 L592 700 L592 638 L204 64 L394 64 Q423 64 443.5 70.5 Q464 77 480.5 94 Q497 111 512 141 Q527 171 543 218 L604 218 L585 0 L50 0 L50 60 Z " />
<glyph glyph-name="bracketleft" unicode="&#x5b;" horiz-adv-x="342" d="M97 812 L305 812 L310 752 L235 746 Q218 744 213 737.5 Q208 731 208 705 L208 -107 Q208 -131 213.5 -137.5 Q219 -144 235 -146 L310 -152 L305 -212 L97 -212 L97 812 Z " />
<glyph glyph-name="backslash" unicode="&#x5c;" horiz-adv-x="459" d="M14 802 L103 802 L445 -110 L354 -110 L14 802 Z " />
<glyph glyph-name="bracketright" unicode="&#x5d;" horiz-adv-x="342" d="M32 -152 L107 -146 Q124 -144 129 -137.5 Q134 -131 134 -105 L134 707 Q134 731 129 737.5 Q124 744 108 746 L32 752 L37 812 L245 812 L245 -212 L37 -212 L32 -152 Z " />
<glyph glyph-name="asciicircum" unicode="&#x5e;" horiz-adv-x="582" d="M38 373 L260 712 L322 712 L544 373 L477 332 L291 610 L105 332 L38 373 Z " />
<glyph glyph-name="underscore" unicode="&#x5f;" horiz-adv-x="500" d="M15 -36 L485 -36 L485 -108 L15 -108 L15 -36 Z " />
<glyph glyph-name="grave" unicode="&#x60;" horiz-adv-x="500" d="M157 674 Q121 697 121 731 Q121 750 136 769.5 Q151 789 181 789 Q192 789 200 782.5 Q208 776 220 760 L334 611 L304 580 L157 674 Z " />
<glyph glyph-name="a" unicode="a" horiz-adv-x="550" d="M191 -14 Q163 -14 136 -6 Q109 2 88 18.5 Q67 35 54.5 61.5 Q42 88 42 125 Q42 194 88 230 Q134 266 212 277 Q242 281 268.5 283 Q295 285 325 287 L325 360 Q325 417 303.5 440 Q282 463 238 463 Q208 463 186 454.5 Q164 446 152 436 Q160 423 168.5 407 Q177 391 177 380 Q177 363 162 346 Q147 329 110 329 Q76 329 61 346 Q46 363 46 389 Q46 416 63 441 Q80 466 109 484.5 Q138 503 175.5 514 Q213 525 254 525 Q296 525 332 516.5 Q368 508 394 486 Q420 464 434.5 427 Q449 390 449 334 L449 109 Q449 78 467.5 68 Q486 58 534 72 L546 27 Q524 7 495.5 -3.5 Q467 -14 439 -14 Q398 -14 374 8 Q350 30 342 68 Q316 27 280 6.5 Q244 -14 191 -14 Z M240 68 Q255 68 270 72.5 Q285 77 297.5 87.5 Q310 98 317.5 115.5 Q325 133 325 159 L325 228 Q305 228 283.5 226 Q262 224 244 220 Q205 213 187.5 191 Q170 169 170 139 Q170 102 190 85 Q210 68 240 68 Z " />
<glyph glyph-name="b" unicode="b" horiz-adv-x="622" d="M98 -5 L98 638 Q98 667 92.5 677.5 Q87 688 59 694 L15 702 L22 760 L211 766 L222 755 L222 440 L224 437 Q247 472 284.5 498.5 Q322 525 384 525 Q473 525 526.5 462 Q580 399 580 274 Q580 134 515.5 60 Q451 -14 343 -14 Q294 -14 257 -0.5 Q220 13 192 33 L141 -14 L98 -5 Z M323 63 Q356 63 380 78 Q404 93 419.5 119.5 Q435 146 442.5 182.5 Q450 219 450 263 Q450 351 424 395 Q398 439 338 439 Q318 439 297 432.5 Q276 426 259.5 410.5 Q243 395 232.5 369 Q222 343 222 304 L222 98 Q241 82 266 72.5 Q291 63 323 63 Z " />
<glyph glyph-name="c" unicode="c" horiz-adv-x="516" d="M280 -14 Q222 -14 177 5.5 Q132 25 101.5 59.5 Q71 94 55 140.5 Q39 187 39 241 Q39 306 57.5 358.5 Q76 411 110.5 448 Q145 485 193 505 Q241 525 300 525 Q349 525 384.5 513 Q420 501 443.5 481.5 Q467 462 478 437.5 Q489 413 489 389 Q489 359 471 338.5 Q453 318 416 318 Q404 318 392 320.5 Q380 323 370.5 329 Q361 335 354.5 345 Q348 355 348 370 Q348 381 355 396 Q362 411 378 437 Q361 449 343 453.5 Q325 458 302 458 Q269 458 244.5 443.5 Q220 429 203.5 403.5 Q187 378 178.5 342 Q170 306 170 264 Q170 172 208.5 126 Q247 80 311 80 Q359 80 390.5 96 Q422 112 450 135 L489 92 Q455 50 403 18 Q351 -14 280 -14 Z " />
<glyph glyph-name="d" unicode="d" horiz-adv-x="629" d="M252 -14 Q150 -14 96.5 54 Q43 122 43 241 Q43 307 59.5 359.5 Q76 412 107.5 448.5 Q139 485 184 505 Q229 525 286 525 Q323 525 353.5 516 Q384 507 404 496 L404 639 Q404 668 398 678.5 Q392 689 363 694 L319 702 L326 760 L516 766 L527 755 L527 109 Q527 86 533 77 Q539 68 560 64 L608 56 L608 -1 L430 -8 L415 72 L412 72 Q392 39 354 12.5 Q316 -14 252 -14 Z M291 72 Q312 72 332 79 Q352 86 368 101.5 Q384 117 394 143 Q404 169 404 207 L404 416 Q379 433 350.5 440 Q322 447 299 447 Q232 447 202.5 396 Q173 345 173 251 Q173 170 200.5 121 Q228 72 291 72 Z " />
<glyph glyph-name="e" unicode="e" horiz-adv-x="525" d="M280 -14 Q219 -14 174 6.5 Q129 27 99 62 Q69 97 54 143.5 Q39 190 39 242 Q39 309 58 361.5 Q77 414 110.5 450.5 Q144 487 191 506 Q238 525 293 525 Q336 525 372 512.5 Q408 500 433.5 476 Q459 452 473 417.5 Q487 383 487 339 Q487 316 483.5 289.5 Q480 263 473 239 L170 239 Q172 164 209 121.5 Q246 79 311 79 Q359 79 393 96.5 Q427 114 453 137 L493 94 Q478 75 458 55.5 Q438 36 412 20.5 Q386 5 353 -4.5 Q320 -14 280 -14 Z M363 307 Q365 317 365.5 330 Q366 343 366 357 Q366 413 343.5 436 Q321 459 281 459 Q252 459 231.5 446.5 Q211 434 198 413 Q185 392 178.5 364.5 Q172 337 170 307 L363 307 Z " />
<glyph glyph-name="f" unicode="f" horiz-adv-x="403" d="M38 55 L86 64 Q108 68 112.5 78.5 Q117 89 117 114 L117 438 L37 438 L37 492 L117 508 L117 545 Q117 598 128.5 641.5 Q140 685 164.5 716.5 Q189 748 227 765 Q265 782 317 782 Q356 782 385.5 773 Q415 764 435 749 Q455 734 465 714 Q475 694 475 673 Q475 644 458 624.5 Q441 605 408 605 Q398 605 386.5 607 Q375 609 366 614.5 Q357 620 351 629 Q345 638 345 652 Q345 663 350.5 675.5 Q356 688 370 711 Q347 724 318 724 Q274 724 257.5 695.5 Q241 667 241 611 L241 511 L384 511 L384 438 L241 438 L241 110 Q241 89 246.5 78.5 Q252 68 274 65 L351 55 L351 0 L38 0 L38 55 Z " />
<glyph glyph-name="g" unicode="g" horiz-adv-x="589" d="M255 -229 Q185 -229 139 -219 Q93 -209 66 -191.5 Q39 -174 28 -151.5 Q17 -129 17 -104 Q17 -59 44.5 -32.5 Q72 -6 115 14 L115 16 Q80 27 66 50.5 Q52 74 52 95 Q52 121 67 145 Q82 169 115 201 L115 204 Q81 222 60.5 254 Q40 286 40 338 Q40 382 56.5 416.5 Q73 451 103 475 Q133 499 174 512 Q215 525 263 525 Q295 525 332 518 Q369 511 398 494 Q407 511 417.5 527 Q428 543 442 556.5 Q456 570 473.5 578 Q491 586 512 586 Q539 586 561 571 Q583 556 583 527 Q583 501 565 482 Q547 463 523 463 Q505 463 495.5 471 Q486 479 479 493 L470 514 Q459 500 452 486 Q445 472 440 460 Q457 440 470 412 Q483 384 483 345 Q483 305 467.5 272.5 Q452 240 422.5 216.5 Q393 193 351.5 180 Q310 167 258 167 Q237 167 214.5 170.5 Q192 174 175 179 Q164 168 156 156 Q148 144 148 131 Q148 105 167.5 98.5 Q187 92 222 92 L357 92 Q398 92 432 86 Q466 80 491.5 64.5 Q517 49 531 22.5 Q545 -4 545 -45 Q545 -84 528 -118 Q511 -152 475.5 -176.5 Q440 -201 385.5 -215 Q331 -229 255 -229 Z M265 230 Q308 230 332.5 259 Q357 288 357 341 Q357 401 331 432.5 Q305 464 260 464 Q233 464 214.5 454.5 Q196 445 185.5 429 Q175 413 170.5 391.5 Q166 370 166 346 Q166 291 192.5 260.5 Q219 230 265 230 Z M268 -157 Q345 -157 380 -130 Q415 -103 415 -68 Q415 -39 395.5 -27 Q376 -15 333 -15 L180 -15 Q162 -29 150.5 -45.5 Q139 -62 139 -85 Q139 -123 170.5 -140 Q202 -157 268 -157 Z " />
<glyph glyph-name="h" unicode="h" horiz-adv-x="663" d="M40 55 L87 64 Q107 68 110.5 79.5 Q114 91 114 112 L114 642 Q114 671 107 680.5 Q100 690 74 695 L29 702 L36 760 L226 766 L237 755 L237 441 L239 437 Q248 452 262.5 467.5 Q277 483 297 495.5 Q317 508 342.5 516.5 Q368 525 400 525 Q448 525 479.5 511 Q511 497 529 474 Q547 451 554.5 420 Q562 389 562 354 L562 104 Q562 84 567 75.5 Q572 67 593 63 L640 55 L640 0 L369 0 L369 54 L408 62 Q428 66 433 74.5 Q438 83 438 104 L438 314 Q438 341 435.5 363 Q433 385 424.5 400.5 Q416 416 399.5 425 Q383 434 354 434 Q306 434 271.5 402.5 Q237 371 237 301 L237 108 Q237 87 241 78 Q245 69 262 65 L309 54 L309 0 L40 0 L40 55 Z " />
<glyph glyph-name="i" unicode="i" horiz-adv-x="345" d="M165 616 Q127 616 104 637.5 Q81 659 81 695 Q81 730 104 752 Q127 774 165 774 Q205 774 227.5 752.5 Q250 731 250 695 Q250 660 226.5 638 Q203 616 165 616 Z M35 56 L89 65 Q110 68 114.5 78.5 Q119 89 119 112 L119 382 Q119 416 113.5 428 Q108 440 83 443 L36 450 L43 506 L231 517 L243 512 L243 111 Q243 88 248 79 Q253 70 273 65 L324 55 L324 0 L35 0 L35 56 Z " />
<glyph glyph-name="j" unicode="j" horiz-adv-x="311" d="M154 616 Q117 616 93 637 Q69 658 69 694 Q69 732 93 753 Q117 774 154 774 Q192 774 215.5 753.5 Q239 733 239 696 Q239 660 215.5 638 Q192 616 154 616 Z M21 -182 Q72 -142 90 -90.5 Q108 -39 108 34 L108 382 Q108 416 103 427.5 Q98 439 73 443 L25 450 L32 506 L220 517 L232 512 L232 95 Q232 27 221.5 -23.5 Q211 -74 189.5 -112 Q168 -150 136 -178 Q104 -206 61 -229 L21 -182 Z " />
<glyph glyph-name="k" unicode="k" horiz-adv-x="633" d="M643 29 Q622 9 593 -1.5 Q564 -12 538 -12 Q493 -12 462.5 5.5 Q432 23 398 67 L241 268 L241 110 Q241 87 245.5 77 Q250 67 268 63 L301 55 L301 0 L37 0 L37 55 L86 64 Q107 68 112 78 Q117 88 117 111 L117 639 Q117 668 110.5 678.5 Q104 689 77 694 L32 702 L39 760 L230 766 L241 755 L241 287 L383 413 Q397 426 396 434.5 Q395 443 384 446 L338 457 L348 511 L587 511 L587 456 L558 450 Q540 445 528 439 Q516 433 499 419 L357 300 L511 117 Q533 91 550 78.5 Q567 66 591 66 Q611 66 630 74 L643 29 Z " />
<glyph glyph-name="l" unicode="l" horiz-adv-x="342" d="M36 56 L85 64 Q106 68 111 78 Q116 88 116 111 L116 639 Q116 668 109.5 678.5 Q103 689 76 694 L31 702 L38 760 L229 766 L240 755 L240 110 Q240 87 244.5 78 Q249 69 269 65 L318 55 L318 0 L36 0 L36 56 Z " />
<glyph glyph-name="m" unicode="m" horiz-adv-x="957" d="M42 55 L90 64 Q110 68 113 79.5 Q116 91 116 112 L116 382 Q116 416 110.5 428 Q105 440 82 444 L33 451 L40 507 L210 518 L222 511 L229 422 L232 422 Q242 440 256.5 458.5 Q271 477 290.5 491.5 Q310 506 335.5 515.5 Q361 525 393 525 Q458 525 491.5 496.5 Q525 468 537 423 Q546 442 561 460.5 Q576 479 596.5 493 Q617 507 643 516 Q669 525 700 525 Q749 525 779.5 509.5 Q810 494 827 469.5 Q844 445 850 414.5 Q856 384 856 354 L856 104 Q856 84 861 75.5 Q866 67 887 63 L934 55 L934 0 L670 0 L670 54 L706 63 Q723 67 727.5 74.5 Q732 82 732 105 L732 314 Q732 341 729.5 363 Q727 385 719 400.5 Q711 416 695.5 425 Q680 434 654 434 Q636 434 617 427.5 Q598 421 582.5 406.5 Q567 392 557.5 368.5 Q548 345 548 311 L548 107 Q548 85 552 76.5 Q556 68 573 63 L612 53 L612 0 L362 0 L362 53 L398 62 Q415 66 419.5 74 Q424 82 424 102 L424 314 Q424 341 421.5 363 Q419 385 411.5 400.5 Q404 416 389 425 Q374 434 348 434 Q326 434 306.5 426.5 Q287 419 272 403.5 Q257 388 248.5 362.5 Q240 337 240 301 L240 108 Q240 85 244.5 77 Q249 69 266 64 L304 54 L304 0 L42 0 L42 55 Z " />
<glyph glyph-name="n" unicode="n" horiz-adv-x="666" d="M42 55 L90 64 Q110 68 113 79.5 Q116 91 116 112 L116 382 Q116 416 110.5 428 Q105 440 82 444 L33 451 L40 507 L210 518 L222 511 L229 422 L232 422 Q242 440 256.5 458 Q271 476 291 491 Q311 506 338 515.5 Q365 525 401 525 Q450 525 482 511 Q514 497 532.5 474 Q551 451 558 420 Q565 389 565 354 L565 104 Q565 84 570 75.5 Q575 67 596 63 L643 55 L643 0 L372 0 L372 54 L411 62 Q431 66 436 74.5 Q441 83 441 104 L441 314 Q441 341 438.5 363 Q436 385 427.5 400.5 Q419 416 402 425 Q385 434 356 434 Q306 434 273 402.5 Q240 371 240 301 L240 108 Q240 87 244 78 Q248 69 265 65 L311 54 L311 0 L42 0 L42 55 Z " />
<glyph glyph-name="o" unicode="o" horiz-adv-x="591" d="M292 -14 Q229 -14 181.5 5.5 Q134 25 102.5 59 Q71 93 55 140 Q39 187 39 241 Q39 317 60.5 371 Q82 425 119 459 Q156 493 204 509 Q252 525 306 525 Q359 525 404.5 509 Q450 493 483 461 Q516 429 534.5 381 Q553 333 553 270 Q553 202 534 149 Q515 96 480.5 60 Q446 24 398 5 Q350 -14 292 -14 Z M306 58 Q420 58 420 246 Q420 352 386 403.5 Q352 455 290 455 Q235 455 203 413.5 Q171 372 171 275 Q171 172 204 115 Q237 58 306 58 Z " />
<glyph glyph-name="p" unicode="p" horiz-adv-x="632" d="M31 -162 L75 -154 Q92 -151 98 -141.5 Q104 -132 104 -112 L104 384 Q104 415 98.5 427.5 Q93 440 67 444 L21 451 L29 507 L198 518 L210 511 L217 425 L220 425 Q246 469 287.5 497 Q329 525 392 525 Q481 525 535 461.5 Q589 398 589 274 Q589 204 572 150 Q555 96 524.5 59.5 Q494 23 451 4.5 Q408 -14 356 -14 Q311 -14 278.5 -4 Q246 6 228 17 L228 -107 Q228 -131 235.5 -141 Q243 -151 261 -153 L322 -163 L322 -219 L31 -219 L31 -162 Z M331 65 Q398 65 428 118.5 Q458 172 458 260 Q458 348 431.5 392 Q405 436 346 436 Q325 436 304 430 Q283 424 266 409 Q249 394 238.5 368 Q228 342 228 303 L228 98 Q245 84 273.5 74.5 Q302 65 331 65 Z " />
<glyph glyph-name="q" unicode="q" horiz-adv-x="613" d="M309 -162 L371 -153 Q388 -151 396 -141 Q404 -131 404 -107 L404 57 L402 58 Q380 31 345.5 8.5 Q311 -14 252 -14 Q203 -14 164 3.5 Q125 21 98 54 Q71 87 57 133.5 Q43 180 43 238 Q43 307 61 360 Q79 413 111.5 450 Q144 487 188.5 506 Q233 525 286 525 Q323 525 357.5 514.5 Q392 504 434 478 L483 525 L527 515 L527 -111 Q527 -131 533 -141 Q539 -151 556 -154 L601 -161 L601 -219 L309 -219 L309 -162 Z M294 72 Q314 72 334 79.5 Q354 87 369.5 102.5 Q385 118 394.5 143.5 Q404 169 404 205 L404 415 Q381 430 353 438.5 Q325 447 299 447 Q232 447 202.5 395.5 Q173 344 173 250 Q173 167 201.5 119.5 Q230 72 294 72 Z " />
<glyph glyph-name="r" unicode="r" horiz-adv-x="504" d="M42 55 L90 64 Q109 68 112.5 79.5 Q116 91 116 112 L116 381 Q116 415 110.5 427 Q105 439 82 443 L33 450 L40 507 L208 518 L220 511 L228 424 L231 424 Q240 440 253 458 Q266 476 284 491 Q302 506 326.5 515.5 Q351 525 382 525 Q430 525 463 499.5 Q496 474 496 421 Q496 382 476.5 359.5 Q457 337 419 337 Q387 337 370.5 350.5 Q354 364 354 384 Q354 395 358 408.5 Q362 422 375 446 Q350 453 325.5 444 Q301 435 282 414 Q263 393 251.5 363 Q240 333 240 298 L240 110 Q240 89 243.5 79.5 Q247 70 265 67 L351 54 L351 0 L42 0 L42 55 Z " />
<glyph glyph-name="s" unicode="s" horiz-adv-x="469" d="M47 162 L114 166 Q126 133 141.5 111.5 Q157 90 175.5 77.5 Q194 65 213.5 60.5 Q233 56 252 56 Q289 56 311.5 75 Q334 94 334 128 Q334 157 313.5 171.5 Q293 186 261.5 196 Q230 206 194 214.5 Q158 223 126.5 240 Q95 257 74.5 286 Q54 315 54 365 Q54 399 66.5 428.5 Q79 458 103 479.5 Q127 501 161.5 513 Q196 525 240 525 Q272 525 303 516 Q334 507 352 493 L360 525 L412 525 L424 355 L357 360 Q343 412 311.5 437 Q280 462 239 462 Q201 462 181.5 445 Q162 428 162 400 Q162 372 182.5 357 Q203 342 234 332.5 Q265 323 301.5 314 Q338 305 369 287.5 Q400 270 420.5 239.5 Q441 209 441 157 Q441 124 429.5 93.5 Q418 63 394.5 39 Q371 15 335 0.5 Q299 -14 250 -14 Q205 -14 173.5 -3.5 Q142 7 124 19 L113 -14 L63 -14 L47 162 Z " />
<glyph glyph-name="t" unicode="t" horiz-adv-x="418" d="M252 -14 Q177 -14 141.5 25 Q106 64 106 136 L106 438 L30 438 L30 499 Q61 502 81.5 513 Q102 524 115.5 545 Q129 566 136 599 Q143 632 147 680 L215 687 L229 681 L229 511 L379 511 L379 438 L229 438 L229 153 Q229 115 242.5 93 Q256 71 294 71 Q321 71 342.5 80 Q364 89 384 103 L413 57 Q384 27 343 6.5 Q302 -14 252 -14 Z " />
<glyph glyph-name="u" unicode="u" horiz-adv-x="648" d="M259 -14 Q212 -14 181.5 0 Q151 14 133.5 37.5 Q116 61 109 91.5 Q102 122 102 155 L102 384 Q102 415 97 426.5 Q92 438 67 443 L21 451 L28 507 L214 518 L226 513 L226 195 Q226 170 227.5 148.5 Q229 127 236.5 111 Q244 95 260.5 86 Q277 77 306 77 Q354 77 387 109.5 Q420 142 420 212 L420 385 Q420 415 414.5 427.5 Q409 440 386 444 L344 451 L352 507 L532 518 L544 513 L544 115 Q544 91 548.5 80 Q553 69 576 65 L624 57 L624 0 L446 -7 L431 78 L428 78 Q415 60 399.5 43.5 Q384 27 364 14 Q344 1 318 -6.5 Q292 -14 259 -14 Z " />
<glyph glyph-name="v" unicode="v" horiz-adv-x="609" d="M90 393 Q80 419 73.5 429 Q67 439 46 444 L11 452 L21 511 L295 511 L295 455 L247 448 Q227 445 222.5 434.5 Q218 424 228 398 L328 109 L333 109 L435 393 Q444 419 439 430.5 Q434 442 412 447 L368 457 L378 511 L598 511 L598 456 L561 448 Q542 444 534 433.5 Q526 423 515 394 L364 0 L241 0 L90 393 Z " />
<glyph glyph-name="w" unicode="w" horiz-adv-x="881" d="M85 395 Q77 422 70.5 431.5 Q64 441 43 446 L8 454 L18 511 L291 511 L291 457 L243 450 Q223 447 219 437 Q215 427 221 400 L291 121 L296 121 L405 511 L539 511 L636 123 L641 123 L721 399 Q727 419 723 431 Q719 443 696 448 L657 457 L666 511 L873 511 L873 456 L836 448 Q816 443 808 433 Q800 423 792 394 L672 0 L547 0 L449 404 L445 404 L334 0 L210 0 L85 395 Z " />
<glyph glyph-name="x" unicode="x" horiz-adv-x="580" d="M7 55 L43 63 Q63 68 75 76.5 Q87 85 109 109 L223 248 L93 406 Q78 424 67.5 432.5 Q57 441 37 446 L1 454 L11 511 L285 511 L285 457 L250 450 Q230 447 230 435.5 Q230 424 244 407 L317 318 L380 401 Q397 422 396.5 433 Q396 444 374 449 L345 456 L355 511 L564 511 L564 456 L530 448 Q511 444 496 435 Q481 426 461 402 L356 270 L487 110 Q505 88 518 78 Q531 68 551 63 L585 56 L585 0 L298 0 L298 54 L336 60 Q372 67 342 103 L262 200 L190 108 Q177 91 175 79.5 Q173 68 195 62 L228 53 L228 0 L7 0 L7 55 Z " />
<glyph glyph-name="y" unicode="y" horiz-adv-x="593" d="M112 -229 Q83 -229 62.5 -222 Q42 -215 29 -203 Q16 -191 10 -176.5 Q4 -162 4 -147 Q4 -115 25 -93 Q46 -71 79 -71 Q99 -71 116.5 -80 Q134 -89 135 -115 Q135 -123 133.5 -137.5 Q132 -152 129 -169 Q165 -167 187 -137 Q209 -107 233 -53 L257 1 L93 396 Q82 421 75 431 Q68 441 47 446 L13 454 L23 511 L292 511 L292 457 L244 450 Q224 447 220 436 Q216 425 225 399 L321 152 L326 152 L424 392 Q433 417 428.5 429.5 Q424 442 402 447 L357 457 L367 511 L588 511 L588 456 L551 448 Q531 444 524 432.5 Q517 421 504 392 L320 -34 Q301 -79 281 -115.5 Q261 -152 237 -177 Q213 -202 183 -215.5 Q153 -229 112 -229 Z " />
<glyph glyph-name="z" unicode="z" horiz-adv-x="506" d="M33 57 L316 445 L222 445 Q193 445 175 440.5 Q157 436 144.5 423.5 Q132 411 123 389 Q114 367 103 333 L36 328 L48 511 L468 511 L468 458 L183 68 L284 68 Q317 68 337 72.5 Q357 77 370 90 Q383 103 393 127 Q403 151 417 190 L482 190 L468 0 L33 0 L33 57 Z " />
<glyph glyph-name="braceleft" unicode="&#x7b;" horiz-adv-x="363" d="M251 -228 Q187 -228 152 -194.5 Q117 -161 117 -104 Q117 -82 120 -46.5 Q123 -11 127 28.5 Q131 68 134 109 Q137 150 137 184 Q137 214 130 231.5 Q123 249 111 258 Q99 267 82.5 269.5 Q66 272 47 272 L47 339 Q67 339 83.5 342.5 Q100 346 112 356 Q124 366 130.5 384.5 Q137 403 137 433 Q137 462 134 497.5 Q131 533 127 569.5 Q123 606 120 640 Q117 674 117 699 Q117 756 151.5 788.5 Q186 821 249 821 Q268 821 291 819 Q314 817 328 812 L317 756 Q305 758 295.5 759.5 Q286 761 275 761 Q252 761 242.5 747 Q233 733 233 704 Q233 684 235.5 649 Q238 614 240.5 575.5 Q243 537 245.5 500 Q248 463 248 439 Q248 406 239.5 383.5 Q231 361 217 346 Q203 331 186 322 Q169 313 151 307 Q169 300 186.5 290 Q204 280 217.5 264.5 Q231 249 239.5 227 Q248 205 248 175 Q248 144 245.5 104 Q243 64 240.5 25 Q238 -14 235.5 -48.5 Q233 -83 233 -105 Q233 -143 246 -155 Q259 -167 281 -167 Q288 -167 298.5 -165.5 Q309 -164 323 -162 L334 -217 Q314 -223 292 -225.5 Q270 -228 251 -228 Z " />
<glyph glyph-name="bar" unicode="&#x7c;" horiz-adv-x="433" d="M173 802 L260 802 L260 -110 L173 -110 L173 802 Z " />
<glyph glyph-name="braceright" unicode="&#x7d;" horiz-adv-x="363" d="M111 -227 Q92 -227 70.5 -225 Q49 -223 29 -216 L40 -161 Q54 -164 64.5 -165 Q75 -166 82 -166 Q104 -166 117 -154.5 Q130 -143 130 -105 Q130 -83 127.5 -48 Q125 -13 122.5 26 Q120 65 117.5 104.5 Q115 144 115 175 Q115 206 123.5 228 Q132 250 145.5 265.5 Q159 281 176.5 291 Q194 301 212 308 Q194 314 176.5 323 Q159 332 145.5 347 Q132 362 123.5 384 Q115 406 115 439 Q115 463 117.5 500 Q120 537 122.5 576 Q125 615 127.5 650 Q130 685 130 705 Q130 761 87 761 Q66 761 46 757 L35 812 Q49 817 72 819.5 Q95 822 113 822 Q176 822 211 789.5 Q246 757 246 700 Q246 675 243 641 Q240 607 236 570.5 Q232 534 229 498.5 Q226 463 226 434 Q226 404 232.5 385.5 Q239 367 251 356.5 Q263 346 279.5 342.5 Q296 339 316 339 L316 273 Q297 273 280.5 270.5 Q264 268 252 259 Q240 250 233 232.5 Q226 215 226 184 Q226 150 229 109.5 Q232 69 236 29 Q240 -11 243 -46 Q246 -81 246 -103 Q246 -160 210.5 -193.5 Q175 -227 111 -227 Z " />
<glyph glyph-name="asciitilde" unicode="&#x7e;" horiz-adv-x="582" d="M68 249 Q88 316 111.5 342.5 Q135 369 173 369 Q197 369 230.5 362.5 Q264 356 299 348.5 Q334 341 366.5 334.5 Q399 328 420 328 Q436 328 447 339.5 Q458 351 472 377 L532 353 Q522 317 510 294 Q498 271 485 257.5 Q472 244 457 239 Q442 234 425 234 Q400 234 367 240.5 Q334 247 300 254.5 Q266 262 235 268 Q204 274 182 274 Q165 274 154 264.5 Q143 255 127 226 L68 249 Z " />
<glyph glyph-name="uni00A0" unicode="&#xa0;" horiz-adv-x="192" d="" />
<glyph glyph-name="exclamdown" unicode="&#xa1;" horiz-adv-x="340" d="M165 522 Q199 522 221 504 Q243 486 243 448 Q243 410 221 391 Q199 372 165 372 Q130 372 108 390.5 Q86 409 86 447 Q86 485 108 503.5 Q130 522 165 522 Z M199 266 Q199 206 205.5 147 Q212 88 220 34.5 Q228 -19 234.5 -63 Q241 -107 241 -135 Q241 -173 217.5 -190 Q194 -207 163 -207 Q128 -207 107.5 -189.5 Q87 -172 87 -137 Q87 -108 94 -63.5 Q101 -19 110 34.5 Q119 88 126 147.5 Q133 207 133 267 L133 317 L199 317 L199 266 Z " />
<glyph glyph-name="cent" unicode="&#xa2;" horiz-adv-x="500" d="M304 121 Q348 121 375.5 136 Q403 151 429 171 L466 129 Q452 111 434 93.5 Q416 76 392.5 62.5 Q369 49 340 40.5 Q311 32 276 32 Q268 32 259.5 32.5 Q251 33 243 34 L227 -36 L144 -36 L164 55 Q111 79 79.5 130 Q48 181 48 260 Q48 311 62 355 Q76 399 104 431.5 Q132 464 172.5 484.5 Q213 505 265 509 L283 590 L367 590 L348 505 Q402 494 436.5 464.5 Q471 435 471 387 Q471 360 454 341.5 Q437 323 404 323 Q382 323 362 332.5 Q342 342 342 369 Q342 379 348.5 391.5 Q355 404 369 427 Q361 432 352 436 Q343 440 334 443 L263 126 Q273 124 283 122.5 Q293 121 304 121 Z M176 281 Q176 224 193 187 L249 438 Q211 422 193.5 381 Q176 340 176 281 Z " />
<glyph glyph-name="sterling" unicode="&#xa3;" horiz-adv-x="570" d="M42 60 Q105 83 133.5 121 Q162 159 162 215 Q162 240 154.5 265 Q147 290 134 313 L23 313 L32 382 L104 382 Q89 411 80 441 Q71 471 71 510 Q71 557 88.5 594.5 Q106 632 137.5 658.5 Q169 685 213.5 699.5 Q258 714 311 714 Q403 714 454.5 678 Q506 642 506 583 Q506 556 487 533.5 Q468 511 426 511 Q386 511 371 526.5 Q356 542 356 563 Q356 574 362.5 590 Q369 606 384 632 Q367 641 345.5 645 Q324 649 309 649 Q250 649 226.5 615 Q203 581 203 530 Q203 482 217 448 Q231 414 247 382 L450 382 L450 313 L274 313 Q281 296 285 279 Q289 262 289 247 Q289 206 268 168 Q247 130 209 98 L205 92 L340 92 Q367 92 385.5 95.5 Q404 99 417.5 110 Q431 121 442.5 140.5 Q454 160 467 192 L538 192 L512 0 L53 0 L42 60 Z " />
<glyph glyph-name="currency" unicode="&#xa4;" horiz-adv-x="539" d="M362 155 Q341 144 316.5 139 Q292 134 266 134 Q237 134 213 139 Q189 144 169 154 L85 87 L43 129 L106 210 Q80 252 80 313 Q80 373 106 415 L42 498 L84 540 L168 473 Q190 485 217 491.5 Q244 498 272 498 Q326 498 368 477 L452 542 L493 501 L431 421 Q443 401 449.5 377 Q456 353 456 322 Q456 255 427 211 L492 128 L451 86 L362 155 Z M266 196 Q312 196 333 227.5 Q354 259 354 318 Q354 379 331.5 406.5 Q309 434 270 434 Q229 434 205.5 405 Q182 376 182 316 Q182 258 204 227 Q226 196 266 196 Z " />
<glyph glyph-name="yen" unicode="&#xa5;" horiz-adv-x="595" d="M148 55 L210 64 Q226 66 231.5 75 Q237 84 237 101 L237 156 L76 156 L83 219 L237 219 L237 243 L218 272 L76 272 L83 335 L173 335 L90 453 Q76 474 65 482 Q54 490 40 493 L7 500 L7 558 L279 558 L279 502 L235 496 Q220 494 215 486 Q210 478 221 462 L319 320 L323 320 L419 457 Q430 472 425.5 481 Q421 490 407 493 L362 502 L362 558 L593 558 L593 504 L549 496 Q533 493 524 484.5 Q515 476 499 453 L417 335 L518 335 L518 272 L380 272 L363 246 L363 219 L518 219 L518 156 L363 156 L363 99 Q363 81 368 74.5 Q373 68 388 65 L451 54 L451 0 L148 0 L148 55 Z " />
<glyph glyph-name="brokenbar" unicode="&#xa6;" horiz-adv-x="433" d="M173 803 L259 803 L259 425 L173 425 L173 803 Z M173 295 L259 295 L259 -110 L173 -110 L173 295 Z " />
<glyph glyph-name="section" unicode="&#xa7;" horiz-adv-x="660" d="M288 -161 Q254 -161 224 -154.5 Q194 -148 172.5 -135 Q151 -122 138.5 -103 Q126 -84 126 -60 Q126 -47 131 -33 Q136 -19 146 -8 Q156 3 171.5 10.5 Q187 18 208 18 Q239 18 253 4.5 Q267 -9 267 -26 Q267 -36 261.5 -50 Q256 -64 240 -87 Q251 -93 265.5 -95 Q280 -97 296 -97 Q335 -97 360.5 -76.5 Q386 -56 386 -17 Q386 5 374.5 23 Q363 41 343.5 57.5 Q324 74 298.5 90 Q273 106 246 124 Q207 150 173 174 Q139 198 114 224 Q89 250 75 279.5 Q61 309 61 345 Q61 387 83 426 Q105 465 162 496 Q157 509 153 524.5 Q149 540 149 556 Q149 591 163.5 620.5 Q178 650 203 671.5 Q228 693 262.5 705 Q297 717 336 717 Q368 717 396 710.5 Q424 704 446 691.5 Q468 679 480.5 660.5 Q493 642 493 618 Q493 591 474 567 Q455 543 415 543 Q382 543 367.5 555.5 Q353 568 353 585 Q353 595 358.5 609 Q364 623 377 644 Q366 650 353.5 652 Q341 654 332 654 Q296 654 275.5 634.5 Q255 615 255 579 Q255 552 269 530 Q283 508 305.5 488.5 Q328 469 355.5 452 Q383 435 411 418 Q447 395 478 374 Q509 353 531 329.5 Q553 306 565.5 278 Q578 250 578 212 Q578 172 553.5 130 Q529 88 478 59 Q483 47 486.5 31.5 Q490 16 490 0 Q490 -35 475.5 -64.5 Q461 -94 434 -115.5 Q407 -137 370 -149 Q333 -161 288 -161 Z M443 115 Q460 129 466.5 149 Q473 169 473 186 Q473 208 461.5 226.5 Q450 245 429.5 263 Q409 281 382 298 Q355 315 325 334 Q286 359 251.5 386 Q217 413 194 441 Q164 412 164 377 Q164 354 176 334.5 Q188 315 208.5 296 Q229 277 256 259 Q283 241 313 221 Q354 194 387.5 167.5 Q421 141 443 115 Z " />
<glyph glyph-name="dieresis" unicode="&#xa8;" horiz-adv-x="500" d="M142 616 Q109 616 88.5 635 Q68 654 68 686 Q68 717 88.5 737 Q109 757 142 757 Q178 757 198 737.5 Q218 718 218 687 Q218 655 197 635.5 Q176 616 142 616 Z M356 616 Q323 616 302 635 Q281 654 281 686 Q281 717 302 737 Q323 757 356 757 Q392 757 412 737.5 Q432 718 432 687 Q432 655 410.5 635.5 Q389 616 356 616 Z " />
<glyph glyph-name="copyright" unicode="&#xa9;" horiz-adv-x="815" d="M407 -12 Q320 -12 254.5 13 Q189 38 146 82 Q103 126 81.5 186 Q60 246 60 316 Q60 396 88 459 Q116 522 163.5 566 Q211 610 274.5 633 Q338 656 409 656 Q488 656 552 633 Q616 610 661 568 Q706 526 730.5 466 Q755 406 755 332 Q755 255 730.5 191.5 Q706 128 660.5 83 Q615 38 550.5 13 Q486 -12 407 -12 Z M408 49 Q470 49 520.5 69 Q571 89 606.5 125.5 Q642 162 661.5 213 Q681 264 681 326 Q681 389 662 439 Q643 489 607.5 524 Q572 559 521.5 578 Q471 597 409 597 Q351 597 300.5 577.5 Q250 558 213 522 Q176 486 155 434 Q134 382 134 317 Q134 259 151.5 209.5 Q169 160 203.5 124.5 Q238 89 289.5 69 Q341 49 408 49 Z M418 110 Q369 110 331.5 126 Q294 142 268.5 170 Q243 198 229.5 234.5 Q216 271 216 313 Q216 363 231 401.5 Q246 440 271.5 466.5 Q297 493 331.5 507 Q366 521 405 521 Q440 521 464 509.5 Q488 498 500 487 L506 524 L546 524 L569 386 L518 377 Q491 470 417 470 Q369 470 342.5 431.5 Q316 393 316 321 Q316 250 347.5 211 Q379 172 429 172 Q467 172 494 189.5 Q521 207 541 231 L578 196 Q566 180 551 164.5 Q536 149 516.5 137 Q497 125 472.5 117.5 Q448 110 418 110 Z " />
<glyph glyph-name="ordfeminine" unicode="&#xaa;" horiz-adv-x="434" d="M154 362 Q131 362 110 367.5 Q89 373 73 385 Q57 397 47.5 415.5 Q38 434 38 460 Q38 509 71.5 535 Q105 561 171 570 Q194 573 211.5 574.5 Q229 576 252 578 L252 621 Q252 659 237.5 676.5 Q223 694 188 694 Q150 694 130 680 Q138 669 143.5 658.5 Q149 648 149 640 Q149 628 136 614 Q123 600 93 600 Q67 600 55 613.5 Q43 627 43 646 Q43 666 56 684 Q69 702 91 715.5 Q113 729 142.5 736.5 Q172 744 205 744 Q241 744 268.5 737.5 Q296 731 315.5 714.5 Q335 698 345 671.5 Q355 645 355 604 L355 454 Q355 425 381 425 Q395 425 419 435 L430 395 Q413 381 393.5 371.5 Q374 362 345 362 Q313 362 292.5 378 Q272 394 269 420 Q232 362 154 362 Z M191 425 Q213 425 232.5 439 Q252 453 252 488 L252 528 Q230 528 210 525.5 Q190 523 175 516.5 Q160 510 151 498.5 Q142 487 142 468 Q142 447 156 436 Q170 425 191 425 Z " />
<glyph glyph-name="guillemotleft" unicode="&#xab;" horiz-adv-x="515" d="M66 213 Q41 238 41 265 Q41 280 48 292.5 Q55 305 72 320 L233 478 L275 447 L162 267 L275 82 L234 51 L66 213 Z M266 213 Q240 238 240 265 Q240 280 247.5 292.5 Q255 305 272 320 L433 478 L474 447 L362 267 L475 82 L434 51 L266 213 Z " />
<glyph glyph-name="logicalnot" unicode="&#xac;" horiz-adv-x="582" d="M413 294 L63 294 L63 376 L505 376 L505 146 L413 146 L413 294 Z " />
<glyph glyph-name="uni00AD" unicode="&#xad;" horiz-adv-x="356" d="M36 329 L321 329 L321 238 L36 238 L36 329 Z " />
<glyph glyph-name="registered" unicode="&#xae;" horiz-adv-x="488" d="M244 397 Q197 397 161.5 411 Q126 425 102 449 Q78 473 66 506.5 Q54 540 54 579 Q54 623 69 658 Q84 693 110 718 Q136 743 170.5 756 Q205 769 245 769 Q333 769 383.5 719 Q434 669 434 586 Q434 544 420 509 Q406 474 380.5 449.5 Q355 425 320.5 411 Q286 397 244 397 Z M326 464 Q347 464 361 475 L359 491 Q355 490 352 489.5 Q349 489 345 489 Q336 489 331 497 Q326 505 321 517 L311 542 Q305 557 296.5 567 Q288 577 269 582 L269 583 Q278 585 288.5 589 Q299 593 308 600.5 Q317 608 323 618.5 Q329 629 329 644 Q329 678 304.5 690 Q280 702 245 702 L147 702 L146 684 L163 681 Q171 680 173 676.5 Q175 673 175 665 L175 507 Q175 499 173 495.5 Q171 492 163 490 L146 487 L146 469 L250 469 L250 487 L232 490 Q224 491 222 495 Q220 499 220 507 L220 574 L227 574 Q241 574 247.5 566.5 Q254 559 261 541 L276 506 Q284 486 293.5 475 Q303 464 326 464 Z M220 681 L233 681 Q256 681 269 672 Q282 663 282 640 Q282 620 271 607 Q260 594 231 594 L220 594 L220 681 Z " />
<glyph glyph-name="macron" unicode="&#xaf;" horiz-adv-x="500" d="M101 715 L399 715 L399 630 L101 630 L101 715 Z " />
<glyph glyph-name="degree" unicode="&#xb0;" horiz-adv-x="349" d="M174 546 Q106 546 74.5 580 Q43 614 43 663 Q43 688 51.5 710.5 Q60 733 76.5 750 Q93 767 118.5 777 Q144 787 177 787 Q241 787 273.5 754.5 Q306 722 306 669 Q306 618 272.5 582 Q239 546 174 546 Z M175 602 Q200 602 217.5 618.5 Q235 635 235 667 Q235 702 217.5 716.5 Q200 731 175 731 Q149 731 133.5 714 Q118 697 118 666 Q118 635 133 618.5 Q148 602 175 602 Z " />
<glyph glyph-name="plusminus" unicode="&#xb1;" horiz-adv-x="582" d="M244 304 L70 304 L70 386 L244 386 L244 541 L336 541 L336 386 L512 386 L512 304 L336 304 L336 141 L244 141 L244 304 Z M70 83 L512 83 L512 0 L70 0 L70 83 Z " />
<glyph glyph-name="uni00B2" unicode="&#xb2;" horiz-adv-x="402" d="M25 424 Q95 489 138 531.5 Q181 574 205 604.5 Q229 635 237.5 658 Q246 681 246 706 Q246 740 226 761.5 Q206 783 168 783 Q128 783 108 764 Q122 743 126 733.5 Q130 724 130 717 Q130 703 117.5 689.5 Q105 676 75 676 Q43 676 30 692.5 Q17 709 17 730 Q17 753 29.5 773 Q42 793 65.5 807.5 Q89 822 121 830 Q153 838 192 838 Q272 838 316 804.5 Q360 771 360 714 Q360 687 351 662.5 Q342 638 317.5 608.5 Q293 579 250.5 541.5 Q208 504 141 451 L236 451 Q255 451 266.5 453.5 Q278 456 286.5 464 Q295 472 301.5 486 Q308 500 317 524 L372 524 L358 374 L31 374 L25 424 Z " />
<glyph glyph-name="uni00B3" unicode="&#xb3;" horiz-adv-x="417" d="M192 362 Q155 362 126 370 Q97 378 75.5 391 Q54 404 39 419 Q24 434 15 449 L60 491 Q82 468 112.5 451.5 Q143 435 180 435 Q221 435 241.5 453.5 Q262 472 262 506 Q262 546 232 564 Q202 582 137 576 L141 628 Q202 633 227 657.5 Q252 682 252 717 Q252 747 234.5 766 Q217 785 182 785 Q164 785 148.5 779 Q133 773 124 763 Q135 746 139 738 Q143 730 143 725 Q143 709 130.5 695 Q118 681 87 681 Q55 681 41 697.5 Q27 714 27 737 Q27 757 39 775 Q51 793 72.5 807 Q94 821 125.5 829.5 Q157 838 196 838 Q274 838 317 807 Q360 776 360 724 Q360 685 332.5 657 Q305 629 259 616 L259 613 Q313 605 345 578 Q377 551 377 500 Q377 468 362 442.5 Q347 417 322 399 Q297 381 263.5 371.5 Q230 362 192 362 Z " />
<glyph glyph-name="acute" unicode="&#xb4;" horiz-adv-x="500" d="M167 611 L282 760 Q294 776 302 782.5 Q310 789 321 789 Q350 789 365.5 769.5 Q381 750 381 731 Q381 696 345 675 L196 580 L167 611 Z " />
<glyph glyph-name="uni00B5" unicode="&#xb5;" horiz-adv-x="622" d="M83 -226 Q80 -193 78 -153 Q76 -117 74.5 -72 Q73 -27 73 27 Q73 45 72.5 75.5 Q72 106 71.5 143.5 Q71 181 70.5 222.5 Q70 264 70 305 Q68 400 66 510 L193 519 L205 514 Q203 490 196.5 384.5 Q190 279 190 102 Q202 89 226.5 83 Q251 77 273 77 Q324 77 356 111.5 Q388 146 388 212 Q388 217 388 232 Q388 247 387.5 268.5 Q387 290 386.5 316.5 Q386 343 386 370 Q385 433 384 510 L510 519 L522 514 Q519 466 512.5 379 Q506 292 506 183 Q506 125 513.5 98 Q521 71 557 71 Q567 71 576 73 Q585 75 596 79 L610 27 Q595 13 568.5 -0.5 Q542 -14 507 -14 Q479 -14 460.5 -6 Q442 2 430 15.5 Q418 29 411.5 45.5 Q405 62 400 80 L398 80 Q375 33 346 9.5 Q317 -14 273 -14 Q249 -14 227 -5 Q205 4 194 16 L192 16 Q193 -26 197.5 -66 Q202 -106 207 -138 Q212 -175 219 -208 L95 -231 L83 -226 Z " />
<glyph glyph-name="paragraph" unicode="&#xb6;" horiz-adv-x="614" d="M285 239 Q179 239 117.5 299 Q56 359 56 467 Q56 574 114 637 Q172 700 289 700 L313 700 L313 239 L285 239 Z M258 -88 L341 -80 Q371 -79 371 -40 L371 700 L566 700 L566 645 L513 639 Q496 637 489.5 626.5 Q483 616 483 595 L483 -144 L258 -144 L258 -88 Z " />
<glyph glyph-name="periodcentered" unicode="&#xb7;" horiz-adv-x="309" d="M157 229 Q121 229 98 248.5 Q75 268 75 307 Q75 347 98 367 Q121 387 157 387 Q194 387 217.5 367.5 Q241 348 241 309 Q241 269 217.5 249 Q194 229 157 229 Z " />
<glyph glyph-name="cedilla" unicode="&#xb8;" horiz-adv-x="500" d="M241 -235 Q222 -235 204.5 -230.5 Q187 -226 172.5 -220 Q158 -214 147.5 -207 Q137 -200 132 -195 L154 -150 Q171 -160 189.5 -165 Q208 -170 225 -170 Q243 -170 256.5 -160.5 Q270 -151 270 -131 Q270 -93 223 -93 Q213 -93 204 -94 Q195 -95 188 -97 L179 -73 L213 13 L274 13 L251 -50 Q302 -44 333.5 -67.5 Q365 -91 365 -134 Q365 -182 331.5 -208.5 Q298 -235 241 -235 Z " />
<glyph glyph-name="uni00B9" unicode="&#xb9;" horiz-adv-x="325" d="M26 424 L92 435 Q106 437 110 443 Q114 449 114 463 L114 724 Q114 742 110 749 Q106 756 90 758 L23 764 L28 811 L209 835 L223 824 L223 462 Q223 448 227 442.5 Q231 437 245 435 L309 424 L309 374 L26 374 L26 424 Z " />
<glyph glyph-name="ordmasculine" unicode="&#xba;" horiz-adv-x="439" d="M216 362 Q171 362 137.5 375.5 Q104 389 81 413.5 Q58 438 46.5 471.5 Q35 505 35 544 Q35 598 50.5 636 Q66 674 92.5 698 Q119 722 153.5 733 Q188 744 227 744 Q306 744 355 698.5 Q404 653 404 562 Q404 513 390 476 Q376 439 351 413.5 Q326 388 291.5 375 Q257 362 216 362 Z M225 417 Q297 417 297 546 Q297 613 276.5 651 Q256 689 216 689 Q180 689 160.5 660 Q141 631 141 565 Q141 493 162 455 Q183 417 225 417 Z " />
<glyph glyph-name="guillemotright" unicode="&#xbb;" horiz-adv-x="516" d="M40 84 L154 264 L43 448 L86 480 L250 316 Q263 303 269.5 291 Q276 279 276 265 Q276 250 268.5 237.5 Q261 225 245 209 L83 51 L40 84 Z M240 84 L354 264 L243 448 L286 480 L450 316 Q463 303 469.5 291 Q476 279 476 265 Q476 250 468.5 237.5 Q461 225 444 209 L283 51 L240 84 Z " />
<glyph glyph-name="onequarter" unicode="&#xbc;" horiz-adv-x="972" d="M614 714 L702 714 L310 -14 L222 -14 L614 714 Z M34 302 L100 313 Q114 315 118 321 Q122 327 122 341 L122 602 Q122 620 118 627 Q114 634 98 636 L31 642 L36 689 L217 713 L231 702 L231 340 Q231 326 235 320.5 Q239 315 253 313 L317 302 L317 252 L34 252 L34 302 Z M592 55 Q662 120 705 162.5 Q748 205 772 235.5 Q796 266 804.5 289 Q813 312 813 337 Q813 371 793 392.5 Q773 414 735 414 Q695 414 675 395 Q689 374 693 364.5 Q697 355 697 348 Q697 334 684.5 320.5 Q672 307 642 307 Q610 307 597 323.5 Q584 340 584 361 Q584 384 596.5 404 Q609 424 632.5 438.5 Q656 453 688 461 Q720 469 759 469 Q839 469 883 435.5 Q927 402 927 345 Q927 318 918 293.5 Q909 269 884.5 239.5 Q860 210 817.5 172.5 Q775 135 708 82 L803 82 Q822 82 833.5 84.5 Q845 87 853.5 95 Q862 103 868.5 117 Q875 131 884 155 L939 155 L925 5 L598 5 L592 55 Z " />
<glyph glyph-name="onehalf" unicode="&#xbd;" horiz-adv-x="960" d="M623 714 L711 714 L319 -14 L231 -14 L623 714 Z M34 302 L100 313 Q114 315 118 321 Q122 327 122 341 L122 602 Q122 620 118 627 Q114 634 98 636 L31 642 L36 689 L217 713 L231 702 L231 340 Q231 326 235 320.5 Q239 315 253 313 L317 302 L317 252 L34 252 L34 302 Z M740 79 L528 79 L518 135 L730 451 L831 464 L846 451 L846 145 L916 145 L916 79 L846 79 L846 0 L740 0 L740 79 Z M740 145 L740 359 L738 363 L594 145 L740 145 Z " />
<glyph glyph-name="threequarters" unicode="&#xbe;" horiz-adv-x="980" d="M196 238 Q159 238 130 246 Q101 254 79.5 267 Q58 280 43 295 Q28 310 19 325 L64 367 Q86 344 116.5 327.5 Q147 311 184 311 Q225 311 245.5 329.5 Q266 348 266 382 Q266 422 236 440 Q206 458 141 452 L145 504 Q206 509 231 533.5 Q256 558 256 593 Q256 623 238.5 642 Q221 661 186 661 Q168 661 152.5 655 Q137 649 128 639 Q139 622 143 614 Q147 606 147 601 Q147 585 134.5 571 Q122 557 91 557 Q59 557 45 573.5 Q31 590 31 613 Q31 633 43 651 Q55 669 76.5 683 Q98 697 129.5 705.5 Q161 714 200 714 Q278 714 321 683 Q364 652 364 600 Q364 561 336.5 533 Q309 505 263 492 L263 489 Q317 481 349 454 Q381 427 381 376 Q381 344 366 318.5 Q351 293 326 275 Q301 257 267.5 247.5 Q234 238 196 238 Z M642 714 L730 714 L338 -14 L250 -14 L642 714 Z M758 79 L546 79 L536 135 L748 451 L849 464 L864 451 L864 145 L934 145 L934 79 L864 79 L864 0 L758 0 L758 79 Z M758 145 L758 359 L756 363 L612 145 L758 145 Z " />
<glyph glyph-name="questiondown" unicode="&#xbf;" horiz-adv-x="531" d="M329 526 Q363 526 385 508 Q407 490 407 452 Q407 414 385 395 Q363 376 329 376 Q294 376 272 394.5 Q250 413 250 451 Q250 489 272 507.5 Q294 526 329 526 Z M362 191 Q362 170 357.5 153.5 Q353 137 344.5 123 Q336 109 323.5 95.5 Q311 82 295 66 Q269 41 247 15 Q225 -11 225 -50 Q225 -93 252 -114.5 Q279 -136 323 -136 Q354 -136 376.5 -126.5 Q399 -117 413 -104 Q403 -90 393 -75 Q383 -60 383 -47 Q383 -28 400 -10 Q417 8 448 8 Q483 8 498.5 -11.5 Q514 -31 514 -57 Q514 -86 498 -112.5 Q482 -139 454 -159 Q426 -179 388 -191 Q350 -203 306 -203 Q212 -203 159.5 -160 Q107 -117 107 -39 Q107 -8 117.5 18.5 Q128 45 144.5 68 Q161 91 182 111.5 Q203 132 224 152 Q263 189 280.5 211.5 Q298 234 298 260 L298 321 L362 321 L362 191 Z " />
<glyph glyph-name="Agrave" unicode="&#xc0;" horiz-adv-x="738" d="M290 817 Q266 827 254.5 840 Q243 853 243 878 Q243 898 257 916.5 Q271 935 294 935 Q311 935 336 913 L474 789 L450 751 L290 817 Z M13 55 L61 63 Q79 67 87 78 Q95 89 105 117 L314 700 L434 700 L641 115 Q650 90 657 79 Q664 68 685 64 L725 56 L725 0 L432 0 L432 55 L483 62 Q503 65 506.5 76 Q510 87 502 112 L466 221 L226 221 L191 116 Q183 92 187.5 80 Q192 68 214 63 L263 55 L263 0 L13 0 L13 55 Z M446 285 L351 577 L347 577 L247 285 L446 285 Z " />
<glyph glyph-name="Aacute" unicode="&#xc1;" horiz-adv-x="738" d="M274 789 L412 913 Q437 935 454 935 Q477 935 491 916.5 Q505 898 505 878 Q505 853 493.5 840 Q482 827 458 817 L298 751 L274 789 Z M13 55 L61 63 Q79 67 87 78 Q95 89 105 117 L314 700 L434 700 L641 115 Q650 90 657 79 Q664 68 685 64 L725 56 L725 0 L432 0 L432 55 L483 62 Q503 65 506.5 76 Q510 87 502 112 L466 221 L226 221 L191 116 Q183 92 187.5 80 Q192 68 214 63 L263 55 L263 0 L13 0 L13 55 Z M446 285 L351 577 L347 577 L247 285 L446 285 Z " />
<glyph glyph-name="Acircumflex" unicode="&#xc2;" horiz-adv-x="738" d="M201 782 L326 919 Q339 933 349.5 940 Q360 947 374 947 Q387 947 398 941 Q409 935 426 915 L547 783 L518 746 L374 831 L230 746 L201 782 Z M13 55 L61 63 Q79 67 87 78 Q95 89 105 117 L314 700 L434 700 L641 115 Q650 90 657 79 Q664 68 685 64 L725 56 L725 0 L432 0 L432 55 L483 62 Q503 65 506.5 76 Q510 87 502 112 L466 221 L226 221 L191 116 Q183 92 187.5 80 Q192 68 214 63 L263 55 L263 0 L13 0 L13 55 Z M446 285 L351 577 L347 577 L247 285 L446 285 Z " />
<glyph glyph-name="Atilde" unicode="&#xc3;" horiz-adv-x="738" d="M449 771 Q433 771 413.5 775.5 Q394 780 365 793 Q322 812 302.5 818.5 Q283 825 272 825 Q261 825 252.5 818 Q244 811 229 788 L192 814 Q220 874 242.5 895 Q265 916 294 916 Q311 916 331.5 910 Q352 904 385 890 Q420 875 439 868 Q458 861 471 861 Q483 861 491 869 Q499 877 513 898 L550 874 Q524 815 501 793 Q478 771 449 771 Z M13 55 L61 63 Q79 67 87 78 Q95 89 105 117 L314 700 L434 700 L641 115 Q650 90 657 79 Q664 68 685 64 L725 56 L725 0 L432 0 L432 55 L483 62 Q503 65 506.5 76 Q510 87 502 112 L466 221 L226 221 L191 116 Q183 92 187.5 80 Q192 68 214 63 L263 55 L263 0 L13 0 L13 55 Z M446 285 L351 577 L347 577 L247 285 L446 285 Z " />
<glyph glyph-name="Adieresis" unicode="&#xc4;" horiz-adv-x="738" d="M265 771 Q232 771 211 790.5 Q190 810 190 842 Q190 873 211 893 Q232 913 265 913 Q302 913 322 893.5 Q342 874 342 842 Q342 810 321 790.5 Q300 771 265 771 Z M481 771 Q447 771 426 790.5 Q405 810 405 842 Q405 873 426 893 Q447 913 481 913 Q517 913 537 893.5 Q557 874 557 842 Q557 810 536 790.5 Q515 771 481 771 Z M13 55 L61 63 Q79 67 87 78 Q95 89 105 117 L314 700 L434 700 L641 115 Q650 90 657 79 Q664 68 685 64 L725 56 L725 0 L432 0 L432 55 L483 62 Q503 65 506.5 76 Q510 87 502 112 L466 221 L226 221 L191 116 Q183 92 187.5 80 Q192 68 214 63 L263 55 L263 0 L13 0 L13 55 Z M446 285 L351 577 L347 577 L247 285 L446 285 Z " />
<glyph glyph-name="Aring" unicode="&#xc5;" horiz-adv-x="738" d="M372 742 Q312 742 281 771.5 Q250 801 250 849 Q250 898 284 929 Q318 960 377 960 Q438 960 468.5 931 Q499 902 499 853 Q499 803 463.5 772.5 Q428 742 372 742 Z M374 793 Q398 793 409 809.5 Q420 826 420 853 Q420 880 408 895 Q396 910 373 910 Q349 910 338.5 894 Q328 878 328 853 Q328 824 339.5 808.5 Q351 793 374 793 Z M13 55 L61 63 Q79 67 87 78 Q95 89 105 117 L314 700 L434 700 L641 115 Q650 90 657 79 Q664 68 685 64 L725 56 L725 0 L432 0 L432 55 L483 62 Q503 65 506.5 76 Q510 87 502 112 L466 221 L226 221 L191 116 Q183 92 187.5 80 Q192 68 214 63 L263 55 L263 0 L13 0 L13 55 Z M446 285 L351 577 L347 577 L247 285 L446 285 Z " />
<glyph glyph-name="AE" unicode="&#xc6;" horiz-adv-x="1011" d="M13 55 L61 63 Q78 66 87.5 73.5 Q97 81 111 110 L370 636 L304 645 L304 700 L909 700 L947 534 L887 517 Q873 555 859.5 578.5 Q846 602 829 614.5 Q812 627 789 631.5 Q766 636 732 636 L638 636 L638 384 L703 384 Q734 384 750 386.5 Q766 389 774 397 Q782 405 786 421.5 Q790 438 796 466 L850 473 L850 244 L796 235 Q792 262 788.5 279 Q785 296 777.5 305 Q770 314 755.5 317 Q741 320 714 320 L638 320 L638 64 L761 64 Q797 64 821 68 Q845 72 860.5 85 Q876 98 887 122 Q898 146 908 186 L971 186 L947 0 L426 0 L426 55 L478 64 Q500 68 504.5 80 Q509 92 509 115 L509 320 L298 320 L200 117 Q189 93 190.5 80 Q192 67 217 63 L264 55 L264 0 L13 0 L13 55 Z M509 384 L510 636 L451 636 L329 384 L509 384 Z " />
<glyph glyph-name="Ccedilla" unicode="&#xc7;" horiz-adv-x="699" d="M388 -14 L375 -50 Q426 -44 457.5 -67.5 Q489 -91 489 -134 Q489 -182 455.5 -208.5 Q422 -235 365 -235 Q346 -235 328.5 -230.5 Q311 -226 296.5 -220 Q282 -214 271.5 -207 Q261 -200 256 -195 L278 -150 Q295 -160 313.5 -165 Q332 -170 349 -170 Q367 -170 380.5 -160.5 Q394 -151 394 -131 Q394 -93 347 -93 Q337 -93 328 -94 Q319 -95 312 -97 L303 -73 L328 -10 Q260 0 208.5 29.5 Q157 59 122 105.5 Q87 152 69 212.5 Q51 273 51 344 Q51 429 74.5 497.5 Q98 566 141 614 Q184 662 243.5 688 Q303 714 376 714 Q443 714 483.5 693.5 Q524 673 545 652 L555 716 L610 716 L649 482 L582 466 Q557 551 510.5 594 Q464 637 386 637 Q336 637 298.5 616.5 Q261 596 236.5 558.5 Q212 521 200 468.5 Q188 416 188 351 Q188 286 204 234 Q220 182 249 146 Q278 110 318.5 90.5 Q359 71 408 71 Q444 71 473 79.5 Q502 88 525.5 103 Q549 118 568.5 137.5 Q588 157 604 179 L660 135 Q643 110 618.5 83.5 Q594 57 561.5 35 Q529 13 486.5 -0.5 Q444 -14 391 -14 L388 -14 Z " />
<glyph glyph-name="Egrave" unicode="&#xc8;" horiz-adv-x="638" d="M239 817 Q215 827 203.5 840 Q192 853 192 878 Q192 898 206 916.5 Q220 935 243 935 Q260 935 285 913 L423 789 L399 751 L239 817 Z M54 55 L106 64 Q128 68 132.5 80 Q137 92 137 115 L137 589 Q137 612 132 622 Q127 632 104 636 L54 645 L54 700 L537 700 L574 534 L514 517 Q500 555 487 578.5 Q474 602 457 614.5 Q440 627 417 631.5 Q394 636 360 636 L266 636 L266 389 L331 389 Q362 389 378 391.5 Q394 394 402 402.5 Q410 411 414 427.5 Q418 444 424 472 L477 479 L477 248 L424 239 Q420 266 416.5 283 Q413 300 405 309 Q397 318 382.5 321 Q368 324 341 324 L266 324 L266 64 L388 64 Q424 64 448 68 Q472 72 487.5 85 Q503 98 514 122 Q525 146 535 186 L599 186 L575 0 L54 0 L54 55 Z " />
<glyph glyph-name="Eacute" unicode="&#xc9;" horiz-adv-x="638" d="M223 789 L361 913 Q386 935 403 935 Q426 935 440 916.5 Q454 898 454 878 Q454 853 442.5 840 Q431 827 407 817 L247 751 L223 789 Z M54 55 L106 64 Q128 68 132.5 80 Q137 92 137 115 L137 589 Q137 612 132 622 Q127 632 104 636 L54 645 L54 700 L537 700 L574 534 L514 517 Q500 555 487 578.5 Q474 602 457 614.5 Q440 627 417 631.5 Q394 636 360 636 L266 636 L266 389 L331 389 Q362 389 378 391.5 Q394 394 402 402.5 Q410 411 414 427.5 Q418 444 424 472 L477 479 L477 248 L424 239 Q420 266 416.5 283 Q413 300 405 309 Q397 318 382.5 321 Q368 324 341 324 L266 324 L266 64 L388 64 Q424 64 448 68 Q472 72 487.5 85 Q503 98 514 122 Q525 146 535 186 L599 186 L575 0 L54 0 L54 55 Z " />
<glyph glyph-name="Ecircumflex" unicode="&#xca;" horiz-adv-x="638" d="M150 782 L275 919 Q288 933 298.5 940 Q309 947 323 947 Q336 947 347 941 Q358 935 375 915 L496 783 L467 746 L323 831 L179 746 L150 782 Z M54 55 L106 64 Q128 68 132.5 80 Q137 92 137 115 L137 589 Q137 612 132 622 Q127 632 104 636 L54 645 L54 700 L537 700 L574 534 L514 517 Q500 555 487 578.5 Q474 602 457 614.5 Q440 627 417 631.5 Q394 636 360 636 L266 636 L266 389 L331 389 Q362 389 378 391.5 Q394 394 402 402.5 Q410 411 414 427.5 Q418 444 424 472 L477 479 L477 248 L424 239 Q420 266 416.5 283 Q413 300 405 309 Q397 318 382.5 321 Q368 324 341 324 L266 324 L266 64 L388 64 Q424 64 448 68 Q472 72 487.5 85 Q503 98 514 122 Q525 146 535 186 L599 186 L575 0 L54 0 L54 55 Z " />
<glyph glyph-name="Edieresis" unicode="&#xcb;" horiz-adv-x="638" d="M214 771 Q181 771 160 790.5 Q139 810 139 842 Q139 873 160 893 Q181 913 214 913 Q251 913 271 893.5 Q291 874 291 842 Q291 810 270 790.5 Q249 771 214 771 Z M430 771 Q396 771 375 790.5 Q354 810 354 842 Q354 873 375 893 Q396 913 430 913 Q466 913 486 893.5 Q506 874 506 842 Q506 810 485 790.5 Q464 771 430 771 Z M54 55 L106 64 Q128 68 132.5 80 Q137 92 137 115 L137 589 Q137 612 132 622 Q127 632 104 636 L54 645 L54 700 L537 700 L574 534 L514 517 Q500 555 487 578.5 Q474 602 457 614.5 Q440 627 417 631.5 Q394 636 360 636 L266 636 L266 389 L331 389 Q362 389 378 391.5 Q394 394 402 402.5 Q410 411 414 427.5 Q418 444 424 472 L477 479 L477 248 L424 239 Q420 266 416.5 283 Q413 300 405 309 Q397 318 382.5 321 Q368 324 341 324 L266 324 L266 64 L388 64 Q424 64 448 68 Q472 72 487.5 85 Q503 98 514 122 Q525 146 535 186 L599 186 L575 0 L54 0 L54 55 Z " />
<glyph glyph-name="Igrave" unicode="&#xcc;" horiz-adv-x="410" d="M120 817 Q96 827 84.5 840 Q73 853 73 878 Q73 898 87 916.5 Q101 935 124 935 Q141 935 166 913 L304 789 L280 751 L120 817 Z M50 55 L105 64 Q130 69 135 78.5 Q140 88 140 116 L140 586 Q140 614 135 622.5 Q130 631 104 636 L50 645 L50 700 L360 700 L360 645 L300 635 Q279 631 274 621 Q269 611 269 585 L269 112 Q269 87 274 78 Q279 69 301 65 L360 55 L360 0 L50 0 L50 55 Z " />
<glyph glyph-name="Iacute" unicode="&#xcd;" horiz-adv-x="410" d="M104 789 L242 913 Q267 935 284 935 Q307 935 321 916.5 Q335 898 335 878 Q335 853 323.5 840 Q312 827 288 817 L128 751 L104 789 Z M50 55 L105 64 Q130 69 135 78.5 Q140 88 140 116 L140 586 Q140 614 135 622.5 Q130 631 104 636 L50 645 L50 700 L360 700 L360 645 L300 635 Q279 631 274 621 Q269 611 269 585 L269 112 Q269 87 274 78 Q279 69 301 65 L360 55 L360 0 L50 0 L50 55 Z " />
<glyph glyph-name="Icircumflex" unicode="&#xce;" horiz-adv-x="410" d="M31 782 L156 919 Q169 933 179.5 940 Q190 947 204 947 Q217 947 228 941 Q239 935 256 915 L377 783 L348 746 L204 831 L60 746 L31 782 Z M50 55 L105 64 Q130 69 135 78.5 Q140 88 140 116 L140 586 Q140 614 135 622.5 Q130 631 104 636 L50 645 L50 700 L360 700 L360 645 L300 635 Q279 631 274 621 Q269 611 269 585 L269 112 Q269 87 274 78 Q279 69 301 65 L360 55 L360 0 L50 0 L50 55 Z " />
<glyph glyph-name="Idieresis" unicode="&#xcf;" horiz-adv-x="410" d="M95 771 Q62 771 41 790.5 Q20 810 20 842 Q20 873 41 893 Q62 913 95 913 Q132 913 152 893.5 Q172 874 172 842 Q172 810 151 790.5 Q130 771 95 771 Z M311 771 Q277 771 256 790.5 Q235 810 235 842 Q235 873 256 893 Q277 913 311 913 Q347 913 367 893.5 Q387 874 387 842 Q387 810 366 790.5 Q345 771 311 771 Z M50 55 L105 64 Q130 69 135 78.5 Q140 88 140 116 L140 586 Q140 614 135 622.5 Q130 631 104 636 L50 645 L50 700 L360 700 L360 645 L300 635 Q279 631 274 621 Q269 611 269 585 L269 112 Q269 87 274 78 Q279 69 301 65 L360 55 L360 0 L50 0 L50 55 Z " />
<glyph glyph-name="Eth" unicode="&#xd0;" horiz-adv-x="773" d="M361 700 Q441 700 507.5 681.5 Q574 663 621.5 624 Q669 585 695 523.5 Q721 462 721 376 Q721 292 698 223 Q675 154 626.5 104.5 Q578 55 502 27.5 Q426 0 319 0 L54 0 L54 55 L111 66 Q131 69 135.5 80.5 Q140 92 140 117 L140 325 L34 325 L43 397 L140 397 L140 587 Q140 610 136 620 Q132 630 109 634 L54 645 L54 700 L361 700 Z M335 65 Q408 65 456 88 Q504 111 532.5 151.5 Q561 192 573 248 Q585 304 585 371 Q585 432 570 481 Q555 530 523.5 564.5 Q492 599 443.5 617.5 Q395 636 327 636 L269 636 L269 397 L447 397 L447 325 L269 325 L269 70 Q279 68 299 66.5 Q319 65 335 65 Z " />
<glyph glyph-name="Ntilde" unicode="&#xd1;" horiz-adv-x="818" d="M490 771 Q474 771 454.5 775.5 Q435 780 406 793 Q363 812 343.5 818.5 Q324 825 313 825 Q302 825 293.5 818 Q285 811 270 788 L233 814 Q261 874 283.5 895 Q306 916 335 916 Q352 916 372.5 910 Q393 904 426 890 Q461 875 480 868 Q499 861 512 861 Q524 861 532 869 Q540 877 554 898 L591 874 Q565 815 542 793 Q519 771 490 771 Z M55 55 L111 65 Q132 69 136.5 79.5 Q141 90 141 115 L141 589 Q141 612 136 621.5 Q131 631 109 635 L55 645 L55 700 L287 700 L610 155 L611 158 L611 589 Q611 612 606.5 621.5 Q602 631 580 635 L526 645 L526 700 L779 700 L779 645 L724 635 Q702 631 697.5 619.5 Q693 608 693 585 L693 0 L560 0 L225 560 L223 557 L223 111 Q223 88 228 79 Q233 70 255 65 L308 55 L308 0 L55 0 L55 55 Z " />
<glyph glyph-name="Ograve" unicode="&#xd2;" horiz-adv-x="775" d="M306 817 Q282 827 270.5 840 Q259 853 259 878 Q259 898 273 916.5 Q287 935 310 935 Q327 935 352 913 L490 789 L466 751 L306 817 Z M386 -14 Q303 -14 240 12.5 Q177 39 135 86.5 Q93 134 72 198 Q51 262 51 337 Q51 437 79 508.5 Q107 580 154.5 625.5 Q202 671 264.5 692.5 Q327 714 396 714 Q464 714 523.5 692.5 Q583 671 627.5 627.5 Q672 584 697.5 519.5 Q723 455 723 368 Q723 283 699.5 213 Q676 143 632.5 92.5 Q589 42 526.5 14 Q464 -14 386 -14 Z M396 63 Q484 63 535 132.5 Q586 202 586 350 Q586 417 572 470.5 Q558 524 532 561 Q506 598 467.5 618 Q429 638 381 638 Q292 638 240 569.5 Q188 501 188 357 Q188 291 201 237 Q214 183 240.5 144 Q267 105 306 84 Q345 63 396 63 Z " />
<glyph glyph-name="Oacute" unicode="&#xd3;" horiz-adv-x="775" d="M290 789 L428 913 Q453 935 470 935 Q493 935 507 916.5 Q521 898 521 878 Q521 853 509.5 840 Q498 827 474 817 L314 751 L290 789 Z M386 -14 Q303 -14 240 12.5 Q177 39 135 86.5 Q93 134 72 198 Q51 262 51 337 Q51 437 79 508.5 Q107 580 154.5 625.5 Q202 671 264.5 692.5 Q327 714 396 714 Q464 714 523.5 692.5 Q583 671 627.5 627.5 Q672 584 697.5 519.5 Q723 455 723 368 Q723 283 699.5 213 Q676 143 632.5 92.5 Q589 42 526.5 14 Q464 -14 386 -14 Z M396 63 Q484 63 535 132.5 Q586 202 586 350 Q586 417 572 470.5 Q558 524 532 561 Q506 598 467.5 618 Q429 638 381 638 Q292 638 240 569.5 Q188 501 188 357 Q188 291 201 237 Q214 183 240.5 144 Q267 105 306 84 Q345 63 396 63 Z " />
<glyph glyph-name="Ocircumflex" unicode="&#xd4;" horiz-adv-x="775" d="M217 782 L342 919 Q355 933 365.5 940 Q376 947 390 947 Q403 947 414 941 Q425 935 442 915 L563 783 L534 746 L390 831 L246 746 L217 782 Z M386 -14 Q303 -14 240 12.5 Q177 39 135 86.5 Q93 134 72 198 Q51 262 51 337 Q51 437 79 508.5 Q107 580 154.5 625.5 Q202 671 264.5 692.5 Q327 714 396 714 Q464 714 523.5 692.5 Q583 671 627.5 627.5 Q672 584 697.5 519.5 Q723 455 723 368 Q723 283 699.5 213 Q676 143 632.5 92.5 Q589 42 526.5 14 Q464 -14 386 -14 Z M396 63 Q484 63 535 132.5 Q586 202 586 350 Q586 417 572 470.5 Q558 524 532 561 Q506 598 467.5 618 Q429 638 381 638 Q292 638 240 569.5 Q188 501 188 357 Q188 291 201 237 Q214 183 240.5 144 Q267 105 306 84 Q345 63 396 63 Z " />
<glyph glyph-name="Otilde" unicode="&#xd5;" horiz-adv-x="775" d="M465 771 Q449 771 429.5 775.5 Q410 780 381 793 Q338 812 318.5 818.5 Q299 825 288 825 Q277 825 268.5 818 Q260 811 245 788 L208 814 Q236 874 258.5 895 Q281 916 310 916 Q327 916 347.5 910 Q368 904 401 890 Q436 875 455 868 Q474 861 487 861 Q499 861 507 869 Q515 877 529 898 L566 874 Q540 815 517 793 Q494 771 465 771 Z M386 -14 Q303 -14 240 12.5 Q177 39 135 86.5 Q93 134 72 198 Q51 262 51 337 Q51 437 79 508.5 Q107 580 154.5 625.5 Q202 671 264.5 692.5 Q327 714 396 714 Q464 714 523.5 692.5 Q583 671 627.5 627.5 Q672 584 697.5 519.5 Q723 455 723 368 Q723 283 699.5 213 Q676 143 632.5 92.5 Q589 42 526.5 14 Q464 -14 386 -14 Z M396 63 Q484 63 535 132.5 Q586 202 586 350 Q586 417 572 470.5 Q558 524 532 561 Q506 598 467.5 618 Q429 638 381 638 Q292 638 240 569.5 Q188 501 188 357 Q188 291 201 237 Q214 183 240.5 144 Q267 105 306 84 Q345 63 396 63 Z " />
<glyph glyph-name="Odieresis" unicode="&#xd6;" horiz-adv-x="775" d="M281 771 Q248 771 227 790.5 Q206 810 206 842 Q206 873 227 893 Q248 913 281 913 Q318 913 338 893.5 Q358 874 358 842 Q358 810 337 790.5 Q316 771 281 771 Z M497 771 Q463 771 442 790.5 Q421 810 421 842 Q421 873 442 893 Q463 913 497 913 Q533 913 553 893.5 Q573 874 573 842 Q573 810 552 790.5 Q531 771 497 771 Z M386 -14 Q303 -14 240 12.5 Q177 39 135 86.5 Q93 134 72 198 Q51 262 51 337 Q51 437 79 508.5 Q107 580 154.5 625.5 Q202 671 264.5 692.5 Q327 714 396 714 Q464 714 523.5 692.5 Q583 671 627.5 627.5 Q672 584 697.5 519.5 Q723 455 723 368 Q723 283 699.5 213 Q676 143 632.5 92.5 Q589 42 526.5 14 Q464 -14 386 -14 Z M396 63 Q484 63 535 132.5 Q586 202 586 350 Q586 417 572 470.5 Q558 524 532 561 Q506 598 467.5 618 Q429 638 381 638 Q292 638 240 569.5 Q188 501 188 357 Q188 291 201 237 Q214 183 240.5 144 Q267 105 306 84 Q345 63 396 63 Z " />
<glyph glyph-name="multiply" unicode="&#xd7;" horiz-adv-x="582" d="M291 249 L149 108 L92 164 L233 307 L91 448 L152 504 L291 364 L435 510 L492 452 L347 306 L492 163 L433 105 L291 249 Z " />
<glyph glyph-name="Oslash" unicode="&#xd8;" horiz-adv-x="775" d="M644 610 Q681 567 702 506.5 Q723 446 723 368 Q723 283 699.5 213 Q676 143 632.5 92.5 Q589 42 526.5 14 Q464 -14 386 -14 Q321 -14 269 2.5 Q217 19 177 48 L125 -14 L30 -14 L124 99 Q88 146 69.5 206.5 Q51 267 51 337 Q51 437 79 508.5 Q107 580 154.5 625.5 Q202 671 264.5 692.5 Q327 714 396 714 Q508 714 590 658 L636 714 L731 714 L644 610 Z M188 357 Q188 270 211 204 L521 576 Q467 638 381 638 Q292 638 240 569.5 Q188 501 188 357 Z M586 350 Q586 442 560 508 L248 134 Q274 100 311 81.5 Q348 63 396 63 Q484 63 535 132.5 Q586 202 586 350 Z " />
<glyph glyph-name="Ugrave" unicode="&#xd9;" horiz-adv-x="798" d="M333 817 Q309 827 297.5 840 Q286 853 286 878 Q286 898 300 916.5 Q314 935 337 935 Q354 935 379 913 L517 789 L493 751 L333 817 Z M403 -14 Q325 -14 272.5 6.5 Q220 27 188 63.5 Q156 100 142.5 150.5 Q129 201 129 262 L129 588 Q129 611 124 621 Q119 631 96 635 L41 644 L41 700 L345 700 L345 644 L288 635 Q267 631 262.5 619 Q258 607 258 584 L258 273 Q258 224 265 186 Q272 148 290 122.5 Q308 97 339.5 84 Q371 71 420 71 Q467 71 499 85 Q531 99 551 125.5 Q571 152 580 190 Q589 228 589 275 L589 588 Q589 611 584 621 Q579 631 556 635 L502 644 L502 700 L761 700 L761 644 L705 635 Q683 631 678.5 619 Q674 607 674 584 L674 279 Q674 128 603 57 Q532 -14 403 -14 Z " />
<glyph glyph-name="Uacute" unicode="&#xda;" horiz-adv-x="798" d="M317 789 L455 913 Q480 935 497 935 Q520 935 534 916.5 Q548 898 548 878 Q548 853 536.5 840 Q525 827 501 817 L341 751 L317 789 Z M403 -14 Q325 -14 272.5 6.5 Q220 27 188 63.5 Q156 100 142.5 150.5 Q129 201 129 262 L129 588 Q129 611 124 621 Q119 631 96 635 L41 644 L41 700 L345 700 L345 644 L288 635 Q267 631 262.5 619 Q258 607 258 584 L258 273 Q258 224 265 186 Q272 148 290 122.5 Q308 97 339.5 84 Q371 71 420 71 Q467 71 499 85 Q531 99 551 125.5 Q571 152 580 190 Q589 228 589 275 L589 588 Q589 611 584 621 Q579 631 556 635 L502 644 L502 700 L761 700 L761 644 L705 635 Q683 631 678.5 619 Q674 607 674 584 L674 279 Q674 128 603 57 Q532 -14 403 -14 Z " />
<glyph glyph-name="Ucircumflex" unicode="&#xdb;" horiz-adv-x="798" d="M244 782 L369 919 Q382 933 392.5 940 Q403 947 417 947 Q430 947 441 941 Q452 935 469 915 L590 783 L561 746 L417 831 L273 746 L244 782 Z M403 -14 Q325 -14 272.5 6.5 Q220 27 188 63.5 Q156 100 142.5 150.5 Q129 201 129 262 L129 588 Q129 611 124 621 Q119 631 96 635 L41 644 L41 700 L345 700 L345 644 L288 635 Q267 631 262.5 619 Q258 607 258 584 L258 273 Q258 224 265 186 Q272 148 290 122.5 Q308 97 339.5 84 Q371 71 420 71 Q467 71 499 85 Q531 99 551 125.5 Q571 152 580 190 Q589 228 589 275 L589 588 Q589 611 584 621 Q579 631 556 635 L502 644 L502 700 L761 700 L761 644 L705 635 Q683 631 678.5 619 Q674 607 674 584 L674 279 Q674 128 603 57 Q532 -14 403 -14 Z " />
<glyph glyph-name="Udieresis" unicode="&#xdc;" horiz-adv-x="798" d="M308 771 Q275 771 254 790.5 Q233 810 233 842 Q233 873 254 893 Q275 913 308 913 Q345 913 365 893.5 Q385 874 385 842 Q385 810 364 790.5 Q343 771 308 771 Z M524 771 Q490 771 469 790.5 Q448 810 448 842 Q448 873 469 893 Q490 913 524 913 Q560 913 580 893.5 Q600 874 600 842 Q600 810 579 790.5 Q558 771 524 771 Z M403 -14 Q325 -14 272.5 6.5 Q220 27 188 63.5 Q156 100 142.5 150.5 Q129 201 129 262 L129 588 Q129 611 124 621 Q119 631 96 635 L41 644 L41 700 L345 700 L345 644 L288 635 Q267 631 262.5 619 Q258 607 258 584 L258 273 Q258 224 265 186 Q272 148 290 122.5 Q308 97 339.5 84 Q371 71 420 71 Q467 71 499 85 Q531 99 551 125.5 Q571 152 580 190 Q589 228 589 275 L589 588 Q589 611 584 621 Q579 631 556 635 L502 644 L502 700 L761 700 L761 644 L705 635 Q683 631 678.5 619 Q674 607 674 584 L674 279 Q674 128 603 57 Q532 -14 403 -14 Z " />
<glyph glyph-name="Yacute" unicode="&#xdd;" horiz-adv-x="696" d="M273 789 L411 913 Q436 935 453 935 Q476 935 490 916.5 Q504 898 504 878 Q504 853 492.5 840 Q481 827 457 817 L297 751 L273 789 Z M187 55 L259 65 Q281 69 285.5 80 Q290 91 290 114 L290 275 L105 585 Q91 610 79 620.5 Q67 631 45 636 L10 643 L10 700 L312 700 L312 646 L263 639 Q243 637 236.5 625.5 Q230 614 244 589 L375 359 L380 359 L506 585 Q520 609 515 620 Q510 631 489 636 L439 647 L439 700 L686 700 L686 646 L650 638 Q632 635 620 622.5 Q608 610 592 583 L419 280 L419 112 Q419 89 424 79 Q429 69 451 65 L522 55 L522 0 L187 0 L187 55 Z " />
<glyph glyph-name="Thorn" unicode="&#xde;" horiz-adv-x="618" d="M57 55 L111 64 Q135 69 140 78.5 Q145 88 145 116 L145 584 Q145 612 140 621.5 Q135 631 111 636 L57 645 L57 700 L370 700 L370 645 L308 635 Q285 632 279.5 622 Q274 612 274 585 L274 560 L338 560 Q395 560 444 551 Q493 542 529.5 520 Q566 498 586.5 461 Q607 424 607 367 Q607 304 583.5 261 Q560 218 523 191.5 Q486 165 440.5 153.5 Q395 142 351 142 Q334 142 312.5 142.5 Q291 143 274 144 L274 113 Q274 87 279.5 77.5 Q285 68 308 65 L370 55 L370 0 L57 0 L57 55 Z M274 207 Q284 207 295.5 206.5 Q307 206 321 206 Q400 206 435.5 249 Q471 292 471 363 Q471 433 433.5 464.5 Q396 496 324 496 L274 496 L274 207 Z " />
<glyph glyph-name="germandbls" unicode="&#xdf;" horiz-adv-x="707" d="M296 162 L362 166 Q382 108 417.5 82 Q453 56 493 56 Q526 56 550.5 74 Q575 92 575 132 Q575 159 558 176 Q541 193 516 206 Q491 219 461 232 Q431 245 406 262.5 Q381 280 364 305.5 Q347 331 347 371 Q347 413 364 442.5 Q381 472 402 500 Q423 528 440 559.5 Q457 591 457 636 Q457 663 449 679.5 Q441 696 427.5 705 Q414 714 396 717.5 Q378 721 358 721 Q307 721 273 689.5 Q239 658 239 587 L239 0 L29 0 L29 55 L86 64 Q108 68 112.5 80 Q117 92 117 115 L117 440 L37 440 L37 494 L117 510 L117 545 Q117 599 135 643 Q153 687 186 718 Q219 749 265.5 765.5 Q312 782 370 782 Q408 782 443 774.5 Q478 767 505 751 Q532 735 548 710 Q564 685 564 650 Q564 613 547 584.5 Q530 556 509.5 529.5 Q489 503 472 476 Q455 449 455 416 Q455 393 472 377 Q489 361 514 348 Q539 335 568.5 321 Q598 307 623 287 Q648 267 665 238 Q682 209 682 165 Q682 128 669 95 Q656 62 632 38 Q608 14 574 0 Q540 -14 498 -14 Q450 -14 421.5 -1.5 Q393 11 376 23 L365 -14 L312 -14 L296 162 Z " />
<glyph glyph-name="agrave" unicode="&#xe0;" horiz-adv-x="550" d="M160 674 Q124 697 124 731 Q124 750 139 769.5 Q154 789 184 789 Q195 789 203 782.5 Q211 776 223 760 L337 611 L307 580 L160 674 Z M191 -14 Q163 -14 136 -6 Q109 2 88 18.5 Q67 35 54.5 61.5 Q42 88 42 125 Q42 194 88 230 Q134 266 212 277 Q242 281 268.5 283 Q295 285 325 287 L325 360 Q325 417 303.5 440 Q282 463 238 463 Q208 463 186 454.5 Q164 446 152 436 Q160 423 168.5 407 Q177 391 177 380 Q177 363 162 346 Q147 329 110 329 Q76 329 61 346 Q46 363 46 389 Q46 416 63 441 Q80 466 109 484.5 Q138 503 175.5 514 Q213 525 254 525 Q296 525 332 516.5 Q368 508 394 486 Q420 464 434.5 427 Q449 390 449 334 L449 109 Q449 78 467.5 68 Q486 58 534 72 L546 27 Q524 7 495.5 -3.5 Q467 -14 439 -14 Q398 -14 374 8 Q350 30 342 68 Q316 27 280 6.5 Q244 -14 191 -14 Z M240 68 Q255 68 270 72.5 Q285 77 297.5 87.5 Q310 98 317.5 115.5 Q325 133 325 159 L325 228 Q305 228 283.5 226 Q262 224 244 220 Q205 213 187.5 191 Q170 169 170 139 Q170 102 190 85 Q210 68 240 68 Z " />
<glyph glyph-name="aacute" unicode="&#xe1;" horiz-adv-x="550" d="M170 611 L285 760 Q297 776 305 782.5 Q313 789 324 789 Q353 789 368.5 769.5 Q384 750 384 731 Q384 696 348 675 L199 580 L170 611 Z M191 -14 Q163 -14 136 -6 Q109 2 88 18.5 Q67 35 54.5 61.5 Q42 88 42 125 Q42 194 88 230 Q134 266 212 277 Q242 281 268.5 283 Q295 285 325 287 L325 360 Q325 417 303.5 440 Q282 463 238 463 Q208 463 186 454.5 Q164 446 152 436 Q160 423 168.5 407 Q177 391 177 380 Q177 363 162 346 Q147 329 110 329 Q76 329 61 346 Q46 363 46 389 Q46 416 63 441 Q80 466 109 484.5 Q138 503 175.5 514 Q213 525 254 525 Q296 525 332 516.5 Q368 508 394 486 Q420 464 434.5 427 Q449 390 449 334 L449 109 Q449 78 467.5 68 Q486 58 534 72 L546 27 Q524 7 495.5 -3.5 Q467 -14 439 -14 Q398 -14 374 8 Q350 30 342 68 Q316 27 280 6.5 Q244 -14 191 -14 Z M240 68 Q255 68 270 72.5 Q285 77 297.5 87.5 Q310 98 317.5 115.5 Q325 133 325 159 L325 228 Q305 228 283.5 226 Q262 224 244 220 Q205 213 187.5 191 Q170 169 170 139 Q170 102 190 85 Q210 68 240 68 Z " />
<glyph glyph-name="acircumflex" unicode="&#xe2;" horiz-adv-x="550" d="M84 612 L202 764 Q216 781 228 787 Q240 793 254 793 Q271 793 282 785 Q293 777 310 757 L422 613 L391 580 L254 679 L115 580 L84 612 Z M191 -14 Q163 -14 136 -6 Q109 2 88 18.5 Q67 35 54.5 61.5 Q42 88 42 125 Q42 194 88 230 Q134 266 212 277 Q242 281 268.5 283 Q295 285 325 287 L325 360 Q325 417 303.5 440 Q282 463 238 463 Q208 463 186 454.5 Q164 446 152 436 Q160 423 168.5 407 Q177 391 177 380 Q177 363 162 346 Q147 329 110 329 Q76 329 61 346 Q46 363 46 389 Q46 416 63 441 Q80 466 109 484.5 Q138 503 175.5 514 Q213 525 254 525 Q296 525 332 516.5 Q368 508 394 486 Q420 464 434.5 427 Q449 390 449 334 L449 109 Q449 78 467.5 68 Q486 58 534 72 L546 27 Q524 7 495.5 -3.5 Q467 -14 439 -14 Q398 -14 374 8 Q350 30 342 68 Q316 27 280 6.5 Q244 -14 191 -14 Z M240 68 Q255 68 270 72.5 Q285 77 297.5 87.5 Q310 98 317.5 115.5 Q325 133 325 159 L325 228 Q305 228 283.5 226 Q262 224 244 220 Q205 213 187.5 191 Q170 169 170 139 Q170 102 190 85 Q210 68 240 68 Z " />
<glyph glyph-name="atilde" unicode="&#xe3;" horiz-adv-x="550" d="M330 615 Q319 615 308.5 617 Q298 619 284.5 623 Q271 627 253.5 634 Q236 641 210 651 Q191 659 176.5 664 Q162 669 155 669 Q144 669 135.5 661.5 Q127 654 111 631 L75 657 Q89 687 101 707 Q113 727 125 738.5 Q137 750 149.5 754.5 Q162 759 177 759 Q194 759 214 753 Q234 747 266 733 Q301 718 320 711 Q339 704 352 704 Q364 704 372 712 Q380 720 394 741 L431 717 Q404 659 381.5 637 Q359 615 330 615 Z M191 -14 Q163 -14 136 -6 Q109 2 88 18.5 Q67 35 54.5 61.5 Q42 88 42 125 Q42 194 88 230 Q134 266 212 277 Q242 281 268.5 283 Q295 285 325 287 L325 360 Q325 417 303.5 440 Q282 463 238 463 Q208 463 186 454.5 Q164 446 152 436 Q160 423 168.5 407 Q177 391 177 380 Q177 363 162 346 Q147 329 110 329 Q76 329 61 346 Q46 363 46 389 Q46 416 63 441 Q80 466 109 484.5 Q138 503 175.5 514 Q213 525 254 525 Q296 525 332 516.5 Q368 508 394 486 Q420 464 434.5 427 Q449 390 449 334 L449 109 Q449 78 467.5 68 Q486 58 534 72 L546 27 Q524 7 495.5 -3.5 Q467 -14 439 -14 Q398 -14 374 8 Q350 30 342 68 Q316 27 280 6.5 Q244 -14 191 -14 Z M240 68 Q255 68 270 72.5 Q285 77 297.5 87.5 Q310 98 317.5 115.5 Q325 133 325 159 L325 228 Q305 228 283.5 226 Q262 224 244 220 Q205 213 187.5 191 Q170 169 170 139 Q170 102 190 85 Q210 68 240 68 Z " />
<glyph glyph-name="adieresis" unicode="&#xe4;" horiz-adv-x="550" d="M145 616 Q112 616 91.5 635 Q71 654 71 686 Q71 717 91.5 737 Q112 757 145 757 Q181 757 201 737.5 Q221 718 221 687 Q221 655 200 635.5 Q179 616 145 616 Z M359 616 Q326 616 305 635 Q284 654 284 686 Q284 717 305 737 Q326 757 359 757 Q395 757 415 737.5 Q435 718 435 687 Q435 655 413.5 635.5 Q392 616 359 616 Z M191 -14 Q163 -14 136 -6 Q109 2 88 18.5 Q67 35 54.5 61.5 Q42 88 42 125 Q42 194 88 230 Q134 266 212 277 Q242 281 268.5 283 Q295 285 325 287 L325 360 Q325 417 303.5 440 Q282 463 238 463 Q208 463 186 454.5 Q164 446 152 436 Q160 423 168.5 407 Q177 391 177 380 Q177 363 162 346 Q147 329 110 329 Q76 329 61 346 Q46 363 46 389 Q46 416 63 441 Q80 466 109 484.5 Q138 503 175.5 514 Q213 525 254 525 Q296 525 332 516.5 Q368 508 394 486 Q420 464 434.5 427 Q449 390 449 334 L449 109 Q449 78 467.5 68 Q486 58 534 72 L546 27 Q524 7 495.5 -3.5 Q467 -14 439 -14 Q398 -14 374 8 Q350 30 342 68 Q316 27 280 6.5 Q244 -14 191 -14 Z M240 68 Q255 68 270 72.5 Q285 77 297.5 87.5 Q310 98 317.5 115.5 Q325 133 325 159 L325 228 Q305 228 283.5 226 Q262 224 244 220 Q205 213 187.5 191 Q170 169 170 139 Q170 102 190 85 Q210 68 240 68 Z " />
<glyph glyph-name="aring" unicode="&#xe5;" horiz-adv-x="550" d="M251 582 Q192 582 161 611 Q130 640 130 688 Q130 737 164 768 Q198 799 256 799 Q317 799 347.5 770 Q378 741 378 692 Q378 642 342.5 612 Q307 582 251 582 Z M253 633 Q276 633 287 649 Q298 665 298 692 Q298 719 287 734 Q276 749 253 749 Q230 749 219 733 Q208 717 208 692 Q208 664 219 648.5 Q230 633 253 633 Z M191 -14 Q163 -14 136 -6 Q109 2 88 18.5 Q67 35 54.5 61.5 Q42 88 42 125 Q42 194 88 230 Q134 266 212 277 Q242 281 268.5 283 Q295 285 325 287 L325 360 Q325 417 303.5 440 Q282 463 238 463 Q208 463 186 454.5 Q164 446 152 436 Q160 423 168.5 407 Q177 391 177 380 Q177 363 162 346 Q147 329 110 329 Q76 329 61 346 Q46 363 46 389 Q46 416 63 441 Q80 466 109 484.5 Q138 503 175.5 514 Q213 525 254 525 Q296 525 332 516.5 Q368 508 394 486 Q420 464 434.5 427 Q449 390 449 334 L449 109 Q449 78 467.5 68 Q486 58 534 72 L546 27 Q524 7 495.5 -3.5 Q467 -14 439 -14 Q398 -14 374 8 Q350 30 342 68 Q316 27 280 6.5 Q244 -14 191 -14 Z M240 68 Q255 68 270 72.5 Q285 77 297.5 87.5 Q310 98 317.5 115.5 Q325 133 325 159 L325 228 Q305 228 283.5 226 Q262 224 244 220 Q205 213 187.5 191 Q170 169 170 139 Q170 102 190 85 Q210 68 240 68 Z " />
<glyph glyph-name="ae" unicode="&#xe6;" horiz-adv-x="806" d="M191 -14 Q163 -14 136 -6 Q109 2 88 18.5 Q67 35 54.5 61.5 Q42 88 42 125 Q42 194 88 230 Q134 266 212 277 Q242 281 268.5 283 Q295 285 325 287 L325 360 Q325 417 303.5 440 Q282 463 238 463 Q208 463 186 454.5 Q164 446 152 436 Q160 423 168.5 407 Q177 391 177 380 Q177 363 162 346 Q147 329 110 329 Q76 329 61 346 Q46 363 46 389 Q46 416 63 441 Q80 466 108 484.5 Q136 503 172.5 514 Q209 525 249 525 Q300 525 340.5 509.5 Q381 494 407 462 Q475 525 575 525 Q617 525 652 512.5 Q687 500 712.5 476 Q738 452 752 417.5 Q766 383 766 339 Q766 316 762.5 289.5 Q759 263 752 239 L449 239 Q451 164 488 121.5 Q525 79 591 79 Q639 79 672.5 96.5 Q706 114 732 137 L772 94 Q757 75 737 55.5 Q717 36 691 20.5 Q665 5 632.5 -4.5 Q600 -14 560 -14 Q494 -14 447.5 9.5 Q401 33 372 74 Q343 30 299.5 8 Q256 -14 191 -14 Z M642 307 Q644 317 644.5 330 Q645 343 645 357 Q645 413 622.5 436 Q600 459 562 459 Q532 459 511.5 446.5 Q491 434 477.5 413 Q464 392 457.5 364.5 Q451 337 449 307 L642 307 Z M240 68 Q255 68 270 72.5 Q285 77 297.5 88 Q310 99 317.5 116.5 Q325 134 325 160 L325 228 Q305 228 283.5 226 Q262 224 244 220 Q205 213 187.5 191 Q170 169 170 139 Q170 102 190 85 Q210 68 240 68 Z " />
<glyph glyph-name="ccedilla" unicode="&#xe7;" horiz-adv-x="516" d="M311 80 Q359 80 390.5 96 Q422 112 450 135 L489 92 Q455 50 403 18 Q351 -14 280 -14 L279 -14 L266 -50 Q317 -44 348.5 -67.5 Q380 -91 380 -134 Q380 -182 346.5 -208.5 Q313 -235 256 -235 Q237 -235 219.5 -230.5 Q202 -226 187.5 -220 Q173 -214 162.5 -207 Q152 -200 147 -195 L169 -150 Q186 -160 204.5 -165 Q223 -170 240 -170 Q258 -170 271.5 -160.5 Q285 -151 285 -131 Q285 -93 238 -93 Q228 -93 219 -94 Q210 -95 203 -97 L194 -73 L220 -8 Q176 2 142.5 24.5 Q109 47 86 80 Q63 113 51 154 Q39 195 39 241 Q39 306 57.5 358.5 Q76 411 110.5 448 Q145 485 193 505 Q241 525 300 525 Q349 525 384.5 513 Q420 501 443.5 481.5 Q467 462 478 437.5 Q489 413 489 389 Q489 359 471 338.5 Q453 318 416 318 Q404 318 392 320.5 Q380 323 370.5 329 Q361 335 354.5 345 Q348 355 348 370 Q348 381 355 396 Q362 411 378 437 Q361 449 343 453.5 Q325 458 302 458 Q269 458 244.5 443.5 Q220 429 203.5 403.5 Q187 378 178.5 342 Q170 306 170 264 Q170 172 208.5 126 Q247 80 311 80 Z " />
<glyph glyph-name="egrave" unicode="&#xe8;" horiz-adv-x="525" d="M187 674 Q151 697 151 731 Q151 750 166 769.5 Q181 789 211 789 Q222 789 230 782.5 Q238 776 250 760 L364 611 L334 580 L187 674 Z M280 -14 Q219 -14 174 6.5 Q129 27 99 62 Q69 97 54 143.5 Q39 190 39 242 Q39 309 58 361.5 Q77 414 110.5 450.5 Q144 487 191 506 Q238 525 293 525 Q336 525 372 512.5 Q408 500 433.5 476 Q459 452 473 417.5 Q487 383 487 339 Q487 316 483.5 289.5 Q480 263 473 239 L170 239 Q172 164 209 121.5 Q246 79 311 79 Q359 79 393 96.5 Q427 114 453 137 L493 94 Q478 75 458 55.5 Q438 36 412 20.5 Q386 5 353 -4.5 Q320 -14 280 -14 Z M363 307 Q365 317 365.5 330 Q366 343 366 357 Q366 413 343.5 436 Q321 459 281 459 Q252 459 231.5 446.5 Q211 434 198 413 Q185 392 178.5 364.5 Q172 337 170 307 L363 307 Z " />
<glyph glyph-name="eacute" unicode="&#xe9;" horiz-adv-x="525" d="M197 611 L312 760 Q324 776 332 782.5 Q340 789 351 789 Q380 789 395.5 769.5 Q411 750 411 731 Q411 696 375 675 L226 580 L197 611 Z M280 -14 Q219 -14 174 6.5 Q129 27 99 62 Q69 97 54 143.5 Q39 190 39 242 Q39 309 58 361.5 Q77 414 110.5 450.5 Q144 487 191 506 Q238 525 293 525 Q336 525 372 512.5 Q408 500 433.5 476 Q459 452 473 417.5 Q487 383 487 339 Q487 316 483.5 289.5 Q480 263 473 239 L170 239 Q172 164 209 121.5 Q246 79 311 79 Q359 79 393 96.5 Q427 114 453 137 L493 94 Q478 75 458 55.5 Q438 36 412 20.5 Q386 5 353 -4.5 Q320 -14 280 -14 Z M363 307 Q365 317 365.5 330 Q366 343 366 357 Q366 413 343.5 436 Q321 459 281 459 Q252 459 231.5 446.5 Q211 434 198 413 Q185 392 178.5 364.5 Q172 337 170 307 L363 307 Z " />
<glyph glyph-name="ecircumflex" unicode="&#xea;" horiz-adv-x="525" d="M111 612 L229 764 Q243 781 255 787 Q267 793 281 793 Q298 793 309 785 Q320 777 337 757 L449 613 L418 580 L281 679 L142 580 L111 612 Z M280 -14 Q219 -14 174 6.5 Q129 27 99 62 Q69 97 54 143.5 Q39 190 39 242 Q39 309 58 361.5 Q77 414 110.5 450.5 Q144 487 191 506 Q238 525 293 525 Q336 525 372 512.5 Q408 500 433.5 476 Q459 452 473 417.5 Q487 383 487 339 Q487 316 483.5 289.5 Q480 263 473 239 L170 239 Q172 164 209 121.5 Q246 79 311 79 Q359 79 393 96.5 Q427 114 453 137 L493 94 Q478 75 458 55.5 Q438 36 412 20.5 Q386 5 353 -4.5 Q320 -14 280 -14 Z M363 307 Q365 317 365.5 330 Q366 343 366 357 Q366 413 343.5 436 Q321 459 281 459 Q252 459 231.5 446.5 Q211 434 198 413 Q185 392 178.5 364.5 Q172 337 170 307 L363 307 Z " />
<glyph glyph-name="edieresis" unicode="&#xeb;" horiz-adv-x="525" d="M172 616 Q139 616 118.5 635 Q98 654 98 686 Q98 717 118.5 737 Q139 757 172 757 Q208 757 228 737.5 Q248 718 248 687 Q248 655 227 635.5 Q206 616 172 616 Z M386 616 Q353 616 332 635 Q311 654 311 686 Q311 717 332 737 Q353 757 386 757 Q422 757 442 737.5 Q462 718 462 687 Q462 655 440.5 635.5 Q419 616 386 616 Z M280 -14 Q219 -14 174 6.5 Q129 27 99 62 Q69 97 54 143.5 Q39 190 39 242 Q39 309 58 361.5 Q77 414 110.5 450.5 Q144 487 191 506 Q238 525 293 525 Q336 525 372 512.5 Q408 500 433.5 476 Q459 452 473 417.5 Q487 383 487 339 Q487 316 483.5 289.5 Q480 263 473 239 L170 239 Q172 164 209 121.5 Q246 79 311 79 Q359 79 393 96.5 Q427 114 453 137 L493 94 Q478 75 458 55.5 Q438 36 412 20.5 Q386 5 353 -4.5 Q320 -14 280 -14 Z M363 307 Q365 317 365.5 330 Q366 343 366 357 Q366 413 343.5 436 Q321 459 281 459 Q252 459 231.5 446.5 Q211 434 198 413 Q185 392 178.5 364.5 Q172 337 170 307 L363 307 Z " />
<glyph glyph-name="igrave" unicode="&#xec;" horiz-adv-x="345" d="M58 674 Q22 697 22 731 Q22 750 37 769.5 Q52 789 82 789 Q93 789 101 782.5 Q109 776 121 760 L235 611 L205 580 L58 674 Z M35 56 L89 65 Q110 68 114.5 78.5 Q119 89 119 112 L119 382 Q119 416 113.5 428 Q108 440 83 443 L36 450 L43 506 L231 517 L243 512 L243 111 Q243 88 248 79 Q253 70 273 65 L324 55 L324 0 L35 0 L35 56 Z " />
<glyph glyph-name="iacute" unicode="&#xed;" horiz-adv-x="345" d="M69 611 L184 760 Q196 776 204 782.5 Q212 789 223 789 Q252 789 267.5 769.5 Q283 750 283 731 Q283 696 247 675 L98 580 L69 611 Z M35 56 L89 65 Q110 68 114.5 78.5 Q119 89 119 112 L119 382 Q119 416 113.5 428 Q108 440 83 443 L36 450 L43 506 L231 517 L243 512 L243 111 Q243 88 248 79 Q253 70 273 65 L324 55 L324 0 L35 0 L35 56 Z " />
<glyph glyph-name="icircumflex" unicode="&#xee;" horiz-adv-x="345" d="M-18 612 L100 764 Q114 781 126 787 Q138 793 152 793 Q169 793 180 785 Q191 777 208 757 L320 613 L289 580 L152 679 L13 580 L-18 612 Z M35 56 L89 65 Q110 68 114.5 78.5 Q119 89 119 112 L119 382 Q119 416 113.5 428 Q108 440 83 443 L36 450 L43 506 L231 517 L243 512 L243 111 Q243 88 248 79 Q253 70 273 65 L324 55 L324 0 L35 0 L35 56 Z " />
<glyph glyph-name="idieresis" unicode="&#xef;" horiz-adv-x="345" d="M47 616 Q14 616 -6.5 635 Q-27 654 -27 686 Q-27 717 -6.5 737 Q14 757 47 757 Q83 757 103 737.5 Q123 718 123 687 Q123 655 102 635.5 Q81 616 47 616 Z M261 616 Q228 616 207 635 Q186 654 186 686 Q186 717 207 737 Q228 757 261 757 Q297 757 317 737.5 Q337 718 337 687 Q337 655 315.5 635.5 Q294 616 261 616 Z M35 56 L89 65 Q110 68 114.5 78.5 Q119 89 119 112 L119 382 Q119 416 113.5 428 Q108 440 83 443 L36 450 L43 506 L231 517 L243 512 L243 111 Q243 88 248 79 Q253 70 273 65 L324 55 L324 0 L35 0 L35 56 Z " />
<glyph glyph-name="eth" unicode="&#xf0;" horiz-adv-x="584" d="M278 -14 Q223 -14 179 3 Q135 20 104 53 Q73 86 56 133 Q39 180 39 240 Q39 308 59 356.5 Q79 405 111 436 Q143 467 183.5 481.5 Q224 496 265 496 Q311 496 347 479.5 Q383 463 413 429 L414 435 Q405 494 383 543.5 Q361 593 328 628 L233 558 L205 614 L277 666 Q247 686 208.5 699 Q170 712 123 719 L134 775 Q198 772 253.5 761 Q309 750 356 726 L464 806 L492 750 L411 690 Q478 634 510 544.5 Q542 455 542 349 Q542 264 526 196.5 Q510 129 477 82.5 Q444 36 394.5 11 Q345 -14 278 -14 Z M292 58 Q352 58 380.5 107.5 Q409 157 409 253 Q409 291 406 324.5 Q403 358 392 376 Q377 399 348 412.5 Q319 426 287 426 Q236 426 204 385.5 Q172 345 172 250 Q172 156 201.5 107 Q231 58 292 58 Z " />
<glyph glyph-name="ntilde" unicode="&#xf1;" horiz-adv-x="666" d="M415 615 Q404 615 393.5 617 Q383 619 369.5 623 Q356 627 338.5 634 Q321 641 295 651 Q276 659 261.5 664 Q247 669 240 669 Q229 669 220.5 661.5 Q212 654 196 631 L160 657 Q174 687 186 707 Q198 727 210 738.5 Q222 750 234.5 754.5 Q247 759 262 759 Q279 759 299 753 Q319 747 351 733 Q386 718 405 711 Q424 704 437 704 Q449 704 457 712 Q465 720 479 741 L516 717 Q489 659 466.5 637 Q444 615 415 615 Z M42 55 L90 64 Q110 68 113 79.5 Q116 91 116 112 L116 382 Q116 416 110.5 428 Q105 440 82 444 L33 451 L40 507 L210 518 L222 511 L229 422 L232 422 Q242 440 256.5 458 Q271 476 291 491 Q311 506 338 515.5 Q365 525 401 525 Q450 525 482 511 Q514 497 532.5 474 Q551 451 558 420 Q565 389 565 354 L565 104 Q565 84 570 75.5 Q575 67 596 63 L643 55 L643 0 L372 0 L372 54 L411 62 Q431 66 436 74.5 Q441 83 441 104 L441 314 Q441 341 438.5 363 Q436 385 427.5 400.5 Q419 416 402 425 Q385 434 356 434 Q306 434 273 402.5 Q240 371 240 301 L240 108 Q240 87 244 78 Q248 69 265 65 L311 54 L311 0 L42 0 L42 55 Z " />
<glyph glyph-name="ograve" unicode="&#xf2;" horiz-adv-x="591" d="M201 674 Q165 697 165 731 Q165 750 180 769.5 Q195 789 225 789 Q236 789 244 782.5 Q252 776 264 760 L378 611 L348 580 L201 674 Z M292 -14 Q229 -14 181.5 5.5 Q134 25 102.5 59 Q71 93 55 140 Q39 187 39 241 Q39 317 60.5 371 Q82 425 119 459 Q156 493 204 509 Q252 525 306 525 Q359 525 404.5 509 Q450 493 483 461 Q516 429 534.5 381 Q553 333 553 270 Q553 202 534 149 Q515 96 480.5 60 Q446 24 398 5 Q350 -14 292 -14 Z M306 58 Q420 58 420 246 Q420 352 386 403.5 Q352 455 290 455 Q235 455 203 413.5 Q171 372 171 275 Q171 172 204 115 Q237 58 306 58 Z " />
<glyph glyph-name="oacute" unicode="&#xf3;" horiz-adv-x="591" d="M210 611 L325 760 Q337 776 345 782.5 Q353 789 364 789 Q393 789 408.5 769.5 Q424 750 424 731 Q424 696 388 675 L239 580 L210 611 Z M292 -14 Q229 -14 181.5 5.5 Q134 25 102.5 59 Q71 93 55 140 Q39 187 39 241 Q39 317 60.5 371 Q82 425 119 459 Q156 493 204 509 Q252 525 306 525 Q359 525 404.5 509 Q450 493 483 461 Q516 429 534.5 381 Q553 333 553 270 Q553 202 534 149 Q515 96 480.5 60 Q446 24 398 5 Q350 -14 292 -14 Z M306 58 Q420 58 420 246 Q420 352 386 403.5 Q352 455 290 455 Q235 455 203 413.5 Q171 372 171 275 Q171 172 204 115 Q237 58 306 58 Z " />
<glyph glyph-name="ocircumflex" unicode="&#xf4;" horiz-adv-x="591" d="M125 612 L243 764 Q257 781 269 787 Q281 793 295 793 Q312 793 323 785 Q334 777 351 757 L463 613 L432 580 L295 679 L156 580 L125 612 Z M292 -14 Q229 -14 181.5 5.5 Q134 25 102.5 59 Q71 93 55 140 Q39 187 39 241 Q39 317 60.5 371 Q82 425 119 459 Q156 493 204 509 Q252 525 306 525 Q359 525 404.5 509 Q450 493 483 461 Q516 429 534.5 381 Q553 333 553 270 Q553 202 534 149 Q515 96 480.5 60 Q446 24 398 5 Q350 -14 292 -14 Z M306 58 Q420 58 420 246 Q420 352 386 403.5 Q352 455 290 455 Q235 455 203 413.5 Q171 372 171 275 Q171 172 204 115 Q237 58 306 58 Z " />
<glyph glyph-name="otilde" unicode="&#xf5;" horiz-adv-x="591" d="M371 615 Q360 615 349.5 617 Q339 619 325.5 623 Q312 627 294.5 634 Q277 641 251 651 Q232 659 217.5 664 Q203 669 196 669 Q185 669 176.5 661.5 Q168 654 152 631 L116 657 Q130 687 142 707 Q154 727 166 738.5 Q178 750 190.5 754.5 Q203 759 218 759 Q235 759 255 753 Q275 747 307 733 Q342 718 361 711 Q380 704 393 704 Q405 704 413 712 Q421 720 435 741 L472 717 Q445 659 422.5 637 Q400 615 371 615 Z M292 -14 Q229 -14 181.5 5.5 Q134 25 102.5 59 Q71 93 55 140 Q39 187 39 241 Q39 317 60.5 371 Q82 425 119 459 Q156 493 204 509 Q252 525 306 525 Q359 525 404.5 509 Q450 493 483 461 Q516 429 534.5 381 Q553 333 553 270 Q553 202 534 149 Q515 96 480.5 60 Q446 24 398 5 Q350 -14 292 -14 Z M306 58 Q420 58 420 246 Q420 352 386 403.5 Q352 455 290 455 Q235 455 203 413.5 Q171 372 171 275 Q171 172 204 115 Q237 58 306 58 Z " />
<glyph glyph-name="odieresis" unicode="&#xf6;" horiz-adv-x="591" d="M186 616 Q153 616 132.5 635 Q112 654 112 686 Q112 717 132.5 737 Q153 757 186 757 Q222 757 242 737.5 Q262 718 262 687 Q262 655 241 635.5 Q220 616 186 616 Z M400 616 Q367 616 346 635 Q325 654 325 686 Q325 717 346 737 Q367 757 400 757 Q436 757 456 737.5 Q476 718 476 687 Q476 655 454.5 635.5 Q433 616 400 616 Z M292 -14 Q229 -14 181.5 5.5 Q134 25 102.5 59 Q71 93 55 140 Q39 187 39 241 Q39 317 60.5 371 Q82 425 119 459 Q156 493 204 509 Q252 525 306 525 Q359 525 404.5 509 Q450 493 483 461 Q516 429 534.5 381 Q553 333 553 270 Q553 202 534 149 Q515 96 480.5 60 Q446 24 398 5 Q350 -14 292 -14 Z M306 58 Q420 58 420 246 Q420 352 386 403.5 Q352 455 290 455 Q235 455 203 413.5 Q171 372 171 275 Q171 172 204 115 Q237 58 306 58 Z " />
<glyph glyph-name="divide" unicode="&#xf7;" horiz-adv-x="582" d="M285 404 Q255 404 235 421 Q215 438 215 471 Q215 505 235 522.5 Q255 540 285 540 Q317 540 338 523 Q359 506 359 472 Q359 438 338 421 Q317 404 285 404 Z M73 349 L509 349 L509 267 L73 267 L73 349 Z M285 75 Q255 75 235 92 Q215 109 215 142 Q215 175 235 192.5 Q255 210 285 210 Q317 210 338 193 Q359 176 359 143 Q359 109 338 92 Q317 75 285 75 Z " />
<glyph glyph-name="oslash" unicode="&#xf8;" horiz-adv-x="591" d="M501 440 Q526 409 539.5 366.5 Q553 324 553 270 Q553 202 534 149 Q515 96 480.5 60 Q446 24 398 5 Q350 -14 292 -14 Q243 -14 204 -2.5 Q165 9 135 30 L96 -14 L9 -14 L89 75 Q63 108 51 150.5 Q39 193 39 241 Q39 317 60.5 371 Q82 425 119 459 Q156 493 204 509 Q252 525 306 525 Q348 525 385.5 515 Q423 505 453 485 L489 525 L577 525 L501 440 Z M171 275 Q171 220 180 178 L383 406 Q350 455 290 455 Q235 455 203 413.5 Q171 372 171 275 Z M420 246 Q420 300 411 339 L207 111 Q242 58 306 58 Q420 58 420 246 Z " />
<glyph glyph-name="ugrave" unicode="&#xf9;" horiz-adv-x="648" d="M213 674 Q177 697 177 731 Q177 750 192 769.5 Q207 789 237 789 Q248 789 256 782.5 Q264 776 276 760 L390 611 L360 580 L213 674 Z M259 -14 Q212 -14 181.5 0 Q151 14 133.5 37.5 Q116 61 109 91.5 Q102 122 102 155 L102 384 Q102 415 97 426.5 Q92 438 67 443 L21 451 L28 507 L214 518 L226 513 L226 195 Q226 170 227.5 148.5 Q229 127 236.5 111 Q244 95 260.5 86 Q277 77 306 77 Q354 77 387 109.5 Q420 142 420 212 L420 385 Q420 415 414.5 427.5 Q409 440 386 444 L344 451 L352 507 L532 518 L544 513 L544 115 Q544 91 548.5 80 Q553 69 576 65 L624 57 L624 0 L446 -7 L431 78 L428 78 Q415 60 399.5 43.5 Q384 27 364 14 Q344 1 318 -6.5 Q292 -14 259 -14 Z " />
<glyph glyph-name="uacute" unicode="&#xfa;" horiz-adv-x="648" d="M228 611 L343 760 Q355 776 363 782.5 Q371 789 382 789 Q411 789 426.5 769.5 Q442 750 442 731 Q442 696 406 675 L257 580 L228 611 Z M259 -14 Q212 -14 181.5 0 Q151 14 133.5 37.5 Q116 61 109 91.5 Q102 122 102 155 L102 384 Q102 415 97 426.5 Q92 438 67 443 L21 451 L28 507 L214 518 L226 513 L226 195 Q226 170 227.5 148.5 Q229 127 236.5 111 Q244 95 260.5 86 Q277 77 306 77 Q354 77 387 109.5 Q420 142 420 212 L420 385 Q420 415 414.5 427.5 Q409 440 386 444 L344 451 L352 507 L532 518 L544 513 L544 115 Q544 91 548.5 80 Q553 69 576 65 L624 57 L624 0 L446 -7 L431 78 L428 78 Q415 60 399.5 43.5 Q384 27 364 14 Q344 1 318 -6.5 Q292 -14 259 -14 Z " />
<glyph glyph-name="ucircumflex" unicode="&#xfb;" horiz-adv-x="648" d="M145 612 L263 764 Q277 781 289 787 Q301 793 315 793 Q332 793 343 785 Q354 777 371 757 L483 613 L452 580 L315 679 L176 580 L145 612 Z M259 -14 Q212 -14 181.5 0 Q151 14 133.5 37.5 Q116 61 109 91.5 Q102 122 102 155 L102 384 Q102 415 97 426.5 Q92 438 67 443 L21 451 L28 507 L214 518 L226 513 L226 195 Q226 170 227.5 148.5 Q229 127 236.5 111 Q244 95 260.5 86 Q277 77 306 77 Q354 77 387 109.5 Q420 142 420 212 L420 385 Q420 415 414.5 427.5 Q409 440 386 444 L344 451 L352 507 L532 518 L544 513 L544 115 Q544 91 548.5 80 Q553 69 576 65 L624 57 L624 0 L446 -7 L431 78 L428 78 Q415 60 399.5 43.5 Q384 27 364 14 Q344 1 318 -6.5 Q292 -14 259 -14 Z " />
<glyph glyph-name="udieresis" unicode="&#xfc;" horiz-adv-x="648" d="M205 616 Q172 616 151.5 635 Q131 654 131 686 Q131 717 151.5 737 Q172 757 205 757 Q241 757 261 737.5 Q281 718 281 687 Q281 655 260 635.5 Q239 616 205 616 Z M419 616 Q386 616 365 635 Q344 654 344 686 Q344 717 365 737 Q386 757 419 757 Q455 757 475 737.5 Q495 718 495 687 Q495 655 473.5 635.5 Q452 616 419 616 Z M259 -14 Q212 -14 181.5 0 Q151 14 133.5 37.5 Q116 61 109 91.5 Q102 122 102 155 L102 384 Q102 415 97 426.5 Q92 438 67 443 L21 451 L28 507 L214 518 L226 513 L226 195 Q226 170 227.5 148.5 Q229 127 236.5 111 Q244 95 260.5 86 Q277 77 306 77 Q354 77 387 109.5 Q420 142 420 212 L420 385 Q420 415 414.5 427.5 Q409 440 386 444 L344 451 L352 507 L532 518 L544 513 L544 115 Q544 91 548.5 80 Q553 69 576 65 L624 57 L624 0 L446 -7 L431 78 L428 78 Q415 60 399.5 43.5 Q384 27 364 14 Q344 1 318 -6.5 Q292 -14 259 -14 Z " />
<glyph glyph-name="yacute" unicode="&#xfd;" horiz-adv-x="593" d="M235 611 L350 760 Q362 776 370 782.5 Q378 789 389 789 Q418 789 433.5 769.5 Q449 750 449 731 Q449 696 413 675 L264 580 L235 611 Z M112 -229 Q83 -229 62.5 -222 Q42 -215 29 -203 Q16 -191 10 -176.5 Q4 -162 4 -147 Q4 -115 25 -93 Q46 -71 79 -71 Q99 -71 116.5 -80 Q134 -89 135 -115 Q135 -123 133.5 -137.5 Q132 -152 129 -169 Q165 -167 187 -137 Q209 -107 233 -53 L257 1 L93 396 Q82 421 75 431 Q68 441 47 446 L13 454 L23 511 L292 511 L292 457 L244 450 Q224 447 220 436 Q216 425 225 399 L321 152 L326 152 L424 392 Q433 417 428.5 429.5 Q424 442 402 447 L357 457 L367 511 L588 511 L588 456 L551 448 Q531 444 524 432.5 Q517 421 504 392 L320 -34 Q301 -79 281 -115.5 Q261 -152 237 -177 Q213 -202 183 -215.5 Q153 -229 112 -229 Z " />
<glyph glyph-name="thorn" unicode="&#xfe;" horiz-adv-x="630" d="M31 -162 L75 -154 Q92 -151 98 -141.5 Q104 -132 104 -112 L104 642 Q104 671 97 680.5 Q90 690 64 695 L20 702 L27 760 L217 766 L228 755 L228 441 L230 437 Q254 473 292 499 Q330 525 392 525 Q480 525 534 462 Q588 399 588 275 Q588 205 571.5 151 Q555 97 524 60.5 Q493 24 450.5 5.5 Q408 -13 355 -13 Q311 -13 278.5 -3 Q246 7 228 18 L228 -107 Q228 -131 235.5 -141 Q243 -151 261 -153 L322 -163 L322 -219 L31 -219 L31 -162 Z M331 66 Q398 66 428 119.5 Q458 173 458 261 Q458 349 431 392.5 Q404 436 346 436 Q325 436 304 430 Q283 424 266 409 Q249 394 238.5 368 Q228 342 228 303 L228 99 Q245 85 273.5 75.5 Q302 66 331 66 Z " />
<glyph glyph-name="ydieresis" unicode="&#xff;" horiz-adv-x="593" d="M210 616 Q177 616 156.5 635 Q136 654 136 686 Q136 717 156.5 737 Q177 757 210 757 Q246 757 266 737.5 Q286 718 286 687 Q286 655 265 635.5 Q244 616 210 616 Z M424 616 Q391 616 370 635 Q349 654 349 686 Q349 717 370 737 Q391 757 424 757 Q460 757 480 737.5 Q500 718 500 687 Q500 655 478.5 635.5 Q457 616 424 616 Z M112 -229 Q83 -229 62.5 -222 Q42 -215 29 -203 Q16 -191 10 -176.5 Q4 -162 4 -147 Q4 -115 25 -93 Q46 -71 79 -71 Q99 -71 116.5 -80 Q134 -89 135 -115 Q135 -123 133.5 -137.5 Q132 -152 129 -169 Q165 -167 187 -137 Q209 -107 233 -53 L257 1 L93 396 Q82 421 75 431 Q68 441 47 446 L13 454 L23 511 L292 511 L292 457 L244 450 Q224 447 220 436 Q216 425 225 399 L321 152 L326 152 L424 392 Q433 417 428.5 429.5 Q424 442 402 447 L357 457 L367 511 L588 511 L588 456 L551 448 Q531 444 524 432.5 Q517 421 504 392 L320 -34 Q301 -79 281 -115.5 Q261 -152 237 -177 Q213 -202 183 -215.5 Q153 -229 112 -229 Z " />
<glyph glyph-name="Amacron" unicode="&#x100;" horiz-adv-x="738" d="M219 880 L529 880 L529 794 L219 794 L219 880 Z M13 55 L61 63 Q79 67 87 78 Q95 89 105 117 L314 700 L434 700 L641 115 Q650 90 657 79 Q664 68 685 64 L725 56 L725 0 L432 0 L432 55 L483 62 Q503 65 506.5 76 Q510 87 502 112 L466 221 L226 221 L191 116 Q183 92 187.5 80 Q192 68 214 63 L263 55 L263 0 L13 0 L13 55 Z M446 285 L351 577 L347 577 L247 285 L446 285 Z " />
<glyph glyph-name="amacron" unicode="&#x101;" horiz-adv-x="550" d="M104 715 L402 715 L402 630 L104 630 L104 715 Z M191 -14 Q163 -14 136 -6 Q109 2 88 18.5 Q67 35 54.5 61.5 Q42 88 42 125 Q42 194 88 230 Q134 266 212 277 Q242 281 268.5 283 Q295 285 325 287 L325 360 Q325 417 303.5 440 Q282 463 238 463 Q208 463 186 454.5 Q164 446 152 436 Q160 423 168.5 407 Q177 391 177 380 Q177 363 162 346 Q147 329 110 329 Q76 329 61 346 Q46 363 46 389 Q46 416 63 441 Q80 466 109 484.5 Q138 503 175.5 514 Q213 525 254 525 Q296 525 332 516.5 Q368 508 394 486 Q420 464 434.5 427 Q449 390 449 334 L449 109 Q449 78 467.5 68 Q486 58 534 72 L546 27 Q524 7 495.5 -3.5 Q467 -14 439 -14 Q398 -14 374 8 Q350 30 342 68 Q316 27 280 6.5 Q244 -14 191 -14 Z M240 68 Q255 68 270 72.5 Q285 77 297.5 87.5 Q310 98 317.5 115.5 Q325 133 325 159 L325 228 Q305 228 283.5 226 Q262 224 244 220 Q205 213 187.5 191 Q170 169 170 139 Q170 102 190 85 Q210 68 240 68 Z " />
<glyph glyph-name="Abreve" unicode="&#x102;" horiz-adv-x="738" d="M372 752 Q332 752 303.5 765.5 Q275 779 255.5 803 Q236 827 225 859 Q214 891 210 928 L260 942 Q276 892 305 870 Q334 848 375 848 Q419 848 447.5 873 Q476 898 490 940 L540 927 Q537 894 524.5 862.5 Q512 831 491 806.5 Q470 782 440.5 767 Q411 752 372 752 Z M13 55 L61 63 Q79 67 87 78 Q95 89 105 117 L314 700 L434 700 L641 115 Q650 90 657 79 Q664 68 685 64 L725 56 L725 0 L432 0 L432 55 L483 62 Q503 65 506.5 76 Q510 87 502 112 L466 221 L226 221 L191 116 Q183 92 187.5 80 Q192 68 214 63 L263 55 L263 0 L13 0 L13 55 Z M446 285 L351 577 L347 577 L247 285 L446 285 Z " />
<glyph glyph-name="abreve" unicode="&#x103;" horiz-adv-x="550" d="M250 587 Q212 587 184 601 Q156 615 136.5 640 Q117 665 106 699 Q95 733 91 772 L141 784 Q158 731 186.5 706.5 Q215 682 257 682 Q302 682 328 708.5 Q354 735 368 782 L418 772 Q414 736 402 703 Q390 670 369 644 Q348 618 318.5 602.5 Q289 587 250 587 Z M191 -14 Q163 -14 136 -6 Q109 2 88 18.5 Q67 35 54.5 61.5 Q42 88 42 125 Q42 194 88 230 Q134 266 212 277 Q242 281 268.5 283 Q295 285 325 287 L325 360 Q325 417 303.5 440 Q282 463 238 463 Q208 463 186 454.5 Q164 446 152 436 Q160 423 168.5 407 Q177 391 177 380 Q177 363 162 346 Q147 329 110 329 Q76 329 61 346 Q46 363 46 389 Q46 416 63 441 Q80 466 109 484.5 Q138 503 175.5 514 Q213 525 254 525 Q296 525 332 516.5 Q368 508 394 486 Q420 464 434.5 427 Q449 390 449 334 L449 109 Q449 78 467.5 68 Q486 58 534 72 L546 27 Q524 7 495.5 -3.5 Q467 -14 439 -14 Q398 -14 374 8 Q350 30 342 68 Q316 27 280 6.5 Q244 -14 191 -14 Z M240 68 Q255 68 270 72.5 Q285 77 297.5 87.5 Q310 98 317.5 115.5 Q325 133 325 159 L325 228 Q305 228 283.5 226 Q262 224 244 220 Q205 213 187.5 191 Q170 169 170 139 Q170 102 190 85 Q210 68 240 68 Z " />
<glyph glyph-name="Aogonek" unicode="&#x104;" horiz-adv-x="738" d="M635 0 Q602 -30 579 -63.5 Q556 -97 556 -125 Q556 -145 566.5 -154.5 Q577 -164 595 -164 Q617 -164 645 -151 L663 -191 Q643 -209 615 -222 Q587 -235 551 -235 Q499 -235 475 -209 Q451 -183 451 -148 Q451 -123 461.5 -101 Q472 -79 488.5 -61 Q505 -43 525.5 -27.5 Q546 -12 566 0 L432 0 L432 55 L483 62 Q503 65 506.5 76 Q510 87 502 112 L466 221 L226 221 L191 116 Q183 92 187.5 80 Q192 68 214 63 L263 55 L263 0 L13 0 L13 55 L61 63 Q79 67 87 78 Q95 89 105 117 L314 700 L434 700 L641 115 Q650 90 657 79 Q664 68 685 64 L725 56 L725 0 L635 0 Z M446 285 L351 577 L347 577 L247 285 L446 285 Z " />
<glyph glyph-name="aogonek" unicode="&#x105;" horiz-adv-x="550" d="M467 -164 Q489 -164 517 -151 L535 -191 Q515 -209 487.5 -222 Q460 -235 423 -235 Q371 -235 347 -209 Q323 -183 323 -148 Q323 -126 332 -106.5 Q341 -87 355 -70.5 Q369 -54 387.5 -39.5 Q406 -25 424 -13 Q390 -9 369.5 12 Q349 33 342 68 Q316 27 280 6.5 Q244 -14 191 -14 Q163 -14 136 -6 Q109 2 88 18.5 Q67 35 54.5 61.5 Q42 88 42 125 Q42 194 88 230 Q134 266 212 277 Q242 281 268.5 283 Q295 285 325 287 L325 360 Q325 417 303.5 440 Q282 463 238 463 Q208 463 186 454.5 Q164 446 152 436 Q160 423 168.5 407 Q177 391 177 380 Q177 363 162 346 Q147 329 110 329 Q76 329 61 346 Q46 363 46 389 Q46 416 63 441 Q80 466 109 484.5 Q138 503 175.5 514 Q213 525 254 525 Q296 525 332 516.5 Q368 508 394 486 Q420 464 434.5 427 Q449 390 449 334 L449 109 Q449 78 467.5 68 Q486 58 534 72 L546 27 Q537 18 525 12 Q472 -32 450 -65 Q428 -98 428 -125 Q428 -145 438.5 -154.5 Q449 -164 467 -164 Z M325 228 Q305 228 283.5 226 Q262 224 244 220 Q205 213 187.5 191 Q170 169 170 139 Q170 102 190 85 Q210 68 240 68 Q255 68 270 72.5 Q285 77 297.5 87.5 Q310 98 317.5 115.5 Q325 133 325 159 L325 228 Z " />
<glyph glyph-name="Cacute" unicode="&#x106;" horiz-adv-x="699" d="M274 789 L412 913 Q437 935 454 935 Q477 935 491 916.5 Q505 898 505 878 Q505 853 493.5 840 Q482 827 458 817 L298 751 L274 789 Z M391 -14 Q308 -14 244.5 12.5 Q181 39 138 86 Q95 133 73 199 Q51 265 51 344 Q51 429 74.5 497.5 Q98 566 141 614 Q184 662 243.5 688 Q303 714 376 714 Q443 714 483.5 693.5 Q524 673 545 652 L555 716 L610 716 L649 482 L582 466 Q557 551 510.5 594 Q464 637 386 637 Q336 637 298.5 616.5 Q261 596 236.5 558.5 Q212 521 200 468.5 Q188 416 188 351 Q188 286 204 234 Q220 182 249 146 Q278 110 318.5 90.5 Q359 71 408 71 Q444 71 473 79.5 Q502 88 525.5 103 Q549 118 568.5 137.5 Q588 157 604 179 L660 135 Q643 110 618.5 83.5 Q594 57 561.5 35 Q529 13 486.5 -0.5 Q444 -14 391 -14 Z " />
<glyph glyph-name="cacute" unicode="&#x107;" horiz-adv-x="516" d="M211 611 L326 760 Q338 776 346 782.5 Q354 789 365 789 Q394 789 409.5 769.5 Q425 750 425 731 Q425 696 389 675 L240 580 L211 611 Z M280 -14 Q222 -14 177 5.5 Q132 25 101.5 59.5 Q71 94 55 140.5 Q39 187 39 241 Q39 306 57.5 358.5 Q76 411 110.5 448 Q145 485 193 505 Q241 525 300 525 Q349 525 384.5 513 Q420 501 443.5 481.5 Q467 462 478 437.5 Q489 413 489 389 Q489 359 471 338.5 Q453 318 416 318 Q404 318 392 320.5 Q380 323 370.5 329 Q361 335 354.5 345 Q348 355 348 370 Q348 381 355 396 Q362 411 378 437 Q361 449 343 453.5 Q325 458 302 458 Q269 458 244.5 443.5 Q220 429 203.5 403.5 Q187 378 178.5 342 Q170 306 170 264 Q170 172 208.5 126 Q247 80 311 80 Q359 80 390.5 96 Q422 112 450 135 L489 92 Q455 50 403 18 Q351 -14 280 -14 Z " />
<glyph glyph-name="Ccircumflex" unicode="&#x108;" horiz-adv-x="699" d="M201 782 L326 919 Q339 933 349.5 940 Q360 947 374 947 Q387 947 398 941 Q409 935 426 915 L547 783 L518 746 L374 831 L230 746 L201 782 Z M391 -14 Q308 -14 244.5 12.5 Q181 39 138 86 Q95 133 73 199 Q51 265 51 344 Q51 429 74.5 497.5 Q98 566 141 614 Q184 662 243.5 688 Q303 714 376 714 Q443 714 483.5 693.5 Q524 673 545 652 L555 716 L610 716 L649 482 L582 466 Q557 551 510.5 594 Q464 637 386 637 Q336 637 298.5 616.5 Q261 596 236.5 558.5 Q212 521 200 468.5 Q188 416 188 351 Q188 286 204 234 Q220 182 249 146 Q278 110 318.5 90.5 Q359 71 408 71 Q444 71 473 79.5 Q502 88 525.5 103 Q549 118 568.5 137.5 Q588 157 604 179 L660 135 Q643 110 618.5 83.5 Q594 57 561.5 35 Q529 13 486.5 -0.5 Q444 -14 391 -14 Z " />
<glyph glyph-name="ccircumflex" unicode="&#x109;" horiz-adv-x="516" d="M126 612 L244 764 Q258 781 270 787 Q282 793 296 793 Q313 793 324 785 Q335 777 352 757 L464 613 L433 580 L296 679 L157 580 L126 612 Z M280 -14 Q222 -14 177 5.5 Q132 25 101.5 59.5 Q71 94 55 140.5 Q39 187 39 241 Q39 306 57.5 358.5 Q76 411 110.5 448 Q145 485 193 505 Q241 525 300 525 Q349 525 384.5 513 Q420 501 443.5 481.5 Q467 462 478 437.5 Q489 413 489 389 Q489 359 471 338.5 Q453 318 416 318 Q404 318 392 320.5 Q380 323 370.5 329 Q361 335 354.5 345 Q348 355 348 370 Q348 381 355 396 Q362 411 378 437 Q361 449 343 453.5 Q325 458 302 458 Q269 458 244.5 443.5 Q220 429 203.5 403.5 Q187 378 178.5 342 Q170 306 170 264 Q170 172 208.5 126 Q247 80 311 80 Q359 80 390.5 96 Q422 112 450 135 L489 92 Q455 50 403 18 Q351 -14 280 -14 Z " />
<glyph glyph-name="Cdotaccent" unicode="&#x10a;" horiz-adv-x="699" d="M374 766 Q336 766 312.5 787.5 Q289 809 289 845 Q289 880 312.5 902 Q336 924 374 924 Q414 924 436.5 902.5 Q459 881 459 845 Q459 810 435.5 788 Q412 766 374 766 Z M391 -14 Q308 -14 244.5 12.5 Q181 39 138 86 Q95 133 73 199 Q51 265 51 344 Q51 429 74.5 497.5 Q98 566 141 614 Q184 662 243.5 688 Q303 714 376 714 Q443 714 483.5 693.5 Q524 673 545 652 L555 716 L610 716 L649 482 L582 466 Q557 551 510.5 594 Q464 637 386 637 Q336 637 298.5 616.5 Q261 596 236.5 558.5 Q212 521 200 468.5 Q188 416 188 351 Q188 286 204 234 Q220 182 249 146 Q278 110 318.5 90.5 Q359 71 408 71 Q444 71 473 79.5 Q502 88 525.5 103 Q549 118 568.5 137.5 Q588 157 604 179 L660 135 Q643 110 618.5 83.5 Q594 57 561.5 35 Q529 13 486.5 -0.5 Q444 -14 391 -14 Z " />
<glyph glyph-name="cdotaccent" unicode="&#x10b;" horiz-adv-x="516" d="M295 616 Q257 616 233.5 637.5 Q210 659 210 695 Q210 730 233.5 752 Q257 774 295 774 Q335 774 357.5 752.5 Q380 731 380 695 Q380 660 356.5 638 Q333 616 295 616 Z M280 -14 Q222 -14 177 5.5 Q132 25 101.5 59.5 Q71 94 55 140.5 Q39 187 39 241 Q39 306 57.5 358.5 Q76 411 110.5 448 Q145 485 193 505 Q241 525 300 525 Q349 525 384.5 513 Q420 501 443.5 481.5 Q467 462 478 437.5 Q489 413 489 389 Q489 359 471 338.5 Q453 318 416 318 Q404 318 392 320.5 Q380 323 370.5 329 Q361 335 354.5 345 Q348 355 348 370 Q348 381 355 396 Q362 411 378 437 Q361 449 343 453.5 Q325 458 302 458 Q269 458 244.5 443.5 Q220 429 203.5 403.5 Q187 378 178.5 342 Q170 306 170 264 Q170 172 208.5 126 Q247 80 311 80 Q359 80 390.5 96 Q422 112 450 135 L489 92 Q455 50 403 18 Q351 -14 280 -14 Z " />
<glyph glyph-name="Ccaron" unicode="&#x10c;" horiz-adv-x="699" d="M374 752 Q361 752 350 758 Q339 764 322 784 L201 916 L230 953 L374 868 L518 953 L547 917 L422 780 Q409 766 398.5 759 Q388 752 374 752 Z M391 -14 Q308 -14 244.5 12.5 Q181 39 138 86 Q95 133 73 199 Q51 265 51 344 Q51 429 74.5 497.5 Q98 566 141 614 Q184 662 243.5 688 Q303 714 376 714 Q443 714 483.5 693.5 Q524 673 545 652 L555 716 L610 716 L649 482 L582 466 Q557 551 510.5 594 Q464 637 386 637 Q336 637 298.5 616.5 Q261 596 236.5 558.5 Q212 521 200 468.5 Q188 416 188 351 Q188 286 204 234 Q220 182 249 146 Q278 110 318.5 90.5 Q359 71 408 71 Q444 71 473 79.5 Q502 88 525.5 103 Q549 118 568.5 137.5 Q588 157 604 179 L660 135 Q643 110 618.5 83.5 Q594 57 561.5 35 Q529 13 486.5 -0.5 Q444 -14 391 -14 Z " />
<glyph glyph-name="ccaron" unicode="&#x10d;" horiz-adv-x="516" d="M294 580 Q277 580 266 588 Q255 596 238 617 L126 760 L157 793 L294 694 L433 793 L464 761 L346 609 Q332 592 320 586 Q308 580 294 580 Z M280 -14 Q222 -14 177 5.5 Q132 25 101.5 59.5 Q71 94 55 140.5 Q39 187 39 241 Q39 306 57.5 358.5 Q76 411 110.5 448 Q145 485 193 505 Q241 525 300 525 Q349 525 384.5 513 Q420 501 443.5 481.5 Q467 462 478 437.5 Q489 413 489 389 Q489 359 471 338.5 Q453 318 416 318 Q404 318 392 320.5 Q380 323 370.5 329 Q361 335 354.5 345 Q348 355 348 370 Q348 381 355 396 Q362 411 378 437 Q361 449 343 453.5 Q325 458 302 458 Q269 458 244.5 443.5 Q220 429 203.5 403.5 Q187 378 178.5 342 Q170 306 170 264 Q170 172 208.5 126 Q247 80 311 80 Q359 80 390.5 96 Q422 112 450 135 L489 92 Q455 50 403 18 Q351 -14 280 -14 Z " />
<glyph glyph-name="Dcaron" unicode="&#x10e;" horiz-adv-x="773" d="M361 752 Q348 752 337 758 Q326 764 309 784 L188 916 L217 953 L361 868 L505 953 L534 917 L409 780 Q396 766 385.5 759 Q375 752 361 752 Z M54 55 L111 66 Q131 69 135.5 80.5 Q140 92 140 117 L140 587 Q140 610 136 620 Q132 630 109 634 L54 645 L54 700 L361 700 Q441 700 507.5 681.5 Q574 663 621.5 624 Q669 585 695 523.5 Q721 462 721 376 Q721 292 698 223 Q675 154 626.5 104.5 Q578 55 502 27.5 Q426 0 319 0 L54 0 L54 55 Z M335 65 Q408 65 456 88 Q504 111 532.5 151.5 Q561 192 573 248 Q585 304 585 371 Q585 432 570 481 Q555 530 523.5 564.5 Q492 599 443.5 617.5 Q395 636 327 636 L269 636 L269 70 Q279 68 299 66.5 Q319 65 335 65 Z " />
<glyph glyph-name="dcaron" unicode="&#x10f;" horiz-adv-x="711" d="M572 544 Q597 582 605.5 602 Q614 622 614 639 Q614 650 608.5 657 Q603 664 595 672 Q584 681 578 690.5 Q572 700 572 714 Q572 739 590.5 753.5 Q609 768 638 768 Q672 768 689 745.5 Q706 723 706 694 Q706 659 683 610 Q660 561 607 513 L572 544 Z M252 -14 Q150 -14 96.5 54 Q43 122 43 241 Q43 307 59.5 359.5 Q76 412 107.5 448.5 Q139 485 184 505 Q229 525 286 525 Q323 525 353.5 516 Q384 507 404 496 L404 639 Q404 668 398 678.5 Q392 689 363 694 L319 702 L326 760 L516 766 L527 755 L527 109 Q527 86 533 77 Q539 68 560 64 L608 56 L608 -1 L430 -8 L415 72 L412 72 Q392 39 354 12.5 Q316 -14 252 -14 Z M291 72 Q312 72 332 79 Q352 86 368 101.5 Q384 117 394 143 Q404 169 404 207 L404 416 Q379 433 350.5 440 Q322 447 299 447 Q232 447 202.5 396 Q173 345 173 251 Q173 170 200.5 121 Q228 72 291 72 Z " />
<glyph glyph-name="Dcroat" unicode="&#x110;" horiz-adv-x="773" d="M361 700 Q441 700 507.5 681.5 Q574 663 621.5 624 Q669 585 695 523.5 Q721 462 721 376 Q721 292 698 223 Q675 154 626.5 104.5 Q578 55 502 27.5 Q426 0 319 0 L54 0 L54 55 L111 66 Q131 69 135.5 80.5 Q140 92 140 117 L140 325 L34 325 L43 397 L140 397 L140 587 Q140 610 136 620 Q132 630 109 634 L54 645 L54 700 L361 700 Z M335 65 Q408 65 456 88 Q504 111 532.5 151.5 Q561 192 573 248 Q585 304 585 371 Q585 432 570 481 Q555 530 523.5 564.5 Q492 599 443.5 617.5 Q395 636 327 636 L269 636 L269 397 L447 397 L447 325 L269 325 L269 70 Q279 68 299 66.5 Q319 65 335 65 Z " />
<glyph glyph-name="dcroat" unicode="&#x111;" horiz-adv-x="629" d="M43 241 Q43 307 59.5 359.5 Q76 412 107.5 448.5 Q139 485 184 505 Q229 525 286 525 Q323 525 353.5 516 Q384 507 404 496 L404 578 L253 578 L261 645 L404 645 L404 648 Q404 671 398 680 Q392 689 363 694 L319 702 L326 760 L516 766 L527 755 L527 645 L632 645 L632 578 L527 578 L527 109 Q527 86 533 77 Q539 68 560 64 L608 56 L608 -1 L430 -8 L415 72 L412 72 Q392 39 354 12.5 Q316 -14 252 -14 Q150 -14 96.5 54 Q43 122 43 241 Z M173 251 Q173 170 200.5 121 Q228 72 291 72 Q312 72 332 79 Q352 86 368 101.5 Q384 117 394 143 Q404 169 404 207 L404 416 Q379 433 350.5 440 Q322 447 299 447 Q232 447 202.5 396 Q173 345 173 251 Z " />
<glyph glyph-name="Emacron" unicode="&#x112;" horiz-adv-x="638" d="M168 880 L478 880 L478 794 L168 794 L168 880 Z M54 55 L106 64 Q128 68 132.5 80 Q137 92 137 115 L137 589 Q137 612 132 622 Q127 632 104 636 L54 645 L54 700 L537 700 L574 534 L514 517 Q500 555 487 578.5 Q474 602 457 614.5 Q440 627 417 631.5 Q394 636 360 636 L266 636 L266 389 L331 389 Q362 389 378 391.5 Q394 394 402 402.5 Q410 411 414 427.5 Q418 444 424 472 L477 479 L477 248 L424 239 Q420 266 416.5 283 Q413 300 405 309 Q397 318 382.5 321 Q368 324 341 324 L266 324 L266 64 L388 64 Q424 64 448 68 Q472 72 487.5 85 Q503 98 514 122 Q525 146 535 186 L599 186 L575 0 L54 0 L54 55 Z " />
<glyph glyph-name="emacron" unicode="&#x113;" horiz-adv-x="525" d="M131 715 L429 715 L429 630 L131 630 L131 715 Z M280 -14 Q219 -14 174 6.5 Q129 27 99 62 Q69 97 54 143.5 Q39 190 39 242 Q39 309 58 361.5 Q77 414 110.5 450.5 Q144 487 191 506 Q238 525 293 525 Q336 525 372 512.5 Q408 500 433.5 476 Q459 452 473 417.5 Q487 383 487 339 Q487 316 483.5 289.5 Q480 263 473 239 L170 239 Q172 164 209 121.5 Q246 79 311 79 Q359 79 393 96.5 Q427 114 453 137 L493 94 Q478 75 458 55.5 Q438 36 412 20.5 Q386 5 353 -4.5 Q320 -14 280 -14 Z M363 307 Q365 317 365.5 330 Q366 343 366 357 Q366 413 343.5 436 Q321 459 281 459 Q252 459 231.5 446.5 Q211 434 198 413 Q185 392 178.5 364.5 Q172 337 170 307 L363 307 Z " />
<glyph glyph-name="Ebreve" unicode="&#x114;" horiz-adv-x="638" d="M321 752 Q281 752 252.5 765.5 Q224 779 204.5 803 Q185 827 174 859 Q163 891 159 928 L209 942 Q225 892 254 870 Q283 848 324 848 Q368 848 396.5 873 Q425 898 439 940 L489 927 Q486 894 473.5 862.5 Q461 831 440 806.5 Q419 782 389.5 767 Q360 752 321 752 Z M54 55 L106 64 Q128 68 132.5 80 Q137 92 137 115 L137 589 Q137 612 132 622 Q127 632 104 636 L54 645 L54 700 L537 700 L574 534 L514 517 Q500 555 487 578.5 Q474 602 457 614.5 Q440 627 417 631.5 Q394 636 360 636 L266 636 L266 389 L331 389 Q362 389 378 391.5 Q394 394 402 402.5 Q410 411 414 427.5 Q418 444 424 472 L477 479 L477 248 L424 239 Q420 266 416.5 283 Q413 300 405 309 Q397 318 382.5 321 Q368 324 341 324 L266 324 L266 64 L388 64 Q424 64 448 68 Q472 72 487.5 85 Q503 98 514 122 Q525 146 535 186 L599 186 L575 0 L54 0 L54 55 Z " />
<glyph glyph-name="ebreve" unicode="&#x115;" horiz-adv-x="525" d="M275 587 Q237 587 209 601 Q181 615 161.5 640 Q142 665 131 699 Q120 733 116 772 L166 784 Q183 731 211.5 706.5 Q240 682 282 682 Q327 682 353 708.5 Q379 735 393 782 L443 772 Q439 736 427 703 Q415 670 394 644 Q373 618 343.5 602.5 Q314 587 275 587 Z M280 -14 Q219 -14 174 6.5 Q129 27 99 62 Q69 97 54 143.5 Q39 190 39 242 Q39 309 58 361.5 Q77 414 110.5 450.5 Q144 487 191 506 Q238 525 293 525 Q336 525 372 512.5 Q408 500 433.5 476 Q459 452 473 417.5 Q487 383 487 339 Q487 316 483.5 289.5 Q480 263 473 239 L170 239 Q172 164 209 121.5 Q246 79 311 79 Q359 79 393 96.5 Q427 114 453 137 L493 94 Q478 75 458 55.5 Q438 36 412 20.5 Q386 5 353 -4.5 Q320 -14 280 -14 Z M363 307 Q365 317 365.5 330 Q366 343 366 357 Q366 413 343.5 436 Q321 459 281 459 Q252 459 231.5 446.5 Q211 434 198 413 Q185 392 178.5 364.5 Q172 337 170 307 L363 307 Z " />
<glyph glyph-name="Edotaccent" unicode="&#x116;" horiz-adv-x="638" d="M323 766 Q285 766 261.5 787.5 Q238 809 238 845 Q238 880 261.5 902 Q285 924 323 924 Q363 924 385.5 902.5 Q408 881 408 845 Q408 810 384.5 788 Q361 766 323 766 Z M54 55 L106 64 Q128 68 132.5 80 Q137 92 137 115 L137 589 Q137 612 132 622 Q127 632 104 636 L54 645 L54 700 L537 700 L574 534 L514 517 Q500 555 487 578.5 Q474 602 457 614.5 Q440 627 417 631.5 Q394 636 360 636 L266 636 L266 389 L331 389 Q362 389 378 391.5 Q394 394 402 402.5 Q410 411 414 427.5 Q418 444 424 472 L477 479 L477 248 L424 239 Q420 266 416.5 283 Q413 300 405 309 Q397 318 382.5 321 Q368 324 341 324 L266 324 L266 64 L388 64 Q424 64 448 68 Q472 72 487.5 85 Q503 98 514 122 Q525 146 535 186 L599 186 L575 0 L54 0 L54 55 Z " />
<glyph glyph-name="edotaccent" unicode="&#x117;" horiz-adv-x="525" d="M280 616 Q242 616 218.5 637.5 Q195 659 195 695 Q195 730 218.5 752 Q242 774 280 774 Q320 774 342.5 752.5 Q365 731 365 695 Q365 660 341.5 638 Q318 616 280 616 Z M280 -14 Q219 -14 174 6.5 Q129 27 99 62 Q69 97 54 143.5 Q39 190 39 242 Q39 309 58 361.5 Q77 414 110.5 450.5 Q144 487 191 506 Q238 525 293 525 Q336 525 372 512.5 Q408 500 433.5 476 Q459 452 473 417.5 Q487 383 487 339 Q487 316 483.5 289.5 Q480 263 473 239 L170 239 Q172 164 209 121.5 Q246 79 311 79 Q359 79 393 96.5 Q427 114 453 137 L493 94 Q478 75 458 55.5 Q438 36 412 20.5 Q386 5 353 -4.5 Q320 -14 280 -14 Z M363 307 Q365 317 365.5 330 Q366 343 366 357 Q366 413 343.5 436 Q321 459 281 459 Q252 459 231.5 446.5 Q211 434 198 413 Q185 392 178.5 364.5 Q172 337 170 307 L363 307 Z " />
<glyph glyph-name="Eogonek" unicode="&#x118;" horiz-adv-x="638" d="M575 0 Q521 -26 493.5 -61 Q466 -96 466 -125 Q466 -164 505 -164 Q528 -164 554 -151 L573 -191 Q553 -209 525 -222 Q497 -235 461 -235 Q409 -235 385 -209 Q361 -183 361 -148 Q361 -122 371.5 -100 Q382 -78 399.5 -60 Q417 -42 439.5 -27 Q462 -12 485 0 L54 0 L54 55 L106 64 Q128 68 132.5 80 Q137 92 137 115 L137 589 Q137 612 132 622 Q127 632 104 636 L54 645 L54 700 L537 700 L574 534 L514 517 Q500 555 487 578.5 Q474 602 457 614.5 Q440 627 417 631.5 Q394 636 360 636 L266 636 L266 389 L331 389 Q362 389 378 391.5 Q394 394 402 402.5 Q410 411 414 427.5 Q418 444 424 472 L477 479 L477 248 L424 239 Q420 266 416.5 283 Q413 300 405 309 Q397 318 382.5 321 Q368 324 341 324 L266 324 L266 64 L388 64 Q424 64 448 68 Q472 72 487.5 85 Q503 98 514 122 Q525 146 535 186 L599 186 L575 0 Z " />
<glyph glyph-name="eogonek" unicode="&#x119;" horiz-adv-x="525" d="M405 17 Q349 -24 327 -57 Q305 -90 305 -122 Q305 -164 344 -164 Q367 -164 393 -151 L412 -191 Q392 -209 364 -222 Q336 -235 300 -235 Q248 -235 224 -209 Q200 -183 200 -148 Q200 -127 208 -108 Q216 -89 228.5 -72 Q241 -55 257.5 -40.5 Q274 -26 291 -14 L280 -14 Q219 -14 174 6.5 Q129 27 99 62 Q69 97 54 143.5 Q39 190 39 242 Q39 309 58 361.5 Q77 414 110.5 450.5 Q144 487 191 506 Q238 525 293 525 Q336 525 372 512.5 Q408 500 433.5 476 Q459 452 473 417.5 Q487 383 487 339 Q487 316 483.5 289.5 Q480 263 473 239 L170 239 Q172 164 209 121.5 Q246 79 311 79 Q359 79 393 96.5 Q427 114 453 137 L493 94 Q477 74 455.5 53.5 Q434 33 405 17 Z M281 459 Q252 459 231.5 446.5 Q211 434 198 413 Q185 392 178.5 364.5 Q172 337 170 307 L363 307 Q365 317 365.5 330 Q366 343 366 357 Q366 413 343.5 436 Q321 459 281 459 Z " />
<glyph glyph-name="Ecaron" unicode="&#x11a;" horiz-adv-x="638" d="M323 752 Q310 752 299 758 Q288 764 271 784 L150 916 L179 953 L323 868 L467 953 L496 917 L371 780 Q358 766 347.5 759 Q337 752 323 752 Z M54 55 L106 64 Q128 68 132.5 80 Q137 92 137 115 L137 589 Q137 612 132 622 Q127 632 104 636 L54 645 L54 700 L537 700 L574 534 L514 517 Q500 555 487 578.5 Q474 602 457 614.5 Q440 627 417 631.5 Q394 636 360 636 L266 636 L266 389 L331 389 Q362 389 378 391.5 Q394 394 402 402.5 Q410 411 414 427.5 Q418 444 424 472 L477 479 L477 248 L424 239 Q420 266 416.5 283 Q413 300 405 309 Q397 318 382.5 321 Q368 324 341 324 L266 324 L266 64 L388 64 Q424 64 448 68 Q472 72 487.5 85 Q503 98 514 122 Q525 146 535 186 L599 186 L575 0 L54 0 L54 55 Z " />
<glyph glyph-name="ecaron" unicode="&#x11b;" horiz-adv-x="525" d="M279 580 Q262 580 251 588 Q240 596 223 617 L111 760 L142 793 L279 694 L418 793 L449 761 L331 609 Q317 592 305 586 Q293 580 279 580 Z M280 -14 Q219 -14 174 6.5 Q129 27 99 62 Q69 97 54 143.5 Q39 190 39 242 Q39 309 58 361.5 Q77 414 110.5 450.5 Q144 487 191 506 Q238 525 293 525 Q336 525 372 512.5 Q408 500 433.5 476 Q459 452 473 417.5 Q487 383 487 339 Q487 316 483.5 289.5 Q480 263 473 239 L170 239 Q172 164 209 121.5 Q246 79 311 79 Q359 79 393 96.5 Q427 114 453 137 L493 94 Q478 75 458 55.5 Q438 36 412 20.5 Q386 5 353 -4.5 Q320 -14 280 -14 Z M363 307 Q365 317 365.5 330 Q366 343 366 357 Q366 413 343.5 436 Q321 459 281 459 Q252 459 231.5 446.5 Q211 434 198 413 Q185 392 178.5 364.5 Q172 337 170 307 L363 307 Z " />
<glyph glyph-name="Gcircumflex" unicode="&#x11c;" horiz-adv-x="745" d="M209 782 L334 919 Q347 933 357.5 940 Q368 947 382 947 Q395 947 406 941 Q417 935 434 915 L555 783 L526 746 L382 831 L238 746 L209 782 Z M383 -14 Q293 -14 230 16 Q167 46 127.5 95 Q88 144 69.5 207 Q51 270 51 336 Q51 424 74 494 Q97 564 139.5 613 Q182 662 242 688 Q302 714 375 714 Q441 714 483.5 693.5 Q526 673 547 652 L557 715 L614 715 L661 482 L593 467 Q564 555 515.5 596 Q467 637 389 637 Q332 637 293.5 614 Q255 591 231.5 551 Q208 511 198 459 Q188 407 188 348 Q188 281 203 228.5 Q218 176 245.5 139.5 Q273 103 311.5 83.5 Q350 64 396 64 Q447 64 479.5 79.5 Q512 95 532 116 L532 225 Q532 248 527 259 Q522 270 499 274 L445 283 L445 338 L726 338 L726 283 L679 274 Q658 270 653.5 257 Q649 244 649 221 L649 -3 L587 -3 L565 41 Q534 17 488.5 1.5 Q443 -14 383 -14 Z " />
<glyph glyph-name="gcircumflex" unicode="&#x11d;" horiz-adv-x="589" d="M99 612 L217 764 Q231 781 243 787 Q255 793 269 793 Q286 793 297 785 Q308 777 325 757 L437 613 L406 580 L269 679 L130 580 L99 612 Z M255 -229 Q185 -229 139 -219 Q93 -209 66 -191.5 Q39 -174 28 -151.5 Q17 -129 17 -104 Q17 -59 44.5 -32.5 Q72 -6 115 14 L115 16 Q80 27 66 50.5 Q52 74 52 95 Q52 121 67 145 Q82 169 115 201 L115 204 Q81 222 60.5 254 Q40 286 40 338 Q40 382 56.5 416.5 Q73 451 103 475 Q133 499 174 512 Q215 525 263 525 Q295 525 332 518 Q369 511 398 494 Q407 511 417.5 527 Q428 543 442 556.5 Q456 570 473.5 578 Q491 586 512 586 Q539 586 561 571 Q583 556 583 527 Q583 501 565 482 Q547 463 523 463 Q505 463 495.5 471 Q486 479 479 493 L470 514 Q459 500 452 486 Q445 472 440 460 Q457 440 470 412 Q483 384 483 345 Q483 305 467.5 272.5 Q452 240 422.5 216.5 Q393 193 351.5 180 Q310 167 258 167 Q237 167 214.5 170.5 Q192 174 175 179 Q164 168 156 156 Q148 144 148 131 Q148 105 167.5 98.5 Q187 92 222 92 L357 92 Q398 92 432 86 Q466 80 491.5 64.5 Q517 49 531 22.5 Q545 -4 545 -45 Q545 -84 528 -118 Q511 -152 475.5 -176.5 Q440 -201 385.5 -215 Q331 -229 255 -229 Z M265 230 Q308 230 332.5 259 Q357 288 357 341 Q357 401 331 432.5 Q305 464 260 464 Q233 464 214.5 454.5 Q196 445 185.5 429 Q175 413 170.5 391.5 Q166 370 166 346 Q166 291 192.5 260.5 Q219 230 265 230 Z M268 -157 Q345 -157 380 -130 Q415 -103 415 -68 Q415 -39 395.5 -27 Q376 -15 333 -15 L180 -15 Q162 -29 150.5 -45.5 Q139 -62 139 -85 Q139 -123 170.5 -140 Q202 -157 268 -157 Z " />
<glyph glyph-name="Gbreve" unicode="&#x11e;" horiz-adv-x="745" d="M380 761 Q340 761 311.5 774.5 Q283 788 263.5 812 Q244 836 233 868 Q222 900 218 937 L268 951 Q284 901 313 879 Q342 857 383 857 Q427 857 455.5 882 Q484 907 498 949 L548 936 Q545 903 532.5 871.5 Q520 840 499 815.5 Q478 791 448.5 776 Q419 761 380 761 Z M383 -14 Q293 -14 230 16 Q167 46 127.5 95 Q88 144 69.5 207 Q51 270 51 336 Q51 424 74 494 Q97 564 139.5 613 Q182 662 242 688 Q302 714 375 714 Q441 714 483.5 693.5 Q526 673 547 652 L557 715 L614 715 L661 482 L593 467 Q564 555 515.5 596 Q467 637 389 637 Q332 637 293.5 614 Q255 591 231.5 551 Q208 511 198 459 Q188 407 188 348 Q188 281 203 228.5 Q218 176 245.5 139.5 Q273 103 311.5 83.5 Q350 64 396 64 Q447 64 479.5 79.5 Q512 95 532 116 L532 225 Q532 248 527 259 Q522 270 499 274 L445 283 L445 338 L726 338 L726 283 L679 274 Q658 270 653.5 257 Q649 244 649 221 L649 -3 L587 -3 L565 41 Q534 17 488.5 1.5 Q443 -14 383 -14 Z " />
<glyph glyph-name="gbreve" unicode="&#x11f;" horiz-adv-x="589" d="M262 587 Q224 587 196 601 Q168 615 148.5 640 Q129 665 118 699 Q107 733 103 772 L153 784 Q170 731 198.5 706.5 Q227 682 269 682 Q314 682 340 708.5 Q366 735 380 782 L430 772 Q426 736 414 703 Q402 670 381 644 Q360 618 330.5 602.5 Q301 587 262 587 Z M255 -229 Q185 -229 139 -219 Q93 -209 66 -191.5 Q39 -174 28 -151.5 Q17 -129 17 -104 Q17 -59 44.5 -32.5 Q72 -6 115 14 L115 16 Q80 27 66 50.5 Q52 74 52 95 Q52 121 67 145 Q82 169 115 201 L115 204 Q81 222 60.5 254 Q40 286 40 338 Q40 382 56.5 416.5 Q73 451 103 475 Q133 499 174 512 Q215 525 263 525 Q295 525 332 518 Q369 511 398 494 Q407 511 417.5 527 Q428 543 442 556.5 Q456 570 473.5 578 Q491 586 512 586 Q539 586 561 571 Q583 556 583 527 Q583 501 565 482 Q547 463 523 463 Q505 463 495.5 471 Q486 479 479 493 L470 514 Q459 500 452 486 Q445 472 440 460 Q457 440 470 412 Q483 384 483 345 Q483 305 467.5 272.5 Q452 240 422.5 216.5 Q393 193 351.5 180 Q310 167 258 167 Q237 167 214.5 170.5 Q192 174 175 179 Q164 168 156 156 Q148 144 148 131 Q148 105 167.5 98.5 Q187 92 222 92 L357 92 Q398 92 432 86 Q466 80 491.5 64.5 Q517 49 531 22.5 Q545 -4 545 -45 Q545 -84 528 -118 Q511 -152 475.5 -176.5 Q440 -201 385.5 -215 Q331 -229 255 -229 Z M265 230 Q308 230 332.5 259 Q357 288 357 341 Q357 401 331 432.5 Q305 464 260 464 Q233 464 214.5 454.5 Q196 445 185.5 429 Q175 413 170.5 391.5 Q166 370 166 346 Q166 291 192.5 260.5 Q219 230 265 230 Z M268 -157 Q345 -157 380 -130 Q415 -103 415 -68 Q415 -39 395.5 -27 Q376 -15 333 -15 L180 -15 Q162 -29 150.5 -45.5 Q139 -62 139 -85 Q139 -123 170.5 -140 Q202 -157 268 -157 Z " />
<glyph glyph-name="Gdotaccent" unicode="&#x120;" horiz-adv-x="745" d="M382 766 Q344 766 320.5 787.5 Q297 809 297 845 Q297 880 320.5 902 Q344 924 382 924 Q422 924 444.5 902.5 Q467 881 467 845 Q467 810 443.5 788 Q420 766 382 766 Z M383 -14 Q293 -14 230 16 Q167 46 127.5 95 Q88 144 69.5 207 Q51 270 51 336 Q51 424 74 494 Q97 564 139.5 613 Q182 662 242 688 Q302 714 375 714 Q441 714 483.5 693.5 Q526 673 547 652 L557 715 L614 715 L661 482 L593 467 Q564 555 515.5 596 Q467 637 389 637 Q332 637 293.5 614 Q255 591 231.5 551 Q208 511 198 459 Q188 407 188 348 Q188 281 203 228.5 Q218 176 245.5 139.5 Q273 103 311.5 83.5 Q350 64 396 64 Q447 64 479.5 79.5 Q512 95 532 116 L532 225 Q532 248 527 259 Q522 270 499 274 L445 283 L445 338 L726 338 L726 283 L679 274 Q658 270 653.5 257 Q649 244 649 221 L649 -3 L587 -3 L565 41 Q534 17 488.5 1.5 Q443 -14 383 -14 Z " />
<glyph glyph-name="gdotaccent" unicode="&#x121;" horiz-adv-x="589" d="M266 616 Q228 616 204.5 637.5 Q181 659 181 695 Q181 730 204.5 752 Q228 774 266 774 Q306 774 328.5 752.5 Q351 731 351 695 Q351 660 327.5 638 Q304 616 266 616 Z M255 -229 Q185 -229 139 -219 Q93 -209 66 -191.5 Q39 -174 28 -151.5 Q17 -129 17 -104 Q17 -59 44.5 -32.5 Q72 -6 115 14 L115 16 Q80 27 66 50.5 Q52 74 52 95 Q52 121 67 145 Q82 169 115 201 L115 204 Q81 222 60.5 254 Q40 286 40 338 Q40 382 56.5 416.5 Q73 451 103 475 Q133 499 174 512 Q215 525 263 525 Q295 525 332 518 Q369 511 398 494 Q407 511 417.5 527 Q428 543 442 556.5 Q456 570 473.5 578 Q491 586 512 586 Q539 586 561 571 Q583 556 583 527 Q583 501 565 482 Q547 463 523 463 Q505 463 495.5 471 Q486 479 479 493 L470 514 Q459 500 452 486 Q445 472 440 460 Q457 440 470 412 Q483 384 483 345 Q483 305 467.5 272.5 Q452 240 422.5 216.5 Q393 193 351.5 180 Q310 167 258 167 Q237 167 214.5 170.5 Q192 174 175 179 Q164 168 156 156 Q148 144 148 131 Q148 105 167.5 98.5 Q187 92 222 92 L357 92 Q398 92 432 86 Q466 80 491.5 64.5 Q517 49 531 22.5 Q545 -4 545 -45 Q545 -84 528 -118 Q511 -152 475.5 -176.5 Q440 -201 385.5 -215 Q331 -229 255 -229 Z M265 230 Q308 230 332.5 259 Q357 288 357 341 Q357 401 331 432.5 Q305 464 260 464 Q233 464 214.5 454.5 Q196 445 185.5 429 Q175 413 170.5 391.5 Q166 370 166 346 Q166 291 192.5 260.5 Q219 230 265 230 Z M268 -157 Q345 -157 380 -130 Q415 -103 415 -68 Q415 -39 395.5 -27 Q376 -15 333 -15 L180 -15 Q162 -29 150.5 -45.5 Q139 -62 139 -85 Q139 -123 170.5 -140 Q202 -157 268 -157 Z " />
<glyph glyph-name="Gcommaaccent" unicode="&#x122;" horiz-adv-x="745" d="M383 -14 Q293 -14 230 16 Q167 46 127.5 95 Q88 144 69.5 207 Q51 270 51 336 Q51 424 74 494 Q97 564 139.5 613 Q182 662 242 688 Q302 714 375 714 Q441 714 483.5 693.5 Q526 673 547 652 L557 715 L614 715 L661 482 L593 467 Q564 555 515.5 596 Q467 637 389 637 Q332 637 293.5 614 Q255 591 231.5 551 Q208 511 198 459 Q188 407 188 348 Q188 281 203 228.5 Q218 176 245.5 139.5 Q273 103 311.5 83.5 Q350 64 396 64 Q447 64 479.5 79.5 Q512 95 532 116 L532 225 Q532 248 527 259 Q522 270 499 274 L445 283 L445 338 L726 338 L726 283 L679 274 Q658 270 653.5 257 Q649 244 649 221 L649 -3 L587 -3 L565 41 Q534 17 488.5 1.5 Q443 -14 383 -14 Z M382 -227 Q344 -227 320.5 -205 Q297 -183 297 -148 Q297 -113 320.5 -90.5 Q344 -68 382 -68 Q422 -68 444.5 -90 Q467 -112 467 -147 Q467 -182 443.5 -204.5 Q420 -227 382 -227 Z " />
<glyph glyph-name="gcommaaccent" unicode="&#x123;" horiz-adv-x="589" d="M267 584 Q232 584 211.5 604.5 Q191 625 191 660 Q191 698 217 739.5 Q243 781 299 810 L330 773 Q303 753 291.5 734.5 Q280 716 276 695 L286 695 Q313 695 325 681.5 Q337 668 337 648 Q337 616 316.5 600 Q296 584 267 584 Z M255 -229 Q185 -229 139 -219 Q93 -209 66 -191.5 Q39 -174 28 -151.5 Q17 -129 17 -104 Q17 -59 44.5 -32.5 Q72 -6 115 14 L115 16 Q80 27 66 50.5 Q52 74 52 95 Q52 121 67 145 Q82 169 115 201 L115 204 Q81 222 60.5 254 Q40 286 40 338 Q40 382 56.5 416.5 Q73 451 103 475 Q133 499 174 512 Q215 525 263 525 Q295 525 332 518 Q369 511 398 494 Q407 511 417.5 527 Q428 543 442 556.5 Q456 570 473.5 578 Q491 586 512 586 Q539 586 561 571 Q583 556 583 527 Q583 501 565 482 Q547 463 523 463 Q505 463 495.5 471 Q486 479 479 493 L470 514 Q459 500 452 486 Q445 472 440 460 Q457 440 470 412 Q483 384 483 345 Q483 305 467.5 272.5 Q452 240 422.5 216.5 Q393 193 351.5 180 Q310 167 258 167 Q237 167 214.5 170.5 Q192 174 175 179 Q164 168 156 156 Q148 144 148 131 Q148 105 167.5 98.5 Q187 92 222 92 L357 92 Q398 92 432 86 Q466 80 491.5 64.5 Q517 49 531 22.5 Q545 -4 545 -45 Q545 -84 528 -118 Q511 -152 475.5 -176.5 Q440 -201 385.5 -215 Q331 -229 255 -229 Z M265 230 Q308 230 332.5 259 Q357 288 357 341 Q357 401 331 432.5 Q305 464 260 464 Q233 464 214.5 454.5 Q196 445 185.5 429 Q175 413 170.5 391.5 Q166 370 166 346 Q166 291 192.5 260.5 Q219 230 265 230 Z M268 -157 Q345 -157 380 -130 Q415 -103 415 -68 Q415 -39 395.5 -27 Q376 -15 333 -15 L180 -15 Q162 -29 150.5 -45.5 Q139 -62 139 -85 Q139 -123 170.5 -140 Q202 -157 268 -157 Z " />
<glyph glyph-name="Hcircumflex" unicode="&#x124;" horiz-adv-x="836" d="M245 782 L370 919 Q383 933 393.5 940 Q404 947 418 947 Q431 947 442 941 Q453 935 470 915 L591 783 L562 746 L418 831 L274 746 L245 782 Z M54 55 L105 64 Q130 69 135 78.5 Q140 88 140 116 L140 586 Q140 614 135 622.5 Q130 631 104 636 L54 645 L54 700 L355 700 L355 645 L300 635 Q279 631 274 621 Q269 611 269 585 L269 396 L566 396 L566 586 Q566 612 561 621.5 Q556 631 534 635 L480 645 L480 700 L781 700 L781 645 L730 636 Q705 631 700 621.5 Q695 612 695 584 L695 114 Q695 86 700.5 77.5 Q706 69 731 64 L781 55 L781 0 L480 0 L480 55 L534 65 Q556 69 561 79 Q566 89 566 114 L566 322 L269 322 L269 112 Q269 87 274 78 Q279 69 301 65 L355 55 L355 0 L54 0 L54 55 Z " />
<glyph glyph-name="hcircumflex" unicode="&#x125;" horiz-adv-x="663" d="M-27 836 L98 973 Q111 987 121.5 994 Q132 1001 146 1001 Q159 1001 170 995 Q181 989 198 969 L319 837 L290 800 L146 885 L2 800 L-27 836 Z M40 55 L87 64 Q107 68 110.5 79.5 Q114 91 114 112 L114 642 Q114 671 107 680.5 Q100 690 74 695 L29 702 L36 760 L226 766 L237 755 L237 441 L239 437 Q248 452 262.5 467.5 Q277 483 297 495.5 Q317 508 342.5 516.5 Q368 525 400 525 Q448 525 479.5 511 Q511 497 529 474 Q547 451 554.5 420 Q562 389 562 354 L562 104 Q562 84 567 75.5 Q572 67 593 63 L640 55 L640 0 L369 0 L369 54 L408 62 Q428 66 433 74.5 Q438 83 438 104 L438 314 Q438 341 435.5 363 Q433 385 424.5 400.5 Q416 416 399.5 425 Q383 434 354 434 Q306 434 271.5 402.5 Q237 371 237 301 L237 108 Q237 87 241 78 Q245 69 262 65 L309 54 L309 0 L40 0 L40 55 Z " />
<glyph glyph-name="Hbar" unicode="&#x126;" horiz-adv-x="836" d="M695 483 L695 114 Q695 86 700.5 77.5 Q706 69 731 64 L781 55 L781 0 L480 0 L480 55 L534 65 Q556 69 561 79 Q566 89 566 114 L566 322 L269 322 L269 112 Q269 87 274 78 Q279 69 301 65 L355 55 L355 0 L54 0 L54 55 L105 64 Q130 69 135 78.5 Q140 88 140 116 L140 483 L36 483 L46 549 L140 549 L140 586 Q140 614 135 622.5 Q130 631 104 636 L54 645 L54 700 L355 700 L355 645 L300 635 Q279 631 274 621 Q269 611 269 585 L269 549 L566 549 L566 586 Q566 612 561 621.5 Q556 631 534 635 L480 645 L480 700 L781 700 L781 645 L730 636 Q705 631 700 621.5 Q695 612 695 584 L695 549 L789 549 L789 483 L695 483 Z M566 483 L269 483 L269 396 L566 396 L566 483 Z " />
<glyph glyph-name="hbar" unicode="&#x127;" horiz-adv-x="663" d="M640 55 L640 0 L369 0 L369 54 L408 62 Q428 66 433 74.5 Q438 83 438 104 L438 314 Q438 341 435.5 363 Q433 385 424.5 400.5 Q416 416 399.5 425 Q383 434 354 434 Q306 434 271.5 402.5 Q237 371 237 301 L237 108 Q237 87 241 78 Q245 69 262 65 L309 54 L309 0 L40 0 L40 55 L87 64 Q107 68 110.5 79.5 Q114 91 114 112 L114 581 L22 581 L31 648 L114 648 Q113 673 105.5 681.5 Q98 690 74 695 L29 702 L36 760 L226 766 L237 755 L237 648 L384 648 L384 581 L237 581 L237 441 L239 437 Q248 452 262.5 467.5 Q277 483 297 495.5 Q317 508 342.5 516.5 Q368 525 400 525 Q448 525 479.5 511 Q511 497 529 474 Q547 451 554.5 420 Q562 389 562 354 L562 104 Q562 84 567 75.5 Q572 67 593 63 L640 55 Z " />
<glyph glyph-name="Itilde" unicode="&#x128;" horiz-adv-x="410" d="M279 771 Q263 771 243.5 775.5 Q224 780 195 793 Q152 812 132.5 818.5 Q113 825 102 825 Q91 825 82.5 818 Q74 811 59 788 L22 814 Q50 874 72.5 895 Q95 916 124 916 Q141 916 161.5 910 Q182 904 215 890 Q250 875 269 868 Q288 861 301 861 Q313 861 321 869 Q329 877 343 898 L380 874 Q354 815 331 793 Q308 771 279 771 Z M50 55 L105 64 Q130 69 135 78.5 Q140 88 140 116 L140 586 Q140 614 135 622.5 Q130 631 104 636 L50 645 L50 700 L360 700 L360 645 L300 635 Q279 631 274 621 Q269 611 269 585 L269 112 Q269 87 274 78 Q279 69 301 65 L360 55 L360 0 L50 0 L50 55 Z " />
<glyph glyph-name="itilde" unicode="&#x129;" horiz-adv-x="345" d="M228 615 Q217 615 206.5 617 Q196 619 182.5 623 Q169 627 151.5 634 Q134 641 108 651 Q89 659 74.5 664 Q60 669 53 669 Q42 669 33.5 661.5 Q25 654 9 631 L-27 657 Q-13 687 -1 707 Q11 727 23 738.5 Q35 750 47.5 754.5 Q60 759 75 759 Q92 759 112 753 Q132 747 164 733 Q199 718 218 711 Q237 704 250 704 Q262 704 270 712 Q278 720 292 741 L329 717 Q302 659 279.5 637 Q257 615 228 615 Z M35 56 L89 65 Q110 68 114.5 78.5 Q119 89 119 112 L119 382 Q119 416 113.5 428 Q108 440 83 443 L36 450 L43 506 L231 517 L243 512 L243 111 Q243 88 248 79 Q253 70 273 65 L324 55 L324 0 L35 0 L35 56 Z " />
<glyph glyph-name="Imacron" unicode="&#x12a;" horiz-adv-x="410" d="M49 880 L359 880 L359 794 L49 794 L49 880 Z M50 55 L105 64 Q130 69 135 78.5 Q140 88 140 116 L140 586 Q140 614 135 622.5 Q130 631 104 636 L50 645 L50 700 L360 700 L360 645 L300 635 Q279 631 274 621 Q269 611 269 585 L269 112 Q269 87 274 78 Q279 69 301 65 L360 55 L360 0 L50 0 L50 55 Z " />
<glyph glyph-name="imacron" unicode="&#x12b;" horiz-adv-x="345" d="M2 715 L300 715 L300 630 L2 630 L2 715 Z M35 56 L89 65 Q110 68 114.5 78.5 Q119 89 119 112 L119 382 Q119 416 113.5 428 Q108 440 83 443 L36 450 L43 506 L231 517 L243 512 L243 111 Q243 88 248 79 Q253 70 273 65 L324 55 L324 0 L35 0 L35 56 Z " />
<glyph glyph-name="Ibreve" unicode="&#x12c;" horiz-adv-x="410" d="M202 752 Q162 752 133.5 765.5 Q105 779 85.5 803 Q66 827 55 859 Q44 891 40 928 L90 942 Q106 892 135 870 Q164 848 205 848 Q249 848 277.5 873 Q306 898 320 940 L370 927 Q367 894 354.5 862.5 Q342 831 321 806.5 Q300 782 270.5 767 Q241 752 202 752 Z M50 55 L105 64 Q130 69 135 78.5 Q140 88 140 116 L140 586 Q140 614 135 622.5 Q130 631 104 636 L50 645 L50 700 L360 700 L360 645 L300 635 Q279 631 274 621 Q269 611 269 585 L269 112 Q269 87 274 78 Q279 69 301 65 L360 55 L360 0 L50 0 L50 55 Z " />
<glyph glyph-name="ibreve" unicode="&#x12d;" horiz-adv-x="345" d="M147 587 Q109 587 81 601 Q53 615 33.5 640 Q14 665 3 699 Q-8 733 -12 772 L38 784 Q55 731 83.5 706.5 Q112 682 154 682 Q199 682 225 708.5 Q251 735 265 782 L315 772 Q311 736 299 703 Q287 670 266 644 Q245 618 215.5 602.5 Q186 587 147 587 Z M35 56 L89 65 Q110 68 114.5 78.5 Q119 89 119 112 L119 382 Q119 416 113.5 428 Q108 440 83 443 L36 450 L43 506 L231 517 L243 512 L243 111 Q243 88 248 79 Q253 70 273 65 L324 55 L324 0 L35 0 L35 56 Z " />
<glyph glyph-name="Iogonek" unicode="&#x12e;" horiz-adv-x="410" d="M300 635 Q279 631 274 621 Q269 611 269 585 L269 112 Q269 87 274 78 Q279 69 301 65 L360 55 L360 0 L273 0 Q240 -30 217 -63.5 Q194 -97 194 -125 Q194 -145 204.5 -154.5 Q215 -164 233 -164 Q255 -164 283 -151 L301 -191 Q281 -209 253 -222 Q225 -235 189 -235 Q137 -235 113 -209 Q89 -183 89 -148 Q89 -123 99.5 -101 Q110 -79 126.5 -61 Q143 -43 163.5 -27.5 Q184 -12 204 0 L50 0 L50 55 L105 64 Q130 69 135 78.5 Q140 88 140 116 L140 586 Q140 614 135 622.5 Q130 631 104 636 L50 645 L50 700 L360 700 L360 645 L300 635 Z " />
<glyph glyph-name="iogonek" unicode="&#x12f;" horiz-adv-x="345" d="M165 616 Q127 616 104 637.5 Q81 659 81 695 Q81 730 104 752 Q127 774 165 774 Q205 774 227.5 752.5 Q250 731 250 695 Q250 660 226.5 638 Q203 616 165 616 Z M250 0 Q217 -30 194 -63.5 Q171 -97 171 -125 Q171 -145 181.5 -154.5 Q192 -164 210 -164 Q232 -164 260 -151 L278 -191 Q258 -209 230 -222 Q202 -235 166 -235 Q114 -235 90 -209 Q66 -183 66 -148 Q66 -123 76.5 -101 Q87 -79 103.5 -61 Q120 -43 140.5 -27.5 Q161 -12 181 0 L35 0 L35 56 L89 65 Q110 68 114.5 78.5 Q119 89 119 112 L119 382 Q119 416 113.5 428 Q108 440 83 443 L36 450 L43 506 L231 517 L243 512 L243 111 Q243 88 248 79 Q253 70 273 65 L324 55 L324 0 L250 0 Z " />
<glyph glyph-name="Idotaccent" unicode="&#x130;" horiz-adv-x="410" d="M204 766 Q166 766 142.5 787.5 Q119 809 119 845 Q119 880 142.5 902 Q166 924 204 924 Q244 924 266.5 902.5 Q289 881 289 845 Q289 810 265.5 788 Q242 766 204 766 Z M50 55 L105 64 Q130 69 135 78.5 Q140 88 140 116 L140 586 Q140 614 135 622.5 Q130 631 104 636 L50 645 L50 700 L360 700 L360 645 L300 635 Q279 631 274 621 Q269 611 269 585 L269 112 Q269 87 274 78 Q279 69 301 65 L360 55 L360 0 L50 0 L50 55 Z " />
<glyph glyph-name="dotlessi" unicode="&#x131;" horiz-adv-x="345" d="M35 56 L89 65 Q110 68 114.5 78.5 Q119 89 119 112 L119 382 Q119 416 113.5 428 Q108 440 83 443 L36 450 L43 506 L231 517 L243 512 L243 111 Q243 88 248 79 Q253 70 273 65 L324 55 L324 0 L35 0 L35 56 Z " />
<glyph glyph-name="Jcircumflex" unicode="&#x134;" horiz-adv-x="565" d="M217 782 L342 919 Q355 933 365.5 940 Q376 947 390 947 Q403 947 414 941 Q425 935 442 915 L563 783 L534 746 L390 831 L246 746 L217 782 Z M233 -14 Q196 -14 162 -5.5 Q128 3 102.5 19.5 Q77 36 62 60.5 Q47 85 47 116 Q47 151 68 176.5 Q89 202 126 202 Q160 202 176 187 Q192 172 192 152 Q192 138 186 123.5 Q180 109 160 77 Q168 69 188 61 Q208 53 235 53 Q291 53 309.5 89.5 Q328 126 328 192 L328 588 Q328 611 322.5 621 Q317 631 295 635 L229 645 L229 700 L538 700 L538 645 L486 634 Q465 630 461 619 Q457 608 457 585 L457 206 Q457 167 446 128 Q435 89 409 57.5 Q383 26 340 6 Q297 -14 233 -14 Z " />
<glyph glyph-name="jcircumflex" unicode="&#x135;" horiz-adv-x="311" d="M-27 612 L91 764 Q105 781 117 787 Q129 793 143 793 Q160 793 171 785 Q182 777 199 757 L311 613 L280 580 L143 679 L4 580 L-27 612 Z M20 -182 Q71 -142 89 -90.5 Q107 -39 107 34 L107 382 Q107 416 102 427.5 Q97 439 72 443 L24 450 L31 506 L219 517 L231 512 L231 95 Q231 27 220.5 -23.5 Q210 -74 188.5 -112 Q167 -150 135 -178 Q103 -206 60 -229 L20 -182 Z " />
<glyph glyph-name="Kcommaaccent" unicode="&#x136;" horiz-adv-x="768" d="M654 -14 Q609 -14 569 5.5 Q529 25 494 82 L346 319 L273 245 L273 112 Q273 89 276 79 Q279 69 301 65 L360 55 L360 0 L54 0 L54 55 L113 65 Q135 69 139.5 79.5 Q144 90 144 113 L144 588 Q144 611 139.5 621 Q135 631 112 635 L54 645 L54 700 L364 700 L364 645 L302 634 Q281 631 277 619 Q273 607 273 584 L273 340 L517 588 Q534 607 528.5 620.5 Q523 634 506 636 L458 644 L468 700 L714 700 L714 643 L680 635 Q661 631 649 622 Q637 613 614 590 L434 406 L601 148 Q618 122 632 106 Q646 90 659.5 81.5 Q673 73 686.5 70.5 Q700 68 715 68 Q722 68 732 69.5 Q742 71 756 76 L768 27 Q751 11 721.5 -1.5 Q692 -14 654 -14 Z M327 -246 Q353 -225 365 -207.5 Q377 -190 380 -168 L369 -168 Q342 -168 330.5 -154 Q319 -140 319 -119 Q319 -88 339.5 -72 Q360 -56 391 -56 Q427 -56 447 -77 Q467 -98 467 -133 Q467 -171 441 -212.5 Q415 -254 359 -283 L327 -246 Z " />
<glyph glyph-name="kcommaaccent" unicode="&#x137;" horiz-adv-x="633" d="M643 29 Q622 9 593 -1.5 Q564 -12 538 -12 Q493 -12 462.5 5.5 Q432 23 398 67 L241 268 L241 110 Q241 87 245.5 77 Q250 67 268 63 L301 55 L301 0 L37 0 L37 55 L86 64 Q107 68 112 78 Q117 88 117 111 L117 639 Q117 668 110.5 678.5 Q104 689 77 694 L32 702 L39 760 L230 766 L241 755 L241 287 L383 413 Q397 426 396 434.5 Q395 443 384 446 L338 457 L348 511 L587 511 L587 456 L558 450 Q540 445 528 439 Q516 433 499 419 L357 300 L511 117 Q533 91 550 78.5 Q567 66 591 66 Q611 66 630 74 L643 29 Z M317 -66 Q353 -66 373 -87 Q393 -108 393 -143 Q393 -181 367 -222.5 Q341 -264 285 -293 L253 -256 Q279 -235 291 -217.5 Q303 -200 306 -178 L295 -178 Q268 -178 256.5 -164 Q245 -150 245 -129 Q245 -98 265.5 -82 Q286 -66 317 -66 Z " />
<glyph glyph-name="kgreenlandic" unicode="&#x138;" horiz-adv-x="633" d="M643 29 Q622 9 593 -1.5 Q564 -12 538 -12 Q493 -12 462.5 5.5 Q432 23 398 67 L241 266 L241 110 Q241 87 245.5 77 Q250 67 268 63 L301 55 L301 0 L37 0 L37 55 L86 64 Q107 68 112 78 Q117 88 117 111 L117 385 Q117 419 111 430 Q105 441 78 445 L32 452 L39 509 L229 518 L241 511 L241 285 L383 413 Q397 426 396 434.5 Q395 443 384 446 L338 457 L348 511 L587 511 L587 456 L558 450 Q540 445 528 439 Q516 433 499 419 L357 300 L511 117 Q533 91 549.5 79 Q566 67 589 66 Q609 66 630 74 L643 29 Z " />
<glyph glyph-name="Lacute" unicode="&#x139;" horiz-adv-x="632" d="M106 789 L244 913 Q269 935 286 935 Q309 935 323 916.5 Q337 898 337 878 Q337 853 325.5 840 Q314 827 290 817 L130 751 L106 789 Z M54 55 L109 65 Q131 69 135.5 79.5 Q140 90 140 116 L140 588 Q140 611 135.5 620.5 Q131 630 108 635 L54 645 L54 700 L367 700 L367 644 L302 635 Q280 631 274.5 622 Q269 613 269 590 L269 64 L366 64 Q400 64 423.5 71.5 Q447 79 464.5 97.5 Q482 116 495.5 146.5 Q509 177 523 222 L591 222 L564 0 L54 0 L54 55 Z " />
<glyph glyph-name="lacute" unicode="&#x13a;" horiz-adv-x="342" d="M39 833 L177 957 Q202 979 219 979 Q242 979 256 960.5 Q270 942 270 922 Q270 897 258.5 884 Q247 871 223 861 L63 795 L39 833 Z M36 56 L85 64 Q106 68 111 78 Q116 88 116 111 L116 639 Q116 668 109.5 678.5 Q103 689 76 694 L31 702 L38 760 L229 766 L240 755 L240 110 Q240 87 244.5 78 Q249 69 269 65 L318 55 L318 0 L36 0 L36 56 Z " />
<glyph glyph-name="Lcommaaccent" unicode="&#x13b;" horiz-adv-x="632" d="M54 55 L109 65 Q131 69 135.5 79.5 Q140 90 140 116 L140 588 Q140 611 135.5 620.5 Q131 630 108 635 L54 645 L54 700 L367 700 L367 644 L302 635 Q280 631 274.5 622 Q269 613 269 590 L269 64 L366 64 Q400 64 423.5 71.5 Q447 79 464.5 97.5 Q482 116 495.5 146.5 Q509 177 523 222 L591 222 L564 0 L54 0 L54 55 Z M260 -256 Q286 -235 298 -217.5 Q310 -200 313 -178 L302 -178 Q275 -178 263.5 -164 Q252 -150 252 -129 Q252 -98 272.5 -82 Q293 -66 324 -66 Q360 -66 380 -87 Q400 -108 400 -143 Q400 -181 374 -222.5 Q348 -264 292 -293 L260 -256 Z " />
<glyph glyph-name="lcommaaccent" unicode="&#x13c;" horiz-adv-x="342" d="M36 56 L85 64 Q106 68 111 78 Q116 88 116 111 L116 639 Q116 668 109.5 678.5 Q103 689 76 694 L31 702 L38 760 L229 766 L240 755 L240 110 Q240 87 244.5 78 Q249 69 269 65 L318 55 L318 0 L36 0 L36 56 Z M108 -256 Q134 -235 146 -217.5 Q158 -200 161 -178 L150 -178 Q123 -178 111.5 -164 Q100 -150 100 -129 Q100 -98 120.5 -82 Q141 -66 172 -66 Q208 -66 228 -87 Q248 -108 248 -143 Q248 -181 222 -222.5 Q196 -264 140 -293 L108 -256 Z " />
<glyph glyph-name="Lcaron" unicode="&#x13d;" horiz-adv-x="632" d="M418 559 Q443 597 451.5 617 Q460 637 460 654 Q460 665 454.5 672 Q449 679 441 687 Q430 696 424 705.5 Q418 715 418 729 Q418 754 436.5 768.5 Q455 783 484 783 Q518 783 535 760.5 Q552 738 552 709 Q552 674 529 625 Q506 576 453 528 L418 559 Z M54 55 L109 65 Q131 69 135.5 79.5 Q140 90 140 116 L140 588 Q140 611 135.5 620.5 Q131 630 108 635 L54 645 L54 700 L367 700 L367 644 L302 635 Q280 631 274.5 622 Q269 613 269 590 L269 64 L366 64 Q400 64 423.5 71.5 Q447 79 464.5 97.5 Q482 116 495.5 146.5 Q509 177 523 222 L591 222 L564 0 L54 0 L54 55 Z " />
<glyph glyph-name="lcaron" unicode="&#x13e;" horiz-adv-x="422" d="M285 544 Q310 582 318.5 602 Q327 622 327 639 Q327 650 321.5 657 Q316 664 308 672 Q297 681 291 690.5 Q285 700 285 714 Q285 739 303.5 753.5 Q322 768 351 768 Q385 768 402 745.5 Q419 723 419 694 Q419 659 396 610 Q373 561 320 513 L285 544 Z M36 56 L85 64 Q106 68 111 78 Q116 88 116 111 L116 639 Q116 668 109.5 678.5 Q103 689 76 694 L31 702 L38 760 L229 766 L240 755 L240 110 Q240 87 244.5 78 Q249 69 269 65 L318 55 L318 0 L36 0 L36 56 Z " />
<glyph glyph-name="Ldot" unicode="&#x13f;" horiz-adv-x="632" d="M54 55 L109 65 Q131 69 135.5 79.5 Q140 90 140 116 L140 588 Q140 611 135.5 620.5 Q131 630 108 635 L54 645 L54 700 L367 700 L367 644 L302 635 Q280 631 274.5 622 Q269 613 269 590 L269 64 L366 64 Q400 64 423.5 71.5 Q447 79 464.5 97.5 Q482 116 495.5 146.5 Q509 177 523 222 L591 222 L564 0 L54 0 L54 55 Z M506 309 Q468 309 444.5 330.5 Q421 352 421 388 Q421 423 444.5 445 Q468 467 506 467 Q546 467 568.5 445.5 Q591 424 591 388 Q591 353 567.5 331 Q544 309 506 309 Z " />
<glyph glyph-name="ldot" unicode="&#x140;" horiz-adv-x="409" d="M36 56 L85 64 Q106 68 111 78 Q116 88 116 111 L116 639 Q116 668 109.5 678.5 Q103 689 76 694 L31 702 L38 760 L229 766 L240 755 L240 110 Q240 87 244.5 78 Q249 69 269 65 L318 55 L318 0 L36 0 L36 56 Z M379 324 Q343 324 320 344.5 Q297 365 297 400 Q297 434 319.5 455 Q342 476 379 476 Q417 476 439 455.5 Q461 435 461 400 Q461 366 438 345 Q415 324 379 324 Z " />
<glyph glyph-name="Lslash" unicode="&#x141;" horiz-adv-x="632" d="M591 222 L564 0 L54 0 L54 55 L109 65 Q131 69 135.5 79.5 Q140 90 140 116 L140 280 L28 221 L28 304 L140 362 L140 588 Q140 611 135.5 620.5 Q131 630 108 635 L54 645 L54 700 L367 700 L367 644 L302 635 Q280 631 274.5 622 Q269 613 269 590 L269 413 L449 510 L449 428 L269 332 L269 64 L366 64 Q400 64 423.5 71.5 Q447 79 464.5 97.5 Q482 116 495.5 146.5 Q509 177 523 222 L591 222 Z " />
<glyph glyph-name="lslash" unicode="&#x142;" horiz-adv-x="374" d="M249 388 L249 110 Q249 87 253.5 78 Q258 69 278 65 L327 55 L327 0 L45 0 L45 56 L94 64 Q115 68 120 78 Q125 88 125 111 L125 337 L24 285 L24 371 L125 422 L125 639 Q125 668 118.5 678.5 Q112 689 85 694 L40 702 L47 760 L238 766 L249 755 L249 472 L349 527 L349 442 L249 388 Z " />
<glyph glyph-name="Nacute" unicode="&#x143;" horiz-adv-x="818" d="M315 789 L453 913 Q478 935 495 935 Q518 935 532 916.5 Q546 898 546 878 Q546 853 534.5 840 Q523 827 499 817 L339 751 L315 789 Z M55 55 L111 65 Q132 69 136.5 79.5 Q141 90 141 115 L141 589 Q141 612 136 621.5 Q131 631 109 635 L55 645 L55 700 L287 700 L610 155 L611 158 L611 589 Q611 612 606.5 621.5 Q602 631 580 635 L526 645 L526 700 L779 700 L779 645 L724 635 Q702 631 697.5 619.5 Q693 608 693 585 L693 0 L560 0 L225 560 L223 557 L223 111 Q223 88 228 79 Q233 70 255 65 L308 55 L308 0 L55 0 L55 55 Z " />
<glyph glyph-name="nacute" unicode="&#x144;" horiz-adv-x="666" d="M255 611 L370 760 Q382 776 390 782.5 Q398 789 409 789 Q438 789 453.5 769.5 Q469 750 469 731 Q469 696 433 675 L284 580 L255 611 Z M42 55 L90 64 Q110 68 113 79.5 Q116 91 116 112 L116 382 Q116 416 110.5 428 Q105 440 82 444 L33 451 L40 507 L210 518 L222 511 L229 422 L232 422 Q242 440 256.5 458 Q271 476 291 491 Q311 506 338 515.5 Q365 525 401 525 Q450 525 482 511 Q514 497 532.5 474 Q551 451 558 420 Q565 389 565 354 L565 104 Q565 84 570 75.5 Q575 67 596 63 L643 55 L643 0 L372 0 L372 54 L411 62 Q431 66 436 74.5 Q441 83 441 104 L441 314 Q441 341 438.5 363 Q436 385 427.5 400.5 Q419 416 402 425 Q385 434 356 434 Q306 434 273 402.5 Q240 371 240 301 L240 108 Q240 87 244 78 Q248 69 265 65 L311 54 L311 0 L42 0 L42 55 Z " />
<glyph glyph-name="Ncommaaccent" unicode="&#x145;" horiz-adv-x="818" d="M55 55 L111 65 Q132 69 136.5 79.5 Q141 90 141 115 L141 589 Q141 612 136 621.5 Q131 631 109 635 L55 645 L55 700 L287 700 L610 155 L611 158 L611 589 Q611 612 606.5 621.5 Q602 631 580 635 L526 645 L526 700 L779 700 L779 645 L724 635 Q702 631 697.5 619.5 Q693 608 693 585 L693 0 L560 0 L225 560 L223 557 L223 111 Q223 88 228 79 Q233 70 255 65 L308 55 L308 0 L55 0 L55 55 Z M345 -256 Q371 -235 383 -217.5 Q395 -200 398 -178 L387 -178 Q360 -178 348.5 -164 Q337 -150 337 -129 Q337 -98 357.5 -82 Q378 -66 409 -66 Q445 -66 465 -87 Q485 -108 485 -143 Q485 -181 459 -222.5 Q433 -264 377 -293 L345 -256 Z " />
<glyph glyph-name="ncommaaccent" unicode="&#x146;" horiz-adv-x="666" d="M42 55 L90 64 Q110 68 113 79.5 Q116 91 116 112 L116 382 Q116 416 110.5 428 Q105 440 82 444 L33 451 L40 507 L210 518 L222 511 L229 422 L232 422 Q242 440 256.5 458 Q271 476 291 491 Q311 506 338 515.5 Q365 525 401 525 Q450 525 482 511 Q514 497 532.5 474 Q551 451 558 420 Q565 389 565 354 L565 104 Q565 84 570 75.5 Q575 67 596 63 L643 55 L643 0 L372 0 L372 54 L411 62 Q431 66 436 74.5 Q441 83 441 104 L441 314 Q441 341 438.5 363 Q436 385 427.5 400.5 Q419 416 402 425 Q385 434 356 434 Q306 434 273 402.5 Q240 371 240 301 L240 108 Q240 87 244 78 Q248 69 265 65 L311 54 L311 0 L42 0 L42 55 Z M274 -256 Q300 -235 312 -217.5 Q324 -200 327 -178 L316 -178 Q289 -178 277.5 -164 Q266 -150 266 -129 Q266 -98 286.5 -82 Q307 -66 338 -66 Q374 -66 394 -87 Q414 -108 414 -143 Q414 -181 388 -222.5 Q362 -264 306 -293 L274 -256 Z " />
<glyph glyph-name="Ncaron" unicode="&#x147;" horiz-adv-x="818" d="M415 752 Q402 752 391 758 Q380 764 363 784 L242 916 L271 953 L415 868 L559 953 L588 917 L463 780 Q450 766 439.5 759 Q429 752 415 752 Z M55 55 L111 65 Q132 69 136.5 79.5 Q141 90 141 115 L141 589 Q141 612 136 621.5 Q131 631 109 635 L55 645 L55 700 L287 700 L610 155 L611 158 L611 589 Q611 612 606.5 621.5 Q602 631 580 635 L526 645 L526 700 L779 700 L779 645 L724 635 Q702 631 697.5 619.5 Q693 608 693 585 L693 0 L560 0 L225 560 L223 557 L223 111 Q223 88 228 79 Q233 70 255 65 L308 55 L308 0 L55 0 L55 55 Z " />
<glyph glyph-name="ncaron" unicode="&#x148;" horiz-adv-x="666" d="M337 580 Q320 580 309 588 Q298 596 281 617 L169 760 L200 793 L337 694 L476 793 L507 761 L389 609 Q375 592 363 586 Q351 580 337 580 Z M42 55 L90 64 Q110 68 113 79.5 Q116 91 116 112 L116 382 Q116 416 110.5 428 Q105 440 82 444 L33 451 L40 507 L210 518 L222 511 L229 422 L232 422 Q242 440 256.5 458 Q271 476 291 491 Q311 506 338 515.5 Q365 525 401 525 Q450 525 482 511 Q514 497 532.5 474 Q551 451 558 420 Q565 389 565 354 L565 104 Q565 84 570 75.5 Q575 67 596 63 L643 55 L643 0 L372 0 L372 54 L411 62 Q431 66 436 74.5 Q441 83 441 104 L441 314 Q441 341 438.5 363 Q436 385 427.5 400.5 Q419 416 402 425 Q385 434 356 434 Q306 434 273 402.5 Q240 371 240 301 L240 108 Q240 87 244 78 Q248 69 265 65 L311 54 L311 0 L42 0 L42 55 Z " />
<glyph glyph-name="napostrophe" unicode="&#x149;" horiz-adv-x="734" d="M-25 520 Q1 540 12.5 557.5 Q24 575 27 596 L16 596 Q-10 596 -21.5 609.5 Q-33 623 -33 643 Q-33 673 -13 689 Q7 705 37 705 Q72 705 91.5 684.5 Q111 664 111 630 Q111 593 85.5 552.5 Q60 512 6 484 L-25 520 Z M110 55 L158 64 Q178 68 181 79.5 Q184 91 184 112 L184 382 Q184 416 178.5 428 Q173 440 150 444 L101 451 L108 507 L278 518 L290 511 L297 422 L300 422 Q310 440 324.5 458 Q339 476 359 491 Q379 506 406 515.5 Q433 525 469 525 Q518 525 550 511 Q582 497 600.5 474 Q619 451 626 420 Q633 389 633 354 L633 104 Q633 84 638 75.5 Q643 67 664 63 L711 55 L711 0 L440 0 L440 54 L479 62 Q499 66 504 74.5 Q509 83 509 104 L509 314 Q509 341 506.5 363 Q504 385 495.5 400.5 Q487 416 470 425 Q453 434 424 434 Q374 434 341 402.5 Q308 371 308 301 L308 108 Q308 87 312 78 Q316 69 333 65 L379 54 L379 0 L110 0 L110 55 Z " />
<glyph glyph-name="Eng" unicode="&#x14a;" horiz-adv-x="818" d="M779 645 L724 635 Q702 631 697.5 619.5 Q693 608 693 585 L693 95 Q693 27 682 -23.5 Q671 -74 649.5 -112 Q628 -150 596 -178 Q564 -206 521 -229 L481 -182 Q526 -146 545 -101.5 Q564 -57 567 6 L226 560 L223 560 L223 111 Q223 88 228 79 Q233 70 255 65 L308 55 L308 0 L55 0 L55 55 L111 65 Q132 69 136.5 79.5 Q141 90 141 115 L141 589 Q141 612 136 621.5 Q131 631 109 635 L55 645 L55 700 L287 700 L609 173 L611 173 L611 589 Q611 612 606.5 621.5 Q602 631 580 635 L526 645 L526 700 L779 700 L779 645 Z " />
<glyph glyph-name="eng" unicode="&#x14b;" horiz-adv-x="643" d="M401 525 Q450 525 482 511 Q514 497 532.5 474 Q551 451 558 420 Q565 389 565 354 L565 95 Q565 27 554.5 -23.5 Q544 -74 522.5 -112 Q501 -150 469 -178 Q437 -206 394 -229 L354 -182 Q405 -142 423 -90.5 Q441 -39 441 34 L441 314 Q441 341 438.5 363 Q436 385 427.5 400.5 Q419 416 402 425 Q385 434 356 434 Q306 434 273 402.5 Q240 371 240 301 L240 108 Q240 87 244 78 Q248 69 265 65 L311 54 L311 0 L42 0 L42 55 L90 64 Q110 68 113 79.5 Q116 91 116 112 L116 382 Q116 416 110.5 428 Q105 440 82 444 L33 451 L40 507 L210 518 L222 511 L229 422 L232 422 Q242 440 256.5 458 Q271 476 291 491 Q311 506 338 515.5 Q365 525 401 525 Z " />
<glyph glyph-name="Omacron" unicode="&#x14c;" horiz-adv-x="775" d="M235 880 L545 880 L545 794 L235 794 L235 880 Z M386 -14 Q303 -14 240 12.5 Q177 39 135 86.5 Q93 134 72 198 Q51 262 51 337 Q51 437 79 508.5 Q107 580 154.5 625.5 Q202 671 264.5 692.5 Q327 714 396 714 Q464 714 523.5 692.5 Q583 671 627.5 627.5 Q672 584 697.5 519.5 Q723 455 723 368 Q723 283 699.5 213 Q676 143 632.5 92.5 Q589 42 526.5 14 Q464 -14 386 -14 Z M396 63 Q484 63 535 132.5 Q586 202 586 350 Q586 417 572 470.5 Q558 524 532 561 Q506 598 467.5 618 Q429 638 381 638 Q292 638 240 569.5 Q188 501 188 357 Q188 291 201 237 Q214 183 240.5 144 Q267 105 306 84 Q345 63 396 63 Z " />
<glyph glyph-name="omacron" unicode="&#x14d;" horiz-adv-x="591" d="M145 715 L443 715 L443 630 L145 630 L145 715 Z M292 -14 Q229 -14 181.5 5.5 Q134 25 102.5 59 Q71 93 55 140 Q39 187 39 241 Q39 317 60.5 371 Q82 425 119 459 Q156 493 204 509 Q252 525 306 525 Q359 525 404.5 509 Q450 493 483 461 Q516 429 534.5 381 Q553 333 553 270 Q553 202 534 149 Q515 96 480.5 60 Q446 24 398 5 Q350 -14 292 -14 Z M306 58 Q420 58 420 246 Q420 352 386 403.5 Q352 455 290 455 Q235 455 203 413.5 Q171 372 171 275 Q171 172 204 115 Q237 58 306 58 Z " />
<glyph glyph-name="Obreve" unicode="&#x14e;" horiz-adv-x="775" d="M388 752 Q348 752 319.5 765.5 Q291 779 271.5 803 Q252 827 241 859 Q230 891 226 928 L276 942 Q292 892 321 870 Q350 848 391 848 Q435 848 463.5 873 Q492 898 506 940 L556 927 Q553 894 540.5 862.5 Q528 831 507 806.5 Q486 782 456.5 767 Q427 752 388 752 Z M386 -14 Q303 -14 240 12.5 Q177 39 135 86.5 Q93 134 72 198 Q51 262 51 337 Q51 437 79 508.5 Q107 580 154.5 625.5 Q202 671 264.5 692.5 Q327 714 396 714 Q464 714 523.5 692.5 Q583 671 627.5 627.5 Q672 584 697.5 519.5 Q723 455 723 368 Q723 283 699.5 213 Q676 143 632.5 92.5 Q589 42 526.5 14 Q464 -14 386 -14 Z M396 63 Q484 63 535 132.5 Q586 202 586 350 Q586 417 572 470.5 Q558 524 532 561 Q506 598 467.5 618 Q429 638 381 638 Q292 638 240 569.5 Q188 501 188 357 Q188 291 201 237 Q214 183 240.5 144 Q267 105 306 84 Q345 63 396 63 Z " />
<glyph glyph-name="obreve" unicode="&#x14f;" horiz-adv-x="591" d="M290 587 Q252 587 224 601 Q196 615 176.5 640 Q157 665 146 699 Q135 733 131 772 L181 784 Q198 731 226.5 706.5 Q255 682 297 682 Q342 682 368 708.5 Q394 735 408 782 L458 772 Q454 736 442 703 Q430 670 409 644 Q388 618 358.5 602.5 Q329 587 290 587 Z M292 -14 Q229 -14 181.5 5.5 Q134 25 102.5 59 Q71 93 55 140 Q39 187 39 241 Q39 317 60.5 371 Q82 425 119 459 Q156 493 204 509 Q252 525 306 525 Q359 525 404.5 509 Q450 493 483 461 Q516 429 534.5 381 Q553 333 553 270 Q553 202 534 149 Q515 96 480.5 60 Q446 24 398 5 Q350 -14 292 -14 Z M306 58 Q420 58 420 246 Q420 352 386 403.5 Q352 455 290 455 Q235 455 203 413.5 Q171 372 171 275 Q171 172 204 115 Q237 58 306 58 Z " />
<glyph glyph-name="Ohungarumlaut" unicode="&#x150;" horiz-adv-x="775" d="M258 785 L373 919 Q382 929 392 937 Q402 945 416 945 Q439 945 452 926.5 Q465 908 465 885 Q465 866 453.5 853 Q442 840 422 829 L284 751 L258 785 Z M438 786 L561 910 Q572 921 581.5 927 Q591 933 602 933 Q625 933 637.5 915.5 Q650 898 650 878 Q650 855 638 842 Q626 829 603 818 L462 751 L438 786 Z M386 -14 Q303 -14 240 12.5 Q177 39 135 86.5 Q93 134 72 198 Q51 262 51 337 Q51 437 79 508.5 Q107 580 154.5 625.5 Q202 671 264.5 692.5 Q327 714 396 714 Q464 714 523.5 692.5 Q583 671 627.5 627.5 Q672 584 697.5 519.5 Q723 455 723 368 Q723 283 699.5 213 Q676 143 632.5 92.5 Q589 42 526.5 14 Q464 -14 386 -14 Z M396 63 Q484 63 535 132.5 Q586 202 586 350 Q586 417 572 470.5 Q558 524 532 561 Q506 598 467.5 618 Q429 638 381 638 Q292 638 240 569.5 Q188 501 188 357 Q188 291 201 237 Q214 183 240.5 144 Q267 105 306 84 Q345 63 396 63 Z " />
<glyph glyph-name="ohungarumlaut" unicode="&#x151;" horiz-adv-x="591" d="M176 611 L274 760 Q285 776 293.5 782.5 Q302 789 315 789 Q340 789 351 773 Q362 757 362 738 Q362 705 329 681 L205 580 L176 611 Z M333 611 L441 756 Q453 772 462 778.5 Q471 785 484 785 Q508 785 519 769 Q530 753 530 734 Q530 714 520 700 Q510 686 494 675 L362 580 L333 611 Z M292 -14 Q229 -14 181.5 5.5 Q134 25 102.5 59 Q71 93 55 140 Q39 187 39 241 Q39 317 60.5 371 Q82 425 119 459 Q156 493 204 509 Q252 525 306 525 Q359 525 404.5 509 Q450 493 483 461 Q516 429 534.5 381 Q553 333 553 270 Q553 202 534 149 Q515 96 480.5 60 Q446 24 398 5 Q350 -14 292 -14 Z M306 58 Q420 58 420 246 Q420 352 386 403.5 Q352 455 290 455 Q235 455 203 413.5 Q171 372 171 275 Q171 172 204 115 Q237 58 306 58 Z " />
<glyph glyph-name="OE" unicode="&#x152;" horiz-adv-x="1065" d="M375 -14 Q297 -14 236.5 12.5 Q176 39 135 86.5 Q94 134 72.5 198 Q51 262 51 337 Q51 437 78.5 508.5 Q106 580 152 625.5 Q198 671 256.5 692.5 Q315 714 377 714 Q443 714 494 692.5 Q545 671 583 633 L583 700 L963 700 L1001 534 L941 517 Q927 555 913.5 578.5 Q900 602 883 614.5 Q866 627 843 631.5 Q820 636 786 636 L693 636 L693 389 L757 389 Q788 389 804 391.5 Q820 394 828 402.5 Q836 411 840 427.5 Q844 444 850 472 L904 479 L904 248 L850 239 Q846 266 842.5 283 Q839 300 831.5 309 Q824 318 809.5 321 Q795 324 768 324 L693 324 L693 64 L815 64 Q851 64 875 68 Q899 72 914.5 85 Q930 98 941 122 Q952 146 962 186 L1025 186 L1001 0 L583 0 L583 75 Q544 32 492.5 9 Q441 -14 375 -14 Z M389 63 Q473 63 524 132.5 Q575 202 575 350 Q575 486 523 562 Q471 638 374 638 Q291 638 239.5 570 Q188 502 188 358 Q188 292 201.5 237.5 Q215 183 240.5 144.5 Q266 106 303.5 84.5 Q341 63 389 63 Z " />
<glyph glyph-name="oe" unicode="&#x153;" horiz-adv-x="899" d="M288 -14 Q226 -14 179.5 5.5 Q133 25 101.5 59 Q70 93 54.5 140 Q39 187 39 241 Q39 317 60.5 371 Q82 425 118 459 Q154 493 201.5 509 Q249 525 300 525 Q362 525 408.5 502.5 Q455 480 487 437 Q519 481 566.5 503 Q614 525 672 525 Q713 525 747.5 512.5 Q782 500 807.5 476 Q833 452 847 417.5 Q861 383 861 339 Q861 316 857.5 289.5 Q854 263 847 239 L543 239 Q545 164 582.5 121.5 Q620 79 685 79 Q733 79 766.5 96.5 Q800 114 826 137 L867 94 Q852 75 832 55.5 Q812 36 786 20.5 Q760 5 728 -4.5 Q696 -14 657 -14 Q591 -14 547.5 10 Q504 34 476 76 Q444 34 396.5 10 Q349 -14 288 -14 Z M738 307 Q740 317 740.5 330 Q741 343 741 357 Q741 413 719 436 Q697 459 656 459 Q627 459 606.5 446.5 Q586 434 573 413 Q560 392 553.5 364.5 Q547 337 545 307 L738 307 Z M306 58 Q420 58 420 246 Q420 352 386 403.5 Q352 455 290 455 Q235 455 203 413.5 Q171 372 171 275 Q171 172 204 115 Q237 58 306 58 Z " />
<glyph glyph-name="Racute" unicode="&#x154;" horiz-adv-x="721" d="M241 789 L379 913 Q404 935 421 935 Q444 935 458 916.5 Q472 898 472 878 Q472 853 460.5 840 Q449 827 425 817 L265 751 L241 789 Z M596 -14 Q561 -14 537.5 -5.5 Q514 3 497 19 Q480 35 467.5 59.5 Q455 84 441 115 L392 229 Q382 253 373.5 269 Q365 285 354.5 295 Q344 305 330 309.5 Q316 314 295 314 Q287 314 281 313.5 Q275 313 269 312 L269 114 Q269 89 276 78 Q283 67 307 64 L367 56 L367 0 L54 0 L54 56 L110 65 Q132 69 136.5 81 Q141 93 141 116 L141 588 Q141 611 136 621 Q131 631 108 635 L54 644 L54 700 L351 700 Q403 700 448.5 691.5 Q494 683 527.5 663 Q561 643 580 609 Q599 575 599 525 Q599 482 580.5 449.5 Q562 417 534.5 395.5 Q507 374 476 361.5 Q445 349 420 344 L420 341 Q465 328 488.5 304.5 Q512 281 528 243 L562 163 Q582 117 598.5 89.5 Q615 62 649 62 Q660 62 671 63.5 Q682 65 696 70 L708 27 Q686 7 656 -3.5 Q626 -14 596 -14 Z M307 373 Q349 373 378.5 384 Q408 395 427 414 Q446 433 454.5 458.5 Q463 484 463 514 Q463 583 423.5 609.5 Q384 636 316 636 L270 636 L270 375 Q275 375 285.5 374 Q296 373 307 373 Z " />
<glyph glyph-name="racute" unicode="&#x155;" horiz-adv-x="504" d="M191 611 L306 760 Q318 776 326 782.5 Q334 789 345 789 Q374 789 389.5 769.5 Q405 750 405 731 Q405 696 369 675 L220 580 L191 611 Z M42 55 L90 64 Q109 68 112.5 79.5 Q116 91 116 112 L116 381 Q116 415 110.5 427 Q105 439 82 443 L33 450 L40 507 L208 518 L220 511 L228 424 L231 424 Q240 440 253 458 Q266 476 284 491 Q302 506 326.5 515.5 Q351 525 382 525 Q430 525 463 499.5 Q496 474 496 421 Q496 382 476.5 359.5 Q457 337 419 337 Q387 337 370.5 350.5 Q354 364 354 384 Q354 395 358 408.5 Q362 422 375 446 Q350 453 325.5 444 Q301 435 282 414 Q263 393 251.5 363 Q240 333 240 298 L240 110 Q240 89 243.5 79.5 Q247 70 265 67 L351 54 L351 0 L42 0 L42 55 Z " />
<glyph glyph-name="Rcommaaccent" unicode="&#x156;" horiz-adv-x="721" d="M596 -14 Q561 -14 537.5 -5.5 Q514 3 497 19 Q480 35 467.5 59.5 Q455 84 441 115 L392 229 Q382 253 373.5 269 Q365 285 354.5 295 Q344 305 330 309.5 Q316 314 295 314 Q287 314 281 313.5 Q275 313 269 312 L269 114 Q269 89 276 78 Q283 67 307 64 L367 56 L367 0 L54 0 L54 56 L110 65 Q132 69 136.5 81 Q141 93 141 116 L141 588 Q141 611 136 621 Q131 631 108 635 L54 644 L54 700 L351 700 Q403 700 448.5 691.5 Q494 683 527.5 663 Q561 643 580 609 Q599 575 599 525 Q599 482 580.5 449.5 Q562 417 534.5 395.5 Q507 374 476 361.5 Q445 349 420 344 L420 341 Q465 328 488.5 304.5 Q512 281 528 243 L562 163 Q582 117 598.5 89.5 Q615 62 649 62 Q660 62 671 63.5 Q682 65 696 70 L708 27 Q686 7 656 -3.5 Q626 -14 596 -14 Z M307 373 Q349 373 378.5 384 Q408 395 427 414 Q446 433 454.5 458.5 Q463 484 463 514 Q463 583 423.5 609.5 Q384 636 316 636 L270 636 L270 375 Q275 375 285.5 374 Q296 373 307 373 Z M296 -246 Q322 -225 334 -207.5 Q346 -190 349 -168 L338 -168 Q311 -168 299.5 -154 Q288 -140 288 -119 Q288 -88 308.5 -72 Q329 -56 360 -56 Q396 -56 416 -77 Q436 -98 436 -133 Q436 -171 410 -212.5 Q384 -254 328 -283 L296 -246 Z " />
<glyph glyph-name="rcommaaccent" unicode="&#x157;" horiz-adv-x="504" d="M42 55 L90 64 Q109 68 112.5 79.5 Q116 91 116 112 L116 381 Q116 415 110.5 427 Q105 439 82 443 L33 450 L40 507 L208 518 L220 511 L228 424 L231 424 Q240 440 253 458 Q266 476 284 491 Q302 506 326.5 515.5 Q351 525 382 525 Q430 525 463 499.5 Q496 474 496 421 Q496 382 476.5 359.5 Q457 337 419 337 Q387 337 370.5 350.5 Q354 364 354 384 Q354 395 358 408.5 Q362 422 375 446 Q350 453 325.5 444 Q301 435 282 414 Q263 393 251.5 363 Q240 333 240 298 L240 110 Q240 89 243.5 79.5 Q247 70 265 67 L351 54 L351 0 L42 0 L42 55 Z M108 -256 Q134 -235 146 -217.5 Q158 -200 161 -178 L150 -178 Q123 -178 111.5 -164 Q100 -150 100 -129 Q100 -98 120.5 -82 Q141 -66 172 -66 Q208 -66 228 -87 Q248 -108 248 -143 Q248 -181 222 -222.5 Q196 -264 140 -293 L108 -256 Z " />
<glyph glyph-name="Rcaron" unicode="&#x158;" horiz-adv-x="721" d="M323 752 Q310 752 299 758 Q288 764 271 784 L150 916 L179 953 L323 868 L467 953 L496 917 L371 780 Q358 766 347.5 759 Q337 752 323 752 Z M596 -14 Q561 -14 537.5 -5.5 Q514 3 497 19 Q480 35 467.5 59.5 Q455 84 441 115 L392 229 Q382 253 373.5 269 Q365 285 354.5 295 Q344 305 330 309.5 Q316 314 295 314 Q287 314 281 313.5 Q275 313 269 312 L269 114 Q269 89 276 78 Q283 67 307 64 L367 56 L367 0 L54 0 L54 56 L110 65 Q132 69 136.5 81 Q141 93 141 116 L141 588 Q141 611 136 621 Q131 631 108 635 L54 644 L54 700 L351 700 Q403 700 448.5 691.5 Q494 683 527.5 663 Q561 643 580 609 Q599 575 599 525 Q599 482 580.5 449.5 Q562 417 534.5 395.5 Q507 374 476 361.5 Q445 349 420 344 L420 341 Q465 328 488.5 304.5 Q512 281 528 243 L562 163 Q582 117 598.5 89.5 Q615 62 649 62 Q660 62 671 63.5 Q682 65 696 70 L708 27 Q686 7 656 -3.5 Q626 -14 596 -14 Z M307 373 Q349 373 378.5 384 Q408 395 427 414 Q446 433 454.5 458.5 Q463 484 463 514 Q463 583 423.5 609.5 Q384 636 316 636 L270 636 L270 375 Q275 375 285.5 374 Q296 373 307 373 Z " />
<glyph glyph-name="rcaron" unicode="&#x159;" horiz-adv-x="504" d="M272 580 Q255 580 244 588 Q233 596 216 617 L104 760 L135 793 L272 694 L411 793 L442 761 L324 609 Q310 592 298 586 Q286 580 272 580 Z M42 55 L90 64 Q109 68 112.5 79.5 Q116 91 116 112 L116 381 Q116 415 110.5 427 Q105 439 82 443 L33 450 L40 507 L208 518 L220 511 L228 424 L231 424 Q240 440 253 458 Q266 476 284 491 Q302 506 326.5 515.5 Q351 525 382 525 Q430 525 463 499.5 Q496 474 496 421 Q496 382 476.5 359.5 Q457 337 419 337 Q387 337 370.5 350.5 Q354 364 354 384 Q354 395 358 408.5 Q362 422 375 446 Q350 453 325.5 444 Q301 435 282 414 Q263 393 251.5 363 Q240 333 240 298 L240 110 Q240 89 243.5 79.5 Q247 70 265 67 L351 54 L351 0 L42 0 L42 55 Z " />
<glyph glyph-name="Sacute" unicode="&#x15a;" horiz-adv-x="600" d="M206 789 L344 913 Q369 935 386 935 Q409 935 423 916.5 Q437 898 437 878 Q437 853 425.5 840 Q414 827 390 817 L230 751 L206 789 Z M318 -14 Q264 -14 216.5 4.5 Q169 23 140 47 L126 -6 L69 -6 L51 202 L119 210 Q146 140 193 101.5 Q240 63 305 63 Q338 63 361.5 71.5 Q385 80 399 94.5 Q413 109 419.5 128 Q426 147 426 167 Q426 196 414.5 216 Q403 236 383 250.5 Q363 265 335 276.5 Q307 288 275 298 Q232 312 195 328.5 Q158 345 130.5 369 Q103 393 87.5 427 Q72 461 72 511 Q72 548 85 584 Q98 620 125 649 Q152 678 194.5 696 Q237 714 296 714 Q349 714 386.5 698 Q424 682 447 663 L460 714 L515 714 L537 506 L470 495 Q443 578 400.5 610.5 Q358 643 304 643 Q256 643 225 617.5 Q194 592 194 543 Q194 515 206 496 Q218 477 238.5 462.5 Q259 448 287 436.5 Q315 425 347 413 Q385 399 421.5 383.5 Q458 368 487 345 Q516 322 534 288 Q552 254 552 202 Q552 156 535 116.5 Q518 77 487.5 48 Q457 19 414 2.5 Q371 -14 318 -14 Z " />
<glyph glyph-name="sacute" unicode="&#x15b;" horiz-adv-x="469" d="M159 611 L274 760 Q286 776 294 782.5 Q302 789 313 789 Q342 789 357.5 769.5 Q373 750 373 731 Q373 696 337 675 L188 580 L159 611 Z M47 162 L114 166 Q126 133 141.5 111.5 Q157 90 175.5 77.5 Q194 65 213.5 60.5 Q233 56 252 56 Q289 56 311.5 75 Q334 94 334 128 Q334 157 313.5 171.5 Q293 186 261.5 196 Q230 206 194 214.5 Q158 223 126.5 240 Q95 257 74.5 286 Q54 315 54 365 Q54 399 66.5 428.5 Q79 458 103 479.5 Q127 501 161.5 513 Q196 525 240 525 Q272 525 303 516 Q334 507 352 493 L360 525 L412 525 L424 355 L357 360 Q343 412 311.5 437 Q280 462 239 462 Q201 462 181.5 445 Q162 428 162 400 Q162 372 182.5 357 Q203 342 234 332.5 Q265 323 301.5 314 Q338 305 369 287.5 Q400 270 420.5 239.5 Q441 209 441 157 Q441 124 429.5 93.5 Q418 63 394.5 39 Q371 15 335 0.5 Q299 -14 250 -14 Q205 -14 173.5 -3.5 Q142 7 124 19 L113 -14 L63 -14 L47 162 Z " />
<glyph glyph-name="Scircumflex" unicode="&#x15c;" horiz-adv-x="600" d="M133 782 L258 919 Q271 933 281.5 940 Q292 947 306 947 Q319 947 330 941 Q341 935 358 915 L479 783 L450 746 L306 831 L162 746 L133 782 Z M318 -14 Q264 -14 216.5 4.5 Q169 23 140 47 L126 -6 L69 -6 L51 202 L119 210 Q146 140 193 101.5 Q240 63 305 63 Q338 63 361.5 71.5 Q385 80 399 94.5 Q413 109 419.5 128 Q426 147 426 167 Q426 196 414.5 216 Q403 236 383 250.5 Q363 265 335 276.5 Q307 288 275 298 Q232 312 195 328.5 Q158 345 130.5 369 Q103 393 87.5 427 Q72 461 72 511 Q72 548 85 584 Q98 620 125 649 Q152 678 194.5 696 Q237 714 296 714 Q349 714 386.5 698 Q424 682 447 663 L460 714 L515 714 L537 506 L470 495 Q443 578 400.5 610.5 Q358 643 304 643 Q256 643 225 617.5 Q194 592 194 543 Q194 515 206 496 Q218 477 238.5 462.5 Q259 448 287 436.5 Q315 425 347 413 Q385 399 421.5 383.5 Q458 368 487 345 Q516 322 534 288 Q552 254 552 202 Q552 156 535 116.5 Q518 77 487.5 48 Q457 19 414 2.5 Q371 -14 318 -14 Z " />
<glyph glyph-name="scircumflex" unicode="&#x15d;" horiz-adv-x="469" d="M74 612 L192 764 Q206 781 218 787 Q230 793 244 793 Q261 793 272 785 Q283 777 300 757 L412 613 L381 580 L244 679 L105 580 L74 612 Z M47 162 L114 166 Q126 133 141.5 111.5 Q157 90 175.5 77.5 Q194 65 213.5 60.5 Q233 56 252 56 Q289 56 311.5 75 Q334 94 334 128 Q334 157 313.5 171.5 Q293 186 261.5 196 Q230 206 194 214.5 Q158 223 126.5 240 Q95 257 74.5 286 Q54 315 54 365 Q54 399 66.5 428.5 Q79 458 103 479.5 Q127 501 161.5 513 Q196 525 240 525 Q272 525 303 516 Q334 507 352 493 L360 525 L412 525 L424 355 L357 360 Q343 412 311.5 437 Q280 462 239 462 Q201 462 181.5 445 Q162 428 162 400 Q162 372 182.5 357 Q203 342 234 332.5 Q265 323 301.5 314 Q338 305 369 287.5 Q400 270 420.5 239.5 Q441 209 441 157 Q441 124 429.5 93.5 Q418 63 394.5 39 Q371 15 335 0.5 Q299 -14 250 -14 Q205 -14 173.5 -3.5 Q142 7 124 19 L113 -14 L63 -14 L47 162 Z " />
<glyph glyph-name="Scedilla" unicode="&#x15e;" horiz-adv-x="600" d="M552 202 Q552 157 535.5 118 Q519 79 489.5 50 Q460 21 418 4 Q376 -13 325 -14 L312 -50 Q363 -44 394.5 -67.5 Q426 -91 426 -134 Q426 -182 392.5 -208.5 Q359 -235 302 -235 Q283 -235 265.5 -230.5 Q248 -226 233.5 -220 Q219 -214 208.5 -207 Q198 -200 193 -195 L215 -150 Q232 -160 250.5 -165 Q269 -170 286 -170 Q304 -170 317.5 -160.5 Q331 -151 331 -131 Q331 -93 284 -93 Q274 -93 265 -94 Q256 -95 249 -97 L240 -73 L265 -9 Q227 -1 194 14 Q161 29 140 47 L126 -6 L69 -6 L51 202 L119 210 Q146 140 193 101.5 Q240 63 305 63 Q338 63 361.5 71.5 Q385 80 399 94.5 Q413 109 419.5 128 Q426 147 426 167 Q426 196 414.5 216 Q403 236 383 250.5 Q363 265 335 276.5 Q307 288 275 298 Q232 312 195 328.5 Q158 345 130.5 369 Q103 393 87.5 427 Q72 461 72 511 Q72 548 85 584 Q98 620 125 649 Q152 678 194.5 696 Q237 714 296 714 Q349 714 386.5 698 Q424 682 447 663 L460 714 L515 714 L537 506 L470 495 Q443 578 400.5 610.5 Q358 643 304 643 Q256 643 225 617.5 Q194 592 194 543 Q194 515 206 496 Q218 477 238.5 462.5 Q259 448 287 436.5 Q315 425 347 413 Q385 399 421.5 383.5 Q458 368 487 345 Q516 322 534 288 Q552 254 552 202 Z " />
<glyph glyph-name="scedilla" unicode="&#x15f;" horiz-adv-x="469" d="M441 157 Q441 126 430.5 96 Q420 66 398 42.5 Q376 19 342.5 3.5 Q309 -12 264 -14 L251 -50 Q302 -44 333.5 -67.5 Q365 -91 365 -134 Q365 -182 331.5 -208.5 Q298 -235 241 -235 Q222 -235 204.5 -230.5 Q187 -226 172.5 -220 Q158 -214 147.5 -207 Q137 -200 132 -195 L154 -150 Q171 -160 189.5 -165 Q208 -170 225 -170 Q243 -170 256.5 -160.5 Q270 -151 270 -131 Q270 -93 223 -93 Q213 -93 204 -94 Q195 -95 188 -97 L179 -73 L204 -10 Q177 -6 157 2 Q137 10 124 19 L113 -14 L63 -14 L47 162 L114 166 Q126 133 141.5 111.5 Q157 90 175.5 77.5 Q194 65 213.5 60.5 Q233 56 252 56 Q289 56 311.5 75 Q334 94 334 128 Q334 157 313.5 171.5 Q293 186 261.5 196 Q230 206 194 214.5 Q158 223 126.5 240 Q95 257 74.5 286 Q54 315 54 365 Q54 399 66.5 428.5 Q79 458 103 479.5 Q127 501 161.5 513 Q196 525 240 525 Q272 525 303 516 Q334 507 352 493 L360 525 L412 525 L424 355 L357 360 Q343 412 311.5 437 Q280 462 239 462 Q201 462 181.5 445 Q162 428 162 400 Q162 372 182.5 357 Q203 342 234 332.5 Q265 323 301.5 314 Q338 305 369 287.5 Q400 270 420.5 239.5 Q441 209 441 157 Z " />
<glyph glyph-name="Scaron" unicode="&#x160;" horiz-adv-x="600" d="M306 752 Q293 752 282 758 Q271 764 254 784 L133 916 L162 953 L306 868 L450 953 L479 917 L354 780 Q341 766 330.5 759 Q320 752 306 752 Z M318 -14 Q264 -14 216.5 4.5 Q169 23 140 47 L126 -6 L69 -6 L51 202 L119 210 Q146 140 193 101.5 Q240 63 305 63 Q338 63 361.5 71.5 Q385 80 399 94.5 Q413 109 419.5 128 Q426 147 426 167 Q426 196 414.5 216 Q403 236 383 250.5 Q363 265 335 276.5 Q307 288 275 298 Q232 312 195 328.5 Q158 345 130.5 369 Q103 393 87.5 427 Q72 461 72 511 Q72 548 85 584 Q98 620 125 649 Q152 678 194.5 696 Q237 714 296 714 Q349 714 386.5 698 Q424 682 447 663 L460 714 L515 714 L537 506 L470 495 Q443 578 400.5 610.5 Q358 643 304 643 Q256 643 225 617.5 Q194 592 194 543 Q194 515 206 496 Q218 477 238.5 462.5 Q259 448 287 436.5 Q315 425 347 413 Q385 399 421.5 383.5 Q458 368 487 345 Q516 322 534 288 Q552 254 552 202 Q552 156 535 116.5 Q518 77 487.5 48 Q457 19 414 2.5 Q371 -14 318 -14 Z " />
<glyph glyph-name="scaron" unicode="&#x161;" horiz-adv-x="469" d="M241 580 Q224 580 213 588 Q202 596 185 617 L73 760 L104 793 L241 694 L380 793 L411 761 L293 609 Q279 592 267 586 Q255 580 241 580 Z M47 162 L114 166 Q126 133 141.5 111.5 Q157 90 175.5 77.5 Q194 65 213.5 60.5 Q233 56 252 56 Q289 56 311.5 75 Q334 94 334 128 Q334 157 313.5 171.5 Q293 186 261.5 196 Q230 206 194 214.5 Q158 223 126.5 240 Q95 257 74.5 286 Q54 315 54 365 Q54 399 66.5 428.5 Q79 458 103 479.5 Q127 501 161.5 513 Q196 525 240 525 Q272 525 303 516 Q334 507 352 493 L360 525 L412 525 L424 355 L357 360 Q343 412 311.5 437 Q280 462 239 462 Q201 462 181.5 445 Q162 428 162 400 Q162 372 182.5 357 Q203 342 234 332.5 Q265 323 301.5 314 Q338 305 369 287.5 Q400 270 420.5 239.5 Q441 209 441 157 Q441 124 429.5 93.5 Q418 63 394.5 39 Q371 15 335 0.5 Q299 -14 250 -14 Q205 -14 173.5 -3.5 Q142 7 124 19 L113 -14 L63 -14 L47 162 Z " />
<glyph glyph-name="uni0162" unicode="&#x162;" horiz-adv-x="732" d="M700 499 L632 483 Q617 531 604 560.5 Q591 590 575 607 Q559 624 536 630 Q513 636 477 636 L430 636 L430 114 Q430 91 436 81 Q442 71 464 67 L531 56 L531 0 L391 0 L373 -50 Q424 -44 455.5 -67.5 Q487 -91 487 -134 Q487 -182 453.5 -208.5 Q420 -235 363 -235 Q344 -235 326.5 -230.5 Q309 -226 294.5 -220 Q280 -214 269.5 -207 Q259 -200 254 -195 L276 -150 Q293 -160 311.5 -165 Q330 -170 347 -170 Q365 -170 378.5 -160.5 Q392 -151 392 -131 Q392 -93 345 -93 Q335 -93 326 -94 Q317 -95 310 -97 L301 -73 L330 0 L200 0 L200 56 L268 67 Q290 70 295.5 82.5 Q301 95 301 118 L301 636 L264 636 Q227 636 202.5 630 Q178 624 160.5 607 Q143 590 129.5 560 Q116 530 100 481 L33 497 L72 700 L661 700 L700 499 Z " />
<glyph glyph-name="uni0163" unicode="&#x163;" horiz-adv-x="418" d="M413 57 Q387 30 351 10.5 Q315 -9 271 -13 L258 -50 Q309 -44 340.5 -67.5 Q372 -91 372 -134 Q372 -182 338.5 -208.5 Q305 -235 248 -235 Q229 -235 211.5 -230.5 Q194 -226 179.5 -220 Q165 -214 154.5 -207 Q144 -200 139 -195 L161 -150 Q178 -160 196.5 -165 Q215 -170 232 -170 Q250 -170 263.5 -160.5 Q277 -151 277 -131 Q277 -93 230 -93 Q220 -93 211 -94 Q202 -95 195 -97 L186 -73 L211 -10 Q157 0 131.5 37 Q106 74 106 136 L106 438 L30 438 L30 499 Q61 502 81.5 513 Q102 524 115.5 545 Q129 566 136 599 Q143 632 147 680 L215 687 L229 681 L229 511 L379 511 L379 438 L229 438 L229 153 Q229 115 242.5 93 Q256 71 294 71 Q321 71 342.5 80 Q364 89 384 103 L413 57 Z " />
<glyph glyph-name="Tcaron" unicode="&#x164;" horiz-adv-x="732" d="M366 752 Q353 752 342 758 Q331 764 314 784 L193 916 L222 953 L366 868 L510 953 L539 917 L414 780 Q401 766 390.5 759 Q380 752 366 752 Z M200 56 L268 67 Q290 70 295.5 82.5 Q301 95 301 118 L301 636 L264 636 Q227 636 202.5 630 Q178 624 160.5 607 Q143 590 129.5 560 Q116 530 100 481 L33 497 L72 700 L661 700 L700 499 L632 483 Q617 531 604 560.5 Q591 590 575 607 Q559 624 536 630 Q513 636 477 636 L430 636 L430 114 Q430 91 436 81 Q442 71 464 67 L531 56 L531 0 L200 0 L200 56 Z " />
<glyph glyph-name="tcaron" unicode="&#x165;" horiz-adv-x="431" d="M295 603 Q320 641 328.5 661 Q337 681 337 698 Q337 709 331.5 716 Q326 723 318 731 Q307 740 301 749.5 Q295 759 295 773 Q295 798 313.5 812.5 Q332 827 361 827 Q395 827 412 804.5 Q429 782 429 753 Q429 718 406 669 Q383 620 330 572 L295 603 Z M252 -14 Q177 -14 141.5 25 Q106 64 106 136 L106 438 L30 438 L30 499 Q61 502 81.5 513 Q102 524 115.5 545 Q129 566 136 599 Q143 632 147 680 L215 687 L229 681 L229 511 L379 511 L379 438 L229 438 L229 153 Q229 115 242.5 93 Q256 71 294 71 Q321 71 342.5 80 Q364 89 384 103 L413 57 Q384 27 343 6.5 Q302 -14 252 -14 Z " />
<glyph glyph-name="Tbar" unicode="&#x166;" horiz-adv-x="732" d="M430 636 L430 384 L583 384 L583 312 L430 312 L430 114 Q430 91 436 81 Q442 71 464 67 L531 56 L531 0 L200 0 L200 56 L268 67 Q290 70 295.5 82.5 Q301 95 301 118 L301 312 L153 312 L163 384 L301 384 L301 636 L264 636 Q227 636 202.5 630 Q178 624 160.5 607 Q143 590 129.5 560 Q116 530 100 481 L33 497 L72 700 L661 700 L700 499 L632 483 Q617 531 604 560.5 Q591 590 575 607 Q559 624 536 630 Q513 636 477 636 L430 636 Z " />
<glyph glyph-name="tbar" unicode="&#x167;" horiz-adv-x="418" d="M413 57 Q384 27 343 6.5 Q302 -14 252 -14 Q177 -14 141.5 25 Q106 64 106 136 L106 259 L24 259 L33 329 L106 329 L106 438 L30 438 L30 499 Q61 502 81.5 513 Q102 524 115.5 545 Q129 566 136 599 Q143 632 147 680 L215 687 L229 681 L229 511 L379 511 L379 438 L229 438 L229 329 L379 329 L379 259 L229 259 L229 153 Q229 115 242.5 93 Q256 71 294 71 Q321 71 342.5 80 Q364 89 384 103 L413 57 Z " />
<glyph glyph-name="Utilde" unicode="&#x168;" horiz-adv-x="798" d="M492 771 Q476 771 456.5 775.5 Q437 780 408 793 Q365 812 345.5 818.5 Q326 825 315 825 Q304 825 295.5 818 Q287 811 272 788 L235 814 Q263 874 285.5 895 Q308 916 337 916 Q354 916 374.5 910 Q395 904 428 890 Q463 875 482 868 Q501 861 514 861 Q526 861 534 869 Q542 877 556 898 L593 874 Q567 815 544 793 Q521 771 492 771 Z M403 -14 Q325 -14 272.5 6.5 Q220 27 188 63.5 Q156 100 142.5 150.5 Q129 201 129 262 L129 588 Q129 611 124 621 Q119 631 96 635 L41 644 L41 700 L345 700 L345 644 L288 635 Q267 631 262.5 619 Q258 607 258 584 L258 273 Q258 224 265 186 Q272 148 290 122.5 Q308 97 339.5 84 Q371 71 420 71 Q467 71 499 85 Q531 99 551 125.5 Q571 152 580 190 Q589 228 589 275 L589 588 Q589 611 584 621 Q579 631 556 635 L502 644 L502 700 L761 700 L761 644 L705 635 Q683 631 678.5 619 Q674 607 674 584 L674 279 Q674 128 603 57 Q532 -14 403 -14 Z " />
<glyph glyph-name="utilde" unicode="&#x169;" horiz-adv-x="648" d="M391 615 Q380 615 369.5 617 Q359 619 345.5 623 Q332 627 314.5 634 Q297 641 271 651 Q252 659 237.5 664 Q223 669 216 669 Q205 669 196.5 661.5 Q188 654 172 631 L136 657 Q150 687 162 707 Q174 727 186 738.5 Q198 750 210.5 754.5 Q223 759 238 759 Q255 759 275 753 Q295 747 327 733 Q362 718 381 711 Q400 704 413 704 Q425 704 433 712 Q441 720 455 741 L492 717 Q465 659 442.5 637 Q420 615 391 615 Z M259 -14 Q212 -14 181.5 0 Q151 14 133.5 37.5 Q116 61 109 91.5 Q102 122 102 155 L102 384 Q102 415 97 426.5 Q92 438 67 443 L21 451 L28 507 L214 518 L226 513 L226 195 Q226 170 227.5 148.5 Q229 127 236.5 111 Q244 95 260.5 86 Q277 77 306 77 Q354 77 387 109.5 Q420 142 420 212 L420 385 Q420 415 414.5 427.5 Q409 440 386 444 L344 451 L352 507 L532 518 L544 513 L544 115 Q544 91 548.5 80 Q553 69 576 65 L624 57 L624 0 L446 -7 L431 78 L428 78 Q415 60 399.5 43.5 Q384 27 364 14 Q344 1 318 -6.5 Q292 -14 259 -14 Z " />
<glyph glyph-name="Umacron" unicode="&#x16a;" horiz-adv-x="798" d="M262 880 L572 880 L572 794 L262 794 L262 880 Z M403 -14 Q325 -14 272.5 6.5 Q220 27 188 63.5 Q156 100 142.5 150.5 Q129 201 129 262 L129 588 Q129 611 124 621 Q119 631 96 635 L41 644 L41 700 L345 700 L345 644 L288 635 Q267 631 262.5 619 Q258 607 258 584 L258 273 Q258 224 265 186 Q272 148 290 122.5 Q308 97 339.5 84 Q371 71 420 71 Q467 71 499 85 Q531 99 551 125.5 Q571 152 580 190 Q589 228 589 275 L589 588 Q589 611 584 621 Q579 631 556 635 L502 644 L502 700 L761 700 L761 644 L705 635 Q683 631 678.5 619 Q674 607 674 584 L674 279 Q674 128 603 57 Q532 -14 403 -14 Z " />
<glyph glyph-name="umacron" unicode="&#x16b;" horiz-adv-x="648" d="M165 715 L463 715 L463 630 L165 630 L165 715 Z M259 -14 Q212 -14 181.5 0 Q151 14 133.5 37.5 Q116 61 109 91.5 Q102 122 102 155 L102 384 Q102 415 97 426.5 Q92 438 67 443 L21 451 L28 507 L214 518 L226 513 L226 195 Q226 170 227.5 148.5 Q229 127 236.5 111 Q244 95 260.5 86 Q277 77 306 77 Q354 77 387 109.5 Q420 142 420 212 L420 385 Q420 415 414.5 427.5 Q409 440 386 444 L344 451 L352 507 L532 518 L544 513 L544 115 Q544 91 548.5 80 Q553 69 576 65 L624 57 L624 0 L446 -7 L431 78 L428 78 Q415 60 399.5 43.5 Q384 27 364 14 Q344 1 318 -6.5 Q292 -14 259 -14 Z " />
<glyph glyph-name="Ubreve" unicode="&#x16c;" horiz-adv-x="798" d="M415 752 Q375 752 346.5 765.5 Q318 779 298.5 803 Q279 827 268 859 Q257 891 253 928 L303 942 Q319 892 348 870 Q377 848 418 848 Q462 848 490.5 873 Q519 898 533 940 L583 927 Q580 894 567.5 862.5 Q555 831 534 806.5 Q513 782 483.5 767 Q454 752 415 752 Z M403 -14 Q325 -14 272.5 6.5 Q220 27 188 63.5 Q156 100 142.5 150.5 Q129 201 129 262 L129 588 Q129 611 124 621 Q119 631 96 635 L41 644 L41 700 L345 700 L345 644 L288 635 Q267 631 262.5 619 Q258 607 258 584 L258 273 Q258 224 265 186 Q272 148 290 122.5 Q308 97 339.5 84 Q371 71 420 71 Q467 71 499 85 Q531 99 551 125.5 Q571 152 580 190 Q589 228 589 275 L589 588 Q589 611 584 621 Q579 631 556 635 L502 644 L502 700 L761 700 L761 644 L705 635 Q683 631 678.5 619 Q674 607 674 584 L674 279 Q674 128 603 57 Q532 -14 403 -14 Z " />
<glyph glyph-name="ubreve" unicode="&#x16d;" horiz-adv-x="648" d="M309 587 Q271 587 243 601 Q215 615 195.5 640 Q176 665 165 699 Q154 733 150 772 L200 784 Q217 731 245.5 706.5 Q274 682 316 682 Q361 682 387 708.5 Q413 735 427 782 L477 772 Q473 736 461 703 Q449 670 428 644 Q407 618 377.5 602.5 Q348 587 309 587 Z M259 -14 Q212 -14 181.5 0 Q151 14 133.5 37.5 Q116 61 109 91.5 Q102 122 102 155 L102 384 Q102 415 97 426.5 Q92 438 67 443 L21 451 L28 507 L214 518 L226 513 L226 195 Q226 170 227.5 148.5 Q229 127 236.5 111 Q244 95 260.5 86 Q277 77 306 77 Q354 77 387 109.5 Q420 142 420 212 L420 385 Q420 415 414.5 427.5 Q409 440 386 444 L344 451 L352 507 L532 518 L544 513 L544 115 Q544 91 548.5 80 Q553 69 576 65 L624 57 L624 0 L446 -7 L431 78 L428 78 Q415 60 399.5 43.5 Q384 27 364 14 Q344 1 318 -6.5 Q292 -14 259 -14 Z " />
<glyph glyph-name="Uring" unicode="&#x16e;" horiz-adv-x="798" d="M415 742 Q355 742 324 771.5 Q293 801 293 849 Q293 898 327 929 Q361 960 420 960 Q481 960 511.5 931 Q542 902 542 853 Q542 803 506.5 772.5 Q471 742 415 742 Z M417 793 Q441 793 452 809.5 Q463 826 463 853 Q463 880 451 895 Q439 910 416 910 Q392 910 381.5 894 Q371 878 371 853 Q371 824 382.5 808.5 Q394 793 417 793 Z M403 -14 Q325 -14 272.5 6.5 Q220 27 188 63.5 Q156 100 142.5 150.5 Q129 201 129 262 L129 588 Q129 611 124 621 Q119 631 96 635 L41 644 L41 700 L345 700 L345 644 L288 635 Q267 631 262.5 619 Q258 607 258 584 L258 273 Q258 224 265 186 Q272 148 290 122.5 Q308 97 339.5 84 Q371 71 420 71 Q467 71 499 85 Q531 99 551 125.5 Q571 152 580 190 Q589 228 589 275 L589 588 Q589 611 584 621 Q579 631 556 635 L502 644 L502 700 L761 700 L761 644 L705 635 Q683 631 678.5 619 Q674 607 674 584 L674 279 Q674 128 603 57 Q532 -14 403 -14 Z " />
<glyph glyph-name="uring" unicode="&#x16f;" horiz-adv-x="648" d="M312 582 Q253 582 222 611 Q191 640 191 688 Q191 737 225 768 Q259 799 317 799 Q378 799 408.5 770 Q439 741 439 692 Q439 642 403.5 612 Q368 582 312 582 Z M314 633 Q337 633 348 649 Q359 665 359 692 Q359 719 348 734 Q337 749 314 749 Q291 749 280 733 Q269 717 269 692 Q269 664 280 648.5 Q291 633 314 633 Z M259 -14 Q212 -14 181.5 0 Q151 14 133.5 37.5 Q116 61 109 91.5 Q102 122 102 155 L102 384 Q102 415 97 426.5 Q92 438 67 443 L21 451 L28 507 L214 518 L226 513 L226 195 Q226 170 227.5 148.5 Q229 127 236.5 111 Q244 95 260.5 86 Q277 77 306 77 Q354 77 387 109.5 Q420 142 420 212 L420 385 Q420 415 414.5 427.5 Q409 440 386 444 L344 451 L352 507 L532 518 L544 513 L544 115 Q544 91 548.5 80 Q553 69 576 65 L624 57 L624 0 L446 -7 L431 78 L428 78 Q415 60 399.5 43.5 Q384 27 364 14 Q344 1 318 -6.5 Q292 -14 259 -14 Z " />
<glyph glyph-name="Uhungarumlaut" unicode="&#x170;" horiz-adv-x="798" d="M285 785 L400 919 Q409 929 419 937 Q429 945 443 945 Q466 945 479 926.5 Q492 908 492 885 Q492 866 480.5 853 Q469 840 449 829 L311 751 L285 785 Z M465 786 L588 910 Q599 921 608.5 927 Q618 933 629 933 Q652 933 664.5 915.5 Q677 898 677 878 Q677 855 665 842 Q653 829 630 818 L489 751 L465 786 Z M403 -14 Q325 -14 272.5 6.5 Q220 27 188 63.5 Q156 100 142.5 150.5 Q129 201 129 262 L129 588 Q129 611 124 621 Q119 631 96 635 L41 644 L41 700 L345 700 L345 644 L288 635 Q267 631 262.5 619 Q258 607 258 584 L258 273 Q258 224 265 186 Q272 148 290 122.5 Q308 97 339.5 84 Q371 71 420 71 Q467 71 499 85 Q531 99 551 125.5 Q571 152 580 190 Q589 228 589 275 L589 588 Q589 611 584 621 Q579 631 556 635 L502 644 L502 700 L761 700 L761 644 L705 635 Q683 631 678.5 619 Q674 607 674 584 L674 279 Q674 128 603 57 Q532 -14 403 -14 Z " />
<glyph glyph-name="uhungarumlaut" unicode="&#x171;" horiz-adv-x="648" d="M196 611 L294 760 Q305 776 313.5 782.5 Q322 789 335 789 Q360 789 371 773 Q382 757 382 738 Q382 705 349 681 L225 580 L196 611 Z M353 611 L461 756 Q473 772 482 778.5 Q491 785 504 785 Q528 785 539 769 Q550 753 550 734 Q550 714 540 700 Q530 686 514 675 L382 580 L353 611 Z M259 -14 Q212 -14 181.5 0 Q151 14 133.5 37.5 Q116 61 109 91.5 Q102 122 102 155 L102 384 Q102 415 97 426.5 Q92 438 67 443 L21 451 L28 507 L214 518 L226 513 L226 195 Q226 170 227.5 148.5 Q229 127 236.5 111 Q244 95 260.5 86 Q277 77 306 77 Q354 77 387 109.5 Q420 142 420 212 L420 385 Q420 415 414.5 427.5 Q409 440 386 444 L344 451 L352 507 L532 518 L544 513 L544 115 Q544 91 548.5 80 Q553 69 576 65 L624 57 L624 0 L446 -7 L431 78 L428 78 Q415 60 399.5 43.5 Q384 27 364 14 Q344 1 318 -6.5 Q292 -14 259 -14 Z " />
</font>
</svg>
