<?xml version="1.0" encoding="UTF-8"?>
<svg xmlns="http://www.w3.org/2000/svg" xmlns:xlink="http://www.w3.org/1999/xlink" version="1.2" >
<font id="Literata Book Italic">
<font-face  font-family="Literata Book" units-per-em="1000" ascent="780" descent="-230" font-style="italic" font-weight="400" font-stretch="normal" slope="-3" cap-height="700" x-height="507" underline-position="-75" underline-thickness="50" />
<missing-glyph  horiz-adv-x="500" d="" />
<glyph glyph-name="null" d="" />
<glyph glyph-name="nonmarkingreturn" unicode="&#xd;" horiz-adv-x="250" d="" />
<glyph glyph-name="space" unicode="&#x20;" horiz-adv-x="190" d="" />
<glyph glyph-name="exclam" unicode="&#x21;" horiz-adv-x="329" d="M142 533 Q142 571 142 599.5 Q142 628 143 651 Q145 684 161.5 699.5 Q178 715 205 715 Q224 715 239.5 707.5 Q255 700 264 691 Q253 659 242.5 618.5 Q232 578 222.5 520 Q213 462 204.5 383 Q196 304 190 194 L143 194 L142 533 Z M93 50 Q93 82 114 100.5 Q135 119 166 119 Q197 119 215.5 100.5 Q234 82 234 51 Q234 20 213 3 Q192 -14 161 -14 Q130 -14 111.5 2.5 Q93 19 93 50 Z " />
<glyph glyph-name="quotedbl" unicode="&#x22;" horiz-adv-x="401" d="M129 547 L111 705 Q110 715 111 724 Q112 746 127 763 Q142 780 167 780 Q181 780 194 770 Q207 760 206 743 Q206 732 202 717 L163 547 L129 547 Z M281 547 L263 705 Q262 715 263 724 Q264 746 279 763 Q294 780 319 780 Q333 780 346 770 Q359 760 358 743 Q358 732 354 717 L315 547 L281 547 Z " />
<glyph glyph-name="numbersign" unicode="&#x23;" horiz-adv-x="674" d="M172 140 L49 140 L62 191 L183 191 L216 367 L91 367 L103 419 L226 419 L251 550 L305 550 L280 419 L464 419 L488 550 L543 550 L518 419 L643 419 L632 367 L509 367 L476 191 L606 191 L595 140 L466 140 L440 0 L386 0 L412 140 L227 140 L201 0 L147 0 L172 140 Z M237 191 L422 191 L455 367 L269 367 L237 191 Z " />
<glyph glyph-name="dollar" unicode="&#x24;" horiz-adv-x="498" d="M278 323 Q307 310 335 295 Q363 280 386 261 Q409 242 423 217.5 Q437 193 437 160 Q437 126 424.5 97 Q412 68 389.5 46 Q367 24 335.5 9.5 Q304 -5 266 -9 L264 -75 L223 -75 L225 -11 Q184 -10 150 -1.5 Q116 7 91.5 22 Q67 37 53.5 57 Q40 77 40 100 Q40 131 57.5 145 Q75 159 99 159 Q113 159 126.5 154.5 Q140 150 148 145 L143 115 Q138 86 161 65 Q184 44 227 42 L234 247 Q205 259 176.5 272.5 Q148 286 125.5 304.5 Q103 323 89 348 Q75 373 75 408 Q75 432 84 457.5 Q93 483 113 505.5 Q133 528 165.5 544.5 Q198 561 245 566 L248 638 L289 638 L286 568 Q321 567 351 558.5 Q381 550 403 535.5 Q425 521 438 502 Q451 483 451 461 Q451 435 436 421 Q421 407 398 407 Q378 407 363.5 413 Q349 419 342 426 L348 463 Q353 484 339.5 499 Q326 514 285 516 L278 323 Z M152 432 Q152 401 176.5 380.5 Q201 360 237 342 L243 514 Q191 509 171.5 486 Q152 463 152 432 Z M268 44 Q313 50 336.5 74.5 Q360 99 360 135 Q360 169 335 190 Q310 211 275 228 L268 44 Z " />
<glyph glyph-name="percent" unicode="&#x25;" horiz-adv-x="833" d="M55 429 Q55 476 68.5 508 Q82 540 104.5 559.5 Q127 579 155.5 588 Q184 597 213 597 Q240 597 265.5 588 Q291 579 310.5 560.5 Q330 542 341.5 513 Q353 484 353 443 Q353 402 340.5 370.5 Q328 339 307 317.5 Q286 296 257.5 285 Q229 274 197 274 Q129 274 92 317.5 Q55 361 55 429 Z M642 597 L261 -11 L191 -11 L573 597 L642 597 Z M128 433 Q128 389 146 357.5 Q164 326 203 326 Q238 326 258.5 354 Q279 382 279 442 Q279 490 260.5 518.5 Q242 547 204 547 Q171 547 149.5 519.5 Q128 492 128 433 Z M478 144 Q478 191 491.5 223 Q505 255 527.5 274.5 Q550 294 578.5 303 Q607 312 636 312 Q663 312 688.5 303 Q714 294 733.5 275.5 Q753 257 764.5 228 Q776 199 776 158 Q776 117 763.5 85.5 Q751 54 730 32.5 Q709 11 680.5 0 Q652 -11 620 -11 Q552 -11 515 32.5 Q478 76 478 144 Z M551 148 Q551 104 569 72.5 Q587 41 626 41 Q661 41 681.5 69 Q702 97 702 157 Q702 205 683.5 233.5 Q665 262 627 262 Q594 262 572.5 234.5 Q551 207 551 148 Z " />
<glyph glyph-name="ampersand" unicode="&#x26;" horiz-adv-x="725" d="M301 -14 Q261 -14 219.5 -6 Q178 2 145 22 Q112 42 91 75 Q70 108 70 159 Q70 197 84.5 227.5 Q99 258 122.5 281.5 Q146 305 176.5 321.5 Q207 338 240 347 L241 355 Q173 362 130.5 394 Q88 426 88 494 Q88 538 109 578 Q130 618 168 648.5 Q206 679 258.5 697 Q311 715 375 715 Q404 715 435.5 708.5 Q467 702 493 687 Q519 672 535 649 Q551 626 550 593 Q549 565 529 544.5 Q509 524 478 524 Q461 524 446.5 532.5 Q432 541 424 555 L441 582 Q461 614 438.5 638 Q416 662 360 662 Q325 662 293 652 Q261 642 237 622.5 Q213 603 199 574 Q185 545 185 506 Q185 468 196.5 444.5 Q208 421 227 408.5 Q246 396 271 391.5 Q296 387 323 387 Q340 387 354.5 388.5 Q369 390 386 393 L391 344 Q276 334 221.5 287.5 Q167 241 167 175 Q167 149 173.5 125 Q180 101 197 83 Q214 65 242.5 54 Q271 43 316 43 Q359 43 394.5 55 Q430 67 455 89 Q480 111 493.5 142 Q507 173 507 211 Q507 240 502 272 Q497 304 480 339 L510 382 L574 374 Q602 370 615.5 382.5 Q629 395 620 420 L605 459 Q634 473 658 472 Q683 472 700.5 456.5 Q718 441 718 409 Q718 388 709 372.5 Q700 357 686 347 Q672 337 653.5 332.5 Q635 328 617 328 Q595 328 572.5 331 Q550 334 538 336 L544 328 Q566 294 576 264 Q586 234 584 203 Q583 159 564 119.5 Q545 80 509.5 50.5 Q474 21 421.5 3.5 Q369 -14 301 -14 Z " />
<glyph glyph-name="quotesingle" unicode="&#x27;" horiz-adv-x="250" d="M129 547 L111 705 Q110 715 111 724 Q112 746 127 763 Q142 780 167 780 Q181 780 194 770 Q207 760 206 743 Q206 732 202 717 L163 547 L129 547 Z " />
<glyph glyph-name="parenleft" unicode="&#x28;" horiz-adv-x="332" d="M84 276 Q84 415 137.5 554 Q191 693 293 811 L329 791 Q254 670 216 538.5 Q178 407 178 274 Q178 211 187.5 147 Q197 83 212.5 23 Q228 -37 248.5 -91 Q269 -145 290 -189 L253 -210 Q226 -178 196 -127.5 Q166 -77 141 -13 Q116 51 100 124.5 Q84 198 84 276 Z " />
<glyph glyph-name="parenright" unicode="&#x29;" horiz-adv-x="332" d="M269 325 Q269 186 215.5 47 Q162 -92 60 -210 L24 -190 Q99 -69 137 62.5 Q175 194 175 327 Q175 390 165.5 454 Q156 518 140.5 578 Q125 638 104.5 692 Q84 746 63 790 L100 811 Q127 779 157 728.5 Q187 678 212 614 Q237 550 253 476.5 Q269 403 269 325 Z " />
<glyph glyph-name="asterisk" unicode="&#x2a;" horiz-adv-x="473" d="M228 727 Q224 756 234 769 Q244 782 264 782 Q285 782 302 765 L272 619 L362 694 Q369 700 378.5 702 Q388 704 397 701.5 Q406 699 412 691 Q418 683 418 669 Q418 663 417 656 Q416 649 413 641 L284 596 L384 556 Q398 551 404.5 540 Q411 529 411 518 Q411 504 400 492.5 Q389 481 366 479 L268 573 L286 463 Q289 443 280 430.5 Q271 418 253 417 Q244 416 231 422 Q218 428 210 441 L238 574 L157 503 Q150 497 138.5 494 Q127 491 116.5 493.5 Q106 496 98.5 504 Q91 512 91 528 Q91 533 91.5 540.5 Q92 548 94 555 L228 599 L132 631 Q113 638 107 646.5 Q101 655 101 668 Q101 682 111.5 693.5 Q122 705 148 708 L243 620 L228 727 Z " />
<glyph glyph-name="plus" unicode="&#x2b;" horiz-adv-x="582" d="M323 81 L256 81 L263 276 L86 276 L88 339 L265 339 L272 521 L339 521 L332 339 L516 339 L514 276 L330 276 L323 81 Z " />
<glyph glyph-name="comma" unicode="&#x2c;" horiz-adv-x="328" d="M109 -168 L81 -131 Q93 -122 107.5 -109.5 Q122 -97 134 -83 Q146 -69 154.5 -54.5 Q163 -40 163 -27 Q163 -19 158.5 -11.5 Q154 -4 141 1 L103 14 Q96 31 96 50 Q96 69 103.5 84.5 Q111 100 127 110.5 Q143 121 168 121 Q209 121 227.5 93.5 Q246 66 246 31 Q246 -14 212 -68.5 Q178 -123 109 -168 Z " />
<glyph glyph-name="hyphen" unicode="&#x2d;" horiz-adv-x="354" d="M322 329 L319 247 L52 247 L55 329 L322 329 Z " />
<glyph glyph-name="period" unicode="&#x2e;" horiz-adv-x="319" d="M85 50 Q85 84 107 106 Q129 128 165 128 Q200 128 221 109 Q242 90 242 59 Q242 23 218.5 3 Q195 -17 160 -17 Q127 -17 106 0.5 Q85 18 85 50 Z " />
<glyph glyph-name="slash" unicode="&#x2f;" horiz-adv-x="428" d="M436 802 L80 -110 L16 -110 L373 802 L436 802 Z " />
<glyph glyph-name="zero" unicode="0" horiz-adv-x="600" d="M50 260 Q50 322 66.5 378 Q83 434 116.5 476 Q150 518 201 543 Q252 568 320 568 Q365 568 408 554.5 Q451 541 484 510.5 Q517 480 537.5 430 Q558 380 558 306 Q558 244 542.5 186 Q527 128 494.5 83.5 Q462 39 411.5 12.5 Q361 -14 290 -14 Q172 -14 111 58 Q50 130 50 260 Z M315 510 Q267 510 235 490.5 Q203 471 183.5 437 Q164 403 155.5 357 Q147 311 147 259 Q147 147 186 94.5 Q225 42 294 42 Q343 42 375.5 63 Q408 84 427 119.5 Q446 155 453.5 201.5 Q461 248 461 298 Q461 358 450.5 398.5 Q440 439 421 463.5 Q402 488 375 499 Q348 510 315 510 Z " />
<glyph glyph-name="one" unicode="1" horiz-adv-x="404" d="M51 491 L58 542 L249 567 L266 557 L247 63 L356 47 L350 0 L40 0 L46 46 L162 62 L178 491 L51 491 Z " />
<glyph glyph-name="two" unicode="2" horiz-adv-x="550" d="M61 424 Q61 458 79 485 Q97 512 125.5 530.5 Q154 549 189 558.5 Q224 568 257 568 Q351 568 401 524.5 Q451 481 451 406 Q451 354 431.5 311.5 Q412 269 380 233.5 Q348 198 307 168.5 Q266 139 223 113 L165 78 L165 73 L315 73 Q347 73 368 77 Q389 81 403.5 93 Q418 105 428 126.5 Q438 148 448 182 L499 182 L476 0 L44 0 L45 53 Q61 63 81 76.5 Q101 90 122.5 105 Q144 120 165 135.5 Q186 151 202 163 Q235 187 263 214.5 Q291 242 311.5 272.5 Q332 303 344 336 Q356 369 356 404 Q356 456 325.5 486 Q295 516 246 516 Q215 516 192.5 508.5 Q170 501 159 488.5 Q148 476 148.5 460.5 Q149 445 163 429 L184 405 Q176 387 159.5 375 Q143 363 122 363 Q93 363 77 379 Q61 395 61 424 Z " />
<glyph glyph-name="three" unicode="3" horiz-adv-x="524" d="M444 410 Q444 353 408 305.5 Q372 258 308 233 L308 225 Q343 221 372.5 211.5 Q402 202 424 183.5 Q446 165 458 137 Q470 109 470 68 Q470 27 451.5 -16.5 Q433 -60 396.5 -95 Q360 -130 305.5 -152.5 Q251 -175 180 -175 Q154 -175 124 -170 Q94 -165 69 -152 Q44 -139 27.5 -117.5 Q11 -96 11 -63 Q11 -35 29.5 -14.5 Q48 6 79 6 Q96 6 111 -2.5 Q126 -11 134 -25 L118 -52 Q108 -67 109 -80 Q110 -93 119.5 -102 Q129 -111 145.5 -116.5 Q162 -122 183 -122 Q225 -122 259 -107 Q293 -92 316.5 -66.5 Q340 -41 353 -7 Q366 27 366 66 Q366 101 355 124 Q344 147 325.5 160.5 Q307 174 282.5 179.5 Q258 185 231 185 Q195 185 160 179 L153 228 Q209 235 247 252.5 Q285 270 308.5 294 Q332 318 342.5 346.5 Q353 375 353 403 Q353 456 322.5 486 Q292 516 228 516 Q197 516 174.5 508.5 Q152 501 141 488.5 Q130 476 130.5 460.5 Q131 445 145 429 L166 405 Q158 387 141.5 375 Q125 363 104 363 Q75 363 59 379 Q43 395 43 424 Q43 458 61 485 Q79 512 108.5 530.5 Q138 549 174.5 558.5 Q211 568 247 568 Q289 568 325 559 Q361 550 387.5 530.5 Q414 511 429 481.5 Q444 452 444 410 Z " />
<glyph glyph-name="four" unicode="4" horiz-adv-x="611" d="M334 470 Q334 427 323 380.5 Q312 334 286 284.5 Q260 235 216.5 181.5 Q173 128 108 72 L393 72 L407 395 L476 420 L493 411 L479 72 L571 72 L565 4 L477 4 L471 -164 L385 -164 L391 4 L27 4 L19 54 Q89 113 134 164 Q179 215 205 260 Q231 305 241 344.5 Q251 384 251 419 Q251 442 242.5 452 Q234 462 211 468 L175 477 Q171 512 188 540 Q205 568 249 568 Q284 568 309 543.5 Q334 519 334 470 Z " />
<glyph glyph-name="five" unicode="5" horiz-adv-x="523" d="M372 93 Q372 133 362 160 Q352 187 334 203 Q316 219 291.5 225.5 Q267 232 239 232 Q204 232 174 224 Q144 216 114 204 L83 240 L109 542 L125 556 Q159 550 205 543.5 Q251 537 289 537 Q317 537 338 540 Q359 543 375 552 Q391 561 402 577 Q413 593 421 619 L465 612 Q460 570 451.5 539.5 Q443 509 429 489 Q415 469 393 459.5 Q371 450 339 450 Q313 450 287.5 455 Q262 460 239.5 466.5 Q217 473 198 480.5 Q179 488 165 493 L143 268 Q172 285 210 297 Q248 309 285 309 Q328 309 362.5 294.5 Q397 280 421 253 Q445 226 458 188.5 Q471 151 471 105 Q471 50 452 -0.5 Q433 -51 396 -90 Q359 -129 305 -152 Q251 -175 180 -175 Q154 -175 124 -170 Q94 -165 69 -152 Q44 -139 27.5 -117.5 Q11 -96 11 -63 Q11 -35 29.5 -14.5 Q48 6 79 6 Q96 6 111 -2.5 Q126 -11 134 -25 L118 -52 Q108 -67 109 -80 Q110 -93 119.5 -102 Q129 -111 145.5 -116.5 Q162 -122 183 -122 Q225 -122 260 -106 Q295 -90 319.5 -61 Q344 -32 358 7.5 Q372 47 372 93 Z " />
<glyph glyph-name="six" unicode="6" horiz-adv-x="567" d="M376 715 Q407 715 434 707 Q461 699 481.5 683.5 Q502 668 513.5 646 Q525 624 525 597 Q525 568 508 550.5 Q491 533 465 533 Q443 533 425.5 541 Q408 549 400 557 L419 594 Q433 620 419.5 639 Q406 658 367 658 Q322 658 284 632.5 Q246 607 218 564 Q190 521 171.5 465 Q153 409 147 348 L151 345 Q167 362 187 381 Q207 400 231.5 416.5 Q256 433 285 443.5 Q314 454 347 454 Q382 454 412.5 442 Q443 430 465.5 406 Q488 382 500.5 345.5 Q513 309 513 259 Q513 198 495 147.5 Q477 97 445 61 Q413 25 370 5.5 Q327 -14 276 -14 Q214 -14 172.5 11 Q131 36 106.5 77 Q82 118 71.5 170 Q61 222 61 277 Q61 366 82 445.5 Q103 525 143.5 585 Q184 645 242.5 680 Q301 715 376 715 Z M420 246 Q420 325 393 357 Q366 389 326 389 Q298 389 271 376 Q244 363 220.5 345 Q197 327 179 307 Q161 287 151 273 Q150 231 156.5 190 Q163 149 178 116 Q193 83 217.5 62.5 Q242 42 278 42 Q345 42 382.5 96.5 Q420 151 420 246 Z " />
<glyph glyph-name="seven" unicode="7" horiz-adv-x="527" d="M102 -38 Q102 21 123.5 81.5 Q145 142 185 205.5 Q225 269 280.5 336 Q336 403 405 475 L48 475 L61 554 L486 554 L494 490 Q436 429 378 363 Q320 297 273.5 230.5 Q227 164 198 98 Q169 32 169 -28 Q169 -65 190 -78 Q211 -91 237 -77 L281 -52 Q297 -66 304 -83 Q311 -100 309 -116 Q307 -140 285.5 -157.5 Q264 -175 223 -175 Q172 -175 137 -138 Q102 -101 102 -38 Z " />
<glyph glyph-name="eight" unicode="8" horiz-adv-x="556" d="M52 167 Q52 231 88.5 280 Q125 329 205 371 Q148 403 119.5 442 Q91 481 91 536 Q91 570 104 602.5 Q117 635 143.5 660 Q170 685 211 700 Q252 715 308 715 Q400 715 447.5 673 Q495 631 495 566 Q495 507 459 465.5 Q423 424 361 390 Q407 367 436 345 Q465 323 481.5 300 Q498 277 504.5 251.5 Q511 226 511 196 Q511 145 490.5 106 Q470 67 436 40 Q402 13 358.5 -0.5 Q315 -14 270 -14 Q222 -14 182 -1 Q142 12 113 35.5 Q84 59 68 92.5 Q52 126 52 167 Z M176 552 Q176 530 183 512 Q190 494 206.5 477.5 Q223 461 249 445.5 Q275 430 312 413 Q366 443 390.5 479.5 Q415 516 415 557 Q415 612 383 636 Q351 660 303 660 Q248 660 212 633.5 Q176 607 176 552 Z M253 347 Q219 326 197.5 306 Q176 286 164 266 Q152 246 147.5 225 Q143 204 143 182 Q143 120 177 82 Q211 44 277 44 Q338 44 378 79.5 Q418 115 418 188 Q418 215 409 235.5 Q400 256 380.5 274.5 Q361 293 329.5 310.5 Q298 328 253 347 Z " />
<glyph glyph-name="nine" unicode="9" horiz-adv-x="567" d="M201 -175 Q170 -175 142.5 -168.5 Q115 -162 94 -149 Q73 -136 61 -115.5 Q49 -95 49 -68 Q49 -40 67 -20.5 Q85 -1 116 -1 Q133 -1 150 -8.5 Q167 -16 175 -24 L156 -57 Q142 -83 156.5 -100.5 Q171 -118 210 -118 Q262 -118 300 -90 Q338 -62 363.5 -16 Q389 30 403.5 89 Q418 148 422 209 L418 212 Q402 195 382 176 Q362 157 337.5 140.5 Q313 124 284 113.5 Q255 103 222 103 Q187 103 156.5 115 Q126 127 103.5 151 Q81 175 68.5 211.5 Q56 248 56 298 Q56 359 74 408.5 Q92 458 124 493.5 Q156 529 199 548.5 Q242 568 293 568 Q355 568 396.5 543.5 Q438 519 462.5 478.5 Q487 438 497.5 386.5 Q508 335 508 280 Q508 191 491.5 108.5 Q475 26 438 -37 Q401 -100 342.5 -137.5 Q284 -175 201 -175 Z M149 311 Q149 232 176 200 Q203 168 243 168 Q271 168 298 181 Q325 194 348.5 212 Q372 230 390 250 Q408 270 418 284 Q419 323 412.5 363.5 Q406 404 391 437 Q376 470 351.5 491 Q327 512 291 512 Q258 512 231.5 497 Q205 482 186.5 455.5 Q168 429 158.5 392 Q149 355 149 311 Z " />
<glyph glyph-name="colon" unicode="&#x3a;" horiz-adv-x="319" d="M102 441 Q102 475 124 497 Q146 519 182 519 Q217 519 238 500 Q259 481 259 450 Q259 414 235.5 394 Q212 374 177 374 Q144 374 123 391.5 Q102 409 102 441 Z M85 50 Q85 84 107 106 Q129 128 165 128 Q200 128 221 109 Q242 90 242 59 Q242 23 218.5 3 Q195 -17 160 -17 Q127 -17 106 0.5 Q85 18 85 50 Z " />
<glyph glyph-name="semicolon" unicode="&#x3b;" horiz-adv-x="328" d="M102 441 Q102 409 123 391.5 Q144 374 177 374 Q212 374 235.5 394 Q259 414 259 450 Q259 481 238 500 Q217 519 182 519 Q146 519 124 497 Q102 475 102 441 Z M100 -168 L72 -131 Q84 -122 98.5 -109.5 Q113 -97 125 -83 Q137 -69 145.5 -54.5 Q154 -40 154 -27 Q154 -19 149.5 -11.5 Q145 -4 132 1 L94 14 Q87 31 87 50 Q87 69 94.5 84.5 Q102 100 118 110.5 Q134 121 159 121 Q200 121 218.5 93.5 Q237 66 237 31 Q237 -14 203 -68.5 Q169 -123 100 -168 Z " />
<glyph glyph-name="less" unicode="&#x3c;" horiz-adv-x="582" d="M494 480 L157 285 L481 91 L449 37 L79 263 L80 305 L466 532 L494 480 Z " />
<glyph glyph-name="equal" unicode="&#x3d;" horiz-adv-x="582" d="M91 425 L519 425 L517 362 L89 362 L91 425 Z M85 245 L513 245 L511 182 L83 182 L85 245 Z " />
<glyph glyph-name="greater" unicode="&#x3e;" horiz-adv-x="582" d="M152 532 L522 305 L521 263 L135 37 L107 91 L443 285 L120 480 L152 532 Z " />
<glyph glyph-name="question" unicode="&#x3f;" horiz-adv-x="512" d="M178 382 Q277 403 324 448 Q371 493 371 552 Q371 603 340.5 633 Q310 663 252 663 Q221 663 198.5 655.5 Q176 648 165 635.5 Q154 623 154.5 607.5 Q155 592 169 576 L190 552 Q182 534 165.5 522 Q149 510 128 510 Q99 510 83 526 Q67 542 67 571 Q67 605 85 632 Q103 659 132 677.5 Q161 696 196.5 705.5 Q232 715 267 715 Q306 715 341 705 Q376 695 402 674 Q428 653 443 621.5 Q458 590 458 547 Q458 473 409.5 413.5 Q361 354 252 319 L279 194 L216 194 L178 382 Z M176 50 Q176 82 197 100.5 Q218 119 249 119 Q280 119 298.5 100.5 Q317 82 317 51 Q317 20 296 3 Q275 -14 244 -14 Q213 -14 194.5 2.5 Q176 19 176 50 Z " />
<glyph glyph-name="at" unicode="&#x40;" horiz-adv-x="860" d="M436 395 Q499 395 540 372 L592 394 L606 388 L596 101 Q595 69 599 56.5 Q603 44 630 44 Q653 44 673.5 56.5 Q694 69 710 93.5 Q726 118 735.5 154 Q745 190 745 237 Q745 366 673.5 440 Q602 514 451 514 Q384 514 325 492.5 Q266 471 223 429.5 Q180 388 155 327 Q130 266 130 186 Q130 96 157.5 35.5 Q185 -25 228 -61.5 Q271 -98 323.5 -113 Q376 -128 425 -128 Q497 -128 544.5 -108 Q592 -88 632 -56 L664 -95 Q573 -183 421 -183 Q352 -183 287.5 -162 Q223 -141 173.5 -96.5 Q124 -52 94.5 17.5 Q65 87 65 184 Q65 265 91 335.5 Q117 406 166.5 457.5 Q216 509 288 538.5 Q360 568 451 568 Q532 568 597.5 548 Q663 528 709.5 487.5 Q756 447 781 386 Q806 325 806 244 Q806 178 789.5 129.5 Q773 81 745.5 50 Q718 19 681.5 4 Q645 -11 605 -11 Q579 -11 563.5 -4.5 Q548 2 540.5 14 Q533 26 531.5 43.5 Q530 61 531 83 L537 210 L533 210 L512 137 Q491 63 455.5 26 Q420 -11 375 -11 Q338 -11 313 1 Q288 13 272 34 Q256 55 249 84 Q242 113 242 147 Q242 213 258 260 Q274 307 301 337 Q328 367 363 381 Q398 395 436 395 Z M528 330 Q511 338 489 342.5 Q467 347 446 347 Q413 347 389.5 330 Q366 313 351 286 Q336 259 329 224 Q322 189 322 153 Q322 107 335.5 79.5 Q349 52 384 52 Q404 52 420 65.5 Q436 79 449.5 102.5 Q463 126 474.5 157 Q486 188 496 223 L528 330 Z " />
<glyph glyph-name="A" unicode="A" horiz-adv-x="691" d="M603 57 L688 46 L682 0 L416 0 L422 46 L503 58 L457 231 L217 231 L157 58 L248 46 L242 0 L8 0 L14 46 L93 58 L322 695 L421 706 L603 57 Z M442 288 L355 619 L352 619 L237 288 L442 288 Z " />
<glyph glyph-name="B" unicode="B" horiz-adv-x="615" d="M562 549 Q562 514 548.5 486 Q535 458 513 436 Q491 414 465 398.5 Q439 383 413 374 L413 369 Q503 357 546.5 314.5 Q590 272 590 205 Q590 160 571 122 Q552 84 513.5 57 Q475 30 418 15 Q361 0 284 0 L50 0 L55 44 L144 60 L169 637 L82 654 L88 700 L315 700 Q371 700 417 692 Q463 684 495 666.5 Q527 649 544.5 620 Q562 591 562 549 Z M290 378 Q328 384 360.5 396 Q393 408 416 427 Q439 446 452 473 Q465 500 465 537 Q465 601 422.5 623.5 Q380 646 306 646 L255 646 L232 54 L296 54 Q403 55 448 96.5 Q493 138 493 208 Q493 334 348 334 Q329 334 317 332.5 Q305 331 288 328 L290 378 Z " />
<glyph glyph-name="C" unicode="C" horiz-adv-x="629" d="M494 571 Q504 592 497 607 Q490 622 472.5 632 Q455 642 430 647 Q405 652 380 652 Q276 652 218 571.5 Q160 491 160 334 Q160 281 171.5 230.5 Q183 180 207 141 Q231 102 269 78.5 Q307 55 359 55 Q422 55 468.5 88 Q515 121 555 168 L594 128 Q576 103 553 77.5 Q530 52 500 32 Q470 12 432.5 -1 Q395 -14 349 -14 Q267 -14 212.5 17.5 Q158 49 125.5 98.5 Q93 148 79.5 208 Q66 268 66 325 Q66 423 91 496 Q116 569 159.5 617.5 Q203 666 261 690.5 Q319 715 384 715 Q423 715 462 705 Q501 695 532.5 676.5 Q564 658 584 630 Q604 602 604 566 Q604 537 587.5 522 Q571 507 549 507 Q526 507 507.5 516 Q489 525 477 537 L494 571 Z " />
<glyph glyph-name="D" unicode="D" horiz-adv-x="730" d="M55 45 L144 60 L169 637 L82 654 L88 700 L355 700 Q424 700 485.5 683.5 Q547 667 593 630 Q639 593 666 534.5 Q693 476 693 392 Q693 309 674 247.5 Q655 186 622.5 142.5 Q590 99 547.5 71.5 Q505 44 457.5 28 Q410 12 361 6 Q312 0 268 0 L50 0 L55 45 Z M260 55 Q315 55 374 66.5 Q433 78 482.5 113 Q532 148 564 212.5 Q596 277 596 383 Q596 460 574 510.5 Q552 561 516.5 591 Q481 621 436 633.5 Q391 646 344 646 L255 646 L232 55 L260 55 Z " />
<glyph glyph-name="E" unicode="E" horiz-adv-x="600" d="M82 654 L88 700 L542 700 L556 532 L501 523 L490 559 Q483 583 476 599 Q469 615 458.5 624.5 Q448 634 433 638.5 Q418 643 394 643 L255 643 L245 391 L494 391 L489 328 L242 328 L231 58 L388 58 Q411 58 427 62 Q443 66 454.5 76 Q466 86 474.5 102.5 Q483 119 491 143 L505 184 L560 184 L536 0 L57 0 L63 46 L145 59 L168 637 L82 654 Z " />
<glyph glyph-name="F" unicode="F" horiz-adv-x="561" d="M145 59 L168 637 L82 654 L88 700 L542 700 L556 533 L502 523 L489 562 Q483 581 476.5 596 Q470 611 460.5 621.5 Q451 632 435.5 637.5 Q420 643 394 643 L255 643 L244 383 L483 383 L478 320 L241 320 L229 58 L358 46 L352 0 L57 0 L63 46 L145 59 Z " />
<glyph glyph-name="G" unicode="G" horiz-adv-x="629" d="M580 59 Q561 44 534.5 31 Q508 18 478 8 Q448 -2 415.5 -8 Q383 -14 351 -14 Q269 -14 212 15.5 Q155 45 119 93 Q83 141 67 201.5 Q51 262 51 325 Q51 424 77.5 497 Q104 570 149.5 618.5 Q195 667 255.5 691 Q316 715 384 715 Q425 715 465.5 705 Q506 695 538 676.5 Q570 658 590 630 Q610 602 610 566 Q610 537 593.5 522 Q577 507 555 507 Q532 507 513.5 516 Q495 525 483 537 L500 571 Q510 592 503 607 Q496 622 478.5 632 Q461 642 435.5 647 Q410 652 383 652 Q273 652 209 571 Q145 490 145 333 Q145 274 158.5 222.5 Q172 171 198 133 Q224 95 263.5 73 Q303 51 355 51 Q402 51 437.5 62.5 Q473 74 495 88 L502 266 L417 286 L423 332 L592 332 L580 59 Z " />
<glyph glyph-name="H" unicode="H" horiz-adv-x="769" d="M243 328 L233 59 L328 46 L322 0 L57 0 L63 46 L145 59 L168 637 L82 654 L88 700 L346 700 L340 654 L255 637 L245 391 L559 391 L570 637 L484 654 L490 700 L747 700 L741 654 L656 637 L634 59 L729 46 L723 0 L458 0 L464 46 L546 59 L557 328 L243 328 Z " />
<glyph glyph-name="I" unicode="I" horiz-adv-x="367" d="M83 654 L89 700 L345 700 L339 654 L254 637 L232 59 L327 46 L321 0 L56 0 L62 46 L144 59 L169 637 L83 654 Z " />
<glyph glyph-name="J" unicode="J" horiz-adv-x="367" d="M67 654 L73 700 L345 700 L339 654 L254 637 L232 59 Q230 13 221 -24.5 Q212 -62 192.5 -95 Q173 -128 142 -160.5 Q111 -193 65 -229 L38 -190 Q71 -153 91.5 -122 Q112 -91 123 -62 Q134 -33 138.5 -4 Q143 25 144 59 L169 637 L67 654 Z " />
<glyph glyph-name="K" unicode="K" horiz-adv-x="696" d="M169 637 L144 59 L62 46 L56 0 L321 0 L327 46 L232 59 L254 637 L339 654 L345 700 L89 700 L83 654 L169 637 Z M270 342 L272 373 L526 639 L444 652 L453 700 L691 700 L684 653 L606 638 L357 388 L357 382 Q390 368 412.5 352 Q435 336 451 315.5 Q467 295 478.5 269 Q490 243 502 208 Q516 166 526.5 135.5 Q537 105 548 85 Q559 65 573 55 Q587 45 608 45 Q624 45 638.5 50.5 Q653 56 667 63 L687 28 Q667 8 638.5 -3 Q610 -14 581 -14 Q542 -14 516.5 -1.5 Q491 11 473 36.5 Q455 62 441.5 100.5 Q428 139 412 191 Q402 223 391 249 Q380 275 363.5 294.5 Q347 314 324.5 326 Q302 338 270 342 Z " />
<glyph glyph-name="L" unicode="L" horiz-adv-x="590" d="M145 59 L169 637 L83 654 L89 700 L366 700 L360 654 L255 637 L231 58 L381 58 Q404 58 420 62 Q436 66 447.5 76 Q459 86 467.5 102.5 Q476 119 484 143 L500 194 L555 194 L529 0 L57 0 L63 46 L145 59 Z " />
<glyph glyph-name="M" unicode="M" horiz-adv-x="932" d="M516 6 L419 -11 L235 612 L197 60 L286 46 L280 0 L42 0 L48 46 L131 60 L171 637 L86 654 L92 700 L303 700 L479 86 L680 700 L887 700 L881 652 L802 637 L822 59 L917 46 L911 0 L646 0 L652 46 L734 59 L717 622 L516 6 Z " />
<glyph glyph-name="N" unicode="N" horiz-adv-x="756" d="M586 637 L501 654 L507 700 L744 700 L738 654 L653 637 L628 0 L536 -11 L232 619 L212 59 L306 46 L300 0 L57 0 L63 46 L144 59 L168 641 L89 652 L95 700 L292 700 L568 119 L586 637 Z " />
<glyph glyph-name="O" unicode="O" horiz-adv-x="715" d="M61 328 Q61 434 89 507.5 Q117 581 163 627 Q209 673 267.5 694 Q326 715 387 715 Q449 715 502 693.5 Q555 672 593.5 630 Q632 588 654 526 Q676 464 676 382 Q676 286 650.5 212 Q625 138 581.5 87.5 Q538 37 479.5 11.5 Q421 -14 355 -14 Q282 -14 227 12.5 Q172 39 135 85.5 Q98 132 79.5 194.5 Q61 257 61 328 Z M156 349 Q156 283 170 228 Q184 173 211 134 Q238 95 277.5 73 Q317 51 368 51 Q414 51 452.5 69.5 Q491 88 519 126.5 Q547 165 562.5 224 Q578 283 578 364 Q578 504 524 578.5 Q470 653 373 653 Q329 653 289.5 636.5 Q250 620 220.5 583.5 Q191 547 173.5 489 Q156 431 156 349 Z " />
<glyph glyph-name="P" unicode="P" horiz-adv-x="584" d="M287 339 Q297 338 303.5 338 Q310 338 318 338 Q396 338 434 380.5 Q472 423 472 503 Q472 542 460 569.5 Q448 597 426 614 Q404 631 373.5 638.5 Q343 646 306 646 L255 646 L232 59 L360 45 L356 0 L50 0 L55 44 L144 60 L169 637 L82 654 L88 700 L315 700 Q371 700 418 689 Q465 678 498.5 654.5 Q532 631 550.5 593.5 Q569 556 569 502 Q569 454 552 414 Q535 374 502.5 345 Q470 316 424.5 300 Q379 284 322 284 Q304 284 284 287 L287 339 Z " />
<glyph glyph-name="Q" unicode="Q" horiz-adv-x="702" d="M52 346 Q52 447 80 517.5 Q108 588 154 632 Q200 676 258.5 695.5 Q317 715 378 715 Q440 715 493 693.5 Q546 672 584.5 630.5 Q623 589 645 528.5 Q667 468 667 390 Q667 303 646 239.5 Q625 176 586.5 132.5 Q548 89 494.5 64.5 Q441 40 375 32 L375 24 Q426 15 459.5 -3 Q493 -21 522 -43 Q574 -81 597 -86 Q620 -91 628 -63 L636 -33 Q680 -33 701.5 -52 Q723 -71 723 -100 Q723 -137 698 -155.5 Q673 -174 641 -174 Q603 -174 566.5 -154.5 Q530 -135 486 -100 Q458 -78 438 -62.5 Q418 -47 400.5 -37 Q383 -27 365.5 -22.5 Q348 -18 325 -18 Q293 -18 267.5 -27 Q242 -36 201 -54 L177 0 Q195 9 218 18 Q241 27 267 32 L267 37 Q212 51 171.5 81 Q131 111 104.5 151.5 Q78 192 65 242 Q52 292 52 346 Z M147 355 Q147 222 198.5 148.5 Q250 75 353 75 Q399 75 438.5 95 Q478 115 507 153 Q536 191 552.5 247.5 Q569 304 569 376 Q569 440 555 491.5 Q541 543 515 579 Q489 615 450.5 634 Q412 653 364 653 Q320 653 280.5 637 Q241 621 211.5 586 Q182 551 164.5 494 Q147 437 147 355 Z " />
<glyph glyph-name="R" unicode="R" horiz-adv-x="681" d="M290 370 Q374 372 419.5 414 Q465 456 465 523 Q465 560 454 584 Q443 608 422.5 621.5 Q402 635 372.5 640.5 Q343 646 306 646 L255 646 L233 58 L341 44 L336 0 L50 0 L55 44 L144 60 L169 637 L82 654 L88 700 L315 700 Q371 700 417 692 Q463 684 495 664.5 Q527 645 544.5 612.5 Q562 580 562 532 Q562 486 542 451.5 Q522 417 491 394 Q460 371 424 358 Q388 345 355 341 L355 338 Q391 323 411.5 301 Q432 279 449 243 L507 123 Q528 80 546.5 62.5 Q565 45 597 45 Q613 45 627.5 50.5 Q642 56 656 63 L676 28 Q656 8 627.5 -3 Q599 -14 570 -14 Q513 -14 479 12 Q445 38 415 98 L373 197 Q360 227 349.5 247.5 Q339 268 329 282 Q319 296 308.5 305 Q298 314 286 321 L290 370 Z " />
<glyph glyph-name="S" unicode="S" horiz-adv-x="496" d="M472 197 Q472 152 455 113.5 Q438 75 406.5 46.5 Q375 18 330.5 2 Q286 -14 232 -14 Q189 -14 153.5 -4 Q118 6 93 23.5 Q68 41 54 64.5 Q40 88 40 115 Q40 148 58.5 167.5 Q77 187 103 187 Q128 187 145 178 Q162 169 170 161 L154 128 Q147 114 147 100 Q147 86 156.5 74.5 Q166 63 186 56 Q206 49 239 49 Q268 49 295.5 56.5 Q323 64 344 80 Q365 96 378 120.5 Q391 145 391 179 Q391 217 367 242.5 Q343 268 307.5 288.5 Q272 309 230.5 328 Q189 347 153.5 372 Q118 397 94 432 Q70 467 70 519 Q70 549 81 583 Q92 617 118.5 646.5 Q145 676 188.5 695.5 Q232 715 296 715 Q334 715 366.5 705 Q399 695 424 677.5 Q449 660 463 635.5 Q477 611 477 582 Q477 553 460 535.5 Q443 518 417 518 Q395 518 377.5 526 Q360 534 352 542 L371 579 Q385 607 366 630 Q347 653 291 653 Q219 653 185.5 623.5 Q152 594 152 545 Q152 504 175.5 477 Q199 450 235 429 Q271 408 312 389 Q353 370 389 345 Q425 320 448.5 285 Q472 250 472 197 Z " />
<glyph glyph-name="T" unicode="T" horiz-adv-x="621" d="M270 59 L295 643 L207 643 Q182 643 166 638.5 Q150 634 139.5 624.5 Q129 615 122.5 599.5 Q116 584 109 562 L96 523 L40 534 L64 700 L617 700 L631 533 L577 523 L564 562 Q558 581 551.5 596 Q545 611 535.5 621.5 Q526 632 510.5 637.5 Q495 643 469 643 L380 643 L354 58 L463 46 L457 0 L159 0 L165 46 L270 59 Z " />
<glyph glyph-name="U" unicode="U" horiz-adv-x="758" d="M703 47 L696 0 L544 0 L537 12 L572 365 L568 365 Q548 278 525 208 Q502 138 471 88.5 Q440 39 398.5 12.5 Q357 -14 300 -14 Q246 -14 211.5 4.5 Q177 23 157 55 Q137 87 130 130 Q123 173 126 222 L148 639 L72 654 L78 700 L326 700 L320 654 L235 637 L214 230 Q210 134 234 96 Q258 58 313 58 Q355 58 389.5 82 Q424 106 452 162 Q472 201 489 252 Q506 303 520.5 358 Q535 413 546 468 Q557 523 563 570 L572 637 L489 654 L495 700 L727 700 L721 654 L648 637 L617 60 L703 47 Z " />
<glyph glyph-name="V" unicode="V" horiz-adv-x="690" d="M363 86 L563 638 L476 656 L482 700 L719 700 L712 652 L632 635 L398 2 L295 -11 L105 638 L28 653 L35 700 L298 700 L292 653 L204 640 L359 86 L363 86 Z " />
<glyph glyph-name="W" unicode="W" horiz-adv-x="993" d="M711 86 L871 638 L784 656 L790 700 L1027 700 L1020 652 L940 635 L746 0 L641 -10 L524 408 L365 0 L260 -10 L102 638 L25 653 L32 700 L295 700 L289 653 L201 640 L326 86 L330 86 L495 512 L447 685 L543 701 L707 86 L711 86 Z " />
<glyph glyph-name="X" unicode="X" horiz-adv-x="693" d="M253 44 L247 0 L15 0 L22 48 L99 64 L302 344 L113 639 L43 653 L50 700 L306 700 L300 653 L224 641 L361 413 L517 638 L435 656 L441 700 L673 700 L666 652 L588 635 L395 367 L591 62 L677 47 L670 0 L406 0 L412 47 L486 59 L337 297 L172 61 L253 44 Z " />
<glyph glyph-name="Y" unicode="Y" horiz-adv-x="661" d="M366 327 L539 638 L452 656 L458 700 L695 700 L688 652 L608 635 L390 261 L382 59 L477 46 L471 0 L206 0 L212 46 L294 59 L305 259 L101 638 L24 653 L31 700 L289 700 L283 653 L200 640 L362 327 L366 327 Z " />
<glyph glyph-name="Z" unicode="Z" horiz-adv-x="611" d="M166 55 L376 55 Q404 55 424 58.5 Q444 62 459 73 Q474 84 484.5 103.5 Q495 123 504 154 L517 199 L572 199 L546 0 L55 0 L57 48 L472 647 L266 647 Q239 647 221.5 643.5 Q204 640 192 630.5 Q180 621 171.5 604 Q163 587 155 560 L141 514 L84 524 L109 700 L573 700 L579 650 L166 55 Z " />
<glyph glyph-name="bracketleft" unicode="&#x5b;" horiz-adv-x="333" d="M287 -163 L281 -212 L97 -212 L135 812 L316 812 L312 764 L215 755 L182 -154 L287 -163 Z " />
<glyph glyph-name="backslash" unicode="&#x5c;" horiz-adv-x="428" d="M340 -110 L48 802 L111 802 L404 -110 L340 -110 Z " />
<glyph glyph-name="bracketright" unicode="&#x5d;" horiz-adv-x="333" d="M73 763 L79 812 L258 812 L220 -212 L35 -212 L39 -160 L140 -151 L173 754 L73 763 Z " />
<glyph glyph-name="asciicircum" unicode="&#x5e;" horiz-adv-x="582" d="M497 344 L313 635 L109 344 L61 374 L294 712 L336 712 L547 374 L497 344 Z " />
<glyph glyph-name="underscore" unicode="&#x5f;" horiz-adv-x="500" d="M13 -40 L483 -40 L481 -103 L11 -103 L13 -40 Z " />
<glyph glyph-name="grave" unicode="&#x60;" horiz-adv-x="500" d="M333 580 L199 678 Q184 689 176.5 702.5 Q169 716 170 728 Q171 745 186 757.5 Q201 770 233 769 L358 605 L333 580 Z " />
<glyph glyph-name="a" unicode="a" horiz-adv-x="575" d="M466 90 Q466 67 470 57 Q474 47 491 47 Q510 47 540 72 L565 34 Q548 18 517.5 2 Q487 -14 456 -14 Q412 -14 399 14.5 Q386 43 388 86 L405 274 L398 275 L376 193 Q363 143 347.5 104.5 Q332 66 312 39.5 Q292 13 265.5 -0.5 Q239 -14 203 -14 Q163 -14 133.5 2 Q104 18 85 47 Q66 76 57 115.5 Q48 155 48 201 Q48 272 65 331 Q82 390 113 432 Q144 474 186 497.5 Q228 521 278 521 Q313 521 343.5 513 Q374 505 392 496 L462 519 L479 511 L466 90 Z M216 54 Q245 54 265 71.5 Q285 89 300.5 122.5 Q316 156 330 205 Q344 254 362 317 L395 436 Q376 446 345 453 Q314 460 287 460 Q254 460 227 441.5 Q200 423 180.5 389 Q161 355 150 308 Q139 261 139 205 Q139 188 140 162 Q141 136 148 112 Q155 88 171 71 Q187 54 216 54 Z " />
<glyph glyph-name="b" unicode="b" horiz-adv-x="574" d="M282 -14 Q258 -14 231 -10.5 Q204 -7 178 -0.5 Q152 6 129 14.5 Q106 23 90 32 L113 698 L20 719 L26 767 L182 767 L198 756 L186 425 L159 190 L167 188 L204 326 Q231 428 270 474.5 Q309 521 376 521 Q454 521 489 464.5 Q524 408 524 308 Q524 230 506 170 Q488 110 456 69 Q424 28 379.5 7 Q335 -14 282 -14 Z M363 451 Q333 451 313 433.5 Q293 416 277.5 382.5 Q262 349 247.5 299.5 Q233 250 214 186 L181 71 Q199 63 223.5 55.5 Q248 48 281 48 Q316 48 344 66.5 Q372 85 392 119 Q412 153 423 199.5 Q434 246 434 301 Q434 322 433 348 Q432 374 425 397 Q418 420 403.5 435.5 Q389 451 363 451 Z " />
<glyph glyph-name="c" unicode="c" horiz-adv-x="489" d="M292 521 Q325 521 352.5 512.5 Q380 504 400.5 487.5 Q421 471 432.5 447.5 Q444 424 444 394 Q444 365 428 347.5 Q412 330 383 330 Q362 330 345.5 342 Q329 354 321 372 L342 396 Q357 413 357.5 425.5 Q358 438 349.5 447 Q341 456 325 460.5 Q309 465 290 465 Q221 465 180 406.5 Q139 348 139 228 Q139 192 146.5 160 Q154 128 169.5 104 Q185 80 208 66 Q231 52 262 52 Q286 52 306 59.5 Q326 67 343 78.5 Q360 90 374 103.5 Q388 117 400 129 L435 93 Q426 81 409 63 Q392 45 368 27.5 Q344 10 313 -2 Q282 -14 244 -14 Q196 -14 159.5 4 Q123 22 98.5 54 Q74 86 61 130 Q48 174 48 225 Q48 290 65.5 344 Q83 398 114.5 437.5 Q146 477 191.5 499 Q237 521 292 521 Z " />
<glyph glyph-name="d" unicode="d" horiz-adv-x="575" d="M466 86 Q465 63 470 54.5 Q475 46 492 46 Q506 46 520 53.5 Q534 61 549 71 L572 37 Q564 29 550.5 20 Q537 11 521.5 3.5 Q506 -4 489 -9 Q472 -14 457 -14 Q412 -14 398.5 14.5 Q385 43 389 86 L405 274 L398 275 L375 189 Q362 139 346.5 101 Q331 63 311 37.5 Q291 12 264 -1 Q237 -14 199 -14 Q159 -14 130.5 3.5 Q102 21 83.5 51 Q65 81 56.5 121 Q48 161 48 206 Q48 276 64.5 334 Q81 392 111.5 433.5 Q142 475 185 498 Q228 521 281 521 Q311 521 343 513 Q375 505 393 496 L401 698 L308 719 L314 767 L470 767 L486 756 L466 86 Z M215 54 Q245 54 265.5 72 Q286 90 302 123.5 Q318 157 332 206 Q346 255 363 316 L396 437 Q387 442 373 446 Q359 450 344 453 Q329 456 314.5 458 Q300 460 289 460 Q254 460 226 441 Q198 422 178.5 389 Q159 356 148.5 310.5 Q138 265 138 211 Q138 195 139 168.5 Q140 142 147.5 116.5 Q155 91 170.5 72.5 Q186 54 215 54 Z " />
<glyph glyph-name="e" unicode="e" horiz-adv-x="481" d="M288 521 Q363 521 398 486.5 Q433 452 433 394 Q433 353 416.5 324.5 Q400 296 373.5 276.5 Q347 257 314.5 245.5 Q282 234 250 226 L139 199 Q141 174 149.5 148 Q158 122 173.5 100.5 Q189 79 212 65.5 Q235 52 266 52 Q289 52 308 58.5 Q327 65 343 75 Q359 85 372.5 96 Q386 107 396 117 L430 80 Q421 69 405.5 53 Q390 37 366.5 22 Q343 7 313 -3.5 Q283 -14 246 -14 Q198 -14 161 4 Q124 22 99 54 Q74 86 61 130 Q48 174 48 225 Q48 290 65.5 344 Q83 398 114.5 437.5 Q146 477 190 499 Q234 521 288 521 Z M344 391 Q344 420 330 442.5 Q316 465 281 465 Q218 465 181 410 Q144 355 139 256 L240 282 Q293 296 318.5 319 Q344 342 344 391 Z " />
<glyph glyph-name="f" unicode="f" horiz-adv-x="367" d="M318 734 Q265 734 239.5 696.5 Q214 659 211 602 L206 507 L350 507 L346 448 L206 448 L192 122 Q191 82 184.5 37.5 Q178 -7 167 -49 Q156 -91 141 -126.5 Q126 -162 107 -184 Q70 -229 26 -229 Q-5 -229 -21.5 -215.5 Q-38 -202 -40 -181 Q-43 -149 -17 -114 L24 -131 Q50 -142 70 -131 Q90 -120 95 -82 Q98 -57 99 -32.5 Q100 -8 102 23 L117 448 L31 448 L38 500 L119 508 L122 559 Q125 607 138.5 648 Q152 689 177.5 718.5 Q203 748 239.5 765 Q276 782 324 782 Q347 782 371.5 776.5 Q396 771 416 758 Q436 745 449 723.5 Q462 702 462 671 Q462 645 446 629 Q430 613 404 613 Q371 613 351 639 L361 666 Q386 734 318 734 Z " />
<glyph glyph-name="g" unicode="g" horiz-adv-x="552" d="M398 275 L375 189 Q362 139 346.5 101.5 Q331 64 311 39 Q291 14 264 1.5 Q237 -11 199 -11 Q159 -11 130.5 6 Q102 23 83.5 52.5 Q65 82 56.5 121.5 Q48 161 48 206 Q48 276 64.5 334 Q81 392 111.5 433.5 Q142 475 185 498 Q228 521 281 521 Q311 521 345.5 515 Q380 509 409 497 L447 522 L477 512 L461 81 Q459 22 445.5 -34 Q432 -90 402 -133.5 Q372 -177 322.5 -203.5 Q273 -230 199 -230 Q173 -230 146 -225 Q119 -220 97 -209 Q75 -198 61 -179 Q47 -160 47 -133 Q47 -99 66 -79.5 Q85 -60 111 -60 Q127 -60 143 -67 Q159 -74 168 -86 L159 -115 Q135 -181 215 -181 Q293 -181 335 -112 Q377 -43 387 76 L405 274 L398 275 Z M215 57 Q245 57 265.5 74.5 Q286 92 302 125 Q318 158 332 206.5 Q346 255 363 316 L396 437 Q387 442 373 446 Q359 450 344 453 Q329 456 314.5 458 Q300 460 289 460 Q254 460 226 441 Q198 422 178.5 389 Q159 356 148.5 310.5 Q138 265 138 211 Q138 195 139 169 Q140 143 147.5 118 Q155 93 170.5 75 Q186 57 215 57 Z " />
<glyph glyph-name="h" unicode="h" horiz-adv-x="598" d="M581 38 Q572 30 558.5 21.5 Q545 13 529 5.5 Q513 -2 496 -6.5 Q479 -11 464 -11 Q419 -11 403.5 12.5 Q388 36 391 72 L416 354 Q421 408 411.5 427.5 Q402 447 377 447 Q362 447 351 441 Q340 435 330.5 421.5 Q321 408 312 385.5 Q303 363 291 330 L174 0 L92 0 L118 698 L25 719 L31 767 L187 767 L203 756 L189 409 L165 152 L172 150 L245 367 Q272 447 306.5 484 Q341 521 398 521 Q465 521 487 478.5 Q509 436 501 348 L479 93 Q477 70 481 60 Q485 50 502 50 Q513 50 528.5 56.5 Q544 63 558 74 L581 38 Z " />
<glyph glyph-name="i" unicode="i" horiz-adv-x="306" d="M96 686 Q96 715 114 734 Q132 753 161 753 Q190 753 207.5 734.5 Q225 716 225 687 Q225 658 207.5 639 Q190 620 161 620 Q132 620 114 638.5 Q96 657 96 686 Z M123 416 Q124 436 119.5 446.5 Q115 457 98 457 Q81 457 64 451.5 Q47 446 35 441 L19 486 Q38 497 70 509 Q102 521 135 521 Q176 521 194 494 Q212 467 208 408 L185 90 Q183 67 187 57 Q191 47 208 47 Q224 47 239.5 58 Q255 69 270 81 L295 43 Q287 35 275 25 Q263 15 247.5 6.5 Q232 -2 213 -8 Q194 -14 172 -14 Q125 -14 110.5 11.5 Q96 37 97 77 L123 416 Z " />
<glyph glyph-name="j" unicode="j" horiz-adv-x="289" d="M83 686 Q83 715 101 734 Q119 753 148 753 Q177 753 194.5 734.5 Q212 716 212 687 Q212 658 194.5 639 Q177 620 148 620 Q119 620 101 638.5 Q83 657 83 686 Z M191 122 Q190 82 183.5 37.5 Q177 -7 166 -49 Q155 -91 140 -126.5 Q125 -162 106 -184 Q69 -229 25 -229 Q-7 -229 -23.5 -215.5 Q-40 -202 -42 -179 Q-44 -150 -18 -114 L23 -131 Q49 -142 69 -131 Q89 -120 94 -82 Q97 -57 98 -32.5 Q99 -8 101 23 L117 416 Q118 436 113.5 446.5 Q109 457 92 457 Q75 457 58 451.5 Q41 446 29 441 L13 486 Q32 497 64 509 Q96 521 129 521 Q170 521 188 494 Q206 467 202 408 L191 122 Z " />
<glyph glyph-name="k" unicode="k" horiz-adv-x="564" d="M28 719 L34 767 L189 767 L205 756 L184 299 Q226 307 264 322 Q302 337 343 364 Q373 384 378 405 Q383 426 363 438 L335 455 Q341 487 361.5 504 Q382 521 411 521 Q443 521 460 500 Q477 479 477 451 Q477 412 453.5 383 Q430 354 377 321 Q359 310 341.5 300.5 Q324 291 307 283 L412 105 Q430 75 443.5 61 Q457 47 477 47 Q494 47 506.5 52.5 Q519 58 532 66 L554 30 Q539 16 509 1 Q479 -14 444 -14 Q405 -14 383 8 Q361 30 339 65 L232 253 L182 239 L171 0 L90 0 L121 698 L28 719 Z " />
<glyph glyph-name="l" unicode="l" horiz-adv-x="297" d="M28 719 L34 767 L189 767 L205 756 L182 90 Q181 67 185.5 57.5 Q190 48 207 48 Q223 48 237.5 58.5 Q252 69 267 81 L292 43 Q284 35 272.5 25 Q261 15 245.5 6.5 Q230 -2 211.5 -8 Q193 -14 171 -14 Q123 -14 107.5 11 Q92 36 94 77 L121 698 L28 719 Z " />
<glyph glyph-name="m" unicode="m" horiz-adv-x="883" d="M408 354 Q412 408 401.5 427.5 Q391 447 366 447 Q351 447 340.5 441.5 Q330 436 321.5 422.5 Q313 409 305 386.5 Q297 364 286 330 L179 0 L97 0 L113 416 Q114 437 108 446.5 Q102 456 86 456 Q74 456 59 450.5 Q44 445 27 438 L10 488 Q18 493 31.5 498.5 Q45 504 60.5 509 Q76 514 93 517.5 Q110 521 125 521 Q168 521 184 495.5 Q200 470 195 419 L170 152 L177 150 L241 367 Q265 448 296.5 484.5 Q328 521 385 521 Q447 521 468.5 479.5 Q490 438 482 357 L460 149 L468 147 L540 367 Q566 447 597 484 Q628 521 685 521 Q752 521 773 478.5 Q794 436 786 348 L764 90 Q762 67 766 57 Q770 47 787 47 Q798 47 813.5 53.5 Q829 60 843 71 L866 35 Q857 27 843.5 18.5 Q830 10 814 2.5 Q798 -5 781 -9.5 Q764 -14 749 -14 Q704 -14 688.5 9.5 Q673 33 676 69 L701 354 Q706 408 697.5 427.5 Q689 447 664 447 Q649 447 639.5 441 Q630 435 621.5 421.5 Q613 408 605 385.5 Q597 363 585 330 L464 0 L379 0 L408 354 Z " />
<glyph glyph-name="n" unicode="n" horiz-adv-x="603" d="M586 35 Q577 27 563.5 18.5 Q550 10 534 2.5 Q518 -5 501 -9.5 Q484 -14 469 -14 Q424 -14 408.5 9.5 Q393 33 396 69 L421 354 Q426 408 416.5 427.5 Q407 447 382 447 Q367 447 356 441 Q345 435 335.5 421.5 Q326 408 317 385.5 Q308 363 296 330 L179 0 L97 0 L113 416 Q114 437 108 446.5 Q102 456 86 456 Q74 456 59 450.5 Q44 445 27 438 L10 488 Q18 493 31.5 498.5 Q45 504 60.5 509 Q76 514 93 517.5 Q110 521 125 521 Q168 521 184 495.5 Q200 470 195 419 L170 152 L177 150 L250 367 Q277 447 311.5 484 Q346 521 403 521 Q470 521 492 478.5 Q514 436 506 348 L484 90 Q482 67 486 57 Q490 47 507 47 Q518 47 533.5 53.5 Q549 60 563 71 L586 35 Z " />
<glyph glyph-name="o" unicode="o" horiz-adv-x="539" d="M48 235 Q48 291 60.5 343 Q73 395 101 434.5 Q129 474 174 497.5 Q219 521 283 521 Q333 521 371.5 503.5 Q410 486 436.5 453.5 Q463 421 477 375.5 Q491 330 491 274 Q491 217 478 165 Q465 113 436.5 73 Q408 33 363 9.5 Q318 -14 254 -14 Q205 -14 166.5 3.5 Q128 21 101.5 53.5 Q75 86 61.5 132 Q48 178 48 235 Z M260 45 Q300 45 326.5 64 Q353 83 368.5 114.5 Q384 146 390.5 188 Q397 230 397 275 Q397 316 390.5 350.5 Q384 385 370 410 Q356 435 332.5 449 Q309 463 275 463 Q235 463 209.5 444 Q184 425 169 392.5 Q154 360 148.5 318 Q143 276 143 231 Q143 148 171 96.5 Q199 45 260 45 Z " />
<glyph glyph-name="p" unicode="p" horiz-adv-x="581" d="M112 421 Q114 456 88 456 Q77 456 57 450.5 Q37 445 26 437 L9 488 Q32 500 61.5 510.5 Q91 521 126 521 Q169 521 184.5 495.5 Q200 470 195 425 L168 190 L176 188 L213 326 Q240 428 279 474.5 Q318 521 385 521 Q463 521 498 464.5 Q533 408 533 308 Q533 230 514 170 Q495 110 463 69 Q431 28 387.5 7 Q344 -14 295 -14 Q258 -14 227 -5 Q196 4 179 13 L167 -166 L260 -176 L255 -224 L98 -227 L82 -215 L100 61 L112 421 Z M372 451 Q342 451 322 433.5 Q302 416 286.5 382.5 Q271 349 256.5 299.5 Q242 250 223 186 L189 71 Q207 63 231.5 55.5 Q256 48 288 48 Q323 48 352 66.5 Q381 85 401 119 Q421 153 432 199.5 Q443 246 443 301 Q443 322 442 348 Q441 374 434 397 Q427 420 412.5 435.5 Q398 451 372 451 Z " />
<glyph glyph-name="q" unicode="q" horiz-adv-x="552" d="M450 -127 Q449 -150 454 -158.5 Q459 -167 476 -167 Q490 -167 501 -160.5 Q512 -154 527 -144 L550 -178 Q533 -194 502.5 -210.5 Q472 -227 441 -227 Q397 -227 384 -198.5 Q371 -170 373 -127 L386 87 L407 274 L400 275 L377 189 Q364 139 348.5 101 Q333 63 313 37.5 Q293 12 266 -1 Q239 -14 201 -14 Q161 -14 132.5 3.5 Q104 21 85.5 51 Q67 81 58.5 121 Q50 161 50 206 Q50 276 66.5 334 Q83 392 113.5 433.5 Q144 475 187 498 Q230 521 283 521 Q313 521 347.5 515 Q382 509 411 497 L449 522 L479 512 L450 -127 Z M217 54 Q247 54 267.5 72 Q288 90 304 123.5 Q320 157 334 206 Q348 255 365 316 L398 437 Q389 442 375 446 Q361 450 346 453 Q331 456 316.5 458 Q302 460 291 460 Q256 460 228 441 Q200 422 180.5 389 Q161 356 150.5 310.5 Q140 265 140 211 Q140 195 141 168.5 Q142 142 149.5 116.5 Q157 91 172.5 72.5 Q188 54 217 54 Z " />
<glyph glyph-name="r" unicode="r" horiz-adv-x="466" d="M114 416 Q115 437 109 446.5 Q103 456 87 456 Q75 456 60 450.5 Q45 445 28 438 L11 488 Q19 493 32.5 498.5 Q46 504 61.5 509 Q77 514 94 517.5 Q111 521 126 521 Q169 521 185 495.5 Q201 470 196 419 L182 277 L188 276 L242 403 Q267 462 291 491.5 Q315 521 359 521 Q397 521 416.5 500.5 Q436 480 436 453 Q436 432 424 413 Q412 394 389 384 L366 411 Q358 422 350.5 427.5 Q343 433 332 433 Q324 433 317.5 429.5 Q311 426 304.5 416 Q298 406 290 389.5 Q282 373 270 346 Q242 284 225 244.5 Q208 205 198 177 Q188 149 183.5 128 Q179 107 177 82 L168 0 L94 0 L114 416 Z " />
<glyph glyph-name="s" unicode="s" horiz-adv-x="438" d="M208 44 Q252 44 280.5 64.5 Q309 85 309 123 Q309 151 291.5 169 Q274 187 247 201.5 Q220 216 189.5 230 Q159 244 132 262.5 Q105 281 87.5 307.5 Q70 334 70 374 Q70 396 79 421.5 Q88 447 109 469 Q130 491 164.5 506 Q199 521 250 521 Q280 521 306.5 513.5 Q333 506 352.5 493.5 Q372 481 383.5 463.5 Q395 446 395 425 Q395 402 381.5 389 Q368 376 347 376 Q330 376 316.5 381.5 Q303 387 296 393 L302 422 Q307 442 294.5 455 Q282 468 246 468 Q190 468 168 445 Q146 422 146 394 Q146 371 163.5 354 Q181 337 207.5 322 Q234 307 264.5 292 Q295 277 321.5 257 Q348 237 365.5 210.5 Q383 184 383 146 Q383 112 370.5 82.5 Q358 53 334 31.5 Q310 10 275.5 -2 Q241 -14 196 -14 Q125 -14 80.5 11.5 Q36 37 36 79 Q36 107 53 120 Q70 133 92 133 Q104 133 116 130 Q128 127 136 122 L136 96 Q136 68 151.5 56 Q167 44 208 44 Z " />
<glyph glyph-name="t" unicode="t" horiz-adv-x="409" d="M123 509 L164 674 L219 674 L209 507 L365 507 L361 448 L206 448 L191 137 Q189 95 204.5 73.5 Q220 52 256 52 Q285 52 309.5 67 Q334 82 357 105 L389 70 Q363 35 323.5 10.5 Q284 -14 235 -14 Q161 -14 131.5 25.5 Q102 65 105 133 L119 448 L39 448 L47 501 L123 509 Z " />
<glyph glyph-name="u" unicode="u" horiz-adv-x="600" d="M19 472 Q28 480 41.5 488.5 Q55 497 71 504.5 Q87 512 104 516.5 Q121 521 136 521 Q181 521 196.5 497.5 Q212 474 209 438 L184 156 Q179 102 186.5 81 Q194 60 219 60 Q234 60 245 66 Q256 72 265.5 86.5 Q275 101 284 124 Q293 147 305 180 L418 508 L500 508 L484 91 Q483 70 489 60.5 Q495 51 511 51 Q523 51 538 56.5 Q553 62 570 69 L587 19 Q579 15 565.5 9 Q552 3 536.5 -2 Q521 -7 504 -10.5 Q487 -14 472 -14 Q429 -14 413 11.5 Q397 37 402 88 L427 358 L419 359 L351 140 Q325 59 290 22.5 Q255 -14 198 -14 Q131 -14 111.5 30.5 Q92 75 99 162 L121 417 Q123 440 119 450 Q115 460 98 460 Q87 460 71.5 453.5 Q56 447 42 436 L19 472 Z " />
<glyph glyph-name="v" unicode="v" horiz-adv-x="534" d="M413 521 Q456 521 475 490.5 Q494 460 494 415 Q494 378 488 331.5 Q482 285 468.5 237 Q455 189 434 144 Q413 99 383.5 64 Q354 29 315 7.5 Q276 -14 226 -14 Q202 -14 177.5 -9 Q153 -4 133.5 13 Q114 30 102.5 62.5 Q91 95 94 149 L107 421 Q108 445 96.5 453 Q85 461 66 455 L21 441 L4 488 Q13 493 26.5 498.5 Q40 504 55.5 509 Q71 514 88 517.5 Q105 521 120 521 Q164 521 180.5 497.5 Q197 474 195 437 L179 156 Q176 108 186.5 79.5 Q197 51 240 51 Q284 51 316.5 82 Q349 113 370.5 158 Q392 203 403.5 254.5 Q415 306 418 346 Q420 386 412 400.5 Q404 415 384 423 L349 436 Q345 469 360.5 495 Q376 521 413 521 Z " />
<glyph glyph-name="w" unicode="w" horiz-adv-x="787" d="M452 508 Q458 479 460.5 448 Q463 417 463 385 Q463 329 457.5 272 Q452 215 445 164 Q438 113 449.5 82.5 Q461 52 507 52 Q545 52 574 83 Q603 114 623.5 159 Q644 204 655.5 255 Q667 306 670 346 Q672 386 663.5 400.5 Q655 415 635 423 L600 436 Q597 470 611 495.5 Q625 521 662 521 Q747 521 747 410 Q747 371 741 324.5 Q735 278 722 231 Q709 184 688.5 139.5 Q668 95 640 61 Q612 27 575 6.5 Q538 -14 492 -14 Q474 -14 455.5 -9 Q437 -4 421.5 7.5 Q406 19 394.5 38.5 Q383 58 379 87 Q353 38 315 12 Q277 -14 220 -14 Q202 -14 179 -9 Q156 -4 136.5 13 Q117 30 104 62.5 Q91 95 94 149 L107 421 Q108 445 96.5 453 Q85 461 66 455 L21 441 L4 488 Q13 493 26.5 498.5 Q40 504 55.5 509 Q71 514 88 517.5 Q105 521 120 521 Q164 521 180.5 497.5 Q197 474 195 437 L179 156 Q176 105 191 78 Q206 51 242 51 Q280 51 306 78 Q332 105 348 149.5 Q364 194 371.5 250.5 Q379 307 379 366 Q379 400 377 433 Q375 466 371 498 L452 508 Z " />
<glyph glyph-name="x" unicode="x" horiz-adv-x="539" d="M350 356 Q385 387 396 408.5 Q407 430 384 447 L356 468 Q362 491 380.5 506 Q399 521 425 521 Q455 521 471 501.5 Q487 482 487 457 Q487 436 479 418 Q471 400 456 382.5 Q441 365 419 346 Q397 327 369 303 L317 258 L391 99 Q406 67 417.5 57 Q429 47 446 47 Q463 47 476 52.5 Q489 58 502 66 L524 30 Q505 13 478.5 -0.5 Q452 -14 418 -14 Q377 -14 354.5 2.5 Q332 19 315 55 L242 210 L157 142 Q122 116 119 93 Q116 70 147 59 L171 50 Q166 22 148 4 Q130 -14 104 -14 Q69 -14 52.5 6.5 Q36 27 36 54 Q36 74 41.5 90.5 Q47 107 59 123.5 Q71 140 91 158 Q111 176 140 198 L218 260 L145 415 Q131 444 119 450 Q107 456 96 456 Q85 456 67 449.5 Q49 443 37 437 L20 487 Q37 496 67.5 508.5 Q98 521 132 521 Q168 521 189 505.5 Q210 490 224 459 L294 307 L350 356 Z " />
<glyph glyph-name="y" unicode="y" horiz-adv-x="529" d="M298 -57 Q283 -92 267 -123 Q251 -154 230.5 -177.5 Q210 -201 182.5 -215 Q155 -229 115 -229 Q76 -229 49.5 -210 Q23 -191 23 -159 Q23 -133 40 -113.5 Q57 -94 87 -89 L102 -117 Q114 -139 123 -149.5 Q132 -160 150 -160 Q174 -160 189 -140 Q204 -120 227 -69 L257 0 L248 0 Q216 0 196.5 14.5 Q177 29 158 59 Q132 101 117 178.5 Q102 256 102 353 L103 429 Q103 445 97.5 451 Q92 457 81 457 Q70 457 49.5 451 Q29 445 17 439 L0 488 Q17 497 50 509 Q83 521 118 521 Q158 521 174 498 Q190 475 190 435 Q190 418 189 400.5 Q188 383 188 360 Q188 272 197.5 210.5 Q207 149 226 108 Q238 82 247.5 74.5 Q257 67 271 67 L287 67 L400 338 Q417 376 413.5 395 Q410 414 385 423 L350 436 Q345 473 362.5 497 Q380 521 417 521 Q454 521 472.5 497 Q491 473 491 437 Q491 393 470 341 Q449 289 422 226 L298 -57 Z " />
<glyph glyph-name="z" unicode="z" horiz-adv-x="474" d="M436 507 L448 470 L135 72 Q151 76 167 77.5 Q183 79 199 79 Q231 79 262 72.5 Q293 66 318 66 Q332 66 340.5 71 Q349 76 356.5 88.5 Q364 101 372 123.5 Q380 146 393 181 L442 181 L415 0 Q381 -8 346.5 -8 Q312 -8 279 -4 Q246 0 214.5 4.5 Q183 9 154 9 Q125 9 107 4.5 Q89 0 75 -7 L40 41 L349 439 L190 439 Q170 439 157.5 435.5 Q145 432 136.5 422 Q128 412 121.5 393 Q115 374 107 342 L56 339 L70 496 L81 507 L436 507 Z " />
<glyph glyph-name="braceleft" unicode="&#x7b;" horiz-adv-x="372" d="M68 335 Q88 335 106 339.5 Q124 344 138 354.5 Q152 365 160 383.5 Q168 402 168 431 Q168 459 166 496 Q164 533 162 571 Q160 609 158 644 Q156 679 156 703 Q156 759 189.5 790.5 Q223 822 283 822 Q301 822 320.5 819.5 Q340 817 354 813 L343 764 Q332 766 319.5 767 Q307 768 294 768 Q275 768 259 756 Q243 744 243 702 Q243 685 244.5 651.5 Q246 618 248.5 579.5 Q251 541 252.5 503 Q254 465 254 440 Q254 406 244 383 Q234 360 218 345 Q202 330 181.5 321.5 Q161 313 140 308 Q161 302 180 294 Q199 286 212.5 271 Q226 256 234 232.5 Q242 209 242 174 Q242 150 237.5 109 Q233 68 228 26 Q223 -16 218.5 -52 Q214 -88 214 -103 Q214 -146 228 -159.5 Q242 -173 267 -173 Q278 -173 291 -172 Q304 -171 315 -169 L323 -218 Q290 -227 251 -227 Q188 -227 157 -194.5 Q126 -162 126 -106 Q126 -83 130.5 -45.5 Q135 -8 141 33.5 Q147 75 151.5 115 Q156 155 156 182 Q156 214 149 233 Q142 252 130 262 Q118 272 101.5 275 Q85 278 65 278 L68 335 Z " />
<glyph glyph-name="bar" unicode="&#x7c;" horiz-adv-x="424" d="M177 -110 L209 802 L270 802 L239 -110 L177 -110 Z " />
<glyph glyph-name="braceright" unicode="&#x7d;" horiz-adv-x="372" d="M325 278 Q305 278 287 273.5 Q269 269 255 258.5 Q241 248 233 229.5 Q225 211 225 182 Q225 154 227 114.5 Q229 75 231.5 33.5 Q234 -8 236 -46 Q238 -84 238 -108 Q238 -164 204.5 -195.5 Q171 -227 111 -227 Q93 -227 73.5 -224.5 Q54 -222 40 -218 L51 -169 Q62 -171 74.5 -172 Q87 -173 100 -173 Q119 -173 135 -161 Q151 -149 151 -107 Q151 -90 149 -53.5 Q147 -17 145 25 Q143 67 141 107.5 Q139 148 139 173 Q139 207 149 230 Q159 253 175 268 Q191 283 211.5 291.5 Q232 300 253 305 Q232 311 213 319 Q194 327 180.5 342 Q167 357 159 380.5 Q151 404 151 439 Q151 463 155 501 Q159 539 163.5 578 Q168 617 172 650 Q176 683 176 698 Q176 741 162 754.5 Q148 768 123 768 Q112 768 99 767 Q86 766 75 764 L67 813 Q100 822 139 822 Q202 822 233 789.5 Q264 757 264 701 Q264 678 260 643 Q256 608 250.5 570 Q245 532 241 495 Q237 458 237 431 Q237 399 244 380 Q251 361 263 351 Q275 341 291.5 338 Q308 335 328 335 L325 278 Z " />
<glyph glyph-name="asciitilde" unicode="&#x7e;" horiz-adv-x="582" d="M459 241 Q434 241 400 247.5 Q366 254 330.5 262 Q295 270 261.5 276.5 Q228 283 204 283 Q189 283 180.5 275.5 Q172 268 155 239 L104 258 Q117 285 128 303 Q139 321 150 331.5 Q161 342 174 346 Q187 350 204 350 Q228 350 262.5 343.5 Q297 337 333 329 Q369 321 403 314.5 Q437 308 461 308 Q475 308 484.5 317.5 Q494 327 508 352 L559 333 Q545 303 533.5 285 Q522 267 510.5 257 Q499 247 486.5 244 Q474 241 459 241 Z " />
<glyph glyph-name="uni00A0" unicode="&#xa0;" horiz-adv-x="190" d="" />
<glyph glyph-name="exclamdown" unicode="&#xa1;" horiz-adv-x="329" d="M250 457 Q250 425 229 406.5 Q208 388 177 388 Q146 388 127.5 406.5 Q109 425 109 456 Q109 487 130 504 Q151 521 182 521 Q213 521 231.5 504.5 Q250 488 250 457 Z M201 -26 Q201 -64 201 -92.5 Q201 -121 200 -144 Q198 -177 181.5 -192.5 Q165 -208 138 -208 Q119 -208 103.5 -200.5 Q88 -193 79 -184 Q90 -152 100.5 -111.5 Q111 -71 120.5 -13 Q130 45 138.5 124.5 Q147 204 153 313 L200 313 L201 -26 Z " />
<glyph glyph-name="cent" unicode="&#xa2;" horiz-adv-x="500" d="M188 43 Q157 52 133.5 71.5 Q110 91 94.5 117 Q79 143 71.5 175 Q64 207 64 241 Q64 295 79 340.5 Q94 386 121.5 420 Q149 454 188 475 Q227 496 275 501 L288 568 L329 568 L316 502 Q376 498 414 464.5 Q452 431 452 382 Q452 353 436 337 Q420 321 392 321 Q372 321 355.5 331.5 Q339 342 332 358 L352 379 Q366 393 367 405.5 Q368 418 360.5 428.5 Q353 439 339 446 Q325 453 307 454 L239 101 Q244 100 254 100 Q278 100 297 107 Q316 114 331.5 124.5 Q347 135 360 149 Q373 163 385 176 L419 148 Q409 133 393 114 Q377 95 354.5 78 Q332 61 303 49 Q274 37 238 37 L227 37 L215 -29 L174 -29 L188 43 Z M153 247 Q153 205 164.5 170 Q176 135 202 116 L265 450 Q213 437 183 387 Q153 337 153 247 Z " />
<glyph glyph-name="sterling" unicode="&#xa3;" horiz-adv-x="591" d="M66 33 Q113 67 152.5 80 Q192 93 225 95 Q208 127 191 160 Q174 193 157 232 Q146 258 135 283.5 Q124 309 116 335 L32 335 L39 388 L102 388 Q95 420 95 458 Q95 518 113 565.5 Q131 613 164 646.5 Q197 680 243 697.5 Q289 715 346 715 Q431 715 477.5 678.5 Q524 642 524 587 Q524 558 507 540.5 Q490 523 464 523 Q442 523 424.5 531 Q407 539 399 547 L418 584 Q425 597 424.5 610.5 Q424 624 415 634.5 Q406 645 387.5 652 Q369 659 340 659 Q264 659 227 610.5 Q190 562 190 468 Q190 426 193 388 L428 388 L424 335 L202 335 Q211 290 232 233.5 Q253 177 290 91 Q310 87 328 80 Q346 73 364.5 66.5 Q383 60 401.5 55 Q420 50 440 50 Q465 50 479.5 64.5 Q494 79 494 104 Q494 120 487.5 131.5 Q481 143 470.5 151.5 Q460 160 447 166 Q434 172 422 177 L441 224 Q502 207 537 176.5 Q572 146 572 93 Q572 73 564.5 54 Q557 35 542.5 20 Q528 5 507 -4.5 Q486 -14 458 -14 Q424 -14 397 -6.5 Q370 1 345 10.5 Q320 20 295 27.5 Q270 35 240 35 Q203 35 166 22 Q129 9 97 -14 L66 33 Z " />
<glyph glyph-name="currency" unicode="&#xa4;" horiz-adv-x="539" d="M104 312 Q107 375 134 416 L72 500 L103 530 L183 465 Q206 480 234 487.5 Q262 495 291 495 Q317 495 342.5 489 Q368 483 389 470 L472 533 L501 503 L435 423 Q446 403 452 378 Q458 353 457 321 Q455 286 446.5 258 Q438 230 424 209 L487 125 L456 95 L372 162 Q350 148 324 142 Q298 136 272 136 Q214 136 173 160 L89 96 L60 126 L127 208 Q103 249 104 312 Z M179 315 Q177 255 201.5 222 Q226 189 274 189 Q328 189 354.5 222.5 Q381 256 383 317 Q385 382 359.5 411 Q334 440 287 440 Q239 440 210 409.5 Q181 379 179 315 Z " />
<glyph glyph-name="yen" unicode="&#xa5;" horiz-adv-x="595" d="M195 330 L99 496 L30 509 L37 554 L274 554 L267 507 L189 501 L310 291 L456 501 L379 513 L386 554 L588 554 L581 510 L518 500 L399 330 L500 330 L498 276 L361 276 L339 245 L337 212 L496 212 L494 158 L336 158 L331 58 L428 46 L421 0 L156 0 L162 46 L244 57 L251 158 L88 158 L96 212 L253 212 L255 242 L231 276 L92 276 L100 330 L195 330 Z " />
<glyph glyph-name="brokenbar" unicode="&#xa6;" horiz-adv-x="424" d="M196 432 L209 803 L270 803 L258 432 L196 432 Z M177 -110 L191 289 L252 289 L239 -110 L177 -110 Z " />
<glyph glyph-name="section" unicode="&#xa7;" horiz-adv-x="618" d="M544 225 Q544 204 537.5 184.5 Q531 165 524 154 L484 162 Q485 206 461.5 237.5 Q438 269 402 294.5 Q366 320 324 343.5 Q282 367 246 394.5 Q210 422 186 458 Q162 494 162 545 Q162 577 174 607.5 Q186 638 210 662 Q234 686 269 700.5 Q304 715 350 715 Q384 715 414.5 706.5 Q445 698 467.5 682.5 Q490 667 503.5 644.5 Q517 622 517 594 Q517 565 500.5 548.5 Q484 532 462 532 Q439 532 420.5 541 Q402 550 390 562 L407 596 Q421 625 402 643 Q383 661 345 661 Q317 661 297.5 652.5 Q278 644 266 630 Q254 616 248.5 597 Q243 578 243 558 Q243 524 265.5 496.5 Q288 469 321 445 Q354 421 393.5 398 Q433 375 466 349.5 Q499 324 521.5 293.5 Q544 263 544 225 Z M107 334 Q107 355 113.5 374.5 Q120 394 127 405 L167 397 Q166 353 189.5 321.5 Q213 290 249 264.5 Q285 239 327 215.5 Q369 192 405 164.5 Q441 137 465 101 Q489 65 489 14 Q489 -18 477 -48.5 Q465 -79 441 -103 Q417 -127 382 -141.5 Q347 -156 301 -156 Q267 -156 236 -149.5 Q205 -143 182 -129 Q159 -115 145 -94.5 Q131 -74 131 -45 Q131 -13 150.5 4.5 Q170 22 192 22 Q215 22 232.5 14 Q250 6 262 -6 L245 -40 Q231 -69 248.5 -85.5 Q266 -102 306 -102 Q334 -102 353.5 -93.5 Q373 -85 385 -71 Q397 -57 402.5 -38 Q408 -19 408 1 Q408 35 385.5 62.5 Q363 90 330 114 Q297 138 257.5 161 Q218 184 185 209.5 Q152 235 129.5 265 Q107 295 107 334 Z " />
<glyph glyph-name="dieresis" unicode="&#xa8;" horiz-adv-x="500" d="M120 680 Q120 707 138.5 726 Q157 745 184 745 Q213 745 228.5 728.5 Q244 712 244 685 Q244 657 226 638.5 Q208 620 179 620 Q152 620 136 636.5 Q120 653 120 680 Z M318 680 Q318 707 336.5 726 Q355 745 383 745 Q411 745 426.5 728.5 Q442 712 442 685 Q442 657 424 638.5 Q406 620 378 620 Q350 620 334 636.5 Q318 653 318 680 Z " />
<glyph glyph-name="copyright" unicode="&#xa9;" horiz-adv-x="795" d="M735 325 Q735 249 711 187 Q687 125 642.5 81 Q598 37 536 12.5 Q474 -12 397 -12 Q312 -12 249 12.5 Q186 37 144 80.5 Q102 124 81 183 Q60 242 60 311 Q60 390 87 452.5 Q114 515 160.5 558 Q207 601 268.5 624 Q330 647 399 647 Q475 647 537 624.5 Q599 602 643 560 Q687 518 711 458.5 Q735 399 735 325 Z M675 319 Q675 385 654.5 436.5 Q634 488 597.5 523 Q561 558 510 576.5 Q459 595 399 595 Q339 595 288.5 575.5 Q238 556 201 519 Q164 482 143 430 Q122 378 122 312 Q122 250 141 200 Q160 150 195.5 114.5 Q231 79 282.5 59.5 Q334 40 399 40 Q463 40 514 60 Q565 80 601 117 Q637 154 656 205 Q675 256 675 319 Z M481 416 Q494 439 473.5 458.5 Q453 478 415 478 Q356 478 323.5 436.5 Q291 395 291 308 Q291 278 297.5 250 Q304 222 317.5 200.5 Q331 179 352 166 Q373 153 403 153 Q441 153 469.5 170 Q498 187 522 214 L548 187 Q537 173 522.5 158.5 Q508 144 489.5 132.5 Q471 121 447.5 113.5 Q424 106 396 106 Q347 106 313 125.5 Q279 145 258 174 Q237 203 227.5 238 Q218 273 218 303 Q218 357 233.5 398 Q249 439 276 466 Q303 493 338.5 507 Q374 521 414 521 Q441 521 466 512.5 Q491 504 510 489.5 Q529 475 540.5 456.5 Q552 438 552 417 Q552 401 542 390.5 Q532 380 515 380 Q501 380 490 385 Q479 390 471 397 L481 416 Z " />
<glyph glyph-name="ordfeminine" unicode="&#xaa;" horiz-adv-x="446" d="M375 442 Q375 426 378 418.5 Q381 411 393 411 Q406 411 428 428 L446 398 Q434 387 409.5 374.5 Q385 362 362 362 Q330 362 320.5 382.5 Q311 403 313 433 L325 567 L320 567 L304 509 Q285 438 258.5 400 Q232 362 179 362 Q121 362 93 405.5 Q65 449 65 515 Q65 565 78 607 Q91 649 113.5 679 Q136 709 167 725.5 Q198 742 234 742 Q259 742 281 736.5 Q303 731 316 724 L371 741 L384 735 L375 442 Z M188 416 Q208 416 221.5 427.5 Q235 439 246.5 462 Q258 485 268 518.5 Q278 552 291 597 L314 678 Q300 685 280.5 690 Q261 695 241 695 Q193 695 164.5 646.5 Q136 598 136 518 Q136 506 137 488.5 Q138 471 142.5 455 Q147 439 158 427.5 Q169 416 188 416 Z " />
<glyph glyph-name="guillemotleft" unicode="&#xab;" horiz-adv-x="499" d="M275 445 Q242 391 210 351 Q178 311 139 269 Q159 247 175.5 225.5 Q192 204 207.5 182 Q223 160 238 136 Q253 112 269 83 L234 57 Q183 117 139 161.5 Q95 206 46 242 L56 299 Q104 334 152.5 378 Q201 422 242 470 L275 445 Z M466 445 Q433 391 401 351 Q369 311 330 269 Q350 247 366.5 225.5 Q383 204 398.5 182 Q414 160 429 136 Q444 112 460 83 L425 57 Q374 117 330 161.5 Q286 206 237 242 L247 299 Q295 334 343.5 378 Q392 422 433 470 L466 445 Z " />
<glyph glyph-name="logicalnot" unicode="&#xac;" horiz-adv-x="582" d="M428 154 L434 304 L73 304 L76 367 L504 367 L495 154 L428 154 Z " />
<glyph glyph-name="uni00AD" unicode="&#xad;" horiz-adv-x="354" d="M312 329 L309 247 L42 247 L45 329 L312 329 Z " />
<glyph glyph-name="registered" unicode="&#xae;" horiz-adv-x="463" d="M430 583 Q430 543 416.5 509.5 Q403 476 378.5 452 Q354 428 320.5 414.5 Q287 401 246 401 Q201 401 166.5 414.5 Q132 428 109 451 Q86 474 74.5 506.5 Q63 539 63 576 Q63 618 77.5 652 Q92 686 117 710 Q142 734 175.5 746.5 Q209 759 247 759 Q332 759 381 711 Q430 663 430 583 Z M229 576 Q243 574 250.5 565.5 Q258 557 266 535 Q277 503 287 484 Q297 465 325 465 Q334 465 343.5 467.5 Q353 470 362 478 L357 491 Q353 489 348.5 488 Q344 487 340 487 Q326 487 319.5 501 Q313 515 308 531 Q300 553 291 563.5 Q282 574 263 581 L263 584 Q272 586 283 589.5 Q294 593 304.5 600 Q315 607 322 617.5 Q329 628 329 643 Q329 677 302 690 Q275 703 237 703 L157 703 L152 687 L180 683 L173 489 L143 485 L141 469 L239 469 L241 485 L211 490 L217 683 L234 683 Q258 683 273.5 676 Q289 669 289 644 Q289 621 275 608 Q261 595 235 595 L233 595 L229 576 Z " />
<glyph glyph-name="macron" unicode="&#xaf;" horiz-adv-x="500" d="M425 708 L421 635 L138 635 L142 708 L425 708 Z " />
<glyph glyph-name="degree" unicode="&#xb0;" horiz-adv-x="329" d="M43 666 Q43 689 51 710.5 Q59 732 74.5 748 Q90 764 113 773.5 Q136 783 167 783 Q226 783 256 751 Q286 719 286 668 Q286 618 255 583 Q224 548 164 548 Q101 548 72 581.5 Q43 615 43 666 Z M101 666 Q101 637 116.5 618 Q132 599 166 599 Q195 599 212 618 Q229 637 229 666 Q229 697 211.5 715 Q194 733 163 733 Q134 733 117.5 714 Q101 695 101 666 Z " />
<glyph glyph-name="plusminus" unicode="&#xb1;" horiz-adv-x="582" d="M315 141 L248 141 L255 306 L78 306 L81 369 L258 369 L265 521 L332 521 L325 369 L509 369 L506 306 L322 306 L315 141 Z M68 64 L496 64 L493 1 L65 1 L68 64 Z " />
<glyph glyph-name="uni00B2" unicode="&#xb2;" horiz-adv-x="389" d="M201 795 Q147 795 130.5 774 Q114 753 135 727 L151 707 Q146 693 132.5 686 Q119 679 102 679 Q79 679 66.5 693.5 Q54 708 54 728 Q54 754 66.5 774 Q79 794 100 808 Q121 822 149.5 829.5 Q178 837 211 837 Q285 837 326.5 807.5 Q368 778 368 715 Q368 691 359 665 Q350 639 325 607 Q300 575 256.5 534.5 Q213 494 144 439 L253 439 Q274 439 288 441 Q302 443 311.5 450 Q321 457 328 471 Q335 485 343 509 L379 509 L366 374 L62 374 L63 417 Q136 483 180.5 527 Q225 571 249.5 603 Q274 635 282 659 Q290 683 290 708 Q290 748 266.5 771.5 Q243 795 201 795 Z " />
<glyph glyph-name="uni00B3" unicode="&#xb3;" horiz-adv-x="395" d="M360 738 Q360 700 337 670.5 Q314 641 272 625 L272 619 Q320 614 348.5 592.5 Q377 571 377 517 Q377 487 363.5 459 Q350 431 323.5 409.5 Q297 388 259.5 375 Q222 362 174 362 Q153 362 131 365.5 Q109 369 90.5 378 Q72 387 60.5 402 Q49 417 49 441 Q49 464 62 479 Q75 494 101 494 Q115 494 128.5 485 Q142 476 147 467 L135 444 Q127 428 139 417.5 Q151 407 179 407 Q234 407 266.5 437 Q299 467 299 518 Q299 539 292 553 Q285 567 273 574.5 Q261 582 245 585 Q229 588 211 588 Q186 588 166 584 L160 628 Q234 637 262 666.5 Q290 696 290 733 Q290 765 267.5 780 Q245 795 203 795 Q163 795 148.5 780 Q134 765 152 742 L166 727 Q161 713 148.5 703 Q136 693 118 693 Q93 693 81 708.5 Q69 724 69 743 Q69 766 81 784 Q93 802 113 814 Q133 826 159.5 832.5 Q186 839 215 839 Q245 839 271 833.5 Q297 828 317 815.5 Q337 803 348.5 784 Q360 765 360 738 Z " />
<glyph glyph-name="acute" unicode="&#xb4;" horiz-adv-x="500" d="M308 746 Q320 761 329.5 768 Q339 775 353 775 Q375 775 384.5 757.5 Q394 740 389 705 L222 582 L200 605 L308 746 Z " />
<glyph glyph-name="uni00B5" unicode="&#xb5;" horiz-adv-x="559" d="M440 -14 Q418 -14 401.5 -5 Q385 4 374 18 Q363 32 358 49.5 Q353 67 353 84 L352 84 Q323 33 286.5 9.5 Q250 -14 220 -14 Q190 -14 166.5 -1.5 Q143 11 132 21 L131 21 Q131 -26 134.5 -67.5 Q138 -109 143 -142 Q148 -179 155 -211 L58 -230 L47 -225 L47 -79 Q47 67 57.5 211.5 Q68 356 78 508 L166 516 L177 511 Q176 499 169.5 456 Q163 413 155.5 353 Q148 293 142 222.5 Q136 152 134 86 Q147 77 169.5 68.5 Q192 60 210 60 Q268 60 303.5 100 Q339 140 344 221 L364 508 L452 516 L463 511 Q458 478 451 424 Q444 370 437.5 313 Q431 256 426.5 205 Q422 154 422 127 Q422 95 432.5 73.5 Q443 52 472 52 Q483 52 500.5 59 Q518 66 528 72 L549 33 Q521 12 493.5 -1 Q466 -14 440 -14 Z " />
<glyph glyph-name="paragraph" unicode="&#xb6;" horiz-adv-x="578" d="M272 238 Q219 238 180.5 253.5 Q142 269 117.5 297 Q93 325 81 364 Q69 403 69 451 Q69 575 130 637.5 Q191 700 301 700 L313 700 L288 238 L272 238 Z M340 -82 Q343 -57 344 -32.5 Q345 -8 347 23 L373 700 L545 700 L539 654 L456 637 L437 122 Q436 82 429.5 37.5 Q423 -7 412 -49 Q401 -91 386 -126.5 Q371 -162 352 -184 Q315 -229 271 -229 Q240 -229 223.5 -216 Q207 -203 205 -181 Q202 -150 228 -114 L269 -131 Q295 -142 315 -131 Q335 -120 340 -82 Z " />
<glyph glyph-name="periodcentered" unicode="&#xb7;" horiz-adv-x="319" d="M95 305 Q95 339 117 361 Q139 383 175 383 Q210 383 231 364 Q252 345 252 314 Q252 278 228.5 258 Q205 238 170 238 Q137 238 116 255.5 Q95 273 95 305 Z " />
<glyph glyph-name="cedilla" unicode="&#xb8;" horiz-adv-x="500" d="M249 -52 Q291 -54 319.5 -71 Q348 -88 348 -130 Q348 -175 314.5 -202 Q281 -229 230 -229 Q209 -229 186.5 -224.5 Q164 -220 148 -212 L163 -166 Q171 -169 188 -173 Q205 -177 220 -177 Q243 -177 257.5 -167 Q272 -157 272 -135 Q272 -121 265.5 -113 Q259 -105 249 -101 Q239 -97 227 -96.5 Q215 -96 204 -97 L196 -76 L224 13 L270 13 L249 -52 Z " />
<glyph glyph-name="uni00B9" unicode="&#xb9;" horiz-adv-x="302" d="M287 414 L285 374 L50 374 L53 414 L137 427 L154 778 L64 778 L70 820 L212 836 L227 830 L208 427 L287 414 Z " />
<glyph glyph-name="ordmasculine" unicode="&#xba;" horiz-adv-x="427" d="M69 538 Q69 578 79 615 Q89 652 110 680 Q131 708 164.5 724.5 Q198 741 244 741 Q320 741 360 693.5 Q400 646 400 566 Q400 526 389.5 489 Q379 452 357.5 423.5 Q336 395 302.5 378.5 Q269 362 223 362 Q151 362 110 410 Q69 458 69 538 Z M227 410 Q256 410 275 422.5 Q294 435 305 456.5 Q316 478 320 506.5 Q324 535 324 567 Q324 625 306 659.5 Q288 694 238 694 Q210 694 192 681.5 Q174 669 164 647 Q154 625 150 596.5 Q146 568 146 536 Q146 476 164.5 443 Q183 410 227 410 Z " />
<glyph glyph-name="guillemotright" unicode="&#xbb;" horiz-adv-x="499" d="M53 82 Q88 136 121 180 Q154 224 195 266 Q176 289 160.5 308 Q145 327 131 347.5 Q117 368 103.5 390.5 Q90 413 75 442 L111 468 Q195 357 289 285 L277 228 Q231 196 179 150.5 Q127 105 85 57 L53 82 Z M244 82 Q279 136 312 180 Q345 224 386 266 Q367 289 351.5 308 Q336 327 322 347.5 Q308 368 294.5 390.5 Q281 413 266 442 L302 468 Q386 357 480 285 L468 228 Q422 196 370 150.5 Q318 105 276 57 L244 82 Z " />
<glyph glyph-name="onequarter" unicode="&#xbc;" horiz-adv-x="958" d="M716 713 L303 -11 L235 -11 L649 713 L716 713 Z M297 288 L295 248 L60 248 L63 288 L147 301 L164 652 L74 652 L80 694 L222 710 L237 704 L218 301 L297 288 Z M899 133 L897 82 L819 82 L816 0 L742 0 L745 82 L527 82 L520 128 L750 447 L824 457 L835 451 L821 133 L899 133 Z M759 382 L582 133 L747 133 L759 382 Z " />
<glyph glyph-name="onehalf" unicode="&#xbd;" horiz-adv-x="922" d="M693 713 L280 -11 L212 -11 L626 713 L693 713 Z M292 288 L290 248 L55 248 L58 288 L142 301 L159 652 L69 652 L75 694 L217 710 L232 704 L213 301 L292 288 Z M725 422 Q671 422 654.5 401 Q638 380 659 354 L675 334 Q670 320 656.5 313 Q643 306 626 306 Q603 306 590.5 320.5 Q578 335 578 355 Q578 381 590.5 401 Q603 421 624 435 Q645 449 673.5 456.5 Q702 464 735 464 Q809 464 850.5 434.5 Q892 405 892 342 Q892 318 883 292 Q874 266 849 234 Q824 202 780.5 161.5 Q737 121 668 66 L777 66 Q798 66 812 68 Q826 70 835.5 77 Q845 84 852 98 Q859 112 867 136 L903 136 L890 1 L586 1 L587 44 Q660 110 704.5 154 Q749 198 773.5 230 Q798 262 806 286 Q814 310 814 335 Q814 375 790.5 398.5 Q767 422 725 422 Z " />
<glyph glyph-name="threequarters" unicode="&#xbe;" horiz-adv-x="966" d="M767 713 L354 -11 L286 -11 L700 713 L767 713 Z M385 611 Q385 573 362 543.5 Q339 514 297 498 L297 492 Q345 487 373.5 465.5 Q402 444 402 390 Q402 360 388.5 332 Q375 304 348.5 282.5 Q322 261 284.5 248 Q247 235 199 235 Q178 235 156 238.5 Q134 242 115.5 251 Q97 260 85.5 275 Q74 290 74 314 Q74 337 87 352 Q100 367 126 367 Q140 367 153.5 358 Q167 349 172 340 L160 317 Q152 301 164 290.5 Q176 280 204 280 Q259 280 291.5 310 Q324 340 324 391 Q324 412 317 426 Q310 440 298 447.5 Q286 455 270 458 Q254 461 236 461 Q211 461 191 457 L185 501 Q259 510 287 539.5 Q315 569 315 606 Q315 638 292.5 653 Q270 668 228 668 Q188 668 173.5 653 Q159 638 177 615 L191 600 Q186 586 173.5 576 Q161 566 143 566 Q118 566 106 581.5 Q94 597 94 616 Q94 639 106 657 Q118 675 138 687 Q158 699 184.5 705.5 Q211 712 240 712 Q270 712 296 706.5 Q322 701 342 688.5 Q362 676 373.5 657 Q385 638 385 611 Z M926 133 L924 82 L846 82 L843 0 L769 0 L772 82 L554 82 L547 128 L777 447 L851 457 L862 451 L848 133 L926 133 Z M786 382 L609 133 L774 133 L786 382 Z " />
<glyph glyph-name="questiondown" unicode="&#xbf;" horiz-adv-x="512" d="M356 457 Q356 425 335 406.5 Q314 388 283 388 Q252 388 233.5 406.5 Q215 425 215 456 Q215 487 236 504 Q257 521 288 521 Q319 521 337.5 504.5 Q356 488 356 457 Z M354 125 Q255 104 208 59 Q161 14 161 -45 Q161 -96 191.5 -126 Q222 -156 280 -156 Q311 -156 333.5 -148.5 Q356 -141 367 -128.5 Q378 -116 377.5 -100.5 Q377 -85 363 -69 L342 -45 Q350 -27 366.5 -15 Q383 -3 404 -3 Q433 -3 449 -19 Q465 -35 465 -64 Q465 -98 447 -125 Q429 -152 400 -170.5 Q371 -189 335.5 -198.5 Q300 -208 265 -208 Q226 -208 191 -198 Q156 -188 130 -167 Q104 -146 89 -114.5 Q74 -83 74 -40 Q74 34 122.5 93.5 Q171 153 280 188 L253 313 L316 313 L354 125 Z " />
<glyph glyph-name="Agrave" unicode="&#xc0;" horiz-adv-x="691" d="M440 752 L288 822 Q269 830 259 843.5 Q249 857 249 871 Q249 886 261.5 900.5 Q274 915 303 920 L460 781 L440 752 Z M603 57 L688 46 L682 0 L416 0 L422 46 L503 58 L457 231 L217 231 L157 58 L248 46 L242 0 L8 0 L14 46 L93 58 L322 695 L421 706 L603 57 Z M442 288 L355 619 L352 619 L237 288 L442 288 Z " />
<glyph glyph-name="Aacute" unicode="&#xc1;" horiz-adv-x="691" d="M412 899 Q424 910 433 915.5 Q442 921 453 921 Q471 921 482 908 Q493 895 493 876 Q493 861 485 839 L301 752 L282 779 L412 899 Z M603 57 L688 46 L682 0 L416 0 L422 46 L503 58 L457 231 L217 231 L157 58 L248 46 L242 0 L8 0 L14 46 L93 58 L322 695 L421 706 L603 57 Z M442 288 L355 619 L352 619 L237 288 L442 288 Z " />
<glyph glyph-name="Acircumflex" unicode="&#xc2;" horiz-adv-x="691" d="M515 750 L378 838 L242 751 L220 777 L335 903 Q350 919 361 926 Q372 933 383 933 Q392 933 397 932 Q402 931 407 929 L540 774 L515 750 Z M603 57 L688 46 L682 0 L416 0 L422 46 L503 58 L457 231 L217 231 L157 58 L248 46 L242 0 L8 0 L14 46 L93 58 L322 695 L421 706 L603 57 Z M442 288 L355 619 L352 619 L237 288 L442 288 Z " />
<glyph glyph-name="Atilde" unicode="&#xc3;" horiz-adv-x="691" d="M452 776 Q432 776 412.5 781 Q393 786 363 800 Q339 811 319.5 820 Q300 829 292 829 Q280 829 271.5 822.5 Q263 816 246 792 L215 811 Q229 839 240.5 857 Q252 875 263.5 885 Q275 895 286.5 898.5 Q298 902 312 902 Q329 902 348 894.5 Q367 887 397 874 Q418 865 437.5 857.5 Q457 850 470 850 Q483 850 492 859 Q501 868 515 887 L546 868 Q520 817 500.5 796.5 Q481 776 452 776 Z M603 57 L688 46 L682 0 L416 0 L422 46 L503 58 L457 231 L217 231 L157 58 L248 46 L242 0 L8 0 L14 46 L93 58 L322 695 L421 706 L603 57 Z M442 288 L355 619 L352 619 L237 288 L442 288 Z " />
<glyph glyph-name="Adieresis" unicode="&#xc4;" horiz-adv-x="691" d="M218 831 Q218 858 236.5 877 Q255 896 282 896 Q311 896 326.5 879.5 Q342 863 342 836 Q342 808 324 789.5 Q306 771 277 771 Q250 771 234 787.5 Q218 804 218 831 Z M416 831 Q416 858 434.5 877 Q453 896 481 896 Q509 896 524.5 879.5 Q540 863 540 836 Q540 808 522 789.5 Q504 771 476 771 Q448 771 432 787.5 Q416 804 416 831 Z M603 57 L688 46 L682 0 L416 0 L422 46 L503 58 L457 231 L217 231 L157 58 L248 46 L242 0 L8 0 L14 46 L93 58 L322 695 L421 706 L603 57 Z M442 288 L355 619 L352 619 L237 288 L442 288 Z " />
<glyph glyph-name="Aring" unicode="&#xc5;" horiz-adv-x="691" d="M277 839 Q277 880 305 910.5 Q333 941 385 941 Q434 941 457.5 916 Q481 891 481 847 Q481 802 452.5 772 Q424 742 375 742 Q322 742 299.5 768 Q277 794 277 839 Z M332 840 Q332 820 342 804 Q352 788 378 788 Q404 788 414.5 805 Q425 822 425 844 Q425 865 414.5 880.5 Q404 896 380 896 Q355 896 343.5 878 Q332 860 332 840 Z M603 57 L688 46 L682 0 L416 0 L422 46 L503 58 L457 231 L217 231 L157 58 L248 46 L242 0 L8 0 L14 46 L93 58 L322 695 L421 706 L603 57 Z M442 288 L355 619 L352 619 L237 288 L442 288 Z " />
<glyph glyph-name="AE" unicode="&#xc6;" horiz-adv-x="921" d="M780 532 L725 523 L714 559 Q707 583 700 599 Q693 615 682.5 624.5 Q672 634 657 638.5 Q642 643 618 643 L439 643 L509 391 L753 391 L748 328 L527 328 L598 58 L709 58 Q732 58 748 62 Q764 66 775.5 76 Q787 86 795.5 102.5 Q804 119 812 143 L826 184 L881 184 L857 0 L416 0 L422 46 L503 58 L457 231 L217 231 L157 58 L248 46 L242 0 L8 0 L14 46 L93 58 L322 699 L766 700 L780 532 Z M442 288 L355 619 L352 619 L237 288 L442 288 Z " />
<glyph glyph-name="Ccedilla" unicode="&#xc7;" horiz-adv-x="629" d="M359 55 Q422 55 468.5 88 Q515 121 555 168 L594 128 Q577 104 555 80 Q533 56 505 36 Q477 16 442.5 2.5 Q408 -11 366 -13 L354 -52 Q396 -54 424.5 -71 Q453 -88 453 -130 Q453 -175 419.5 -202 Q386 -229 335 -229 Q314 -229 291.5 -224.5 Q269 -220 253 -212 L268 -166 Q276 -169 293 -173 Q310 -177 325 -177 Q348 -177 362.5 -167 Q377 -157 377 -135 Q377 -121 370.5 -113 Q364 -105 354 -101 Q344 -97 332 -96.5 Q320 -96 309 -97 L301 -76 L321 -13 Q248 -7 198.5 26.5 Q149 60 120 108 Q91 156 78.5 213.5 Q66 271 66 325 Q66 423 91 496 Q116 569 159.5 617.5 Q203 666 261 690.5 Q319 715 384 715 Q423 715 462 705 Q501 695 532.5 676.5 Q564 658 584 630 Q604 602 604 566 Q604 537 587.5 522 Q571 507 549 507 Q526 507 507.5 516 Q489 525 477 537 L494 571 Q504 592 497 607 Q490 622 472.5 632 Q455 642 430 647 Q405 652 380 652 Q276 652 218 571.5 Q160 491 160 334 Q160 281 171.5 230.5 Q183 180 207 141 Q231 102 269 78.5 Q307 55 359 55 Z " />
<glyph glyph-name="Egrave" unicode="&#xc8;" horiz-adv-x="600" d="M405 752 L253 822 Q234 830 224 843.5 Q214 857 214 871 Q214 886 226.5 900.5 Q239 915 268 920 L425 781 L405 752 Z M82 654 L88 700 L542 700 L556 532 L501 523 L490 559 Q483 583 476 599 Q469 615 458.5 624.5 Q448 634 433 638.5 Q418 643 394 643 L255 643 L245 391 L494 391 L489 328 L242 328 L231 58 L388 58 Q411 58 427 62 Q443 66 454.5 76 Q466 86 474.5 102.5 Q483 119 491 143 L505 184 L560 184 L536 0 L57 0 L63 46 L145 59 L168 637 L82 654 Z " />
<glyph glyph-name="Eacute" unicode="&#xc9;" horiz-adv-x="600" d="M377 899 Q389 910 398 915.5 Q407 921 418 921 Q436 921 447 908 Q458 895 458 876 Q458 861 450 839 L266 752 L247 779 L377 899 Z M82 654 L88 700 L542 700 L556 532 L501 523 L490 559 Q483 583 476 599 Q469 615 458.5 624.5 Q448 634 433 638.5 Q418 643 394 643 L255 643 L245 391 L494 391 L489 328 L242 328 L231 58 L388 58 Q411 58 427 62 Q443 66 454.5 76 Q466 86 474.5 102.5 Q483 119 491 143 L505 184 L560 184 L536 0 L57 0 L63 46 L145 59 L168 637 L82 654 Z " />
<glyph glyph-name="Ecircumflex" unicode="&#xca;" horiz-adv-x="600" d="M480 750 L343 838 L207 751 L185 777 L300 903 Q315 919 326 926 Q337 933 348 933 Q357 933 362 932 Q367 931 372 929 L505 774 L480 750 Z M82 654 L88 700 L542 700 L556 532 L501 523 L490 559 Q483 583 476 599 Q469 615 458.5 624.5 Q448 634 433 638.5 Q418 643 394 643 L255 643 L245 391 L494 391 L489 328 L242 328 L231 58 L388 58 Q411 58 427 62 Q443 66 454.5 76 Q466 86 474.5 102.5 Q483 119 491 143 L505 184 L560 184 L536 0 L57 0 L63 46 L145 59 L168 637 L82 654 Z " />
<glyph glyph-name="Edieresis" unicode="&#xcb;" horiz-adv-x="600" d="M183 831 Q183 858 201.5 877 Q220 896 247 896 Q276 896 291.5 879.5 Q307 863 307 836 Q307 808 289 789.5 Q271 771 242 771 Q215 771 199 787.5 Q183 804 183 831 Z M381 831 Q381 858 399.5 877 Q418 896 446 896 Q474 896 489.5 879.5 Q505 863 505 836 Q505 808 487 789.5 Q469 771 441 771 Q413 771 397 787.5 Q381 804 381 831 Z M82 654 L88 700 L542 700 L556 532 L501 523 L490 559 Q483 583 476 599 Q469 615 458.5 624.5 Q448 634 433 638.5 Q418 643 394 643 L255 643 L245 391 L494 391 L489 328 L242 328 L231 58 L388 58 Q411 58 427 62 Q443 66 454.5 76 Q466 86 474.5 102.5 Q483 119 491 143 L505 184 L560 184 L536 0 L57 0 L63 46 L145 59 L168 637 L82 654 Z " />
<glyph glyph-name="Igrave" unicode="&#xcc;" horiz-adv-x="367" d="M280 752 L128 822 Q109 830 99 843.5 Q89 857 89 871 Q89 886 101.5 900.5 Q114 915 143 920 L300 781 L280 752 Z M83 654 L89 700 L345 700 L339 654 L254 637 L232 59 L327 46 L321 0 L56 0 L62 46 L144 59 L169 637 L83 654 Z " />
<glyph glyph-name="Iacute" unicode="&#xcd;" horiz-adv-x="367" d="M252 899 Q264 910 273 915.5 Q282 921 293 921 Q311 921 322 908 Q333 895 333 876 Q333 861 325 839 L141 752 L122 779 L252 899 Z M83 654 L89 700 L345 700 L339 654 L254 637 L232 59 L327 46 L321 0 L56 0 L62 46 L144 59 L169 637 L83 654 Z " />
<glyph glyph-name="Icircumflex" unicode="&#xce;" horiz-adv-x="367" d="M355 750 L218 838 L82 751 L60 777 L175 903 Q190 919 201 926 Q212 933 223 933 Q232 933 237 932 Q242 931 247 929 L380 774 L355 750 Z M83 654 L89 700 L345 700 L339 654 L254 637 L232 59 L327 46 L321 0 L56 0 L62 46 L144 59 L169 637 L83 654 Z " />
<glyph glyph-name="Idieresis" unicode="&#xcf;" horiz-adv-x="367" d="M58 831 Q58 858 76.5 877 Q95 896 122 896 Q151 896 166.5 879.5 Q182 863 182 836 Q182 808 164 789.5 Q146 771 117 771 Q90 771 74 787.5 Q58 804 58 831 Z M256 831 Q256 858 274.5 877 Q293 896 321 896 Q349 896 364.5 879.5 Q380 863 380 836 Q380 808 362 789.5 Q344 771 316 771 Q288 771 272 787.5 Q256 804 256 831 Z M83 654 L89 700 L345 700 L339 654 L254 637 L232 59 L327 46 L321 0 L56 0 L62 46 L144 59 L169 637 L83 654 Z " />
<glyph glyph-name="Eth" unicode="&#xd0;" horiz-adv-x="730" d="M355 700 Q424 700 485.5 683.5 Q547 667 593 630 Q639 593 666 534.5 Q693 476 693 392 Q693 309 674 247.5 Q655 186 622.5 142.5 Q590 99 547.5 71.5 Q505 44 457.5 28 Q410 12 361 6 Q312 0 268 0 L50 0 L55 45 L144 60 L156 331 L41 331 L50 391 L158 391 L169 637 L82 654 L88 700 L355 700 Z M260 55 Q315 55 374 66.5 Q433 78 482.5 113 Q532 148 564 212.5 Q596 277 596 383 Q596 460 574 510.5 Q552 561 516.5 591 Q481 621 436 633.5 Q391 646 344 646 L255 646 L245 391 L445 391 L437 331 L243 331 L232 55 L260 55 Z " />
<glyph glyph-name="Ntilde" unicode="&#xd1;" horiz-adv-x="756" d="M485 776 Q465 776 445.5 781 Q426 786 396 800 Q372 811 352.5 820 Q333 829 325 829 Q313 829 304.5 822.5 Q296 816 279 792 L248 811 Q262 839 273.5 857 Q285 875 296.5 885 Q308 895 319.5 898.5 Q331 902 345 902 Q362 902 381 894.5 Q400 887 430 874 Q451 865 470.5 857.5 Q490 850 503 850 Q516 850 525 859 Q534 868 548 887 L579 868 Q553 817 533.5 796.5 Q514 776 485 776 Z M586 637 L501 654 L507 700 L744 700 L738 654 L653 637 L628 0 L536 -11 L232 619 L212 59 L306 46 L300 0 L57 0 L63 46 L144 59 L168 641 L89 652 L95 700 L292 700 L568 119 L586 637 Z " />
<glyph glyph-name="Ograve" unicode="&#xd2;" horiz-adv-x="715" d="M453 752 L301 822 Q282 830 272 843.5 Q262 857 262 871 Q262 886 274.5 900.5 Q287 915 316 920 L473 781 L453 752 Z M61 328 Q61 434 89 507.5 Q117 581 163 627 Q209 673 267.5 694 Q326 715 387 715 Q449 715 502 693.5 Q555 672 593.5 630 Q632 588 654 526 Q676 464 676 382 Q676 286 650.5 212 Q625 138 581.5 87.5 Q538 37 479.5 11.5 Q421 -14 355 -14 Q282 -14 227 12.5 Q172 39 135 85.5 Q98 132 79.5 194.5 Q61 257 61 328 Z M156 349 Q156 283 170 228 Q184 173 211 134 Q238 95 277.5 73 Q317 51 368 51 Q414 51 452.5 69.5 Q491 88 519 126.5 Q547 165 562.5 224 Q578 283 578 364 Q578 504 524 578.5 Q470 653 373 653 Q329 653 289.5 636.5 Q250 620 220.5 583.5 Q191 547 173.5 489 Q156 431 156 349 Z " />
<glyph glyph-name="Oacute" unicode="&#xd3;" horiz-adv-x="715" d="M425 899 Q437 910 446 915.5 Q455 921 466 921 Q484 921 495 908 Q506 895 506 876 Q506 861 498 839 L314 752 L295 779 L425 899 Z M61 328 Q61 434 89 507.5 Q117 581 163 627 Q209 673 267.5 694 Q326 715 387 715 Q449 715 502 693.5 Q555 672 593.5 630 Q632 588 654 526 Q676 464 676 382 Q676 286 650.5 212 Q625 138 581.5 87.5 Q538 37 479.5 11.5 Q421 -14 355 -14 Q282 -14 227 12.5 Q172 39 135 85.5 Q98 132 79.5 194.5 Q61 257 61 328 Z M156 349 Q156 283 170 228 Q184 173 211 134 Q238 95 277.5 73 Q317 51 368 51 Q414 51 452.5 69.5 Q491 88 519 126.5 Q547 165 562.5 224 Q578 283 578 364 Q578 504 524 578.5 Q470 653 373 653 Q329 653 289.5 636.5 Q250 620 220.5 583.5 Q191 547 173.5 489 Q156 431 156 349 Z " />
<glyph glyph-name="Ocircumflex" unicode="&#xd4;" horiz-adv-x="715" d="M528 750 L391 838 L255 751 L233 777 L348 903 Q363 919 374 926 Q385 933 396 933 Q405 933 410 932 Q415 931 420 929 L553 774 L528 750 Z M61 328 Q61 434 89 507.5 Q117 581 163 627 Q209 673 267.5 694 Q326 715 387 715 Q449 715 502 693.5 Q555 672 593.5 630 Q632 588 654 526 Q676 464 676 382 Q676 286 650.5 212 Q625 138 581.5 87.5 Q538 37 479.5 11.5 Q421 -14 355 -14 Q282 -14 227 12.5 Q172 39 135 85.5 Q98 132 79.5 194.5 Q61 257 61 328 Z M156 349 Q156 283 170 228 Q184 173 211 134 Q238 95 277.5 73 Q317 51 368 51 Q414 51 452.5 69.5 Q491 88 519 126.5 Q547 165 562.5 224 Q578 283 578 364 Q578 504 524 578.5 Q470 653 373 653 Q329 653 289.5 636.5 Q250 620 220.5 583.5 Q191 547 173.5 489 Q156 431 156 349 Z " />
<glyph glyph-name="Otilde" unicode="&#xd5;" horiz-adv-x="715" d="M465 776 Q445 776 425.5 781 Q406 786 376 800 Q352 811 332.5 820 Q313 829 305 829 Q293 829 284.5 822.5 Q276 816 259 792 L228 811 Q242 839 253.5 857 Q265 875 276.5 885 Q288 895 299.5 898.5 Q311 902 325 902 Q342 902 361 894.5 Q380 887 410 874 Q431 865 450.5 857.5 Q470 850 483 850 Q496 850 505 859 Q514 868 528 887 L559 868 Q533 817 513.5 796.5 Q494 776 465 776 Z M61 328 Q61 434 89 507.5 Q117 581 163 627 Q209 673 267.5 694 Q326 715 387 715 Q449 715 502 693.5 Q555 672 593.5 630 Q632 588 654 526 Q676 464 676 382 Q676 286 650.5 212 Q625 138 581.5 87.5 Q538 37 479.5 11.5 Q421 -14 355 -14 Q282 -14 227 12.5 Q172 39 135 85.5 Q98 132 79.5 194.5 Q61 257 61 328 Z M156 349 Q156 283 170 228 Q184 173 211 134 Q238 95 277.5 73 Q317 51 368 51 Q414 51 452.5 69.5 Q491 88 519 126.5 Q547 165 562.5 224 Q578 283 578 364 Q578 504 524 578.5 Q470 653 373 653 Q329 653 289.5 636.5 Q250 620 220.5 583.5 Q191 547 173.5 489 Q156 431 156 349 Z " />
<glyph glyph-name="Odieresis" unicode="&#xd6;" horiz-adv-x="715" d="M231 831 Q231 858 249.5 877 Q268 896 295 896 Q324 896 339.5 879.5 Q355 863 355 836 Q355 808 337 789.5 Q319 771 290 771 Q263 771 247 787.5 Q231 804 231 831 Z M429 831 Q429 858 447.5 877 Q466 896 494 896 Q522 896 537.5 879.5 Q553 863 553 836 Q553 808 535 789.5 Q517 771 489 771 Q461 771 445 787.5 Q429 804 429 831 Z M61 328 Q61 434 89 507.5 Q117 581 163 627 Q209 673 267.5 694 Q326 715 387 715 Q449 715 502 693.5 Q555 672 593.5 630 Q632 588 654 526 Q676 464 676 382 Q676 286 650.5 212 Q625 138 581.5 87.5 Q538 37 479.5 11.5 Q421 -14 355 -14 Q282 -14 227 12.5 Q172 39 135 85.5 Q98 132 79.5 194.5 Q61 257 61 328 Z M156 349 Q156 283 170 228 Q184 173 211 134 Q238 95 277.5 73 Q317 51 368 51 Q414 51 452.5 69.5 Q491 88 519 126.5 Q547 165 562.5 224 Q578 283 578 364 Q578 504 524 578.5 Q470 653 373 653 Q329 653 289.5 636.5 Q250 620 220.5 583.5 Q191 547 173.5 489 Q156 431 156 349 Z " />
<glyph glyph-name="multiply" unicode="&#xd7;" horiz-adv-x="582" d="M148 129 L107 171 L247 307 L111 446 L158 488 L291 350 L436 488 L476 444 L332 306 L469 164 L423 120 L288 263 L148 129 Z " />
<glyph glyph-name="Oslash" unicode="&#xd8;" horiz-adv-x="715" d="M608 612 Q640 570 658 513 Q676 456 676 382 Q676 286 650.5 212 Q625 138 581.5 87.5 Q538 37 479.5 11.5 Q421 -14 355 -14 Q298 -14 252 2.5 Q206 19 171 48 L123 -14 L46 -14 L129 93 Q95 139 78 199 Q61 259 61 328 Q61 434 89 507.5 Q117 581 163 627 Q209 673 267.5 694 Q326 715 387 715 Q439 715 484.5 700 Q530 685 566 656 L612 715 L688 715 L608 612 Z M156 349 Q156 245 190 171 L515 590 Q461 653 373 653 Q329 653 289.5 636.5 Q250 620 220.5 583.5 Q191 547 173.5 489 Q156 431 156 349 Z M578 364 Q578 466 548 535 L224 116 Q250 85 286.5 68 Q323 51 368 51 Q414 51 452.5 69.5 Q491 88 519 126.5 Q547 165 562.5 224 Q578 283 578 364 Z " />
<glyph glyph-name="Ugrave" unicode="&#xd9;" horiz-adv-x="758" d="M470 752 L318 822 Q299 830 289 843.5 Q279 857 279 871 Q279 886 291.5 900.5 Q304 915 333 920 L490 781 L470 752 Z M703 47 L696 0 L544 0 L537 12 L572 365 L568 365 Q548 278 525 208 Q502 138 471 88.5 Q440 39 398.5 12.5 Q357 -14 300 -14 Q246 -14 211.5 4.5 Q177 23 157 55 Q137 87 130 130 Q123 173 126 222 L148 639 L72 654 L78 700 L326 700 L320 654 L235 637 L214 230 Q210 134 234 96 Q258 58 313 58 Q355 58 389.5 82 Q424 106 452 162 Q472 201 489 252 Q506 303 520.5 358 Q535 413 546 468 Q557 523 563 570 L572 637 L489 654 L495 700 L727 700 L721 654 L648 637 L617 60 L703 47 Z " />
<glyph glyph-name="Uacute" unicode="&#xda;" horiz-adv-x="758" d="M442 899 Q454 910 463 915.5 Q472 921 483 921 Q501 921 512 908 Q523 895 523 876 Q523 861 515 839 L331 752 L312 779 L442 899 Z M703 47 L696 0 L544 0 L537 12 L572 365 L568 365 Q548 278 525 208 Q502 138 471 88.5 Q440 39 398.5 12.5 Q357 -14 300 -14 Q246 -14 211.5 4.5 Q177 23 157 55 Q137 87 130 130 Q123 173 126 222 L148 639 L72 654 L78 700 L326 700 L320 654 L235 637 L214 230 Q210 134 234 96 Q258 58 313 58 Q355 58 389.5 82 Q424 106 452 162 Q472 201 489 252 Q506 303 520.5 358 Q535 413 546 468 Q557 523 563 570 L572 637 L489 654 L495 700 L727 700 L721 654 L648 637 L617 60 L703 47 Z " />
<glyph glyph-name="Ucircumflex" unicode="&#xdb;" horiz-adv-x="758" d="M545 750 L408 838 L272 751 L250 777 L365 903 Q380 919 391 926 Q402 933 413 933 Q422 933 427 932 Q432 931 437 929 L570 774 L545 750 Z M703 47 L696 0 L544 0 L537 12 L572 365 L568 365 Q548 278 525 208 Q502 138 471 88.5 Q440 39 398.5 12.5 Q357 -14 300 -14 Q246 -14 211.5 4.5 Q177 23 157 55 Q137 87 130 130 Q123 173 126 222 L148 639 L72 654 L78 700 L326 700 L320 654 L235 637 L214 230 Q210 134 234 96 Q258 58 313 58 Q355 58 389.5 82 Q424 106 452 162 Q472 201 489 252 Q506 303 520.5 358 Q535 413 546 468 Q557 523 563 570 L572 637 L489 654 L495 700 L727 700 L721 654 L648 637 L617 60 L703 47 Z " />
<glyph glyph-name="Udieresis" unicode="&#xdc;" horiz-adv-x="758" d="M248 831 Q248 858 266.5 877 Q285 896 312 896 Q341 896 356.5 879.5 Q372 863 372 836 Q372 808 354 789.5 Q336 771 307 771 Q280 771 264 787.5 Q248 804 248 831 Z M446 831 Q446 858 464.5 877 Q483 896 511 896 Q539 896 554.5 879.5 Q570 863 570 836 Q570 808 552 789.5 Q534 771 506 771 Q478 771 462 787.5 Q446 804 446 831 Z M703 47 L696 0 L544 0 L537 12 L572 365 L568 365 Q548 278 525 208 Q502 138 471 88.5 Q440 39 398.5 12.5 Q357 -14 300 -14 Q246 -14 211.5 4.5 Q177 23 157 55 Q137 87 130 130 Q123 173 126 222 L148 639 L72 654 L78 700 L326 700 L320 654 L235 637 L214 230 Q210 134 234 96 Q258 58 313 58 Q355 58 389.5 82 Q424 106 452 162 Q472 201 489 252 Q506 303 520.5 358 Q535 413 546 468 Q557 523 563 570 L572 637 L489 654 L495 700 L727 700 L721 654 L648 637 L617 60 L703 47 Z " />
<glyph glyph-name="Yacute" unicode="&#xdd;" horiz-adv-x="661" d="M408 899 Q420 910 429 915.5 Q438 921 449 921 Q467 921 478 908 Q489 895 489 876 Q489 861 481 839 L297 752 L278 779 L408 899 Z M366 327 L539 638 L452 656 L458 700 L695 700 L688 652 L608 635 L390 261 L382 59 L477 46 L471 0 L206 0 L212 46 L294 59 L305 259 L101 638 L24 653 L31 700 L289 700 L283 653 L200 640 L362 327 L366 327 Z " />
<glyph glyph-name="Thorn" unicode="&#xde;" horiz-adv-x="579" d="M55 44 L144 60 L169 637 L82 654 L88 700 L371 700 L365 654 L254 640 L251 559 L310 559 Q366 559 413 548 Q460 537 493.5 513.5 Q527 490 545.5 452.5 Q564 415 564 361 Q564 313 547 274.5 Q530 236 497.5 209 Q465 182 419.5 167 Q374 152 317 152 L236 152 L232 59 L360 45 L356 0 L50 0 L55 44 Z M313 206 Q467 205 467 362 Q467 401 455 428.5 Q443 456 421 473 Q399 490 368.5 497.5 Q338 505 301 505 L250 505 L238 207 L313 206 Z " />
<glyph glyph-name="germandbls" unicode="&#xdf;" horiz-adv-x="615" d="M415 44 Q454 44 481 68.5 Q508 93 508 131 Q508 159 493 178 Q478 197 455 213 Q432 229 406 243.5 Q380 258 357 275.5 Q334 293 319 316.5 Q304 340 304 374 Q304 419 326.5 451.5 Q349 484 376.5 513 Q404 542 426.5 573.5 Q449 605 449 648 Q449 692 418.5 713 Q388 734 344 734 Q273 734 238.5 696 Q204 658 202 602 L183 122 Q182 82 175.5 37.5 Q169 -7 158 -49 Q147 -91 132 -126.5 Q117 -162 98 -184 Q61 -229 17 -229 Q-13 -229 -30 -216.5 Q-47 -204 -49 -183 Q-54 -153 -26 -114 L15 -131 Q41 -142 61 -131 Q81 -120 86 -82 Q89 -57 90 -32.5 Q91 -8 93 23 L113 559 Q115 607 132 648 Q149 689 179.5 718.5 Q210 748 253 765 Q296 782 351 782 Q384 782 416 774.5 Q448 767 473 751 Q498 735 513.5 710.5 Q529 686 529 652 Q529 609 506 577 Q483 545 455 517.5 Q427 490 404 463 Q381 436 381 403 Q381 380 395.5 363 Q410 346 432.5 331 Q455 316 480.5 300.5 Q506 285 528.5 265 Q551 245 565.5 218 Q580 191 580 153 Q580 119 568 89 Q556 59 533 36 Q510 13 476.5 -0.5 Q443 -14 401 -14 Q332 -14 287.5 12 Q243 38 243 79 Q243 107 260 120 Q277 133 299 133 Q311 133 323 130 Q335 127 343 122 L343 96 Q343 68 358.5 56 Q374 44 415 44 Z " />
<glyph glyph-name="agrave" unicode="&#xe0;" horiz-adv-x="575" d="M360 580 L226 678 Q211 689 203.5 702.5 Q196 716 197 728 Q198 745 213 757.5 Q228 770 260 769 L385 605 L360 580 Z M466 90 Q466 67 470 57 Q474 47 491 47 Q510 47 540 72 L565 34 Q548 18 517.5 2 Q487 -14 456 -14 Q412 -14 399 14.5 Q386 43 388 86 L405 274 L398 275 L376 193 Q363 143 347.5 104.5 Q332 66 312 39.5 Q292 13 265.5 -0.5 Q239 -14 203 -14 Q163 -14 133.5 2 Q104 18 85 47 Q66 76 57 115.5 Q48 155 48 201 Q48 272 65 331 Q82 390 113 432 Q144 474 186 497.5 Q228 521 278 521 Q313 521 343.5 513 Q374 505 392 496 L462 519 L479 511 L466 90 Z M216 54 Q245 54 265 71.5 Q285 89 300.5 122.5 Q316 156 330 205 Q344 254 362 317 L395 436 Q376 446 345 453 Q314 460 287 460 Q254 460 227 441.5 Q200 423 180.5 389 Q161 355 150 308 Q139 261 139 205 Q139 188 140 162 Q141 136 148 112 Q155 88 171 71 Q187 54 216 54 Z " />
<glyph glyph-name="aacute" unicode="&#xe1;" horiz-adv-x="575" d="M335 746 Q347 761 356.5 768 Q366 775 380 775 Q402 775 411.5 757.5 Q421 740 416 705 L249 582 L227 605 L335 746 Z M466 90 Q466 67 470 57 Q474 47 491 47 Q510 47 540 72 L565 34 Q548 18 517.5 2 Q487 -14 456 -14 Q412 -14 399 14.5 Q386 43 388 86 L405 274 L398 275 L376 193 Q363 143 347.5 104.5 Q332 66 312 39.5 Q292 13 265.5 -0.5 Q239 -14 203 -14 Q163 -14 133.5 2 Q104 18 85 47 Q66 76 57 115.5 Q48 155 48 201 Q48 272 65 331 Q82 390 113 432 Q144 474 186 497.5 Q228 521 278 521 Q313 521 343.5 513 Q374 505 392 496 L462 519 L479 511 L466 90 Z M216 54 Q245 54 265 71.5 Q285 89 300.5 122.5 Q316 156 330 205 Q344 254 362 317 L395 436 Q376 446 345 453 Q314 460 287 460 Q254 460 227 441.5 Q200 423 180.5 389 Q161 355 150 308 Q139 261 139 205 Q139 188 140 162 Q141 136 148 112 Q155 88 171 71 Q187 54 216 54 Z " />
<glyph glyph-name="acircumflex" unicode="&#xe2;" horiz-adv-x="575" d="M433 580 L307 682 L180 582 L158 605 L266 746 Q279 763 289.5 770 Q300 777 311 777 Q320 777 326 776 Q332 775 339 773 L458 605 L433 580 Z M466 90 Q466 67 470 57 Q474 47 491 47 Q510 47 540 72 L565 34 Q548 18 517.5 2 Q487 -14 456 -14 Q412 -14 399 14.5 Q386 43 388 86 L405 274 L398 275 L376 193 Q363 143 347.5 104.5 Q332 66 312 39.5 Q292 13 265.5 -0.5 Q239 -14 203 -14 Q163 -14 133.5 2 Q104 18 85 47 Q66 76 57 115.5 Q48 155 48 201 Q48 272 65 331 Q82 390 113 432 Q144 474 186 497.5 Q228 521 278 521 Q313 521 343.5 513 Q374 505 392 496 L462 519 L479 511 L466 90 Z M216 54 Q245 54 265 71.5 Q285 89 300.5 122.5 Q316 156 330 205 Q344 254 362 317 L395 436 Q376 446 345 453 Q314 460 287 460 Q254 460 227 441.5 Q200 423 180.5 389 Q161 355 150 308 Q139 261 139 205 Q139 188 140 162 Q141 136 148 112 Q155 88 171 71 Q187 54 216 54 Z " />
<glyph glyph-name="atilde" unicode="&#xe3;" horiz-adv-x="575" d="M382 620 Q362 620 342.5 625 Q323 630 293 644 Q269 655 249.5 664 Q230 673 222 673 Q210 673 201.5 666.5 Q193 660 176 636 L145 655 Q159 683 170.5 701 Q182 719 193.5 729 Q205 739 216.5 742.5 Q228 746 242 746 Q259 746 278 738.5 Q297 731 327 718 Q348 709 367.5 701.5 Q387 694 400 694 Q413 694 422 703 Q431 712 445 731 L476 712 Q450 661 430.5 640.5 Q411 620 382 620 Z M466 90 Q466 67 470 57 Q474 47 491 47 Q510 47 540 72 L565 34 Q548 18 517.5 2 Q487 -14 456 -14 Q412 -14 399 14.5 Q386 43 388 86 L405 274 L398 275 L376 193 Q363 143 347.5 104.5 Q332 66 312 39.5 Q292 13 265.5 -0.5 Q239 -14 203 -14 Q163 -14 133.5 2 Q104 18 85 47 Q66 76 57 115.5 Q48 155 48 201 Q48 272 65 331 Q82 390 113 432 Q144 474 186 497.5 Q228 521 278 521 Q313 521 343.5 513 Q374 505 392 496 L462 519 L479 511 L466 90 Z M216 54 Q245 54 265 71.5 Q285 89 300.5 122.5 Q316 156 330 205 Q344 254 362 317 L395 436 Q376 446 345 453 Q314 460 287 460 Q254 460 227 441.5 Q200 423 180.5 389 Q161 355 150 308 Q139 261 139 205 Q139 188 140 162 Q141 136 148 112 Q155 88 171 71 Q187 54 216 54 Z " />
<glyph glyph-name="adieresis" unicode="&#xe4;" horiz-adv-x="575" d="M147 680 Q147 707 165.5 726 Q184 745 211 745 Q240 745 255.5 728.5 Q271 712 271 685 Q271 657 253 638.5 Q235 620 206 620 Q179 620 163 636.5 Q147 653 147 680 Z M345 680 Q345 707 363.5 726 Q382 745 410 745 Q438 745 453.5 728.5 Q469 712 469 685 Q469 657 451 638.5 Q433 620 405 620 Q377 620 361 636.5 Q345 653 345 680 Z M466 90 Q466 67 470 57 Q474 47 491 47 Q510 47 540 72 L565 34 Q548 18 517.5 2 Q487 -14 456 -14 Q412 -14 399 14.5 Q386 43 388 86 L405 274 L398 275 L376 193 Q363 143 347.5 104.5 Q332 66 312 39.5 Q292 13 265.5 -0.5 Q239 -14 203 -14 Q163 -14 133.5 2 Q104 18 85 47 Q66 76 57 115.5 Q48 155 48 201 Q48 272 65 331 Q82 390 113 432 Q144 474 186 497.5 Q228 521 278 521 Q313 521 343.5 513 Q374 505 392 496 L462 519 L479 511 L466 90 Z M216 54 Q245 54 265 71.5 Q285 89 300.5 122.5 Q316 156 330 205 Q344 254 362 317 L395 436 Q376 446 345 453 Q314 460 287 460 Q254 460 227 441.5 Q200 423 180.5 389 Q161 355 150 308 Q139 261 139 205 Q139 188 140 162 Q141 136 148 112 Q155 88 171 71 Q187 54 216 54 Z " />
<glyph glyph-name="aring" unicode="&#xe5;" horiz-adv-x="575" d="M204 679 Q204 720 232 750.5 Q260 781 312 781 Q361 781 384.5 756 Q408 731 408 687 Q408 642 379.5 612 Q351 582 302 582 Q249 582 226.5 608 Q204 634 204 679 Z M259 680 Q259 660 269 644 Q279 628 305 628 Q331 628 341.5 645 Q352 662 352 684 Q352 705 341.5 720.5 Q331 736 307 736 Q282 736 270.5 718 Q259 700 259 680 Z M466 90 Q466 67 470 57 Q474 47 491 47 Q510 47 540 72 L565 34 Q548 18 517.5 2 Q487 -14 456 -14 Q412 -14 399 14.5 Q386 43 388 86 L405 274 L398 275 L376 193 Q363 143 347.5 104.5 Q332 66 312 39.5 Q292 13 265.5 -0.5 Q239 -14 203 -14 Q163 -14 133.5 2 Q104 18 85 47 Q66 76 57 115.5 Q48 155 48 201 Q48 272 65 331 Q82 390 113 432 Q144 474 186 497.5 Q228 521 278 521 Q313 521 343.5 513 Q374 505 392 496 L462 519 L479 511 L466 90 Z M216 54 Q245 54 265 71.5 Q285 89 300.5 122.5 Q316 156 330 205 Q344 254 362 317 L395 436 Q376 446 345 453 Q314 460 287 460 Q254 460 227 441.5 Q200 423 180.5 389 Q161 355 150 308 Q139 261 139 205 Q139 188 140 162 Q141 136 148 112 Q155 88 171 71 Q187 54 216 54 Z " />
<glyph glyph-name="ae" unicode="&#xe6;" horiz-adv-x="776" d="M593 521 Q661 521 694.5 486.5 Q728 452 728 394 Q728 353 711.5 324.5 Q695 296 668.5 276.5 Q642 257 609.5 245.5 Q577 234 545 226 L434 199 Q436 174 444.5 148 Q453 122 468.5 100.5 Q484 79 507 65.5 Q530 52 561 52 Q584 52 603 58.5 Q622 65 638 75 Q654 85 667.5 96 Q681 107 691 117 L725 80 Q716 69 700.5 53 Q685 37 661.5 22 Q638 7 608 -3.5 Q578 -14 541 -14 Q461 -14 419 34 Q377 82 366 158 Q341 74 304.5 30 Q268 -14 203 -14 Q163 -14 133.5 2 Q104 18 85 47 Q66 76 57 115.5 Q48 155 48 201 Q48 272 65 331 Q82 390 113 432 Q144 474 186 497.5 Q228 521 278 521 Q313 521 343.5 513 Q374 505 392 496 L455 521 L472 513 L464 467 Q490 493 523 507 Q556 521 593 521 Z M639 391 Q639 420 625 442.5 Q611 465 576 465 Q513 465 476 410 Q439 355 434 256 L535 282 Q588 296 613.5 319 Q639 342 639 391 Z M216 54 Q245 54 265 71.5 Q285 89 301 122.5 Q317 156 331.5 205 Q346 254 364 317 L397 436 Q378 446 346 453 Q314 460 287 460 Q254 460 227 441.5 Q200 423 180.5 389 Q161 355 150 308 Q139 261 139 205 Q139 188 140 162 Q141 136 148 112 Q155 88 171 71 Q187 54 216 54 Z " />
<glyph glyph-name="ccedilla" unicode="&#xe7;" horiz-adv-x="489" d="M262 52 Q286 52 306 59.5 Q326 67 343 78.5 Q360 90 374 103.5 Q388 117 400 129 L435 93 Q427 82 412 65 Q397 48 375 32 Q353 16 325.5 3 Q298 -10 264 -13 L251 -52 Q293 -54 321.5 -71 Q350 -88 350 -130 Q350 -175 316.5 -202 Q283 -229 232 -229 Q211 -229 188.5 -224.5 Q166 -220 150 -212 L165 -166 Q173 -169 190 -173 Q207 -177 222 -177 Q245 -177 259.5 -167 Q274 -157 274 -135 Q274 -121 267.5 -113 Q261 -105 251 -101 Q241 -97 229 -96.5 Q217 -96 206 -97 L198 -76 L218 -12 Q177 -7 145 12.5 Q113 32 91.5 63.5 Q70 95 59 136 Q48 177 48 225 Q48 290 65.5 344 Q83 398 114.5 437.5 Q146 477 191.5 499 Q237 521 292 521 Q325 521 352.5 512.5 Q380 504 400.5 487.5 Q421 471 432.5 447.5 Q444 424 444 394 Q444 365 428 347.5 Q412 330 383 330 Q362 330 345.5 342 Q329 354 321 372 L342 396 Q357 413 357.5 425.5 Q358 438 349.5 447 Q341 456 325 460.5 Q309 465 290 465 Q221 465 180 406.5 Q139 348 139 228 Q139 192 146.5 160 Q154 128 169.5 104 Q185 80 208 66 Q231 52 262 52 Z " />
<glyph glyph-name="egrave" unicode="&#xe8;" horiz-adv-x="481" d="M334 580 L200 678 Q185 689 177.5 702.5 Q170 716 171 728 Q172 745 187 757.5 Q202 770 234 769 L359 605 L334 580 Z M288 521 Q363 521 398 486.5 Q433 452 433 394 Q433 353 416.5 324.5 Q400 296 373.5 276.5 Q347 257 314.5 245.5 Q282 234 250 226 L139 199 Q141 174 149.5 148 Q158 122 173.5 100.5 Q189 79 212 65.5 Q235 52 266 52 Q289 52 308 58.5 Q327 65 343 75 Q359 85 372.5 96 Q386 107 396 117 L430 80 Q421 69 405.5 53 Q390 37 366.5 22 Q343 7 313 -3.5 Q283 -14 246 -14 Q198 -14 161 4 Q124 22 99 54 Q74 86 61 130 Q48 174 48 225 Q48 290 65.5 344 Q83 398 114.5 437.5 Q146 477 190 499 Q234 521 288 521 Z M344 391 Q344 420 330 442.5 Q316 465 281 465 Q218 465 181 410 Q144 355 139 256 L240 282 Q293 296 318.5 319 Q344 342 344 391 Z " />
<glyph glyph-name="eacute" unicode="&#xe9;" horiz-adv-x="481" d="M309 746 Q321 761 330.5 768 Q340 775 354 775 Q376 775 385.5 757.5 Q395 740 390 705 L223 582 L201 605 L309 746 Z M288 521 Q363 521 398 486.5 Q433 452 433 394 Q433 353 416.5 324.5 Q400 296 373.5 276.5 Q347 257 314.5 245.5 Q282 234 250 226 L139 199 Q141 174 149.5 148 Q158 122 173.5 100.5 Q189 79 212 65.5 Q235 52 266 52 Q289 52 308 58.5 Q327 65 343 75 Q359 85 372.5 96 Q386 107 396 117 L430 80 Q421 69 405.5 53 Q390 37 366.5 22 Q343 7 313 -3.5 Q283 -14 246 -14 Q198 -14 161 4 Q124 22 99 54 Q74 86 61 130 Q48 174 48 225 Q48 290 65.5 344 Q83 398 114.5 437.5 Q146 477 190 499 Q234 521 288 521 Z M344 391 Q344 420 330 442.5 Q316 465 281 465 Q218 465 181 410 Q144 355 139 256 L240 282 Q293 296 318.5 319 Q344 342 344 391 Z " />
<glyph glyph-name="ecircumflex" unicode="&#xea;" horiz-adv-x="481" d="M407 580 L281 682 L154 582 L132 605 L240 746 Q253 763 263.5 770 Q274 777 285 777 Q294 777 300 776 Q306 775 313 773 L432 605 L407 580 Z M288 521 Q363 521 398 486.5 Q433 452 433 394 Q433 353 416.5 324.5 Q400 296 373.5 276.5 Q347 257 314.5 245.5 Q282 234 250 226 L139 199 Q141 174 149.5 148 Q158 122 173.5 100.5 Q189 79 212 65.5 Q235 52 266 52 Q289 52 308 58.5 Q327 65 343 75 Q359 85 372.5 96 Q386 107 396 117 L430 80 Q421 69 405.5 53 Q390 37 366.5 22 Q343 7 313 -3.5 Q283 -14 246 -14 Q198 -14 161 4 Q124 22 99 54 Q74 86 61 130 Q48 174 48 225 Q48 290 65.5 344 Q83 398 114.5 437.5 Q146 477 190 499 Q234 521 288 521 Z M344 391 Q344 420 330 442.5 Q316 465 281 465 Q218 465 181 410 Q144 355 139 256 L240 282 Q293 296 318.5 319 Q344 342 344 391 Z " />
<glyph glyph-name="edieresis" unicode="&#xeb;" horiz-adv-x="481" d="M121 680 Q121 707 139.5 726 Q158 745 185 745 Q214 745 229.5 728.5 Q245 712 245 685 Q245 657 227 638.5 Q209 620 180 620 Q153 620 137 636.5 Q121 653 121 680 Z M319 680 Q319 707 337.5 726 Q356 745 384 745 Q412 745 427.5 728.5 Q443 712 443 685 Q443 657 425 638.5 Q407 620 379 620 Q351 620 335 636.5 Q319 653 319 680 Z M288 521 Q363 521 398 486.5 Q433 452 433 394 Q433 353 416.5 324.5 Q400 296 373.5 276.5 Q347 257 314.5 245.5 Q282 234 250 226 L139 199 Q141 174 149.5 148 Q158 122 173.5 100.5 Q189 79 212 65.5 Q235 52 266 52 Q289 52 308 58.5 Q327 65 343 75 Q359 85 372.5 96 Q386 107 396 117 L430 80 Q421 69 405.5 53 Q390 37 366.5 22 Q343 7 313 -3.5 Q283 -14 246 -14 Q198 -14 161 4 Q124 22 99 54 Q74 86 61 130 Q48 174 48 225 Q48 290 65.5 344 Q83 398 114.5 437.5 Q146 477 190 499 Q234 521 288 521 Z M344 391 Q344 420 330 442.5 Q316 465 281 465 Q218 465 181 410 Q144 355 139 256 L240 282 Q293 296 318.5 319 Q344 342 344 391 Z " />
<glyph glyph-name="igrave" unicode="&#xec;" horiz-adv-x="306" d="M193 580 L59 678 Q44 689 36.5 702.5 Q29 716 30 728 Q31 745 46 757.5 Q61 770 93 769 L218 605 L193 580 Z M123 416 Q124 436 119.5 446.5 Q115 457 98 457 Q81 457 64 451.5 Q47 446 35 441 L19 486 Q38 497 70 509 Q102 521 135 521 Q176 521 194 494 Q212 467 208 408 L185 90 Q183 67 187 57 Q191 47 208 47 Q224 47 239.5 58 Q255 69 270 81 L295 43 Q287 35 275 25 Q263 15 247.5 6.5 Q232 -2 213 -8 Q194 -14 172 -14 Q125 -14 110.5 11.5 Q96 37 97 77 L123 416 Z " />
<glyph glyph-name="iacute" unicode="&#xed;" horiz-adv-x="306" d="M168 746 Q180 761 189.5 768 Q199 775 213 775 Q235 775 244.5 757.5 Q254 740 249 705 L82 582 L60 605 L168 746 Z M123 416 Q124 436 119.5 446.5 Q115 457 98 457 Q81 457 64 451.5 Q47 446 35 441 L19 486 Q38 497 70 509 Q102 521 135 521 Q176 521 194 494 Q212 467 208 408 L185 90 Q183 67 187 57 Q191 47 208 47 Q224 47 239.5 58 Q255 69 270 81 L295 43 Q287 35 275 25 Q263 15 247.5 6.5 Q232 -2 213 -8 Q194 -14 172 -14 Q125 -14 110.5 11.5 Q96 37 97 77 L123 416 Z " />
<glyph glyph-name="icircumflex" unicode="&#xee;" horiz-adv-x="306" d="M266 580 L140 682 L13 582 L-9 605 L99 746 Q112 763 122.5 770 Q133 777 144 777 Q153 777 159 776 Q165 775 172 773 L291 605 L266 580 Z M123 416 Q124 436 119.5 446.5 Q115 457 98 457 Q81 457 64 451.5 Q47 446 35 441 L19 486 Q38 497 70 509 Q102 521 135 521 Q176 521 194 494 Q212 467 208 408 L185 90 Q183 67 187 57 Q191 47 208 47 Q224 47 239.5 58 Q255 69 270 81 L295 43 Q287 35 275 25 Q263 15 247.5 6.5 Q232 -2 213 -8 Q194 -14 172 -14 Q125 -14 110.5 11.5 Q96 37 97 77 L123 416 Z " />
<glyph glyph-name="idieresis" unicode="&#xef;" horiz-adv-x="306" d="M-20 680 Q-20 707 -1.5 726 Q17 745 44 745 Q73 745 88.5 728.5 Q104 712 104 685 Q104 657 86 638.5 Q68 620 39 620 Q12 620 -4 636.5 Q-20 653 -20 680 Z M178 680 Q178 707 196.5 726 Q215 745 243 745 Q271 745 286.5 728.5 Q302 712 302 685 Q302 657 284 638.5 Q266 620 238 620 Q210 620 194 636.5 Q178 653 178 680 Z M123 416 Q124 436 119.5 446.5 Q115 457 98 457 Q81 457 64 451.5 Q47 446 35 441 L19 486 Q38 497 70 509 Q102 521 135 521 Q176 521 194 494 Q212 467 208 408 L185 90 Q183 67 187 57 Q191 47 208 47 Q224 47 239.5 58 Q255 69 270 81 L295 43 Q287 35 275 25 Q263 15 247.5 6.5 Q232 -2 213 -8 Q194 -14 172 -14 Q125 -14 110.5 11.5 Q96 37 97 77 L123 416 Z " />
<glyph glyph-name="eth" unicode="&#xf0;" horiz-adv-x="533" d="M276 676 Q229 712 158 727 L168 771 Q222 764 264.5 749 Q307 734 340 711 L455 774 L475 728 L381 677 Q415 643 435.5 601 Q456 559 467 513.5 Q478 468 481.5 421 Q485 374 485 330 Q485 257 472 194 Q459 131 431.5 84.5 Q404 38 360 12 Q316 -14 254 -14 Q205 -14 166.5 3.5 Q128 21 101.5 53.5 Q75 86 61.5 132 Q48 178 48 235 Q48 291 59.5 343 Q71 395 97 434.5 Q123 474 164 497.5 Q205 521 263 521 Q301 521 333 503.5 Q365 486 385 455 L389 457 Q381 508 363.5 555 Q346 602 314 640 L215 586 L195 632 L276 676 Z M260 45 Q300 45 326 64 Q352 83 367 115 Q382 147 387.5 189 Q393 231 393 276 Q393 317 386.5 351.5 Q380 386 365.5 410.5 Q351 435 327.5 449 Q304 463 270 463 Q230 463 205 444 Q180 425 166.5 392.5 Q153 360 148 318 Q143 276 143 231 Q143 148 171 96.5 Q199 45 260 45 Z " />
<glyph glyph-name="ntilde" unicode="&#xf1;" horiz-adv-x="603" d="M375 620 Q355 620 335.5 625 Q316 630 286 644 Q262 655 242.5 664 Q223 673 215 673 Q203 673 194.5 666.5 Q186 660 169 636 L138 655 Q152 683 163.5 701 Q175 719 186.5 729 Q198 739 209.5 742.5 Q221 746 235 746 Q252 746 271 738.5 Q290 731 320 718 Q341 709 360.5 701.5 Q380 694 393 694 Q406 694 415 703 Q424 712 438 731 L469 712 Q443 661 423.5 640.5 Q404 620 375 620 Z M586 35 Q577 27 563.5 18.5 Q550 10 534 2.5 Q518 -5 501 -9.5 Q484 -14 469 -14 Q424 -14 408.5 9.5 Q393 33 396 69 L421 354 Q426 408 416.5 427.5 Q407 447 382 447 Q367 447 356 441 Q345 435 335.5 421.5 Q326 408 317 385.5 Q308 363 296 330 L179 0 L97 0 L113 416 Q114 437 108 446.5 Q102 456 86 456 Q74 456 59 450.5 Q44 445 27 438 L10 488 Q18 493 31.5 498.5 Q45 504 60.5 509 Q76 514 93 517.5 Q110 521 125 521 Q168 521 184 495.5 Q200 470 195 419 L170 152 L177 150 L250 367 Q277 447 311.5 484 Q346 521 403 521 Q470 521 492 478.5 Q514 436 506 348 L484 90 Q482 67 486 57 Q490 47 507 47 Q518 47 533.5 53.5 Q549 60 563 71 L586 35 Z " />
<glyph glyph-name="ograve" unicode="&#xf2;" horiz-adv-x="539" d="M340 580 L206 678 Q191 689 183.5 702.5 Q176 716 177 728 Q178 745 193 757.5 Q208 770 240 769 L365 605 L340 580 Z M48 235 Q48 291 60.5 343 Q73 395 101 434.5 Q129 474 174 497.5 Q219 521 283 521 Q333 521 371.5 503.5 Q410 486 436.5 453.5 Q463 421 477 375.5 Q491 330 491 274 Q491 217 478 165 Q465 113 436.5 73 Q408 33 363 9.5 Q318 -14 254 -14 Q205 -14 166.5 3.5 Q128 21 101.5 53.5 Q75 86 61.5 132 Q48 178 48 235 Z M260 45 Q300 45 326.5 64 Q353 83 368.5 114.5 Q384 146 390.5 188 Q397 230 397 275 Q397 316 390.5 350.5 Q384 385 370 410 Q356 435 332.5 449 Q309 463 275 463 Q235 463 209.5 444 Q184 425 169 392.5 Q154 360 148.5 318 Q143 276 143 231 Q143 148 171 96.5 Q199 45 260 45 Z " />
<glyph glyph-name="oacute" unicode="&#xf3;" horiz-adv-x="539" d="M315 746 Q327 761 336.5 768 Q346 775 360 775 Q382 775 391.5 757.5 Q401 740 396 705 L229 582 L207 605 L315 746 Z M48 235 Q48 291 60.5 343 Q73 395 101 434.5 Q129 474 174 497.5 Q219 521 283 521 Q333 521 371.5 503.5 Q410 486 436.5 453.5 Q463 421 477 375.5 Q491 330 491 274 Q491 217 478 165 Q465 113 436.5 73 Q408 33 363 9.5 Q318 -14 254 -14 Q205 -14 166.5 3.5 Q128 21 101.5 53.5 Q75 86 61.5 132 Q48 178 48 235 Z M260 45 Q300 45 326.5 64 Q353 83 368.5 114.5 Q384 146 390.5 188 Q397 230 397 275 Q397 316 390.5 350.5 Q384 385 370 410 Q356 435 332.5 449 Q309 463 275 463 Q235 463 209.5 444 Q184 425 169 392.5 Q154 360 148.5 318 Q143 276 143 231 Q143 148 171 96.5 Q199 45 260 45 Z " />
<glyph glyph-name="ocircumflex" unicode="&#xf4;" horiz-adv-x="539" d="M413 580 L287 682 L160 582 L138 605 L246 746 Q259 763 269.5 770 Q280 777 291 777 Q300 777 306 776 Q312 775 319 773 L438 605 L413 580 Z M48 235 Q48 291 60.5 343 Q73 395 101 434.5 Q129 474 174 497.5 Q219 521 283 521 Q333 521 371.5 503.5 Q410 486 436.5 453.5 Q463 421 477 375.5 Q491 330 491 274 Q491 217 478 165 Q465 113 436.5 73 Q408 33 363 9.5 Q318 -14 254 -14 Q205 -14 166.5 3.5 Q128 21 101.5 53.5 Q75 86 61.5 132 Q48 178 48 235 Z M260 45 Q300 45 326.5 64 Q353 83 368.5 114.5 Q384 146 390.5 188 Q397 230 397 275 Q397 316 390.5 350.5 Q384 385 370 410 Q356 435 332.5 449 Q309 463 275 463 Q235 463 209.5 444 Q184 425 169 392.5 Q154 360 148.5 318 Q143 276 143 231 Q143 148 171 96.5 Q199 45 260 45 Z " />
<glyph glyph-name="otilde" unicode="&#xf5;" horiz-adv-x="539" d="M362 620 Q342 620 322.5 625 Q303 630 273 644 Q249 655 229.5 664 Q210 673 202 673 Q190 673 181.5 666.5 Q173 660 156 636 L125 655 Q139 683 150.5 701 Q162 719 173.5 729 Q185 739 196.5 742.5 Q208 746 222 746 Q239 746 258 738.5 Q277 731 307 718 Q328 709 347.5 701.5 Q367 694 380 694 Q393 694 402 703 Q411 712 425 731 L456 712 Q430 661 410.5 640.5 Q391 620 362 620 Z M48 235 Q48 291 60.5 343 Q73 395 101 434.5 Q129 474 174 497.5 Q219 521 283 521 Q333 521 371.5 503.5 Q410 486 436.5 453.5 Q463 421 477 375.5 Q491 330 491 274 Q491 217 478 165 Q465 113 436.5 73 Q408 33 363 9.5 Q318 -14 254 -14 Q205 -14 166.5 3.5 Q128 21 101.5 53.5 Q75 86 61.5 132 Q48 178 48 235 Z M260 45 Q300 45 326.5 64 Q353 83 368.5 114.5 Q384 146 390.5 188 Q397 230 397 275 Q397 316 390.5 350.5 Q384 385 370 410 Q356 435 332.5 449 Q309 463 275 463 Q235 463 209.5 444 Q184 425 169 392.5 Q154 360 148.5 318 Q143 276 143 231 Q143 148 171 96.5 Q199 45 260 45 Z " />
<glyph glyph-name="odieresis" unicode="&#xf6;" horiz-adv-x="539" d="M127 680 Q127 707 145.5 726 Q164 745 191 745 Q220 745 235.5 728.5 Q251 712 251 685 Q251 657 233 638.5 Q215 620 186 620 Q159 620 143 636.5 Q127 653 127 680 Z M325 680 Q325 707 343.5 726 Q362 745 390 745 Q418 745 433.5 728.5 Q449 712 449 685 Q449 657 431 638.5 Q413 620 385 620 Q357 620 341 636.5 Q325 653 325 680 Z M48 235 Q48 291 60.5 343 Q73 395 101 434.5 Q129 474 174 497.5 Q219 521 283 521 Q333 521 371.5 503.5 Q410 486 436.5 453.5 Q463 421 477 375.5 Q491 330 491 274 Q491 217 478 165 Q465 113 436.5 73 Q408 33 363 9.5 Q318 -14 254 -14 Q205 -14 166.5 3.5 Q128 21 101.5 53.5 Q75 86 61.5 132 Q48 178 48 235 Z M260 45 Q300 45 326.5 64 Q353 83 368.5 114.5 Q384 146 390.5 188 Q397 230 397 275 Q397 316 390.5 350.5 Q384 385 370 410 Q356 435 332.5 449 Q309 463 275 463 Q235 463 209.5 444 Q184 425 169 392.5 Q154 360 148.5 318 Q143 276 143 231 Q143 148 171 96.5 Q199 45 260 45 Z " />
<glyph glyph-name="divide" unicode="&#xf7;" horiz-adv-x="582" d="M234 458 Q236 484 256 502 Q276 520 302 520 Q329 520 348 502.5 Q367 485 365 459 Q364 433 344 415 Q324 397 297 397 Q271 397 252 414.5 Q233 432 234 458 Z M81 338 L509 338 L506 275 L78 275 L81 338 Z M283 89 Q257 89 238 106.5 Q219 124 221 150 Q222 176 242 194 Q262 212 288 212 Q315 212 334 194.5 Q353 177 352 151 Q350 125 330 107 Q310 89 283 89 Z " />
<glyph glyph-name="oslash" unicode="&#xf8;" horiz-adv-x="539" d="M447 440 Q491 376 491 274 Q491 217 478 165 Q465 113 436.5 73 Q408 33 363 9.5 Q318 -14 254 -14 Q173 -14 120 34 L81 -14 L13 -14 L86 76 Q48 140 48 235 Q48 291 60.5 343 Q73 395 101 434.5 Q129 474 174 497.5 Q219 521 283 521 Q360 521 411 479 L445 521 L512 521 L447 440 Z M143 231 Q143 187 150 155 L364 420 Q349 440 327.5 451.5 Q306 463 275 463 Q235 463 209.5 444 Q184 425 169 392.5 Q154 360 148.5 318 Q143 276 143 231 Z M397 275 Q397 301 394.5 323.5 Q392 346 387 366 L171 97 Q185 72 207 58.5 Q229 45 260 45 Q300 45 326.5 64 Q353 83 368.5 114.5 Q384 146 390.5 188 Q397 230 397 275 Z " />
<glyph glyph-name="ugrave" unicode="&#xf9;" horiz-adv-x="600" d="M355 580 L221 678 Q206 689 198.5 702.5 Q191 716 192 728 Q193 745 208 757.5 Q223 770 255 769 L380 605 L355 580 Z M19 472 Q28 480 41.5 488.5 Q55 497 71 504.5 Q87 512 104 516.5 Q121 521 136 521 Q181 521 196.5 497.5 Q212 474 209 438 L184 156 Q179 102 186.5 81 Q194 60 219 60 Q234 60 245 66 Q256 72 265.5 86.5 Q275 101 284 124 Q293 147 305 180 L418 508 L500 508 L484 91 Q483 70 489 60.5 Q495 51 511 51 Q523 51 538 56.5 Q553 62 570 69 L587 19 Q579 15 565.5 9 Q552 3 536.5 -2 Q521 -7 504 -10.5 Q487 -14 472 -14 Q429 -14 413 11.5 Q397 37 402 88 L427 358 L419 359 L351 140 Q325 59 290 22.5 Q255 -14 198 -14 Q131 -14 111.5 30.5 Q92 75 99 162 L121 417 Q123 440 119 450 Q115 460 98 460 Q87 460 71.5 453.5 Q56 447 42 436 L19 472 Z " />
<glyph glyph-name="uacute" unicode="&#xfa;" horiz-adv-x="600" d="M330 746 Q342 761 351.5 768 Q361 775 375 775 Q397 775 406.5 757.5 Q416 740 411 705 L244 582 L222 605 L330 746 Z M19 472 Q28 480 41.5 488.5 Q55 497 71 504.5 Q87 512 104 516.5 Q121 521 136 521 Q181 521 196.5 497.5 Q212 474 209 438 L184 156 Q179 102 186.5 81 Q194 60 219 60 Q234 60 245 66 Q256 72 265.5 86.5 Q275 101 284 124 Q293 147 305 180 L418 508 L500 508 L484 91 Q483 70 489 60.5 Q495 51 511 51 Q523 51 538 56.5 Q553 62 570 69 L587 19 Q579 15 565.5 9 Q552 3 536.5 -2 Q521 -7 504 -10.5 Q487 -14 472 -14 Q429 -14 413 11.5 Q397 37 402 88 L427 358 L419 359 L351 140 Q325 59 290 22.5 Q255 -14 198 -14 Q131 -14 111.5 30.5 Q92 75 99 162 L121 417 Q123 440 119 450 Q115 460 98 460 Q87 460 71.5 453.5 Q56 447 42 436 L19 472 Z " />
<glyph glyph-name="ucircumflex" unicode="&#xfb;" horiz-adv-x="600" d="M428 580 L302 682 L175 582 L153 605 L261 746 Q274 763 284.5 770 Q295 777 306 777 Q315 777 321 776 Q327 775 334 773 L453 605 L428 580 Z M19 472 Q28 480 41.5 488.5 Q55 497 71 504.5 Q87 512 104 516.5 Q121 521 136 521 Q181 521 196.5 497.5 Q212 474 209 438 L184 156 Q179 102 186.5 81 Q194 60 219 60 Q234 60 245 66 Q256 72 265.5 86.5 Q275 101 284 124 Q293 147 305 180 L418 508 L500 508 L484 91 Q483 70 489 60.5 Q495 51 511 51 Q523 51 538 56.5 Q553 62 570 69 L587 19 Q579 15 565.5 9 Q552 3 536.5 -2 Q521 -7 504 -10.5 Q487 -14 472 -14 Q429 -14 413 11.5 Q397 37 402 88 L427 358 L419 359 L351 140 Q325 59 290 22.5 Q255 -14 198 -14 Q131 -14 111.5 30.5 Q92 75 99 162 L121 417 Q123 440 119 450 Q115 460 98 460 Q87 460 71.5 453.5 Q56 447 42 436 L19 472 Z " />
<glyph glyph-name="udieresis" unicode="&#xfc;" horiz-adv-x="600" d="M142 680 Q142 707 160.5 726 Q179 745 206 745 Q235 745 250.5 728.5 Q266 712 266 685 Q266 657 248 638.5 Q230 620 201 620 Q174 620 158 636.5 Q142 653 142 680 Z M340 680 Q340 707 358.5 726 Q377 745 405 745 Q433 745 448.5 728.5 Q464 712 464 685 Q464 657 446 638.5 Q428 620 400 620 Q372 620 356 636.5 Q340 653 340 680 Z M19 472 Q28 480 41.5 488.5 Q55 497 71 504.5 Q87 512 104 516.5 Q121 521 136 521 Q181 521 196.5 497.5 Q212 474 209 438 L184 156 Q179 102 186.5 81 Q194 60 219 60 Q234 60 245 66 Q256 72 265.5 86.5 Q275 101 284 124 Q293 147 305 180 L418 508 L500 508 L484 91 Q483 70 489 60.5 Q495 51 511 51 Q523 51 538 56.5 Q553 62 570 69 L587 19 Q579 15 565.5 9 Q552 3 536.5 -2 Q521 -7 504 -10.5 Q487 -14 472 -14 Q429 -14 413 11.5 Q397 37 402 88 L427 358 L419 359 L351 140 Q325 59 290 22.5 Q255 -14 198 -14 Q131 -14 111.5 30.5 Q92 75 99 162 L121 417 Q123 440 119 450 Q115 460 98 460 Q87 460 71.5 453.5 Q56 447 42 436 L19 472 Z " />
<glyph glyph-name="yacute" unicode="&#xfd;" horiz-adv-x="529" d="M306 746 Q318 761 327.5 768 Q337 775 351 775 Q373 775 382.5 757.5 Q392 740 387 705 L220 582 L198 605 L306 746 Z M298 -57 Q283 -92 267 -123 Q251 -154 230.5 -177.5 Q210 -201 182.5 -215 Q155 -229 115 -229 Q76 -229 49.5 -210 Q23 -191 23 -159 Q23 -133 40 -113.5 Q57 -94 87 -89 L102 -117 Q114 -139 123 -149.5 Q132 -160 150 -160 Q174 -160 189 -140 Q204 -120 227 -69 L257 0 L248 0 Q216 0 196.5 14.5 Q177 29 158 59 Q132 101 117 178.5 Q102 256 102 353 L103 429 Q103 445 97.5 451 Q92 457 81 457 Q70 457 49.5 451 Q29 445 17 439 L0 488 Q17 497 50 509 Q83 521 118 521 Q158 521 174 498 Q190 475 190 435 Q190 418 189 400.5 Q188 383 188 360 Q188 272 197.5 210.5 Q207 149 226 108 Q238 82 247.5 74.5 Q257 67 271 67 L287 67 L400 338 Q417 376 413.5 395 Q410 414 385 423 L350 436 Q345 473 362.5 497 Q380 521 417 521 Q454 521 472.5 497 Q491 473 491 437 Q491 393 470 341 Q449 289 422 226 L298 -57 Z " />
<glyph glyph-name="thorn" unicode="&#xfe;" horiz-adv-x="488" d="M380 521 Q458 521 493 464.5 Q528 408 528 308 Q528 230 509.5 170 Q491 110 459 69 Q427 28 383.5 7 Q340 -14 290 -14 Q253 -14 222 -5 Q191 4 174 13 L162 -166 L255 -176 L250 -224 L93 -227 L77 -215 L95 61 L117 698 L24 719 L30 767 L186 767 L202 756 L190 425 L163 190 L171 188 L208 326 Q235 428 274 474.5 Q313 521 380 521 Z M367 451 Q337 451 317 433.5 Q297 416 281.5 382.5 Q266 349 251.5 299.5 Q237 250 218 186 L185 71 Q203 63 227.5 55.5 Q252 48 285 48 Q320 48 348 66.5 Q376 85 396 119 Q416 153 427 199.5 Q438 246 438 301 Q438 322 437 348 Q436 374 429 397 Q422 420 407.5 435.5 Q393 451 367 451 Z " />
<glyph glyph-name="ydieresis" unicode="&#xff;" horiz-adv-x="529" d="M118 680 Q118 707 136.5 726 Q155 745 182 745 Q211 745 226.5 728.5 Q242 712 242 685 Q242 657 224 638.5 Q206 620 177 620 Q150 620 134 636.5 Q118 653 118 680 Z M316 680 Q316 707 334.5 726 Q353 745 381 745 Q409 745 424.5 728.5 Q440 712 440 685 Q440 657 422 638.5 Q404 620 376 620 Q348 620 332 636.5 Q316 653 316 680 Z M298 -57 Q283 -92 267 -123 Q251 -154 230.5 -177.5 Q210 -201 182.5 -215 Q155 -229 115 -229 Q76 -229 49.5 -210 Q23 -191 23 -159 Q23 -133 40 -113.5 Q57 -94 87 -89 L102 -117 Q114 -139 123 -149.5 Q132 -160 150 -160 Q174 -160 189 -140 Q204 -120 227 -69 L257 0 L248 0 Q216 0 196.5 14.5 Q177 29 158 59 Q132 101 117 178.5 Q102 256 102 353 L103 429 Q103 445 97.5 451 Q92 457 81 457 Q70 457 49.5 451 Q29 445 17 439 L0 488 Q17 497 50 509 Q83 521 118 521 Q158 521 174 498 Q190 475 190 435 Q190 418 189 400.5 Q188 383 188 360 Q188 272 197.5 210.5 Q207 149 226 108 Q238 82 247.5 74.5 Q257 67 271 67 L287 67 L400 338 Q417 376 413.5 395 Q410 414 385 423 L350 436 Q345 473 362.5 497 Q380 521 417 521 Q454 521 472.5 497 Q491 473 491 437 Q491 393 470 341 Q449 289 422 226 L298 -57 Z " />
<glyph glyph-name="Amacron" unicode="&#x100;" horiz-adv-x="691" d="M524 868 L520 795 L237 795 L241 868 L524 868 Z M603 57 L688 46 L682 0 L416 0 L422 46 L503 58 L457 231 L217 231 L157 58 L248 46 L242 0 L8 0 L14 46 L93 58 L322 695 L421 706 L603 57 Z M442 288 L355 619 L352 619 L237 288 L442 288 Z " />
<glyph glyph-name="amacron" unicode="&#x101;" horiz-adv-x="575" d="M452 708 L448 635 L165 635 L169 708 L452 708 Z M466 90 Q466 67 470 57 Q474 47 491 47 Q510 47 540 72 L565 34 Q548 18 517.5 2 Q487 -14 456 -14 Q412 -14 399 14.5 Q386 43 388 86 L405 274 L398 275 L376 193 Q363 143 347.5 104.5 Q332 66 312 39.5 Q292 13 265.5 -0.5 Q239 -14 203 -14 Q163 -14 133.5 2 Q104 18 85 47 Q66 76 57 115.5 Q48 155 48 201 Q48 272 65 331 Q82 390 113 432 Q144 474 186 497.5 Q228 521 278 521 Q313 521 343.5 513 Q374 505 392 496 L462 519 L479 511 L466 90 Z M216 54 Q245 54 265 71.5 Q285 89 300.5 122.5 Q316 156 330 205 Q344 254 362 317 L395 436 Q376 446 345 453 Q314 460 287 460 Q254 460 227 441.5 Q200 423 180.5 389 Q161 355 150 308 Q139 261 139 205 Q139 188 140 162 Q141 136 148 112 Q155 88 171 71 Q187 54 216 54 Z " />
<glyph glyph-name="Abreve" unicode="&#x102;" horiz-adv-x="691" d="M264 928 Q276 878 305 855 Q334 832 383 832 Q433 832 461 858 Q489 884 502 927 L540 917 Q536 887 524.5 857 Q513 827 493 804 Q473 781 443.5 766.5 Q414 752 375 752 Q337 752 309.5 765.5 Q282 779 263.5 801.5 Q245 824 235.5 854 Q226 884 224 916 L264 928 Z M603 57 L688 46 L682 0 L416 0 L422 46 L503 58 L457 231 L217 231 L157 58 L248 46 L242 0 L8 0 L14 46 L93 58 L322 695 L421 706 L603 57 Z M442 288 L355 619 L352 619 L237 288 L442 288 Z " />
<glyph glyph-name="abreve" unicode="&#x103;" horiz-adv-x="575" d="M194 768 Q208 718 230.5 692.5 Q253 667 298 667 Q343 667 372 695.5 Q401 724 415 767 L453 757 Q449 727 437.5 697 Q426 667 406 642.5 Q386 618 357.5 602.5 Q329 587 293 587 Q257 587 232.5 601.5 Q208 616 191.5 639.5 Q175 663 166 693.5 Q157 724 154 756 L194 768 Z M466 90 Q466 67 470 57 Q474 47 491 47 Q510 47 540 72 L565 34 Q548 18 517.5 2 Q487 -14 456 -14 Q412 -14 399 14.5 Q386 43 388 86 L405 274 L398 275 L376 193 Q363 143 347.5 104.5 Q332 66 312 39.5 Q292 13 265.5 -0.5 Q239 -14 203 -14 Q163 -14 133.5 2 Q104 18 85 47 Q66 76 57 115.5 Q48 155 48 201 Q48 272 65 331 Q82 390 113 432 Q144 474 186 497.5 Q228 521 278 521 Q313 521 343.5 513 Q374 505 392 496 L462 519 L479 511 L466 90 Z M216 54 Q245 54 265 71.5 Q285 89 300.5 122.5 Q316 156 330 205 Q344 254 362 317 L395 436 Q376 446 345 453 Q314 460 287 460 Q254 460 227 441.5 Q200 423 180.5 389 Q161 355 150 308 Q139 261 139 205 Q139 188 140 162 Q141 136 148 112 Q155 88 171 71 Q187 54 216 54 Z " />
<glyph glyph-name="Aogonek" unicode="&#x104;" horiz-adv-x="691" d="M603 57 L688 46 L682 0 L589 0 Q574 -12 559.5 -27 Q545 -42 533.5 -58.5 Q522 -75 515 -92.5 Q508 -110 508 -128 Q508 -161 539 -161 Q553 -161 567.5 -151.5 Q582 -142 596 -128 L624 -156 Q604 -185 573 -207 Q542 -229 500 -229 Q470 -229 447.5 -210.5 Q425 -192 425 -155 Q425 -131 434.5 -109 Q444 -87 459.5 -67.5 Q475 -48 494.5 -31 Q514 -14 533 0 L416 0 L422 46 L503 58 L457 231 L217 231 L157 58 L248 46 L242 0 L8 0 L14 46 L93 58 L322 695 L421 706 L603 57 Z M442 288 L355 619 L352 619 L237 288 L442 288 Z " />
<glyph glyph-name="aogonek" unicode="&#x105;" horiz-adv-x="575" d="M466 90 Q466 67 470 57 Q474 47 491 47 Q510 47 540 72 L565 34 Q547 20 524.5 1 Q502 -18 482.5 -39.5 Q463 -61 449.5 -83.5 Q436 -106 436 -128 Q436 -161 467 -161 Q481 -161 495.5 -151.5 Q510 -142 524 -128 L552 -156 Q532 -185 501 -207 Q470 -229 428 -229 Q398 -229 375.5 -210.5 Q353 -192 353 -155 Q353 -114 380 -83 Q407 -52 449 -14 Q409 -11 397.5 16.5 Q386 44 388 86 L405 274 L398 275 L376 193 Q363 143 347.5 104.5 Q332 66 312 39.5 Q292 13 265.5 -0.5 Q239 -14 203 -14 Q163 -14 133.5 2 Q104 18 85 47 Q66 76 57 115.5 Q48 155 48 201 Q48 272 65 331 Q82 390 113 432 Q144 474 186 497.5 Q228 521 278 521 Q313 521 343.5 513 Q374 505 392 496 L462 519 L479 511 L466 90 Z M216 54 Q245 54 265 71.5 Q285 89 300.5 122.5 Q316 156 330 205 Q344 254 362 317 L395 436 Q376 446 345 453 Q314 460 287 460 Q254 460 227 441.5 Q200 423 180.5 389 Q161 355 150 308 Q139 261 139 205 Q139 188 140 162 Q141 136 148 112 Q155 88 171 71 Q187 54 216 54 Z " />
<glyph glyph-name="Cacute" unicode="&#x106;" horiz-adv-x="629" d="M417 899 Q429 910 438 915.5 Q447 921 458 921 Q476 921 487 908 Q498 895 498 876 Q498 861 490 839 L306 752 L287 779 L417 899 Z M494 571 Q504 592 497 607 Q490 622 472.5 632 Q455 642 430 647 Q405 652 380 652 Q276 652 218 571.5 Q160 491 160 334 Q160 281 171.5 230.5 Q183 180 207 141 Q231 102 269 78.5 Q307 55 359 55 Q422 55 468.5 88 Q515 121 555 168 L594 128 Q576 103 553 77.5 Q530 52 500 32 Q470 12 432.5 -1 Q395 -14 349 -14 Q267 -14 212.5 17.5 Q158 49 125.5 98.5 Q93 148 79.5 208 Q66 268 66 325 Q66 423 91 496 Q116 569 159.5 617.5 Q203 666 261 690.5 Q319 715 384 715 Q423 715 462 705 Q501 695 532.5 676.5 Q564 658 584 630 Q604 602 604 566 Q604 537 587.5 522 Q571 507 549 507 Q526 507 507.5 516 Q489 525 477 537 L494 571 Z " />
<glyph glyph-name="cacute" unicode="&#x107;" horiz-adv-x="489" d="M318 746 Q330 761 339.5 768 Q349 775 363 775 Q385 775 394.5 757.5 Q404 740 399 705 L232 582 L210 605 L318 746 Z M292 521 Q325 521 352.5 512.5 Q380 504 400.5 487.5 Q421 471 432.5 447.5 Q444 424 444 394 Q444 365 428 347.5 Q412 330 383 330 Q362 330 345.5 342 Q329 354 321 372 L342 396 Q357 413 357.5 425.5 Q358 438 349.5 447 Q341 456 325 460.5 Q309 465 290 465 Q221 465 180 406.5 Q139 348 139 228 Q139 192 146.5 160 Q154 128 169.5 104 Q185 80 208 66 Q231 52 262 52 Q286 52 306 59.5 Q326 67 343 78.5 Q360 90 374 103.5 Q388 117 400 129 L435 93 Q426 81 409 63 Q392 45 368 27.5 Q344 10 313 -2 Q282 -14 244 -14 Q196 -14 159.5 4 Q123 22 98.5 54 Q74 86 61 130 Q48 174 48 225 Q48 290 65.5 344 Q83 398 114.5 437.5 Q146 477 191.5 499 Q237 521 292 521 Z " />
<glyph glyph-name="Ccircumflex" unicode="&#x108;" horiz-adv-x="629" d="M520 750 L383 838 L247 751 L225 777 L340 903 Q355 919 366 926 Q377 933 388 933 Q397 933 402 932 Q407 931 412 929 L545 774 L520 750 Z M494 571 Q504 592 497 607 Q490 622 472.5 632 Q455 642 430 647 Q405 652 380 652 Q276 652 218 571.5 Q160 491 160 334 Q160 281 171.5 230.5 Q183 180 207 141 Q231 102 269 78.5 Q307 55 359 55 Q422 55 468.5 88 Q515 121 555 168 L594 128 Q576 103 553 77.5 Q530 52 500 32 Q470 12 432.5 -1 Q395 -14 349 -14 Q267 -14 212.5 17.5 Q158 49 125.5 98.5 Q93 148 79.5 208 Q66 268 66 325 Q66 423 91 496 Q116 569 159.5 617.5 Q203 666 261 690.5 Q319 715 384 715 Q423 715 462 705 Q501 695 532.5 676.5 Q564 658 584 630 Q604 602 604 566 Q604 537 587.5 522 Q571 507 549 507 Q526 507 507.5 516 Q489 525 477 537 L494 571 Z " />
<glyph glyph-name="ccircumflex" unicode="&#x109;" horiz-adv-x="489" d="M416 580 L290 682 L163 582 L141 605 L249 746 Q262 763 272.5 770 Q283 777 294 777 Q303 777 309 776 Q315 775 322 773 L441 605 L416 580 Z M292 521 Q325 521 352.5 512.5 Q380 504 400.5 487.5 Q421 471 432.5 447.5 Q444 424 444 394 Q444 365 428 347.5 Q412 330 383 330 Q362 330 345.5 342 Q329 354 321 372 L342 396 Q357 413 357.5 425.5 Q358 438 349.5 447 Q341 456 325 460.5 Q309 465 290 465 Q221 465 180 406.5 Q139 348 139 228 Q139 192 146.5 160 Q154 128 169.5 104 Q185 80 208 66 Q231 52 262 52 Q286 52 306 59.5 Q326 67 343 78.5 Q360 90 374 103.5 Q388 117 400 129 L435 93 Q426 81 409 63 Q392 45 368 27.5 Q344 10 313 -2 Q282 -14 244 -14 Q196 -14 159.5 4 Q123 22 98.5 54 Q74 86 61 130 Q48 174 48 225 Q48 290 65.5 344 Q83 398 114.5 437.5 Q146 477 191.5 499 Q237 521 292 521 Z " />
<glyph glyph-name="Cdotaccent" unicode="&#x10a;" horiz-adv-x="629" d="M320 833 Q320 862 338 881 Q356 900 385 900 Q414 900 431.5 881.5 Q449 863 449 834 Q449 805 431.5 786 Q414 767 385 767 Q356 767 338 785.5 Q320 804 320 833 Z M494 571 Q504 592 497 607 Q490 622 472.5 632 Q455 642 430 647 Q405 652 380 652 Q276 652 218 571.5 Q160 491 160 334 Q160 281 171.5 230.5 Q183 180 207 141 Q231 102 269 78.5 Q307 55 359 55 Q422 55 468.5 88 Q515 121 555 168 L594 128 Q576 103 553 77.5 Q530 52 500 32 Q470 12 432.5 -1 Q395 -14 349 -14 Q267 -14 212.5 17.5 Q158 49 125.5 98.5 Q93 148 79.5 208 Q66 268 66 325 Q66 423 91 496 Q116 569 159.5 617.5 Q203 666 261 690.5 Q319 715 384 715 Q423 715 462 705 Q501 695 532.5 676.5 Q564 658 584 630 Q604 602 604 566 Q604 537 587.5 522 Q571 507 549 507 Q526 507 507.5 516 Q489 525 477 537 L494 571 Z " />
<glyph glyph-name="cdotaccent" unicode="&#x10b;" horiz-adv-x="489" d="M224 686 Q224 715 242 734 Q260 753 289 753 Q318 753 335.5 734.5 Q353 716 353 687 Q353 658 335.5 639 Q318 620 289 620 Q260 620 242 638.5 Q224 657 224 686 Z M292 521 Q325 521 352.5 512.5 Q380 504 400.5 487.5 Q421 471 432.5 447.5 Q444 424 444 394 Q444 365 428 347.5 Q412 330 383 330 Q362 330 345.5 342 Q329 354 321 372 L342 396 Q357 413 357.5 425.5 Q358 438 349.5 447 Q341 456 325 460.5 Q309 465 290 465 Q221 465 180 406.5 Q139 348 139 228 Q139 192 146.5 160 Q154 128 169.5 104 Q185 80 208 66 Q231 52 262 52 Q286 52 306 59.5 Q326 67 343 78.5 Q360 90 374 103.5 Q388 117 400 129 L435 93 Q426 81 409 63 Q392 45 368 27.5 Q344 10 313 -2 Q282 -14 244 -14 Q196 -14 159.5 4 Q123 22 98.5 54 Q74 86 61 130 Q48 174 48 225 Q48 290 65.5 344 Q83 398 114.5 437.5 Q146 477 191.5 499 Q237 521 292 521 Z " />
<glyph glyph-name="Ccaron" unicode="&#x10c;" horiz-adv-x="629" d="M258 936 L395 848 L531 935 L553 909 L438 783 Q423 767 412 760 Q401 753 390 753 Q381 753 376 754 Q371 755 366 757 L233 912 L258 936 Z M494 571 Q504 592 497 607 Q490 622 472.5 632 Q455 642 430 647 Q405 652 380 652 Q276 652 218 571.5 Q160 491 160 334 Q160 281 171.5 230.5 Q183 180 207 141 Q231 102 269 78.5 Q307 55 359 55 Q422 55 468.5 88 Q515 121 555 168 L594 128 Q576 103 553 77.5 Q530 52 500 32 Q470 12 432.5 -1 Q395 -14 349 -14 Q267 -14 212.5 17.5 Q158 49 125.5 98.5 Q93 148 79.5 208 Q66 268 66 325 Q66 423 91 496 Q116 569 159.5 617.5 Q203 666 261 690.5 Q319 715 384 715 Q423 715 462 705 Q501 695 532.5 676.5 Q564 658 584 630 Q604 602 604 566 Q604 537 587.5 522 Q571 507 549 507 Q526 507 507.5 516 Q489 525 477 537 L494 571 Z " />
<glyph glyph-name="ccaron" unicode="&#x10d;" horiz-adv-x="489" d="M166 777 L292 674 L419 775 L441 752 L333 611 Q320 594 309.5 587 Q299 580 288 580 Q279 580 273 581 Q267 582 260 584 L141 752 L166 777 Z M292 521 Q325 521 352.5 512.5 Q380 504 400.5 487.5 Q421 471 432.5 447.5 Q444 424 444 394 Q444 365 428 347.5 Q412 330 383 330 Q362 330 345.5 342 Q329 354 321 372 L342 396 Q357 413 357.5 425.5 Q358 438 349.5 447 Q341 456 325 460.5 Q309 465 290 465 Q221 465 180 406.5 Q139 348 139 228 Q139 192 146.5 160 Q154 128 169.5 104 Q185 80 208 66 Q231 52 262 52 Q286 52 306 59.5 Q326 67 343 78.5 Q360 90 374 103.5 Q388 117 400 129 L435 93 Q426 81 409 63 Q392 45 368 27.5 Q344 10 313 -2 Q282 -14 244 -14 Q196 -14 159.5 4 Q123 22 98.5 54 Q74 86 61 130 Q48 174 48 225 Q48 290 65.5 344 Q83 398 114.5 437.5 Q146 477 191.5 499 Q237 521 292 521 Z " />
<glyph glyph-name="Dcaron" unicode="&#x10e;" horiz-adv-x="730" d="M243 936 L380 848 L516 935 L538 909 L423 783 Q408 767 397 760 Q386 753 375 753 Q366 753 361 754 Q356 755 351 757 L218 912 L243 936 Z M55 45 L144 60 L169 637 L82 654 L88 700 L355 700 Q424 700 485.5 683.5 Q547 667 593 630 Q639 593 666 534.5 Q693 476 693 392 Q693 309 674 247.5 Q655 186 622.5 142.5 Q590 99 547.5 71.5 Q505 44 457.5 28 Q410 12 361 6 Q312 0 268 0 L50 0 L55 45 Z M260 55 Q315 55 374 66.5 Q433 78 482.5 113 Q532 148 564 212.5 Q596 277 596 383 Q596 460 574 510.5 Q552 561 516.5 591 Q481 621 436 633.5 Q391 646 344 646 L255 646 L232 55 L260 55 Z " />
<glyph glyph-name="dcaron" unicode="&#x10f;" horiz-adv-x="665" d="M576 542 Q628 593 650 628.5 Q672 664 672 700 Q672 733 655 750.5 Q638 768 610 768 Q580 768 568 746.5 Q556 725 561 701 L584 683 Q597 673 597 657 Q597 628 549 569 L576 542 Z M466 86 Q465 63 470 54.5 Q475 46 492 46 Q506 46 520 53.5 Q534 61 549 71 L572 37 Q564 29 550.5 20 Q537 11 521.5 3.5 Q506 -4 489 -9 Q472 -14 457 -14 Q412 -14 398.5 14.5 Q385 43 389 86 L405 274 L398 275 L375 189 Q362 139 346.5 101 Q331 63 311 37.5 Q291 12 264 -1 Q237 -14 199 -14 Q159 -14 130.5 3.5 Q102 21 83.5 51 Q65 81 56.5 121 Q48 161 48 206 Q48 276 64.5 334 Q81 392 111.5 433.5 Q142 475 185 498 Q228 521 281 521 Q311 521 343 513 Q375 505 393 496 L401 698 L308 719 L314 767 L470 767 L486 756 L466 86 Z M215 54 Q245 54 265.5 72 Q286 90 302 123.5 Q318 157 332 206 Q346 255 363 316 L396 437 Q387 442 373 446 Q359 450 344 453 Q329 456 314.5 458 Q300 460 289 460 Q254 460 226 441 Q198 422 178.5 389 Q159 356 148.5 310.5 Q138 265 138 211 Q138 195 139 168.5 Q140 142 147.5 116.5 Q155 91 170.5 72.5 Q186 54 215 54 Z " />
<glyph glyph-name="Dcroat" unicode="&#x110;" horiz-adv-x="730" d="M355 700 Q424 700 485.5 683.5 Q547 667 593 630 Q639 593 666 534.5 Q693 476 693 392 Q693 309 674 247.5 Q655 186 622.5 142.5 Q590 99 547.5 71.5 Q505 44 457.5 28 Q410 12 361 6 Q312 0 268 0 L50 0 L55 45 L144 60 L156 331 L41 331 L50 391 L158 391 L169 637 L82 654 L88 700 L355 700 Z M260 55 Q315 55 374 66.5 Q433 78 482.5 113 Q532 148 564 212.5 Q596 277 596 383 Q596 460 574 510.5 Q552 561 516.5 591 Q481 621 436 633.5 Q391 646 344 646 L255 646 L245 391 L445 391 L437 331 L243 331 L232 55 L260 55 Z " />
<glyph glyph-name="dcroat" unicode="&#x111;" horiz-adv-x="575" d="M48 206 Q48 276 64.5 334 Q81 392 111.5 433.5 Q142 475 185 498 Q228 521 281 521 Q311 521 343 513 Q375 505 393 496 L396 581 L258 581 L266 638 L399 638 L401 698 L308 719 L314 767 L470 767 L486 756 L482 638 L584 638 L577 581 L481 581 L466 86 Q465 63 470 54.5 Q475 46 492 46 Q506 46 520 53.5 Q534 61 549 71 L572 37 Q564 29 550.5 20 Q537 11 521.5 3.5 Q506 -4 489 -9 Q472 -14 457 -14 Q412 -14 398.5 14.5 Q385 43 389 86 L405 274 L398 275 L375 189 Q362 139 346.5 101 Q331 63 311 37.5 Q291 12 264 -1 Q237 -14 199 -14 Q159 -14 130.5 3.5 Q102 21 83.5 51 Q65 81 56.5 121 Q48 161 48 206 Z M138 211 Q138 195 139 168.5 Q140 142 147.5 116.5 Q155 91 170.5 72.5 Q186 54 215 54 Q245 54 265.5 72 Q286 90 302 123.5 Q318 157 332 206 Q346 255 363 316 L396 437 Q387 442 373 446 Q359 450 344 453 Q329 456 314.5 458 Q300 460 289 460 Q254 460 226 441 Q198 422 178.5 389 Q159 356 148.5 310.5 Q138 265 138 211 Z " />
<glyph glyph-name="Emacron" unicode="&#x112;" horiz-adv-x="600" d="M489 868 L485 795 L202 795 L206 868 L489 868 Z M82 654 L88 700 L542 700 L556 532 L501 523 L490 559 Q483 583 476 599 Q469 615 458.5 624.5 Q448 634 433 638.5 Q418 643 394 643 L255 643 L245 391 L494 391 L489 328 L242 328 L231 58 L388 58 Q411 58 427 62 Q443 66 454.5 76 Q466 86 474.5 102.5 Q483 119 491 143 L505 184 L560 184 L536 0 L57 0 L63 46 L145 59 L168 637 L82 654 Z " />
<glyph glyph-name="emacron" unicode="&#x113;" horiz-adv-x="481" d="M426 708 L422 635 L139 635 L143 708 L426 708 Z M288 521 Q363 521 398 486.5 Q433 452 433 394 Q433 353 416.5 324.5 Q400 296 373.5 276.5 Q347 257 314.5 245.5 Q282 234 250 226 L139 199 Q141 174 149.5 148 Q158 122 173.5 100.5 Q189 79 212 65.5 Q235 52 266 52 Q289 52 308 58.5 Q327 65 343 75 Q359 85 372.5 96 Q386 107 396 117 L430 80 Q421 69 405.5 53 Q390 37 366.5 22 Q343 7 313 -3.5 Q283 -14 246 -14 Q198 -14 161 4 Q124 22 99 54 Q74 86 61 130 Q48 174 48 225 Q48 290 65.5 344 Q83 398 114.5 437.5 Q146 477 190 499 Q234 521 288 521 Z M344 391 Q344 420 330 442.5 Q316 465 281 465 Q218 465 181 410 Q144 355 139 256 L240 282 Q293 296 318.5 319 Q344 342 344 391 Z " />
<glyph glyph-name="Ebreve" unicode="&#x114;" horiz-adv-x="600" d="M229 928 Q241 878 270 855 Q299 832 348 832 Q398 832 426 858 Q454 884 467 927 L505 917 Q501 887 489.5 857 Q478 827 458 804 Q438 781 408.5 766.5 Q379 752 340 752 Q302 752 274.5 765.5 Q247 779 228.5 801.5 Q210 824 200.5 854 Q191 884 189 916 L229 928 Z M82 654 L88 700 L542 700 L556 532 L501 523 L490 559 Q483 583 476 599 Q469 615 458.5 624.5 Q448 634 433 638.5 Q418 643 394 643 L255 643 L245 391 L494 391 L489 328 L242 328 L231 58 L388 58 Q411 58 427 62 Q443 66 454.5 76 Q466 86 474.5 102.5 Q483 119 491 143 L505 184 L560 184 L536 0 L57 0 L63 46 L145 59 L168 637 L82 654 Z " />
<glyph glyph-name="ebreve" unicode="&#x115;" horiz-adv-x="481" d="M168 768 Q182 718 204.5 692.5 Q227 667 272 667 Q317 667 346 695.5 Q375 724 389 767 L427 757 Q423 727 411.5 697 Q400 667 380 642.5 Q360 618 331.5 602.5 Q303 587 267 587 Q231 587 206.5 601.5 Q182 616 165.5 639.5 Q149 663 140 693.5 Q131 724 128 756 L168 768 Z M288 521 Q363 521 398 486.5 Q433 452 433 394 Q433 353 416.5 324.5 Q400 296 373.5 276.5 Q347 257 314.5 245.5 Q282 234 250 226 L139 199 Q141 174 149.5 148 Q158 122 173.5 100.5 Q189 79 212 65.5 Q235 52 266 52 Q289 52 308 58.5 Q327 65 343 75 Q359 85 372.5 96 Q386 107 396 117 L430 80 Q421 69 405.5 53 Q390 37 366.5 22 Q343 7 313 -3.5 Q283 -14 246 -14 Q198 -14 161 4 Q124 22 99 54 Q74 86 61 130 Q48 174 48 225 Q48 290 65.5 344 Q83 398 114.5 437.5 Q146 477 190 499 Q234 521 288 521 Z M344 391 Q344 420 330 442.5 Q316 465 281 465 Q218 465 181 410 Q144 355 139 256 L240 282 Q293 296 318.5 319 Q344 342 344 391 Z " />
<glyph glyph-name="Edotaccent" unicode="&#x116;" horiz-adv-x="600" d="M280 833 Q280 862 298 881 Q316 900 345 900 Q374 900 391.5 881.5 Q409 863 409 834 Q409 805 391.5 786 Q374 767 345 767 Q316 767 298 785.5 Q280 804 280 833 Z M82 654 L88 700 L542 700 L556 532 L501 523 L490 559 Q483 583 476 599 Q469 615 458.5 624.5 Q448 634 433 638.5 Q418 643 394 643 L255 643 L245 391 L494 391 L489 328 L242 328 L231 58 L388 58 Q411 58 427 62 Q443 66 454.5 76 Q466 86 474.5 102.5 Q483 119 491 143 L505 184 L560 184 L536 0 L57 0 L63 46 L145 59 L168 637 L82 654 Z " />
<glyph glyph-name="edotaccent" unicode="&#x117;" horiz-adv-x="481" d="M215 686 Q215 715 233 734 Q251 753 280 753 Q309 753 326.5 734.5 Q344 716 344 687 Q344 658 326.5 639 Q309 620 280 620 Q251 620 233 638.5 Q215 657 215 686 Z M288 521 Q363 521 398 486.5 Q433 452 433 394 Q433 353 416.5 324.5 Q400 296 373.5 276.5 Q347 257 314.5 245.5 Q282 234 250 226 L139 199 Q141 174 149.5 148 Q158 122 173.5 100.5 Q189 79 212 65.5 Q235 52 266 52 Q289 52 308 58.5 Q327 65 343 75 Q359 85 372.5 96 Q386 107 396 117 L430 80 Q421 69 405.5 53 Q390 37 366.5 22 Q343 7 313 -3.5 Q283 -14 246 -14 Q198 -14 161 4 Q124 22 99 54 Q74 86 61 130 Q48 174 48 225 Q48 290 65.5 344 Q83 398 114.5 437.5 Q146 477 190 499 Q234 521 288 521 Z M344 391 Q344 420 330 442.5 Q316 465 281 465 Q218 465 181 410 Q144 355 139 256 L240 282 Q293 296 318.5 319 Q344 342 344 391 Z " />
<glyph glyph-name="Eogonek" unicode="&#x118;" horiz-adv-x="600" d="M145 59 L168 637 L82 654 L88 700 L542 700 L556 532 L501 523 L490 559 Q483 583 476 599 Q469 615 458.5 624.5 Q448 634 433 638.5 Q418 643 394 643 L255 643 L245 391 L494 391 L489 328 L242 328 L231 58 L388 58 Q411 58 427 62 Q443 66 454.5 76 Q466 86 474.5 102.5 Q483 119 491 143 L505 184 L560 184 L536 0 Q483 -24 448 -58.5 Q413 -93 413 -128 Q413 -161 444 -161 Q458 -161 472.5 -151.5 Q487 -142 501 -128 L529 -156 Q509 -185 478 -207 Q447 -229 405 -229 Q375 -229 352.5 -210.5 Q330 -192 330 -155 Q330 -130 343.5 -107 Q357 -84 377 -64 Q397 -44 420.5 -27.5 Q444 -11 465 0 L57 0 L63 46 L145 59 Z " />
<glyph glyph-name="eogonek" unicode="&#x119;" horiz-adv-x="481" d="M288 521 Q363 521 398 486.5 Q433 452 433 394 Q433 353 416.5 324.5 Q400 296 373.5 276.5 Q347 257 314.5 245.5 Q282 234 250 226 L139 199 Q141 174 149.5 148 Q158 122 173.5 100.5 Q189 79 212 65.5 Q235 52 266 52 Q289 52 308 58.5 Q327 65 343 75 Q359 85 372.5 96 Q386 107 396 117 L430 80 Q424 72 414 61.5 Q404 51 393 40 Q377 24 359.5 3.5 Q342 -17 327.5 -39 Q313 -61 303.5 -83.5 Q294 -106 294 -127 Q294 -161 325 -161 Q337 -161 352.5 -152 Q368 -143 382 -128 L410 -156 Q390 -185 359 -207 Q328 -229 286 -229 Q249 -229 230 -208 Q211 -187 211 -160 Q211 -118 235.5 -83.5 Q260 -49 307 -5 Q279 -14 246 -14 Q198 -14 161 4 Q124 22 99 54 Q74 86 61 130 Q48 174 48 225 Q48 290 65.5 344 Q83 398 114.5 437.5 Q146 477 190 499 Q234 521 288 521 Z M344 391 Q344 420 330 442.5 Q316 465 281 465 Q218 465 181 410 Q144 355 139 256 L240 282 Q293 296 318.5 319 Q344 342 344 391 Z " />
<glyph glyph-name="Ecaron" unicode="&#x11a;" horiz-adv-x="600" d="M218 936 L355 848 L491 935 L513 909 L398 783 Q383 767 372 760 Q361 753 350 753 Q341 753 336 754 Q331 755 326 757 L193 912 L218 936 Z M82 654 L88 700 L542 700 L556 532 L501 523 L490 559 Q483 583 476 599 Q469 615 458.5 624.5 Q448 634 433 638.5 Q418 643 394 643 L255 643 L245 391 L494 391 L489 328 L242 328 L231 58 L388 58 Q411 58 427 62 Q443 66 454.5 76 Q466 86 474.5 102.5 Q483 119 491 143 L505 184 L560 184 L536 0 L57 0 L63 46 L145 59 L168 637 L82 654 Z " />
<glyph glyph-name="ecaron" unicode="&#x11b;" horiz-adv-x="481" d="M157 777 L283 674 L410 775 L432 752 L324 611 Q311 594 300.5 587 Q290 580 279 580 Q270 580 264 581 Q258 582 251 584 L132 752 L157 777 Z M288 521 Q363 521 398 486.5 Q433 452 433 394 Q433 353 416.5 324.5 Q400 296 373.5 276.5 Q347 257 314.5 245.5 Q282 234 250 226 L139 199 Q141 174 149.5 148 Q158 122 173.5 100.5 Q189 79 212 65.5 Q235 52 266 52 Q289 52 308 58.5 Q327 65 343 75 Q359 85 372.5 96 Q386 107 396 117 L430 80 Q421 69 405.5 53 Q390 37 366.5 22 Q343 7 313 -3.5 Q283 -14 246 -14 Q198 -14 161 4 Q124 22 99 54 Q74 86 61 130 Q48 174 48 225 Q48 290 65.5 344 Q83 398 114.5 437.5 Q146 477 190 499 Q234 521 288 521 Z M344 391 Q344 420 330 442.5 Q316 465 281 465 Q218 465 181 410 Q144 355 139 256 L240 282 Q293 296 318.5 319 Q344 342 344 391 Z " />
<glyph glyph-name="Gcircumflex" unicode="&#x11c;" horiz-adv-x="629" d="M513 750 L376 838 L240 751 L218 777 L333 903 Q348 919 359 926 Q370 933 381 933 Q390 933 395 932 Q400 931 405 929 L538 774 L513 750 Z M580 59 Q561 44 534.5 31 Q508 18 478 8 Q448 -2 415.5 -8 Q383 -14 351 -14 Q269 -14 212 15.5 Q155 45 119 93 Q83 141 67 201.5 Q51 262 51 325 Q51 424 77.5 497 Q104 570 149.5 618.5 Q195 667 255.5 691 Q316 715 384 715 Q425 715 465.5 705 Q506 695 538 676.5 Q570 658 590 630 Q610 602 610 566 Q610 537 593.5 522 Q577 507 555 507 Q532 507 513.5 516 Q495 525 483 537 L500 571 Q510 592 503 607 Q496 622 478.5 632 Q461 642 435.5 647 Q410 652 383 652 Q273 652 209 571 Q145 490 145 333 Q145 274 158.5 222.5 Q172 171 198 133 Q224 95 263.5 73 Q303 51 355 51 Q402 51 437.5 62.5 Q473 74 495 88 L502 266 L417 286 L423 332 L592 332 L580 59 Z " />
<glyph glyph-name="gcircumflex" unicode="&#x11d;" horiz-adv-x="552" d="M426 580 L300 682 L173 582 L151 605 L259 746 Q272 763 282.5 770 Q293 777 304 777 Q313 777 319 776 Q325 775 332 773 L451 605 L426 580 Z M398 275 L375 189 Q362 139 346.5 101.5 Q331 64 311 39 Q291 14 264 1.5 Q237 -11 199 -11 Q159 -11 130.5 6 Q102 23 83.5 52.5 Q65 82 56.5 121.5 Q48 161 48 206 Q48 276 64.5 334 Q81 392 111.5 433.5 Q142 475 185 498 Q228 521 281 521 Q311 521 345.5 515 Q380 509 409 497 L447 522 L477 512 L461 81 Q459 22 445.5 -34 Q432 -90 402 -133.5 Q372 -177 322.5 -203.5 Q273 -230 199 -230 Q173 -230 146 -225 Q119 -220 97 -209 Q75 -198 61 -179 Q47 -160 47 -133 Q47 -99 66 -79.5 Q85 -60 111 -60 Q127 -60 143 -67 Q159 -74 168 -86 L159 -115 Q135 -181 215 -181 Q293 -181 335 -112 Q377 -43 387 76 L405 274 L398 275 Z M215 57 Q245 57 265.5 74.5 Q286 92 302 125 Q318 158 332 206.5 Q346 255 363 316 L396 437 Q387 442 373 446 Q359 450 344 453 Q329 456 314.5 458 Q300 460 289 460 Q254 460 226 441 Q198 422 178.5 389 Q159 356 148.5 310.5 Q138 265 138 211 Q138 195 139 169 Q140 143 147.5 118 Q155 93 170.5 75 Q186 57 215 57 Z " />
<glyph glyph-name="Gbreve" unicode="&#x11e;" horiz-adv-x="629" d="M262 928 Q274 878 303 855 Q332 832 381 832 Q431 832 459 858 Q487 884 500 927 L538 917 Q534 887 522.5 857 Q511 827 491 804 Q471 781 441.5 766.5 Q412 752 373 752 Q335 752 307.5 765.5 Q280 779 261.5 801.5 Q243 824 233.5 854 Q224 884 222 916 L262 928 Z M580 59 Q561 44 534.5 31 Q508 18 478 8 Q448 -2 415.5 -8 Q383 -14 351 -14 Q269 -14 212 15.5 Q155 45 119 93 Q83 141 67 201.5 Q51 262 51 325 Q51 424 77.5 497 Q104 570 149.5 618.5 Q195 667 255.5 691 Q316 715 384 715 Q425 715 465.5 705 Q506 695 538 676.5 Q570 658 590 630 Q610 602 610 566 Q610 537 593.5 522 Q577 507 555 507 Q532 507 513.5 516 Q495 525 483 537 L500 571 Q510 592 503 607 Q496 622 478.5 632 Q461 642 435.5 647 Q410 652 383 652 Q273 652 209 571 Q145 490 145 333 Q145 274 158.5 222.5 Q172 171 198 133 Q224 95 263.5 73 Q303 51 355 51 Q402 51 437.5 62.5 Q473 74 495 88 L502 266 L417 286 L423 332 L592 332 L580 59 Z " />
<glyph glyph-name="gbreve" unicode="&#x11f;" horiz-adv-x="552" d="M187 768 Q201 718 223.5 692.5 Q246 667 291 667 Q336 667 365 695.5 Q394 724 408 767 L446 757 Q442 727 430.5 697 Q419 667 399 642.5 Q379 618 350.5 602.5 Q322 587 286 587 Q250 587 225.5 601.5 Q201 616 184.5 639.5 Q168 663 159 693.5 Q150 724 147 756 L187 768 Z M398 275 L375 189 Q362 139 346.5 101.5 Q331 64 311 39 Q291 14 264 1.5 Q237 -11 199 -11 Q159 -11 130.5 6 Q102 23 83.5 52.5 Q65 82 56.5 121.5 Q48 161 48 206 Q48 276 64.5 334 Q81 392 111.5 433.5 Q142 475 185 498 Q228 521 281 521 Q311 521 345.5 515 Q380 509 409 497 L447 522 L477 512 L461 81 Q459 22 445.5 -34 Q432 -90 402 -133.5 Q372 -177 322.5 -203.5 Q273 -230 199 -230 Q173 -230 146 -225 Q119 -220 97 -209 Q75 -198 61 -179 Q47 -160 47 -133 Q47 -99 66 -79.5 Q85 -60 111 -60 Q127 -60 143 -67 Q159 -74 168 -86 L159 -115 Q135 -181 215 -181 Q293 -181 335 -112 Q377 -43 387 76 L405 274 L398 275 Z M215 57 Q245 57 265.5 74.5 Q286 92 302 125 Q318 158 332 206.5 Q346 255 363 316 L396 437 Q387 442 373 446 Q359 450 344 453 Q329 456 314.5 458 Q300 460 289 460 Q254 460 226 441 Q198 422 178.5 389 Q159 356 148.5 310.5 Q138 265 138 211 Q138 195 139 169 Q140 143 147.5 118 Q155 93 170.5 75 Q186 57 215 57 Z " />
<glyph glyph-name="Gdotaccent" unicode="&#x120;" horiz-adv-x="629" d="M313 833 Q313 862 331 881 Q349 900 378 900 Q407 900 424.5 881.5 Q442 863 442 834 Q442 805 424.5 786 Q407 767 378 767 Q349 767 331 785.5 Q313 804 313 833 Z M580 59 Q561 44 534.5 31 Q508 18 478 8 Q448 -2 415.5 -8 Q383 -14 351 -14 Q269 -14 212 15.5 Q155 45 119 93 Q83 141 67 201.5 Q51 262 51 325 Q51 424 77.5 497 Q104 570 149.5 618.5 Q195 667 255.5 691 Q316 715 384 715 Q425 715 465.5 705 Q506 695 538 676.5 Q570 658 590 630 Q610 602 610 566 Q610 537 593.5 522 Q577 507 555 507 Q532 507 513.5 516 Q495 525 483 537 L500 571 Q510 592 503 607 Q496 622 478.5 632 Q461 642 435.5 647 Q410 652 383 652 Q273 652 209 571 Q145 490 145 333 Q145 274 158.5 222.5 Q172 171 198 133 Q224 95 263.5 73 Q303 51 355 51 Q402 51 437.5 62.5 Q473 74 495 88 L502 266 L417 286 L423 332 L592 332 L580 59 Z " />
<glyph glyph-name="gdotaccent" unicode="&#x121;" horiz-adv-x="552" d="M234 686 Q234 715 252 734 Q270 753 299 753 Q328 753 345.5 734.5 Q363 716 363 687 Q363 658 345.5 639 Q328 620 299 620 Q270 620 252 638.5 Q234 657 234 686 Z M398 275 L375 189 Q362 139 346.5 101.5 Q331 64 311 39 Q291 14 264 1.5 Q237 -11 199 -11 Q159 -11 130.5 6 Q102 23 83.5 52.5 Q65 82 56.5 121.5 Q48 161 48 206 Q48 276 64.5 334 Q81 392 111.5 433.5 Q142 475 185 498 Q228 521 281 521 Q311 521 345.5 515 Q380 509 409 497 L447 522 L477 512 L461 81 Q459 22 445.5 -34 Q432 -90 402 -133.5 Q372 -177 322.5 -203.5 Q273 -230 199 -230 Q173 -230 146 -225 Q119 -220 97 -209 Q75 -198 61 -179 Q47 -160 47 -133 Q47 -99 66 -79.5 Q85 -60 111 -60 Q127 -60 143 -67 Q159 -74 168 -86 L159 -115 Q135 -181 215 -181 Q293 -181 335 -112 Q377 -43 387 76 L405 274 L398 275 Z M215 57 Q245 57 265.5 74.5 Q286 92 302 125 Q318 158 332 206.5 Q346 255 363 316 L396 437 Q387 442 373 446 Q359 450 344 453 Q329 456 314.5 458 Q300 460 289 460 Q254 460 226 441 Q198 422 178.5 389 Q159 356 148.5 310.5 Q138 265 138 211 Q138 195 139 169 Q140 143 147.5 118 Q155 93 170.5 75 Q186 57 215 57 Z " />
<glyph glyph-name="Gcommaaccent" unicode="&#x122;" horiz-adv-x="629" d="M580 59 Q561 44 534.5 31 Q508 18 478 8 Q448 -2 415.5 -8 Q383 -14 351 -14 Q269 -14 212 15.5 Q155 45 119 93 Q83 141 67 201.5 Q51 262 51 325 Q51 424 77.5 497 Q104 570 149.5 618.5 Q195 667 255.5 691 Q316 715 384 715 Q425 715 465.5 705 Q506 695 538 676.5 Q570 658 590 630 Q610 602 610 566 Q610 537 593.5 522 Q577 507 555 507 Q532 507 513.5 516 Q495 525 483 537 L500 571 Q510 592 503 607 Q496 622 478.5 632 Q461 642 435.5 647 Q410 652 383 652 Q273 652 209 571 Q145 490 145 333 Q145 274 158.5 222.5 Q172 171 198 133 Q224 95 263.5 73 Q303 51 355 51 Q402 51 437.5 62.5 Q473 74 495 88 L502 266 L417 286 L423 332 L592 332 L580 59 Z M281 -141 Q281 -112 299 -93 Q317 -74 346 -74 Q375 -74 392.5 -92.5 Q410 -111 410 -140 Q410 -169 392.5 -188 Q375 -207 346 -207 Q317 -207 299 -188.5 Q281 -170 281 -141 Z " />
<glyph glyph-name="gcommaaccent" unicode="&#x123;" horiz-adv-x="552" d="M327 788 Q277 755 252 714.5 Q227 674 227 642 Q227 616 243.5 596 Q260 576 290 576 Q308 576 321 584 Q334 592 341 604.5 Q348 617 349.5 631.5 Q351 646 346 658 L318 668 Q309 671 306 675.5 Q303 680 303 687 Q303 706 318.5 725 Q334 744 351 758 L327 788 Z M398 275 L375 189 Q362 139 346.5 101.5 Q331 64 311 39 Q291 14 264 1.5 Q237 -11 199 -11 Q159 -11 130.5 6 Q102 23 83.5 52.5 Q65 82 56.5 121.5 Q48 161 48 206 Q48 276 64.5 334 Q81 392 111.5 433.5 Q142 475 185 498 Q228 521 281 521 Q311 521 345.5 515 Q380 509 409 497 L447 522 L477 512 L461 81 Q459 22 445.5 -34 Q432 -90 402 -133.5 Q372 -177 322.5 -203.5 Q273 -230 199 -230 Q173 -230 146 -225 Q119 -220 97 -209 Q75 -198 61 -179 Q47 -160 47 -133 Q47 -99 66 -79.5 Q85 -60 111 -60 Q127 -60 143 -67 Q159 -74 168 -86 L159 -115 Q135 -181 215 -181 Q293 -181 335 -112 Q377 -43 387 76 L405 274 L398 275 Z M215 57 Q245 57 265.5 74.5 Q286 92 302 125 Q318 158 332 206.5 Q346 255 363 316 L396 437 Q387 442 373 446 Q359 450 344 453 Q329 456 314.5 458 Q300 460 289 460 Q254 460 226 441 Q198 422 178.5 389 Q159 356 148.5 310.5 Q138 265 138 211 Q138 195 139 169 Q140 143 147.5 118 Q155 93 170.5 75 Q186 57 215 57 Z " />
<glyph glyph-name="Hcircumflex" unicode="&#x124;" horiz-adv-x="769" d="M553 750 L416 838 L280 751 L258 777 L373 903 Q388 919 399 926 Q410 933 421 933 Q430 933 435 932 Q440 931 445 929 L578 774 L553 750 Z M243 328 L233 59 L328 46 L322 0 L57 0 L63 46 L145 59 L168 637 L82 654 L88 700 L346 700 L340 654 L255 637 L245 391 L559 391 L570 637 L484 654 L490 700 L747 700 L741 654 L656 637 L634 59 L729 46 L723 0 L458 0 L464 46 L546 59 L557 328 L243 328 Z " />
<glyph glyph-name="hcircumflex" unicode="&#x125;" horiz-adv-x="598" d="M259 800 L122 888 L-14 801 L-36 827 L79 953 Q94 969 105 976 Q116 983 127 983 Q136 983 141 982 Q146 981 151 979 L284 824 L259 800 Z M581 38 Q572 30 558.5 21.5 Q545 13 529 5.5 Q513 -2 496 -6.5 Q479 -11 464 -11 Q419 -11 403.5 12.5 Q388 36 391 72 L416 354 Q421 408 411.5 427.5 Q402 447 377 447 Q362 447 351 441 Q340 435 330.5 421.5 Q321 408 312 385.5 Q303 363 291 330 L174 0 L92 0 L118 698 L25 719 L31 767 L187 767 L203 756 L189 409 L165 152 L172 150 L245 367 Q272 447 306.5 484 Q341 521 398 521 Q465 521 487 478.5 Q509 436 501 348 L479 93 Q477 70 481 60 Q485 50 502 50 Q513 50 528.5 56.5 Q544 63 558 74 L581 38 Z " />
<glyph glyph-name="Hbar" unicode="&#x126;" horiz-adv-x="769" d="M650 492 L634 59 L729 46 L723 0 L458 0 L464 46 L546 59 L557 328 L243 328 L233 59 L328 46 L322 0 L57 0 L63 46 L145 59 L162 492 L48 492 L56 550 L165 550 L168 637 L82 654 L88 700 L346 700 L340 654 L255 637 L251 550 L566 550 L570 637 L484 654 L490 700 L747 700 L741 654 L656 637 L653 550 L766 550 L759 492 L650 492 Z M564 492 L249 492 L245 391 L559 391 L564 492 Z " />
<glyph glyph-name="hbar" unicode="&#x127;" horiz-adv-x="598" d="M23 638 L116 638 L118 698 L25 719 L31 767 L187 767 L203 756 L198 638 L371 638 L364 581 L196 581 L189 409 L165 152 L172 150 L245 367 Q272 447 306.5 484 Q341 521 398 521 Q465 521 487 478.5 Q509 436 501 348 L479 93 Q477 70 481 60 Q485 50 502 50 Q513 50 528.5 56.5 Q544 63 558 74 L581 38 Q572 30 558.5 21.5 Q545 13 529 5.5 Q513 -2 496 -6.5 Q479 -11 464 -11 Q419 -11 403.5 12.5 Q388 36 391 72 L416 354 Q421 408 411.5 427.5 Q402 447 377 447 Q362 447 351 441 Q340 435 330.5 421.5 Q321 408 312 385.5 Q303 363 291 330 L174 0 L92 0 L114 581 L15 581 L23 638 Z " />
<glyph glyph-name="Itilde" unicode="&#x128;" horiz-adv-x="367" d="M292 776 Q272 776 252.5 781 Q233 786 203 800 Q179 811 159.5 820 Q140 829 132 829 Q120 829 111.5 822.5 Q103 816 86 792 L55 811 Q69 839 80.5 857 Q92 875 103.5 885 Q115 895 126.5 898.5 Q138 902 152 902 Q169 902 188 894.5 Q207 887 237 874 Q258 865 277.5 857.5 Q297 850 310 850 Q323 850 332 859 Q341 868 355 887 L386 868 Q360 817 340.5 796.5 Q321 776 292 776 Z M83 654 L89 700 L345 700 L339 654 L254 637 L232 59 L327 46 L321 0 L56 0 L62 46 L144 59 L169 637 L83 654 Z " />
<glyph glyph-name="itilde" unicode="&#x129;" horiz-adv-x="306" d="M215 620 Q195 620 175.5 625 Q156 630 126 644 Q102 655 82.5 664 Q63 673 55 673 Q43 673 34.5 666.5 Q26 660 9 636 L-22 655 Q-8 683 3.5 701 Q15 719 26.5 729 Q38 739 49.5 742.5 Q61 746 75 746 Q92 746 111 738.5 Q130 731 160 718 Q181 709 200.5 701.5 Q220 694 233 694 Q246 694 255 703 Q264 712 278 731 L309 712 Q283 661 263.5 640.5 Q244 620 215 620 Z M123 416 Q124 436 119.5 446.5 Q115 457 98 457 Q81 457 64 451.5 Q47 446 35 441 L19 486 Q38 497 70 509 Q102 521 135 521 Q176 521 194 494 Q212 467 208 408 L185 90 Q183 67 187 57 Q191 47 208 47 Q224 47 239.5 58 Q255 69 270 81 L295 43 Q287 35 275 25 Q263 15 247.5 6.5 Q232 -2 213 -8 Q194 -14 172 -14 Q125 -14 110.5 11.5 Q96 37 97 77 L123 416 Z " />
<glyph glyph-name="Imacron" unicode="&#x12a;" horiz-adv-x="367" d="M364 868 L360 795 L77 795 L81 868 L364 868 Z M83 654 L89 700 L345 700 L339 654 L254 637 L232 59 L327 46 L321 0 L56 0 L62 46 L144 59 L169 637 L83 654 Z " />
<glyph glyph-name="imacron" unicode="&#x12b;" horiz-adv-x="306" d="M285 708 L281 635 L-2 635 L2 708 L285 708 Z M123 416 Q124 436 119.5 446.5 Q115 457 98 457 Q81 457 64 451.5 Q47 446 35 441 L19 486 Q38 497 70 509 Q102 521 135 521 Q176 521 194 494 Q212 467 208 408 L185 90 Q183 67 187 57 Q191 47 208 47 Q224 47 239.5 58 Q255 69 270 81 L295 43 Q287 35 275 25 Q263 15 247.5 6.5 Q232 -2 213 -8 Q194 -14 172 -14 Q125 -14 110.5 11.5 Q96 37 97 77 L123 416 Z " />
<glyph glyph-name="Ibreve" unicode="&#x12c;" horiz-adv-x="367" d="M104 928 Q116 878 145 855 Q174 832 223 832 Q273 832 301 858 Q329 884 342 927 L380 917 Q376 887 364.5 857 Q353 827 333 804 Q313 781 283.5 766.5 Q254 752 215 752 Q177 752 149.5 765.5 Q122 779 103.5 801.5 Q85 824 75.5 854 Q66 884 64 916 L104 928 Z M83 654 L89 700 L345 700 L339 654 L254 637 L232 59 L327 46 L321 0 L56 0 L62 46 L144 59 L169 637 L83 654 Z " />
<glyph glyph-name="ibreve" unicode="&#x12d;" horiz-adv-x="306" d="M33 768 Q47 718 69.5 692.5 Q92 667 137 667 Q182 667 211 695.5 Q240 724 254 767 L292 757 Q288 727 276.5 697 Q265 667 245 642.5 Q225 618 196.5 602.5 Q168 587 132 587 Q96 587 71.5 601.5 Q47 616 30.5 639.5 Q14 663 5 693.5 Q-4 724 -7 756 L33 768 Z M123 416 Q124 436 119.5 446.5 Q115 457 98 457 Q81 457 64 451.5 Q47 446 35 441 L19 486 Q38 497 70 509 Q102 521 135 521 Q176 521 194 494 Q212 467 208 408 L185 90 Q183 67 187 57 Q191 47 208 47 Q224 47 239.5 58 Q255 69 270 81 L295 43 Q287 35 275 25 Q263 15 247.5 6.5 Q232 -2 213 -8 Q194 -14 172 -14 Q125 -14 110.5 11.5 Q96 37 97 77 L123 416 Z " />
<glyph glyph-name="Iogonek" unicode="&#x12e;" horiz-adv-x="367" d="M83 654 L89 700 L345 700 L339 654 L254 637 L232 59 L327 46 L321 0 L241 0 Q226 -12 211.5 -27 Q197 -42 185.5 -58.5 Q174 -75 167 -92.5 Q160 -110 160 -128 Q160 -161 191 -161 Q205 -161 219.5 -151.5 Q234 -142 248 -128 L276 -156 Q256 -185 225 -207 Q194 -229 152 -229 Q122 -229 99.5 -210.5 Q77 -192 77 -155 Q77 -131 86.5 -109 Q96 -87 111.5 -67.5 Q127 -48 146.5 -31 Q166 -14 185 0 L56 0 L62 46 L144 59 L169 637 L83 654 Z " />
<glyph glyph-name="iogonek" unicode="&#x12f;" horiz-adv-x="306" d="M96 686 Q96 715 114 734 Q132 753 161 753 Q190 753 207.5 734.5 Q225 716 225 687 Q225 658 207.5 639 Q190 620 161 620 Q132 620 114 638.5 Q96 657 96 686 Z M123 416 Q124 436 119.5 446.5 Q115 457 98 457 Q81 457 64 451.5 Q47 446 35 441 L19 486 Q38 497 70 509 Q102 521 135 521 Q176 521 194 494 Q212 467 208 408 L185 90 Q183 67 187 57 Q191 47 208 47 Q224 47 239.5 58 Q255 69 270 81 L295 43 Q287 35 276 25.5 Q265 16 253 7 Q237 -5 220.5 -20 Q204 -35 190.5 -52.5 Q177 -70 168.5 -89.5 Q160 -109 160 -128 Q160 -161 191 -161 Q205 -161 219.5 -151.5 Q234 -142 248 -128 L276 -156 Q256 -185 225 -207 Q194 -229 152 -229 Q122 -229 99.5 -210.5 Q77 -192 77 -155 Q77 -134 85 -115 Q93 -96 106 -78 Q119 -60 135.5 -44 Q152 -28 169 -14 Q123 -14 109.5 11.5 Q96 37 97 77 L123 416 Z " />
<glyph glyph-name="Idotaccent" unicode="&#x130;" horiz-adv-x="367" d="M155 833 Q155 862 173 881 Q191 900 220 900 Q249 900 266.5 881.5 Q284 863 284 834 Q284 805 266.5 786 Q249 767 220 767 Q191 767 173 785.5 Q155 804 155 833 Z M83 654 L89 700 L345 700 L339 654 L254 637 L232 59 L327 46 L321 0 L56 0 L62 46 L144 59 L169 637 L83 654 Z " />
<glyph glyph-name="dotlessi" unicode="&#x131;" horiz-adv-x="306" d="M123 416 Q124 436 119.5 446.5 Q115 457 98 457 Q81 457 64 451.5 Q47 446 35 441 L19 486 Q38 497 70 509 Q102 521 135 521 Q176 521 194 494 Q212 467 208 408 L185 90 Q183 67 187 57 Q191 47 208 47 Q224 47 239.5 58 Q255 69 270 81 L295 43 Q287 35 275 25 Q263 15 247.5 6.5 Q232 -2 213 -8 Q194 -14 172 -14 Q125 -14 110.5 11.5 Q96 37 97 77 L123 416 Z " />
<glyph glyph-name="Jcircumflex" unicode="&#x134;" horiz-adv-x="367" d="M358 750 L221 838 L85 751 L63 777 L178 903 Q193 919 204 926 Q215 933 226 933 Q235 933 240 932 Q245 931 250 929 L383 774 L358 750 Z M67 654 L73 700 L345 700 L339 654 L254 637 L232 59 Q230 13 221 -24.5 Q212 -62 192.5 -95 Q173 -128 142 -160.5 Q111 -193 65 -229 L38 -190 Q71 -153 91.5 -122 Q112 -91 123 -62 Q134 -33 138.5 -4 Q143 25 144 59 L169 637 L67 654 Z " />
<glyph glyph-name="jcircumflex" unicode="&#x135;" horiz-adv-x="289" d="M261 580 L135 682 L8 582 L-14 605 L94 746 Q107 763 117.5 770 Q128 777 139 777 Q148 777 154 776 Q160 775 167 773 L286 605 L261 580 Z M191 122 Q190 82 183.5 37.5 Q177 -7 166 -49 Q155 -91 140 -126.5 Q125 -162 106 -184 Q69 -229 25 -229 Q-7 -229 -23.5 -215.5 Q-40 -202 -42 -179 Q-44 -150 -18 -114 L23 -131 Q49 -142 69 -131 Q89 -120 94 -82 Q97 -57 98 -32.5 Q99 -8 101 23 L117 416 Q118 436 113.5 446.5 Q109 457 92 457 Q75 457 58 451.5 Q41 446 29 441 L13 486 Q32 497 64 509 Q96 521 129 521 Q170 521 188 494 Q206 467 202 408 L191 122 Z " />
<glyph glyph-name="Kcommaaccent" unicode="&#x136;" horiz-adv-x="696" d="M169 637 L144 59 L62 46 L56 0 L321 0 L327 46 L232 59 L254 637 L339 654 L345 700 L89 700 L83 654 L169 637 Z M270 342 L272 373 L526 639 L444 652 L453 700 L691 700 L684 653 L606 638 L357 388 L357 382 Q390 368 412.5 352 Q435 336 451 315.5 Q467 295 478.5 269 Q490 243 502 208 Q516 166 526.5 135.5 Q537 105 548 85 Q559 65 573 55 Q587 45 608 45 Q624 45 638.5 50.5 Q653 56 667 63 L687 28 Q667 8 638.5 -3 Q610 -14 581 -14 Q542 -14 516.5 -1.5 Q491 11 473 36.5 Q455 62 441.5 100.5 Q428 139 412 191 Q402 223 391 249 Q380 275 363.5 294.5 Q347 314 324.5 326 Q302 338 270 342 Z M308 -268 L284 -238 Q301 -224 316.5 -205 Q332 -186 332 -167 Q332 -160 329 -155.5 Q326 -151 317 -148 L289 -138 Q284 -126 285.5 -111.5 Q287 -97 294 -84.5 Q301 -72 314 -64 Q327 -56 345 -56 Q374 -56 391 -76 Q408 -96 408 -122 Q408 -154 383 -194.5 Q358 -235 308 -268 Z " />
<glyph glyph-name="kcommaaccent" unicode="&#x137;" horiz-adv-x="564" d="M28 719 L34 767 L189 767 L205 756 L184 299 Q226 307 264 322 Q302 337 343 364 Q373 384 378 405 Q383 426 363 438 L335 455 Q341 487 361.5 504 Q382 521 411 521 Q443 521 460 500 Q477 479 477 451 Q477 412 453.5 383 Q430 354 377 321 Q359 310 341.5 300.5 Q324 291 307 283 L412 105 Q430 75 443.5 61 Q457 47 477 47 Q494 47 506.5 52.5 Q519 58 532 66 L554 30 Q539 16 509 1 Q479 -14 444 -14 Q405 -14 383 8 Q361 30 339 65 L232 253 L182 239 L171 0 L90 0 L121 698 L28 719 Z M220 -258 Q270 -225 295 -184.5 Q320 -144 320 -112 Q320 -86 303 -66 Q286 -46 257 -46 Q239 -46 226 -54 Q213 -62 206 -74.5 Q199 -87 197.5 -101.5 Q196 -116 201 -128 L229 -138 Q238 -141 241 -145.5 Q244 -150 244 -157 Q244 -176 228.5 -195 Q213 -214 196 -228 L220 -258 Z " />
<glyph glyph-name="kgreenlandic" unicode="&#x138;" horiz-adv-x="572" d="M195 299 Q235 307 273 322.5 Q311 338 351 364 Q381 384 386 405 Q391 426 371 438 L343 455 Q349 487 369.5 504 Q390 521 419 521 Q451 521 468 500 Q485 479 485 451 Q485 412 461.5 383 Q438 354 385 321 Q367 310 349.5 300.5 Q332 291 315 283 L420 105 Q438 75 451.5 61 Q465 47 485 47 Q502 47 514.5 52.5 Q527 58 540 66 L562 30 Q547 16 517 1 Q487 -14 452 -14 Q413 -14 391 8 Q369 30 347 65 L240 253 Q227 249 215 245.5 Q203 242 192 240 L179 0 L98 0 L120 416 Q121 436 118 446.5 Q115 457 98 457 Q81 457 64 451.5 Q47 446 35 441 L19 486 Q38 497 70 509 Q102 521 135 521 Q176 521 190 494 Q204 467 201 408 L195 299 Z " />
<glyph glyph-name="Lacute" unicode="&#x139;" horiz-adv-x="590" d="M259 899 Q271 910 280 915.5 Q289 921 300 921 Q318 921 329 908 Q340 895 340 876 Q340 861 332 839 L148 752 L129 779 L259 899 Z M145 59 L169 637 L83 654 L89 700 L366 700 L360 654 L255 637 L231 58 L381 58 Q404 58 420 62 Q436 66 447.5 76 Q459 86 467.5 102.5 Q476 119 484 143 L500 194 L555 194 L529 0 L57 0 L63 46 L145 59 Z " />
<glyph glyph-name="lacute" unicode="&#x13a;" horiz-adv-x="297" d="M160 947 Q172 958 181 963.5 Q190 969 201 969 Q219 969 230 956 Q241 943 241 924 Q241 909 233 887 L49 800 L30 827 L160 947 Z M28 719 L34 767 L189 767 L205 756 L182 90 Q181 67 185.5 57.5 Q190 48 207 48 Q223 48 237.5 58.5 Q252 69 267 81 L292 43 Q284 35 272.5 25 Q261 15 245.5 6.5 Q230 -2 211.5 -8 Q193 -14 171 -14 Q123 -14 107.5 11 Q92 36 94 77 L121 698 L28 719 Z " />
<glyph glyph-name="Lcommaaccent" unicode="&#x13b;" horiz-adv-x="590" d="M145 59 L169 637 L83 654 L89 700 L366 700 L360 654 L255 637 L231 58 L381 58 Q404 58 420 62 Q436 66 447.5 76 Q459 86 467.5 102.5 Q476 119 484 143 L500 194 L555 194 L529 0 L57 0 L63 46 L145 59 Z M273 -268 Q323 -235 348 -194.5 Q373 -154 373 -122 Q373 -96 356 -76 Q339 -56 310 -56 Q292 -56 279 -64 Q266 -72 259 -84.5 Q252 -97 250.5 -111.5 Q249 -126 254 -138 L282 -148 Q291 -151 294 -155.5 Q297 -160 297 -167 Q297 -186 281.5 -205 Q266 -224 249 -238 L273 -268 Z " />
<glyph glyph-name="lcommaaccent" unicode="&#x13c;" horiz-adv-x="297" d="M28 719 L34 767 L189 767 L205 756 L182 90 Q181 67 185.5 57.5 Q190 48 207 48 Q223 48 237.5 58.5 Q252 69 267 81 L292 43 Q284 35 272.5 25 Q261 15 245.5 6.5 Q230 -2 211.5 -8 Q193 -14 171 -14 Q123 -14 107.5 11 Q92 36 94 77 L121 698 L28 719 Z M120 -258 Q170 -225 195 -184.5 Q220 -144 220 -112 Q220 -86 203 -66 Q186 -46 157 -46 Q139 -46 126 -54 Q113 -62 106 -74.5 Q99 -87 97.5 -101.5 Q96 -116 101 -128 L129 -138 Q138 -141 141 -145.5 Q144 -150 144 -157 Q144 -176 128.5 -195 Q113 -214 96 -228 L120 -258 Z " />
<glyph glyph-name="Lcaron" unicode="&#x13d;" horiz-adv-x="590" d="M436 542 Q488 593 510 628.5 Q532 664 532 700 Q532 733 515 750.5 Q498 768 470 768 Q440 768 428 746.5 Q416 725 421 701 L444 683 Q457 673 457 657 Q457 628 409 569 L436 542 Z M145 59 L169 637 L83 654 L89 700 L366 700 L360 654 L255 637 L231 58 L381 58 Q404 58 420 62 Q436 66 447.5 76 Q459 86 467.5 102.5 Q476 119 484 143 L500 194 L555 194 L529 0 L57 0 L63 46 L145 59 Z " />
<glyph glyph-name="lcaron" unicode="&#x13e;" horiz-adv-x="382" d="M283 542 Q335 593 357 628.5 Q379 664 379 700 Q379 733 362 750.5 Q345 768 317 768 Q287 768 275 746.5 Q263 725 268 701 L291 683 Q304 673 304 657 Q304 628 256 569 L283 542 Z M28 719 L34 767 L189 767 L205 756 L182 90 Q181 67 185.5 57.5 Q190 48 207 48 Q223 48 237.5 58.5 Q252 69 267 81 L292 43 Q284 35 272.5 25 Q261 15 245.5 6.5 Q230 -2 211.5 -8 Q193 -14 171 -14 Q123 -14 107.5 11 Q92 36 94 77 L121 698 L28 719 Z " />
<glyph glyph-name="Ldot" unicode="&#x13f;" horiz-adv-x="590" d="M145 59 L169 637 L83 654 L89 700 L366 700 L360 654 L255 637 L231 58 L381 58 Q404 58 420 62 Q436 66 447.5 76 Q459 86 467.5 102.5 Q476 119 484 143 L500 194 L555 194 L529 0 L57 0 L63 46 L145 59 Z M381 378 Q381 407 399 426 Q417 445 446 445 Q475 445 492.5 426.5 Q510 408 510 379 Q510 350 492.5 331 Q475 312 446 312 Q417 312 399 330.5 Q381 349 381 378 Z " />
<glyph glyph-name="ldot" unicode="&#x140;" horiz-adv-x="388" d="M28 719 L34 767 L189 767 L205 756 L182 90 Q181 67 185.5 57.5 Q190 48 207 48 Q223 48 237.5 58.5 Q252 69 267 81 L292 43 Q284 35 272.5 25 Q261 15 245.5 6.5 Q230 -2 211.5 -8 Q193 -14 171 -14 Q123 -14 107.5 11 Q92 36 94 77 L121 698 L28 719 Z M273 401 Q273 430 291 449 Q309 468 338 468 Q367 468 384.5 449.5 Q402 431 402 402 Q402 373 384.5 354 Q367 335 338 335 Q309 335 291 353.5 Q273 372 273 401 Z " />
<glyph glyph-name="Lslash" unicode="&#x141;" horiz-adv-x="590" d="M555 194 L529 0 L57 0 L63 46 L145 59 L154 281 L43 213 L50 283 L157 349 L169 637 L83 654 L89 700 L366 700 L360 654 L255 637 L245 389 L449 512 L442 442 L242 321 L231 58 L381 58 Q404 58 420 62 Q436 66 447.5 76 Q459 86 467.5 102.5 Q476 119 484 143 L500 194 L555 194 Z " />
<glyph glyph-name="lslash" unicode="&#x142;" horiz-adv-x="337" d="M197 90 Q196 67 200.5 57.5 Q205 48 222 48 Q238 48 252.5 58.5 Q267 69 282 81 L307 43 Q299 35 287.5 25 Q276 15 260.5 6.5 Q245 -2 226.5 -8 Q208 -14 186 -14 Q138 -14 122.5 11 Q107 36 109 77 L120 338 L20 284 L27 354 L123 405 L136 698 L43 719 L49 767 L204 767 L220 756 L209 443 L317 505 L310 435 L207 376 L197 90 Z " />
<glyph glyph-name="Nacute" unicode="&#x143;" horiz-adv-x="756" d="M445 899 Q457 910 466 915.5 Q475 921 486 921 Q504 921 515 908 Q526 895 526 876 Q526 861 518 839 L334 752 L315 779 L445 899 Z M586 637 L501 654 L507 700 L744 700 L738 654 L653 637 L628 0 L536 -11 L232 619 L212 59 L306 46 L300 0 L57 0 L63 46 L144 59 L168 641 L89 652 L95 700 L292 700 L568 119 L586 637 Z " />
<glyph glyph-name="nacute" unicode="&#x144;" horiz-adv-x="603" d="M328 746 Q340 761 349.5 768 Q359 775 373 775 Q395 775 404.5 757.5 Q414 740 409 705 L242 582 L220 605 L328 746 Z M586 35 Q577 27 563.5 18.5 Q550 10 534 2.5 Q518 -5 501 -9.5 Q484 -14 469 -14 Q424 -14 408.5 9.5 Q393 33 396 69 L421 354 Q426 408 416.5 427.5 Q407 447 382 447 Q367 447 356 441 Q345 435 335.5 421.5 Q326 408 317 385.5 Q308 363 296 330 L179 0 L97 0 L113 416 Q114 437 108 446.5 Q102 456 86 456 Q74 456 59 450.5 Q44 445 27 438 L10 488 Q18 493 31.5 498.5 Q45 504 60.5 509 Q76 514 93 517.5 Q110 521 125 521 Q168 521 184 495.5 Q200 470 195 419 L170 152 L177 150 L250 367 Q277 447 311.5 484 Q346 521 403 521 Q470 521 492 478.5 Q514 436 506 348 L484 90 Q482 67 486 57 Q490 47 507 47 Q518 47 533.5 53.5 Q549 60 563 71 L586 35 Z " />
<glyph glyph-name="Ncommaaccent" unicode="&#x145;" horiz-adv-x="756" d="M586 637 L501 654 L507 700 L744 700 L738 654 L653 637 L628 0 L536 -11 L232 619 L212 59 L306 46 L300 0 L57 0 L63 46 L144 59 L168 641 L89 652 L95 700 L292 700 L568 119 L586 637 Z M334 -268 Q384 -235 409 -194.5 Q434 -154 434 -122 Q434 -96 417 -76 Q400 -56 371 -56 Q353 -56 340 -64 Q327 -72 320 -84.5 Q313 -97 311.5 -111.5 Q310 -126 315 -138 L343 -148 Q352 -151 355 -155.5 Q358 -160 358 -167 Q358 -186 342.5 -205 Q327 -224 310 -238 L334 -268 Z " />
<glyph glyph-name="ncommaaccent" unicode="&#x146;" horiz-adv-x="603" d="M586 35 Q577 27 563.5 18.5 Q550 10 534 2.5 Q518 -5 501 -9.5 Q484 -14 469 -14 Q424 -14 408.5 9.5 Q393 33 396 69 L421 354 Q426 408 416.5 427.5 Q407 447 382 447 Q367 447 356 441 Q345 435 335.5 421.5 Q326 408 317 385.5 Q308 363 296 330 L179 0 L97 0 L113 416 Q114 437 108 446.5 Q102 456 86 456 Q74 456 59 450.5 Q44 445 27 438 L10 488 Q18 493 31.5 498.5 Q45 504 60.5 509 Q76 514 93 517.5 Q110 521 125 521 Q168 521 184 495.5 Q200 470 195 419 L170 152 L177 150 L250 367 Q277 447 311.5 484 Q346 521 403 521 Q470 521 492 478.5 Q514 436 506 348 L484 90 Q482 67 486 57 Q490 47 507 47 Q518 47 533.5 53.5 Q549 60 563 71 L586 35 Z M254 -258 Q304 -225 329 -184.5 Q354 -144 354 -112 Q354 -86 337 -66 Q320 -46 291 -46 Q273 -46 260 -54 Q247 -62 240 -74.5 Q233 -87 231.5 -101.5 Q230 -116 235 -128 L263 -138 Q272 -141 275 -145.5 Q278 -150 278 -157 Q278 -176 262.5 -195 Q247 -214 230 -228 L254 -258 Z " />
<glyph glyph-name="Ncaron" unicode="&#x147;" horiz-adv-x="756" d="M286 936 L423 848 L559 935 L581 909 L466 783 Q451 767 440 760 Q429 753 418 753 Q409 753 404 754 Q399 755 394 757 L261 912 L286 936 Z M586 637 L501 654 L507 700 L744 700 L738 654 L653 637 L628 0 L536 -11 L232 619 L212 59 L306 46 L300 0 L57 0 L63 46 L144 59 L168 641 L89 652 L95 700 L292 700 L568 119 L586 637 Z " />
<glyph glyph-name="ncaron" unicode="&#x148;" horiz-adv-x="603" d="M176 777 L302 674 L429 775 L451 752 L343 611 Q330 594 319.5 587 Q309 580 298 580 Q289 580 283 581 Q277 582 270 584 L151 752 L176 777 Z M586 35 Q577 27 563.5 18.5 Q550 10 534 2.5 Q518 -5 501 -9.5 Q484 -14 469 -14 Q424 -14 408.5 9.5 Q393 33 396 69 L421 354 Q426 408 416.5 427.5 Q407 447 382 447 Q367 447 356 441 Q345 435 335.5 421.5 Q326 408 317 385.5 Q308 363 296 330 L179 0 L97 0 L113 416 Q114 437 108 446.5 Q102 456 86 456 Q74 456 59 450.5 Q44 445 27 438 L10 488 Q18 493 31.5 498.5 Q45 504 60.5 509 Q76 514 93 517.5 Q110 521 125 521 Q168 521 184 495.5 Q200 470 195 419 L170 152 L177 150 L250 367 Q277 447 311.5 484 Q346 521 403 521 Q470 521 492 478.5 Q514 436 506 348 L484 90 Q482 67 486 57 Q490 47 507 47 Q518 47 533.5 53.5 Q549 60 563 71 L586 35 Z " />
<glyph glyph-name="napostrophe" unicode="&#x149;" horiz-adv-x="707" d="M31 494 Q81 527 106 567.5 Q131 608 131 640 Q131 666 114 686 Q97 706 68 706 Q50 706 37 698 Q24 690 17 677.5 Q10 665 8.5 650.5 Q7 636 12 624 L40 614 Q49 611 52 606.5 Q55 602 55 595 Q55 576 39.5 557 Q24 538 7 524 L31 494 Z M690 35 Q681 27 667.5 18.5 Q654 10 638 2.5 Q622 -5 605 -9.5 Q588 -14 573 -14 Q528 -14 512.5 9.5 Q497 33 500 69 L525 354 Q530 408 520.5 427.5 Q511 447 486 447 Q471 447 460 441 Q449 435 439.5 421.5 Q430 408 421 385.5 Q412 363 400 330 L283 0 L201 0 L217 416 Q218 437 212 446.5 Q206 456 190 456 Q178 456 163 450.5 Q148 445 131 438 L114 488 Q122 493 135.5 498.5 Q149 504 164.5 509 Q180 514 197 517.5 Q214 521 229 521 Q272 521 288 495.5 Q304 470 299 419 L274 152 L281 150 L354 367 Q381 447 415.5 484 Q450 521 507 521 Q574 521 596 478.5 Q618 436 610 348 L588 90 Q586 67 590 57 Q594 47 611 47 Q622 47 637.5 53.5 Q653 60 667 71 L690 35 Z " />
<glyph glyph-name="Eng" unicode="&#x14a;" horiz-adv-x="756" d="M63 46 L144 59 L168 641 L89 652 L95 700 L292 700 L568 119 L586 637 L501 654 L507 700 L744 700 L738 654 L653 637 L632 95 Q629 27 618 -23.5 Q607 -74 587 -112 Q567 -150 536 -178 Q505 -206 461 -229 L435 -188 Q483 -152 503.5 -106.5 Q524 -61 530 2 L232 619 L212 59 L306 46 L300 0 L57 0 L63 46 Z " />
<glyph glyph-name="eng" unicode="&#x14b;" horiz-adv-x="597" d="M317 -229 Q285 -229 268.5 -215.5 Q252 -202 250 -179 Q248 -150 274 -114 L315 -131 Q341 -142 361 -131 Q381 -120 386 -82 L421 354 Q426 408 416.5 427.5 Q407 447 382 447 Q367 447 356 441 Q345 435 335.5 421.5 Q326 408 317 385.5 Q308 363 296 330 L179 0 L97 0 L113 416 Q114 437 108 446.5 Q102 456 86 456 Q74 456 59 450.5 Q44 445 27 438 L10 488 Q18 493 31.5 498.5 Q45 504 60.5 509 Q76 514 93 517.5 Q110 521 125 521 Q168 521 184 495.5 Q200 470 195 419 L170 152 L177 150 L250 367 Q277 447 311.5 484 Q346 521 403 521 Q470 521 492 478.5 Q514 436 506 348 L487 122 Q484 82 477 37.5 Q470 -7 458.5 -49 Q447 -91 432 -126.5 Q417 -162 398 -184 Q361 -229 317 -229 Z " />
<glyph glyph-name="Omacron" unicode="&#x14c;" horiz-adv-x="715" d="M537 868 L533 795 L250 795 L254 868 L537 868 Z M61 328 Q61 434 89 507.5 Q117 581 163 627 Q209 673 267.5 694 Q326 715 387 715 Q449 715 502 693.5 Q555 672 593.5 630 Q632 588 654 526 Q676 464 676 382 Q676 286 650.5 212 Q625 138 581.5 87.5 Q538 37 479.5 11.5 Q421 -14 355 -14 Q282 -14 227 12.5 Q172 39 135 85.5 Q98 132 79.5 194.5 Q61 257 61 328 Z M156 349 Q156 283 170 228 Q184 173 211 134 Q238 95 277.5 73 Q317 51 368 51 Q414 51 452.5 69.5 Q491 88 519 126.5 Q547 165 562.5 224 Q578 283 578 364 Q578 504 524 578.5 Q470 653 373 653 Q329 653 289.5 636.5 Q250 620 220.5 583.5 Q191 547 173.5 489 Q156 431 156 349 Z " />
<glyph glyph-name="omacron" unicode="&#x14d;" horiz-adv-x="539" d="M432 708 L428 635 L145 635 L149 708 L432 708 Z M48 235 Q48 291 60.5 343 Q73 395 101 434.5 Q129 474 174 497.5 Q219 521 283 521 Q333 521 371.5 503.5 Q410 486 436.5 453.5 Q463 421 477 375.5 Q491 330 491 274 Q491 217 478 165 Q465 113 436.5 73 Q408 33 363 9.5 Q318 -14 254 -14 Q205 -14 166.5 3.5 Q128 21 101.5 53.5 Q75 86 61.5 132 Q48 178 48 235 Z M260 45 Q300 45 326.5 64 Q353 83 368.5 114.5 Q384 146 390.5 188 Q397 230 397 275 Q397 316 390.5 350.5 Q384 385 370 410 Q356 435 332.5 449 Q309 463 275 463 Q235 463 209.5 444 Q184 425 169 392.5 Q154 360 148.5 318 Q143 276 143 231 Q143 148 171 96.5 Q199 45 260 45 Z " />
<glyph glyph-name="Obreve" unicode="&#x14e;" horiz-adv-x="715" d="M277 928 Q289 878 318 855 Q347 832 396 832 Q446 832 474 858 Q502 884 515 927 L553 917 Q549 887 537.5 857 Q526 827 506 804 Q486 781 456.5 766.5 Q427 752 388 752 Q350 752 322.5 765.5 Q295 779 276.5 801.5 Q258 824 248.5 854 Q239 884 237 916 L277 928 Z M61 328 Q61 434 89 507.5 Q117 581 163 627 Q209 673 267.5 694 Q326 715 387 715 Q449 715 502 693.5 Q555 672 593.5 630 Q632 588 654 526 Q676 464 676 382 Q676 286 650.5 212 Q625 138 581.5 87.5 Q538 37 479.5 11.5 Q421 -14 355 -14 Q282 -14 227 12.5 Q172 39 135 85.5 Q98 132 79.5 194.5 Q61 257 61 328 Z M156 349 Q156 283 170 228 Q184 173 211 134 Q238 95 277.5 73 Q317 51 368 51 Q414 51 452.5 69.5 Q491 88 519 126.5 Q547 165 562.5 224 Q578 283 578 364 Q578 504 524 578.5 Q470 653 373 653 Q329 653 289.5 636.5 Q250 620 220.5 583.5 Q191 547 173.5 489 Q156 431 156 349 Z " />
<glyph glyph-name="obreve" unicode="&#x14f;" horiz-adv-x="539" d="M180 768 Q194 718 216.5 692.5 Q239 667 284 667 Q329 667 358 695.5 Q387 724 401 767 L439 757 Q435 727 423.5 697 Q412 667 392 642.5 Q372 618 343.5 602.5 Q315 587 279 587 Q243 587 218.5 601.5 Q194 616 177.5 639.5 Q161 663 152 693.5 Q143 724 140 756 L180 768 Z M48 235 Q48 291 60.5 343 Q73 395 101 434.5 Q129 474 174 497.5 Q219 521 283 521 Q333 521 371.5 503.5 Q410 486 436.5 453.5 Q463 421 477 375.5 Q491 330 491 274 Q491 217 478 165 Q465 113 436.5 73 Q408 33 363 9.5 Q318 -14 254 -14 Q205 -14 166.5 3.5 Q128 21 101.5 53.5 Q75 86 61.5 132 Q48 178 48 235 Z M260 45 Q300 45 326.5 64 Q353 83 368.5 114.5 Q384 146 390.5 188 Q397 230 397 275 Q397 316 390.5 350.5 Q384 385 370 410 Q356 435 332.5 449 Q309 463 275 463 Q235 463 209.5 444 Q184 425 169 392.5 Q154 360 148.5 318 Q143 276 143 231 Q143 148 171 96.5 Q199 45 260 45 Z " />
<glyph glyph-name="Ohungarumlaut" unicode="&#x150;" horiz-adv-x="715" d="M371 901 Q393 923 412 923 Q430 923 441 910.5 Q452 898 452 879 Q452 871 450 862.5 Q448 854 444 843 L270 752 L251 779 L371 901 Z M552 899 Q564 910 573 915.5 Q582 921 593 921 Q611 921 622 908 Q633 895 633 876 Q633 861 625 839 L448 752 L429 779 L552 899 Z M61 328 Q61 434 89 507.5 Q117 581 163 627 Q209 673 267.5 694 Q326 715 387 715 Q449 715 502 693.5 Q555 672 593.5 630 Q632 588 654 526 Q676 464 676 382 Q676 286 650.5 212 Q625 138 581.5 87.5 Q538 37 479.5 11.5 Q421 -14 355 -14 Q282 -14 227 12.5 Q172 39 135 85.5 Q98 132 79.5 194.5 Q61 257 61 328 Z M156 349 Q156 283 170 228 Q184 173 211 134 Q238 95 277.5 73 Q317 51 368 51 Q414 51 452.5 69.5 Q491 88 519 126.5 Q547 165 562.5 224 Q578 283 578 364 Q578 504 524 578.5 Q470 653 373 653 Q329 653 289.5 636.5 Q250 620 220.5 583.5 Q191 547 173.5 489 Q156 431 156 349 Z " />
<glyph glyph-name="ohungarumlaut" unicode="&#x151;" horiz-adv-x="539" d="M263 742 Q274 759 283 765 Q292 771 305 771 Q327 771 336.5 753.5 Q346 736 341 701 L199 582 L177 605 L263 742 Z M416 739 Q427 756 436 762 Q445 768 458 768 Q478 768 488.5 750.5 Q499 733 494 698 L346 582 L324 605 L416 739 Z M48 235 Q48 291 60.5 343 Q73 395 101 434.5 Q129 474 174 497.5 Q219 521 283 521 Q333 521 371.5 503.5 Q410 486 436.5 453.5 Q463 421 477 375.5 Q491 330 491 274 Q491 217 478 165 Q465 113 436.5 73 Q408 33 363 9.5 Q318 -14 254 -14 Q205 -14 166.5 3.5 Q128 21 101.5 53.5 Q75 86 61.5 132 Q48 178 48 235 Z M260 45 Q300 45 326.5 64 Q353 83 368.5 114.5 Q384 146 390.5 188 Q397 230 397 275 Q397 316 390.5 350.5 Q384 385 370 410 Q356 435 332.5 449 Q309 463 275 463 Q235 463 209.5 444 Q184 425 169 392.5 Q154 360 148.5 318 Q143 276 143 231 Q143 148 171 96.5 Q199 45 260 45 Z " />
<glyph glyph-name="OE" unicode="&#x152;" horiz-adv-x="997" d="M61 328 Q61 434 89 507.5 Q117 581 163 627 Q209 673 267.5 694 Q326 715 387 715 Q439 715 484 700 L939 700 L953 532 L898 523 L887 559 Q880 583 873 599 Q866 615 855.5 624.5 Q845 634 830 638.5 Q815 643 791 643 L580 643 Q624 601 649 538.5 Q674 476 676 391 L891 391 L886 328 L673 328 Q665 236 633.5 168.5 Q602 101 552 58 L785 58 Q808 58 824 62 Q840 66 851.5 76 Q863 86 871.5 102.5 Q880 119 888 143 L902 184 L957 184 L933 0 L449 0 Q402 -14 355 -14 Q282 -14 227 12.5 Q172 39 135 85.5 Q98 132 79.5 194.5 Q61 257 61 328 Z M156 349 Q156 283 170 228 Q184 173 211 134 Q238 95 277.5 73 Q317 51 368 51 Q414 51 452.5 69.5 Q491 88 519 126.5 Q547 165 562.5 224 Q578 283 578 364 Q578 504 524 578.5 Q470 653 373 653 Q329 653 289.5 636.5 Q250 620 220.5 583.5 Q191 547 173.5 489 Q156 431 156 349 Z " />
<glyph glyph-name="oe" unicode="&#x153;" horiz-adv-x="823" d="M630 521 Q705 521 740 486.5 Q775 452 775 394 Q775 353 758.5 324.5 Q742 296 715.5 276.5 Q689 257 656.5 245.5 Q624 234 592 226 L481 199 Q483 174 491.5 148 Q500 122 515.5 100.5 Q531 79 554 65.5 Q577 52 608 52 Q631 52 650 58.5 Q669 65 685 75 Q701 85 714.5 96 Q728 107 738 117 L772 80 Q763 69 747.5 53 Q732 37 708.5 22 Q685 7 655 -3.5 Q625 -14 588 -14 Q531 -14 491.5 17 Q452 48 434 96 Q406 47 362.5 16.5 Q319 -14 254 -14 Q205 -14 166.5 3.5 Q128 21 101.5 53.5 Q75 86 61.5 132 Q48 178 48 235 Q48 291 60.5 343 Q73 395 101 434.5 Q129 474 174 497.5 Q219 521 283 521 Q344 521 385.5 489.5 Q427 458 447 407 Q473 458 521.5 489.5 Q570 521 630 521 Z M686 391 Q686 420 672 442.5 Q658 465 623 465 Q560 465 523 410 Q486 355 481 256 L582 282 Q635 296 660.5 319 Q686 342 686 391 Z M260 45 Q300 45 326.5 64 Q353 83 368.5 114.5 Q384 146 390.5 188 Q397 230 397 275 Q397 316 390.5 350.5 Q384 385 370 410 Q356 435 332.5 449 Q309 463 275 463 Q235 463 209.5 444 Q184 425 169 392.5 Q154 360 148.5 318 Q143 276 143 231 Q143 148 171 96.5 Q199 45 260 45 Z " />
<glyph glyph-name="Racute" unicode="&#x154;" horiz-adv-x="681" d="M363 899 Q375 910 384 915.5 Q393 921 404 921 Q422 921 433 908 Q444 895 444 876 Q444 861 436 839 L252 752 L233 779 L363 899 Z M290 370 Q374 372 419.5 414 Q465 456 465 523 Q465 560 454 584 Q443 608 422.5 621.5 Q402 635 372.5 640.5 Q343 646 306 646 L255 646 L233 58 L341 44 L336 0 L50 0 L55 44 L144 60 L169 637 L82 654 L88 700 L315 700 Q371 700 417 692 Q463 684 495 664.5 Q527 645 544.5 612.5 Q562 580 562 532 Q562 486 542 451.5 Q522 417 491 394 Q460 371 424 358 Q388 345 355 341 L355 338 Q391 323 411.5 301 Q432 279 449 243 L507 123 Q528 80 546.5 62.5 Q565 45 597 45 Q613 45 627.5 50.5 Q642 56 656 63 L676 28 Q656 8 627.5 -3 Q599 -14 570 -14 Q513 -14 479 12 Q445 38 415 98 L373 197 Q360 227 349.5 247.5 Q339 268 329 282 Q319 296 308.5 305 Q298 314 286 321 L290 370 Z " />
<glyph glyph-name="racute" unicode="&#x155;" horiz-adv-x="466" d="M304 746 Q316 761 325.5 768 Q335 775 349 775 Q371 775 380.5 757.5 Q390 740 385 705 L218 582 L196 605 L304 746 Z M114 416 Q115 437 109 446.5 Q103 456 87 456 Q75 456 60 450.5 Q45 445 28 438 L11 488 Q19 493 32.5 498.5 Q46 504 61.5 509 Q77 514 94 517.5 Q111 521 126 521 Q169 521 185 495.5 Q201 470 196 419 L182 277 L188 276 L242 403 Q267 462 291 491.5 Q315 521 359 521 Q397 521 416.5 500.5 Q436 480 436 453 Q436 432 424 413 Q412 394 389 384 L366 411 Q358 422 350.5 427.5 Q343 433 332 433 Q324 433 317.5 429.5 Q311 426 304.5 416 Q298 406 290 389.5 Q282 373 270 346 Q242 284 225 244.5 Q208 205 198 177 Q188 149 183.5 128 Q179 107 177 82 L168 0 L94 0 L114 416 Z " />
<glyph glyph-name="Rcommaaccent" unicode="&#x156;" horiz-adv-x="681" d="M290 370 Q374 372 419.5 414 Q465 456 465 523 Q465 560 454 584 Q443 608 422.5 621.5 Q402 635 372.5 640.5 Q343 646 306 646 L255 646 L233 58 L341 44 L336 0 L50 0 L55 44 L144 60 L169 637 L82 654 L88 700 L315 700 Q371 700 417 692 Q463 684 495 664.5 Q527 645 544.5 612.5 Q562 580 562 532 Q562 486 542 451.5 Q522 417 491 394 Q460 371 424 358 Q388 345 355 341 L355 338 Q391 323 411.5 301 Q432 279 449 243 L507 123 Q528 80 546.5 62.5 Q565 45 597 45 Q613 45 627.5 50.5 Q642 56 656 63 L676 28 Q656 8 627.5 -3 Q599 -14 570 -14 Q513 -14 479 12 Q445 38 415 98 L373 197 Q360 227 349.5 247.5 Q339 268 329 282 Q319 296 308.5 305 Q298 314 286 321 L290 370 Z M308 -249 Q358 -216 383 -175.5 Q408 -135 408 -103 Q408 -77 391 -57 Q374 -37 345 -37 Q327 -37 314 -45 Q301 -53 294 -65.5 Q287 -78 285.5 -92.5 Q284 -107 289 -119 L317 -129 Q326 -132 329 -136.5 Q332 -141 332 -148 Q332 -167 316.5 -186 Q301 -205 284 -219 L308 -249 Z " />
<glyph glyph-name="rcommaaccent" unicode="&#x157;" horiz-adv-x="466" d="M114 416 Q115 437 109 446.5 Q103 456 87 456 Q75 456 60 450.5 Q45 445 28 438 L11 488 Q19 493 32.5 498.5 Q46 504 61.5 509 Q77 514 94 517.5 Q111 521 126 521 Q169 521 185 495.5 Q201 470 196 419 L182 277 L188 276 L242 403 Q267 462 291 491.5 Q315 521 359 521 Q397 521 416.5 500.5 Q436 480 436 453 Q436 432 424 413 Q412 394 389 384 L366 411 Q358 422 350.5 427.5 Q343 433 332 433 Q324 433 317.5 429.5 Q311 426 304.5 416 Q298 406 290 389.5 Q282 373 270 346 Q242 284 225 244.5 Q208 205 198 177 Q188 149 183.5 128 Q179 107 177 82 L168 0 L94 0 L114 416 Z M103 -258 Q153 -225 178 -184.5 Q203 -144 203 -112 Q203 -86 186 -66 Q169 -46 140 -46 Q122 -46 109 -54 Q96 -62 89 -74.5 Q82 -87 80.5 -101.5 Q79 -116 84 -128 L112 -138 Q121 -141 124 -145.5 Q127 -150 127 -157 Q127 -176 111.5 -195 Q96 -214 79 -228 L103 -258 Z " />
<glyph glyph-name="Rcaron" unicode="&#x158;" horiz-adv-x="681" d="M204 936 L341 848 L477 935 L499 909 L384 783 Q369 767 358 760 Q347 753 336 753 Q327 753 322 754 Q317 755 312 757 L179 912 L204 936 Z M290 370 Q374 372 419.5 414 Q465 456 465 523 Q465 560 454 584 Q443 608 422.5 621.5 Q402 635 372.5 640.5 Q343 646 306 646 L255 646 L233 58 L341 44 L336 0 L50 0 L55 44 L144 60 L169 637 L82 654 L88 700 L315 700 Q371 700 417 692 Q463 684 495 664.5 Q527 645 544.5 612.5 Q562 580 562 532 Q562 486 542 451.5 Q522 417 491 394 Q460 371 424 358 Q388 345 355 341 L355 338 Q391 323 411.5 301 Q432 279 449 243 L507 123 Q528 80 546.5 62.5 Q565 45 597 45 Q613 45 627.5 50.5 Q642 56 656 63 L676 28 Q656 8 627.5 -3 Q599 -14 570 -14 Q513 -14 479 12 Q445 38 415 98 L373 197 Q360 227 349.5 247.5 Q339 268 329 282 Q319 296 308.5 305 Q298 314 286 321 L290 370 Z " />
<glyph glyph-name="rcaron" unicode="&#x159;" horiz-adv-x="466" d="M133 777 L259 674 L386 775 L408 752 L300 611 Q287 594 276.5 587 Q266 580 255 580 Q246 580 240 581 Q234 582 227 584 L108 752 L133 777 Z M114 416 Q115 437 109 446.5 Q103 456 87 456 Q75 456 60 450.5 Q45 445 28 438 L11 488 Q19 493 32.5 498.5 Q46 504 61.5 509 Q77 514 94 517.5 Q111 521 126 521 Q169 521 185 495.5 Q201 470 196 419 L182 277 L188 276 L242 403 Q267 462 291 491.5 Q315 521 359 521 Q397 521 416.5 500.5 Q436 480 436 453 Q436 432 424 413 Q412 394 389 384 L366 411 Q358 422 350.5 427.5 Q343 433 332 433 Q324 433 317.5 429.5 Q311 426 304.5 416 Q298 406 290 389.5 Q282 373 270 346 Q242 284 225 244.5 Q208 205 198 177 Q188 149 183.5 128 Q179 107 177 82 L168 0 L94 0 L114 416 Z " />
<glyph glyph-name="Sacute" unicode="&#x15a;" horiz-adv-x="496" d="M328 899 Q340 910 349 915.5 Q358 921 369 921 Q387 921 398 908 Q409 895 409 876 Q409 861 401 839 L217 752 L198 779 L328 899 Z M472 197 Q472 152 455 113.5 Q438 75 406.5 46.5 Q375 18 330.5 2 Q286 -14 232 -14 Q189 -14 153.5 -4 Q118 6 93 23.5 Q68 41 54 64.5 Q40 88 40 115 Q40 148 58.5 167.5 Q77 187 103 187 Q128 187 145 178 Q162 169 170 161 L154 128 Q147 114 147 100 Q147 86 156.5 74.5 Q166 63 186 56 Q206 49 239 49 Q268 49 295.5 56.5 Q323 64 344 80 Q365 96 378 120.5 Q391 145 391 179 Q391 217 367 242.5 Q343 268 307.5 288.5 Q272 309 230.5 328 Q189 347 153.5 372 Q118 397 94 432 Q70 467 70 519 Q70 549 81 583 Q92 617 118.5 646.5 Q145 676 188.5 695.5 Q232 715 296 715 Q334 715 366.5 705 Q399 695 424 677.5 Q449 660 463 635.5 Q477 611 477 582 Q477 553 460 535.5 Q443 518 417 518 Q395 518 377.5 526 Q360 534 352 542 L371 579 Q385 607 366 630 Q347 653 291 653 Q219 653 185.5 623.5 Q152 594 152 545 Q152 504 175.5 477 Q199 450 235 429 Q271 408 312 389 Q353 370 389 345 Q425 320 448.5 285 Q472 250 472 197 Z " />
<glyph glyph-name="sacute" unicode="&#x15b;" horiz-adv-x="438" d="M276 746 Q288 761 297.5 768 Q307 775 321 775 Q343 775 352.5 757.5 Q362 740 357 705 L190 582 L168 605 L276 746 Z M208 44 Q252 44 280.5 64.5 Q309 85 309 123 Q309 151 291.5 169 Q274 187 247 201.5 Q220 216 189.5 230 Q159 244 132 262.5 Q105 281 87.5 307.5 Q70 334 70 374 Q70 396 79 421.5 Q88 447 109 469 Q130 491 164.5 506 Q199 521 250 521 Q280 521 306.5 513.5 Q333 506 352.5 493.5 Q372 481 383.5 463.5 Q395 446 395 425 Q395 402 381.5 389 Q368 376 347 376 Q330 376 316.5 381.5 Q303 387 296 393 L302 422 Q307 442 294.5 455 Q282 468 246 468 Q190 468 168 445 Q146 422 146 394 Q146 371 163.5 354 Q181 337 207.5 322 Q234 307 264.5 292 Q295 277 321.5 257 Q348 237 365.5 210.5 Q383 184 383 146 Q383 112 370.5 82.5 Q358 53 334 31.5 Q310 10 275.5 -2 Q241 -14 196 -14 Q125 -14 80.5 11.5 Q36 37 36 79 Q36 107 53 120 Q70 133 92 133 Q104 133 116 130 Q128 127 136 122 L136 96 Q136 68 151.5 56 Q167 44 208 44 Z " />
<glyph glyph-name="Scircumflex" unicode="&#x15c;" horiz-adv-x="496" d="M431 750 L294 838 L158 751 L136 777 L251 903 Q266 919 277 926 Q288 933 299 933 Q308 933 313 932 Q318 931 323 929 L456 774 L431 750 Z M472 197 Q472 152 455 113.5 Q438 75 406.5 46.5 Q375 18 330.5 2 Q286 -14 232 -14 Q189 -14 153.5 -4 Q118 6 93 23.5 Q68 41 54 64.5 Q40 88 40 115 Q40 148 58.5 167.5 Q77 187 103 187 Q128 187 145 178 Q162 169 170 161 L154 128 Q147 114 147 100 Q147 86 156.5 74.5 Q166 63 186 56 Q206 49 239 49 Q268 49 295.5 56.5 Q323 64 344 80 Q365 96 378 120.5 Q391 145 391 179 Q391 217 367 242.5 Q343 268 307.5 288.5 Q272 309 230.5 328 Q189 347 153.5 372 Q118 397 94 432 Q70 467 70 519 Q70 549 81 583 Q92 617 118.5 646.5 Q145 676 188.5 695.5 Q232 715 296 715 Q334 715 366.5 705 Q399 695 424 677.5 Q449 660 463 635.5 Q477 611 477 582 Q477 553 460 535.5 Q443 518 417 518 Q395 518 377.5 526 Q360 534 352 542 L371 579 Q385 607 366 630 Q347 653 291 653 Q219 653 185.5 623.5 Q152 594 152 545 Q152 504 175.5 477 Q199 450 235 429 Q271 408 312 389 Q353 370 389 345 Q425 320 448.5 285 Q472 250 472 197 Z " />
<glyph glyph-name="scircumflex" unicode="&#x15d;" horiz-adv-x="438" d="M374 580 L248 682 L121 582 L99 605 L207 746 Q220 763 230.5 770 Q241 777 252 777 Q261 777 267 776 Q273 775 280 773 L399 605 L374 580 Z M208 44 Q252 44 280.5 64.5 Q309 85 309 123 Q309 151 291.5 169 Q274 187 247 201.5 Q220 216 189.5 230 Q159 244 132 262.5 Q105 281 87.5 307.5 Q70 334 70 374 Q70 396 79 421.5 Q88 447 109 469 Q130 491 164.5 506 Q199 521 250 521 Q280 521 306.5 513.5 Q333 506 352.5 493.5 Q372 481 383.5 463.5 Q395 446 395 425 Q395 402 381.5 389 Q368 376 347 376 Q330 376 316.5 381.5 Q303 387 296 393 L302 422 Q307 442 294.5 455 Q282 468 246 468 Q190 468 168 445 Q146 422 146 394 Q146 371 163.5 354 Q181 337 207.5 322 Q234 307 264.5 292 Q295 277 321.5 257 Q348 237 365.5 210.5 Q383 184 383 146 Q383 112 370.5 82.5 Q358 53 334 31.5 Q310 10 275.5 -2 Q241 -14 196 -14 Q125 -14 80.5 11.5 Q36 37 36 79 Q36 107 53 120 Q70 133 92 133 Q104 133 116 130 Q128 127 136 122 L136 96 Q136 68 151.5 56 Q167 44 208 44 Z " />
<glyph glyph-name="Scedilla" unicode="&#x15e;" horiz-adv-x="496" d="M152 545 Q152 504 175.5 477 Q199 450 235 429 Q271 408 312 389 Q353 370 389 345 Q425 320 448.5 285 Q472 250 472 197 Q472 156 457.5 120 Q443 84 416.5 56.5 Q390 29 352.5 11 Q315 -7 268 -12 L254 -54 Q296 -56 324.5 -73 Q353 -90 353 -132 Q353 -177 319.5 -204 Q286 -231 235 -231 Q214 -231 191.5 -226.5 Q169 -222 153 -214 L168 -168 Q176 -171 193 -175 Q210 -179 225 -179 Q248 -179 262.5 -169 Q277 -159 277 -137 Q277 -123 270.5 -115 Q264 -107 254 -103 Q244 -99 232 -98.5 Q220 -98 209 -99 L201 -78 L221 -14 Q180 -13 146.5 -2 Q113 9 89.5 26 Q66 43 53 66 Q40 89 40 115 Q40 148 58.5 167.5 Q77 187 103 187 Q128 187 145 178 Q162 169 170 161 L154 128 Q147 114 147 100 Q147 86 156.5 74.5 Q166 63 186 56 Q206 49 239 49 Q268 49 295.5 56.5 Q323 64 344 80 Q365 96 378 120.5 Q391 145 391 179 Q391 217 367 242.5 Q343 268 307.5 288.5 Q272 309 230.5 328 Q189 347 153.5 372 Q118 397 94 432 Q70 467 70 519 Q70 549 81 583 Q92 617 118.5 646.5 Q145 676 188.5 695.5 Q232 715 296 715 Q334 715 366.5 705 Q399 695 424 677.5 Q449 660 463 635.5 Q477 611 477 582 Q477 553 460 535.5 Q443 518 417 518 Q395 518 377.5 526 Q360 534 352 542 L371 579 Q385 607 366 630 Q347 653 291 653 Q219 653 185.5 623.5 Q152 594 152 545 Z " />
<glyph glyph-name="scedilla" unicode="&#x15f;" horiz-adv-x="438" d="M146 394 Q146 371 163.5 354 Q181 337 207.5 322 Q234 307 264.5 292 Q295 277 321.5 257 Q348 237 365.5 210.5 Q383 184 383 146 Q383 81 340.5 37 Q298 -7 220 -13 L207 -52 Q249 -54 277.5 -71 Q306 -88 306 -130 Q306 -175 272.5 -202 Q239 -229 188 -229 Q167 -229 144.5 -224.5 Q122 -220 106 -212 L121 -166 Q129 -169 146 -173 Q163 -177 178 -177 Q201 -177 215.5 -167 Q230 -157 230 -135 Q230 -121 223.5 -113 Q217 -105 207 -101 Q197 -97 185 -96.5 Q173 -96 162 -97 L154 -76 L174 -13 Q112 -9 74 16 Q36 41 36 79 Q36 107 53 120 Q70 133 92 133 Q104 133 116 130 Q128 127 136 122 L136 96 Q136 68 151.5 56 Q167 44 208 44 Q252 44 280.5 64.5 Q309 85 309 123 Q309 151 291.5 169 Q274 187 247 201.5 Q220 216 189.5 230 Q159 244 132 262.5 Q105 281 87.5 307.5 Q70 334 70 374 Q70 396 79 421.5 Q88 447 109 469 Q130 491 164.5 506 Q199 521 250 521 Q280 521 306.5 513.5 Q333 506 352.5 493.5 Q372 481 383.5 463.5 Q395 446 395 425 Q395 402 381.5 389 Q368 376 347 376 Q330 376 316.5 381.5 Q303 387 296 393 L302 422 Q307 442 294.5 455 Q282 468 246 468 Q190 468 168 445 Q146 422 146 394 Z " />
<glyph glyph-name="Scaron" unicode="&#x160;" horiz-adv-x="496" d="M169 936 L306 848 L442 935 L464 909 L349 783 Q334 767 323 760 Q312 753 301 753 Q292 753 287 754 Q282 755 277 757 L144 912 L169 936 Z M472 197 Q472 152 455 113.5 Q438 75 406.5 46.5 Q375 18 330.5 2 Q286 -14 232 -14 Q189 -14 153.5 -4 Q118 6 93 23.5 Q68 41 54 64.5 Q40 88 40 115 Q40 148 58.5 167.5 Q77 187 103 187 Q128 187 145 178 Q162 169 170 161 L154 128 Q147 114 147 100 Q147 86 156.5 74.5 Q166 63 186 56 Q206 49 239 49 Q268 49 295.5 56.5 Q323 64 344 80 Q365 96 378 120.5 Q391 145 391 179 Q391 217 367 242.5 Q343 268 307.5 288.5 Q272 309 230.5 328 Q189 347 153.5 372 Q118 397 94 432 Q70 467 70 519 Q70 549 81 583 Q92 617 118.5 646.5 Q145 676 188.5 695.5 Q232 715 296 715 Q334 715 366.5 705 Q399 695 424 677.5 Q449 660 463 635.5 Q477 611 477 582 Q477 553 460 535.5 Q443 518 417 518 Q395 518 377.5 526 Q360 534 352 542 L371 579 Q385 607 366 630 Q347 653 291 653 Q219 653 185.5 623.5 Q152 594 152 545 Q152 504 175.5 477 Q199 450 235 429 Q271 408 312 389 Q353 370 389 345 Q425 320 448.5 285 Q472 250 472 197 Z " />
<glyph glyph-name="scaron" unicode="&#x161;" horiz-adv-x="438" d="M124 777 L250 674 L377 775 L399 752 L291 611 Q278 594 267.5 587 Q257 580 246 580 Q237 580 231 581 Q225 582 218 584 L99 752 L124 777 Z M208 44 Q252 44 280.5 64.5 Q309 85 309 123 Q309 151 291.5 169 Q274 187 247 201.5 Q220 216 189.5 230 Q159 244 132 262.5 Q105 281 87.5 307.5 Q70 334 70 374 Q70 396 79 421.5 Q88 447 109 469 Q130 491 164.5 506 Q199 521 250 521 Q280 521 306.5 513.5 Q333 506 352.5 493.5 Q372 481 383.5 463.5 Q395 446 395 425 Q395 402 381.5 389 Q368 376 347 376 Q330 376 316.5 381.5 Q303 387 296 393 L302 422 Q307 442 294.5 455 Q282 468 246 468 Q190 468 168 445 Q146 422 146 394 Q146 371 163.5 354 Q181 337 207.5 322 Q234 307 264.5 292 Q295 277 321.5 257 Q348 237 365.5 210.5 Q383 184 383 146 Q383 112 370.5 82.5 Q358 53 334 31.5 Q310 10 275.5 -2 Q241 -14 196 -14 Q125 -14 80.5 11.5 Q36 37 36 79 Q36 107 53 120 Q70 133 92 133 Q104 133 116 130 Q128 127 136 122 L136 96 Q136 68 151.5 56 Q167 44 208 44 Z " />
<glyph glyph-name="uni0162" unicode="&#x162;" horiz-adv-x="621" d="M631 533 L577 523 L564 562 Q558 581 551.5 596 Q545 611 535.5 621.5 Q526 632 510.5 637.5 Q495 643 469 643 L380 643 L354 58 L463 46 L457 0 L339 0 L322 -52 Q364 -54 392.5 -71 Q421 -88 421 -130 Q421 -175 387.5 -202 Q354 -229 303 -229 Q282 -229 259.5 -224.5 Q237 -220 221 -212 L236 -166 Q244 -169 261 -173 Q278 -177 293 -177 Q316 -177 330.5 -167 Q345 -157 345 -135 Q345 -121 338.5 -113 Q332 -105 322 -101 Q312 -97 300 -96.5 Q288 -96 277 -97 L269 -76 L293 0 L159 0 L165 46 L270 59 L295 643 L207 643 Q182 643 166 638.5 Q150 634 139.5 624.5 Q129 615 122.5 599.5 Q116 584 109 562 L96 523 L40 534 L64 700 L617 700 L631 533 Z " />
<glyph glyph-name="uni0163" unicode="&#x163;" horiz-adv-x="409" d="M389 70 Q364 36 327 12 Q290 -12 243 -14 L231 -52 Q273 -54 301.5 -71 Q330 -88 330 -130 Q330 -175 296.5 -202 Q263 -229 212 -229 Q191 -229 168.5 -224.5 Q146 -220 130 -212 L145 -166 Q153 -169 170 -173 Q187 -177 202 -177 Q225 -177 239.5 -167 Q254 -157 254 -135 Q254 -121 247.5 -113 Q241 -105 231 -101 Q221 -97 209 -96.5 Q197 -96 186 -97 L178 -76 L198 -11 Q145 -1 124 36.5 Q103 74 105 133 L119 448 L39 448 L47 501 L123 509 L164 674 L219 674 L209 507 L365 507 L361 448 L206 448 L191 137 Q189 95 204.5 73.5 Q220 52 256 52 Q285 52 309.5 67 Q334 82 357 105 L389 70 Z " />
<glyph glyph-name="Tcaron" unicode="&#x164;" horiz-adv-x="621" d="M225 936 L362 848 L498 935 L520 909 L405 783 Q390 767 379 760 Q368 753 357 753 Q348 753 343 754 Q338 755 333 757 L200 912 L225 936 Z M270 59 L295 643 L207 643 Q182 643 166 638.5 Q150 634 139.5 624.5 Q129 615 122.5 599.5 Q116 584 109 562 L96 523 L40 534 L64 700 L617 700 L631 533 L577 523 L564 562 Q558 581 551.5 596 Q545 611 535.5 621.5 Q526 632 510.5 637.5 Q495 643 469 643 L380 643 L354 58 L463 46 L457 0 L159 0 L165 46 L270 59 Z " />
<glyph glyph-name="tcaron" unicode="&#x165;" horiz-adv-x="418" d="M331 576 Q383 627 405 662.5 Q427 698 427 734 Q427 767 410 784.5 Q393 802 365 802 Q335 802 323 780.5 Q311 759 316 735 L339 717 Q352 707 352 691 Q352 662 304 603 L331 576 Z M123 509 L164 674 L219 674 L209 507 L365 507 L361 448 L206 448 L191 137 Q189 95 204.5 73.5 Q220 52 256 52 Q285 52 309.5 67 Q334 82 357 105 L389 70 Q363 35 323.5 10.5 Q284 -14 235 -14 Q161 -14 131.5 25.5 Q102 65 105 133 L119 448 L39 448 L47 501 L123 509 Z " />
<glyph glyph-name="Tbar" unicode="&#x166;" horiz-adv-x="738" d="M631 533 L577 523 L564 562 Q558 581 551.5 596 Q545 611 535.5 621.5 Q526 632 510.5 637.5 Q495 643 469 643 L380 643 L368 378 L525 378 L525 315 L365 315 L354 58 L463 46 L457 0 L159 0 L165 46 L270 59 L281 315 L115 315 L123 378 L284 378 L295 643 L207 643 Q182 643 166 638.5 Q150 634 139.5 624.5 Q129 615 122.5 599.5 Q116 584 109 562 L96 523 L40 534 L64 700 L617 700 L631 533 Z " />
<glyph glyph-name="tbar" unicode="&#x167;" horiz-adv-x="404" d="M389 70 Q363 35 323.5 10.5 Q284 -14 235 -14 Q161 -14 131.5 25.5 Q102 65 105 133 L111 262 L32 262 L40 321 L113 321 L119 448 L39 448 L47 501 L123 509 L164 674 L219 674 L209 507 L365 507 L361 448 L206 448 L200 321 L365 321 L365 262 L197 262 L191 137 Q189 95 204.5 73.5 Q220 52 256 52 Q285 52 309.5 67 Q334 82 357 105 L389 70 Z " />
<glyph glyph-name="Utilde" unicode="&#x168;" horiz-adv-x="758" d="M482 776 Q462 776 442.5 781 Q423 786 393 800 Q369 811 349.5 820 Q330 829 322 829 Q310 829 301.5 822.5 Q293 816 276 792 L245 811 Q259 839 270.5 857 Q282 875 293.5 885 Q305 895 316.5 898.5 Q328 902 342 902 Q359 902 378 894.5 Q397 887 427 874 Q448 865 467.5 857.5 Q487 850 500 850 Q513 850 522 859 Q531 868 545 887 L576 868 Q550 817 530.5 796.5 Q511 776 482 776 Z M703 47 L696 0 L544 0 L537 12 L572 365 L568 365 Q548 278 525 208 Q502 138 471 88.5 Q440 39 398.5 12.5 Q357 -14 300 -14 Q246 -14 211.5 4.5 Q177 23 157 55 Q137 87 130 130 Q123 173 126 222 L148 639 L72 654 L78 700 L326 700 L320 654 L235 637 L214 230 Q210 134 234 96 Q258 58 313 58 Q355 58 389.5 82 Q424 106 452 162 Q472 201 489 252 Q506 303 520.5 358 Q535 413 546 468 Q557 523 563 570 L572 637 L489 654 L495 700 L727 700 L721 654 L648 637 L617 60 L703 47 Z " />
<glyph glyph-name="utilde" unicode="&#x169;" horiz-adv-x="600" d="M377 620 Q357 620 337.5 625 Q318 630 288 644 Q264 655 244.5 664 Q225 673 217 673 Q205 673 196.5 666.5 Q188 660 171 636 L140 655 Q154 683 165.5 701 Q177 719 188.5 729 Q200 739 211.5 742.5 Q223 746 237 746 Q254 746 273 738.5 Q292 731 322 718 Q343 709 362.5 701.5 Q382 694 395 694 Q408 694 417 703 Q426 712 440 731 L471 712 Q445 661 425.5 640.5 Q406 620 377 620 Z M19 472 Q28 480 41.5 488.5 Q55 497 71 504.5 Q87 512 104 516.5 Q121 521 136 521 Q181 521 196.5 497.5 Q212 474 209 438 L184 156 Q179 102 186.5 81 Q194 60 219 60 Q234 60 245 66 Q256 72 265.5 86.5 Q275 101 284 124 Q293 147 305 180 L418 508 L500 508 L484 91 Q483 70 489 60.5 Q495 51 511 51 Q523 51 538 56.5 Q553 62 570 69 L587 19 Q579 15 565.5 9 Q552 3 536.5 -2 Q521 -7 504 -10.5 Q487 -14 472 -14 Q429 -14 413 11.5 Q397 37 402 88 L427 358 L419 359 L351 140 Q325 59 290 22.5 Q255 -14 198 -14 Q131 -14 111.5 30.5 Q92 75 99 162 L121 417 Q123 440 119 450 Q115 460 98 460 Q87 460 71.5 453.5 Q56 447 42 436 L19 472 Z " />
<glyph glyph-name="Umacron" unicode="&#x16a;" horiz-adv-x="758" d="M554 868 L550 795 L267 795 L271 868 L554 868 Z M703 47 L696 0 L544 0 L537 12 L572 365 L568 365 Q548 278 525 208 Q502 138 471 88.5 Q440 39 398.5 12.5 Q357 -14 300 -14 Q246 -14 211.5 4.5 Q177 23 157 55 Q137 87 130 130 Q123 173 126 222 L148 639 L72 654 L78 700 L326 700 L320 654 L235 637 L214 230 Q210 134 234 96 Q258 58 313 58 Q355 58 389.5 82 Q424 106 452 162 Q472 201 489 252 Q506 303 520.5 358 Q535 413 546 468 Q557 523 563 570 L572 637 L489 654 L495 700 L727 700 L721 654 L648 637 L617 60 L703 47 Z " />
<glyph glyph-name="umacron" unicode="&#x16b;" horiz-adv-x="600" d="M447 708 L443 635 L160 635 L164 708 L447 708 Z M19 472 Q28 480 41.5 488.5 Q55 497 71 504.5 Q87 512 104 516.5 Q121 521 136 521 Q181 521 196.5 497.5 Q212 474 209 438 L184 156 Q179 102 186.5 81 Q194 60 219 60 Q234 60 245 66 Q256 72 265.5 86.5 Q275 101 284 124 Q293 147 305 180 L418 508 L500 508 L484 91 Q483 70 489 60.5 Q495 51 511 51 Q523 51 538 56.5 Q553 62 570 69 L587 19 Q579 15 565.5 9 Q552 3 536.5 -2 Q521 -7 504 -10.5 Q487 -14 472 -14 Q429 -14 413 11.5 Q397 37 402 88 L427 358 L419 359 L351 140 Q325 59 290 22.5 Q255 -14 198 -14 Q131 -14 111.5 30.5 Q92 75 99 162 L121 417 Q123 440 119 450 Q115 460 98 460 Q87 460 71.5 453.5 Q56 447 42 436 L19 472 Z " />
<glyph glyph-name="Ubreve" unicode="&#x16c;" horiz-adv-x="758" d="M294 928 Q306 878 335 855 Q364 832 413 832 Q463 832 491 858 Q519 884 532 927 L570 917 Q566 887 554.5 857 Q543 827 523 804 Q503 781 473.5 766.5 Q444 752 405 752 Q367 752 339.5 765.5 Q312 779 293.5 801.5 Q275 824 265.5 854 Q256 884 254 916 L294 928 Z M703 47 L696 0 L544 0 L537 12 L572 365 L568 365 Q548 278 525 208 Q502 138 471 88.5 Q440 39 398.5 12.5 Q357 -14 300 -14 Q246 -14 211.5 4.5 Q177 23 157 55 Q137 87 130 130 Q123 173 126 222 L148 639 L72 654 L78 700 L326 700 L320 654 L235 637 L214 230 Q210 134 234 96 Q258 58 313 58 Q355 58 389.5 82 Q424 106 452 162 Q472 201 489 252 Q506 303 520.5 358 Q535 413 546 468 Q557 523 563 570 L572 637 L489 654 L495 700 L727 700 L721 654 L648 637 L617 60 L703 47 Z " />
<glyph glyph-name="ubreve" unicode="&#x16d;" horiz-adv-x="600" d="M189 768 Q203 718 225.5 692.5 Q248 667 293 667 Q338 667 367 695.5 Q396 724 410 767 L448 757 Q444 727 432.5 697 Q421 667 401 642.5 Q381 618 352.5 602.5 Q324 587 288 587 Q252 587 227.5 601.5 Q203 616 186.5 639.5 Q170 663 161 693.5 Q152 724 149 756 L189 768 Z M19 472 Q28 480 41.5 488.5 Q55 497 71 504.5 Q87 512 104 516.5 Q121 521 136 521 Q181 521 196.5 497.5 Q212 474 209 438 L184 156 Q179 102 186.5 81 Q194 60 219 60 Q234 60 245 66 Q256 72 265.5 86.5 Q275 101 284 124 Q293 147 305 180 L418 508 L500 508 L484 91 Q483 70 489 60.5 Q495 51 511 51 Q523 51 538 56.5 Q553 62 570 69 L587 19 Q579 15 565.5 9 Q552 3 536.5 -2 Q521 -7 504 -10.5 Q487 -14 472 -14 Q429 -14 413 11.5 Q397 37 402 88 L427 358 L419 359 L351 140 Q325 59 290 22.5 Q255 -14 198 -14 Q131 -14 111.5 30.5 Q92 75 99 162 L121 417 Q123 440 119 450 Q115 460 98 460 Q87 460 71.5 453.5 Q56 447 42 436 L19 472 Z " />
<glyph glyph-name="Uring" unicode="&#x16e;" horiz-adv-x="758" d="M307 839 Q307 880 335 910.5 Q363 941 415 941 Q464 941 487.5 916 Q511 891 511 847 Q511 802 482.5 772 Q454 742 405 742 Q352 742 329.5 768 Q307 794 307 839 Z M362 840 Q362 820 372 804 Q382 788 408 788 Q434 788 444.5 805 Q455 822 455 844 Q455 865 444.5 880.5 Q434 896 410 896 Q385 896 373.5 878 Q362 860 362 840 Z M703 47 L696 0 L544 0 L537 12 L572 365 L568 365 Q548 278 525 208 Q502 138 471 88.5 Q440 39 398.5 12.5 Q357 -14 300 -14 Q246 -14 211.5 4.5 Q177 23 157 55 Q137 87 130 130 Q123 173 126 222 L148 639 L72 654 L78 700 L326 700 L320 654 L235 637 L214 230 Q210 134 234 96 Q258 58 313 58 Q355 58 389.5 82 Q424 106 452 162 Q472 201 489 252 Q506 303 520.5 358 Q535 413 546 468 Q557 523 563 570 L572 637 L489 654 L495 700 L727 700 L721 654 L648 637 L617 60 L703 47 Z " />
<glyph glyph-name="uring" unicode="&#x16f;" horiz-adv-x="600" d="M199 679 Q199 720 227 750.5 Q255 781 307 781 Q356 781 379.5 756 Q403 731 403 687 Q403 642 374.5 612 Q346 582 297 582 Q244 582 221.5 608 Q199 634 199 679 Z M254 680 Q254 660 264 644 Q274 628 300 628 Q326 628 336.5 645 Q347 662 347 684 Q347 705 336.5 720.5 Q326 736 302 736 Q277 736 265.5 718 Q254 700 254 680 Z M19 472 Q28 480 41.5 488.5 Q55 497 71 504.5 Q87 512 104 516.5 Q121 521 136 521 Q181 521 196.5 497.5 Q212 474 209 438 L184 156 Q179 102 186.5 81 Q194 60 219 60 Q234 60 245 66 Q256 72 265.5 86.5 Q275 101 284 124 Q293 147 305 180 L418 508 L500 508 L484 91 Q483 70 489 60.5 Q495 51 511 51 Q523 51 538 56.5 Q553 62 570 69 L587 19 Q579 15 565.5 9 Q552 3 536.5 -2 Q521 -7 504 -10.5 Q487 -14 472 -14 Q429 -14 413 11.5 Q397 37 402 88 L427 358 L419 359 L351 140 Q325 59 290 22.5 Q255 -14 198 -14 Q131 -14 111.5 30.5 Q92 75 99 162 L121 417 Q123 440 119 450 Q115 460 98 460 Q87 460 71.5 453.5 Q56 447 42 436 L19 472 Z " />
<glyph glyph-name="Uhungarumlaut" unicode="&#x170;" horiz-adv-x="758" d="M388 901 Q410 923 429 923 Q447 923 458 910.5 Q469 898 469 879 Q469 871 467 862.5 Q465 854 461 843 L287 752 L268 779 L388 901 Z M569 899 Q581 910 590 915.5 Q599 921 610 921 Q628 921 639 908 Q650 895 650 876 Q650 861 642 839 L465 752 L446 779 L569 899 Z M703 47 L696 0 L544 0 L537 12 L572 365 L568 365 Q548 278 525 208 Q502 138 471 88.5 Q440 39 398.5 12.5 Q357 -14 300 -14 Q246 -14 211.5 4.5 Q177 23 157 55 Q137 87 130 130 Q123 173 126 222 L148 639 L72 654 L78 700 L326 700 L320 654 L235 637 L214 230 Q210 134 234 96 Q258 58 313 58 Q355 58 389.5 82 Q424 106 452 162 Q472 201 489 252 Q506 303 520.5 358 Q535 413 546 468 Q557 523 563 570 L572 637 L489 654 L495 700 L727 700 L721 654 L648 637 L617 60 L703 47 Z " />
<glyph glyph-name="uhungarumlaut" unicode="&#x171;" horiz-adv-x="600" d="M278 742 Q289 759 298 765 Q307 771 320 771 Q342 771 351.5 753.5 Q361 736 356 701 L214 582 L192 605 L278 742 Z M431 739 Q442 756 451 762 Q460 768 473 768 Q493 768 503.5 750.5 Q514 733 509 698 L361 582 L339 605 L431 739 Z M19 472 Q28 480 41.5 488.5 Q55 497 71 504.5 Q87 512 104 516.5 Q121 521 136 521 Q181 521 196.5 497.5 Q212 474 209 438 L184 156 Q179 102 186.5 81 Q194 60 219 60 Q234 60 245 66 Q256 72 265.5 86.5 Q275 101 284 124 Q293 147 305 180 L418 508 L500 508 L484 91 Q483 70 489 60.5 Q495 51 511 51 Q523 51 538 56.5 Q553 62 570 69 L587 19 Q579 15 565.5 9 Q552 3 536.5 -2 Q521 -7 504 -10.5 Q487 -14 472 -14 Q429 -14 413 11.5 Q397 37 402 88 L427 358 L419 359 L351 140 Q325 59 290 22.5 Q255 -14 198 -14 Q131 -14 111.5 30.5 Q92 75 99 162 L121 417 Q123 440 119 450 Q115 460 98 460 Q87 460 71.5 453.5 Q56 447 42 436 L19 472 Z " />
<glyph glyph-name="Uogonek" unicode="&#x172;" horiz-adv-x="758" d="M703 47 L696 0 Q673 -11 651.5 -26 Q630 -41 613 -57.5 Q596 -74 585.5 -92 Q575 -110 575 -128 Q575 -161 606 -161 Q620 -161 634.5 -151.5 Q649 -142 663 -128 L691 -156 Q671 -185 640 -207 Q609 -229 567 -229 Q537 -229 514.5 -211 Q492 -193 492 -161 Q492 -135 502 -113.5 Q512 -92 529 -73 Q546 -54 569 -36 Q592 -18 617 0 L544 0 L537 12 L572 365 L568 365 Q548 278 525 208 Q502 138 471 88.5 Q440 39 398.5 12.5 Q357 -14 300 -14 Q246 -14 211.5 4.5 Q177 23 157 55 Q137 87 130 130 Q123 173 126 222 L148 639 L72 654 L78 700 L326 700 L320 654 L235 637 L214 230 Q210 134 234 96 Q258 58 313 58 Q355 58 389.5 82 Q424 106 452 162 Q472 201 489 252 Q506 303 520.5 358 Q535 413 546 468 Q557 523 563 570 L572 637 L489 654 L495 700 L727 700 L721 654 L648 637 L617 60 L703 47 Z " />
<glyph glyph-name="uogonek" unicode="&#x173;" horiz-adv-x="600" d="M19 472 Q28 480 41.5 488.5 Q55 497 71 504.5 Q87 512 104 516.5 Q121 521 136 521 Q181 521 196.5 497.5 Q212 474 209 438 L184 156 Q179 102 186.5 81 Q194 60 219 60 Q234 60 245 66 Q256 72 265.5 86.5 Q275 101 284 124 Q293 147 305 180 L418 508 L500 508 L484 91 Q483 70 489 60.5 Q495 51 511 51 Q523 51 538 56.5 Q553 62 570 69 L587 19 Q534 -10 499.5 -46.5 Q465 -83 465 -128 Q465 -161 496 -161 Q510 -161 524.5 -151.5 Q539 -142 553 -128 L581 -156 Q561 -185 530 -207 Q499 -229 457 -229 Q427 -229 404.5 -210.5 Q382 -192 382 -155 Q382 -114 411 -79 Q440 -44 475 -14 Q430 -14 413.5 11.5 Q397 37 402 88 L427 358 L419 359 L351 140 Q325 59 290 22.5 Q255 -14 198 -14 Q131 -14 111.5 30.5 Q92 75 99 162 L121 417 Q123 440 119 450 Q115 460 98 460 Q87 460 71.5 453.5 Q56 447 42 436 L19 472 Z " />
<glyph glyph-name="Wcircumflex" unicode="&#x174;" horiz-adv-x="993" d="M661 750 L524 838 L388 751 L366 777 L481 903 Q496 919 507 926 Q518 933 529 933 Q538 933 543 932 Q548 931 553 929 L686 774 L661 750 Z M711 86 L871 638 L784 656 L790 700 L1027 700 L1020 652 L940 635 L746 0 L641 -10 L524 408 L365 0 L260 -10 L102 638 L25 653 L32 700 L295 700 L289 653 L201 640 L326 86 L330 86 L495 512 L447 685 L543 701 L707 86 L711 86 Z " />
<glyph glyph-name="wcircumflex" unicode="&#x175;" horiz-adv-x="787" d="M547 580 L421 682 L294 582 L272 605 L380 746 Q393 763 403.5 770 Q414 777 425 777 Q434 777 440 776 Q446 775 453 773 L572 605 L547 580 Z M452 508 Q458 479 460.5 448 Q463 417 463 385 Q463 329 457.5 272 Q452 215 445 164 Q438 113 449.5 82.5 Q461 52 507 52 Q545 52 574 83 Q603 114 623.5 159 Q644 204 655.5 255 Q667 306 670 346 Q672 386 663.5 400.5 Q655 415 635 423 L600 436 Q597 470 611 495.5 Q625 521 662 521 Q747 521 747 410 Q747 371 741 324.5 Q735 278 722 231 Q709 184 688.5 139.5 Q668 95 640 61 Q612 27 575 6.5 Q538 -14 492 -14 Q474 -14 455.5 -9 Q437 -4 421.5 7.5 Q406 19 394.5 38.5 Q383 58 379 87 Q353 38 315 12 Q277 -14 220 -14 Q202 -14 179 -9 Q156 -4 136.5 13 Q117 30 104 62.5 Q91 95 94 149 L107 421 Q108 445 96.5 453 Q85 461 66 455 L21 441 L4 488 Q13 493 26.5 498.5 Q40 504 55.5 509 Q71 514 88 517.5 Q105 521 120 521 Q164 521 180.5 497.5 Q197 474 195 437 L179 156 Q176 105 191 78 Q206 51 242 51 Q280 51 306 78 Q332 105 348 149.5 Q364 194 371.5 250.5 Q379 307 379 366 Q379 400 377 433 Q375 466 371 498 L452 508 Z " />
<glyph glyph-name="Ycircumflex" unicode="&#x176;" horiz-adv-x="661" d="M511 750 L374 838 L238 751 L216 777 L331 903 Q346 919 357 926 Q368 933 379 933 Q388 933 393 932 Q398 931 403 929 L536 774 L511 750 Z M366 327 L539 638 L452 656 L458 700 L695 700 L688 652 L608 635 L390 261 L382 59 L477 46 L471 0 L206 0 L212 46 L294 59 L305 259 L101 638 L24 653 L31 700 L289 700 L283 653 L200 640 L362 327 L366 327 Z " />
<glyph glyph-name="ycircumflex" unicode="&#x177;" horiz-adv-x="529" d="M404 580 L278 682 L151 582 L129 605 L237 746 Q250 763 260.5 770 Q271 777 282 777 Q291 777 297 776 Q303 775 310 773 L429 605 L404 580 Z M298 -57 Q283 -92 267 -123 Q251 -154 230.5 -177.5 Q210 -201 182.5 -215 Q155 -229 115 -229 Q76 -229 49.5 -210 Q23 -191 23 -159 Q23 -133 40 -113.5 Q57 -94 87 -89 L102 -117 Q114 -139 123 -149.5 Q132 -160 150 -160 Q174 -160 189 -140 Q204 -120 227 -69 L257 0 L248 0 Q216 0 196.5 14.5 Q177 29 158 59 Q132 101 117 178.5 Q102 256 102 353 L103 429 Q103 445 97.5 451 Q92 457 81 457 Q70 457 49.5 451 Q29 445 17 439 L0 488 Q17 497 50 509 Q83 521 118 521 Q158 521 174 498 Q190 475 190 435 Q190 418 189 400.5 Q188 383 188 360 Q188 272 197.5 210.5 Q207 149 226 108 Q238 82 247.5 74.5 Q257 67 271 67 L287 67 L400 338 Q417 376 413.5 395 Q410 414 385 423 L350 436 Q345 473 362.5 497 Q380 521 417 521 Q454 521 472.5 497 Q491 473 491 437 Q491 393 470 341 Q449 289 422 226 L298 -57 Z " />
</font>
</svg>
