<?xml version="1.0" encoding="UTF-8"?>
<svg xmlns="http://www.w3.org/2000/svg" xmlns:xlink="http://www.w3.org/1999/xlink" version="1.2" >
<font id="Literata Book Regular">
<font-face  font-family="Literata Book" units-per-em="1000" ascent="780" descent="-230" font-style="normal" font-weight="400" font-stretch="normal" cap-height="700" x-height="507" underline-position="-75" underline-thickness="50" />
<missing-glyph  horiz-adv-x="495" d="" />
<glyph glyph-name="null" d="" />
<glyph glyph-name="nonmarkingreturn" unicode="&#xd;" horiz-adv-x="250" d="" />
<glyph glyph-name="space" unicode="&#x20;" horiz-adv-x="200" d="" />
<glyph glyph-name="exclam" unicode="&#x21;" horiz-adv-x="330" d="M141 265 Q141 324 135 380 Q129 436 122.5 485.5 Q116 535 110 576.5 Q104 618 104 649 Q104 683 124.5 698.5 Q145 714 174 714 Q203 714 220.5 698 Q238 682 238 650 Q238 622 231.5 582.5 Q225 543 217.5 493.5 Q210 444 203.5 386.5 Q197 329 197 264 L197 193 L141 193 L141 265 Z M170 -14 Q139 -14 119 5.5 Q99 25 99 55 Q99 87 119 106.5 Q139 126 170 126 Q201 126 220.5 106.5 Q240 87 240 56 Q240 26 220.5 6 Q201 -14 170 -14 Z " />
<glyph glyph-name="quotedbl" unicode="&#x22;" horiz-adv-x="401" d="M87 707 Q86 712 85.5 716.5 Q85 721 85 726 Q85 748 99 765 Q113 782 138 782 Q152 782 166 772 Q180 762 180 745 Q180 736 177 719 L147 549 L113 549 L87 707 Z M238 707 Q237 712 236.5 716.5 Q236 721 236 726 Q236 748 250 765 Q264 782 289 782 Q303 782 317 772 Q331 762 331 745 Q331 736 328 719 L298 549 L264 549 L238 707 Z " />
<glyph glyph-name="numbersign" unicode="&#x23;" horiz-adv-x="674" d="M168 140 L45 140 L56 191 L177 191 L204 367 L79 367 L89 419 L212 419 L232 550 L286 550 L266 419 L450 419 L469 550 L524 550 L504 419 L629 419 L620 367 L497 367 L470 191 L600 191 L591 140 L462 140 L440 0 L386 0 L408 140 L223 140 L201 0 L147 0 L168 140 Z M416 191 L443 367 L257 367 L231 191 L416 191 Z " />
<glyph glyph-name="dollar" unicode="&#x24;" horiz-adv-x="518" d="M234 -8 Q196 -2 167.5 12.5 Q139 27 125 42 L112 -5 L66 -5 L50 172 L107 176 Q129 114 162.5 86.5 Q196 59 234 52 L234 248 Q203 257 173 268.5 Q143 280 119 298.5 Q95 317 80.5 345 Q66 373 66 416 Q66 444 77 470 Q88 496 109 516.5 Q130 537 161.5 550.5 Q193 564 234 567 L234 658 L284 658 L284 565 Q311 561 335.5 551.5 Q360 542 377 528 L387 568 L436 568 L454 406 L398 400 Q379 462 349 485 Q319 508 284 512 L284 333 Q316 323 349 311.5 Q382 300 408.5 281 Q435 262 451.5 233.5 Q468 205 468 160 Q468 131 457 101.5 Q446 72 423 47.5 Q400 23 365.5 7 Q331 -9 284 -11 L284 -96 L234 -96 L234 -8 Z M234 512 Q200 508 177.5 490.5 Q155 473 155 438 Q155 402 177 382.5 Q199 363 234 350 L234 512 Z M284 49 Q328 53 353.5 75 Q379 97 379 136 Q379 177 351.5 198 Q324 219 284 232 L284 49 Z " />
<glyph glyph-name="percent" unicode="&#x25;" horiz-adv-x="851" d="M202 274 Q129 274 88 317.5 Q47 361 47 429 Q47 476 60.5 508 Q74 540 96.5 559.5 Q119 579 148 588 Q177 597 207 597 Q238 597 265.5 587.5 Q293 578 314 559.5 Q335 541 347.5 512.5 Q360 484 360 445 Q360 403 347.5 371 Q335 339 313.5 317.5 Q292 296 263.5 285 Q235 274 202 274 Z M567 597 L641 597 L279 -14 L204 -14 L567 597 Z M207 331 Q242 331 261 356 Q280 381 280 435 Q280 486 259 514 Q238 542 200 542 Q168 542 146.5 517.5 Q125 493 125 440 Q125 391 147 361 Q169 331 207 331 Z M646 -14 Q573 -14 532 29.5 Q491 73 491 141 Q491 188 504.5 220 Q518 252 540.5 271.5 Q563 291 592 300 Q621 309 651 309 Q682 309 709.5 299.5 Q737 290 758 271.5 Q779 253 791.5 224.5 Q804 196 804 157 Q804 115 791.5 83 Q779 51 757.5 29.5 Q736 8 707.5 -3 Q679 -14 646 -14 Z M651 43 Q686 43 705 68 Q724 93 724 147 Q724 198 703 226 Q682 254 644 254 Q612 254 590.5 229.5 Q569 205 569 152 Q569 103 591 73 Q613 43 651 43 Z " />
<glyph glyph-name="ampersand" unicode="&#x26;" horiz-adv-x="810" d="M289 -14 Q238 -14 195 -1 Q152 12 120.5 37 Q89 62 71.5 98.5 Q54 135 54 181 Q54 222 66.5 253.5 Q79 285 100.5 309.5 Q122 334 150.5 352 Q179 370 210 383 Q196 397 181.5 414 Q167 431 155 451.5 Q143 472 135.5 495 Q128 518 128 544 Q128 585 142 616.5 Q156 648 180.5 670 Q205 692 239.5 703 Q274 714 314 714 Q381 714 422.5 675 Q464 636 464 573 Q464 511 429 467 Q394 423 334 394 L491 231 Q509 311 531.5 360.5 Q554 410 579.5 438.5 Q605 467 631.5 477 Q658 487 684 487 Q716 487 738.5 468.5 Q761 450 761 418 Q761 394 748 375.5 Q735 357 712 357 Q686 357 676 373.5 Q666 390 654 419 Q641 416 625 404 Q609 392 592.5 365.5 Q576 339 560.5 296 Q545 253 534 188 Q564 159 585.5 140 Q607 121 623.5 110.5 Q640 100 653 96 Q666 92 678 92 Q689 92 706 98.5 Q723 105 755 129 L775 95 Q743 50 715 28.5 Q687 7 648 7 Q618 7 582.5 27 Q547 47 498 95 Q473 52 421 19 Q369 -14 289 -14 Z M300 426 Q357 457 378 496.5 Q399 536 399 570 Q399 618 372.5 638.5 Q346 659 308 659 Q266 659 240.5 635 Q215 611 215 568 Q215 528 239 494.5 Q263 461 300 426 Z M310 45 Q363 45 399.5 69 Q436 93 456 133 L242 349 Q208 330 182 295 Q156 260 156 198 Q156 123 198.5 84 Q241 45 310 45 Z " />
<glyph glyph-name="quotesingle" unicode="&#x27;" horiz-adv-x="250" d="M87 707 Q86 712 85.5 716.5 Q85 721 85 726 Q85 748 99 765 Q113 782 138 782 Q152 782 166 772 Q180 762 180 745 Q180 736 177 719 L147 549 L113 549 L87 707 Z " />
<glyph glyph-name="parenleft" unicode="&#x28;" horiz-adv-x="332" d="M265 -204 Q229 -166 194.5 -112.5 Q160 -59 133 6.5 Q106 72 90 148 Q74 224 74 306 Q74 390 91.5 466.5 Q109 543 137 609 Q165 675 200 728 Q235 781 270 817 L306 797 Q276 748 250.5 690.5 Q225 633 207 571 Q189 509 178.5 444.5 Q168 380 168 317 Q168 177 205 53.5 Q242 -70 302 -183 L265 -204 Z " />
<glyph glyph-name="parenright" unicode="&#x29;" horiz-adv-x="332" d="M26 -184 Q56 -135 81.5 -77.5 Q107 -20 125 42 Q143 104 153.5 168.5 Q164 233 164 296 Q164 436 127 559.5 Q90 683 30 796 L67 817 Q103 779 137.5 725.5 Q172 672 199 606.5 Q226 541 242 465.5 Q258 390 258 307 Q258 223 240.5 146.5 Q223 70 195 4 Q167 -62 132 -115 Q97 -168 62 -204 L26 -184 Z " />
<glyph glyph-name="asterisk" unicode="&#x2a;" horiz-adv-x="449" d="M218 407 Q196 407 189 421.5 Q182 436 186 456 L208 569 L127 499 Q113 485 93 482 Q73 479 61 501 Q48 523 58.5 536.5 Q69 550 85 555 L194 595 L95 631 Q71 639 61.5 654.5 Q52 670 64 692 Q74 711 91.5 709.5 Q109 708 122 697 L209 620 L190 724 Q185 747 194.5 764.5 Q204 782 230 782 Q250 782 258 768.5 Q266 755 261 734 L238 619 L320 689 Q337 703 357 704.5 Q377 706 389 684 Q400 665 391 652.5 Q382 640 362 633 L252 594 L352 556 Q372 548 383 531.5 Q394 515 382 493 Q372 473 355.5 475.5 Q339 478 325 491 L238 568 L257 465 Q261 445 252.5 426 Q244 407 218 407 Z " />
<glyph glyph-name="plus" unicode="&#x2b;" horiz-adv-x="582" d="M254 276 L77 276 L77 339 L254 339 L254 521 L321 521 L321 339 L505 339 L505 276 L321 276 L321 81 L254 81 L254 276 Z " />
<glyph glyph-name="comma" unicode="&#x2c;" horiz-adv-x="328" d="M86 -131 Q131 -96 150.5 -64.5 Q170 -33 173 0 L149 0 Q117 0 102 14.5 Q87 29 87 55 Q87 87 107 108 Q127 129 160 129 Q205 129 225 99.5 Q245 70 245 31 Q245 9 237 -18 Q229 -45 213 -72 Q197 -99 172.5 -124 Q148 -149 115 -168 L86 -131 Z " />
<glyph glyph-name="hyphen" unicode="&#x2d;" horiz-adv-x="354" d="M44 329 L311 329 L311 247 L44 247 L44 329 Z " />
<glyph glyph-name="period" unicode="&#x2e;" horiz-adv-x="333" d="M166 -17 Q133 -17 111.5 4 Q90 25 90 58 Q90 91 111.5 112.5 Q133 134 166 134 Q200 134 221.5 113 Q243 92 243 59 Q243 26 221.5 4.5 Q200 -17 166 -17 Z " />
<glyph glyph-name="slash" unicode="&#x2f;" horiz-adv-x="428" d="M345 802 L408 802 L84 -110 L20 -110 L345 802 Z " />
<glyph glyph-name="zero" unicode="0" horiz-adv-x="609" d="M301 -14 Q177 -14 109.5 61 Q42 136 42 270 Q42 349 65 405.5 Q88 462 125.5 498 Q163 534 211 551 Q259 568 310 568 Q358 568 404 553.5 Q450 539 486.5 506 Q523 473 545 419 Q567 365 567 287 Q567 206 544 148.5 Q521 91 483.5 55 Q446 19 398.5 2.5 Q351 -14 301 -14 Z M303 40 Q382 40 423 97.5 Q464 155 464 280 Q464 344 452.5 388 Q441 432 420.5 459.5 Q400 487 371 499.5 Q342 512 307 512 Q271 512 241.5 499 Q212 486 190.5 457.5 Q169 429 157 384 Q145 339 145 276 Q145 154 187.5 97 Q230 40 303 40 Z " />
<glyph glyph-name="one" unicode="1" horiz-adv-x="400" d="M51 46 L135 57 Q155 59 160 67.5 Q165 76 165 97 L165 439 Q165 470 157.5 481 Q150 492 122 492 L40 492 L46 543 L241 568 L258 558 L258 96 Q258 76 263 67.5 Q268 59 289 57 L366 47 L366 0 L51 0 L51 46 Z " />
<glyph glyph-name="two" unicode="2" horiz-adv-x="550" d="M54 53 Q69 63 89 76.5 Q109 90 130 105 Q151 120 171 135.5 Q191 151 207 163 Q270 212 310 270 Q350 328 350 393 Q350 429 341.5 452.5 Q333 476 319 489.5 Q305 503 285.5 508.5 Q266 514 243 514 Q208 514 180.5 501.5 Q153 489 137 469 Q147 455 158 436.5 Q169 418 169 407 Q169 390 151.5 374.5 Q134 359 109 359 Q77 359 63.5 376.5 Q50 394 50 419 Q50 448 66.5 475 Q83 502 111 522.5 Q139 543 176.5 555.5 Q214 568 256 568 Q343 568 397.5 526 Q452 484 452 401 Q452 350 433 308 Q414 266 382.5 231.5 Q351 197 311 168 Q271 139 229 113 L173 78 L173 73 L309 73 Q341 73 362.5 76.5 Q384 80 399 91 Q414 102 425.5 123 Q437 144 449 178 L500 178 L486 0 L54 0 L54 53 Z " />
<glyph glyph-name="three" unicode="3" horiz-adv-x="524" d="M70 -122 Q214 -107 291.5 -52 Q369 3 369 89 Q369 146 339 177 Q309 208 264 219 Q227 204 180 192 L171 249 Q346 294 346 413 Q346 458 317.5 484 Q289 510 238 510 Q193 510 165.5 496 Q138 482 127 466 Q135 453 145 436.5 Q155 420 155 409 Q155 392 141 376 Q127 360 102 360 Q67 360 52 378 Q37 396 37 422 Q37 451 53.5 477 Q70 503 98.5 523.5 Q127 544 165.5 556 Q204 568 249 568 Q291 568 327 558.5 Q363 549 389 529.5 Q415 510 429.5 481 Q444 452 444 413 Q444 371 419.5 329.5 Q395 288 331 251 L324 247 Q353 240 380.5 228.5 Q408 217 429 198.5 Q450 180 463 153 Q476 126 476 87 Q476 30 448 -17 Q420 -64 368 -98 Q316 -132 242.5 -152 Q169 -172 78 -175 L70 -122 Z " />
<glyph glyph-name="four" unicode="4" horiz-adv-x="614" d="M348 0 L24 0 L15 50 L348 553 L429 568 L440 559 L440 68 L478 68 Q501 68 509 73.5 Q517 79 520 96 L529 146 L574 146 L574 -59 L528 -59 L520 -28 Q516 -11 508.5 -5.5 Q501 0 478 0 L440 0 L440 -164 L348 -164 L348 0 Z M348 68 L348 443 L99 68 L348 68 Z " />
<glyph glyph-name="five" unicode="5" horiz-adv-x="523" d="M67 -124 Q207 -104 287 -48 Q367 8 367 108 Q367 166 333.5 198.5 Q300 231 235 231 Q203 231 173.5 224 Q144 217 109 202 L83 240 L110 554 L291 554 Q319 554 337 556 Q355 558 366.5 565 Q378 572 385.5 586.5 Q393 601 399 626 L451 626 L433 465 L166 465 L148 272 Q177 289 212.5 299 Q248 309 285 309 Q374 309 424 257.5 Q474 206 474 117 Q474 48 444 -4.5 Q414 -57 361 -93.5 Q308 -130 235 -150.5 Q162 -171 75 -176 L67 -124 Z " />
<glyph glyph-name="six" unicode="6" horiz-adv-x="567" d="M285 -14 Q220 -14 175 9 Q130 32 102.5 72 Q75 112 62.5 164.5 Q50 217 50 275 Q50 386 81 468 Q112 550 166.5 604.5 Q221 659 294.5 688.5 Q368 718 452 725 L464 673 Q332 653 252.5 580.5 Q173 508 149 371 L153 368 Q173 400 215.5 426.5 Q258 453 321 453 Q363 453 400 439 Q437 425 464.5 397.5 Q492 370 507.5 329.5 Q523 289 523 237 Q523 175 505 128 Q487 81 455 49.5 Q423 18 379.5 2 Q336 -14 285 -14 Z M289 47 Q349 47 386 90 Q423 133 423 226 Q423 312 386.5 348.5 Q350 385 288 385 Q264 385 240 376 Q216 367 196.5 348.5 Q177 330 164.5 301 Q152 272 152 232 Q152 194 158.5 160 Q165 126 181 101 Q197 76 223.5 61.5 Q250 47 289 47 Z " />
<glyph glyph-name="seven" unicode="7" horiz-adv-x="558" d="M128 -148 Q162 -94 204.5 -24 Q247 46 289.5 125.5 Q332 205 370.5 291.5 Q409 378 434 465 L212 465 Q180 465 161 462 Q142 459 130 448.5 Q118 438 109.5 418.5 Q101 399 90 365 L40 365 L58 554 L511 554 L519 490 Q432 260 363.5 96 Q295 -68 247 -164 L137 -164 L128 -148 Z " />
<glyph glyph-name="eight" unicode="8" horiz-adv-x="567" d="M275 -14 Q225 -14 181 -3 Q137 8 104.5 31 Q72 54 53.5 89 Q35 124 35 171 Q35 198 42.5 226 Q50 254 68 280.5 Q86 307 117 329.5 Q148 352 196 367 Q158 386 132.5 405 Q107 424 92 444 Q77 464 70.5 487 Q64 510 64 538 Q64 569 77 600 Q90 631 117 656.5 Q144 682 185 698 Q226 714 281 714 Q332 714 372 702.5 Q412 691 439 670.5 Q466 650 480 622 Q494 594 494 562 Q494 498 458.5 457 Q423 416 373 390 Q459 352 492 302 Q525 252 525 194 Q525 143 504 104 Q483 65 448 39 Q413 13 368 -0.5 Q323 -14 275 -14 Z M320 411 Q356 435 379 470.5 Q402 506 402 548 Q402 575 391.5 596 Q381 617 364 631 Q347 645 324 652 Q301 659 277 659 Q228 659 192 633.5 Q156 608 156 557 Q156 536 163.5 517.5 Q171 499 189.5 482 Q208 465 240 448 Q272 431 320 411 Z M284 44 Q348 44 385 78 Q422 112 422 175 Q422 238 377 274.5 Q332 311 244 340 Q186 311 160 268.5 Q134 226 134 180 Q134 117 174.5 80.5 Q215 44 284 44 Z " />
<glyph glyph-name="nine" unicode="9" horiz-adv-x="567" d="M107 -121 Q164 -114 215.5 -92.5 Q267 -71 308 -34.5 Q349 2 376.5 55.5 Q404 109 413 181 L414 188 Q389 150 350 126.5 Q311 103 255 103 Q209 103 170.5 117 Q132 131 104 158.5 Q76 186 60 228.5 Q44 271 44 328 Q44 387 62 431.5 Q80 476 112 506.5 Q144 537 187.5 552.5 Q231 568 282 568 Q347 568 392 544.5 Q437 521 464.5 480.5 Q492 440 504.5 384.5 Q517 329 517 265 Q517 151 483.5 70 Q450 -11 394 -64.5 Q338 -118 265.5 -144.5 Q193 -171 115 -175 L107 -121 Z M281 175 Q304 175 327.5 183 Q351 191 370.5 209 Q390 227 402.5 256 Q415 285 415 326 Q415 365 408 398.5 Q401 432 385 456 Q369 480 342 493.5 Q315 507 276 507 Q218 507 181 466.5 Q144 426 144 340 Q144 294 153.5 262 Q163 230 180.5 211 Q198 192 223.5 183.5 Q249 175 281 175 Z " />
<glyph glyph-name="colon" unicode="&#x3a;" horiz-adv-x="333" d="M166 370 Q133 370 111.5 391 Q90 412 90 445 Q90 478 111.5 499.5 Q133 521 166 521 Q200 521 221.5 500 Q243 479 243 446 Q243 413 221.5 391.5 Q200 370 166 370 Z M166 -17 Q133 -17 111.5 4 Q90 25 90 58 Q90 91 111.5 112.5 Q133 134 166 134 Q200 134 221.5 113 Q243 92 243 59 Q243 26 221.5 4.5 Q200 -17 166 -17 Z " />
<glyph glyph-name="semicolon" unicode="&#x3b;" horiz-adv-x="328" d="M159 370 Q126 370 104.5 391 Q83 412 83 445 Q83 478 104.5 499.5 Q126 521 159 521 Q193 521 214.5 500 Q236 479 236 446 Q236 413 214.5 391.5 Q193 370 159 370 Z M86 -131 Q131 -96 150.5 -64.5 Q170 -33 173 0 L149 0 Q117 0 102 14.5 Q87 29 87 55 Q87 87 107 108 Q127 129 160 129 Q205 129 225 99.5 Q245 70 245 31 Q245 9 237 -18 Q229 -45 213 -72 Q197 -99 172.5 -124 Q148 -149 115 -168 L86 -131 Z " />
<glyph glyph-name="less" unicode="&#x3c;" horiz-adv-x="582" d="M70 263 L70 305 L448 532 L478 480 L148 285 L478 91 L448 37 L70 263 Z " />
<glyph glyph-name="equal" unicode="&#x3d;" horiz-adv-x="582" d="M77 425 L505 425 L505 362 L77 362 L77 425 Z M77 245 L505 245 L505 182 L77 182 L77 245 Z " />
<glyph glyph-name="greater" unicode="&#x3e;" horiz-adv-x="582" d="M104 91 L434 285 L104 480 L134 532 L512 305 L512 263 L134 37 L104 91 Z " />
<glyph glyph-name="question" unicode="&#x3f;" horiz-adv-x="538" d="M215 317 Q215 355 236.5 383 Q258 411 284 437 Q311 463 334 491.5 Q357 520 357 560 Q357 605 328 632.5 Q299 660 248 660 Q184 660 152 622 Q162 608 173 589.5 Q184 571 184 560 Q184 543 166.5 527.5 Q149 512 124 512 Q92 512 78.5 529.5 Q65 547 65 572 Q65 601 81.5 627 Q98 653 125.5 672.5 Q153 692 188.5 703 Q224 714 262 714 Q304 714 339.5 702.5 Q375 691 400 670 Q425 649 439 619 Q453 589 453 551 Q453 524 445 500 Q437 476 423.5 454.5 Q410 433 393 414 Q376 395 358 377 Q325 343 298 314 Q271 285 271 257 L271 194 L215 194 L215 317 Z M244 -14 Q213 -14 193 5.5 Q173 25 173 55 Q173 87 193 106.5 Q213 126 244 126 Q275 126 294.5 106.5 Q314 87 314 56 Q314 26 294.5 6 Q275 -14 244 -14 Z " />
<glyph glyph-name="at" unicode="&#x40;" horiz-adv-x="849" d="M410 -183 Q341 -183 276.5 -162 Q212 -141 162.5 -96.5 Q113 -52 83.5 17.5 Q54 87 54 184 Q54 265 80 335.5 Q106 406 155.5 457.5 Q205 509 277 538.5 Q349 568 440 568 Q521 568 586.5 548 Q652 528 698.5 487.5 Q745 447 770 386 Q795 325 795 244 Q795 178 778.5 129.5 Q762 81 734.5 50 Q707 19 670.5 4 Q634 -11 594 -11 Q568 -11 552.5 -4.5 Q537 2 529.5 14 Q522 26 520.5 43.5 Q519 61 520 83 L526 210 L522 210 L501 137 Q480 63 444.5 26 Q409 -11 364 -11 Q327 -11 302 1 Q277 13 261 34 Q245 55 238 84 Q231 113 231 147 Q231 213 247 260 Q263 307 290 337 Q317 367 352 381 Q387 395 425 395 Q488 395 529 372 L581 394 L595 388 L585 101 Q584 69 588 56.5 Q592 44 619 44 Q642 44 662.5 56.5 Q683 69 699 93.5 Q715 118 724.5 154 Q734 190 734 237 Q734 366 662.5 440 Q591 514 440 514 Q373 514 314 492.5 Q255 471 212 429.5 Q169 388 144 327 Q119 266 119 186 Q119 96 146.5 35.5 Q174 -25 217 -61.5 Q260 -98 312.5 -113 Q365 -128 414 -128 Q486 -128 533.5 -108 Q581 -88 621 -56 L653 -95 Q562 -183 410 -183 Z M373 52 Q393 52 409 65.5 Q425 79 438.5 102.5 Q452 126 463.5 157 Q475 188 485 223 L517 330 Q500 338 478 342.5 Q456 347 435 347 Q402 347 378.5 330 Q355 313 340 286 Q325 259 318 224 Q311 189 311 153 Q311 107 324.5 79.5 Q338 52 373 52 Z " />
<glyph glyph-name="A" unicode="A" horiz-adv-x="735" d="M15 48 L63 56 Q82 60 90 70.5 Q98 81 109 110 L320 700 L426 700 L635 109 Q645 83 651.5 73 Q658 63 679 58 L720 50 L720 0 L453 0 L453 48 L511 55 Q531 58 535.5 68.5 Q540 79 530 105 L487 231 L219 231 L177 109 Q168 83 173 71.5 Q178 60 200 55 L257 47 L257 0 L15 0 L15 48 Z M468 288 L357 617 L353 617 L239 288 L468 288 Z " />
<glyph glyph-name="B" unicode="B" horiz-adv-x="660" d="M62 48 L120 57 Q142 61 146.5 73 Q151 85 151 108 L151 596 Q151 619 146 629 Q141 639 118 643 L62 652 L62 700 L317 700 Q375 700 423 692 Q471 684 505 664.5 Q539 645 557.5 613.5 Q576 582 576 534 Q576 503 564 476.5 Q552 450 531.5 429.5 Q511 409 485 395 Q459 381 431 375 L431 370 Q518 362 567 320.5 Q616 279 616 199 Q616 107 543 53.5 Q470 0 323 0 L62 0 L62 48 Z M305 389 Q380 389 424.5 424.5 Q469 460 469 530 Q469 566 458 588.5 Q447 611 426 623.5 Q405 636 375 641 Q345 646 308 646 L250 646 L250 391 Q260 389 272.5 389 Q285 389 305 389 Z M321 55 Q412 55 460.5 91.5 Q509 128 509 202 Q509 241 494.5 267 Q480 293 454.5 308.5 Q429 324 396 330.5 Q363 337 325 337 Q302 337 284.5 336 Q267 335 250 333 L250 60 Q264 57 284.5 56 Q305 55 321 55 Z " />
<glyph glyph-name="C" unicode="C" horiz-adv-x="708" d="M394 -14 Q308 -14 245 16.5 Q182 47 140.5 97.5 Q99 148 79 214 Q59 280 59 351 Q59 436 83 503.5 Q107 571 149.5 617.5 Q192 664 250.5 689 Q309 714 377 714 Q444 714 483 694 Q522 674 543 653 L553 716 L602 716 L641 483 L587 471 Q557 565 508.5 608 Q460 651 379 651 Q271 651 218.5 573 Q166 495 166 352 Q166 291 181.5 237 Q197 183 227 142.5 Q257 102 301.5 78.5 Q346 55 404 55 Q475 55 522 84 Q569 113 607 167 L654 133 Q639 107 615 81 Q591 55 558.5 34 Q526 13 485 -0.5 Q444 -14 394 -14 Z " />
<glyph glyph-name="D" unicode="D" horiz-adv-x="775" d="M62 48 L120 57 Q142 61 146.5 73 Q151 85 151 108 L151 596 Q151 619 146 629 Q141 639 118 643 L62 652 L62 700 L349 700 Q430 700 497.5 681 Q565 662 613.5 622 Q662 582 688.5 520 Q715 458 715 372 Q715 287 689.5 218.5 Q664 150 614 101.5 Q564 53 490.5 26.5 Q417 0 321 0 L62 0 L62 48 Z M322 55 Q471 55 539.5 130.5 Q608 206 608 364 Q608 503 540 574.5 Q472 646 341 646 L250 646 L250 60 Q263 58 285 56.5 Q307 55 322 55 Z " />
<glyph glyph-name="E" unicode="E" horiz-adv-x="637" d="M62 48 L120 57 Q142 61 146.5 73 Q151 85 151 108 L151 596 Q151 619 146 629 Q141 639 118 643 L62 652 L62 700 L525 700 L562 537 L510 520 Q495 559 481.5 584 Q468 609 450.5 622.5 Q433 636 408.5 641 Q384 646 347 646 L250 646 L250 387 L337 387 Q368 387 384 389.5 Q400 392 408 400 Q416 408 420 424.5 Q424 441 430 469 L476 475 L476 248 L430 240 Q426 269 422 286 Q418 303 409.5 311.5 Q401 320 384.5 322.5 Q368 325 337 325 L250 325 L250 54 L379 54 Q415 54 439 59.5 Q463 65 479.5 79 Q496 93 507.5 118.5 Q519 144 529 184 L584 184 L560 0 L62 0 L62 48 Z " />
<glyph glyph-name="F" unicode="F" horiz-adv-x="615" d="M62 48 L120 57 Q142 61 146.5 73 Q151 85 151 108 L151 596 Q151 619 146 629 Q141 639 118 643 L62 652 L62 700 L536 700 L572 521 L520 503 Q504 547 490 574.5 Q476 602 458 618 Q440 634 415.5 640 Q391 646 354 646 L250 646 L250 367 L337 367 Q364 367 380 368.5 Q396 370 405 378 Q414 386 419 402.5 Q424 419 430 449 L476 455 L476 208 L430 200 Q424 234 420 254.5 Q416 275 407.5 286.5 Q399 298 383 301.5 Q367 305 337 305 L250 305 L250 106 Q250 81 256.5 70 Q263 59 287 56 L357 48 L357 0 L62 0 L62 48 Z " />
<glyph glyph-name="G" unicode="G" horiz-adv-x="760" d="M380 -14 Q296 -14 235 16.5 Q174 47 135 97 Q96 147 77.5 210.5 Q59 274 59 340 Q59 429 83 498.5 Q107 568 149.5 616 Q192 664 250.5 689 Q309 714 377 714 Q444 714 484.5 694 Q525 674 546 653 L556 716 L605 716 L651 483 L596 471 Q566 565 515 608 Q464 651 383 651 Q274 651 220 570.5 Q166 490 166 349 Q166 289 180 235.5 Q194 182 221.5 141 Q249 100 290.5 76 Q332 52 387 52 Q443 52 484.5 71 Q526 90 549 120 L549 230 Q549 253 544 263 Q539 273 516 277 L456 286 L456 334 L727 334 L727 286 L674 277 Q653 273 648.5 261 Q644 249 644 226 L644 -3 L601 -3 L575 44 Q540 18 491.5 2 Q443 -14 380 -14 Z " />
<glyph glyph-name="H" unicode="H" horiz-adv-x="840" d="M62 48 L120 57 Q142 61 146.5 73 Q151 85 151 108 L151 596 Q151 619 146 629 Q141 639 118 643 L62 652 L62 700 L338 700 L338 652 L280 643 Q259 639 254.5 627 Q250 615 250 592 L250 391 L590 391 L590 596 Q590 619 585 629 Q580 639 557 643 L502 652 L502 700 L777 700 L777 652 L720 643 Q698 639 693.5 627 Q689 615 689 592 L689 104 Q689 81 694 71 Q699 61 722 57 L777 48 L777 0 L502 0 L502 48 L559 57 Q581 61 585.5 73 Q590 85 590 108 L590 328 L250 328 L250 104 Q250 81 255 71 Q260 61 282 57 L338 48 L338 0 L62 0 L62 48 Z " />
<glyph glyph-name="I" unicode="I" horiz-adv-x="401" d="M58 48 L120 57 Q142 61 146.5 73 Q151 85 151 108 L151 596 Q151 619 146 629 Q141 639 118 643 L58 652 L58 700 L343 700 L343 652 L280 643 Q259 639 254.5 627 Q250 615 250 592 L250 104 Q250 81 255 71 Q260 61 282 57 L343 48 L343 0 L58 0 L58 48 Z " />
<glyph glyph-name="J" unicode="J" horiz-adv-x="575" d="M237 -14 Q203 -14 170.5 -6 Q138 2 113 17 Q88 32 73 55 Q58 78 58 108 Q58 141 78 165.5 Q98 190 133 190 Q166 190 181 177 Q196 164 196 145 Q196 132 190 118 Q184 104 166 74 Q174 67 194 58.5 Q214 50 243 50 Q299 50 323.5 88 Q348 126 348 201 L348 594 Q348 617 343 627.5 Q338 638 315 641 L245 651 L245 700 L540 700 L540 652 L477 643 Q456 640 451.5 627.5 Q447 615 447 592 L447 224 Q447 185 438.5 143 Q430 101 407 66 Q384 31 343 8.5 Q302 -14 237 -14 Z " />
<glyph glyph-name="K" unicode="K" horiz-adv-x="754" d="M632 -14 Q578 -14 541.5 8.5 Q505 31 471 85 L314 336 L254 275 L254 104 Q254 81 259 71 Q264 61 286 57 L347 48 L347 0 L62 0 L62 48 L124 57 Q146 61 150.5 73 Q155 85 155 108 L155 596 Q155 619 150 629 Q145 639 122 643 L62 652 L62 700 L347 700 L347 652 L284 643 Q263 640 258.5 627.5 Q254 615 254 592 L254 350 L497 593 Q515 611 509 625.5 Q503 640 484 643 L436 651 L446 700 L683 700 L683 650 L645 642 Q626 638 613 628.5 Q600 619 577 596 L383 401 L558 136 Q575 110 589 93.5 Q603 77 617 68 Q631 59 646 56 Q661 53 680 53 Q698 53 725 62 L735 26 Q718 8 690.5 -3 Q663 -14 632 -14 Z " />
<glyph glyph-name="L" unicode="L" horiz-adv-x="637" d="M62 48 L120 57 Q142 61 146.5 73 Q151 85 151 108 L151 596 Q151 619 146 629 Q141 639 118 643 L62 652 L62 700 L348 700 L348 652 L282 643 Q260 639 255 629 Q250 619 250 596 L250 55 L363 55 Q400 55 424 63 Q448 71 465.5 89.5 Q483 108 495.5 138.5 Q508 169 522 214 L577 214 L552 0 L62 0 L62 48 Z " />
<glyph glyph-name="M" unicode="M" horiz-adv-x="1003" d="M63 48 L120 57 Q141 60 145 72.5 Q149 85 151 108 L181 596 Q181 619 176 629 Q171 639 149 643 L93 652 L93 700 L325 700 L496 193 L500 203 L679 700 L910 700 L910 652 L847 643 Q826 640 821.5 627.5 Q817 615 817 592 L847 104 Q847 81 852 71 Q857 61 879 57 L940 48 L940 0 L655 0 L655 48 L717 57 Q739 61 743.5 73 Q748 85 748 108 L718 614 L718 622 L531 113 L431 113 L251 623 L251 615 L221 104 Q221 81 226 71 Q231 61 253 57 L309 48 L309 0 L63 0 L63 48 Z " />
<glyph glyph-name="N" unicode="N" horiz-adv-x="824" d="M63 48 L121 57 Q142 61 146.5 73 Q151 85 151 108 L151 596 Q151 619 146 629 Q141 639 119 643 L63 652 L63 700 L285 700 L617 129 L617 596 Q617 619 612 629 Q607 639 584 643 L529 652 L529 700 L774 700 L774 652 L717 643 Q695 639 690.5 627 Q686 615 686 592 L686 0 L583 0 L221 609 L221 104 Q221 81 226 71 Q231 61 253 57 L309 48 L309 0 L63 0 L63 48 Z " />
<glyph glyph-name="O" unicode="O" horiz-adv-x="779" d="M387 -14 Q310 -14 249 12.5 Q188 39 146 85.5 Q104 132 81.5 196.5 Q59 261 59 336 Q59 438 87.5 509.5 Q116 581 163.5 626.5 Q211 672 271.5 693 Q332 714 396 714 Q461 714 520 692.5 Q579 671 623 627.5 Q667 584 693 519 Q719 454 719 368 Q719 276 693 204.5 Q667 133 622 84.5 Q577 36 516.5 11 Q456 -14 387 -14 Z M399 53 Q496 53 553 124 Q610 195 610 349 Q610 423 593.5 479.5 Q577 536 547.5 574 Q518 612 476 631 Q434 650 383 650 Q337 650 297 633.5 Q257 617 227.5 581.5 Q198 546 181.5 490.5 Q165 435 165 357 Q165 287 181.5 230.5 Q198 174 228 134.5 Q258 95 301.5 74 Q345 53 399 53 Z " />
<glyph glyph-name="P" unicode="P" horiz-adv-x="602" d="M62 48 L120 57 Q142 61 146.5 73 Q151 85 151 108 L151 596 Q151 619 146 629 Q141 639 118 643 L62 652 L62 700 L308 700 Q365 700 414 690.5 Q463 681 499.5 658.5 Q536 636 556.5 597.5 Q577 559 577 502 Q577 439 553.5 395.5 Q530 352 494 326 Q458 300 414 288.5 Q370 277 329 277 Q300 277 278.5 278.5 Q257 280 250 282 L250 106 Q250 81 256.5 70 Q263 59 287 56 L357 48 L357 0 L62 0 L62 48 Z M308 331 Q394 331 432 376 Q470 421 470 499 Q470 543 457.5 571.5 Q445 600 422.5 616.5 Q400 633 369 639.5 Q338 646 301 646 L250 646 L250 336 Q258 334 274.5 332.5 Q291 331 308 331 Z " />
<glyph glyph-name="Q" unicode="Q" horiz-adv-x="779" d="M706 -191 Q664 -191 632 -175 Q600 -159 574 -132.5 Q548 -106 527 -72 Q506 -38 487 -2 Q444 -14 395 -14 Q318 -14 257 12.5 Q196 39 154 85.5 Q112 132 89.5 196.5 Q67 261 67 336 Q67 438 95.5 509.5 Q124 581 171.5 626.5 Q219 672 279.5 693 Q340 714 404 714 Q469 714 528 692.5 Q587 671 631 627.5 Q675 584 701 519 Q727 454 727 368 Q727 249 684.5 165 Q642 81 573 36 Q592 10 610.5 -13.5 Q629 -37 649 -55 Q669 -73 690 -83.5 Q711 -94 734 -94 Q776 -94 808 -82.5 Q840 -71 875 -45 L895 -75 Q848 -134 805.5 -162.5 Q763 -191 706 -191 Z M534 94 Q574 128 596 191 Q618 254 618 349 Q618 423 601.5 479.5 Q585 536 555.5 574 Q526 612 484 631 Q442 650 391 650 Q345 650 305 633.5 Q265 617 235.5 581.5 Q206 546 189.5 490.5 Q173 435 173 357 Q173 311 180 270 Q187 229 200 196 Q235 228 265.5 238.5 Q296 249 330 249 Q362 249 390 236 Q418 223 442.5 201.5 Q467 180 490 152 Q513 124 534 94 Z M407 53 Q420 53 432.5 54 Q445 55 456 57 Q442 85 427 109.5 Q412 134 395.5 152.5 Q379 171 359.5 182 Q340 193 317 193 Q292 193 269 184.5 Q246 176 222 153 Q252 105 299 79 Q346 53 407 53 Z " />
<glyph glyph-name="R" unicode="R" horiz-adv-x="725" d="M597 -14 Q566 -14 544 -5.5 Q522 3 505.5 19.5 Q489 36 476 59.5 Q463 83 450 114 L402 229 Q392 253 383.5 270.5 Q375 288 363.5 299.5 Q352 311 336 316 Q320 321 295 321 Q270 321 250 318 L250 106 Q250 81 256.5 70 Q263 59 287 56 L357 48 L357 0 L62 0 L62 48 L120 57 Q142 61 146.5 73 Q151 85 151 108 L151 596 Q151 619 146 629 Q141 639 118 643 L62 652 L62 700 L313 700 Q369 700 418 691 Q467 682 503.5 661 Q540 640 561 606 Q582 572 582 521 Q582 476 563 443.5 Q544 411 517 389 Q490 367 460 354.5 Q430 342 408 338 L408 335 Q449 324 471 303 Q493 282 509 244 L544 162 Q555 137 564 117 Q573 97 583.5 82.5 Q594 68 608 60.5 Q622 53 643 53 Q661 53 688 62 L698 26 Q656 -14 597 -14 Z M306 369 Q392 369 433.5 409 Q475 449 475 515 Q475 554 462.5 579.5 Q450 605 427.5 620 Q405 635 374 640.5 Q343 646 306 646 L250 646 L250 371 Q262 369 278.5 369 Q295 369 306 369 Z " />
<glyph glyph-name="S" unicode="S" horiz-adv-x="613" d="M326 -14 Q293 -14 265 -7.5 Q237 -1 214.5 8.5 Q192 18 174.5 30 Q157 42 146 53 L130 -6 L86 -6 L66 210 L123 215 Q140 168 162.5 136.5 Q185 105 210.5 85.5 Q236 66 264.5 58 Q293 50 323 50 Q386 50 419.5 80.5 Q453 111 453 165 Q453 200 440 224 Q427 248 405.5 264.5 Q384 281 355.5 292.5 Q327 304 296 314 Q260 326 223 340 Q186 354 157 376.5 Q128 399 109.5 433.5 Q91 468 91 521 Q91 558 104 593 Q117 628 143.5 655 Q170 682 210 698 Q250 714 305 714 Q348 714 387.5 699.5 Q427 685 453 662 L466 714 L513 714 L535 512 L479 504 Q466 550 447.5 580 Q429 610 407 627.5 Q385 645 360 652 Q335 659 308 659 Q256 659 222 629.5 Q188 600 188 549 Q188 517 201 495 Q214 473 235.5 457.5 Q257 442 285 431 Q313 420 343 409 Q380 396 417 381.5 Q454 367 483.5 344 Q513 321 531.5 287 Q550 253 550 200 Q550 163 537 124.5 Q524 86 496.5 55.5 Q469 25 427 5.5 Q385 -14 326 -14 Z " />
<glyph glyph-name="T" unicode="T" horiz-adv-x="738" d="M207 48 L287 60 Q309 63 314.5 75 Q320 87 320 110 L320 645 L265 645 Q228 645 202.5 638.5 Q177 632 159 614.5 Q141 597 126.5 566.5 Q112 536 96 487 L42 500 L81 700 L659 700 L696 500 L641 487 Q625 536 611.5 566.5 Q598 597 580 614.5 Q562 632 537.5 638.5 Q513 645 475 645 L419 645 L419 106 Q419 83 425 73.5 Q431 64 453 60 L532 48 L532 0 L207 0 L207 48 Z " />
<glyph glyph-name="U" unicode="U" horiz-adv-x="810" d="M404 -14 Q327 -14 276 7 Q225 28 194 65 Q163 102 150.5 153 Q138 204 138 265 L138 596 Q138 619 133 629 Q128 639 105 643 L49 652 L49 700 L325 700 L325 652 L267 643 Q246 639 241.5 627 Q237 615 237 592 L237 272 Q237 161 277.5 108.5 Q318 56 418 56 Q462 56 497 67.5 Q532 79 556.5 105.5 Q581 132 594 174.5 Q607 217 607 279 L607 596 Q607 619 602 629 Q597 639 574 643 L519 652 L519 700 L765 700 L765 652 L708 643 Q686 639 681.5 627 Q677 615 677 592 L677 291 Q677 132 606 59 Q535 -14 404 -14 Z " />
<glyph glyph-name="V" unicode="V" horiz-adv-x="739" d="M107 591 Q97 617 90.5 626.5 Q84 636 62 641 L22 649 L22 700 L286 700 L286 652 L231 645 Q211 642 206.5 631.5 Q202 621 212 595 L379 86 L383 86 L551 589 Q560 615 555 626 Q550 637 529 642 L480 653 L480 700 L717 700 L717 652 L668 644 Q650 640 642 629.5 Q634 619 623 590 L420 0 L314 0 L107 591 Z " />
<glyph glyph-name="W" unicode="W" horiz-adv-x="1084" d="M103 591 Q96 618 88 627 Q80 636 58 641 L18 649 L18 700 L282 700 L282 652 L231 645 Q211 642 206.5 632 Q202 622 208 595 L325 86 L330 86 L491 700 L600 700 L779 91 L784 91 L902 589 Q908 615 903.5 626 Q899 637 878 642 L829 653 L829 700 L1066 700 L1066 652 L1019 644 Q1001 641 990.5 630.5 Q980 620 972 590 L821 0 L708 0 L534 601 L531 601 L375 0 L255 0 L103 591 Z " />
<glyph glyph-name="X" unicode="X" horiz-adv-x="707" d="M15 50 L53 58 Q71 62 82 70 Q93 78 115 100 L298 340 L112 593 Q94 615 82.5 625 Q71 635 50 640 L15 648 L25 700 L269 700 L269 651 L229 644 Q209 641 209 629.5 Q209 618 223 601 L359 415 L487 597 Q504 618 502.5 627 Q501 636 479 641 L441 651 L451 700 L666 700 L666 650 L628 642 Q609 638 597.5 629.5 Q586 621 566 596 L396 364 L585 107 Q602 85 617 73.5 Q632 62 654 58 L692 52 L692 0 L423 0 L423 50 L468 56 Q508 61 476 100 L336 289 L196 99 Q183 82 182.5 73 Q182 64 204 59 L248 49 L248 0 L15 0 L15 50 Z " />
<glyph glyph-name="Y" unicode="Y" horiz-adv-x="708" d="M209 48 L271 57 Q293 61 297.5 73 Q302 85 302 108 L302 293 L115 591 Q100 615 88.5 626 Q77 637 55 642 L18 649 L18 700 L297 700 L297 652 L242 645 Q222 643 214.5 630.5 Q207 618 223 595 L369 358 L374 358 L512 591 Q528 614 522 625.5 Q516 637 495 642 L449 653 L449 700 L690 700 L690 652 L641 644 Q623 641 612 628 Q601 615 584 589 L401 292 L401 104 Q401 81 406 71 Q411 61 433 57 L494 48 L494 0 L209 0 L209 48 Z " />
<glyph glyph-name="Z" unicode="Z" horiz-adv-x="657" d="M58 48 L470 647 L256 647 Q225 647 205 639.5 Q185 632 171 616.5 Q157 601 147 575.5 Q137 550 126 514 L67 509 L79 700 L588 700 L588 650 L178 55 L389 55 Q421 55 443.5 62 Q466 69 483.5 86 Q501 103 514.5 130.5 Q528 158 542 199 L597 199 L578 0 L58 0 L58 48 Z " />
<glyph glyph-name="bracketleft" unicode="&#x5b;" horiz-adv-x="333" d="M105 812 L289 812 L293 763 L216 757 Q198 755 193 747 Q188 739 188 711 L188 -111 Q188 -139 193 -147 Q198 -155 216 -157 L293 -163 L289 -212 L105 -212 L105 812 Z " />
<glyph glyph-name="backslash" unicode="&#x5c;" horiz-adv-x="428" d="M20 802 L83 802 L408 -110 L344 -110 L20 802 Z " />
<glyph glyph-name="bracketright" unicode="&#x5d;" horiz-adv-x="333" d="M40 -163 L117 -157 Q135 -155 140 -147 Q145 -139 145 -111 L145 711 Q145 739 140 747 Q135 755 117 757 L40 763 L44 812 L228 812 L228 -212 L44 -212 L40 -163 Z " />
<glyph glyph-name="asciicircum" unicode="&#x5e;" horiz-adv-x="582" d="M48 374 L270 712 L312 712 L534 374 L485 344 L291 635 L97 344 L48 374 Z " />
<glyph glyph-name="underscore" unicode="&#x5f;" horiz-adv-x="500" d="M15 -40 L485 -40 L485 -103 L15 -103 L15 -40 Z " />
<glyph glyph-name="grave" unicode="&#x60;" horiz-adv-x="500" d="M171 672 Q154 683 145 695.5 Q136 708 136 725 Q136 744 149 760 Q162 776 184 776 Q195 776 203 769 Q211 762 223 747 L328 605 L304 580 L171 672 Z " />
<glyph glyph-name="a" unicode="a" horiz-adv-x="539" d="M192 -14 Q168 -14 143 -7 Q118 0 98 16 Q78 32 65 58 Q52 84 52 121 Q52 187 93.5 224 Q135 261 207 272 Q237 277 273 279.5 Q309 282 339 284 L339 352 Q339 420 310 445 Q281 470 231 470 Q199 470 174 460.5 Q149 451 139 440 Q147 427 156 411 Q165 395 165 384 Q165 367 150.5 353 Q136 339 111 339 Q79 339 66.5 355 Q54 371 54 391 Q54 418 70 441.5 Q86 465 112.5 483 Q139 501 173.5 511 Q208 521 245 521 Q284 521 318 513 Q352 505 377.5 485 Q403 465 417.5 430 Q432 395 432 341 L432 100 Q432 38 524 64 L534 26 Q514 6 487.5 -4 Q461 -14 442 -14 Q392 -14 371.5 12 Q351 38 347 75 Q320 32 283 9 Q246 -14 192 -14 Z M230 55 Q245 55 264 60 Q283 65 299.5 77 Q316 89 327.5 109.5 Q339 130 339 161 L339 232 Q310 232 285 229 Q260 226 242 223 Q215 219 197 210 Q179 201 168.5 188 Q158 175 153.5 160.5 Q149 146 149 132 Q149 90 173.5 72.5 Q198 55 230 55 Z " />
<glyph glyph-name="b" unicode="b" horiz-adv-x="607" d="M104 -6 L104 644 Q104 676 97.5 688 Q91 700 61 704 L17 711 L23 761 L186 766 L197 755 L197 427 Q209 445 224 462 Q239 479 259 492 Q279 505 305.5 513 Q332 521 368 521 Q458 521 509.5 456 Q561 391 561 271 Q561 130 498.5 58 Q436 -14 328 -14 Q281 -14 244 -2.5 Q207 9 177 31 L130 -14 L104 -6 Z M321 49 Q357 49 383 64.5 Q409 80 426 108 Q443 136 451.5 174 Q460 212 460 257 Q460 299 453.5 334.5 Q447 370 432 395.5 Q417 421 393.5 435 Q370 449 336 449 Q310 449 285 442 Q260 435 240.5 418 Q221 401 209 373 Q197 345 197 303 L197 96 Q220 74 252.5 61.5 Q285 49 321 49 Z " />
<glyph glyph-name="c" unicode="c" horiz-adv-x="500" d="M283 -14 Q224 -14 179.5 6.5 Q135 27 105.5 62 Q76 97 61.5 144.5 Q47 192 47 247 Q47 311 65 362 Q83 413 115.5 448 Q148 483 193 502 Q238 521 291 521 Q329 521 361.5 511 Q394 501 418 484 Q442 467 456 443 Q470 419 470 390 Q470 364 454.5 344.5 Q439 325 404 325 Q372 325 358.5 339 Q345 353 345 373 Q345 385 351 400 Q357 415 373 441 Q348 457 327 461 Q306 465 283 465 Q254 465 229 451 Q204 437 186 411 Q168 385 158 348.5 Q148 312 148 268 Q148 171 191.5 117 Q235 63 308 63 Q354 63 385.5 79 Q417 95 437 115 L471 80 Q443 42 394.5 14 Q346 -14 283 -14 Z " />
<glyph glyph-name="d" unicode="d" horiz-adv-x="614" d="M252 -14 Q153 -14 100 53 Q47 120 47 238 Q47 303 64 355.5 Q81 408 112.5 444.5 Q144 481 189 501 Q234 521 291 521 Q333 521 365 510 Q397 499 414 488 L414 644 Q414 676 407.5 688 Q401 700 371 704 L327 711 L333 761 L496 766 L507 755 L507 98 Q507 75 513 66 Q519 57 540 53 L589 44 L589 -3 L435 -9 L421 70 L418 70 Q408 58 394 43 Q380 28 360.5 15.5 Q341 3 314 -5.5 Q287 -14 252 -14 Z M281 58 Q304 58 327.5 66.5 Q351 75 370.5 93 Q390 111 402 140.5 Q414 170 414 212 L414 413 Q385 436 352 445 Q319 454 289 454 Q250 454 223 439.5 Q196 425 179 398 Q162 371 154 333 Q146 295 146 248 Q146 208 153 173.5 Q160 139 176 113.5 Q192 88 218 73 Q244 58 281 58 Z " />
<glyph glyph-name="e" unicode="e" horiz-adv-x="520" d="M286 -14 Q227 -14 182 6.5 Q137 27 107 62 Q77 97 62 144.5 Q47 192 47 247 Q47 311 65 362 Q83 413 115.5 448 Q148 483 193 502 Q238 521 291 521 Q330 521 363.5 509 Q397 497 421.5 474.5 Q446 452 460.5 419 Q475 386 475 344 Q475 296 461 246 L148 246 Q151 161 192 110.5 Q233 60 309 60 Q360 60 394 80 Q428 100 447 120 L482 85 Q468 66 448 48.5 Q428 31 403.5 17 Q379 3 349 -5.5 Q319 -14 286 -14 Z M378 302 Q381 322 381 348 Q381 408 354.5 438 Q328 468 280 468 Q244 468 220 453 Q196 438 181 414.5 Q166 391 158.5 361.5 Q151 332 148 302 L378 302 Z " />
<glyph glyph-name="f" unicode="f" horiz-adv-x="387" d="M41 48 L98 57 Q120 61 124.5 73 Q129 85 129 108 L129 444 L49 444 L49 494 L129 504 L129 545 Q129 654 175.5 718 Q222 782 313 782 Q342 782 367.5 775.5 Q393 769 412 757 Q431 745 442 727 Q453 709 453 686 Q453 660 437.5 640 Q422 620 393 620 Q364 620 351 631 Q338 642 338 659 Q338 670 343 681 Q348 692 363 718 Q352 724 336 727 Q320 730 309 730 Q264 730 243 700 Q222 670 222 599 L222 507 L368 507 L368 444 L222 444 L222 104 Q222 83 227.5 72.5 Q233 62 254 59 L341 48 L341 0 L41 0 L41 48 Z " />
<glyph glyph-name="g" unicode="g" horiz-adv-x="558" d="M254 -229 Q188 -229 144 -220 Q100 -211 73.5 -194.5 Q47 -178 36 -155.5 Q25 -133 25 -106 Q25 -64 49 -38 Q73 -12 116 8 L116 12 Q84 22 71 46.5 Q58 71 58 89 Q58 120 74 144 Q90 168 123 203 L123 206 Q88 224 68.5 258 Q49 292 49 343 Q49 384 64 417 Q79 450 106.5 473 Q134 496 172 508.5 Q210 521 256 521 Q292 521 325.5 513 Q359 505 386 488 Q400 526 425.5 554 Q451 582 490 582 Q515 582 536 568.5 Q557 555 557 529 Q557 506 539.5 489.5 Q522 473 500 473 Q485 473 475.5 480.5 Q466 488 460 500 L450 521 Q439 504 432.5 488 Q426 472 421 458 Q438 438 448.5 410.5 Q459 383 459 348 Q459 307 444 274.5 Q429 242 402 219.5 Q375 197 338 185.5 Q301 174 257 174 Q241 174 217 176.5 Q193 179 176 184 Q164 170 154 155.5 Q144 141 144 124 Q144 100 161.5 91.5 Q179 83 214 83 L342 83 Q378 83 410 78 Q442 73 466 59 Q490 45 504.5 20 Q519 -5 519 -46 Q519 -95 498.5 -130 Q478 -165 442 -187 Q406 -209 357.5 -219 Q309 -229 254 -229 Z M255 227 Q309 227 336.5 258 Q364 289 364 345 Q364 403 335 436.5 Q306 470 249 470 Q219 470 199 460.5 Q179 451 167 434.5 Q155 418 149.5 396 Q144 374 144 348 Q144 288 175.5 257.5 Q207 227 255 227 Z M262 -166 Q342 -166 383 -140 Q424 -114 424 -70 Q424 -8 331 -8 L163 -8 Q144 -22 130.5 -42 Q117 -62 117 -91 Q117 -133 151 -149.5 Q185 -166 262 -166 Z " />
<glyph glyph-name="h" unicode="h" horiz-adv-x="662" d="M55 47 L101 56 Q121 60 125 71.5 Q129 83 129 104 L129 644 Q129 676 122.5 688 Q116 700 86 704 L42 711 L48 761 L211 766 L222 755 L222 428 Q232 446 248 462.5 Q264 479 285.5 492 Q307 505 333 513 Q359 521 389 521 Q436 521 467 507 Q498 493 517.5 470 Q537 447 545 416 Q553 385 553 350 L553 96 Q553 76 558 67.5 Q563 59 584 55 L631 47 L631 0 L386 0 L386 46 L430 54 Q450 58 455 66.5 Q460 75 460 96 L460 321 Q460 348 457.5 371 Q455 394 444.5 411.5 Q434 429 414.5 439 Q395 449 360 449 Q334 449 309.5 441 Q285 433 265.5 416.5 Q246 400 234 373.5 Q222 347 222 310 L222 100 Q222 79 226 69.5 Q230 60 247 57 L300 46 L300 0 L55 0 L55 47 Z " />
<glyph glyph-name="i" unicode="i" horiz-adv-x="333" d="M160 620 Q131 620 112 638.5 Q93 657 93 686 Q93 715 112 734 Q131 753 160 753 Q190 753 209 734.5 Q228 716 228 687 Q228 658 209 639 Q190 620 160 620 Z M40 49 L97 58 Q120 62 124 74 Q128 86 128 109 L128 382 Q128 416 122.5 429 Q117 442 92 445 L44 452 L51 502 L209 510 L221 505 L221 105 Q221 84 226 73 Q231 62 253 58 L309 48 L309 0 L40 0 L40 49 Z " />
<glyph glyph-name="j" unicode="j" horiz-adv-x="309" d="M153 620 Q124 620 105 638.5 Q86 657 86 686 Q86 715 105 734 Q124 753 153 753 Q183 753 202 734.5 Q221 716 221 687 Q221 658 202 639 Q183 620 153 620 Z M34 -188 Q85 -148 103 -96.5 Q121 -45 121 28 L121 382 Q121 416 115.5 429 Q110 442 85 445 L37 452 L45 502 L202 510 L214 505 L214 95 Q214 27 206.5 -23.5 Q199 -74 181 -112 Q163 -150 134 -178 Q105 -206 62 -229 L34 -188 Z " />
<glyph glyph-name="k" unicode="k" horiz-adv-x="610" d="M43 48 L100 57 Q123 61 127 73 Q131 85 131 108 L131 644 Q131 676 124.5 688 Q118 700 88 704 L44 711 L49 761 L213 766 L224 755 L224 104 Q224 83 228.5 72.5 Q233 62 251 57 L287 49 L287 0 L43 0 L43 48 Z M528 -9 Q504 -9 487 -4.5 Q470 0 456 9.5 Q442 19 428.5 33 Q415 47 400 65 L231 266 L231 274 L390 417 Q404 430 402.5 441 Q401 452 390 454 L345 461 L354 507 L578 507 L578 462 L549 454 Q532 449 514 439.5 Q496 430 479 416 L330 290 L496 101 Q511 84 527.5 71.5 Q544 59 569 59 Q584 59 608 67 L618 31 Q598 11 574.5 1 Q551 -9 528 -9 Z " />
<glyph glyph-name="l" unicode="l" horiz-adv-x="333" d="M40 49 L97 58 Q120 62 124 74 Q128 86 128 109 L128 643 Q128 675 121.5 687 Q115 699 85 703 L41 710 L47 761 L210 766 L221 755 L221 105 Q221 84 226 73 Q231 62 253 58 L309 48 L309 0 L40 0 L40 49 Z " />
<glyph glyph-name="m" unicode="m" horiz-adv-x="970" d="M55 47 L103 56 Q123 60 126 71.5 Q129 83 129 104 L129 386 Q129 420 123.5 432 Q118 444 95 448 L46 455 L53 503 L192 514 L204 507 L211 418 L214 418 Q224 436 240 454 Q256 472 277.5 487 Q299 502 325.5 511.5 Q352 521 383 521 Q449 521 484 491.5 Q519 462 533 416 Q543 435 559 454 Q575 473 597 488 Q619 503 645.5 512 Q672 521 703 521 Q747 521 777.5 507 Q808 493 826.5 470 Q845 447 853 416 Q861 385 861 350 L861 96 Q861 76 866 67.5 Q871 59 892 55 L939 47 L939 0 L702 0 L702 46 L738 54 Q758 58 763 66.5 Q768 75 768 96 L768 321 Q768 348 765.5 371 Q763 394 753.5 411.5 Q744 429 725 439 Q706 449 674 449 Q650 449 626.5 441 Q603 433 584.5 416.5 Q566 400 554 373.5 Q542 347 542 310 L542 100 Q542 79 545.5 70 Q549 61 566 57 L612 46 L612 0 L382 0 L382 46 L418 54 Q438 58 443 66.5 Q448 75 448 96 L448 321 Q448 348 445.5 371 Q443 394 433.5 411.5 Q424 429 405.5 439 Q387 449 354 449 Q330 449 306.5 441 Q283 433 264.5 416.5 Q246 400 234 373.5 Q222 347 222 310 L222 100 Q222 79 226 69.5 Q230 60 247 57 L292 46 L292 0 L55 0 L55 47 Z " />
<glyph glyph-name="n" unicode="n" horiz-adv-x="662" d="M55 47 L103 56 Q123 60 126 71.5 Q129 83 129 104 L129 386 Q129 420 123.5 432 Q118 444 95 448 L46 455 L53 503 L192 514 L204 507 L211 418 L214 418 Q224 436 240.5 454 Q257 472 279 487 Q301 502 328.5 511.5 Q356 521 389 521 Q436 521 467 507 Q498 493 517.5 470 Q537 447 545 416 Q553 385 553 350 L553 96 Q553 76 558 67.5 Q563 59 584 55 L631 47 L631 0 L386 0 L386 46 L430 54 Q450 58 455 66.5 Q460 75 460 96 L460 321 Q460 348 457.5 371 Q455 394 444.5 411.5 Q434 429 414.5 439 Q395 449 360 449 Q334 449 309.5 441 Q285 433 265.5 416.5 Q246 400 234 373.5 Q222 347 222 310 L222 100 Q222 79 226 69.5 Q230 60 247 57 L300 46 L300 0 L55 0 L55 47 Z " />
<glyph glyph-name="o" unicode="o" horiz-adv-x="587" d="M290 -14 Q231 -14 185.5 5.5 Q140 25 109.5 59 Q79 93 63 140 Q47 187 47 242 Q47 317 68.5 370 Q90 423 126 456.5 Q162 490 208.5 505.5 Q255 521 304 521 Q354 521 397 505 Q440 489 472 457.5 Q504 426 522.5 378 Q541 330 541 267 Q541 199 522 146.5 Q503 94 469 58.5 Q435 23 389.5 4.5 Q344 -14 290 -14 Z M304 48 Q368 48 403.5 97 Q439 146 439 243 Q439 348 398 405 Q357 462 288 462 Q227 462 187.5 417.5 Q148 373 148 272 Q148 169 188.5 108.5 Q229 48 304 48 Z " />
<glyph glyph-name="p" unicode="p" horiz-adv-x="618" d="M34 -171 L82 -163 Q99 -160 105 -148.5 Q111 -137 111 -116 L111 384 Q111 418 105.5 431.5 Q100 445 74 449 L28 455 L36 504 L173 514 L187 508 L193 418 L196 418 Q209 437 225 455.5 Q241 474 262.5 488.5 Q284 503 312 512 Q340 521 377 521 Q467 521 519 456 Q571 391 571 271 Q571 131 507.5 58.5 Q444 -14 337 -14 Q290 -14 255.5 -3 Q221 8 204 19 L204 -113 Q204 -137 211 -148 Q218 -159 236 -162 L297 -172 L297 -219 L34 -219 L34 -171 Z M330 52 Q366 52 392 67 Q418 82 435.5 109.5 Q453 137 461.5 174.5 Q470 212 470 257 Q470 300 463.5 335.5 Q457 371 442 396.5 Q427 422 403 436 Q379 450 345 450 Q319 450 294 442.5 Q269 435 249 418 Q229 401 216.5 373 Q204 345 204 303 L204 95 Q227 74 262.5 63 Q298 52 330 52 Z " />
<glyph glyph-name="q" unicode="q" horiz-adv-x="601" d="M321 -171 L382 -161 Q400 -158 407 -147 Q414 -136 414 -112 L414 71 Q389 38 350 12 Q311 -14 248 -14 Q204 -14 167 3 Q130 20 103.5 52 Q77 84 62 130.5 Q47 177 47 237 Q47 307 66 360 Q85 413 118 449 Q151 485 195.5 503 Q240 521 291 521 Q333 521 368.5 509.5 Q404 498 434 478 L479 521 L507 513 L507 -115 Q507 -136 513 -147.5 Q519 -159 536 -162 L584 -170 L584 -219 L321 -219 L321 -171 Z M281 58 Q305 58 329 67 Q353 76 372 95 Q391 114 402.5 142 Q414 170 414 207 L414 414 Q391 433 358.5 444 Q326 455 290 455 Q251 455 223.5 440.5 Q196 426 179 399 Q162 372 154 334 Q146 296 146 249 Q146 161 178 109.5 Q210 58 281 58 Z " />
<glyph glyph-name="r" unicode="r" horiz-adv-x="473" d="M55 48 L103 57 Q122 61 125.5 72.5 Q129 84 129 105 L129 385 Q129 419 123.5 431 Q118 443 95 447 L46 454 L53 503 L188 514 L200 507 L211 417 L214 417 Q224 435 238 453.5 Q252 472 270 487 Q288 502 311 511.5 Q334 521 363 521 Q406 521 436 497.5 Q466 474 466 425 Q466 387 450 366.5 Q434 346 399 346 Q370 346 355 358 Q340 370 340 390 Q340 400 344 412.5 Q348 425 359 448 Q337 460 312.5 451.5 Q288 443 268 422 Q248 401 235 370 Q222 339 222 306 L222 103 Q222 82 225.5 72.5 Q229 63 247 60 L333 47 L333 0 L55 0 L55 48 Z " />
<glyph glyph-name="s" unicode="s" horiz-adv-x="452" d="M49 158 L105 162 Q117 127 133.5 104.5 Q150 82 168.5 69 Q187 56 206.5 51 Q226 46 245 46 Q286 46 312.5 67 Q339 88 339 130 Q339 162 318.5 178.5 Q298 195 267 205.5 Q236 216 200 225 Q164 234 133 250.5 Q102 267 81.5 295 Q61 323 61 371 Q61 436 105 478.5 Q149 521 233 521 Q265 521 295 511.5 Q325 502 343 487 L351 521 L395 521 L408 358 L351 363 Q340 414 306.5 440.5 Q273 467 235 467 Q193 467 169 449 Q145 431 145 394 Q145 363 165.5 346.5 Q186 330 217 319.5 Q248 309 283.5 299.5 Q319 290 350 273.5 Q381 257 401.5 228.5 Q422 200 422 152 Q422 120 411 90 Q400 60 377.5 37 Q355 14 321.5 0 Q288 -14 243 -14 Q197 -14 166 -3 Q135 8 118 20 L107 -14 L65 -14 L49 158 Z " />
<glyph glyph-name="t" unicode="t" horiz-adv-x="404" d="M249 -14 Q211 -14 185.5 -3.5 Q160 7 144.5 26.5 Q129 46 122.5 73.5 Q116 101 116 135 L116 444 L37 444 L37 496 Q96 501 119 546.5 Q142 592 148 674 L196 680 L209 674 L209 507 L365 507 L365 444 L209 444 L209 142 Q209 59 280 59 Q309 59 332 68 Q355 77 376 91 L399 55 Q373 28 334.5 7 Q296 -14 249 -14 Z " />
<glyph glyph-name="u" unicode="u" horiz-adv-x="634" d="M265 -14 Q219 -14 188 0 Q157 14 138.5 37 Q120 60 112.5 91.5 Q105 123 105 157 L105 386 Q105 420 99.5 432 Q94 444 71 448 L27 455 L35 503 L186 514 L198 507 L198 186 Q198 159 200 136 Q202 113 211.5 95.5 Q221 78 240.5 68 Q260 58 294 58 Q320 58 344.5 66 Q369 74 387.5 90.5 Q406 107 417.5 133.5 Q429 160 429 197 L429 386 Q429 420 423.5 432 Q418 444 395 448 L350 455 L358 503 L510 514 L522 507 L522 101 Q522 78 528 69 Q534 60 554 56 L604 47 L604 0 L449 -6 L435 75 L432 75 Q403 40 364.5 13 Q326 -14 265 -14 Z " />
<glyph glyph-name="v" unicode="v" horiz-adv-x="592" d="M91 399 Q81 425 74.5 435 Q68 445 47 450 L12 458 L22 507 L260 507 L260 461 L212 454 Q192 451 187.5 440.5 Q183 430 193 404 L309 83 L314 83 L429 397 Q438 423 433 434.5 Q428 446 406 451 L362 461 L372 507 L580 507 L580 460 L543 452 Q524 448 516 437.5 Q508 427 497 398 L342 0 L246 0 L91 399 Z " />
<glyph glyph-name="w" unicode="w" horiz-adv-x="860" d="M86 399 Q78 426 70.5 435.5 Q63 445 42 450 L7 458 L17 507 L252 507 L252 461 L204 454 Q184 451 180.5 441 Q177 431 184 404 L272 83 L277 83 L393 507 L500 507 L612 85 L617 85 L704 397 Q712 423 707.5 434.5 Q703 446 681 451 L638 461 L647 507 L853 507 L853 460 L816 452 Q797 448 788 438 Q779 428 770 398 L649 0 L544 0 L435 412 L430 412 L319 0 L209 0 L86 399 Z " />
<glyph glyph-name="x" unicode="x" horiz-adv-x="567" d="M9 47 L47 55 Q65 59 76 67 Q87 75 109 97 L230 247 L104 403 Q86 425 74.5 435 Q63 445 42 450 L7 458 L17 507 L257 507 L257 461 L217 454 Q197 451 197 439.5 Q197 428 211 411 L295 306 L372 407 Q389 428 387.5 437 Q386 446 364 451 L326 461 L336 507 L541 507 L541 460 L503 452 Q484 448 472.5 439.5 Q461 431 441 406 L328 264 L457 104 Q474 82 489 70.5 Q504 59 526 55 L564 49 L564 0 L299 0 L299 47 L344 53 Q384 58 352 97 L264 205 L180 96 Q167 79 166.5 70 Q166 61 188 56 L232 46 L232 0 L9 0 L9 47 Z " />
<glyph glyph-name="y" unicode="y" horiz-adv-x="576" d="M113 -229 Q57 -229 33.5 -204 Q10 -179 10 -149 Q10 -118 29.5 -100 Q49 -82 75 -82 Q95 -82 110.5 -90 Q126 -98 128 -118 Q129 -126 127.5 -140.5 Q126 -155 124 -175 Q159 -177 181 -146.5 Q203 -116 233 -50 L258 7 L93 399 Q87 412 83.5 420.5 Q80 429 75.5 434.5 Q71 440 65.5 443.5 Q60 447 49 450 L14 458 L24 507 L262 507 L262 461 L214 454 Q194 451 189.5 440.5 Q185 430 195 404 L306 124 L311 124 L422 397 Q431 423 426 434.5 Q421 446 399 451 L355 461 L365 507 L574 507 L574 460 L537 452 Q518 448 510.5 437.5 Q503 427 490 398 L297 -54 Q282 -89 266.5 -120.5 Q251 -152 230 -176 Q209 -200 181 -214.5 Q153 -229 113 -229 Z " />
<glyph glyph-name="z" unicode="z" horiz-adv-x="486" d="M37 44 L336 454 L219 454 Q189 454 170 450 Q151 446 138.5 434 Q126 422 116.5 400.5 Q107 379 97 345 L40 340 L52 507 L445 507 L445 461 L147 55 L265 55 Q300 55 320.5 60 Q341 65 355 78.5 Q369 92 380 116.5 Q391 141 405 181 L459 181 L445 0 L37 0 L37 44 Z " />
<glyph glyph-name="braceleft" unicode="&#x7b;" horiz-adv-x="372" d="M263 -227 Q200 -227 165 -194.5 Q130 -162 130 -106 Q130 -83 133 -45.5 Q136 -8 139.5 33.5 Q143 75 146 115 Q149 155 149 182 Q149 214 142 233 Q135 252 122 262 Q109 272 92 275 Q75 278 55 278 L55 335 Q75 335 92 338 Q109 341 122 350.5 Q135 360 142 379 Q149 398 149 431 Q149 459 146 496 Q143 533 139.5 571 Q136 609 133 644 Q130 679 130 703 Q130 758 162.5 790 Q195 822 255 822 Q273 822 293 819.5 Q313 817 327 813 L317 764 Q306 766 293.5 767 Q281 768 268 768 Q249 768 235.5 756.5 Q222 745 222 702 Q222 685 224.5 651.5 Q227 618 230.5 579.5 Q234 541 236.5 503 Q239 465 239 440 Q239 404 229 381 Q219 358 203.5 343.5 Q188 329 168.5 321.5 Q149 314 129 308 Q149 302 168.5 293.5 Q188 285 204 270 Q220 255 229.5 232 Q239 209 239 174 Q239 150 236.5 109 Q234 68 230.5 26 Q227 -16 224.5 -52 Q222 -88 222 -103 Q222 -146 238 -159.5 Q254 -173 277 -173 Q288 -173 301 -172 Q314 -171 325 -169 L335 -218 Q302 -227 263 -227 Z " />
<glyph glyph-name="bar" unicode="&#x7c;" horiz-adv-x="424" d="M181 802 L243 802 L243 -110 L181 -110 L181 802 Z " />
<glyph glyph-name="braceright" unicode="&#x7d;" horiz-adv-x="372" d="M109 -227 Q70 -227 37 -218 L47 -169 Q58 -171 71 -172 Q84 -173 95 -173 Q118 -173 134 -159.5 Q150 -146 150 -103 Q150 -88 147.5 -52 Q145 -16 141.5 26 Q138 68 135.5 109 Q133 150 133 174 Q133 209 142.5 232 Q152 255 168 270 Q184 285 203.5 293.5 Q223 302 243 308 Q224 314 204 321.5 Q184 329 168.5 343.5 Q153 358 143 381 Q133 404 133 440 Q133 465 135.5 503 Q138 541 141.5 579.5 Q145 618 147.5 651.5 Q150 685 150 702 Q150 745 136.5 756.5 Q123 768 104 768 Q91 768 78.5 767 Q66 766 55 764 L45 813 Q59 817 79 819.5 Q99 822 117 822 Q177 822 209.5 790 Q242 758 242 703 Q242 679 239 644 Q236 609 232.5 571 Q229 533 226 496 Q223 459 223 431 Q223 398 230 379 Q237 360 250 350.5 Q263 341 280 338 Q297 335 317 335 L317 278 Q297 278 280 275 Q263 272 250 262 Q237 252 230 233 Q223 214 223 182 Q223 155 226 115 Q229 75 232.5 33.5 Q236 -8 239 -45.5 Q242 -83 242 -106 Q242 -162 207 -194.5 Q172 -227 109 -227 Z " />
<glyph glyph-name="asciitilde" unicode="&#x7e;" horiz-adv-x="582" d="M65 258 Q77 285 87.5 303 Q98 321 109 331.5 Q120 342 132.5 346 Q145 350 162 350 Q186 350 220.5 343.5 Q255 337 292 329 Q329 321 363 314.5 Q397 308 421 308 Q435 308 443.5 317.5 Q452 327 466 352 L518 333 Q505 303 494 285 Q483 267 472 257 Q461 247 448.5 244 Q436 241 421 241 Q396 241 362 247.5 Q328 254 292.5 262 Q257 270 223 276.5 Q189 283 165 283 Q150 283 141.5 275.5 Q133 268 117 239 L65 258 Z " />
<glyph glyph-name="uni00A0" unicode="&#xa0;" horiz-adv-x="180" d="" />
<glyph glyph-name="exclamdown" unicode="&#xa1;" horiz-adv-x="330" d="M154 521 Q185 521 205 501.5 Q225 482 225 452 Q225 420 205 400.5 Q185 381 154 381 Q123 381 103.5 400.5 Q84 420 84 451 Q84 481 103.5 501 Q123 521 154 521 Z M183 242 Q183 183 189 127 Q195 71 201.5 21.5 Q208 -28 214 -69.5 Q220 -111 220 -142 Q220 -176 199.5 -191.5 Q179 -207 150 -207 Q121 -207 103.5 -191 Q86 -175 86 -143 Q86 -115 92.5 -75.5 Q99 -36 106.5 13.5 Q114 63 120.5 121 Q127 179 127 243 L127 314 L183 314 L183 242 Z " />
<glyph glyph-name="cent" unicode="&#xa2;" horiz-adv-x="500" d="M462 123 Q437 90 393.5 63.5 Q350 37 286 37 Q275 37 265.5 37.5 Q256 38 247 39 L233 -29 L183 -29 L199 50 Q133 73 99 129 Q65 185 65 265 Q65 321 82 365 Q99 409 129 439.5 Q159 470 200.5 486 Q242 502 291 503 L304 568 L354 568 L340 499 Q391 489 426 459.5 Q461 430 461 384 Q461 361 447.5 344 Q434 327 403 327 Q374 327 364.5 339.5 Q355 352 355 370 Q355 380 359.5 391 Q364 402 378 425 Q364 433 352.5 438 Q341 443 329 446 L262 115 Q283 109 308 109 Q354 109 383.5 124.5 Q413 140 430 157 L462 123 Z M161 283 Q161 233 174.5 196 Q188 159 217 137 L280 450 Q220 446 190.5 401 Q161 356 161 283 Z " />
<glyph glyph-name="sterling" unicode="&#xa3;" horiz-adv-x="553" d="M39 46 Q72 59 95.5 73 Q119 87 135 105.5 Q151 124 158.5 149.5 Q166 175 166 211 Q166 238 157 262.5 Q148 287 136 312 L27 312 L34 368 L109 368 Q95 397 85 432 Q75 467 75 509 Q75 557 91 595 Q107 633 136.5 659.5 Q166 686 208 700.5 Q250 715 302 715 Q342 715 374.5 705 Q407 695 430.5 677.5 Q454 660 466.5 636 Q479 612 479 583 Q479 557 463.5 537.5 Q448 518 413 518 Q381 518 367.5 532 Q354 546 354 566 Q354 578 360 593 Q366 608 382 634 Q362 647 338 653 Q314 659 295 659 Q261 659 238 649 Q215 639 201 621.5 Q187 604 181.5 581 Q176 558 176 532 Q176 484 189.5 443.5 Q203 403 220 368 L423 368 L423 312 L246 312 Q259 277 260 248 Q261 205 242 159.5 Q223 114 178 81 L180 77 L307 77 Q343 77 366 80.5 Q389 84 404.5 95 Q420 106 431.5 126 Q443 146 456 178 L510 178 L486 0 L47 0 L39 46 Z " />
<glyph glyph-name="currency" unicode="&#xa4;" horiz-adv-x="539" d="M367 162 Q345 148 319.5 142 Q294 136 268 136 Q209 136 168 160 L86 96 L56 126 L120 208 Q94 249 94 312 Q94 375 120 416 L55 500 L85 530 L167 465 Q190 480 217.5 487.5 Q245 495 274 495 Q300 495 325.5 489 Q351 483 373 470 L454 533 L484 503 L421 423 Q433 403 439.5 378 Q446 353 446 321 Q446 286 438.5 258 Q431 230 417 209 L483 125 L453 95 L367 162 Z M268 189 Q322 189 347 222.5 Q372 256 372 317 Q372 382 345.5 411 Q319 440 272 440 Q224 440 196 409.5 Q168 379 168 315 Q168 255 194 222 Q220 189 268 189 Z " />
<glyph glyph-name="yen" unicode="&#xa5;" horiz-adv-x="595" d="M163 48 L227 55 Q245 58 249 68 Q253 78 253 97 L253 158 L90 158 L96 212 L253 212 L253 242 L229 276 L90 276 L96 330 L191 330 L101 459 Q89 479 79 487.5 Q69 496 51 500 L20 506 L20 554 L257 554 L257 507 L218 502 Q201 500 195.5 491 Q190 482 202 462 L314 303 L318 303 L431 459 Q443 477 438.5 486.5 Q434 496 417 500 L378 508 L378 554 L584 554 L584 508 L543 502 Q529 500 519 489 Q509 478 495 457 L408 330 L509 330 L509 276 L372 276 L351 245 L351 212 L509 212 L509 158 L351 158 L351 93 Q351 74 355 66 Q359 58 378 55 L441 48 L441 0 L163 0 L163 48 Z " />
<glyph glyph-name="brokenbar" unicode="&#xa6;" horiz-adv-x="424" d="M181 803 L242 803 L242 432 L181 432 L181 803 Z M181 289 L242 289 L242 -110 L181 -110 L181 289 Z " />
<glyph glyph-name="section" unicode="&#xa7;" horiz-adv-x="618" d="M278 -156 Q214 -156 172 -131.5 Q130 -107 130 -60 Q130 -34 145.5 -12.5 Q161 9 192 9 Q221 9 234 -2 Q247 -13 247 -30 Q247 -41 242 -52 Q237 -63 222 -89 Q233 -95 250 -98 Q267 -101 286 -101 Q330 -101 357.5 -79.5 Q385 -58 385 -17 Q385 8 372.5 29 Q360 50 339 69 Q318 88 291.5 105.5 Q265 123 236 141 Q205 161 174 182 Q143 203 119 229 Q95 255 80 286 Q65 317 65 356 Q65 374 70 393.5 Q75 413 86 432 Q97 451 116 467.5 Q135 484 163 497 Q158 510 155.5 526 Q153 542 153 558 Q153 593 166 621.5 Q179 650 202.5 670.5 Q226 691 257.5 702.5 Q289 714 326 714 Q355 714 380.5 707.5 Q406 701 425.5 689 Q445 677 456.5 659 Q468 641 468 618 Q468 592 451.5 571 Q435 550 406 550 Q377 550 364 561 Q351 572 351 589 Q351 600 356 611 Q361 622 376 648 Q365 654 349 657 Q333 660 322 660 Q279 660 256 639.5 Q233 619 233 581 Q233 554 246 531.5 Q259 509 281 489.5 Q303 470 330.5 452 Q358 434 388 416 Q418 397 448 376 Q478 355 501 330 Q524 305 538.5 274.5 Q553 244 553 206 Q553 188 548 168 Q543 148 531 128.5 Q519 109 500 91 Q481 73 454 60 Q465 32 465 1 Q465 -34 451.5 -62.5 Q438 -91 413.5 -112 Q389 -133 354.5 -144.5 Q320 -156 278 -156 Z M429 104 Q452 121 461.5 143 Q471 165 471 185 Q471 207 461.5 226 Q452 245 436 261.5 Q420 278 399 293 Q378 308 354 323 Q309 352 263 382 Q217 412 187 453 Q164 436 155.5 416 Q147 396 147 376 Q147 352 157.5 332 Q168 312 186 294 Q204 276 227.5 259 Q251 242 277 225 Q319 199 360 170 Q401 141 429 104 Z " />
<glyph glyph-name="dieresis" unicode="&#xa8;" horiz-adv-x="500" d="M149 620 Q122 620 104 637.5 Q86 655 86 682 Q86 709 104 727 Q122 745 149 745 Q178 745 196 727.5 Q214 710 214 683 Q214 656 196 638 Q178 620 149 620 Z M348 620 Q320 620 302 637.5 Q284 655 284 682 Q284 709 302 727 Q320 745 348 745 Q376 745 394 727.5 Q412 710 412 683 Q412 656 394 638 Q376 620 348 620 Z " />
<glyph glyph-name="copyright" unicode="&#xa9;" horiz-adv-x="795" d="M397 -12 Q312 -12 249 12.5 Q186 37 144 80.5 Q102 124 81 183 Q60 242 60 311 Q60 390 87 452.5 Q114 515 160.5 558 Q207 601 268.5 624 Q330 647 399 647 Q475 647 537 624.5 Q599 602 643 560 Q687 518 711 458.5 Q735 399 735 325 Q735 249 711 187 Q687 125 642.5 81 Q598 37 536 12.5 Q474 -12 397 -12 Z M399 40 Q463 40 514 60 Q565 80 601 117 Q637 154 656 205 Q675 256 675 319 Q675 385 654.5 436.5 Q634 488 597.5 523 Q561 558 510 576.5 Q459 595 399 595 Q339 595 288.5 575.5 Q238 556 201 519 Q164 482 143 430 Q122 378 122 312 Q122 250 141 200 Q160 150 195.5 114.5 Q231 79 282.5 59.5 Q334 40 399 40 Z M409 106 Q360 106 323.5 123 Q287 140 263 169 Q239 198 227 235.5 Q215 273 215 313 Q215 361 229.5 399.5 Q244 438 268.5 464.5 Q293 491 327 505 Q361 519 400 519 Q432 519 456 508 Q480 497 491 488 L496 520 L527 520 L549 388 L509 381 Q492 432 467 452 Q442 472 401 472 Q355 472 325.5 430.5 Q296 389 296 314 Q296 282 304.5 253.5 Q313 225 328.5 203 Q344 181 366 168.5 Q388 156 415 156 Q453 156 477.5 171.5 Q502 187 528 216 L556 189 Q530 155 496.5 130.5 Q463 106 409 106 Z " />
<glyph glyph-name="ordfeminine" unicode="&#xaa;" horiz-adv-x="420" d="M149 362 Q128 362 108 367.5 Q88 373 72.5 385 Q57 397 47.5 415.5 Q38 434 38 461 Q38 508 70 534 Q102 560 159 568 Q183 572 207 573.5 Q231 575 256 577 L256 617 Q256 662 236 680 Q216 698 178 698 Q134 698 113 682 Q119 673 125.5 662.5 Q132 652 132 644 Q132 630 121 619 Q110 608 87 608 Q62 608 52 620.5 Q42 633 42 650 Q42 668 53.5 685 Q65 702 85 714.5 Q105 727 131.5 734.5 Q158 742 189 742 Q219 742 246 736 Q273 730 292.5 715 Q312 700 323.5 675 Q335 650 335 611 L335 450 Q335 417 369 416 Q385 416 406 423 L415 391 Q399 377 379.5 369.5 Q360 362 334 362 Q271 362 265 417 Q244 387 216 374.5 Q188 362 149 362 Z M177 416 Q189 416 202.5 420 Q216 424 228 432.5 Q240 441 248 455 Q256 469 256 489 L256 534 Q227 534 202 531.5 Q177 529 159 521.5 Q141 514 131 501 Q121 488 121 467 Q121 441 138.5 428.5 Q156 416 177 416 Z " />
<glyph glyph-name="guillemotleft" unicode="&#xab;" horiz-adv-x="483" d="M72 223 Q50 245 50 266 Q50 277 57 286.5 Q64 296 78 311 L237 474 L268 449 L145 266 L268 79 L238 55 L72 223 Z M247 223 Q225 245 225 266 Q225 277 232 286.5 Q239 296 253 311 L412 474 L443 449 L320 266 L443 79 L413 55 L247 223 Z " />
<glyph glyph-name="logicalnot" unicode="&#xac;" horiz-adv-x="582" d="M438 304 L77 304 L77 367 L505 367 L505 154 L438 154 L438 304 Z " />
<glyph glyph-name="uni00AD" unicode="&#xad;" horiz-adv-x="354" d="M44 329 L311 329 L311 247 L44 247 L44 329 Z " />
<glyph glyph-name="registered" unicode="&#xae;" horiz-adv-x="487" d="M243 404 Q198 404 163.5 417.5 Q129 431 106 454 Q83 477 71.5 509.5 Q60 542 60 579 Q60 621 74.5 655 Q89 689 114 713 Q139 737 172.5 749.5 Q206 762 244 762 Q329 762 378 714 Q427 666 427 586 Q427 546 413.5 512.5 Q400 479 375.5 455 Q351 431 317.5 417.5 Q284 404 243 404 Z M327 465 Q345 465 355 471 L355 487 L346 487 Q337 487 332 492 Q327 497 323 505 L314 530 Q307 548 298 561.5 Q289 575 265 580 L265 581 Q275 583 286 587 Q297 591 306 598.5 Q315 606 321 617 Q327 628 327 643 Q327 677 299 690 Q271 703 233 703 L151 703 L147 687 L163 685 Q171 684 173.5 680 Q176 676 176 668 L176 505 Q176 497 173.5 492.5 Q171 488 163 487 L147 485 L147 469 L244 469 L244 485 L227 487 Q219 488 216.5 492 Q214 496 214 505 L214 576 L228 576 Q252 576 268 535 L280 503 Q288 485 297.5 475 Q307 465 327 465 Z M214 683 L231 683 Q255 683 271 675 Q287 667 287 641 Q287 619 274 607 Q261 595 232 595 L214 595 L214 683 Z " />
<glyph glyph-name="macron" unicode="&#xaf;" horiz-adv-x="500" d="M110 708 L390 708 L390 635 L110 635 L110 708 Z " />
<glyph glyph-name="degree" unicode="&#xb0;" horiz-adv-x="329" d="M164 547 Q101 547 72 580.5 Q43 614 43 665 Q43 688 51 709.5 Q59 731 74.5 747 Q90 763 113 772.5 Q136 782 167 782 Q226 782 256 750 Q286 718 286 667 Q286 617 255 582 Q224 547 164 547 Z M166 598 Q195 598 212 617 Q229 636 229 665 Q229 696 211.5 714 Q194 732 163 732 Q134 732 117.5 713 Q101 694 101 665 Q101 636 116.5 617 Q132 598 166 598 Z " />
<glyph glyph-name="plusminus" unicode="&#xb1;" horiz-adv-x="582" d="M254 306 L77 306 L77 369 L254 369 L254 521 L321 521 L321 369 L505 369 L505 306 L321 306 L321 141 L254 141 L254 306 Z M77 64 L505 64 L505 1 L77 1 L77 64 Z " />
<glyph glyph-name="uni00B2" unicode="&#xb2;" horiz-adv-x="397" d="M34 420 Q105 486 149.5 530 Q194 574 219.5 605.5 Q245 637 254.5 660 Q264 683 264 708 Q264 743 241.5 767 Q219 791 177 791 Q120 791 104 766 Q124 735 124 727 Q124 713 113 701 Q102 689 79 689 Q50 689 37.5 704.5 Q25 720 25 741 Q25 763 37.5 781 Q50 799 71.5 812 Q93 825 122.5 832 Q152 839 185 839 Q259 839 305 806.5 Q351 774 351 711 Q351 687 341 662.5 Q331 638 305.5 607 Q280 576 236.5 536.5 Q193 497 126 442 L223 442 Q246 442 260 444 Q274 446 283 453 Q292 460 299.5 474 Q307 488 317 512 L362 512 L349 374 L40 374 L34 420 Z " />
<glyph glyph-name="uni00B3" unicode="&#xb3;" horiz-adv-x="423" d="M198 362 Q156 362 126 371 Q96 380 75.5 393.5 Q55 407 43 422 Q31 437 25 448 L62 479 Q79 459 108.5 440 Q138 421 183 421 Q231 421 254.5 443.5 Q278 466 278 500 Q278 589 154 585 L158 626 Q215 631 241.5 658.5 Q268 686 268 721 Q268 749 246.5 770.5 Q225 792 187 792 Q162 792 143.5 784 Q125 776 117 764 Q136 738 136 728 Q136 713 125 701.5 Q114 690 92 690 Q65 690 52 704.5 Q39 719 39 740 Q39 759 50.5 777 Q62 795 82.5 808.5 Q103 822 131.5 830.5 Q160 839 195 839 Q228 839 256.5 831 Q285 823 305.5 808 Q326 793 338 771.5 Q350 750 350 723 Q350 684 322.5 654.5 Q295 625 253 614 L253 612 Q302 604 335 578 Q368 552 368 498 Q368 467 353.5 442 Q339 417 315.5 399 Q292 381 261.5 371.5 Q231 362 198 362 Z " />
<glyph glyph-name="acute" unicode="&#xb4;" horiz-adv-x="500" d="M173 605 L281 748 Q293 763 301 770 Q309 777 320 777 Q342 777 355 761 Q368 745 368 726 Q368 694 333 673 L197 580 L173 605 Z " />
<glyph glyph-name="uni00B5" unicode="&#xb5;" horiz-adv-x="611" d="M94 -224 Q91 -192 89 -156 Q87 -122 85.5 -82 Q84 -42 84 4 Q84 11 83.5 36.5 Q83 62 82.5 99 Q82 136 81 180.5 Q80 225 79 271 Q77 377 74 508 L166 516 L178 511 Q176 486 171.5 378 Q167 270 167 90 Q183 74 210.5 66 Q238 58 258 58 Q323 58 360 96 Q397 134 397 197 Q397 203 397 219.5 Q397 236 396.5 259.5 Q396 283 395.5 310 Q395 337 395 365 Q394 430 393 508 L485 516 L497 511 Q496 499 493 471 Q490 443 487 402 Q484 361 481.5 307.5 Q479 254 479 191 Q479 153 480.5 127.5 Q482 102 488.5 87 Q495 72 508 65.5 Q521 59 543 59 Q559 59 586 67 L596 26 Q583 13 557.5 -0.5 Q532 -14 502 -14 Q475 -14 458.5 -4.5 Q442 5 432.5 20.5 Q423 36 418 55 Q413 74 409 93 L406 93 Q384 39 344.5 12.5 Q305 -14 261 -14 Q232 -14 206.5 -3 Q181 8 167 23 L165 23 Q165 -23 170 -65 Q175 -107 181 -139 Q187 -178 196 -211 L106 -229 L94 -224 Z " />
<glyph glyph-name="paragraph" unicode="&#xb6;" horiz-adv-x="578" d="M285 238 Q184 238 127 298 Q70 358 70 468 Q70 579 124.5 639.5 Q179 700 289 700 L301 700 L301 238 L285 238 Z M252 -97 L332 -90 Q351 -88 357.5 -76.5 Q364 -65 364 -41 L364 700 L533 700 L533 653 L483 647 Q464 645 457.5 633 Q451 621 451 597 L451 -144 L252 -144 L252 -97 Z " />
<glyph glyph-name="periodcentered" unicode="&#xb7;" horiz-adv-x="319" d="M159 235 Q126 235 104.5 256 Q83 277 83 310 Q83 343 104.5 364.5 Q126 386 159 386 Q193 386 214.5 365 Q236 344 236 311 Q236 278 214.5 256.5 Q193 235 159 235 Z " />
<glyph glyph-name="cedilla" unicode="&#xb8;" horiz-adv-x="500" d="M234 -229 Q216 -229 200.5 -224.5 Q185 -220 173 -213.5 Q161 -207 152 -200.5 Q143 -194 139 -189 L163 -152 Q176 -162 193 -168 Q210 -174 227 -174 Q247 -174 262 -164 Q277 -154 277 -131 Q277 -110 264 -101.5 Q251 -93 227 -93 Q217 -93 210.5 -93.5 Q204 -94 197 -96 L189 -75 L224 13 L270 13 L243 -57 Q291 -51 320 -70.5 Q349 -90 349 -133 Q349 -175 321 -202 Q293 -229 234 -229 Z " />
<glyph glyph-name="uni00B9" unicode="&#xb9;" horiz-adv-x="323" d="M38 415 L103 425 Q118 427 122.5 435 Q127 443 127 457 L127 729 Q127 750 122.5 757.5 Q118 765 96 768 L35 773 L40 813 L203 836 L211 829 L211 455 Q211 440 215.5 433.5 Q220 427 236 425 L298 415 L298 374 L38 374 L38 415 Z " />
<glyph glyph-name="ordmasculine" unicode="&#xba;" horiz-adv-x="427" d="M210 362 Q166 362 133 375.5 Q100 389 78.5 413.5 Q57 438 46 471.5 Q35 505 35 544 Q35 598 50.5 635.5 Q66 673 91.5 697 Q117 721 150.5 731.5 Q184 742 221 742 Q258 742 289 731 Q320 720 343 697.5 Q366 675 379 641 Q392 607 392 562 Q392 465 341 413.5 Q290 362 210 362 Z M221 410 Q266 410 289 444.5 Q312 479 312 545 Q312 616 284.5 656 Q257 696 209 696 Q166 696 140 665.5 Q114 635 114 566 Q114 493 140.5 451.5 Q167 410 221 410 Z " />
<glyph glyph-name="guillemotright" unicode="&#xbb;" horiz-adv-x="483" d="M40 80 L163 263 L40 450 L70 474 L236 306 Q258 284 258 263 Q258 252 251 242.5 Q244 233 230 218 L71 55 L40 80 Z M215 80 L338 263 L215 450 L245 474 L411 306 Q433 284 433 263 Q433 252 426 242.5 Q419 233 405 218 L246 55 L215 80 Z " />
<glyph glyph-name="onequarter" unicode="&#xbc;" horiz-adv-x="958" d="M38 300 L103 310 Q118 312 122.5 320 Q127 328 127 342 L127 614 Q127 635 122.5 642.5 Q118 650 96 653 L35 658 L40 698 L203 721 L211 714 L211 340 Q211 325 215.5 318.5 Q220 312 236 310 L298 300 L298 259 L38 259 L38 300 Z M623 714 L690 714 L274 -14 L206 -14 L623 714 Z M590 59 Q661 125 705.5 169 Q750 213 775.5 244.5 Q801 276 810.5 299 Q820 322 820 347 Q820 382 797.5 406 Q775 430 733 430 Q676 430 660 405 Q680 374 680 366 Q680 352 669 340 Q658 328 635 328 Q606 328 593.5 343.5 Q581 359 581 380 Q581 402 593.5 420 Q606 438 627.5 451 Q649 464 678.5 471 Q708 478 741 478 Q815 478 861 445.5 Q907 413 907 350 Q907 326 897 301.5 Q887 277 861.5 246 Q836 215 792.5 175.5 Q749 136 682 81 L779 81 Q802 81 816 83 Q830 85 839 92 Q848 99 855.5 113 Q863 127 873 151 L918 151 L905 13 L596 13 L590 59 Z " />
<glyph glyph-name="onehalf" unicode="&#xbd;" horiz-adv-x="966" d="M38 300 L103 310 Q118 312 122.5 320 Q127 328 127 342 L127 614 Q127 635 122.5 642.5 Q118 650 96 653 L35 658 L40 698 L203 721 L211 714 L211 340 Q211 325 215.5 318.5 Q220 312 236 310 L298 300 L298 259 L38 259 L38 300 Z M624 714 L691 714 L275 -14 L207 -14 L624 714 Z M754 91 L536 91 L528 140 L743 456 L827 466 L835 460 L835 145 L913 145 L913 91 L835 91 L835 0 L754 0 L754 91 Z M754 145 L754 387 L591 145 L754 145 Z " />
<glyph glyph-name="threequarters" unicode="&#xbe;" horiz-adv-x="966" d="M198 237 Q156 237 126 246 Q96 255 75.5 268.5 Q55 282 43 297 Q31 312 25 323 L62 354 Q79 334 108.5 315 Q138 296 183 296 Q231 296 254.5 318.5 Q278 341 278 375 Q278 464 154 460 L158 501 Q215 506 241.5 533.5 Q268 561 268 596 Q268 624 246.5 645.5 Q225 667 187 667 Q162 667 143.5 659 Q125 651 117 639 Q136 613 136 603 Q136 588 125 576.5 Q114 565 92 565 Q65 565 52 579.5 Q39 594 39 615 Q39 634 50.5 652 Q62 670 82.5 683.5 Q103 697 131.5 705.5 Q160 714 195 714 Q228 714 256.5 706 Q285 698 305.5 683 Q326 668 338 646.5 Q350 625 350 598 Q350 559 322.5 529.5 Q295 500 253 489 L253 487 Q302 479 335 453 Q368 427 368 373 Q368 342 353.5 317 Q339 292 315.5 274 Q292 256 261.5 246.5 Q231 237 198 237 Z M666 714 L733 714 L317 -14 L249 -14 L666 714 Z M793 91 L575 91 L567 140 L782 456 L866 466 L874 460 L874 145 L952 145 L952 91 L874 91 L874 0 L793 0 L793 91 Z M793 145 L793 387 L630 145 L793 145 Z " />
<glyph glyph-name="questiondown" unicode="&#xbf;" horiz-adv-x="538" d="M395 524 Q426 524 446 504.5 Q466 485 466 455 Q466 423 446 403.5 Q426 384 395 384 Q364 384 344.5 403.5 Q325 423 325 454 Q325 484 344.5 504 Q364 524 395 524 Z M424 193 Q424 155 402.5 127 Q381 99 355 73 Q328 47 305 18.5 Q282 -10 282 -50 Q282 -95 311 -122.5 Q340 -150 391 -150 Q455 -150 487 -112 Q477 -98 466 -79.5 Q455 -61 455 -50 Q455 -33 472.5 -17.5 Q490 -2 515 -2 Q547 -2 560.5 -19.5 Q574 -37 574 -62 Q574 -91 557.5 -117 Q541 -143 513.5 -162.5 Q486 -182 450.5 -193 Q415 -204 377 -204 Q335 -204 299.5 -192.5 Q264 -181 239 -160 Q214 -139 200 -109 Q186 -79 186 -41 Q186 -14 194 10 Q202 34 215.5 55.5 Q229 77 246 96 Q263 115 281 133 Q314 167 341 196 Q368 225 368 253 L368 316 L424 316 L424 193 Z " />
<glyph glyph-name="Agrave" unicode="&#xc0;" horiz-adv-x="735" d="M297 818 Q277 826 266 839.5 Q255 853 255 874 Q255 891 267 906.5 Q279 922 298 922 Q307 922 315.5 916 Q324 910 337 899 L468 780 L448 752 L297 818 Z M15 48 L63 56 Q82 60 90 70.5 Q98 81 109 110 L320 700 L426 700 L635 109 Q645 83 651.5 73 Q658 63 679 58 L720 50 L720 0 L453 0 L453 48 L511 55 Q531 58 535.5 68.5 Q540 79 530 105 L487 231 L219 231 L177 109 Q168 83 173 71.5 Q178 60 200 55 L257 47 L257 0 L15 0 L15 48 Z M468 288 L357 617 L353 617 L239 288 L468 288 Z " />
<glyph glyph-name="Aacute" unicode="&#xc1;" horiz-adv-x="735" d="M278 780 L409 899 Q422 910 430.5 916 Q439 922 448 922 Q467 922 479 906.5 Q491 891 491 874 Q491 853 480 839.5 Q469 826 449 818 L298 752 L278 780 Z M15 48 L63 56 Q82 60 90 70.5 Q98 81 109 110 L320 700 L426 700 L635 109 Q645 83 651.5 73 Q658 63 679 58 L720 50 L720 0 L453 0 L453 48 L511 55 Q531 58 535.5 68.5 Q540 79 530 105 L487 231 L219 231 L177 109 Q168 83 173 71.5 Q178 60 200 55 L257 47 L257 0 L15 0 L15 48 Z M468 288 L357 617 L353 617 L239 288 L468 288 Z " />
<glyph glyph-name="Acircumflex" unicode="&#xc2;" horiz-adv-x="735" d="M210 775 L335 912 Q344 922 353.5 928 Q363 934 374 934 Q385 934 393 927.5 Q401 921 415 906 L536 776 L511 750 L374 834 L234 750 L210 775 Z M15 48 L63 56 Q82 60 90 70.5 Q98 81 109 110 L320 700 L426 700 L635 109 Q645 83 651.5 73 Q658 63 679 58 L720 50 L720 0 L453 0 L453 48 L511 55 Q531 58 535.5 68.5 Q540 79 530 105 L487 231 L219 231 L177 109 Q168 83 173 71.5 Q178 60 200 55 L257 47 L257 0 L15 0 L15 48 Z M468 288 L357 617 L353 617 L239 288 L468 288 Z " />
<glyph glyph-name="Atilde" unicode="&#xc3;" horiz-adv-x="735" d="M450 777 Q430 777 409 782.5 Q388 788 358 801 Q331 812 312 818.5 Q293 825 285 825 Q272 825 263 819 Q254 813 238 789 L207 808 Q220 836 231 854.5 Q242 873 252.5 883.5 Q263 894 274.5 898 Q286 902 300 902 Q317 902 337.5 895.5 Q358 889 389 876 Q411 867 431.5 859.5 Q452 852 465 852 Q480 852 488 861 Q496 870 509 889 L540 870 Q516 819 497.5 798 Q479 777 450 777 Z M15 48 L63 56 Q82 60 90 70.5 Q98 81 109 110 L320 700 L426 700 L635 109 Q645 83 651.5 73 Q658 63 679 58 L720 50 L720 0 L453 0 L453 48 L511 55 Q531 58 535.5 68.5 Q540 79 530 105 L487 231 L219 231 L177 109 Q168 83 173 71.5 Q178 60 200 55 L257 47 L257 0 L15 0 L15 48 Z M468 288 L357 617 L353 617 L239 288 L468 288 Z " />
<glyph glyph-name="Adieresis" unicode="&#xc4;" horiz-adv-x="735" d="M270 771 Q242 771 224 788.5 Q206 806 206 834 Q206 862 224 880 Q242 898 270 898 Q299 898 317.5 880.5 Q336 863 336 835 Q336 807 317.5 789 Q299 771 270 771 Z M473 771 Q444 771 426 788.5 Q408 806 408 834 Q408 862 426 880 Q444 898 473 898 Q502 898 520 880.5 Q538 863 538 835 Q538 807 520 789 Q502 771 473 771 Z M15 48 L63 56 Q82 60 90 70.5 Q98 81 109 110 L320 700 L426 700 L635 109 Q645 83 651.5 73 Q658 63 679 58 L720 50 L720 0 L453 0 L453 48 L511 55 Q531 58 535.5 68.5 Q540 79 530 105 L487 231 L219 231 L177 109 Q168 83 173 71.5 Q178 60 200 55 L257 47 L257 0 L15 0 L15 48 Z M468 288 L357 617 L353 617 L239 288 L468 288 Z " />
<glyph glyph-name="Aring" unicode="&#xc5;" horiz-adv-x="735" d="M372 742 Q314 742 288 770.5 Q262 799 262 847 Q262 890 289.5 920.5 Q317 951 374 951 Q428 951 455 923 Q482 895 482 849 Q482 801 454 771.5 Q426 742 372 742 Z M373 789 Q402 789 412.5 806.5 Q423 824 423 847 Q423 870 411 887 Q399 904 371 904 Q342 904 331 886.5 Q320 869 320 847 Q320 825 331.5 807 Q343 789 373 789 Z M15 48 L63 56 Q82 60 90 70.5 Q98 81 109 110 L320 700 L426 700 L635 109 Q645 83 651.5 73 Q658 63 679 58 L720 50 L720 0 L453 0 L453 48 L511 55 Q531 58 535.5 68.5 Q540 79 530 105 L487 231 L219 231 L177 109 Q168 83 173 71.5 Q178 60 200 55 L257 47 L257 0 L15 0 L15 48 Z M468 288 L357 617 L353 617 L239 288 L468 288 Z " />
<glyph glyph-name="AE" unicode="&#xc6;" horiz-adv-x="997" d="M15 48 L63 56 Q80 59 89.5 70 Q99 81 113 110 L376 643 L312 652 L312 700 L885 700 L922 537 L870 520 Q855 559 841.5 584 Q828 609 810.5 622.5 Q793 636 768.5 641 Q744 646 707 646 L610 646 L610 372 L697 372 Q728 372 744 374.5 Q760 377 768 385 Q776 393 780 409.5 Q784 426 790 454 L836 460 L836 238 L790 230 Q786 259 782 276 Q778 293 769.5 301.5 Q761 310 744.5 312.5 Q728 315 697 315 L610 315 L610 54 L739 54 Q775 54 799 59.5 Q823 65 839.5 79 Q856 93 867.5 118.5 Q879 144 889 184 L944 184 L920 0 L422 0 L422 48 L480 57 Q502 61 506.5 73 Q511 85 511 108 L511 315 L285 315 L186 109 Q174 84 177.5 71 Q181 58 203 55 L260 47 L260 0 L15 0 L15 48 Z M511 372 L512 646 L445 646 L313 372 L511 372 Z " />
<glyph glyph-name="Ccedilla" unicode="&#xc7;" horiz-adv-x="708" d="M390 -14 L373 -57 Q421 -51 450 -70.5 Q479 -90 479 -133 Q479 -175 451 -202 Q423 -229 364 -229 Q346 -229 330.5 -224.5 Q315 -220 303 -213.5 Q291 -207 282 -200.5 Q273 -194 269 -189 L293 -152 Q306 -162 323 -168 Q340 -174 357 -174 Q377 -174 392 -164 Q407 -154 407 -131 Q407 -110 394 -101.5 Q381 -93 357 -93 Q347 -93 340.5 -93.5 Q334 -94 327 -96 L319 -75 L344 -11 Q271 -2 217.5 30.5 Q164 63 128.5 112.5 Q93 162 76 223.5 Q59 285 59 351 Q59 436 83 503.5 Q107 571 149.5 617.5 Q192 664 250.5 689 Q309 714 377 714 Q444 714 483 694 Q522 674 543 653 L553 716 L602 716 L641 483 L587 471 Q557 565 508.5 608 Q460 651 379 651 Q271 651 218.5 573 Q166 495 166 352 Q166 291 181.5 237 Q197 183 227 142.5 Q257 102 301.5 78.5 Q346 55 404 55 Q475 55 522 84 Q569 113 607 167 L654 133 Q639 107 615 81 Q591 55 558.5 34 Q526 13 485 -0.5 Q444 -14 394 -14 L390 -14 Z " />
<glyph glyph-name="Egrave" unicode="&#xc8;" horiz-adv-x="637" d="M249 818 Q229 826 218 839.5 Q207 853 207 874 Q207 891 219 906.5 Q231 922 250 922 Q259 922 267.5 916 Q276 910 289 899 L420 780 L400 752 L249 818 Z M62 48 L120 57 Q142 61 146.5 73 Q151 85 151 108 L151 596 Q151 619 146 629 Q141 639 118 643 L62 652 L62 700 L525 700 L562 537 L510 520 Q495 559 481.5 584 Q468 609 450.5 622.5 Q433 636 408.5 641 Q384 646 347 646 L250 646 L250 387 L337 387 Q368 387 384 389.5 Q400 392 408 400 Q416 408 420 424.5 Q424 441 430 469 L476 475 L476 248 L430 240 Q426 269 422 286 Q418 303 409.5 311.5 Q401 320 384.5 322.5 Q368 325 337 325 L250 325 L250 54 L379 54 Q415 54 439 59.5 Q463 65 479.5 79 Q496 93 507.5 118.5 Q519 144 529 184 L584 184 L560 0 L62 0 L62 48 Z " />
<glyph glyph-name="Eacute" unicode="&#xc9;" horiz-adv-x="637" d="M230 780 L361 899 Q374 910 382.5 916 Q391 922 400 922 Q419 922 431 906.5 Q443 891 443 874 Q443 853 432 839.5 Q421 826 401 818 L250 752 L230 780 Z M62 48 L120 57 Q142 61 146.5 73 Q151 85 151 108 L151 596 Q151 619 146 629 Q141 639 118 643 L62 652 L62 700 L525 700 L562 537 L510 520 Q495 559 481.5 584 Q468 609 450.5 622.5 Q433 636 408.5 641 Q384 646 347 646 L250 646 L250 387 L337 387 Q368 387 384 389.5 Q400 392 408 400 Q416 408 420 424.5 Q424 441 430 469 L476 475 L476 248 L430 240 Q426 269 422 286 Q418 303 409.5 311.5 Q401 320 384.5 322.5 Q368 325 337 325 L250 325 L250 54 L379 54 Q415 54 439 59.5 Q463 65 479.5 79 Q496 93 507.5 118.5 Q519 144 529 184 L584 184 L560 0 L62 0 L62 48 Z " />
<glyph glyph-name="Ecircumflex" unicode="&#xca;" horiz-adv-x="637" d="M162 775 L287 912 Q296 922 305.5 928 Q315 934 326 934 Q337 934 345 927.5 Q353 921 367 906 L488 776 L463 750 L326 834 L186 750 L162 775 Z M62 48 L120 57 Q142 61 146.5 73 Q151 85 151 108 L151 596 Q151 619 146 629 Q141 639 118 643 L62 652 L62 700 L525 700 L562 537 L510 520 Q495 559 481.5 584 Q468 609 450.5 622.5 Q433 636 408.5 641 Q384 646 347 646 L250 646 L250 387 L337 387 Q368 387 384 389.5 Q400 392 408 400 Q416 408 420 424.5 Q424 441 430 469 L476 475 L476 248 L430 240 Q426 269 422 286 Q418 303 409.5 311.5 Q401 320 384.5 322.5 Q368 325 337 325 L250 325 L250 54 L379 54 Q415 54 439 59.5 Q463 65 479.5 79 Q496 93 507.5 118.5 Q519 144 529 184 L584 184 L560 0 L62 0 L62 48 Z " />
<glyph glyph-name="Edieresis" unicode="&#xcb;" horiz-adv-x="637" d="M222 771 Q194 771 176 788.5 Q158 806 158 834 Q158 862 176 880 Q194 898 222 898 Q251 898 269.5 880.5 Q288 863 288 835 Q288 807 269.5 789 Q251 771 222 771 Z M425 771 Q396 771 378 788.5 Q360 806 360 834 Q360 862 378 880 Q396 898 425 898 Q454 898 472 880.5 Q490 863 490 835 Q490 807 472 789 Q454 771 425 771 Z M62 48 L120 57 Q142 61 146.5 73 Q151 85 151 108 L151 596 Q151 619 146 629 Q141 639 118 643 L62 652 L62 700 L525 700 L562 537 L510 520 Q495 559 481.5 584 Q468 609 450.5 622.5 Q433 636 408.5 641 Q384 646 347 646 L250 646 L250 387 L337 387 Q368 387 384 389.5 Q400 392 408 400 Q416 408 420 424.5 Q424 441 430 469 L476 475 L476 248 L430 240 Q426 269 422 286 Q418 303 409.5 311.5 Q401 320 384.5 322.5 Q368 325 337 325 L250 325 L250 54 L379 54 Q415 54 439 59.5 Q463 65 479.5 79 Q496 93 507.5 118.5 Q519 144 529 184 L584 184 L560 0 L62 0 L62 48 Z " />
<glyph glyph-name="Igrave" unicode="&#xcc;" horiz-adv-x="401" d="M124 818 Q104 826 93 839.5 Q82 853 82 874 Q82 891 94 906.5 Q106 922 125 922 Q134 922 142.5 916 Q151 910 164 899 L295 780 L275 752 L124 818 Z M58 48 L120 57 Q142 61 146.5 73 Q151 85 151 108 L151 596 Q151 619 146 629 Q141 639 118 643 L58 652 L58 700 L343 700 L343 652 L280 643 Q259 639 254.5 627 Q250 615 250 592 L250 104 Q250 81 255 71 Q260 61 282 57 L343 48 L343 0 L58 0 L58 48 Z " />
<glyph glyph-name="Iacute" unicode="&#xcd;" horiz-adv-x="401" d="M105 780 L236 899 Q249 910 257.5 916 Q266 922 275 922 Q294 922 306 906.5 Q318 891 318 874 Q318 853 307 839.5 Q296 826 276 818 L125 752 L105 780 Z M58 48 L120 57 Q142 61 146.5 73 Q151 85 151 108 L151 596 Q151 619 146 629 Q141 639 118 643 L58 652 L58 700 L343 700 L343 652 L280 643 Q259 639 254.5 627 Q250 615 250 592 L250 104 Q250 81 255 71 Q260 61 282 57 L343 48 L343 0 L58 0 L58 48 Z " />
<glyph glyph-name="Icircumflex" unicode="&#xce;" horiz-adv-x="401" d="M37 775 L162 912 Q171 922 180.5 928 Q190 934 201 934 Q212 934 220 927.5 Q228 921 242 906 L363 776 L338 750 L201 834 L61 750 L37 775 Z M58 48 L120 57 Q142 61 146.5 73 Q151 85 151 108 L151 596 Q151 619 146 629 Q141 639 118 643 L58 652 L58 700 L343 700 L343 652 L280 643 Q259 639 254.5 627 Q250 615 250 592 L250 104 Q250 81 255 71 Q260 61 282 57 L343 48 L343 0 L58 0 L58 48 Z " />
<glyph glyph-name="Idieresis" unicode="&#xcf;" horiz-adv-x="401" d="M97 771 Q69 771 51 788.5 Q33 806 33 834 Q33 862 51 880 Q69 898 97 898 Q126 898 144.5 880.5 Q163 863 163 835 Q163 807 144.5 789 Q126 771 97 771 Z M300 771 Q271 771 253 788.5 Q235 806 235 834 Q235 862 253 880 Q271 898 300 898 Q329 898 347 880.5 Q365 863 365 835 Q365 807 347 789 Q329 771 300 771 Z M58 48 L120 57 Q142 61 146.5 73 Q151 85 151 108 L151 596 Q151 619 146 629 Q141 639 118 643 L58 652 L58 700 L343 700 L343 652 L280 643 Q259 639 254.5 627 Q250 615 250 592 L250 104 Q250 81 255 71 Q260 61 282 57 L343 48 L343 0 L58 0 L58 48 Z " />
<glyph glyph-name="Eth" unicode="&#xd0;" horiz-adv-x="775" d="M349 700 Q430 700 497.5 681 Q565 662 613.5 622 Q662 582 688.5 520 Q715 458 715 372 Q715 287 689.5 218.5 Q664 150 614 101.5 Q564 53 490.5 26.5 Q417 0 321 0 L62 0 L62 48 L120 57 Q142 61 146.5 73 Q151 85 151 108 L151 330 L41 330 L49 393 L151 393 L151 596 Q151 619 146 629 Q141 639 118 643 L62 652 L62 700 L349 700 Z M322 55 Q471 55 539.5 130.5 Q608 206 608 364 Q608 503 540 574.5 Q472 646 341 646 L250 646 L250 393 L441 393 L441 330 L250 330 L250 60 Q263 58 285 56.5 Q307 55 322 55 Z " />
<glyph glyph-name="Ntilde" unicode="&#xd1;" horiz-adv-x="824" d="M490 777 Q470 777 449 782.5 Q428 788 398 801 Q371 812 352 818.5 Q333 825 325 825 Q312 825 303 819 Q294 813 278 789 L247 808 Q260 836 271 854.5 Q282 873 292.5 883.5 Q303 894 314.5 898 Q326 902 340 902 Q357 902 377.5 895.5 Q398 889 429 876 Q451 867 471.5 859.5 Q492 852 505 852 Q520 852 528 861 Q536 870 549 889 L580 870 Q556 819 537.5 798 Q519 777 490 777 Z M63 48 L121 57 Q142 61 146.5 73 Q151 85 151 108 L151 596 Q151 619 146 629 Q141 639 119 643 L63 652 L63 700 L285 700 L617 129 L617 596 Q617 619 612 629 Q607 639 584 643 L529 652 L529 700 L774 700 L774 652 L717 643 Q695 639 690.5 627 Q686 615 686 592 L686 0 L583 0 L221 609 L221 104 Q221 81 226 71 Q231 61 253 57 L309 48 L309 0 L63 0 L63 48 Z " />
<glyph glyph-name="Ograve" unicode="&#xd2;" horiz-adv-x="779" d="M315 818 Q295 826 284 839.5 Q273 853 273 874 Q273 891 285 906.5 Q297 922 316 922 Q325 922 333.5 916 Q342 910 355 899 L486 780 L466 752 L315 818 Z M387 -14 Q310 -14 249 12.5 Q188 39 146 85.5 Q104 132 81.5 196.5 Q59 261 59 336 Q59 438 87.5 509.5 Q116 581 163.5 626.5 Q211 672 271.5 693 Q332 714 396 714 Q461 714 520 692.5 Q579 671 623 627.5 Q667 584 693 519 Q719 454 719 368 Q719 276 693 204.5 Q667 133 622 84.5 Q577 36 516.5 11 Q456 -14 387 -14 Z M399 53 Q496 53 553 124 Q610 195 610 349 Q610 423 593.5 479.5 Q577 536 547.5 574 Q518 612 476 631 Q434 650 383 650 Q337 650 297 633.5 Q257 617 227.5 581.5 Q198 546 181.5 490.5 Q165 435 165 357 Q165 287 181.5 230.5 Q198 174 228 134.5 Q258 95 301.5 74 Q345 53 399 53 Z " />
<glyph glyph-name="Oacute" unicode="&#xd3;" horiz-adv-x="779" d="M296 780 L427 899 Q440 910 448.5 916 Q457 922 466 922 Q485 922 497 906.5 Q509 891 509 874 Q509 853 498 839.5 Q487 826 467 818 L316 752 L296 780 Z M387 -14 Q310 -14 249 12.5 Q188 39 146 85.5 Q104 132 81.5 196.5 Q59 261 59 336 Q59 438 87.5 509.5 Q116 581 163.5 626.5 Q211 672 271.5 693 Q332 714 396 714 Q461 714 520 692.5 Q579 671 623 627.5 Q667 584 693 519 Q719 454 719 368 Q719 276 693 204.5 Q667 133 622 84.5 Q577 36 516.5 11 Q456 -14 387 -14 Z M399 53 Q496 53 553 124 Q610 195 610 349 Q610 423 593.5 479.5 Q577 536 547.5 574 Q518 612 476 631 Q434 650 383 650 Q337 650 297 633.5 Q257 617 227.5 581.5 Q198 546 181.5 490.5 Q165 435 165 357 Q165 287 181.5 230.5 Q198 174 228 134.5 Q258 95 301.5 74 Q345 53 399 53 Z " />
<glyph glyph-name="Ocircumflex" unicode="&#xd4;" horiz-adv-x="779" d="M228 775 L353 912 Q362 922 371.5 928 Q381 934 392 934 Q403 934 411 927.5 Q419 921 433 906 L554 776 L529 750 L392 834 L252 750 L228 775 Z M387 -14 Q310 -14 249 12.5 Q188 39 146 85.5 Q104 132 81.5 196.5 Q59 261 59 336 Q59 438 87.5 509.5 Q116 581 163.5 626.5 Q211 672 271.5 693 Q332 714 396 714 Q461 714 520 692.5 Q579 671 623 627.5 Q667 584 693 519 Q719 454 719 368 Q719 276 693 204.5 Q667 133 622 84.5 Q577 36 516.5 11 Q456 -14 387 -14 Z M399 53 Q496 53 553 124 Q610 195 610 349 Q610 423 593.5 479.5 Q577 536 547.5 574 Q518 612 476 631 Q434 650 383 650 Q337 650 297 633.5 Q257 617 227.5 581.5 Q198 546 181.5 490.5 Q165 435 165 357 Q165 287 181.5 230.5 Q198 174 228 134.5 Q258 95 301.5 74 Q345 53 399 53 Z " />
<glyph glyph-name="Otilde" unicode="&#xd5;" horiz-adv-x="779" d="M468 777 Q448 777 427 782.5 Q406 788 376 801 Q349 812 330 818.5 Q311 825 303 825 Q290 825 281 819 Q272 813 256 789 L225 808 Q238 836 249 854.5 Q260 873 270.5 883.5 Q281 894 292.5 898 Q304 902 318 902 Q335 902 355.5 895.5 Q376 889 407 876 Q429 867 449.5 859.5 Q470 852 483 852 Q498 852 506 861 Q514 870 527 889 L558 870 Q534 819 515.5 798 Q497 777 468 777 Z M387 -14 Q310 -14 249 12.5 Q188 39 146 85.5 Q104 132 81.5 196.5 Q59 261 59 336 Q59 438 87.5 509.5 Q116 581 163.5 626.5 Q211 672 271.5 693 Q332 714 396 714 Q461 714 520 692.5 Q579 671 623 627.5 Q667 584 693 519 Q719 454 719 368 Q719 276 693 204.5 Q667 133 622 84.5 Q577 36 516.5 11 Q456 -14 387 -14 Z M399 53 Q496 53 553 124 Q610 195 610 349 Q610 423 593.5 479.5 Q577 536 547.5 574 Q518 612 476 631 Q434 650 383 650 Q337 650 297 633.5 Q257 617 227.5 581.5 Q198 546 181.5 490.5 Q165 435 165 357 Q165 287 181.5 230.5 Q198 174 228 134.5 Q258 95 301.5 74 Q345 53 399 53 Z " />
<glyph glyph-name="Odieresis" unicode="&#xd6;" horiz-adv-x="779" d="M288 771 Q260 771 242 788.5 Q224 806 224 834 Q224 862 242 880 Q260 898 288 898 Q317 898 335.5 880.5 Q354 863 354 835 Q354 807 335.5 789 Q317 771 288 771 Z M491 771 Q462 771 444 788.5 Q426 806 426 834 Q426 862 444 880 Q462 898 491 898 Q520 898 538 880.5 Q556 863 556 835 Q556 807 538 789 Q520 771 491 771 Z M387 -14 Q310 -14 249 12.5 Q188 39 146 85.5 Q104 132 81.5 196.5 Q59 261 59 336 Q59 438 87.5 509.5 Q116 581 163.5 626.5 Q211 672 271.5 693 Q332 714 396 714 Q461 714 520 692.5 Q579 671 623 627.5 Q667 584 693 519 Q719 454 719 368 Q719 276 693 204.5 Q667 133 622 84.5 Q577 36 516.5 11 Q456 -14 387 -14 Z M399 53 Q496 53 553 124 Q610 195 610 349 Q610 423 593.5 479.5 Q577 536 547.5 574 Q518 612 476 631 Q434 650 383 650 Q337 650 297 633.5 Q257 617 227.5 581.5 Q198 546 181.5 490.5 Q165 435 165 357 Q165 287 181.5 230.5 Q198 174 228 134.5 Q258 95 301.5 74 Q345 53 399 53 Z " />
<glyph glyph-name="multiply" unicode="&#xd7;" horiz-adv-x="582" d="M290 263 L152 126 L110 168 L247 307 L109 443 L154 485 L290 350 L431 491 L473 447 L333 306 L473 167 L429 123 L290 263 Z " />
<glyph glyph-name="Oslash" unicode="&#xd8;" horiz-adv-x="779" d="M637 612 Q675 569 697 508 Q719 447 719 368 Q719 276 693 204.5 Q667 133 622 84.5 Q577 36 516.5 11 Q456 -14 387 -14 Q322 -14 269.5 4.5 Q217 23 175 57 L116 -14 L36 -14 L132 102 Q97 148 78 207.5 Q59 267 59 336 Q59 438 87.5 509.5 Q116 581 163.5 626.5 Q211 672 271.5 693 Q332 714 396 714 Q451 714 500.5 699 Q550 684 592 654 L642 714 L722 714 L637 612 Z M165 357 Q165 256 199 182 L536 587 Q478 650 383 650 Q337 650 297 633.5 Q257 617 227.5 581.5 Q198 546 181.5 490.5 Q165 435 165 357 Z M610 349 Q610 463 572 534 L234 128 Q264 92 305.5 72.5 Q347 53 399 53 Q496 53 553 124 Q610 195 610 349 Z " />
<glyph glyph-name="Ugrave" unicode="&#xd9;" horiz-adv-x="810" d="M340 818 Q320 826 309 839.5 Q298 853 298 874 Q298 891 310 906.5 Q322 922 341 922 Q350 922 358.5 916 Q367 910 380 899 L511 780 L491 752 L340 818 Z M404 -14 Q327 -14 276 7 Q225 28 194 65 Q163 102 150.5 153 Q138 204 138 265 L138 596 Q138 619 133 629 Q128 639 105 643 L49 652 L49 700 L325 700 L325 652 L267 643 Q246 639 241.5 627 Q237 615 237 592 L237 272 Q237 161 277.5 108.5 Q318 56 418 56 Q462 56 497 67.5 Q532 79 556.5 105.5 Q581 132 594 174.5 Q607 217 607 279 L607 596 Q607 619 602 629 Q597 639 574 643 L519 652 L519 700 L765 700 L765 652 L708 643 Q686 639 681.5 627 Q677 615 677 592 L677 291 Q677 132 606 59 Q535 -14 404 -14 Z " />
<glyph glyph-name="Uacute" unicode="&#xda;" horiz-adv-x="810" d="M321 780 L452 899 Q465 910 473.5 916 Q482 922 491 922 Q510 922 522 906.5 Q534 891 534 874 Q534 853 523 839.5 Q512 826 492 818 L341 752 L321 780 Z M404 -14 Q327 -14 276 7 Q225 28 194 65 Q163 102 150.5 153 Q138 204 138 265 L138 596 Q138 619 133 629 Q128 639 105 643 L49 652 L49 700 L325 700 L325 652 L267 643 Q246 639 241.5 627 Q237 615 237 592 L237 272 Q237 161 277.5 108.5 Q318 56 418 56 Q462 56 497 67.5 Q532 79 556.5 105.5 Q581 132 594 174.5 Q607 217 607 279 L607 596 Q607 619 602 629 Q597 639 574 643 L519 652 L519 700 L765 700 L765 652 L708 643 Q686 639 681.5 627 Q677 615 677 592 L677 291 Q677 132 606 59 Q535 -14 404 -14 Z " />
<glyph glyph-name="Ucircumflex" unicode="&#xdb;" horiz-adv-x="810" d="M253 775 L378 912 Q387 922 396.5 928 Q406 934 417 934 Q428 934 436 927.5 Q444 921 458 906 L579 776 L554 750 L417 834 L277 750 L253 775 Z M404 -14 Q327 -14 276 7 Q225 28 194 65 Q163 102 150.5 153 Q138 204 138 265 L138 596 Q138 619 133 629 Q128 639 105 643 L49 652 L49 700 L325 700 L325 652 L267 643 Q246 639 241.5 627 Q237 615 237 592 L237 272 Q237 161 277.5 108.5 Q318 56 418 56 Q462 56 497 67.5 Q532 79 556.5 105.5 Q581 132 594 174.5 Q607 217 607 279 L607 596 Q607 619 602 629 Q597 639 574 643 L519 652 L519 700 L765 700 L765 652 L708 643 Q686 639 681.5 627 Q677 615 677 592 L677 291 Q677 132 606 59 Q535 -14 404 -14 Z " />
<glyph glyph-name="Udieresis" unicode="&#xdc;" horiz-adv-x="810" d="M313 771 Q285 771 267 788.5 Q249 806 249 834 Q249 862 267 880 Q285 898 313 898 Q342 898 360.5 880.5 Q379 863 379 835 Q379 807 360.5 789 Q342 771 313 771 Z M516 771 Q487 771 469 788.5 Q451 806 451 834 Q451 862 469 880 Q487 898 516 898 Q545 898 563 880.5 Q581 863 581 835 Q581 807 563 789 Q545 771 516 771 Z M404 -14 Q327 -14 276 7 Q225 28 194 65 Q163 102 150.5 153 Q138 204 138 265 L138 596 Q138 619 133 629 Q128 639 105 643 L49 652 L49 700 L325 700 L325 652 L267 643 Q246 639 241.5 627 Q237 615 237 592 L237 272 Q237 161 277.5 108.5 Q318 56 418 56 Q462 56 497 67.5 Q532 79 556.5 105.5 Q581 132 594 174.5 Q607 217 607 279 L607 596 Q607 619 602 629 Q597 639 574 643 L519 652 L519 700 L765 700 L765 652 L708 643 Q686 639 681.5 627 Q677 615 677 592 L677 291 Q677 132 606 59 Q535 -14 404 -14 Z " />
<glyph glyph-name="Yacute" unicode="&#xdd;" horiz-adv-x="708" d="M276 780 L407 899 Q420 910 428.5 916 Q437 922 446 922 Q465 922 477 906.5 Q489 891 489 874 Q489 853 478 839.5 Q467 826 447 818 L296 752 L276 780 Z M209 48 L271 57 Q293 61 297.5 73 Q302 85 302 108 L302 293 L115 591 Q100 615 88.5 626 Q77 637 55 642 L18 649 L18 700 L297 700 L297 652 L242 645 Q222 643 214.5 630.5 Q207 618 223 595 L369 358 L374 358 L512 591 Q528 614 522 625.5 Q516 637 495 642 L449 653 L449 700 L690 700 L690 652 L641 644 Q623 641 612 628 Q601 615 584 589 L401 292 L401 104 Q401 81 406 71 Q411 61 433 57 L494 48 L494 0 L209 0 L209 48 Z " />
<glyph glyph-name="Thorn" unicode="&#xde;" horiz-adv-x="610" d="M76 48 L134 57 Q156 61 160.5 73 Q165 85 165 108 L165 592 Q165 615 160.5 627 Q156 639 134 643 L76 652 L76 700 L371 700 L371 652 L301 644 Q277 641 270.5 630 Q264 619 264 594 L264 559 L322 559 Q379 559 428 550 Q477 541 513.5 519 Q550 497 570.5 460.5 Q591 424 591 368 Q591 307 567.5 265 Q544 223 508 198 Q472 173 428 162 Q384 151 343 151 L264 151 L264 106 Q264 81 270.5 70 Q277 59 301 56 L371 48 L371 0 L76 0 L76 48 Z M322 205 Q408 205 446 248 Q484 291 484 365 Q484 407 471.5 434 Q459 461 436.5 477 Q414 493 383 499 Q352 505 315 505 L264 505 L264 205 L322 205 Z " />
<glyph glyph-name="germandbls" unicode="&#xdf;" horiz-adv-x="677" d="M289 158 L345 162 Q357 127 372.5 104.5 Q388 82 405 69 Q422 56 440.5 51 Q459 46 478 46 Q519 46 544 67 Q569 88 569 130 Q569 162 552 181.5 Q535 201 510 215 Q485 229 455 241.5 Q425 254 400 271.5 Q375 289 358 315 Q341 341 341 383 Q341 423 359.5 452.5 Q378 482 400 509.5 Q422 537 440.5 567.5 Q459 598 459 640 Q459 668 449.5 685 Q440 702 425 711.5 Q410 721 391 724.5 Q372 728 352 728 Q325 728 301.5 721 Q278 714 260 698.5 Q242 683 232 658.5 Q222 634 222 599 L222 0 L41 0 L41 48 L98 57 Q120 61 124.5 73 Q129 85 129 108 L129 444 L49 444 L49 494 L129 504 L129 545 Q129 599 145 643 Q161 687 190.5 718 Q220 749 263 765.5 Q306 782 360 782 Q395 782 427.5 775.5 Q460 769 485.5 753.5 Q511 738 526.5 713 Q542 688 542 651 Q542 614 525 584.5 Q508 555 487.5 527.5 Q467 500 450 472.5 Q433 445 433 412 Q433 384 449 365.5 Q465 347 489.5 333 Q514 319 542.5 305 Q571 291 595.5 271.5 Q620 252 636 224 Q652 196 652 152 Q652 120 641 90 Q630 60 608.5 37 Q587 14 554 0 Q521 -14 476 -14 Q434 -14 404.5 -1.5 Q375 11 358 23 L347 -14 L305 -14 L289 158 Z " />
<glyph glyph-name="agrave" unicode="&#xe0;" horiz-adv-x="539" d="M169 672 Q152 683 143 695.5 Q134 708 134 725 Q134 744 147 760 Q160 776 182 776 Q193 776 201 769 Q209 762 221 747 L326 605 L302 580 L169 672 Z M192 -14 Q168 -14 143 -7 Q118 0 98 16 Q78 32 65 58 Q52 84 52 121 Q52 187 93.5 224 Q135 261 207 272 Q237 277 273 279.5 Q309 282 339 284 L339 352 Q339 420 310 445 Q281 470 231 470 Q199 470 174 460.5 Q149 451 139 440 Q147 427 156 411 Q165 395 165 384 Q165 367 150.5 353 Q136 339 111 339 Q79 339 66.5 355 Q54 371 54 391 Q54 418 70 441.5 Q86 465 112.5 483 Q139 501 173.5 511 Q208 521 245 521 Q284 521 318 513 Q352 505 377.5 485 Q403 465 417.5 430 Q432 395 432 341 L432 100 Q432 38 524 64 L534 26 Q514 6 487.5 -4 Q461 -14 442 -14 Q392 -14 371.5 12 Q351 38 347 75 Q320 32 283 9 Q246 -14 192 -14 Z M230 55 Q245 55 264 60 Q283 65 299.5 77 Q316 89 327.5 109.5 Q339 130 339 161 L339 232 Q310 232 285 229 Q260 226 242 223 Q215 219 197 210 Q179 201 168.5 188 Q158 175 153.5 160.5 Q149 146 149 132 Q149 90 173.5 72.5 Q198 55 230 55 Z " />
<glyph glyph-name="aacute" unicode="&#xe1;" horiz-adv-x="539" d="M171 605 L279 748 Q291 763 299 770 Q307 777 318 777 Q340 777 353 761 Q366 745 366 726 Q366 694 331 673 L195 580 L171 605 Z M192 -14 Q168 -14 143 -7 Q118 0 98 16 Q78 32 65 58 Q52 84 52 121 Q52 187 93.5 224 Q135 261 207 272 Q237 277 273 279.5 Q309 282 339 284 L339 352 Q339 420 310 445 Q281 470 231 470 Q199 470 174 460.5 Q149 451 139 440 Q147 427 156 411 Q165 395 165 384 Q165 367 150.5 353 Q136 339 111 339 Q79 339 66.5 355 Q54 371 54 391 Q54 418 70 441.5 Q86 465 112.5 483 Q139 501 173.5 511 Q208 521 245 521 Q284 521 318 513 Q352 505 377.5 485 Q403 465 417.5 430 Q432 395 432 341 L432 100 Q432 38 524 64 L534 26 Q514 6 487.5 -4 Q461 -14 442 -14 Q392 -14 371.5 12 Q351 38 347 75 Q320 32 283 9 Q246 -14 192 -14 Z M230 55 Q245 55 264 60 Q283 65 299.5 77 Q316 89 327.5 109.5 Q339 130 339 161 L339 232 Q310 232 285 229 Q260 226 242 223 Q215 219 197 210 Q179 201 168.5 188 Q158 175 153.5 160.5 Q149 146 149 132 Q149 90 173.5 72.5 Q198 55 230 55 Z " />
<glyph glyph-name="acircumflex" unicode="&#xe2;" horiz-adv-x="539" d="M97 605 L211 757 Q229 779 250 779 Q261 779 269.5 773.5 Q278 768 291 751 L400 606 L373 580 L250 680 L123 580 L97 605 Z M192 -14 Q168 -14 143 -7 Q118 0 98 16 Q78 32 65 58 Q52 84 52 121 Q52 187 93.5 224 Q135 261 207 272 Q237 277 273 279.5 Q309 282 339 284 L339 352 Q339 420 310 445 Q281 470 231 470 Q199 470 174 460.5 Q149 451 139 440 Q147 427 156 411 Q165 395 165 384 Q165 367 150.5 353 Q136 339 111 339 Q79 339 66.5 355 Q54 371 54 391 Q54 418 70 441.5 Q86 465 112.5 483 Q139 501 173.5 511 Q208 521 245 521 Q284 521 318 513 Q352 505 377.5 485 Q403 465 417.5 430 Q432 395 432 341 L432 100 Q432 38 524 64 L534 26 Q514 6 487.5 -4 Q461 -14 442 -14 Q392 -14 371.5 12 Q351 38 347 75 Q320 32 283 9 Q246 -14 192 -14 Z M230 55 Q245 55 264 60 Q283 65 299.5 77 Q316 89 327.5 109.5 Q339 130 339 161 L339 232 Q310 232 285 229 Q260 226 242 223 Q215 219 197 210 Q179 201 168.5 188 Q158 175 153.5 160.5 Q149 146 149 132 Q149 90 173.5 72.5 Q198 55 230 55 Z " />
<glyph glyph-name="atilde" unicode="&#xe3;" horiz-adv-x="539" d="M322 620 Q302 620 282 625.5 Q262 631 232 644 Q205 655 187.5 662 Q170 669 162 669 Q149 669 140 662.5 Q131 656 115 632 L84 651 Q97 679 108 697 Q119 715 129.5 725 Q140 735 151.5 738.5 Q163 742 177 742 Q194 742 213 736.5 Q232 731 263 718 Q285 709 304.5 701.5 Q324 694 337 694 Q352 694 360 703 Q368 712 381 731 L412 712 Q388 661 369.5 640.5 Q351 620 322 620 Z M192 -14 Q168 -14 143 -7 Q118 0 98 16 Q78 32 65 58 Q52 84 52 121 Q52 187 93.5 224 Q135 261 207 272 Q237 277 273 279.5 Q309 282 339 284 L339 352 Q339 420 310 445 Q281 470 231 470 Q199 470 174 460.5 Q149 451 139 440 Q147 427 156 411 Q165 395 165 384 Q165 367 150.5 353 Q136 339 111 339 Q79 339 66.5 355 Q54 371 54 391 Q54 418 70 441.5 Q86 465 112.5 483 Q139 501 173.5 511 Q208 521 245 521 Q284 521 318 513 Q352 505 377.5 485 Q403 465 417.5 430 Q432 395 432 341 L432 100 Q432 38 524 64 L534 26 Q514 6 487.5 -4 Q461 -14 442 -14 Q392 -14 371.5 12 Q351 38 347 75 Q320 32 283 9 Q246 -14 192 -14 Z M230 55 Q245 55 264 60 Q283 65 299.5 77 Q316 89 327.5 109.5 Q339 130 339 161 L339 232 Q310 232 285 229 Q260 226 242 223 Q215 219 197 210 Q179 201 168.5 188 Q158 175 153.5 160.5 Q149 146 149 132 Q149 90 173.5 72.5 Q198 55 230 55 Z " />
<glyph glyph-name="adieresis" unicode="&#xe4;" horiz-adv-x="539" d="M147 620 Q120 620 102 637.5 Q84 655 84 682 Q84 709 102 727 Q120 745 147 745 Q176 745 194 727.5 Q212 710 212 683 Q212 656 194 638 Q176 620 147 620 Z M346 620 Q318 620 300 637.5 Q282 655 282 682 Q282 709 300 727 Q318 745 346 745 Q374 745 392 727.5 Q410 710 410 683 Q410 656 392 638 Q374 620 346 620 Z M192 -14 Q168 -14 143 -7 Q118 0 98 16 Q78 32 65 58 Q52 84 52 121 Q52 187 93.5 224 Q135 261 207 272 Q237 277 273 279.5 Q309 282 339 284 L339 352 Q339 420 310 445 Q281 470 231 470 Q199 470 174 460.5 Q149 451 139 440 Q147 427 156 411 Q165 395 165 384 Q165 367 150.5 353 Q136 339 111 339 Q79 339 66.5 355 Q54 371 54 391 Q54 418 70 441.5 Q86 465 112.5 483 Q139 501 173.5 511 Q208 521 245 521 Q284 521 318 513 Q352 505 377.5 485 Q403 465 417.5 430 Q432 395 432 341 L432 100 Q432 38 524 64 L534 26 Q514 6 487.5 -4 Q461 -14 442 -14 Q392 -14 371.5 12 Q351 38 347 75 Q320 32 283 9 Q246 -14 192 -14 Z M230 55 Q245 55 264 60 Q283 65 299.5 77 Q316 89 327.5 109.5 Q339 130 339 161 L339 232 Q310 232 285 229 Q260 226 242 223 Q215 219 197 210 Q179 201 168.5 188 Q158 175 153.5 160.5 Q149 146 149 132 Q149 90 173.5 72.5 Q198 55 230 55 Z " />
<glyph glyph-name="aring" unicode="&#xe5;" horiz-adv-x="539" d="M248 582 Q191 582 165.5 610 Q140 638 140 685 Q140 727 167 757 Q194 787 250 787 Q303 787 329.5 759.5 Q356 732 356 687 Q356 640 328.5 611 Q301 582 248 582 Z M249 629 Q277 629 287 645.5 Q297 662 297 685 Q297 707 285 724 Q273 741 247 741 Q220 741 209 723.5 Q198 706 198 685 Q198 664 209 646.5 Q220 629 249 629 Z M192 -14 Q168 -14 143 -7 Q118 0 98 16 Q78 32 65 58 Q52 84 52 121 Q52 187 93.5 224 Q135 261 207 272 Q237 277 273 279.5 Q309 282 339 284 L339 352 Q339 420 310 445 Q281 470 231 470 Q199 470 174 460.5 Q149 451 139 440 Q147 427 156 411 Q165 395 165 384 Q165 367 150.5 353 Q136 339 111 339 Q79 339 66.5 355 Q54 371 54 391 Q54 418 70 441.5 Q86 465 112.5 483 Q139 501 173.5 511 Q208 521 245 521 Q284 521 318 513 Q352 505 377.5 485 Q403 465 417.5 430 Q432 395 432 341 L432 100 Q432 38 524 64 L534 26 Q514 6 487.5 -4 Q461 -14 442 -14 Q392 -14 371.5 12 Q351 38 347 75 Q320 32 283 9 Q246 -14 192 -14 Z M230 55 Q245 55 264 60 Q283 65 299.5 77 Q316 89 327.5 109.5 Q339 130 339 161 L339 232 Q310 232 285 229 Q260 226 242 223 Q215 219 197 210 Q179 201 168.5 188 Q158 175 153.5 160.5 Q149 146 149 132 Q149 90 173.5 72.5 Q198 55 230 55 Z " />
<glyph glyph-name="ae" unicode="&#xe6;" horiz-adv-x="809" d="M192 -14 Q168 -14 143 -7 Q118 0 98 16 Q78 32 65 58 Q52 84 52 121 Q52 187 93.5 224 Q135 261 207 272 Q237 277 273 279.5 Q309 282 339 284 L339 352 Q339 420 310 445 Q281 470 231 470 Q199 470 174 460.5 Q149 451 139 440 Q147 427 156 411 Q165 395 165 384 Q165 367 150.5 353 Q136 339 111 339 Q79 339 66.5 355 Q54 371 54 391 Q54 418 70 441.5 Q86 465 112.5 483 Q139 501 173.5 511 Q208 521 245 521 Q296 521 337.5 506.5 Q379 492 404 454 Q436 486 479.5 503.5 Q523 521 575 521 Q614 521 647.5 509 Q681 497 705.5 474.5 Q730 452 744.5 419 Q759 386 759 344 Q759 296 745 246 L432 246 Q435 161 476 110.5 Q517 60 593 60 Q644 60 678 80 Q712 100 731 120 L766 85 Q752 66 732 48.5 Q712 31 687.5 17 Q663 3 633 -5.5 Q603 -14 570 -14 Q501 -14 451.5 13.5 Q402 41 373 88 Q356 56 334.5 36 Q313 16 290 5 Q267 -6 242 -10 Q217 -14 192 -14 Z M662 302 Q665 322 665 348 Q665 408 638.5 438 Q612 468 564 468 Q528 468 504 453 Q480 438 465 414.5 Q450 391 442.5 361.5 Q435 332 432 302 L662 302 Z M230 55 Q245 55 264 60.5 Q283 66 299.5 79 Q316 92 327.5 112.5 Q339 133 339 164 L339 232 Q310 232 285 229 Q260 226 242 223 Q215 219 197 210 Q179 201 168.5 188 Q158 175 153.5 160.5 Q149 146 149 132 Q149 90 173.5 72.5 Q198 55 230 55 Z " />
<glyph glyph-name="ccedilla" unicode="&#xe7;" horiz-adv-x="500" d="M281 -14 L264 -57 Q312 -51 341 -70.5 Q370 -90 370 -133 Q370 -175 342 -202 Q314 -229 255 -229 Q237 -229 221.5 -224.5 Q206 -220 194 -213.5 Q182 -207 173 -200.5 Q164 -194 160 -189 L184 -152 Q197 -162 214 -168 Q231 -174 248 -174 Q268 -174 283 -164 Q298 -154 298 -131 Q298 -110 285 -101.5 Q272 -93 248 -93 Q238 -93 231.5 -93.5 Q225 -94 218 -96 L210 -75 L236 -10 Q188 -2 152.5 20.5 Q117 43 93.5 77 Q70 111 58.5 154.5 Q47 198 47 247 Q47 311 65 362 Q83 413 115.5 448 Q148 483 193 502 Q238 521 291 521 Q329 521 361.5 511 Q394 501 418 484 Q442 467 456 443 Q470 419 470 390 Q470 364 454.5 344.5 Q439 325 404 325 Q372 325 358.5 339 Q345 353 345 373 Q345 385 351 400 Q357 415 373 441 Q348 457 327 461 Q306 465 283 465 Q254 465 229 451 Q204 437 186 411 Q168 385 158 348.5 Q148 312 148 268 Q148 171 191.5 117 Q235 63 308 63 Q354 63 385.5 79 Q417 95 437 115 L471 80 Q443 42 394.5 14 Q346 -14 283 -14 L281 -14 Z " />
<glyph glyph-name="egrave" unicode="&#xe8;" horiz-adv-x="520" d="M200 672 Q183 683 174 695.5 Q165 708 165 725 Q165 744 178 760 Q191 776 213 776 Q224 776 232 769 Q240 762 252 747 L357 605 L333 580 L200 672 Z M286 -14 Q227 -14 182 6.5 Q137 27 107 62 Q77 97 62 144.5 Q47 192 47 247 Q47 311 65 362 Q83 413 115.5 448 Q148 483 193 502 Q238 521 291 521 Q330 521 363.5 509 Q397 497 421.5 474.5 Q446 452 460.5 419 Q475 386 475 344 Q475 296 461 246 L148 246 Q151 161 192 110.5 Q233 60 309 60 Q360 60 394 80 Q428 100 447 120 L482 85 Q468 66 448 48.5 Q428 31 403.5 17 Q379 3 349 -5.5 Q319 -14 286 -14 Z M378 302 Q381 322 381 348 Q381 408 354.5 438 Q328 468 280 468 Q244 468 220 453 Q196 438 181 414.5 Q166 391 158.5 361.5 Q151 332 148 302 L378 302 Z " />
<glyph glyph-name="eacute" unicode="&#xe9;" horiz-adv-x="520" d="M202 605 L310 748 Q322 763 330 770 Q338 777 349 777 Q371 777 384 761 Q397 745 397 726 Q397 694 362 673 L226 580 L202 605 Z M286 -14 Q227 -14 182 6.5 Q137 27 107 62 Q77 97 62 144.5 Q47 192 47 247 Q47 311 65 362 Q83 413 115.5 448 Q148 483 193 502 Q238 521 291 521 Q330 521 363.5 509 Q397 497 421.5 474.5 Q446 452 460.5 419 Q475 386 475 344 Q475 296 461 246 L148 246 Q151 161 192 110.5 Q233 60 309 60 Q360 60 394 80 Q428 100 447 120 L482 85 Q468 66 448 48.5 Q428 31 403.5 17 Q379 3 349 -5.5 Q319 -14 286 -14 Z M378 302 Q381 322 381 348 Q381 408 354.5 438 Q328 468 280 468 Q244 468 220 453 Q196 438 181 414.5 Q166 391 158.5 361.5 Q151 332 148 302 L378 302 Z " />
<glyph glyph-name="ecircumflex" unicode="&#xea;" horiz-adv-x="520" d="M128 605 L242 757 Q260 779 281 779 Q292 779 300.5 773.5 Q309 768 322 751 L431 606 L404 580 L281 680 L154 580 L128 605 Z M286 -14 Q227 -14 182 6.5 Q137 27 107 62 Q77 97 62 144.5 Q47 192 47 247 Q47 311 65 362 Q83 413 115.5 448 Q148 483 193 502 Q238 521 291 521 Q330 521 363.5 509 Q397 497 421.5 474.5 Q446 452 460.5 419 Q475 386 475 344 Q475 296 461 246 L148 246 Q151 161 192 110.5 Q233 60 309 60 Q360 60 394 80 Q428 100 447 120 L482 85 Q468 66 448 48.5 Q428 31 403.5 17 Q379 3 349 -5.5 Q319 -14 286 -14 Z M378 302 Q381 322 381 348 Q381 408 354.5 438 Q328 468 280 468 Q244 468 220 453 Q196 438 181 414.5 Q166 391 158.5 361.5 Q151 332 148 302 L378 302 Z " />
<glyph glyph-name="edieresis" unicode="&#xeb;" horiz-adv-x="520" d="M178 620 Q151 620 133 637.5 Q115 655 115 682 Q115 709 133 727 Q151 745 178 745 Q207 745 225 727.5 Q243 710 243 683 Q243 656 225 638 Q207 620 178 620 Z M377 620 Q349 620 331 637.5 Q313 655 313 682 Q313 709 331 727 Q349 745 377 745 Q405 745 423 727.5 Q441 710 441 683 Q441 656 423 638 Q405 620 377 620 Z M286 -14 Q227 -14 182 6.5 Q137 27 107 62 Q77 97 62 144.5 Q47 192 47 247 Q47 311 65 362 Q83 413 115.5 448 Q148 483 193 502 Q238 521 291 521 Q330 521 363.5 509 Q397 497 421.5 474.5 Q446 452 460.5 419 Q475 386 475 344 Q475 296 461 246 L148 246 Q151 161 192 110.5 Q233 60 309 60 Q360 60 394 80 Q428 100 447 120 L482 85 Q468 66 448 48.5 Q428 31 403.5 17 Q379 3 349 -5.5 Q319 -14 286 -14 Z M378 302 Q381 322 381 348 Q381 408 354.5 438 Q328 468 280 468 Q244 468 220 453 Q196 438 181 414.5 Q166 391 158.5 361.5 Q151 332 148 302 L378 302 Z " />
<glyph glyph-name="igrave" unicode="&#xec;" horiz-adv-x="333" d="M73 672 Q56 683 47 695.5 Q38 708 38 725 Q38 744 51 760 Q64 776 86 776 Q97 776 105 769 Q113 762 125 747 L230 605 L206 580 L73 672 Z M40 49 L97 58 Q120 62 124 74 Q128 86 128 109 L128 382 Q128 416 122.5 429 Q117 442 92 445 L44 452 L51 502 L209 510 L221 505 L221 105 Q221 84 226 73 Q231 62 253 58 L309 48 L309 0 L40 0 L40 49 Z " />
<glyph glyph-name="iacute" unicode="&#xed;" horiz-adv-x="333" d="M75 605 L183 748 Q195 763 203 770 Q211 777 222 777 Q244 777 257 761 Q270 745 270 726 Q270 694 235 673 L99 580 L75 605 Z M40 49 L97 58 Q120 62 124 74 Q128 86 128 109 L128 382 Q128 416 122.5 429 Q117 442 92 445 L44 452 L51 502 L209 510 L221 505 L221 105 Q221 84 226 73 Q231 62 253 58 L309 48 L309 0 L40 0 L40 49 Z " />
<glyph glyph-name="icircumflex" unicode="&#xee;" horiz-adv-x="333" d="M1 605 L115 757 Q133 779 154 779 Q165 779 173.5 773.5 Q182 768 195 751 L304 606 L277 580 L154 680 L27 580 L1 605 Z M40 49 L97 58 Q120 62 124 74 Q128 86 128 109 L128 382 Q128 416 122.5 429 Q117 442 92 445 L44 452 L51 502 L209 510 L221 505 L221 105 Q221 84 226 73 Q231 62 253 58 L309 48 L309 0 L40 0 L40 49 Z " />
<glyph glyph-name="idieresis" unicode="&#xef;" horiz-adv-x="333" d="M51 620 Q24 620 6 637.5 Q-12 655 -12 682 Q-12 709 6 727 Q24 745 51 745 Q80 745 98 727.5 Q116 710 116 683 Q116 656 98 638 Q80 620 51 620 Z M250 620 Q222 620 204 637.5 Q186 655 186 682 Q186 709 204 727 Q222 745 250 745 Q278 745 296 727.5 Q314 710 314 683 Q314 656 296 638 Q278 620 250 620 Z M40 49 L97 58 Q120 62 124 74 Q128 86 128 109 L128 382 Q128 416 122.5 429 Q117 442 92 445 L44 452 L51 502 L209 510 L221 505 L221 105 Q221 84 226 73 Q231 62 253 58 L309 48 L309 0 L40 0 L40 49 Z " />
<glyph glyph-name="eth" unicode="&#xf0;" horiz-adv-x="579" d="M277 -14 Q225 -14 182.5 3.5 Q140 21 110 53.5 Q80 86 63.5 133.5 Q47 181 47 241 Q47 309 67 357 Q87 405 119.5 436 Q152 467 192 481.5 Q232 496 272 496 Q322 496 365 473.5 Q408 451 433 412 L431 426 Q424 484 402.5 541 Q381 598 346 637 L250 564 L225 609 L305 667 Q275 690 234 705.5 Q193 721 141 726 L150 771 Q204 768 259 756 Q314 744 363 714 L460 789 L485 744 L407 684 Q433 661 456 630 Q479 599 496 558 Q513 517 522.5 465 Q532 413 532 348 Q532 178 467.5 82 Q403 -14 277 -14 Z M293 47 Q359 47 393.5 100.5 Q428 154 428 247 Q428 278 425.5 309.5 Q423 341 410 367 Q396 396 363 415 Q330 434 288 434 Q260 434 234.5 422.5 Q209 411 190.5 388 Q172 365 161 329 Q150 293 150 244 Q150 146 187 96.5 Q224 47 293 47 Z " />
<glyph glyph-name="ntilde" unicode="&#xf1;" horiz-adv-x="662" d="M413 620 Q393 620 373 625.5 Q353 631 323 644 Q296 655 278.5 662 Q261 669 253 669 Q240 669 231 662.5 Q222 656 206 632 L175 651 Q188 679 199 697 Q210 715 220.5 725 Q231 735 242.5 738.5 Q254 742 268 742 Q285 742 304 736.5 Q323 731 354 718 Q376 709 395.5 701.5 Q415 694 428 694 Q443 694 451 703 Q459 712 472 731 L503 712 Q479 661 460.5 640.5 Q442 620 413 620 Z M55 47 L103 56 Q123 60 126 71.5 Q129 83 129 104 L129 386 Q129 420 123.5 432 Q118 444 95 448 L46 455 L53 503 L192 514 L204 507 L211 418 L214 418 Q224 436 240.5 454 Q257 472 279 487 Q301 502 328.5 511.5 Q356 521 389 521 Q436 521 467 507 Q498 493 517.5 470 Q537 447 545 416 Q553 385 553 350 L553 96 Q553 76 558 67.5 Q563 59 584 55 L631 47 L631 0 L386 0 L386 46 L430 54 Q450 58 455 66.5 Q460 75 460 96 L460 321 Q460 348 457.5 371 Q455 394 444.5 411.5 Q434 429 414.5 439 Q395 449 360 449 Q334 449 309.5 441 Q285 433 265.5 416.5 Q246 400 234 373.5 Q222 347 222 310 L222 100 Q222 79 226 69.5 Q230 60 247 57 L300 46 L300 0 L55 0 L55 47 Z " />
<glyph glyph-name="ograve" unicode="&#xf2;" horiz-adv-x="587" d="M216 672 Q199 683 190 695.5 Q181 708 181 725 Q181 744 194 760 Q207 776 229 776 Q240 776 248 769 Q256 762 268 747 L373 605 L349 580 L216 672 Z M290 -14 Q231 -14 185.5 5.5 Q140 25 109.5 59 Q79 93 63 140 Q47 187 47 242 Q47 317 68.5 370 Q90 423 126 456.5 Q162 490 208.5 505.5 Q255 521 304 521 Q354 521 397 505 Q440 489 472 457.5 Q504 426 522.5 378 Q541 330 541 267 Q541 199 522 146.5 Q503 94 469 58.5 Q435 23 389.5 4.5 Q344 -14 290 -14 Z M304 48 Q368 48 403.5 97 Q439 146 439 243 Q439 348 398 405 Q357 462 288 462 Q227 462 187.5 417.5 Q148 373 148 272 Q148 169 188.5 108.5 Q229 48 304 48 Z " />
<glyph glyph-name="oacute" unicode="&#xf3;" horiz-adv-x="587" d="M219 605 L327 748 Q339 763 347 770 Q355 777 366 777 Q388 777 401 761 Q414 745 414 726 Q414 694 379 673 L243 580 L219 605 Z M290 -14 Q231 -14 185.5 5.5 Q140 25 109.5 59 Q79 93 63 140 Q47 187 47 242 Q47 317 68.5 370 Q90 423 126 456.5 Q162 490 208.5 505.5 Q255 521 304 521 Q354 521 397 505 Q440 489 472 457.5 Q504 426 522.5 378 Q541 330 541 267 Q541 199 522 146.5 Q503 94 469 58.5 Q435 23 389.5 4.5 Q344 -14 290 -14 Z M304 48 Q368 48 403.5 97 Q439 146 439 243 Q439 348 398 405 Q357 462 288 462 Q227 462 187.5 417.5 Q148 373 148 272 Q148 169 188.5 108.5 Q229 48 304 48 Z " />
<glyph glyph-name="ocircumflex" unicode="&#xf4;" horiz-adv-x="587" d="M144 605 L258 757 Q276 779 297 779 Q308 779 316.5 773.5 Q325 768 338 751 L447 606 L420 580 L297 680 L170 580 L144 605 Z M290 -14 Q231 -14 185.5 5.5 Q140 25 109.5 59 Q79 93 63 140 Q47 187 47 242 Q47 317 68.5 370 Q90 423 126 456.5 Q162 490 208.5 505.5 Q255 521 304 521 Q354 521 397 505 Q440 489 472 457.5 Q504 426 522.5 378 Q541 330 541 267 Q541 199 522 146.5 Q503 94 469 58.5 Q435 23 389.5 4.5 Q344 -14 290 -14 Z M304 48 Q368 48 403.5 97 Q439 146 439 243 Q439 348 398 405 Q357 462 288 462 Q227 462 187.5 417.5 Q148 373 148 272 Q148 169 188.5 108.5 Q229 48 304 48 Z " />
<glyph glyph-name="otilde" unicode="&#xf5;" horiz-adv-x="587" d="M369 620 Q349 620 329 625.5 Q309 631 279 644 Q252 655 234.5 662 Q217 669 209 669 Q196 669 187 662.5 Q178 656 162 632 L131 651 Q144 679 155 697 Q166 715 176.5 725 Q187 735 198.5 738.5 Q210 742 224 742 Q241 742 260 736.5 Q279 731 310 718 Q332 709 351.5 701.5 Q371 694 384 694 Q399 694 407 703 Q415 712 428 731 L459 712 Q435 661 416.5 640.5 Q398 620 369 620 Z M290 -14 Q231 -14 185.5 5.5 Q140 25 109.5 59 Q79 93 63 140 Q47 187 47 242 Q47 317 68.5 370 Q90 423 126 456.5 Q162 490 208.5 505.5 Q255 521 304 521 Q354 521 397 505 Q440 489 472 457.5 Q504 426 522.5 378 Q541 330 541 267 Q541 199 522 146.5 Q503 94 469 58.5 Q435 23 389.5 4.5 Q344 -14 290 -14 Z M304 48 Q368 48 403.5 97 Q439 146 439 243 Q439 348 398 405 Q357 462 288 462 Q227 462 187.5 417.5 Q148 373 148 272 Q148 169 188.5 108.5 Q229 48 304 48 Z " />
<glyph glyph-name="odieresis" unicode="&#xf6;" horiz-adv-x="587" d="M193 620 Q166 620 148 637.5 Q130 655 130 682 Q130 709 148 727 Q166 745 193 745 Q222 745 240 727.5 Q258 710 258 683 Q258 656 240 638 Q222 620 193 620 Z M392 620 Q364 620 346 637.5 Q328 655 328 682 Q328 709 346 727 Q364 745 392 745 Q420 745 438 727.5 Q456 710 456 683 Q456 656 438 638 Q420 620 392 620 Z M290 -14 Q231 -14 185.5 5.5 Q140 25 109.5 59 Q79 93 63 140 Q47 187 47 242 Q47 317 68.5 370 Q90 423 126 456.5 Q162 490 208.5 505.5 Q255 521 304 521 Q354 521 397 505 Q440 489 472 457.5 Q504 426 522.5 378 Q541 330 541 267 Q541 199 522 146.5 Q503 94 469 58.5 Q435 23 389.5 4.5 Q344 -14 290 -14 Z M304 48 Q368 48 403.5 97 Q439 146 439 243 Q439 348 398 405 Q357 462 288 462 Q227 462 187.5 417.5 Q148 373 148 272 Q148 169 188.5 108.5 Q229 48 304 48 Z " />
<glyph glyph-name="divide" unicode="&#xf7;" horiz-adv-x="582" d="M290 398 Q264 398 244.5 415.5 Q225 433 225 459 Q225 485 244.5 503 Q264 521 290 521 Q317 521 336.5 503.5 Q356 486 356 460 Q356 434 336.5 416 Q317 398 290 398 Z M77 338 L505 338 L505 275 L77 275 L77 338 Z M290 88 Q264 88 244.5 105.5 Q225 123 225 149 Q225 175 244.5 193 Q264 211 290 211 Q317 211 336.5 193.5 Q356 176 356 150 Q356 124 336.5 106 Q317 88 290 88 Z " />
<glyph glyph-name="oslash" unicode="&#xf8;" horiz-adv-x="587" d="M493 433 Q516 402 528.5 361 Q541 320 541 267 Q541 199 522 146.5 Q503 94 469 58.5 Q435 23 389.5 4.5 Q344 -14 290 -14 Q240 -14 200.5 -0.5 Q161 13 131 38 L84 -14 L5 -14 L92 81 Q69 113 58 154 Q47 195 47 242 Q47 317 68.5 370 Q90 423 126 456.5 Q162 490 208.5 505.5 Q255 521 304 521 Q346 521 383.5 509.5 Q421 498 452 475 L494 521 L573 521 L493 433 Z M148 272 Q148 207 164 160 L393 411 Q353 462 288 462 Q227 462 187.5 417.5 Q148 373 148 272 Z M439 243 Q439 308 422 356 L192 104 Q232 48 304 48 Q368 48 403.5 97 Q439 146 439 243 Z " />
<glyph glyph-name="ugrave" unicode="&#xf9;" horiz-adv-x="634" d="M218 672 Q201 683 192 695.5 Q183 708 183 725 Q183 744 196 760 Q209 776 231 776 Q242 776 250 769 Q258 762 270 747 L375 605 L351 580 L218 672 Z M265 -14 Q219 -14 188 0 Q157 14 138.5 37 Q120 60 112.5 91.5 Q105 123 105 157 L105 386 Q105 420 99.5 432 Q94 444 71 448 L27 455 L35 503 L186 514 L198 507 L198 186 Q198 159 200 136 Q202 113 211.5 95.5 Q221 78 240.5 68 Q260 58 294 58 Q320 58 344.5 66 Q369 74 387.5 90.5 Q406 107 417.5 133.5 Q429 160 429 197 L429 386 Q429 420 423.5 432 Q418 444 395 448 L350 455 L358 503 L510 514 L522 507 L522 101 Q522 78 528 69 Q534 60 554 56 L604 47 L604 0 L449 -6 L435 75 L432 75 Q403 40 364.5 13 Q326 -14 265 -14 Z " />
<glyph glyph-name="uacute" unicode="&#xfa;" horiz-adv-x="634" d="M232 605 L340 748 Q352 763 360 770 Q368 777 379 777 Q401 777 414 761 Q427 745 427 726 Q427 694 392 673 L256 580 L232 605 Z M265 -14 Q219 -14 188 0 Q157 14 138.5 37 Q120 60 112.5 91.5 Q105 123 105 157 L105 386 Q105 420 99.5 432 Q94 444 71 448 L27 455 L35 503 L186 514 L198 507 L198 186 Q198 159 200 136 Q202 113 211.5 95.5 Q221 78 240.5 68 Q260 58 294 58 Q320 58 344.5 66 Q369 74 387.5 90.5 Q406 107 417.5 133.5 Q429 160 429 197 L429 386 Q429 420 423.5 432 Q418 444 395 448 L350 455 L358 503 L510 514 L522 507 L522 101 Q522 78 528 69 Q534 60 554 56 L604 47 L604 0 L449 -6 L435 75 L432 75 Q403 40 364.5 13 Q326 -14 265 -14 Z " />
<glyph glyph-name="ucircumflex" unicode="&#xfb;" horiz-adv-x="634" d="M159 605 L273 757 Q291 779 312 779 Q323 779 331.5 773.5 Q340 768 353 751 L462 606 L435 580 L312 680 L185 580 L159 605 Z M265 -14 Q219 -14 188 0 Q157 14 138.5 37 Q120 60 112.5 91.5 Q105 123 105 157 L105 386 Q105 420 99.5 432 Q94 444 71 448 L27 455 L35 503 L186 514 L198 507 L198 186 Q198 159 200 136 Q202 113 211.5 95.5 Q221 78 240.5 68 Q260 58 294 58 Q320 58 344.5 66 Q369 74 387.5 90.5 Q406 107 417.5 133.5 Q429 160 429 197 L429 386 Q429 420 423.5 432 Q418 444 395 448 L350 455 L358 503 L510 514 L522 507 L522 101 Q522 78 528 69 Q534 60 554 56 L604 47 L604 0 L449 -6 L435 75 L432 75 Q403 40 364.5 13 Q326 -14 265 -14 Z " />
<glyph glyph-name="udieresis" unicode="&#xfc;" horiz-adv-x="634" d="M208 620 Q181 620 163 637.5 Q145 655 145 682 Q145 709 163 727 Q181 745 208 745 Q237 745 255 727.5 Q273 710 273 683 Q273 656 255 638 Q237 620 208 620 Z M407 620 Q379 620 361 637.5 Q343 655 343 682 Q343 709 361 727 Q379 745 407 745 Q435 745 453 727.5 Q471 710 471 683 Q471 656 453 638 Q435 620 407 620 Z M265 -14 Q219 -14 188 0 Q157 14 138.5 37 Q120 60 112.5 91.5 Q105 123 105 157 L105 386 Q105 420 99.5 432 Q94 444 71 448 L27 455 L35 503 L186 514 L198 507 L198 186 Q198 159 200 136 Q202 113 211.5 95.5 Q221 78 240.5 68 Q260 58 294 58 Q320 58 344.5 66 Q369 74 387.5 90.5 Q406 107 417.5 133.5 Q429 160 429 197 L429 386 Q429 420 423.5 432 Q418 444 395 448 L350 455 L358 503 L510 514 L522 507 L522 101 Q522 78 528 69 Q534 60 554 56 L604 47 L604 0 L449 -6 L435 75 L432 75 Q403 40 364.5 13 Q326 -14 265 -14 Z " />
<glyph glyph-name="yacute" unicode="&#xfd;" horiz-adv-x="576" d="M232 605 L340 748 Q352 763 360 770 Q368 777 379 777 Q401 777 414 761 Q427 745 427 726 Q427 694 392 673 L256 580 L232 605 Z M113 -229 Q57 -229 33.5 -204 Q10 -179 10 -149 Q10 -118 29.5 -100 Q49 -82 75 -82 Q95 -82 110.5 -90 Q126 -98 128 -118 Q129 -126 127.5 -140.5 Q126 -155 124 -175 Q159 -177 181 -146.5 Q203 -116 233 -50 L258 7 L93 399 Q87 412 83.5 420.5 Q80 429 75.5 434.5 Q71 440 65.5 443.5 Q60 447 49 450 L14 458 L24 507 L262 507 L262 461 L214 454 Q194 451 189.5 440.5 Q185 430 195 404 L306 124 L311 124 L422 397 Q431 423 426 434.5 Q421 446 399 451 L355 461 L365 507 L574 507 L574 460 L537 452 Q518 448 510.5 437.5 Q503 427 490 398 L297 -54 Q282 -89 266.5 -120.5 Q251 -152 230 -176 Q209 -200 181 -214.5 Q153 -229 113 -229 Z " />
<glyph glyph-name="thorn" unicode="&#xfe;" horiz-adv-x="615" d="M34 -171 L82 -163 Q99 -160 105 -148.5 Q111 -137 111 -116 L111 644 Q111 676 104.5 688 Q98 700 68 704 L24 711 L30 761 L193 766 L204 755 L204 427 Q216 445 231 462 Q246 479 266 492 Q286 505 312.5 513 Q339 521 375 521 Q465 521 516.5 457 Q568 393 568 273 Q568 132 506 60.5 Q444 -11 336 -11 Q289 -11 255 0 Q221 11 204 22 L204 -113 Q204 -137 211 -148 Q218 -159 236 -162 L297 -172 L297 -219 L34 -219 L34 -171 Z M330 55 Q366 55 392 70 Q418 85 435 112 Q452 139 460 176.5 Q468 214 468 259 Q468 345 440 397.5 Q412 450 345 450 Q319 450 294 442.5 Q269 435 249 418 Q229 401 216.5 373 Q204 345 204 303 L204 98 Q227 77 262.5 66 Q298 55 330 55 Z " />
<glyph glyph-name="ydieresis" unicode="&#xff;" horiz-adv-x="576" d="M208 620 Q181 620 163 637.5 Q145 655 145 682 Q145 709 163 727 Q181 745 208 745 Q237 745 255 727.5 Q273 710 273 683 Q273 656 255 638 Q237 620 208 620 Z M407 620 Q379 620 361 637.5 Q343 655 343 682 Q343 709 361 727 Q379 745 407 745 Q435 745 453 727.5 Q471 710 471 683 Q471 656 453 638 Q435 620 407 620 Z M113 -229 Q57 -229 33.5 -204 Q10 -179 10 -149 Q10 -118 29.5 -100 Q49 -82 75 -82 Q95 -82 110.5 -90 Q126 -98 128 -118 Q129 -126 127.5 -140.5 Q126 -155 124 -175 Q159 -177 181 -146.5 Q203 -116 233 -50 L258 7 L93 399 Q87 412 83.5 420.5 Q80 429 75.5 434.5 Q71 440 65.5 443.5 Q60 447 49 450 L14 458 L24 507 L262 507 L262 461 L214 454 Q194 451 189.5 440.5 Q185 430 195 404 L306 124 L311 124 L422 397 Q431 423 426 434.5 Q421 446 399 451 L355 461 L365 507 L574 507 L574 460 L537 452 Q518 448 510.5 437.5 Q503 427 490 398 L297 -54 Q282 -89 266.5 -120.5 Q251 -152 230 -176 Q209 -200 181 -214.5 Q153 -229 113 -229 Z " />
<glyph glyph-name="Amacron" unicode="&#x100;" horiz-adv-x="735" d="M231 868 L515 868 L515 795 L231 795 L231 868 Z M15 48 L63 56 Q82 60 90 70.5 Q98 81 109 110 L320 700 L426 700 L635 109 Q645 83 651.5 73 Q658 63 679 58 L720 50 L720 0 L453 0 L453 48 L511 55 Q531 58 535.5 68.5 Q540 79 530 105 L487 231 L219 231 L177 109 Q168 83 173 71.5 Q178 60 200 55 L257 47 L257 0 L15 0 L15 48 Z M468 288 L357 617 L353 617 L239 288 L468 288 Z " />
<glyph glyph-name="amacron" unicode="&#x101;" horiz-adv-x="539" d="M108 708 L388 708 L388 635 L108 635 L108 708 Z M192 -14 Q168 -14 143 -7 Q118 0 98 16 Q78 32 65 58 Q52 84 52 121 Q52 187 93.5 224 Q135 261 207 272 Q237 277 273 279.5 Q309 282 339 284 L339 352 Q339 420 310 445 Q281 470 231 470 Q199 470 174 460.5 Q149 451 139 440 Q147 427 156 411 Q165 395 165 384 Q165 367 150.5 353 Q136 339 111 339 Q79 339 66.5 355 Q54 371 54 391 Q54 418 70 441.5 Q86 465 112.5 483 Q139 501 173.5 511 Q208 521 245 521 Q284 521 318 513 Q352 505 377.5 485 Q403 465 417.5 430 Q432 395 432 341 L432 100 Q432 38 524 64 L534 26 Q514 6 487.5 -4 Q461 -14 442 -14 Q392 -14 371.5 12 Q351 38 347 75 Q320 32 283 9 Q246 -14 192 -14 Z M230 55 Q245 55 264 60 Q283 65 299.5 77 Q316 89 327.5 109.5 Q339 130 339 161 L339 232 Q310 232 285 229 Q260 226 242 223 Q215 219 197 210 Q179 201 168.5 188 Q158 175 153.5 160.5 Q149 146 149 132 Q149 90 173.5 72.5 Q198 55 230 55 Z " />
<glyph glyph-name="Abreve" unicode="&#x102;" horiz-adv-x="735" d="M370 752 Q332 752 304 765.5 Q276 779 257.5 801.5 Q239 824 228 854 Q217 884 214 916 L254 928 Q268 878 297 855 Q326 832 375 832 Q425 832 454.5 858 Q484 884 495 927 L533 917 Q530 887 519 857.5 Q508 828 487.5 804.5 Q467 781 438 766.5 Q409 752 370 752 Z M15 48 L63 56 Q82 60 90 70.5 Q98 81 109 110 L320 700 L426 700 L635 109 Q645 83 651.5 73 Q658 63 679 58 L720 50 L720 0 L453 0 L453 48 L511 55 Q531 58 535.5 68.5 Q540 79 530 105 L487 231 L219 231 L177 109 Q168 83 173 71.5 Q178 60 200 55 L257 47 L257 0 L15 0 L15 48 Z M468 288 L357 617 L353 617 L239 288 L468 288 Z " />
<glyph glyph-name="abreve" unicode="&#x103;" horiz-adv-x="539" d="M246 587 Q210 587 184 601.5 Q158 616 140.5 639.5 Q123 663 113 693.5 Q103 724 100 756 L140 768 Q154 718 180 692.5 Q206 667 251 667 Q296 667 323 695.5 Q350 724 361 767 L399 757 Q396 727 385.5 697 Q375 667 356 642.5 Q337 618 309.5 602.5 Q282 587 246 587 Z M192 -14 Q168 -14 143 -7 Q118 0 98 16 Q78 32 65 58 Q52 84 52 121 Q52 187 93.5 224 Q135 261 207 272 Q237 277 273 279.5 Q309 282 339 284 L339 352 Q339 420 310 445 Q281 470 231 470 Q199 470 174 460.5 Q149 451 139 440 Q147 427 156 411 Q165 395 165 384 Q165 367 150.5 353 Q136 339 111 339 Q79 339 66.5 355 Q54 371 54 391 Q54 418 70 441.5 Q86 465 112.5 483 Q139 501 173.5 511 Q208 521 245 521 Q284 521 318 513 Q352 505 377.5 485 Q403 465 417.5 430 Q432 395 432 341 L432 100 Q432 38 524 64 L534 26 Q514 6 487.5 -4 Q461 -14 442 -14 Q392 -14 371.5 12 Q351 38 347 75 Q320 32 283 9 Q246 -14 192 -14 Z M230 55 Q245 55 264 60 Q283 65 299.5 77 Q316 89 327.5 109.5 Q339 130 339 161 L339 232 Q310 232 285 229 Q260 226 242 223 Q215 219 197 210 Q179 201 168.5 188 Q158 175 153.5 160.5 Q149 146 149 132 Q149 90 173.5 72.5 Q198 55 230 55 Z " />
<glyph glyph-name="Aogonek" unicode="&#x104;" horiz-adv-x="735" d="M631 0 Q616 -12 601.5 -26 Q587 -40 575.5 -55.5 Q564 -71 557 -88 Q550 -105 550 -123 Q550 -164 591 -164 Q605 -164 617.5 -161 Q630 -158 640 -155 L651 -190 Q634 -204 609 -216.5 Q584 -229 556 -229 Q512 -229 488 -205.5 Q464 -182 464 -148 Q464 -121 474 -99 Q484 -77 500 -59 Q516 -41 535.5 -26.5 Q555 -12 574 0 L453 0 L453 48 L511 55 Q531 58 535.5 68.5 Q540 79 530 105 L487 231 L219 231 L177 109 Q168 83 173 71.5 Q178 60 200 55 L257 47 L257 0 L15 0 L15 48 L63 56 Q82 60 90 70.5 Q98 81 109 110 L320 700 L426 700 L635 109 Q645 83 651.5 73 Q658 63 679 58 L720 50 L720 0 L631 0 Z M468 288 L357 617 L353 617 L239 288 L468 288 Z " />
<glyph glyph-name="aogonek" unicode="&#x105;" horiz-adv-x="539" d="M464 -164 Q478 -164 490.5 -161 Q503 -158 513 -155 L524 -190 Q507 -204 482 -216.5 Q457 -229 429 -229 Q385 -229 361 -205.5 Q337 -182 337 -148 Q337 -125 345 -105 Q353 -85 366 -68.5 Q379 -52 395.5 -38.5 Q412 -25 429 -13 Q387 -10 369 15 Q351 40 347 75 Q320 32 283 9 Q246 -14 192 -14 Q168 -14 143 -7 Q118 0 98 16 Q78 32 65 58 Q52 84 52 121 Q52 187 93.5 224 Q135 261 207 272 Q237 277 273 279.5 Q309 282 339 284 L339 352 Q339 420 310 445 Q281 470 231 470 Q199 470 174 460.5 Q149 451 139 440 Q147 427 156 411 Q165 395 165 384 Q165 367 150.5 353 Q136 339 111 339 Q79 339 66.5 355 Q54 371 54 391 Q54 418 70 441.5 Q86 465 112.5 483 Q139 501 173.5 511 Q208 521 245 521 Q284 521 318 513 Q352 505 377.5 485 Q403 465 417.5 430 Q432 395 432 341 L432 100 Q432 38 524 64 L534 26 Q528 21 521.5 16 Q515 11 508 7 Q473 -25 448 -57.5 Q423 -90 423 -123 Q423 -164 464 -164 Z M339 232 Q310 232 285 229 Q260 226 242 223 Q215 219 197 210 Q179 201 168.5 188 Q158 175 153.5 160.5 Q149 146 149 132 Q149 90 173.5 72.5 Q198 55 230 55 Q245 55 264 60 Q283 65 299.5 77 Q316 89 327.5 109.5 Q339 130 339 161 L339 232 Z " />
<glyph glyph-name="Cacute" unicode="&#x106;" horiz-adv-x="708" d="M281 780 L412 899 Q425 910 433.5 916 Q442 922 451 922 Q470 922 482 906.5 Q494 891 494 874 Q494 853 483 839.5 Q472 826 452 818 L301 752 L281 780 Z M394 -14 Q308 -14 245 16.5 Q182 47 140.5 97.5 Q99 148 79 214 Q59 280 59 351 Q59 436 83 503.5 Q107 571 149.5 617.5 Q192 664 250.5 689 Q309 714 377 714 Q444 714 483 694 Q522 674 543 653 L553 716 L602 716 L641 483 L587 471 Q557 565 508.5 608 Q460 651 379 651 Q271 651 218.5 573 Q166 495 166 352 Q166 291 181.5 237 Q197 183 227 142.5 Q257 102 301.5 78.5 Q346 55 404 55 Q475 55 522 84 Q569 113 607 167 L654 133 Q639 107 615 81 Q591 55 558.5 34 Q526 13 485 -0.5 Q444 -14 394 -14 Z " />
<glyph glyph-name="cacute" unicode="&#x107;" horiz-adv-x="500" d="M206 605 L314 748 Q326 763 334 770 Q342 777 353 777 Q375 777 388 761 Q401 745 401 726 Q401 694 366 673 L230 580 L206 605 Z M283 -14 Q224 -14 179.5 6.5 Q135 27 105.5 62 Q76 97 61.5 144.5 Q47 192 47 247 Q47 311 65 362 Q83 413 115.5 448 Q148 483 193 502 Q238 521 291 521 Q329 521 361.5 511 Q394 501 418 484 Q442 467 456 443 Q470 419 470 390 Q470 364 454.5 344.5 Q439 325 404 325 Q372 325 358.5 339 Q345 353 345 373 Q345 385 351 400 Q357 415 373 441 Q348 457 327 461 Q306 465 283 465 Q254 465 229 451 Q204 437 186 411 Q168 385 158 348.5 Q148 312 148 268 Q148 171 191.5 117 Q235 63 308 63 Q354 63 385.5 79 Q417 95 437 115 L471 80 Q443 42 394.5 14 Q346 -14 283 -14 Z " />
<glyph glyph-name="Ccircumflex" unicode="&#x108;" horiz-adv-x="708" d="M213 775 L338 912 Q347 922 356.5 928 Q366 934 377 934 Q388 934 396 927.5 Q404 921 418 906 L539 776 L514 750 L377 834 L237 750 L213 775 Z M394 -14 Q308 -14 245 16.5 Q182 47 140.5 97.5 Q99 148 79 214 Q59 280 59 351 Q59 436 83 503.5 Q107 571 149.5 617.5 Q192 664 250.5 689 Q309 714 377 714 Q444 714 483 694 Q522 674 543 653 L553 716 L602 716 L641 483 L587 471 Q557 565 508.5 608 Q460 651 379 651 Q271 651 218.5 573 Q166 495 166 352 Q166 291 181.5 237 Q197 183 227 142.5 Q257 102 301.5 78.5 Q346 55 404 55 Q475 55 522 84 Q569 113 607 167 L654 133 Q639 107 615 81 Q591 55 558.5 34 Q526 13 485 -0.5 Q444 -14 394 -14 Z " />
<glyph glyph-name="ccircumflex" unicode="&#x109;" horiz-adv-x="500" d="M133 605 L247 757 Q265 779 286 779 Q297 779 305.5 773.5 Q314 768 327 751 L436 606 L409 580 L286 680 L159 580 L133 605 Z M283 -14 Q224 -14 179.5 6.5 Q135 27 105.5 62 Q76 97 61.5 144.5 Q47 192 47 247 Q47 311 65 362 Q83 413 115.5 448 Q148 483 193 502 Q238 521 291 521 Q329 521 361.5 511 Q394 501 418 484 Q442 467 456 443 Q470 419 470 390 Q470 364 454.5 344.5 Q439 325 404 325 Q372 325 358.5 339 Q345 353 345 373 Q345 385 351 400 Q357 415 373 441 Q348 457 327 461 Q306 465 283 465 Q254 465 229 451 Q204 437 186 411 Q168 385 158 348.5 Q148 312 148 268 Q148 171 191.5 117 Q235 63 308 63 Q354 63 385.5 79 Q417 95 437 115 L471 80 Q443 42 394.5 14 Q346 -14 283 -14 Z " />
<glyph glyph-name="Cdotaccent" unicode="&#x10a;" horiz-adv-x="708" d="M375 767 Q346 767 327 785.5 Q308 804 308 833 Q308 862 327 881 Q346 900 375 900 Q405 900 424 881.5 Q443 863 443 834 Q443 805 424 786 Q405 767 375 767 Z M394 -14 Q308 -14 245 16.5 Q182 47 140.5 97.5 Q99 148 79 214 Q59 280 59 351 Q59 436 83 503.5 Q107 571 149.5 617.5 Q192 664 250.5 689 Q309 714 377 714 Q444 714 483 694 Q522 674 543 653 L553 716 L602 716 L641 483 L587 471 Q557 565 508.5 608 Q460 651 379 651 Q271 651 218.5 573 Q166 495 166 352 Q166 291 181.5 237 Q197 183 227 142.5 Q257 102 301.5 78.5 Q346 55 404 55 Q475 55 522 84 Q569 113 607 167 L654 133 Q639 107 615 81 Q591 55 558.5 34 Q526 13 485 -0.5 Q444 -14 394 -14 Z " />
<glyph glyph-name="cdotaccent" unicode="&#x10b;" horiz-adv-x="500" d="M283 620 Q254 620 235 638.5 Q216 657 216 686 Q216 715 235 734 Q254 753 283 753 Q313 753 332 734.5 Q351 716 351 687 Q351 658 332 639 Q313 620 283 620 Z M283 -14 Q224 -14 179.5 6.5 Q135 27 105.5 62 Q76 97 61.5 144.5 Q47 192 47 247 Q47 311 65 362 Q83 413 115.5 448 Q148 483 193 502 Q238 521 291 521 Q329 521 361.5 511 Q394 501 418 484 Q442 467 456 443 Q470 419 470 390 Q470 364 454.5 344.5 Q439 325 404 325 Q372 325 358.5 339 Q345 353 345 373 Q345 385 351 400 Q357 415 373 441 Q348 457 327 461 Q306 465 283 465 Q254 465 229 451 Q204 437 186 411 Q168 385 158 348.5 Q148 312 148 268 Q148 171 191.5 117 Q235 63 308 63 Q354 63 385.5 79 Q417 95 437 115 L471 80 Q443 42 394.5 14 Q346 -14 283 -14 Z " />
<glyph glyph-name="Ccaron" unicode="&#x10c;" horiz-adv-x="708" d="M375 752 Q364 752 356 758.5 Q348 765 334 780 L213 910 L238 936 L375 852 L515 936 L539 911 L414 774 Q405 764 395.5 758 Q386 752 375 752 Z M394 -14 Q308 -14 245 16.5 Q182 47 140.5 97.5 Q99 148 79 214 Q59 280 59 351 Q59 436 83 503.5 Q107 571 149.5 617.5 Q192 664 250.5 689 Q309 714 377 714 Q444 714 483 694 Q522 674 543 653 L553 716 L602 716 L641 483 L587 471 Q557 565 508.5 608 Q460 651 379 651 Q271 651 218.5 573 Q166 495 166 352 Q166 291 181.5 237 Q197 183 227 142.5 Q257 102 301.5 78.5 Q346 55 404 55 Q475 55 522 84 Q569 113 607 167 L654 133 Q639 107 615 81 Q591 55 558.5 34 Q526 13 485 -0.5 Q444 -14 394 -14 Z " />
<glyph glyph-name="ccaron" unicode="&#x10d;" horiz-adv-x="500" d="M283 580 Q272 580 263.5 585.5 Q255 591 242 608 L133 753 L160 779 L283 679 L410 779 L436 754 L322 602 Q304 580 283 580 Z M283 -14 Q224 -14 179.5 6.5 Q135 27 105.5 62 Q76 97 61.5 144.5 Q47 192 47 247 Q47 311 65 362 Q83 413 115.5 448 Q148 483 193 502 Q238 521 291 521 Q329 521 361.5 511 Q394 501 418 484 Q442 467 456 443 Q470 419 470 390 Q470 364 454.5 344.5 Q439 325 404 325 Q372 325 358.5 339 Q345 353 345 373 Q345 385 351 400 Q357 415 373 441 Q348 457 327 461 Q306 465 283 465 Q254 465 229 451 Q204 437 186 411 Q168 385 158 348.5 Q148 312 148 268 Q148 171 191.5 117 Q235 63 308 63 Q354 63 385.5 79 Q417 95 437 115 L471 80 Q443 42 394.5 14 Q346 -14 283 -14 Z " />
<glyph glyph-name="Dcaron" unicode="&#x10e;" horiz-adv-x="775" d="M356 752 Q345 752 337 758.5 Q329 765 315 780 L194 910 L219 936 L356 852 L496 936 L520 911 L395 774 Q386 764 376.5 758 Q367 752 356 752 Z M62 48 L120 57 Q142 61 146.5 73 Q151 85 151 108 L151 596 Q151 619 146 629 Q141 639 118 643 L62 652 L62 700 L349 700 Q430 700 497.5 681 Q565 662 613.5 622 Q662 582 688.5 520 Q715 458 715 372 Q715 287 689.5 218.5 Q664 150 614 101.5 Q564 53 490.5 26.5 Q417 0 321 0 L62 0 L62 48 Z M322 55 Q471 55 539.5 130.5 Q608 206 608 364 Q608 503 540 574.5 Q472 646 341 646 L250 646 L250 60 Q263 58 285 56.5 Q307 55 322 55 Z " />
<glyph glyph-name="dcaron" unicode="&#x10f;" horiz-adv-x="678" d="M555 569 Q575 595 585.5 613.5 Q596 632 596 651 Q596 662 592.5 668.5 Q589 675 580 685 Q569 697 564.5 705 Q560 713 560 723 Q560 748 577 758 Q594 768 612 768 Q646 768 659.5 746 Q673 724 673 700 Q673 664 649.5 620 Q626 576 581 541 L555 569 Z M252 -14 Q153 -14 100 53 Q47 120 47 238 Q47 303 64 355.5 Q81 408 112.5 444.5 Q144 481 189 501 Q234 521 291 521 Q333 521 365 510 Q397 499 414 488 L414 644 Q414 676 407.5 688 Q401 700 371 704 L327 711 L333 761 L496 766 L507 755 L507 98 Q507 75 513 66 Q519 57 540 53 L589 44 L589 -3 L435 -9 L421 70 L418 70 Q408 58 394 43 Q380 28 360.5 15.5 Q341 3 314 -5.5 Q287 -14 252 -14 Z M281 58 Q304 58 327.5 66.5 Q351 75 370.5 93 Q390 111 402 140.5 Q414 170 414 212 L414 413 Q385 436 352 445 Q319 454 289 454 Q250 454 223 439.5 Q196 425 179 398 Q162 371 154 333 Q146 295 146 248 Q146 208 153 173.5 Q160 139 176 113.5 Q192 88 218 73 Q244 58 281 58 Z " />
<glyph glyph-name="Dcroat" unicode="&#x110;" horiz-adv-x="775" d="M349 700 Q430 700 497.5 681 Q565 662 613.5 622 Q662 582 688.5 520 Q715 458 715 372 Q715 287 689.5 218.5 Q664 150 614 101.5 Q564 53 490.5 26.5 Q417 0 321 0 L62 0 L62 48 L120 57 Q142 61 146.5 73 Q151 85 151 108 L151 330 L41 330 L49 393 L151 393 L151 596 Q151 619 146 629 Q141 639 118 643 L62 652 L62 700 L349 700 Z M322 55 Q471 55 539.5 130.5 Q608 206 608 364 Q608 503 540 574.5 Q472 646 341 646 L250 646 L250 393 L441 393 L441 330 L250 330 L250 60 Q263 58 285 56.5 Q307 55 322 55 Z " />
<glyph glyph-name="dcroat" unicode="&#x111;" horiz-adv-x="614" d="M47 238 Q47 303 64 355.5 Q81 408 112.5 444.5 Q144 481 189 501 Q234 521 291 521 Q333 521 365 510 Q397 499 414 488 L414 579 L267 579 L275 636 L414 636 L414 644 Q414 676 407.5 688 Q401 700 371 704 L327 711 L333 761 L496 766 L507 755 L507 636 L603 636 L603 579 L507 579 L507 98 Q507 75 513 66 Q519 57 540 53 L589 44 L589 -3 L435 -9 L421 70 L418 70 Q408 58 394 43 Q380 28 360.5 15.5 Q341 3 314 -5.5 Q287 -14 252 -14 Q153 -14 100 53 Q47 120 47 238 Z M146 248 Q146 208 153 173.5 Q160 139 176 113.5 Q192 88 218 73 Q244 58 281 58 Q304 58 327.5 66.5 Q351 75 370.5 93 Q390 111 402 140.5 Q414 170 414 212 L414 413 Q385 436 352 445 Q319 454 289 454 Q250 454 223 439.5 Q196 425 179 398 Q162 371 154 333 Q146 295 146 248 Z " />
<glyph glyph-name="Emacron" unicode="&#x112;" horiz-adv-x="637" d="M183 868 L467 868 L467 795 L183 795 L183 868 Z M62 48 L120 57 Q142 61 146.5 73 Q151 85 151 108 L151 596 Q151 619 146 629 Q141 639 118 643 L62 652 L62 700 L525 700 L562 537 L510 520 Q495 559 481.5 584 Q468 609 450.5 622.5 Q433 636 408.5 641 Q384 646 347 646 L250 646 L250 387 L337 387 Q368 387 384 389.5 Q400 392 408 400 Q416 408 420 424.5 Q424 441 430 469 L476 475 L476 248 L430 240 Q426 269 422 286 Q418 303 409.5 311.5 Q401 320 384.5 322.5 Q368 325 337 325 L250 325 L250 54 L379 54 Q415 54 439 59.5 Q463 65 479.5 79 Q496 93 507.5 118.5 Q519 144 529 184 L584 184 L560 0 L62 0 L62 48 Z " />
<glyph glyph-name="emacron" unicode="&#x113;" horiz-adv-x="520" d="M139 708 L419 708 L419 635 L139 635 L139 708 Z M286 -14 Q227 -14 182 6.5 Q137 27 107 62 Q77 97 62 144.5 Q47 192 47 247 Q47 311 65 362 Q83 413 115.5 448 Q148 483 193 502 Q238 521 291 521 Q330 521 363.5 509 Q397 497 421.5 474.5 Q446 452 460.5 419 Q475 386 475 344 Q475 296 461 246 L148 246 Q151 161 192 110.5 Q233 60 309 60 Q360 60 394 80 Q428 100 447 120 L482 85 Q468 66 448 48.5 Q428 31 403.5 17 Q379 3 349 -5.5 Q319 -14 286 -14 Z M378 302 Q381 322 381 348 Q381 408 354.5 438 Q328 468 280 468 Q244 468 220 453 Q196 438 181 414.5 Q166 391 158.5 361.5 Q151 332 148 302 L378 302 Z " />
<glyph glyph-name="Ebreve" unicode="&#x114;" horiz-adv-x="637" d="M322 752 Q284 752 256 765.5 Q228 779 209.5 801.5 Q191 824 180 854 Q169 884 166 916 L206 928 Q220 878 249 855 Q278 832 327 832 Q377 832 406.5 858 Q436 884 447 927 L485 917 Q482 887 471 857.5 Q460 828 439.5 804.5 Q419 781 390 766.5 Q361 752 322 752 Z M62 48 L120 57 Q142 61 146.5 73 Q151 85 151 108 L151 596 Q151 619 146 629 Q141 639 118 643 L62 652 L62 700 L525 700 L562 537 L510 520 Q495 559 481.5 584 Q468 609 450.5 622.5 Q433 636 408.5 641 Q384 646 347 646 L250 646 L250 387 L337 387 Q368 387 384 389.5 Q400 392 408 400 Q416 408 420 424.5 Q424 441 430 469 L476 475 L476 248 L430 240 Q426 269 422 286 Q418 303 409.5 311.5 Q401 320 384.5 322.5 Q368 325 337 325 L250 325 L250 54 L379 54 Q415 54 439 59.5 Q463 65 479.5 79 Q496 93 507.5 118.5 Q519 144 529 184 L584 184 L560 0 L62 0 L62 48 Z " />
<glyph glyph-name="ebreve" unicode="&#x115;" horiz-adv-x="520" d="M276 587 Q240 587 214 601.5 Q188 616 170.5 639.5 Q153 663 143 693.5 Q133 724 130 756 L170 768 Q184 718 210 692.5 Q236 667 281 667 Q326 667 353 695.5 Q380 724 391 767 L429 757 Q426 727 415.5 697 Q405 667 386 642.5 Q367 618 339.5 602.5 Q312 587 276 587 Z M286 -14 Q227 -14 182 6.5 Q137 27 107 62 Q77 97 62 144.5 Q47 192 47 247 Q47 311 65 362 Q83 413 115.5 448 Q148 483 193 502 Q238 521 291 521 Q330 521 363.5 509 Q397 497 421.5 474.5 Q446 452 460.5 419 Q475 386 475 344 Q475 296 461 246 L148 246 Q151 161 192 110.5 Q233 60 309 60 Q360 60 394 80 Q428 100 447 120 L482 85 Q468 66 448 48.5 Q428 31 403.5 17 Q379 3 349 -5.5 Q319 -14 286 -14 Z M378 302 Q381 322 381 348 Q381 408 354.5 438 Q328 468 280 468 Q244 468 220 453 Q196 438 181 414.5 Q166 391 158.5 361.5 Q151 332 148 302 L378 302 Z " />
<glyph glyph-name="Edotaccent" unicode="&#x116;" horiz-adv-x="637" d="M324 767 Q295 767 276 785.5 Q257 804 257 833 Q257 862 276 881 Q295 900 324 900 Q354 900 373 881.5 Q392 863 392 834 Q392 805 373 786 Q354 767 324 767 Z M62 48 L120 57 Q142 61 146.5 73 Q151 85 151 108 L151 596 Q151 619 146 629 Q141 639 118 643 L62 652 L62 700 L525 700 L562 537 L510 520 Q495 559 481.5 584 Q468 609 450.5 622.5 Q433 636 408.5 641 Q384 646 347 646 L250 646 L250 387 L337 387 Q368 387 384 389.5 Q400 392 408 400 Q416 408 420 424.5 Q424 441 430 469 L476 475 L476 248 L430 240 Q426 269 422 286 Q418 303 409.5 311.5 Q401 320 384.5 322.5 Q368 325 337 325 L250 325 L250 54 L379 54 Q415 54 439 59.5 Q463 65 479.5 79 Q496 93 507.5 118.5 Q519 144 529 184 L584 184 L560 0 L62 0 L62 48 Z " />
<glyph glyph-name="edotaccent" unicode="&#x117;" horiz-adv-x="520" d="M278 620 Q249 620 230 638.5 Q211 657 211 686 Q211 715 230 734 Q249 753 278 753 Q308 753 327 734.5 Q346 716 346 687 Q346 658 327 639 Q308 620 278 620 Z M286 -14 Q227 -14 182 6.5 Q137 27 107 62 Q77 97 62 144.5 Q47 192 47 247 Q47 311 65 362 Q83 413 115.5 448 Q148 483 193 502 Q238 521 291 521 Q330 521 363.5 509 Q397 497 421.5 474.5 Q446 452 460.5 419 Q475 386 475 344 Q475 296 461 246 L148 246 Q151 161 192 110.5 Q233 60 309 60 Q360 60 394 80 Q428 100 447 120 L482 85 Q468 66 448 48.5 Q428 31 403.5 17 Q379 3 349 -5.5 Q319 -14 286 -14 Z M378 302 Q381 322 381 348 Q381 408 354.5 438 Q328 468 280 468 Q244 468 220 453 Q196 438 181 414.5 Q166 391 158.5 361.5 Q151 332 148 302 L378 302 Z " />
<glyph glyph-name="Eogonek" unicode="&#x118;" horiz-adv-x="637" d="M560 0 Q541 -6 521.5 -19 Q502 -32 486.5 -48.5 Q471 -65 461.5 -84.5 Q452 -104 452 -123 Q452 -164 493 -164 Q507 -164 519.5 -161 Q532 -158 542 -155 L553 -190 Q536 -204 511 -216.5 Q486 -229 458 -229 Q414 -229 390 -205.5 Q366 -182 366 -148 Q366 -120 377 -97 Q388 -74 405.5 -55.5 Q423 -37 444.5 -23 Q466 -9 486 0 L62 0 L62 48 L120 57 Q142 61 146.5 73 Q151 85 151 108 L151 596 Q151 619 146 629 Q141 639 118 643 L62 652 L62 700 L525 700 L562 537 L510 520 Q495 559 481.5 584 Q468 609 450.5 622.5 Q433 636 408.5 641 Q384 646 347 646 L250 646 L250 387 L337 387 Q368 387 384 389.5 Q400 392 408 400 Q416 408 420 424.5 Q424 441 430 469 L476 475 L476 248 L430 240 Q426 269 422 286 Q418 303 409.5 311.5 Q401 320 384.5 322.5 Q368 325 337 325 L250 325 L250 54 L379 54 Q415 54 439 59.5 Q463 65 479.5 79 Q496 93 507.5 118.5 Q519 144 529 184 L584 184 L560 0 Z " />
<glyph glyph-name="eogonek" unicode="&#x119;" horiz-adv-x="520" d="M413 22 Q359 -16 333 -51 Q307 -86 307 -123 Q307 -164 348 -164 Q362 -164 374.5 -161 Q387 -158 397 -155 L408 -190 Q391 -204 366 -216.5 Q341 -229 313 -229 Q269 -229 245 -205.5 Q221 -182 221 -148 Q221 -106 247 -72.5 Q273 -39 305 -13 Q300 -14 295.5 -14 Q291 -14 286 -14 Q227 -14 182 6.5 Q137 27 107 62 Q77 97 62 144.5 Q47 192 47 247 Q47 311 65 362 Q83 413 115.5 448 Q148 483 193 502 Q238 521 291 521 Q330 521 363.5 509 Q397 497 421.5 474.5 Q446 452 460.5 419 Q475 386 475 344 Q475 296 461 246 L148 246 Q151 161 192 110.5 Q233 60 309 60 Q360 60 394 80 Q428 100 447 120 L482 85 Q469 68 452 52 Q435 36 413 22 Z M280 468 Q244 468 220 453 Q196 438 181 414.5 Q166 391 158.5 361.5 Q151 332 148 302 L378 302 Q381 322 381 348 Q381 408 354.5 438 Q328 468 280 468 Z " />
<glyph glyph-name="Ecaron" unicode="&#x11a;" horiz-adv-x="637" d="M324 752 Q313 752 305 758.5 Q297 765 283 780 L162 910 L187 936 L324 852 L464 936 L488 911 L363 774 Q354 764 344.5 758 Q335 752 324 752 Z M62 48 L120 57 Q142 61 146.5 73 Q151 85 151 108 L151 596 Q151 619 146 629 Q141 639 118 643 L62 652 L62 700 L525 700 L562 537 L510 520 Q495 559 481.5 584 Q468 609 450.5 622.5 Q433 636 408.5 641 Q384 646 347 646 L250 646 L250 387 L337 387 Q368 387 384 389.5 Q400 392 408 400 Q416 408 420 424.5 Q424 441 430 469 L476 475 L476 248 L430 240 Q426 269 422 286 Q418 303 409.5 311.5 Q401 320 384.5 322.5 Q368 325 337 325 L250 325 L250 54 L379 54 Q415 54 439 59.5 Q463 65 479.5 79 Q496 93 507.5 118.5 Q519 144 529 184 L584 184 L560 0 L62 0 L62 48 Z " />
<glyph glyph-name="ecaron" unicode="&#x11b;" horiz-adv-x="520" d="M278 580 Q267 580 258.5 585.5 Q250 591 237 608 L128 753 L155 779 L278 679 L405 779 L431 754 L317 602 Q299 580 278 580 Z M286 -14 Q227 -14 182 6.5 Q137 27 107 62 Q77 97 62 144.5 Q47 192 47 247 Q47 311 65 362 Q83 413 115.5 448 Q148 483 193 502 Q238 521 291 521 Q330 521 363.5 509 Q397 497 421.5 474.5 Q446 452 460.5 419 Q475 386 475 344 Q475 296 461 246 L148 246 Q151 161 192 110.5 Q233 60 309 60 Q360 60 394 80 Q428 100 447 120 L482 85 Q468 66 448 48.5 Q428 31 403.5 17 Q379 3 349 -5.5 Q319 -14 286 -14 Z M378 302 Q381 322 381 348 Q381 408 354.5 438 Q328 468 280 468 Q244 468 220 453 Q196 438 181 414.5 Q166 391 158.5 361.5 Q151 332 148 302 L378 302 Z " />
<glyph glyph-name="Gcircumflex" unicode="&#x11c;" horiz-adv-x="760" d="M213 775 L338 912 Q347 922 356.5 928 Q366 934 377 934 Q388 934 396 927.5 Q404 921 418 906 L539 776 L514 750 L377 834 L237 750 L213 775 Z M380 -14 Q296 -14 235 16.5 Q174 47 135 97 Q96 147 77.5 210.5 Q59 274 59 340 Q59 429 83 498.5 Q107 568 149.5 616 Q192 664 250.5 689 Q309 714 377 714 Q444 714 484.5 694 Q525 674 546 653 L556 716 L605 716 L651 483 L596 471 Q566 565 515 608 Q464 651 383 651 Q274 651 220 570.5 Q166 490 166 349 Q166 289 180 235.5 Q194 182 221.5 141 Q249 100 290.5 76 Q332 52 387 52 Q443 52 484.5 71 Q526 90 549 120 L549 230 Q549 253 544 263 Q539 273 516 277 L456 286 L456 334 L727 334 L727 286 L674 277 Q653 273 648.5 261 Q644 249 644 226 L644 -3 L601 -3 L575 44 Q540 18 491.5 2 Q443 -14 380 -14 Z " />
<glyph glyph-name="gcircumflex" unicode="&#x11d;" horiz-adv-x="558" d="M114 605 L228 757 Q246 779 267 779 Q278 779 286.5 773.5 Q295 768 308 751 L417 606 L390 580 L267 680 L140 580 L114 605 Z M254 -229 Q188 -229 144 -220 Q100 -211 73.5 -194.5 Q47 -178 36 -155.5 Q25 -133 25 -106 Q25 -64 49 -38 Q73 -12 116 8 L116 12 Q84 22 71 46.5 Q58 71 58 89 Q58 120 74 144 Q90 168 123 203 L123 206 Q88 224 68.5 258 Q49 292 49 343 Q49 384 64 417 Q79 450 106.5 473 Q134 496 172 508.5 Q210 521 256 521 Q292 521 325.5 513 Q359 505 386 488 Q400 526 425.5 554 Q451 582 490 582 Q515 582 536 568.5 Q557 555 557 529 Q557 506 539.5 489.5 Q522 473 500 473 Q485 473 475.5 480.5 Q466 488 460 500 L450 521 Q439 504 432.5 488 Q426 472 421 458 Q438 438 448.5 410.5 Q459 383 459 348 Q459 307 444 274.5 Q429 242 402 219.5 Q375 197 338 185.5 Q301 174 257 174 Q241 174 217 176.5 Q193 179 176 184 Q164 170 154 155.5 Q144 141 144 124 Q144 100 161.5 91.5 Q179 83 214 83 L342 83 Q378 83 410 78 Q442 73 466 59 Q490 45 504.5 20 Q519 -5 519 -46 Q519 -95 498.5 -130 Q478 -165 442 -187 Q406 -209 357.5 -219 Q309 -229 254 -229 Z M255 227 Q309 227 336.5 258 Q364 289 364 345 Q364 403 335 436.5 Q306 470 249 470 Q219 470 199 460.5 Q179 451 167 434.5 Q155 418 149.5 396 Q144 374 144 348 Q144 288 175.5 257.5 Q207 227 255 227 Z M262 -166 Q342 -166 383 -140 Q424 -114 424 -70 Q424 -8 331 -8 L163 -8 Q144 -22 130.5 -42 Q117 -62 117 -91 Q117 -133 151 -149.5 Q185 -166 262 -166 Z " />
<glyph glyph-name="Gbreve" unicode="&#x11e;" horiz-adv-x="760" d="M373 762 Q335 762 307 775.5 Q279 789 260.5 811.5 Q242 834 231 864 Q220 894 217 926 L257 938 Q271 888 300 865 Q329 842 378 842 Q428 842 457.5 868 Q487 894 498 937 L536 927 Q533 897 522 867.5 Q511 838 490.5 814.5 Q470 791 441 776.5 Q412 762 373 762 Z M380 -14 Q296 -14 235 16.5 Q174 47 135 97 Q96 147 77.5 210.5 Q59 274 59 340 Q59 429 83 498.5 Q107 568 149.5 616 Q192 664 250.5 689 Q309 714 377 714 Q444 714 484.5 694 Q525 674 546 653 L556 716 L605 716 L651 483 L596 471 Q566 565 515 608 Q464 651 383 651 Q274 651 220 570.5 Q166 490 166 349 Q166 289 180 235.5 Q194 182 221.5 141 Q249 100 290.5 76 Q332 52 387 52 Q443 52 484.5 71 Q526 90 549 120 L549 230 Q549 253 544 263 Q539 273 516 277 L456 286 L456 334 L727 334 L727 286 L674 277 Q653 273 648.5 261 Q644 249 644 226 L644 -3 L601 -3 L575 44 Q540 18 491.5 2 Q443 -14 380 -14 Z " />
<glyph glyph-name="gbreve" unicode="&#x11f;" horiz-adv-x="558" d="M256 587 Q220 587 194 601.5 Q168 616 150.5 639.5 Q133 663 123 693.5 Q113 724 110 756 L150 768 Q164 718 190 692.5 Q216 667 261 667 Q306 667 333 695.5 Q360 724 371 767 L409 757 Q406 727 395.5 697 Q385 667 366 642.5 Q347 618 319.5 602.5 Q292 587 256 587 Z M254 -229 Q188 -229 144 -220 Q100 -211 73.5 -194.5 Q47 -178 36 -155.5 Q25 -133 25 -106 Q25 -64 49 -38 Q73 -12 116 8 L116 12 Q84 22 71 46.5 Q58 71 58 89 Q58 120 74 144 Q90 168 123 203 L123 206 Q88 224 68.5 258 Q49 292 49 343 Q49 384 64 417 Q79 450 106.5 473 Q134 496 172 508.5 Q210 521 256 521 Q292 521 325.5 513 Q359 505 386 488 Q400 526 425.5 554 Q451 582 490 582 Q515 582 536 568.5 Q557 555 557 529 Q557 506 539.5 489.5 Q522 473 500 473 Q485 473 475.5 480.5 Q466 488 460 500 L450 521 Q439 504 432.5 488 Q426 472 421 458 Q438 438 448.5 410.5 Q459 383 459 348 Q459 307 444 274.5 Q429 242 402 219.5 Q375 197 338 185.5 Q301 174 257 174 Q241 174 217 176.5 Q193 179 176 184 Q164 170 154 155.5 Q144 141 144 124 Q144 100 161.5 91.5 Q179 83 214 83 L342 83 Q378 83 410 78 Q442 73 466 59 Q490 45 504.5 20 Q519 -5 519 -46 Q519 -95 498.5 -130 Q478 -165 442 -187 Q406 -209 357.5 -219 Q309 -229 254 -229 Z M255 227 Q309 227 336.5 258 Q364 289 364 345 Q364 403 335 436.5 Q306 470 249 470 Q219 470 199 460.5 Q179 451 167 434.5 Q155 418 149.5 396 Q144 374 144 348 Q144 288 175.5 257.5 Q207 227 255 227 Z M262 -166 Q342 -166 383 -140 Q424 -114 424 -70 Q424 -8 331 -8 L163 -8 Q144 -22 130.5 -42 Q117 -62 117 -91 Q117 -133 151 -149.5 Q185 -166 262 -166 Z " />
<glyph glyph-name="Gdotaccent" unicode="&#x120;" horiz-adv-x="760" d="M375 767 Q346 767 327 785.5 Q308 804 308 833 Q308 862 327 881 Q346 900 375 900 Q405 900 424 881.5 Q443 863 443 834 Q443 805 424 786 Q405 767 375 767 Z M380 -14 Q296 -14 235 16.5 Q174 47 135 97 Q96 147 77.5 210.5 Q59 274 59 340 Q59 429 83 498.5 Q107 568 149.5 616 Q192 664 250.5 689 Q309 714 377 714 Q444 714 484.5 694 Q525 674 546 653 L556 716 L605 716 L651 483 L596 471 Q566 565 515 608 Q464 651 383 651 Q274 651 220 570.5 Q166 490 166 349 Q166 289 180 235.5 Q194 182 221.5 141 Q249 100 290.5 76 Q332 52 387 52 Q443 52 484.5 71 Q526 90 549 120 L549 230 Q549 253 544 263 Q539 273 516 277 L456 286 L456 334 L727 334 L727 286 L674 277 Q653 273 648.5 261 Q644 249 644 226 L644 -3 L601 -3 L575 44 Q540 18 491.5 2 Q443 -14 380 -14 Z " />
<glyph glyph-name="gdotaccent" unicode="&#x121;" horiz-adv-x="558" d="M258 620 Q229 620 210 638.5 Q191 657 191 686 Q191 715 210 734 Q229 753 258 753 Q288 753 307 734.5 Q326 716 326 687 Q326 658 307 639 Q288 620 258 620 Z M254 -229 Q188 -229 144 -220 Q100 -211 73.5 -194.5 Q47 -178 36 -155.5 Q25 -133 25 -106 Q25 -64 49 -38 Q73 -12 116 8 L116 12 Q84 22 71 46.5 Q58 71 58 89 Q58 120 74 144 Q90 168 123 203 L123 206 Q88 224 68.5 258 Q49 292 49 343 Q49 384 64 417 Q79 450 106.5 473 Q134 496 172 508.5 Q210 521 256 521 Q292 521 325.5 513 Q359 505 386 488 Q400 526 425.5 554 Q451 582 490 582 Q515 582 536 568.5 Q557 555 557 529 Q557 506 539.5 489.5 Q522 473 500 473 Q485 473 475.5 480.5 Q466 488 460 500 L450 521 Q439 504 432.5 488 Q426 472 421 458 Q438 438 448.5 410.5 Q459 383 459 348 Q459 307 444 274.5 Q429 242 402 219.5 Q375 197 338 185.5 Q301 174 257 174 Q241 174 217 176.5 Q193 179 176 184 Q164 170 154 155.5 Q144 141 144 124 Q144 100 161.5 91.5 Q179 83 214 83 L342 83 Q378 83 410 78 Q442 73 466 59 Q490 45 504.5 20 Q519 -5 519 -46 Q519 -95 498.5 -130 Q478 -165 442 -187 Q406 -209 357.5 -219 Q309 -229 254 -229 Z M255 227 Q309 227 336.5 258 Q364 289 364 345 Q364 403 335 436.5 Q306 470 249 470 Q219 470 199 460.5 Q179 451 167 434.5 Q155 418 149.5 396 Q144 374 144 348 Q144 288 175.5 257.5 Q207 227 255 227 Z M262 -166 Q342 -166 383 -140 Q424 -114 424 -70 Q424 -8 331 -8 L163 -8 Q144 -22 130.5 -42 Q117 -62 117 -91 Q117 -133 151 -149.5 Q185 -166 262 -166 Z " />
<glyph glyph-name="Gcommaaccent" unicode="&#x122;" horiz-adv-x="760" d="M380 -14 Q296 -14 235 16.5 Q174 47 135 97 Q96 147 77.5 210.5 Q59 274 59 340 Q59 429 83 498.5 Q107 568 149.5 616 Q192 664 250.5 689 Q309 714 377 714 Q444 714 484.5 694 Q525 674 546 653 L556 716 L605 716 L651 483 L596 471 Q566 565 515 608 Q464 651 383 651 Q274 651 220 570.5 Q166 490 166 349 Q166 289 180 235.5 Q194 182 221.5 141 Q249 100 290.5 76 Q332 52 387 52 Q443 52 484.5 71 Q526 90 549 120 L549 230 Q549 253 544 263 Q539 273 516 277 L456 286 L456 334 L727 334 L727 286 L674 277 Q653 273 648.5 261 Q644 249 644 226 L644 -3 L601 -3 L575 44 Q540 18 491.5 2 Q443 -14 380 -14 Z M375 -207 Q346 -207 327 -188.5 Q308 -170 308 -141 Q308 -112 327 -93 Q346 -74 375 -74 Q405 -74 424 -92.5 Q443 -111 443 -140 Q443 -169 424 -188 Q405 -207 375 -207 Z " />
<glyph glyph-name="gcommaaccent" unicode="&#x123;" horiz-adv-x="558" d="M261 578 Q227 578 210.5 600.5 Q194 623 194 650 Q194 689 217 728.5 Q240 768 285 790 L307 761 Q277 735 268 716 Q259 697 259 678 L267 678 Q293 678 305.5 667 Q318 656 318 636 Q318 611 302 594.5 Q286 578 261 578 Z M254 -229 Q188 -229 144 -220 Q100 -211 73.5 -194.5 Q47 -178 36 -155.5 Q25 -133 25 -106 Q25 -64 49 -38 Q73 -12 116 8 L116 12 Q84 22 71 46.5 Q58 71 58 89 Q58 120 74 144 Q90 168 123 203 L123 206 Q88 224 68.5 258 Q49 292 49 343 Q49 384 64 417 Q79 450 106.5 473 Q134 496 172 508.5 Q210 521 256 521 Q292 521 325.5 513 Q359 505 386 488 Q400 526 425.5 554 Q451 582 490 582 Q515 582 536 568.5 Q557 555 557 529 Q557 506 539.5 489.5 Q522 473 500 473 Q485 473 475.5 480.5 Q466 488 460 500 L450 521 Q439 504 432.5 488 Q426 472 421 458 Q438 438 448.5 410.5 Q459 383 459 348 Q459 307 444 274.5 Q429 242 402 219.5 Q375 197 338 185.5 Q301 174 257 174 Q241 174 217 176.5 Q193 179 176 184 Q164 170 154 155.5 Q144 141 144 124 Q144 100 161.5 91.5 Q179 83 214 83 L342 83 Q378 83 410 78 Q442 73 466 59 Q490 45 504.5 20 Q519 -5 519 -46 Q519 -95 498.5 -130 Q478 -165 442 -187 Q406 -209 357.5 -219 Q309 -229 254 -229 Z M255 227 Q309 227 336.5 258 Q364 289 364 345 Q364 403 335 436.5 Q306 470 249 470 Q219 470 199 460.5 Q179 451 167 434.5 Q155 418 149.5 396 Q144 374 144 348 Q144 288 175.5 257.5 Q207 227 255 227 Z M262 -166 Q342 -166 383 -140 Q424 -114 424 -70 Q424 -8 331 -8 L163 -8 Q144 -22 130.5 -42 Q117 -62 117 -91 Q117 -133 151 -149.5 Q185 -166 262 -166 Z " />
<glyph glyph-name="Hcircumflex" unicode="&#x124;" horiz-adv-x="840" d="M257 775 L382 912 Q391 922 400.5 928 Q410 934 421 934 Q432 934 440 927.5 Q448 921 462 906 L583 776 L558 750 L421 834 L281 750 L257 775 Z M62 48 L120 57 Q142 61 146.5 73 Q151 85 151 108 L151 596 Q151 619 146 629 Q141 639 118 643 L62 652 L62 700 L338 700 L338 652 L280 643 Q259 639 254.5 627 Q250 615 250 592 L250 391 L590 391 L590 596 Q590 619 585 629 Q580 639 557 643 L502 652 L502 700 L777 700 L777 652 L720 643 Q698 639 693.5 627 Q689 615 689 592 L689 104 Q689 81 694 71 Q699 61 722 57 L777 48 L777 0 L502 0 L502 48 L559 57 Q581 61 585.5 73 Q590 85 590 108 L590 328 L250 328 L250 104 Q250 81 255 71 Q260 61 282 57 L338 48 L338 0 L62 0 L62 48 Z " />
<glyph glyph-name="hcircumflex" unicode="&#x125;" horiz-adv-x="662" d="M-18 825 L107 962 Q116 972 125.5 978 Q135 984 146 984 Q157 984 165 977.5 Q173 971 187 956 L308 826 L283 800 L146 884 L6 800 L-18 825 Z M55 47 L101 56 Q121 60 125 71.5 Q129 83 129 104 L129 644 Q129 676 122.5 688 Q116 700 86 704 L42 711 L48 761 L211 766 L222 755 L222 428 Q232 446 248 462.5 Q264 479 285.5 492 Q307 505 333 513 Q359 521 389 521 Q436 521 467 507 Q498 493 517.5 470 Q537 447 545 416 Q553 385 553 350 L553 96 Q553 76 558 67.5 Q563 59 584 55 L631 47 L631 0 L386 0 L386 46 L430 54 Q450 58 455 66.5 Q460 75 460 96 L460 321 Q460 348 457.5 371 Q455 394 444.5 411.5 Q434 429 414.5 439 Q395 449 360 449 Q334 449 309.5 441 Q285 433 265.5 416.5 Q246 400 234 373.5 Q222 347 222 310 L222 100 Q222 79 226 69.5 Q230 60 247 57 L300 46 L300 0 L55 0 L55 47 Z " />
<glyph glyph-name="Hbar" unicode="&#x126;" horiz-adv-x="840" d="M689 492 L689 104 Q689 81 694 71 Q699 61 722 57 L777 48 L777 0 L502 0 L502 48 L559 57 Q581 61 585.5 73 Q590 85 590 108 L590 328 L250 328 L250 104 Q250 81 255 71 Q260 61 282 57 L338 48 L338 0 L62 0 L62 48 L120 57 Q142 61 146.5 73 Q151 85 151 108 L151 492 L48 492 L56 549 L151 549 L151 596 Q151 619 146 629 Q141 639 118 643 L62 652 L62 700 L338 700 L338 652 L280 643 Q259 639 254.5 627 Q250 615 250 592 L250 549 L590 549 L590 596 Q590 619 585 629 Q580 639 557 643 L502 652 L502 700 L777 700 L777 652 L720 643 Q698 639 693.5 627 Q689 615 689 592 L689 549 L788 549 L788 492 L689 492 Z M590 492 L250 492 L250 391 L590 391 L590 492 Z " />
<glyph glyph-name="hbar" unicode="&#x127;" horiz-adv-x="662" d="M631 47 L631 0 L386 0 L386 46 L430 54 Q450 58 455 66.5 Q460 75 460 96 L460 321 Q460 348 457.5 371 Q455 394 444.5 411.5 Q434 429 414.5 439 Q395 449 360 449 Q334 449 309.5 441 Q285 433 265.5 416.5 Q246 400 234 373.5 Q222 347 222 310 L222 100 Q222 79 226 69.5 Q230 60 247 57 L300 46 L300 0 L55 0 L55 47 L101 56 Q121 60 125 71.5 Q129 83 129 104 L129 579 L31 579 L39 636 L129 636 L129 644 Q129 676 122.5 688 Q116 700 86 704 L42 711 L48 761 L211 766 L222 755 L222 636 L365 636 L365 579 L222 579 L222 428 Q232 446 248 462.5 Q264 479 285.5 492 Q307 505 333 513 Q359 521 389 521 Q436 521 467 507 Q498 493 517.5 470 Q537 447 545 416 Q553 385 553 350 L553 96 Q553 76 558 67.5 Q563 59 584 55 L631 47 Z " />
<glyph glyph-name="Itilde" unicode="&#x128;" horiz-adv-x="401" d="M277 777 Q257 777 236 782.5 Q215 788 185 801 Q158 812 139 818.5 Q120 825 112 825 Q99 825 90 819 Q81 813 65 789 L34 808 Q47 836 58 854.5 Q69 873 79.5 883.5 Q90 894 101.5 898 Q113 902 127 902 Q144 902 164.5 895.5 Q185 889 216 876 Q238 867 258.5 859.5 Q279 852 292 852 Q307 852 315 861 Q323 870 336 889 L367 870 Q343 819 324.5 798 Q306 777 277 777 Z M58 48 L120 57 Q142 61 146.5 73 Q151 85 151 108 L151 596 Q151 619 146 629 Q141 639 118 643 L58 652 L58 700 L343 700 L343 652 L280 643 Q259 639 254.5 627 Q250 615 250 592 L250 104 Q250 81 255 71 Q260 61 282 57 L343 48 L343 0 L58 0 L58 48 Z " />
<glyph glyph-name="itilde" unicode="&#x129;" horiz-adv-x="333" d="M226 620 Q206 620 186 625.5 Q166 631 136 644 Q109 655 91.5 662 Q74 669 66 669 Q53 669 44 662.5 Q35 656 19 632 L-12 651 Q1 679 12 697 Q23 715 33.5 725 Q44 735 55.5 738.5 Q67 742 81 742 Q98 742 117 736.5 Q136 731 167 718 Q189 709 208.5 701.5 Q228 694 241 694 Q256 694 264 703 Q272 712 285 731 L316 712 Q292 661 273.5 640.5 Q255 620 226 620 Z M40 49 L97 58 Q120 62 124 74 Q128 86 128 109 L128 382 Q128 416 122.5 429 Q117 442 92 445 L44 452 L51 502 L209 510 L221 505 L221 105 Q221 84 226 73 Q231 62 253 58 L309 48 L309 0 L40 0 L40 49 Z " />
<glyph glyph-name="Imacron" unicode="&#x12a;" horiz-adv-x="401" d="M58 868 L342 868 L342 795 L58 795 L58 868 Z M58 48 L120 57 Q142 61 146.5 73 Q151 85 151 108 L151 596 Q151 619 146 629 Q141 639 118 643 L58 652 L58 700 L343 700 L343 652 L280 643 Q259 639 254.5 627 Q250 615 250 592 L250 104 Q250 81 255 71 Q260 61 282 57 L343 48 L343 0 L58 0 L58 48 Z " />
<glyph glyph-name="imacron" unicode="&#x12b;" horiz-adv-x="333" d="M12 708 L292 708 L292 635 L12 635 L12 708 Z M40 49 L97 58 Q120 62 124 74 Q128 86 128 109 L128 382 Q128 416 122.5 429 Q117 442 92 445 L44 452 L51 502 L209 510 L221 505 L221 105 Q221 84 226 73 Q231 62 253 58 L309 48 L309 0 L40 0 L40 49 Z " />
<glyph glyph-name="Ibreve" unicode="&#x12c;" horiz-adv-x="401" d="M197 752 Q159 752 131 765.5 Q103 779 84.5 801.5 Q66 824 55 854 Q44 884 41 916 L81 928 Q95 878 124 855 Q153 832 202 832 Q252 832 281.5 858 Q311 884 322 927 L360 917 Q357 887 346 857.5 Q335 828 314.5 804.5 Q294 781 265 766.5 Q236 752 197 752 Z M58 48 L120 57 Q142 61 146.5 73 Q151 85 151 108 L151 596 Q151 619 146 629 Q141 639 118 643 L58 652 L58 700 L343 700 L343 652 L280 643 Q259 639 254.5 627 Q250 615 250 592 L250 104 Q250 81 255 71 Q260 61 282 57 L343 48 L343 0 L58 0 L58 48 Z " />
<glyph glyph-name="ibreve" unicode="&#x12d;" horiz-adv-x="333" d="M149 587 Q113 587 87 601.5 Q61 616 43.5 639.5 Q26 663 16 693.5 Q6 724 3 756 L43 768 Q57 718 83 692.5 Q109 667 154 667 Q199 667 226 695.5 Q253 724 264 767 L302 757 Q299 727 288.5 697 Q278 667 259 642.5 Q240 618 212.5 602.5 Q185 587 149 587 Z M40 49 L97 58 Q120 62 124 74 Q128 86 128 109 L128 382 Q128 416 122.5 429 Q117 442 92 445 L44 452 L51 502 L209 510 L221 505 L221 105 Q221 84 226 73 Q231 62 253 58 L309 48 L309 0 L40 0 L40 49 Z " />
<glyph glyph-name="Iogonek" unicode="&#x12e;" horiz-adv-x="401" d="M280 643 Q259 639 254.5 627 Q250 615 250 592 L250 104 Q250 81 255 71 Q260 61 282 57 L343 48 L343 0 L264 0 Q249 -12 234.5 -26 Q220 -40 208.5 -55.5 Q197 -71 190 -88 Q183 -105 183 -123 Q183 -164 224 -164 Q238 -164 250.5 -161 Q263 -158 273 -155 L284 -190 Q267 -204 242 -216.5 Q217 -229 189 -229 Q145 -229 121 -205.5 Q97 -182 97 -148 Q97 -121 107 -99 Q117 -77 133 -59 Q149 -41 168.5 -26.5 Q188 -12 207 0 L58 0 L58 48 L120 57 Q142 61 146.5 73 Q151 85 151 108 L151 596 Q151 619 146 629 Q141 639 118 643 L58 652 L58 700 L343 700 L343 652 L280 643 Z " />
<glyph glyph-name="iogonek" unicode="&#x12f;" horiz-adv-x="333" d="M160 620 Q131 620 112 638.5 Q93 657 93 686 Q93 715 112 734 Q131 753 160 753 Q190 753 209 734.5 Q228 716 228 687 Q228 658 209 639 Q190 620 160 620 Z M243 0 Q228 -12 213.5 -26 Q199 -40 187.5 -55.5 Q176 -71 169 -88 Q162 -105 162 -123 Q162 -164 203 -164 Q217 -164 229.5 -161 Q242 -158 252 -155 L263 -190 Q246 -204 221 -216.5 Q196 -229 168 -229 Q124 -229 100 -205.5 Q76 -182 76 -148 Q76 -121 86 -99 Q96 -77 112 -59 Q128 -41 147.5 -26.5 Q167 -12 186 0 L40 0 L40 49 L97 58 Q120 62 124 74 Q128 86 128 109 L128 382 Q128 416 122.5 429 Q117 442 92 445 L44 452 L51 502 L209 510 L221 505 L221 105 Q221 84 226 73 Q231 62 253 58 L309 48 L309 0 L243 0 Z " />
<glyph glyph-name="Idotaccent" unicode="&#x130;" horiz-adv-x="401" d="M199 767 Q170 767 151 785.5 Q132 804 132 833 Q132 862 151 881 Q170 900 199 900 Q229 900 248 881.5 Q267 863 267 834 Q267 805 248 786 Q229 767 199 767 Z M58 48 L120 57 Q142 61 146.5 73 Q151 85 151 108 L151 596 Q151 619 146 629 Q141 639 118 643 L58 652 L58 700 L343 700 L343 652 L280 643 Q259 639 254.5 627 Q250 615 250 592 L250 104 Q250 81 255 71 Q260 61 282 57 L343 48 L343 0 L58 0 L58 48 Z " />
<glyph glyph-name="dotlessi" unicode="&#x131;" horiz-adv-x="333" d="M40 49 L97 58 Q120 62 124 74 Q128 86 128 109 L128 382 Q128 416 122.5 429 Q117 442 92 445 L44 452 L51 502 L209 510 L221 505 L221 105 Q221 84 226 73 Q231 62 253 58 L309 48 L309 0 L40 0 L40 49 Z " />
<glyph glyph-name="Jcircumflex" unicode="&#x134;" horiz-adv-x="575" d="M236 775 L361 912 Q370 922 379.5 928 Q389 934 400 934 Q411 934 419 927.5 Q427 921 441 906 L562 776 L537 750 L400 834 L260 750 L236 775 Z M237 -14 Q203 -14 170.5 -6 Q138 2 113 17 Q88 32 73 55 Q58 78 58 108 Q58 141 78 165.5 Q98 190 133 190 Q166 190 181 177 Q196 164 196 145 Q196 132 190 118 Q184 104 166 74 Q174 67 194 58.5 Q214 50 243 50 Q299 50 323.5 88 Q348 126 348 201 L348 594 Q348 617 343 627.5 Q338 638 315 641 L245 651 L245 700 L540 700 L540 652 L477 643 Q456 640 451.5 627.5 Q447 615 447 592 L447 224 Q447 185 438.5 143 Q430 101 407 66 Q384 31 343 8.5 Q302 -14 237 -14 Z " />
<glyph glyph-name="jcircumflex" unicode="&#x135;" horiz-adv-x="309" d="M-11 605 L103 757 Q121 779 142 779 Q153 779 161.5 773.5 Q170 768 183 751 L292 606 L265 580 L142 680 L15 580 L-11 605 Z M34 -188 Q85 -148 103 -96.5 Q121 -45 121 28 L121 382 Q121 416 115.5 429 Q110 442 85 445 L37 452 L45 502 L202 510 L214 505 L214 95 Q214 27 206.5 -23.5 Q199 -74 181 -112 Q163 -150 134 -178 Q105 -206 62 -229 L34 -188 Z " />
<glyph glyph-name="Kcommaaccent" unicode="&#x136;" horiz-adv-x="754" d="M632 -14 Q578 -14 541.5 8.5 Q505 31 471 85 L314 336 L254 275 L254 104 Q254 81 259 71 Q264 61 286 57 L347 48 L347 0 L62 0 L62 48 L124 57 Q146 61 150.5 73 Q155 85 155 108 L155 596 Q155 619 150 629 Q145 639 122 643 L62 652 L62 700 L347 700 L347 652 L284 643 Q263 640 258.5 627.5 Q254 615 254 592 L254 350 L497 593 Q515 611 509 625.5 Q503 640 484 643 L436 651 L446 700 L683 700 L683 650 L645 642 Q626 638 613 628.5 Q600 619 577 596 L383 401 L558 136 Q575 110 589 93.5 Q603 77 617 68 Q631 59 646 56 Q661 53 680 53 Q698 53 725 62 L735 26 Q718 8 690.5 -3 Q663 -14 632 -14 Z M327 -239 Q357 -213 366 -195 Q375 -177 375 -158 L365 -158 Q336 -158 325 -145 Q314 -132 314 -112 Q314 -87 330 -71.5 Q346 -56 375 -56 Q411 -56 426.5 -78.5 Q442 -101 442 -128 Q442 -167 419 -206.5 Q396 -246 351 -268 L327 -239 Z " />
<glyph glyph-name="kcommaaccent" unicode="&#x137;" horiz-adv-x="610" d="M43 48 L100 57 Q123 61 127 73 Q131 85 131 108 L131 644 Q131 676 124.5 688 Q118 700 88 704 L44 711 L49 761 L213 766 L224 755 L224 104 Q224 83 228.5 72.5 Q233 62 251 57 L287 49 L287 0 L43 0 L43 48 Z M528 -9 Q504 -9 487 -4.5 Q470 0 456 9.5 Q442 19 428.5 33 Q415 47 400 65 L231 266 L231 274 L390 417 Q404 430 402.5 441 Q401 452 390 454 L345 461 L354 507 L578 507 L578 462 L549 454 Q532 449 514 439.5 Q496 430 479 416 L330 290 L496 101 Q511 84 527.5 71.5 Q544 59 569 59 Q584 59 608 67 L618 31 Q598 11 574.5 1 Q551 -9 528 -9 Z M268 -239 Q298 -213 307 -195 Q316 -177 316 -158 L306 -158 Q277 -158 266 -145 Q255 -132 255 -112 Q255 -87 271 -71.5 Q287 -56 316 -56 Q352 -56 367.5 -78.5 Q383 -101 383 -128 Q383 -167 360 -206.5 Q337 -246 292 -268 L268 -239 Z " />
<glyph glyph-name="kgreenlandic" unicode="&#x138;" horiz-adv-x="610" d="M43 48 L100 57 Q123 61 127 73 Q131 85 131 108 L131 391 Q131 423 124.5 435 Q118 447 88 451 L44 458 L49 508 L213 513 L224 502 L224 104 Q224 83 228.5 72.5 Q233 62 251 57 L287 49 L287 0 L43 0 L43 48 Z M528 -9 Q504 -9 487 -4.5 Q470 0 456 9.5 Q442 19 428.5 33 Q415 47 400 65 L231 266 L231 274 L390 417 Q404 430 402.5 441 Q401 452 390 454 L345 461 L354 507 L578 507 L578 462 L549 454 Q532 449 514 439.5 Q496 430 479 416 L330 290 L496 101 Q510 85 526 73 Q542 61 565 59 Q574 59 584.5 60.5 Q595 62 608 67 L618 31 Q598 11 574.5 1 Q551 -9 528 -9 Z " />
<glyph glyph-name="Lacute" unicode="&#x139;" horiz-adv-x="637" d="M106 780 L237 899 Q250 910 258.5 916 Q267 922 276 922 Q295 922 307 906.5 Q319 891 319 874 Q319 853 308 839.5 Q297 826 277 818 L126 752 L106 780 Z M62 48 L120 57 Q142 61 146.5 73 Q151 85 151 108 L151 596 Q151 619 146 629 Q141 639 118 643 L62 652 L62 700 L348 700 L348 652 L282 643 Q260 639 255 629 Q250 619 250 596 L250 55 L363 55 Q400 55 424 63 Q448 71 465.5 89.5 Q483 108 495.5 138.5 Q508 169 522 214 L577 214 L552 0 L62 0 L62 48 Z " />
<glyph glyph-name="lacute" unicode="&#x13a;" horiz-adv-x="333" d="M49 830 L180 949 Q193 960 201.5 966 Q210 972 219 972 Q238 972 250 956.5 Q262 941 262 924 Q262 903 251 889.5 Q240 876 220 868 L69 802 L49 830 Z M40 49 L97 58 Q120 62 124 74 Q128 86 128 109 L128 643 Q128 675 121.5 687 Q115 699 85 703 L41 710 L47 761 L210 766 L221 755 L221 105 Q221 84 226 73 Q231 62 253 58 L309 48 L309 0 L40 0 L40 49 Z " />
<glyph glyph-name="Lcommaaccent" unicode="&#x13b;" horiz-adv-x="637" d="M62 48 L120 57 Q142 61 146.5 73 Q151 85 151 108 L151 596 Q151 619 146 629 Q141 639 118 643 L62 652 L62 700 L348 700 L348 652 L282 643 Q260 639 255 629 Q250 619 250 596 L250 55 L363 55 Q400 55 424 63 Q448 71 465.5 89.5 Q483 108 495.5 138.5 Q508 169 522 214 L577 214 L552 0 L62 0 L62 48 Z M275 -239 Q305 -213 314 -195 Q323 -177 323 -158 L313 -158 Q284 -158 273 -145 Q262 -132 262 -112 Q262 -87 278 -71.5 Q294 -56 323 -56 Q359 -56 374.5 -78.5 Q390 -101 390 -128 Q390 -167 367 -206.5 Q344 -246 299 -268 L275 -239 Z " />
<glyph glyph-name="lcommaaccent" unicode="&#x13c;" horiz-adv-x="333" d="M40 49 L97 58 Q120 62 124 74 Q128 86 128 109 L128 643 Q128 675 121.5 687 Q115 699 85 703 L41 710 L47 761 L210 766 L221 755 L221 105 Q221 84 226 73 Q231 62 253 58 L309 48 L309 0 L40 0 L40 49 Z M123 -239 Q153 -213 162 -195 Q171 -177 171 -158 L161 -158 Q132 -158 121 -145 Q110 -132 110 -112 Q110 -87 126 -71.5 Q142 -56 171 -56 Q207 -56 222.5 -78.5 Q238 -101 238 -128 Q238 -167 215 -206.5 Q192 -246 147 -268 L123 -239 Z " />
<glyph glyph-name="Lcaron" unicode="&#x13d;" horiz-adv-x="637" d="M404 569 Q424 595 434.5 613.5 Q445 632 445 651 Q445 662 441.5 668.5 Q438 675 429 685 Q418 697 413.5 705 Q409 713 409 723 Q409 748 426 758 Q443 768 461 768 Q495 768 508.5 746 Q522 724 522 700 Q522 664 498.5 620 Q475 576 430 541 L404 569 Z M62 48 L120 57 Q142 61 146.5 73 Q151 85 151 108 L151 596 Q151 619 146 629 Q141 639 118 643 L62 652 L62 700 L348 700 L348 652 L282 643 Q260 639 255 629 Q250 619 250 596 L250 55 L363 55 Q400 55 424 63 Q448 71 465.5 89.5 Q483 108 495.5 138.5 Q508 169 522 214 L577 214 L552 0 L62 0 L62 48 Z " />
<glyph glyph-name="lcaron" unicode="&#x13e;" horiz-adv-x="389" d="M270 569 Q290 595 300.5 613.5 Q311 632 311 651 Q311 662 307.5 668.5 Q304 675 295 685 Q284 697 279.5 705 Q275 713 275 723 Q275 748 292 758 Q309 768 327 768 Q361 768 374.5 746 Q388 724 388 700 Q388 664 364.5 620 Q341 576 296 541 L270 569 Z M40 49 L97 58 Q120 62 124 74 Q128 86 128 109 L128 643 Q128 675 121.5 687 Q115 699 85 703 L41 710 L47 761 L210 766 L221 755 L221 105 Q221 84 226 73 Q231 62 253 58 L309 48 L309 0 L40 0 L40 49 Z " />
<glyph glyph-name="Ldot" unicode="&#x13f;" horiz-adv-x="637" d="M62 48 L120 57 Q142 61 146.5 73 Q151 85 151 108 L151 596 Q151 619 146 629 Q141 639 118 643 L62 652 L62 700 L348 700 L348 652 L282 643 Q260 639 255 629 Q250 619 250 596 L250 55 L363 55 Q400 55 424 63 Q448 71 465.5 89.5 Q483 108 495.5 138.5 Q508 169 522 214 L577 214 L552 0 L62 0 L62 48 Z M506 318 Q477 318 458 336.5 Q439 355 439 384 Q439 413 458 432 Q477 451 506 451 Q536 451 555 432.5 Q574 414 574 385 Q574 356 555 337 Q536 318 506 318 Z " />
<glyph glyph-name="ldot" unicode="&#x140;" horiz-adv-x="395" d="M40 49 L97 58 Q120 62 124 74 Q128 86 128 109 L128 643 Q128 675 121.5 687 Q115 699 85 703 L41 710 L47 761 L210 766 L221 755 L221 105 Q221 84 226 73 Q231 62 253 58 L309 48 L309 0 L40 0 L40 49 Z M367 330 Q338 330 319 348.5 Q300 367 300 396 Q300 425 319 444 Q338 463 367 463 Q397 463 416 444.5 Q435 426 435 397 Q435 368 416 349 Q397 330 367 330 Z " />
<glyph glyph-name="Lslash" unicode="&#x141;" horiz-adv-x="637" d="M577 214 L552 0 L62 0 L62 48 L120 57 Q142 61 146.5 73 Q151 85 151 108 L151 301 L28 235 L28 303 L151 368 L151 596 Q151 619 146 629 Q141 639 118 643 L62 652 L62 700 L348 700 L348 652 L282 643 Q260 639 255 629 Q250 619 250 596 L250 411 L442 514 L442 447 L250 344 L250 55 L363 55 Q400 55 424 63 Q448 71 465.5 89.5 Q483 108 495.5 138.5 Q508 169 522 214 L577 214 Z " />
<glyph glyph-name="lslash" unicode="&#x142;" horiz-adv-x="359" d="M227 384 L227 105 Q227 84 232 73 Q237 62 259 58 L315 48 L315 0 L46 0 L46 49 L103 58 Q126 62 130 74 Q134 86 134 109 L134 344 L30 287 L30 359 L134 415 L134 643 Q134 675 127.5 687 Q121 699 91 703 L47 710 L53 761 L216 766 L227 755 L227 455 L334 513 L334 442 L227 384 Z " />
<glyph glyph-name="Nacute" unicode="&#x143;" horiz-adv-x="824" d="M318 780 L449 899 Q462 910 470.5 916 Q479 922 488 922 Q507 922 519 906.5 Q531 891 531 874 Q531 853 520 839.5 Q509 826 489 818 L338 752 L318 780 Z M63 48 L121 57 Q142 61 146.5 73 Q151 85 151 108 L151 596 Q151 619 146 629 Q141 639 119 643 L63 652 L63 700 L285 700 L617 129 L617 596 Q617 619 612 629 Q607 639 584 643 L529 652 L529 700 L774 700 L774 652 L717 643 Q695 639 690.5 627 Q686 615 686 592 L686 0 L583 0 L221 609 L221 104 Q221 81 226 71 Q231 61 253 57 L309 48 L309 0 L63 0 L63 48 Z " />
<glyph glyph-name="nacute" unicode="&#x144;" horiz-adv-x="662" d="M261 605 L369 748 Q381 763 389 770 Q397 777 408 777 Q430 777 443 761 Q456 745 456 726 Q456 694 421 673 L285 580 L261 605 Z M55 47 L103 56 Q123 60 126 71.5 Q129 83 129 104 L129 386 Q129 420 123.5 432 Q118 444 95 448 L46 455 L53 503 L192 514 L204 507 L211 418 L214 418 Q224 436 240.5 454 Q257 472 279 487 Q301 502 328.5 511.5 Q356 521 389 521 Q436 521 467 507 Q498 493 517.5 470 Q537 447 545 416 Q553 385 553 350 L553 96 Q553 76 558 67.5 Q563 59 584 55 L631 47 L631 0 L386 0 L386 46 L430 54 Q450 58 455 66.5 Q460 75 460 96 L460 321 Q460 348 457.5 371 Q455 394 444.5 411.5 Q434 429 414.5 439 Q395 449 360 449 Q334 449 309.5 441 Q285 433 265.5 416.5 Q246 400 234 373.5 Q222 347 222 310 L222 100 Q222 79 226 69.5 Q230 60 247 57 L300 46 L300 0 L55 0 L55 47 Z " />
<glyph glyph-name="Ncommaaccent" unicode="&#x145;" horiz-adv-x="824" d="M63 48 L121 57 Q142 61 146.5 73 Q151 85 151 108 L151 596 Q151 619 146 629 Q141 639 119 643 L63 652 L63 700 L285 700 L617 129 L617 596 Q617 619 612 629 Q607 639 584 643 L529 652 L529 700 L774 700 L774 652 L717 643 Q695 639 690.5 627 Q686 615 686 592 L686 0 L583 0 L221 609 L221 104 Q221 81 226 71 Q231 61 253 57 L309 48 L309 0 L63 0 L63 48 Z M360 -239 Q390 -213 399 -195 Q408 -177 408 -158 L398 -158 Q369 -158 358 -145 Q347 -132 347 -112 Q347 -87 363 -71.5 Q379 -56 408 -56 Q444 -56 459.5 -78.5 Q475 -101 475 -128 Q475 -167 452 -206.5 Q429 -246 384 -268 L360 -239 Z " />
<glyph glyph-name="ncommaaccent" unicode="&#x146;" horiz-adv-x="662" d="M55 47 L103 56 Q123 60 126 71.5 Q129 83 129 104 L129 386 Q129 420 123.5 432 Q118 444 95 448 L46 455 L53 503 L192 514 L204 507 L211 418 L214 418 Q224 436 240.5 454 Q257 472 279 487 Q301 502 328.5 511.5 Q356 521 389 521 Q436 521 467 507 Q498 493 517.5 470 Q537 447 545 416 Q553 385 553 350 L553 96 Q553 76 558 67.5 Q563 59 584 55 L631 47 L631 0 L386 0 L386 46 L430 54 Q450 58 455 66.5 Q460 75 460 96 L460 321 Q460 348 457.5 371 Q455 394 444.5 411.5 Q434 429 414.5 439 Q395 449 360 449 Q334 449 309.5 441 Q285 433 265.5 416.5 Q246 400 234 373.5 Q222 347 222 310 L222 100 Q222 79 226 69.5 Q230 60 247 57 L300 46 L300 0 L55 0 L55 47 Z M289 -239 Q319 -213 328 -195 Q337 -177 337 -158 L327 -158 Q298 -158 287 -145 Q276 -132 276 -112 Q276 -87 292 -71.5 Q308 -56 337 -56 Q373 -56 388.5 -78.5 Q404 -101 404 -128 Q404 -167 381 -206.5 Q358 -246 313 -268 L289 -239 Z " />
<glyph glyph-name="Ncaron" unicode="&#x147;" horiz-adv-x="824" d="M412 752 Q401 752 393 758.5 Q385 765 371 780 L250 910 L275 936 L412 852 L552 936 L576 911 L451 774 Q442 764 432.5 758 Q423 752 412 752 Z M63 48 L121 57 Q142 61 146.5 73 Q151 85 151 108 L151 596 Q151 619 146 629 Q141 639 119 643 L63 652 L63 700 L285 700 L617 129 L617 596 Q617 619 612 629 Q607 639 584 643 L529 652 L529 700 L774 700 L774 652 L717 643 Q695 639 690.5 627 Q686 615 686 592 L686 0 L583 0 L221 609 L221 104 Q221 81 226 71 Q231 61 253 57 L309 48 L309 0 L63 0 L63 48 Z " />
<glyph glyph-name="ncaron" unicode="&#x148;" horiz-adv-x="662" d="M338 580 Q327 580 318.5 585.5 Q310 591 297 608 L188 753 L215 779 L338 679 L465 779 L491 754 L377 602 Q359 580 338 580 Z M55 47 L103 56 Q123 60 126 71.5 Q129 83 129 104 L129 386 Q129 420 123.5 432 Q118 444 95 448 L46 455 L53 503 L192 514 L204 507 L211 418 L214 418 Q224 436 240.5 454 Q257 472 279 487 Q301 502 328.5 511.5 Q356 521 389 521 Q436 521 467 507 Q498 493 517.5 470 Q537 447 545 416 Q553 385 553 350 L553 96 Q553 76 558 67.5 Q563 59 584 55 L631 47 L631 0 L386 0 L386 46 L430 54 Q450 58 455 66.5 Q460 75 460 96 L460 321 Q460 348 457.5 371 Q455 394 444.5 411.5 Q434 429 414.5 439 Q395 449 360 449 Q334 449 309.5 441 Q285 433 265.5 416.5 Q246 400 234 373.5 Q222 347 222 310 L222 100 Q222 79 226 69.5 Q230 60 247 57 L300 46 L300 0 L55 0 L55 47 Z " />
<glyph glyph-name="napostrophe" unicode="&#x149;" horiz-adv-x="717" d="M-7 522 Q23 548 32 566 Q41 584 41 603 L31 603 Q2 603 -9 616 Q-20 629 -20 649 Q-20 674 -4 689.5 Q12 705 41 705 Q77 705 92.5 682.5 Q108 660 108 633 Q108 594 85 554.5 Q62 515 17 493 L-7 522 Z M110 47 L158 56 Q178 60 181 71.5 Q184 83 184 104 L184 386 Q184 420 178.5 432 Q173 444 150 448 L101 455 L108 503 L247 514 L259 507 L266 418 L269 418 Q279 436 295.5 454 Q312 472 334 487 Q356 502 383.5 511.5 Q411 521 444 521 Q491 521 522 507 Q553 493 572.5 470 Q592 447 600 416 Q608 385 608 350 L608 96 Q608 76 613 67.5 Q618 59 639 55 L686 47 L686 0 L441 0 L441 46 L485 54 Q505 58 510 66.5 Q515 75 515 96 L515 321 Q515 348 512.5 371 Q510 394 499.5 411.5 Q489 429 469.5 439 Q450 449 415 449 Q389 449 364.5 441 Q340 433 320.5 416.5 Q301 400 289 373.5 Q277 347 277 310 L277 100 Q277 79 281 69.5 Q285 60 302 57 L355 46 L355 0 L110 0 L110 47 Z " />
<glyph glyph-name="Eng" unicode="&#x14a;" horiz-adv-x="824" d="M774 652 L717 643 Q695 639 690.5 627 Q686 615 686 592 L686 95 Q686 27 677.5 -23.5 Q669 -74 650.5 -112 Q632 -150 602 -178 Q572 -206 529 -229 L501 -188 Q548 -151 567 -104.5 Q586 -58 588 7 L222 609 L221 609 L221 104 Q221 81 226 71 Q231 61 253 57 L309 48 L309 0 L63 0 L63 48 L121 57 Q142 61 146.5 73 Q151 85 151 108 L151 596 Q151 619 146 629 Q141 639 119 643 L63 652 L63 700 L285 700 L615 145 L617 145 L617 596 Q617 619 612 629 Q607 639 584 643 L529 652 L529 700 L774 700 L774 652 Z " />
<glyph glyph-name="eng" unicode="&#x14b;" horiz-adv-x="645" d="M389 521 Q436 521 467 507 Q498 493 517.5 470 Q537 447 545 416 Q553 385 553 350 L553 95 Q553 27 545.5 -23.5 Q538 -74 520 -112 Q502 -150 473 -178 Q444 -206 401 -229 L373 -188 Q424 -148 442 -96.5 Q460 -45 460 28 L460 321 Q460 348 457.5 371 Q455 394 444.5 411.5 Q434 429 414.5 439 Q395 449 360 449 Q334 449 309.5 441 Q285 433 265.5 416.5 Q246 400 234 373.5 Q222 347 222 310 L222 100 Q222 79 226 69.5 Q230 60 247 57 L300 46 L300 0 L55 0 L55 47 L103 56 Q123 60 126 71.5 Q129 83 129 104 L129 386 Q129 420 123.5 432 Q118 444 95 448 L46 455 L53 503 L192 514 L204 507 L211 418 L214 418 Q224 436 240.5 454 Q257 472 279 487 Q301 502 328.5 511.5 Q356 521 389 521 Z " />
<glyph glyph-name="Omacron" unicode="&#x14c;" horiz-adv-x="779" d="M249 868 L533 868 L533 795 L249 795 L249 868 Z M387 -14 Q310 -14 249 12.5 Q188 39 146 85.5 Q104 132 81.5 196.5 Q59 261 59 336 Q59 438 87.5 509.5 Q116 581 163.5 626.5 Q211 672 271.5 693 Q332 714 396 714 Q461 714 520 692.5 Q579 671 623 627.5 Q667 584 693 519 Q719 454 719 368 Q719 276 693 204.5 Q667 133 622 84.5 Q577 36 516.5 11 Q456 -14 387 -14 Z M399 53 Q496 53 553 124 Q610 195 610 349 Q610 423 593.5 479.5 Q577 536 547.5 574 Q518 612 476 631 Q434 650 383 650 Q337 650 297 633.5 Q257 617 227.5 581.5 Q198 546 181.5 490.5 Q165 435 165 357 Q165 287 181.5 230.5 Q198 174 228 134.5 Q258 95 301.5 74 Q345 53 399 53 Z " />
<glyph glyph-name="omacron" unicode="&#x14d;" horiz-adv-x="587" d="M155 708 L435 708 L435 635 L155 635 L155 708 Z M290 -14 Q231 -14 185.5 5.5 Q140 25 109.5 59 Q79 93 63 140 Q47 187 47 242 Q47 317 68.5 370 Q90 423 126 456.5 Q162 490 208.5 505.5 Q255 521 304 521 Q354 521 397 505 Q440 489 472 457.5 Q504 426 522.5 378 Q541 330 541 267 Q541 199 522 146.5 Q503 94 469 58.5 Q435 23 389.5 4.5 Q344 -14 290 -14 Z M304 48 Q368 48 403.5 97 Q439 146 439 243 Q439 348 398 405 Q357 462 288 462 Q227 462 187.5 417.5 Q148 373 148 272 Q148 169 188.5 108.5 Q229 48 304 48 Z " />
<glyph glyph-name="Obreve" unicode="&#x14e;" horiz-adv-x="779" d="M388 752 Q350 752 322 765.5 Q294 779 275.5 801.5 Q257 824 246 854 Q235 884 232 916 L272 928 Q286 878 315 855 Q344 832 393 832 Q443 832 472.5 858 Q502 884 513 927 L551 917 Q548 887 537 857.5 Q526 828 505.5 804.5 Q485 781 456 766.5 Q427 752 388 752 Z M387 -14 Q310 -14 249 12.5 Q188 39 146 85.5 Q104 132 81.5 196.5 Q59 261 59 336 Q59 438 87.5 509.5 Q116 581 163.5 626.5 Q211 672 271.5 693 Q332 714 396 714 Q461 714 520 692.5 Q579 671 623 627.5 Q667 584 693 519 Q719 454 719 368 Q719 276 693 204.5 Q667 133 622 84.5 Q577 36 516.5 11 Q456 -14 387 -14 Z M399 53 Q496 53 553 124 Q610 195 610 349 Q610 423 593.5 479.5 Q577 536 547.5 574 Q518 612 476 631 Q434 650 383 650 Q337 650 297 633.5 Q257 617 227.5 581.5 Q198 546 181.5 490.5 Q165 435 165 357 Q165 287 181.5 230.5 Q198 174 228 134.5 Q258 95 301.5 74 Q345 53 399 53 Z " />
<glyph glyph-name="obreve" unicode="&#x14f;" horiz-adv-x="587" d="M292 587 Q256 587 230 601.5 Q204 616 186.5 639.5 Q169 663 159 693.5 Q149 724 146 756 L186 768 Q200 718 226 692.5 Q252 667 297 667 Q342 667 369 695.5 Q396 724 407 767 L445 757 Q442 727 431.5 697 Q421 667 402 642.5 Q383 618 355.5 602.5 Q328 587 292 587 Z M290 -14 Q231 -14 185.5 5.5 Q140 25 109.5 59 Q79 93 63 140 Q47 187 47 242 Q47 317 68.5 370 Q90 423 126 456.5 Q162 490 208.5 505.5 Q255 521 304 521 Q354 521 397 505 Q440 489 472 457.5 Q504 426 522.5 378 Q541 330 541 267 Q541 199 522 146.5 Q503 94 469 58.5 Q435 23 389.5 4.5 Q344 -14 290 -14 Z M304 48 Q368 48 403.5 97 Q439 146 439 243 Q439 348 398 405 Q357 462 288 462 Q227 462 187.5 417.5 Q148 373 148 272 Q148 169 188.5 108.5 Q229 48 304 48 Z " />
<glyph glyph-name="Ohungarumlaut" unicode="&#x150;" horiz-adv-x="779" d="M259 780 L376 903 Q389 914 397.5 920 Q406 926 415 926 Q434 926 445 910.5 Q456 895 456 878 Q456 857 445 843.5 Q434 830 414 822 L279 752 L259 780 Z M437 780 L555 898 Q578 921 594 921 Q613 921 625 907 Q637 893 637 876 Q637 855 625.5 842.5 Q614 830 595 820 L457 752 L437 780 Z M387 -14 Q310 -14 249 12.5 Q188 39 146 85.5 Q104 132 81.5 196.5 Q59 261 59 336 Q59 438 87.5 509.5 Q116 581 163.5 626.5 Q211 672 271.5 693 Q332 714 396 714 Q461 714 520 692.5 Q579 671 623 627.5 Q667 584 693 519 Q719 454 719 368 Q719 276 693 204.5 Q667 133 622 84.5 Q577 36 516.5 11 Q456 -14 387 -14 Z M399 53 Q496 53 553 124 Q610 195 610 349 Q610 423 593.5 479.5 Q577 536 547.5 574 Q518 612 476 631 Q434 650 383 650 Q337 650 297 633.5 Q257 617 227.5 581.5 Q198 546 181.5 490.5 Q165 435 165 357 Q165 287 181.5 230.5 Q198 174 228 134.5 Q258 95 301.5 74 Q345 53 399 53 Z " />
<glyph glyph-name="ohungarumlaut" unicode="&#x151;" horiz-adv-x="587" d="M184 605 L268 741 Q279 758 287 764 Q295 770 306 770 Q328 770 338.5 757.5 Q349 745 349 726 Q349 697 318 672 L208 580 L184 605 Z M325 605 L418 738 Q429 754 438 760.5 Q447 767 458 767 Q480 767 490.5 754.5 Q501 742 501 725 Q501 710 492 694.5 Q483 679 467 668 L349 580 L325 605 Z M290 -14 Q231 -14 185.5 5.5 Q140 25 109.5 59 Q79 93 63 140 Q47 187 47 242 Q47 317 68.5 370 Q90 423 126 456.5 Q162 490 208.5 505.5 Q255 521 304 521 Q354 521 397 505 Q440 489 472 457.5 Q504 426 522.5 378 Q541 330 541 267 Q541 199 522 146.5 Q503 94 469 58.5 Q435 23 389.5 4.5 Q344 -14 290 -14 Z M304 48 Q368 48 403.5 97 Q439 146 439 243 Q439 348 398 405 Q357 462 288 462 Q227 462 187.5 417.5 Q148 373 148 272 Q148 169 188.5 108.5 Q229 48 304 48 Z " />
<glyph glyph-name="OE" unicode="&#x152;" horiz-adv-x="1090" d="M387 -14 Q310 -14 249 12.5 Q188 39 146 85.5 Q104 132 81.5 196.5 Q59 261 59 336 Q59 438 87.5 509.5 Q116 581 162.5 626.5 Q209 672 268.5 693 Q328 714 390 714 Q463 714 517 689 Q571 664 610 619 L610 700 L978 700 L1015 537 L963 520 Q948 559 934.5 584 Q921 609 903.5 622.5 Q886 636 861.5 641 Q837 646 800 646 L703 646 L703 387 L790 387 Q821 387 837 389.5 Q853 392 861 400 Q869 408 873 424.5 Q877 441 883 469 L929 475 L929 248 L883 240 Q879 269 875 286 Q871 303 862.5 311.5 Q854 320 837.5 322.5 Q821 325 790 325 L703 325 L703 54 L832 54 Q868 54 892 59.5 Q916 65 932.5 79 Q949 93 960.5 118.5 Q972 144 982 184 L1037 184 L1013 0 L610 0 L610 89 Q525 -14 387 -14 Z M399 53 Q496 53 553 124 Q610 195 610 349 Q610 423 593.5 479.5 Q577 536 547.5 574 Q518 612 476 631 Q434 650 383 650 Q337 650 297 633.5 Q257 617 227.5 581.5 Q198 546 181.5 490.5 Q165 435 165 357 Q165 287 181.5 230.5 Q198 174 228 134.5 Q258 95 301.5 74 Q345 53 399 53 Z " />
<glyph glyph-name="oe" unicode="&#x153;" horiz-adv-x="908" d="M290 -14 Q231 -14 185.5 5.5 Q140 25 109.5 59 Q79 93 63 140 Q47 187 47 242 Q47 317 68.5 370 Q90 423 126 456.5 Q162 490 208.5 505.5 Q255 521 304 521 Q362 521 409 499 Q456 477 491 429 Q525 477 573 499 Q621 521 679 521 Q718 521 751.5 509 Q785 497 809.5 474.5 Q834 452 848.5 419 Q863 386 863 344 Q863 296 849 246 L536 246 Q539 161 580 110.5 Q621 60 697 60 Q748 60 782 80 Q816 100 835 120 L870 85 Q856 66 836 48.5 Q816 31 791.5 17 Q767 3 737 -5.5 Q707 -14 674 -14 Q608 -14 562.5 10.5 Q517 35 486 84 Q413 -14 290 -14 Z M771 302 Q774 322 774 348 Q774 408 747.5 438 Q721 468 673 468 Q637 468 613 453 Q589 438 574 414.5 Q559 391 551.5 361.5 Q544 332 541 302 L771 302 Z M304 48 Q368 48 403.5 97 Q439 146 439 243 Q439 348 398 405 Q357 462 288 462 Q227 462 187.5 417.5 Q148 373 148 272 Q148 169 188.5 108.5 Q229 48 304 48 Z " />
<glyph glyph-name="Racute" unicode="&#x154;" horiz-adv-x="725" d="M240 780 L371 899 Q384 910 392.5 916 Q401 922 410 922 Q429 922 441 906.5 Q453 891 453 874 Q453 853 442 839.5 Q431 826 411 818 L260 752 L240 780 Z M597 -14 Q566 -14 544 -5.5 Q522 3 505.5 19.5 Q489 36 476 59.5 Q463 83 450 114 L402 229 Q392 253 383.5 270.5 Q375 288 363.5 299.5 Q352 311 336 316 Q320 321 295 321 Q270 321 250 318 L250 106 Q250 81 256.5 70 Q263 59 287 56 L357 48 L357 0 L62 0 L62 48 L120 57 Q142 61 146.5 73 Q151 85 151 108 L151 596 Q151 619 146 629 Q141 639 118 643 L62 652 L62 700 L313 700 Q369 700 418 691 Q467 682 503.5 661 Q540 640 561 606 Q582 572 582 521 Q582 476 563 443.5 Q544 411 517 389 Q490 367 460 354.5 Q430 342 408 338 L408 335 Q449 324 471 303 Q493 282 509 244 L544 162 Q555 137 564 117 Q573 97 583.5 82.5 Q594 68 608 60.5 Q622 53 643 53 Q661 53 688 62 L698 26 Q656 -14 597 -14 Z M306 369 Q392 369 433.5 409 Q475 449 475 515 Q475 554 462.5 579.5 Q450 605 427.5 620 Q405 635 374 640.5 Q343 646 306 646 L250 646 L250 371 Q262 369 278.5 369 Q295 369 306 369 Z " />
<glyph glyph-name="racute" unicode="&#x155;" horiz-adv-x="473" d="M198 605 L306 748 Q318 763 326 770 Q334 777 345 777 Q367 777 380 761 Q393 745 393 726 Q393 694 358 673 L222 580 L198 605 Z M55 48 L103 57 Q122 61 125.5 72.5 Q129 84 129 105 L129 385 Q129 419 123.5 431 Q118 443 95 447 L46 454 L53 503 L188 514 L200 507 L211 417 L214 417 Q224 435 238 453.5 Q252 472 270 487 Q288 502 311 511.5 Q334 521 363 521 Q406 521 436 497.5 Q466 474 466 425 Q466 387 450 366.5 Q434 346 399 346 Q370 346 355 358 Q340 370 340 390 Q340 400 344 412.5 Q348 425 359 448 Q337 460 312.5 451.5 Q288 443 268 422 Q248 401 235 370 Q222 339 222 306 L222 103 Q222 82 225.5 72.5 Q229 63 247 60 L333 47 L333 0 L55 0 L55 48 Z " />
<glyph glyph-name="Rcommaaccent" unicode="&#x156;" horiz-adv-x="725" d="M597 -14 Q566 -14 544 -5.5 Q522 3 505.5 19.5 Q489 36 476 59.5 Q463 83 450 114 L402 229 Q392 253 383.5 270.5 Q375 288 363.5 299.5 Q352 311 336 316 Q320 321 295 321 Q270 321 250 318 L250 106 Q250 81 256.5 70 Q263 59 287 56 L357 48 L357 0 L62 0 L62 48 L120 57 Q142 61 146.5 73 Q151 85 151 108 L151 596 Q151 619 146 629 Q141 639 118 643 L62 652 L62 700 L313 700 Q369 700 418 691 Q467 682 503.5 661 Q540 640 561 606 Q582 572 582 521 Q582 476 563 443.5 Q544 411 517 389 Q490 367 460 354.5 Q430 342 408 338 L408 335 Q449 324 471 303 Q493 282 509 244 L544 162 Q555 137 564 117 Q573 97 583.5 82.5 Q594 68 608 60.5 Q622 53 643 53 Q661 53 688 62 L698 26 Q656 -14 597 -14 Z M306 369 Q392 369 433.5 409 Q475 449 475 515 Q475 554 462.5 579.5 Q450 605 427.5 620 Q405 635 374 640.5 Q343 646 306 646 L250 646 L250 371 Q262 369 278.5 369 Q295 369 306 369 Z M308 -239 Q338 -213 347 -195 Q356 -177 356 -158 L346 -158 Q317 -158 306 -145 Q295 -132 295 -112 Q295 -87 311 -71.5 Q327 -56 356 -56 Q392 -56 407.5 -78.5 Q423 -101 423 -128 Q423 -167 400 -206.5 Q377 -246 332 -268 L308 -239 Z " />
<glyph glyph-name="rcommaaccent" unicode="&#x157;" horiz-adv-x="473" d="M55 48 L103 57 Q122 61 125.5 72.5 Q129 84 129 105 L129 385 Q129 419 123.5 431 Q118 443 95 447 L46 454 L53 503 L188 514 L200 507 L211 417 L214 417 Q224 435 238 453.5 Q252 472 270 487 Q288 502 311 511.5 Q334 521 363 521 Q406 521 436 497.5 Q466 474 466 425 Q466 387 450 366.5 Q434 346 399 346 Q370 346 355 358 Q340 370 340 390 Q340 400 344 412.5 Q348 425 359 448 Q337 460 312.5 451.5 Q288 443 268 422 Q248 401 235 370 Q222 339 222 306 L222 103 Q222 82 225.5 72.5 Q229 63 247 60 L333 47 L333 0 L55 0 L55 48 Z M123 -239 Q153 -213 162 -195 Q171 -177 171 -158 L161 -158 Q132 -158 121 -145 Q110 -132 110 -112 Q110 -87 126 -71.5 Q142 -56 171 -56 Q207 -56 222.5 -78.5 Q238 -101 238 -128 Q238 -167 215 -206.5 Q192 -246 147 -268 L123 -239 Z " />
<glyph glyph-name="Rcaron" unicode="&#x158;" horiz-adv-x="725" d="M319 752 Q308 752 300 758.5 Q292 765 278 780 L157 910 L182 936 L319 852 L459 936 L483 911 L358 774 Q349 764 339.5 758 Q330 752 319 752 Z M597 -14 Q566 -14 544 -5.5 Q522 3 505.5 19.5 Q489 36 476 59.5 Q463 83 450 114 L402 229 Q392 253 383.5 270.5 Q375 288 363.5 299.5 Q352 311 336 316 Q320 321 295 321 Q270 321 250 318 L250 106 Q250 81 256.5 70 Q263 59 287 56 L357 48 L357 0 L62 0 L62 48 L120 57 Q142 61 146.5 73 Q151 85 151 108 L151 596 Q151 619 146 629 Q141 639 118 643 L62 652 L62 700 L313 700 Q369 700 418 691 Q467 682 503.5 661 Q540 640 561 606 Q582 572 582 521 Q582 476 563 443.5 Q544 411 517 389 Q490 367 460 354.5 Q430 342 408 338 L408 335 Q449 324 471 303 Q493 282 509 244 L544 162 Q555 137 564 117 Q573 97 583.5 82.5 Q594 68 608 60.5 Q622 53 643 53 Q661 53 688 62 L698 26 Q656 -14 597 -14 Z M306 369 Q392 369 433.5 409 Q475 449 475 515 Q475 554 462.5 579.5 Q450 605 427.5 620 Q405 635 374 640.5 Q343 646 306 646 L250 646 L250 371 Q262 369 278.5 369 Q295 369 306 369 Z " />
<glyph glyph-name="rcaron" unicode="&#x159;" horiz-adv-x="473" d="M273 580 Q262 580 253.5 585.5 Q245 591 232 608 L123 753 L150 779 L273 679 L400 779 L426 754 L312 602 Q294 580 273 580 Z M55 48 L103 57 Q122 61 125.5 72.5 Q129 84 129 105 L129 385 Q129 419 123.5 431 Q118 443 95 447 L46 454 L53 503 L188 514 L200 507 L211 417 L214 417 Q224 435 238 453.5 Q252 472 270 487 Q288 502 311 511.5 Q334 521 363 521 Q406 521 436 497.5 Q466 474 466 425 Q466 387 450 366.5 Q434 346 399 346 Q370 346 355 358 Q340 370 340 390 Q340 400 344 412.5 Q348 425 359 448 Q337 460 312.5 451.5 Q288 443 268 422 Q248 401 235 370 Q222 339 222 306 L222 103 Q222 82 225.5 72.5 Q229 63 247 60 L333 47 L333 0 L55 0 L55 48 Z " />
<glyph glyph-name="Sacute" unicode="&#x15a;" horiz-adv-x="613" d="M213 780 L344 899 Q357 910 365.5 916 Q374 922 383 922 Q402 922 414 906.5 Q426 891 426 874 Q426 853 415 839.5 Q404 826 384 818 L233 752 L213 780 Z M326 -14 Q293 -14 265 -7.5 Q237 -1 214.5 8.5 Q192 18 174.5 30 Q157 42 146 53 L130 -6 L86 -6 L66 210 L123 215 Q140 168 162.5 136.5 Q185 105 210.5 85.5 Q236 66 264.5 58 Q293 50 323 50 Q386 50 419.5 80.5 Q453 111 453 165 Q453 200 440 224 Q427 248 405.5 264.5 Q384 281 355.5 292.5 Q327 304 296 314 Q260 326 223 340 Q186 354 157 376.5 Q128 399 109.5 433.5 Q91 468 91 521 Q91 558 104 593 Q117 628 143.5 655 Q170 682 210 698 Q250 714 305 714 Q348 714 387.5 699.5 Q427 685 453 662 L466 714 L513 714 L535 512 L479 504 Q466 550 447.5 580 Q429 610 407 627.5 Q385 645 360 652 Q335 659 308 659 Q256 659 222 629.5 Q188 600 188 549 Q188 517 201 495 Q214 473 235.5 457.5 Q257 442 285 431 Q313 420 343 409 Q380 396 417 381.5 Q454 367 483.5 344 Q513 321 531.5 287 Q550 253 550 200 Q550 163 537 124.5 Q524 86 496.5 55.5 Q469 25 427 5.5 Q385 -14 326 -14 Z " />
<glyph glyph-name="sacute" unicode="&#x15b;" horiz-adv-x="452" d="M158 605 L266 748 Q278 763 286 770 Q294 777 305 777 Q327 777 340 761 Q353 745 353 726 Q353 694 318 673 L182 580 L158 605 Z M49 158 L105 162 Q117 127 133.5 104.5 Q150 82 168.5 69 Q187 56 206.5 51 Q226 46 245 46 Q286 46 312.5 67 Q339 88 339 130 Q339 162 318.5 178.5 Q298 195 267 205.5 Q236 216 200 225 Q164 234 133 250.5 Q102 267 81.5 295 Q61 323 61 371 Q61 436 105 478.5 Q149 521 233 521 Q265 521 295 511.5 Q325 502 343 487 L351 521 L395 521 L408 358 L351 363 Q340 414 306.5 440.5 Q273 467 235 467 Q193 467 169 449 Q145 431 145 394 Q145 363 165.5 346.5 Q186 330 217 319.5 Q248 309 283.5 299.5 Q319 290 350 273.5 Q381 257 401.5 228.5 Q422 200 422 152 Q422 120 411 90 Q400 60 377.5 37 Q355 14 321.5 0 Q288 -14 243 -14 Q197 -14 166 -3 Q135 8 118 20 L107 -14 L65 -14 L49 158 Z " />
<glyph glyph-name="Scircumflex" unicode="&#x15c;" horiz-adv-x="613" d="M145 775 L270 912 Q279 922 288.5 928 Q298 934 309 934 Q320 934 328 927.5 Q336 921 350 906 L471 776 L446 750 L309 834 L169 750 L145 775 Z M326 -14 Q293 -14 265 -7.5 Q237 -1 214.5 8.5 Q192 18 174.5 30 Q157 42 146 53 L130 -6 L86 -6 L66 210 L123 215 Q140 168 162.5 136.5 Q185 105 210.5 85.5 Q236 66 264.5 58 Q293 50 323 50 Q386 50 419.5 80.5 Q453 111 453 165 Q453 200 440 224 Q427 248 405.5 264.5 Q384 281 355.5 292.5 Q327 304 296 314 Q260 326 223 340 Q186 354 157 376.5 Q128 399 109.5 433.5 Q91 468 91 521 Q91 558 104 593 Q117 628 143.5 655 Q170 682 210 698 Q250 714 305 714 Q348 714 387.5 699.5 Q427 685 453 662 L466 714 L513 714 L535 512 L479 504 Q466 550 447.5 580 Q429 610 407 627.5 Q385 645 360 652 Q335 659 308 659 Q256 659 222 629.5 Q188 600 188 549 Q188 517 201 495 Q214 473 235.5 457.5 Q257 442 285 431 Q313 420 343 409 Q380 396 417 381.5 Q454 367 483.5 344 Q513 321 531.5 287 Q550 253 550 200 Q550 163 537 124.5 Q524 86 496.5 55.5 Q469 25 427 5.5 Q385 -14 326 -14 Z " />
<glyph glyph-name="scircumflex" unicode="&#x15d;" horiz-adv-x="452" d="M90 605 L204 757 Q222 779 243 779 Q254 779 262.5 773.5 Q271 768 284 751 L393 606 L366 580 L243 680 L116 580 L90 605 Z M49 158 L105 162 Q117 127 133.5 104.5 Q150 82 168.5 69 Q187 56 206.5 51 Q226 46 245 46 Q286 46 312.5 67 Q339 88 339 130 Q339 162 318.5 178.5 Q298 195 267 205.5 Q236 216 200 225 Q164 234 133 250.5 Q102 267 81.5 295 Q61 323 61 371 Q61 436 105 478.5 Q149 521 233 521 Q265 521 295 511.5 Q325 502 343 487 L351 521 L395 521 L408 358 L351 363 Q340 414 306.5 440.5 Q273 467 235 467 Q193 467 169 449 Q145 431 145 394 Q145 363 165.5 346.5 Q186 330 217 319.5 Q248 309 283.5 299.5 Q319 290 350 273.5 Q381 257 401.5 228.5 Q422 200 422 152 Q422 120 411 90 Q400 60 377.5 37 Q355 14 321.5 0 Q288 -14 243 -14 Q197 -14 166 -3 Q135 8 118 20 L107 -14 L65 -14 L49 158 Z " />
<glyph glyph-name="Scedilla" unicode="&#x15e;" horiz-adv-x="613" d="M550 200 Q550 163 537 124.5 Q524 86 496.5 55.5 Q469 25 427 5.5 Q385 -14 327 -14 L310 -57 Q358 -51 387 -70.5 Q416 -90 416 -133 Q416 -175 388 -202 Q360 -229 301 -229 Q283 -229 267.5 -224.5 Q252 -220 240 -213.5 Q228 -207 219 -200.5 Q210 -194 206 -189 L230 -152 Q243 -162 260 -168 Q277 -174 294 -174 Q314 -174 329 -164 Q344 -154 344 -131 Q344 -110 331 -101.5 Q318 -93 294 -93 Q284 -93 277.5 -93.5 Q271 -94 264 -96 L256 -75 L282 -11 Q233 -3 199 16 Q165 35 146 53 L130 -6 L86 -6 L66 210 L123 215 Q140 168 162.5 136.5 Q185 105 210.5 85.5 Q236 66 264.5 58 Q293 50 323 50 Q386 50 419.5 80.5 Q453 111 453 165 Q453 200 440 224 Q427 248 405.5 264.5 Q384 281 355.5 292.5 Q327 304 296 314 Q260 326 223 340 Q186 354 157 376.5 Q128 399 109.5 433.5 Q91 468 91 521 Q91 558 104 593 Q117 628 143.5 655 Q170 682 210 698 Q250 714 305 714 Q348 714 387.5 699.5 Q427 685 453 662 L466 714 L513 714 L535 512 L479 504 Q466 550 447.5 580 Q429 610 407 627.5 Q385 645 360 652 Q335 659 308 659 Q256 659 222 629.5 Q188 600 188 549 Q188 517 201 495 Q214 473 235.5 457.5 Q257 442 285 431 Q313 420 343 409 Q380 396 417 381.5 Q454 367 483.5 344 Q513 321 531.5 287 Q550 253 550 200 Z " />
<glyph glyph-name="scedilla" unicode="&#x15f;" horiz-adv-x="452" d="M422 152 Q422 121 411.5 92 Q401 63 380 40.5 Q359 18 328 3 Q297 -12 256 -14 L239 -57 Q287 -51 316 -70.5 Q345 -90 345 -133 Q345 -175 317 -202 Q289 -229 230 -229 Q212 -229 196.5 -224.5 Q181 -220 169 -213.5 Q157 -207 148 -200.5 Q139 -194 135 -189 L159 -152 Q172 -162 189 -168 Q206 -174 223 -174 Q243 -174 258 -164 Q273 -154 273 -131 Q273 -110 260 -101.5 Q247 -93 223 -93 Q213 -93 206.5 -93.5 Q200 -94 193 -96 L185 -75 L210 -12 Q178 -8 155 1 Q132 10 118 20 L107 -14 L65 -14 L49 158 L105 162 Q117 127 133.5 104.5 Q150 82 168.5 69 Q187 56 206.5 51 Q226 46 245 46 Q286 46 312.5 67 Q339 88 339 130 Q339 162 318.5 178.5 Q298 195 267 205.5 Q236 216 200 225 Q164 234 133 250.5 Q102 267 81.5 295 Q61 323 61 371 Q61 436 105 478.5 Q149 521 233 521 Q265 521 295 511.5 Q325 502 343 487 L351 521 L395 521 L408 358 L351 363 Q340 414 306.5 440.5 Q273 467 235 467 Q193 467 169 449 Q145 431 145 394 Q145 363 165.5 346.5 Q186 330 217 319.5 Q248 309 283.5 299.5 Q319 290 350 273.5 Q381 257 401.5 228.5 Q422 200 422 152 Z " />
<glyph glyph-name="Scaron" unicode="&#x160;" horiz-adv-x="613" d="M307 752 Q296 752 288 758.5 Q280 765 266 780 L145 910 L170 936 L307 852 L447 936 L471 911 L346 774 Q337 764 327.5 758 Q318 752 307 752 Z M326 -14 Q293 -14 265 -7.5 Q237 -1 214.5 8.5 Q192 18 174.5 30 Q157 42 146 53 L130 -6 L86 -6 L66 210 L123 215 Q140 168 162.5 136.5 Q185 105 210.5 85.5 Q236 66 264.5 58 Q293 50 323 50 Q386 50 419.5 80.5 Q453 111 453 165 Q453 200 440 224 Q427 248 405.5 264.5 Q384 281 355.5 292.5 Q327 304 296 314 Q260 326 223 340 Q186 354 157 376.5 Q128 399 109.5 433.5 Q91 468 91 521 Q91 558 104 593 Q117 628 143.5 655 Q170 682 210 698 Q250 714 305 714 Q348 714 387.5 699.5 Q427 685 453 662 L466 714 L513 714 L535 512 L479 504 Q466 550 447.5 580 Q429 610 407 627.5 Q385 645 360 652 Q335 659 308 659 Q256 659 222 629.5 Q188 600 188 549 Q188 517 201 495 Q214 473 235.5 457.5 Q257 442 285 431 Q313 420 343 409 Q380 396 417 381.5 Q454 367 483.5 344 Q513 321 531.5 287 Q550 253 550 200 Q550 163 537 124.5 Q524 86 496.5 55.5 Q469 25 427 5.5 Q385 -14 326 -14 Z " />
<glyph glyph-name="scaron" unicode="&#x161;" horiz-adv-x="452" d="M234 580 Q223 580 214.5 585.5 Q206 591 193 608 L84 753 L111 779 L234 679 L361 779 L387 754 L273 602 Q255 580 234 580 Z M49 158 L105 162 Q117 127 133.5 104.5 Q150 82 168.5 69 Q187 56 206.5 51 Q226 46 245 46 Q286 46 312.5 67 Q339 88 339 130 Q339 162 318.5 178.5 Q298 195 267 205.5 Q236 216 200 225 Q164 234 133 250.5 Q102 267 81.5 295 Q61 323 61 371 Q61 436 105 478.5 Q149 521 233 521 Q265 521 295 511.5 Q325 502 343 487 L351 521 L395 521 L408 358 L351 363 Q340 414 306.5 440.5 Q273 467 235 467 Q193 467 169 449 Q145 431 145 394 Q145 363 165.5 346.5 Q186 330 217 319.5 Q248 309 283.5 299.5 Q319 290 350 273.5 Q381 257 401.5 228.5 Q422 200 422 152 Q422 120 411 90 Q400 60 377.5 37 Q355 14 321.5 0 Q288 -14 243 -14 Q197 -14 166 -3 Q135 8 118 20 L107 -14 L65 -14 L49 158 Z " />
<glyph glyph-name="uni0162" unicode="&#x162;" horiz-adv-x="738" d="M696 500 L641 487 Q625 536 611.5 566.5 Q598 597 580 614.5 Q562 632 537.5 638.5 Q513 645 475 645 L419 645 L419 106 Q419 83 425 73.5 Q431 64 453 60 L532 48 L532 0 L389 0 L367 -57 Q415 -51 444 -70.5 Q473 -90 473 -133 Q473 -175 445 -202 Q417 -229 358 -229 Q340 -229 324.5 -224.5 Q309 -220 297 -213.5 Q285 -207 276 -200.5 Q267 -194 263 -189 L287 -152 Q300 -162 317 -168 Q334 -174 351 -174 Q371 -174 386 -164 Q401 -154 401 -131 Q401 -110 388 -101.5 Q375 -93 351 -93 Q341 -93 334.5 -93.5 Q328 -94 321 -96 L313 -75 L343 0 L207 0 L207 48 L287 60 Q309 63 314.5 75 Q320 87 320 110 L320 645 L265 645 Q228 645 202.5 638.5 Q177 632 159 614.5 Q141 597 126.5 566.5 Q112 536 96 487 L42 500 L81 700 L659 700 L696 500 Z " />
<glyph glyph-name="uni0163" unicode="&#x163;" horiz-adv-x="404" d="M399 55 Q375 30 340 10 Q305 -10 263 -13 L246 -57 Q294 -51 323 -70.5 Q352 -90 352 -133 Q352 -175 324 -202 Q296 -229 237 -229 Q219 -229 203.5 -224.5 Q188 -220 176 -213.5 Q164 -207 155 -200.5 Q146 -194 142 -189 L166 -152 Q179 -162 196 -168 Q213 -174 230 -174 Q250 -174 265 -164 Q280 -154 280 -131 Q280 -110 267 -101.5 Q254 -93 230 -93 Q220 -93 213.5 -93.5 Q207 -94 200 -96 L192 -75 L217 -12 Q160 -3 138 36 Q116 75 116 135 L116 444 L37 444 L37 496 Q96 501 119 546.5 Q142 592 148 674 L196 680 L209 674 L209 507 L365 507 L365 444 L209 444 L209 142 Q209 59 280 59 Q309 59 332 68 Q355 77 376 91 L399 55 Z " />
<glyph glyph-name="Tcaron" unicode="&#x164;" horiz-adv-x="738" d="M368 752 Q357 752 349 758.5 Q341 765 327 780 L206 910 L231 936 L368 852 L508 936 L532 911 L407 774 Q398 764 388.5 758 Q379 752 368 752 Z M207 48 L287 60 Q309 63 314.5 75 Q320 87 320 110 L320 645 L265 645 Q228 645 202.5 638.5 Q177 632 159 614.5 Q141 597 126.5 566.5 Q112 536 96 487 L42 500 L81 700 L659 700 L696 500 L641 487 Q625 536 611.5 566.5 Q598 597 580 614.5 Q562 632 537.5 638.5 Q513 645 475 645 L419 645 L419 106 Q419 83 425 73.5 Q431 64 453 60 L532 48 L532 0 L207 0 L207 48 Z " />
<glyph glyph-name="tcaron" unicode="&#x165;" horiz-adv-x="404" d="M281 598 Q301 624 311.5 642.5 Q322 661 322 680 Q322 691 318.5 697.5 Q315 704 306 714 Q295 726 290.5 734 Q286 742 286 752 Q286 777 303 787 Q320 797 338 797 Q372 797 385.5 775 Q399 753 399 729 Q399 693 375.5 649 Q352 605 307 570 L281 598 Z M249 -14 Q211 -14 185.5 -3.5 Q160 7 144.5 26.5 Q129 46 122.5 73.5 Q116 101 116 135 L116 444 L37 444 L37 496 Q96 501 119 546.5 Q142 592 148 674 L196 680 L209 674 L209 507 L365 507 L365 444 L209 444 L209 142 Q209 59 280 59 Q309 59 332 68 Q355 77 376 91 L399 55 Q373 28 334.5 7 Q296 -14 249 -14 Z " />
<glyph glyph-name="Tbar" unicode="&#x166;" horiz-adv-x="738" d="M696 500 L641 487 Q625 536 611.5 566.5 Q598 597 580 614.5 Q562 632 537.5 638.5 Q513 645 475 645 L419 645 L419 378 L575 378 L575 315 L419 315 L419 106 Q419 83 425 73.5 Q431 64 453 60 L532 48 L532 0 L207 0 L207 48 L287 60 Q309 63 314.5 75 Q320 87 320 110 L320 315 L165 315 L173 378 L320 378 L320 645 L265 645 Q228 645 202.5 638.5 Q177 632 159 614.5 Q141 597 126.5 566.5 Q112 536 96 487 L42 500 L81 700 L659 700 L696 500 Z " />
<glyph glyph-name="tbar" unicode="&#x167;" horiz-adv-x="404" d="M399 55 Q373 28 334.5 7 Q296 -14 249 -14 Q211 -14 185.5 -3.5 Q160 7 144.5 26.5 Q129 46 122.5 73.5 Q116 101 116 135 L116 262 L32 262 L40 321 L116 321 L116 444 L37 444 L37 496 Q96 501 119 546.5 Q142 592 148 674 L196 680 L209 674 L209 507 L365 507 L365 444 L209 444 L209 321 L365 321 L365 262 L209 262 L209 142 Q209 59 280 59 Q309 59 332 68 Q355 77 376 91 L399 55 Z " />
<glyph glyph-name="Utilde" unicode="&#x168;" horiz-adv-x="810" d="M493 777 Q473 777 452 782.5 Q431 788 401 801 Q374 812 355 818.5 Q336 825 328 825 Q315 825 306 819 Q297 813 281 789 L250 808 Q263 836 274 854.5 Q285 873 295.5 883.5 Q306 894 317.5 898 Q329 902 343 902 Q360 902 380.5 895.5 Q401 889 432 876 Q454 867 474.5 859.5 Q495 852 508 852 Q523 852 531 861 Q539 870 552 889 L583 870 Q559 819 540.5 798 Q522 777 493 777 Z M404 -14 Q327 -14 276 7 Q225 28 194 65 Q163 102 150.5 153 Q138 204 138 265 L138 596 Q138 619 133 629 Q128 639 105 643 L49 652 L49 700 L325 700 L325 652 L267 643 Q246 639 241.5 627 Q237 615 237 592 L237 272 Q237 161 277.5 108.5 Q318 56 418 56 Q462 56 497 67.5 Q532 79 556.5 105.5 Q581 132 594 174.5 Q607 217 607 279 L607 596 Q607 619 602 629 Q597 639 574 643 L519 652 L519 700 L765 700 L765 652 L708 643 Q686 639 681.5 627 Q677 615 677 592 L677 291 Q677 132 606 59 Q535 -14 404 -14 Z " />
<glyph glyph-name="utilde" unicode="&#x169;" horiz-adv-x="634" d="M384 620 Q364 620 344 625.5 Q324 631 294 644 Q267 655 249.5 662 Q232 669 224 669 Q211 669 202 662.5 Q193 656 177 632 L146 651 Q159 679 170 697 Q181 715 191.5 725 Q202 735 213.5 738.5 Q225 742 239 742 Q256 742 275 736.5 Q294 731 325 718 Q347 709 366.5 701.5 Q386 694 399 694 Q414 694 422 703 Q430 712 443 731 L474 712 Q450 661 431.5 640.5 Q413 620 384 620 Z M265 -14 Q219 -14 188 0 Q157 14 138.5 37 Q120 60 112.5 91.5 Q105 123 105 157 L105 386 Q105 420 99.5 432 Q94 444 71 448 L27 455 L35 503 L186 514 L198 507 L198 186 Q198 159 200 136 Q202 113 211.5 95.5 Q221 78 240.5 68 Q260 58 294 58 Q320 58 344.5 66 Q369 74 387.5 90.5 Q406 107 417.5 133.5 Q429 160 429 197 L429 386 Q429 420 423.5 432 Q418 444 395 448 L350 455 L358 503 L510 514 L522 507 L522 101 Q522 78 528 69 Q534 60 554 56 L604 47 L604 0 L449 -6 L435 75 L432 75 Q403 40 364.5 13 Q326 -14 265 -14 Z " />
<glyph glyph-name="Umacron" unicode="&#x16a;" horiz-adv-x="810" d="M274 868 L558 868 L558 795 L274 795 L274 868 Z M404 -14 Q327 -14 276 7 Q225 28 194 65 Q163 102 150.5 153 Q138 204 138 265 L138 596 Q138 619 133 629 Q128 639 105 643 L49 652 L49 700 L325 700 L325 652 L267 643 Q246 639 241.5 627 Q237 615 237 592 L237 272 Q237 161 277.5 108.5 Q318 56 418 56 Q462 56 497 67.5 Q532 79 556.5 105.5 Q581 132 594 174.5 Q607 217 607 279 L607 596 Q607 619 602 629 Q597 639 574 643 L519 652 L519 700 L765 700 L765 652 L708 643 Q686 639 681.5 627 Q677 615 677 592 L677 291 Q677 132 606 59 Q535 -14 404 -14 Z " />
<glyph glyph-name="umacron" unicode="&#x16b;" horiz-adv-x="634" d="M170 708 L450 708 L450 635 L170 635 L170 708 Z M265 -14 Q219 -14 188 0 Q157 14 138.5 37 Q120 60 112.5 91.5 Q105 123 105 157 L105 386 Q105 420 99.5 432 Q94 444 71 448 L27 455 L35 503 L186 514 L198 507 L198 186 Q198 159 200 136 Q202 113 211.5 95.5 Q221 78 240.5 68 Q260 58 294 58 Q320 58 344.5 66 Q369 74 387.5 90.5 Q406 107 417.5 133.5 Q429 160 429 197 L429 386 Q429 420 423.5 432 Q418 444 395 448 L350 455 L358 503 L510 514 L522 507 L522 101 Q522 78 528 69 Q534 60 554 56 L604 47 L604 0 L449 -6 L435 75 L432 75 Q403 40 364.5 13 Q326 -14 265 -14 Z " />
<glyph glyph-name="Ubreve" unicode="&#x16c;" horiz-adv-x="810" d="M413 752 Q375 752 347 765.5 Q319 779 300.5 801.5 Q282 824 271 854 Q260 884 257 916 L297 928 Q311 878 340 855 Q369 832 418 832 Q468 832 497.5 858 Q527 884 538 927 L576 917 Q573 887 562 857.5 Q551 828 530.5 804.5 Q510 781 481 766.5 Q452 752 413 752 Z M404 -14 Q327 -14 276 7 Q225 28 194 65 Q163 102 150.5 153 Q138 204 138 265 L138 596 Q138 619 133 629 Q128 639 105 643 L49 652 L49 700 L325 700 L325 652 L267 643 Q246 639 241.5 627 Q237 615 237 592 L237 272 Q237 161 277.5 108.5 Q318 56 418 56 Q462 56 497 67.5 Q532 79 556.5 105.5 Q581 132 594 174.5 Q607 217 607 279 L607 596 Q607 619 602 629 Q597 639 574 643 L519 652 L519 700 L765 700 L765 652 L708 643 Q686 639 681.5 627 Q677 615 677 592 L677 291 Q677 132 606 59 Q535 -14 404 -14 Z " />
<glyph glyph-name="ubreve" unicode="&#x16d;" horiz-adv-x="634" d="M306 587 Q270 587 244 601.5 Q218 616 200.5 639.5 Q183 663 173 693.5 Q163 724 160 756 L200 768 Q214 718 240 692.5 Q266 667 311 667 Q356 667 383 695.5 Q410 724 421 767 L459 757 Q456 727 445.5 697 Q435 667 416 642.5 Q397 618 369.5 602.5 Q342 587 306 587 Z M265 -14 Q219 -14 188 0 Q157 14 138.5 37 Q120 60 112.5 91.5 Q105 123 105 157 L105 386 Q105 420 99.5 432 Q94 444 71 448 L27 455 L35 503 L186 514 L198 507 L198 186 Q198 159 200 136 Q202 113 211.5 95.5 Q221 78 240.5 68 Q260 58 294 58 Q320 58 344.5 66 Q369 74 387.5 90.5 Q406 107 417.5 133.5 Q429 160 429 197 L429 386 Q429 420 423.5 432 Q418 444 395 448 L350 455 L358 503 L510 514 L522 507 L522 101 Q522 78 528 69 Q534 60 554 56 L604 47 L604 0 L449 -6 L435 75 L432 75 Q403 40 364.5 13 Q326 -14 265 -14 Z " />
<glyph glyph-name="Uring" unicode="&#x16e;" horiz-adv-x="810" d="M415 742 Q357 742 331 770.5 Q305 799 305 847 Q305 890 332.5 920.5 Q360 951 417 951 Q471 951 498 923 Q525 895 525 849 Q525 801 497 771.5 Q469 742 415 742 Z M416 789 Q445 789 455.5 806.5 Q466 824 466 847 Q466 870 454 887 Q442 904 414 904 Q385 904 374 886.5 Q363 869 363 847 Q363 825 374.5 807 Q386 789 416 789 Z M404 -14 Q327 -14 276 7 Q225 28 194 65 Q163 102 150.5 153 Q138 204 138 265 L138 596 Q138 619 133 629 Q128 639 105 643 L49 652 L49 700 L325 700 L325 652 L267 643 Q246 639 241.5 627 Q237 615 237 592 L237 272 Q237 161 277.5 108.5 Q318 56 418 56 Q462 56 497 67.5 Q532 79 556.5 105.5 Q581 132 594 174.5 Q607 217 607 279 L607 596 Q607 619 602 629 Q597 639 574 643 L519 652 L519 700 L765 700 L765 652 L708 643 Q686 639 681.5 627 Q677 615 677 592 L677 291 Q677 132 606 59 Q535 -14 404 -14 Z " />
<glyph glyph-name="uring" unicode="&#x16f;" horiz-adv-x="634" d="M310 582 Q253 582 227.5 610 Q202 638 202 685 Q202 727 229 757 Q256 787 312 787 Q365 787 391.5 759.5 Q418 732 418 687 Q418 640 390.5 611 Q363 582 310 582 Z M311 629 Q339 629 349 645.5 Q359 662 359 685 Q359 707 347 724 Q335 741 309 741 Q282 741 271 723.5 Q260 706 260 685 Q260 664 271 646.5 Q282 629 311 629 Z M265 -14 Q219 -14 188 0 Q157 14 138.5 37 Q120 60 112.5 91.5 Q105 123 105 157 L105 386 Q105 420 99.5 432 Q94 444 71 448 L27 455 L35 503 L186 514 L198 507 L198 186 Q198 159 200 136 Q202 113 211.5 95.5 Q221 78 240.5 68 Q260 58 294 58 Q320 58 344.5 66 Q369 74 387.5 90.5 Q406 107 417.5 133.5 Q429 160 429 197 L429 386 Q429 420 423.5 432 Q418 444 395 448 L350 455 L358 503 L510 514 L522 507 L522 101 Q522 78 528 69 Q534 60 554 56 L604 47 L604 0 L449 -6 L435 75 L432 75 Q403 40 364.5 13 Q326 -14 265 -14 Z " />
<glyph glyph-name="Uhungarumlaut" unicode="&#x170;" horiz-adv-x="810" d="M284 780 L401 903 Q414 914 422.5 920 Q431 926 440 926 Q459 926 470 910.5 Q481 895 481 878 Q481 857 470 843.5 Q459 830 439 822 L304 752 L284 780 Z M462 780 L580 898 Q603 921 619 921 Q638 921 650 907 Q662 893 662 876 Q662 855 650.5 842.5 Q639 830 620 820 L482 752 L462 780 Z M404 -14 Q327 -14 276 7 Q225 28 194 65 Q163 102 150.5 153 Q138 204 138 265 L138 596 Q138 619 133 629 Q128 639 105 643 L49 652 L49 700 L325 700 L325 652 L267 643 Q246 639 241.5 627 Q237 615 237 592 L237 272 Q237 161 277.5 108.5 Q318 56 418 56 Q462 56 497 67.5 Q532 79 556.5 105.5 Q581 132 594 174.5 Q607 217 607 279 L607 596 Q607 619 602 629 Q597 639 574 643 L519 652 L519 700 L765 700 L765 652 L708 643 Q686 639 681.5 627 Q677 615 677 592 L677 291 Q677 132 606 59 Q535 -14 404 -14 Z " />
<glyph glyph-name="uhungarumlaut" unicode="&#x171;" horiz-adv-x="634" d="M199 605 L283 741 Q294 758 302 764 Q310 770 321 770 Q343 770 353.5 757.5 Q364 745 364 726 Q364 697 333 672 L223 580 L199 605 Z M340 605 L433 738 Q444 754 453 760.5 Q462 767 473 767 Q495 767 505.5 754.5 Q516 742 516 725 Q516 710 507 694.5 Q498 679 482 668 L364 580 L340 605 Z M265 -14 Q219 -14 188 0 Q157 14 138.5 37 Q120 60 112.5 91.5 Q105 123 105 157 L105 386 Q105 420 99.5 432 Q94 444 71 448 L27 455 L35 503 L186 514 L198 507 L198 186 Q198 159 200 136 Q202 113 211.5 95.5 Q221 78 240.5 68 Q260 58 294 58 Q320 58 344.5 66 Q369 74 387.5 90.5 Q406 107 417.5 133.5 Q429 160 429 197 L429 386 Q429 420 423.5 432 Q418 444 395 448 L350 455 L358 503 L510 514 L522 507 L522 101 Q522 78 528 69 Q534 60 554 56 L604 47 L604 0 L449 -6 L435 75 L432 75 Q403 40 364.5 13 Q326 -14 265 -14 Z " />
</font>
</svg>
